<?xml version="1.0" encoding="utf-8"?>
<!-- Generator: Adobe Illustrator 24.0.0, SVG Export Plug-In . SVG Version: 6.00 Build 0)  -->
<svg version="1.1" id="Capa_1" xmlns="http://www.w3.org/2000/svg" xmlns:xlink="http://www.w3.org/1999/xlink" x="0px" y="0px"
	 viewBox="0 0 1024 1024" style="enable-background:new 0 0 1024 1024;" xml:space="preserve">
<style type="text/css">
	.st0{fill:#443F80;}
	.st1{fill:#C640A6;}
	.st2{fill:#B72C9D;}
	.st3{fill:#F9B630;}
	.st4{fill:#F473C3;}
	.st5{fill:#FFD071;}
	.st6{fill:#F9F7FC;}
	.st7{fill:#DCDAEB;}
	.st8{fill:#767DD4;}
	.st9{fill:#5E6ACA;}
	.st10{fill:#FFFFFF;}
</style>
<g>
	<g>
		<path class="st0" d="M952,512c0,43.8-6.4,86.1-18.3,126c-17.6,59.1-47.4,113-86.3,158.8C836,810.2,823.7,823,810.8,835
			c-7.1,6.5-14.4,12.9-21.9,19c-27.5,22.3-57.8,41.4-90.3,56.6c-7.4,3.5-15,6.8-22.7,9.8c-21.2,8.5-43.2,15.5-65.9,20.6
			c-31.5,7.2-64.3,11-98.1,11C269,952,72,755,72,512c0-43.8,6.4-86,18.3-125.9c3.8-12.8,8.2-25.4,13.1-37.7
			c7.9-19.6,17.1-38.6,27.6-56.7c0.2-0.4,0.5-0.9,0.7-1.3c9.8-16.9,20.8-33,32.8-48.4c13.3-17.1,27.9-33.2,43.5-48.2
			c15.3-14.7,31.7-28.2,49.1-40.6c22.7-16.1,46.9-30.2,72.5-41.8c13-6,26.4-11.3,40.1-16c12.6-4.3,25.5-8.1,38.6-11.2
			c0.6-0.1,1.1-0.3,1.7-0.4C442.7,76.1,476.9,72,512,72c27.3,0,54,2.5,79.9,7.2c123.3,22.6,228.7,96.6,293,199
			c24.7,39.3,43.3,82.7,54.6,129.1C947.7,440.9,952,475.9,952,512z"/>
	</g>
	<g>
		<path class="st1" d="M123.6,672.2c-20.7-12.5-33.3-34.9-33.3-59.1V304.4c0-12,3.1-23.6,8.8-33.8l309.2,187.8l8.8,290.6l-8.8,84.1
			c-12.4,0-24.8-3.3-35.8-10L123.6,672.2z"/>
		<path class="st2" d="M693,672.2c20.7-12.5,33.3-34.9,33.3-59.1V304.4c0-12-3.1-23.6-8.8-33.8L408.3,458.5v374.7
			c12.4,0,24.8-3.3,35.8-10L693,672.2z"/>
		<ellipse transform="matrix(0.92 -0.392 0.392 0.92 -227.4278 145.4963)" class="st3" cx="242.6" cy="629.7" rx="25.8" ry="45.6"/>
		<ellipse transform="matrix(0.92 -0.392 0.392 0.92 -176.5088 135.1013)" class="st3" cx="242.6" cy="499.8" rx="25.8" ry="45.6"/>
		<path class="st4" d="M717.5,270.7L442.9,452.3c-10.5,6.9-22.5,10.4-34.6,10.4s-24.1-3.5-34.6-10.4L99.1,270.7
			c5.7-10.2,14-19,24.4-25.3L372.3,93.9c11-6.7,23.5-10.1,35.9-10.1c12.5,0,24.9,3.3,35.9,10.1L693,245.4
			C703.4,251.7,711.7,260.5,717.5,270.7z"/>
		<path class="st1" d="M717.5,270.7L442.9,452.3c-10.5,6.9-22.5,10.4-34.6,10.4V83.8c12.5,0,24.9,3.3,35.9,10.1l248.9,151.5
			C703.4,251.7,711.7,260.5,717.5,270.7z"/>
		<path class="st5" d="M454.1,263c0,15.9-20.4,28.7-45.5,28.7h-0.3c-25-0.1-45.2-12.9-45.2-28.7s20.2-28.6,45.2-28.7h0.3
			C433.8,234.3,454.1,247.1,454.1,263z"/>
		<ellipse class="st3" cx="550.1" cy="263" rx="45.5" ry="28.7"/>
		<ellipse class="st5" cx="267.2" cy="263" rx="45.5" ry="28.7"/>
		<g>
			<path class="st6" d="M933.7,526.2V638c-17.6,59.1-47.4,113-86.3,158.8C836,810.2,823.7,823,810.8,835c-7.1,6.5-14.4,12.9-21.9,19
				c-27.5,22.3-57.8,41.4-90.3,56.6c-7.4,3.5-15,6.8-22.7,9.8c-21.2,8.5-43.2,15.5-65.9,20.6h-91.2c-30.5,0-55.3-24.8-55.3-55.3
				V526.2c0-10.2,2.8-19.8,7.7-28c4.8-8.2,11.8-15.1,20-19.9c4.1-2.4,8.5-4.2,13.1-5.5s9.5-1.9,14.6-1.9h359.5
				C908.9,470.9,933.7,495.7,933.7,526.2z"/>
			<path class="st7" d="M933.7,526.2V638c-17.6,59.1-47.4,113-86.3,158.8C836,810.2,823.7,823,810.8,835c-7.1,6.5-14.4,12.9-21.9,19
				c-27.5,22.3-57.8,41.4-90.3,56.6V470.9h179.7C908.9,470.9,933.7,495.7,933.7,526.2z"/>
			<g>
				<path class="st8" d="M740.1,706c0,22.9-18.6,41.5-41.5,41.5s-41.5-18.6-41.5-41.5s18.6-41.5,41.5-41.5
					C721.6,664.5,740.1,683.1,740.1,706z"/>
				<circle class="st8" cx="574.2" cy="581.5" r="41.5"/>
				<path class="st9" d="M847.4,796.8C836,810.2,823.7,823,810.8,835c-7.1,6.5-14.4,12.9-21.9,19c-4.6-6.7-7.3-14.8-7.3-23.5
					c0-22.9,18.6-41.5,41.5-41.5C832.2,788.9,840.6,791.8,847.4,796.8z"/>
				<circle class="st8" cx="574.2" cy="830.4" r="41.5"/>
				<circle class="st9" cx="823.1" cy="581.5" r="41.5"/>
				<path class="st9" d="M740.1,706c0,22.9-18.6,41.5-41.5,41.5v-82.9C721.6,664.5,740.1,683.1,740.1,706z"/>
			</g>
		</g>
		<path class="st3" d="M454.1,263c0,15.9-20.4,28.7-45.5,28.7h-0.3v-57.5h0.3C433.8,234.3,454.1,247.1,454.1,263z"/>
	</g>
</g>
<g>
	<path class="st10" d="M222.8,583.2c-15.9,6.8-19.6,32.5-8.5,58.6c5.1,12,12.6,22.2,21.2,28.7c6.4,4.9,12.9,7.4,18.9,7.4
		c2.8,0,5.5-0.5,8.1-1.6c15.9-6.8,19.6-32.5,8.5-58.6C259.8,591.5,238.7,576.4,222.8,583.2z M258.5,667.1c-4.5,1.9-10.7,0.3-17-4.5
		c-7.2-5.5-13.6-14.3-18-24.7c-9.5-22.3-6-41.6,3.2-45.5c9.2-3.9,25.5,6.9,35.1,29.2C271.3,643.9,267.8,663.1,258.5,667.1z"/>
	<path class="st10" d="M249.8,459c-9.4-7.2-18.9-9.2-27-5.8c-8.1,3.4-13.2,11.8-14.6,23.5c-1.2,10.7,0.9,23.2,6.1,35.1
		c5.1,12,12.6,22.2,21.2,28.7c6.4,4.9,12.9,7.4,18.9,7.4c2.8,0,5.5-0.5,8.1-1.6c15.9-6.8,19.6-32.5,8.5-58.6
		C265.8,475.8,258.3,465.6,249.8,459z M258.5,537.2c-4.5,1.9-10.7,0.3-17-4.5c-7.2-5.5-13.6-14.3-18-24.7
		c-4.4-10.4-6.3-21.1-5.3-30.1c0.9-7.9,4-13.5,8.5-15.4c1.2-0.5,2.6-0.8,4.1-0.8c3.9,0,8.4,1.8,12.9,5.3c7.2,5.5,13.6,14.3,18,24.7
		C271.3,514,267.8,533.2,258.5,537.2z"/>
	<path class="st10" d="M408.6,296.7c28.3,0,50.5-14.8,50.5-33.7s-22.2-33.7-50.5-33.7h-0.3c-28.1,0.1-50.2,14.9-50.2,33.7
		s22,33.6,50.2,33.7H408.6z M368.1,263c0-12.8,18.4-23.6,40.2-23.7h0.3c22,0,40.5,10.9,40.5,23.7s-18.5,23.7-40.5,23.7h-0.3
		C386.5,286.6,368.1,275.8,368.1,263z"/>
	<path class="st10" d="M550.1,296.7c28.3,0,50.5-14.8,50.5-33.7s-22.2-33.7-50.5-33.7s-50.5,14.8-50.5,33.7S521.8,296.7,550.1,296.7
		z M550.1,239.3c22,0,40.5,10.9,40.5,23.7s-18.5,23.7-40.5,23.7s-40.5-10.9-40.5-23.7S528.1,239.3,550.1,239.3z"/>
	<path class="st10" d="M267.2,229.3c-28.3,0-50.5,14.8-50.5,33.7s22.2,33.7,50.5,33.7s50.5-14.8,50.5-33.7S295.5,229.3,267.2,229.3z
		 M267.2,286.7c-22,0-40.5-10.9-40.5-23.7s18.5-23.7,40.5-23.7s40.5,10.9,40.5,23.7S289.2,286.7,267.2,286.7z"/>
	<path class="st10" d="M878.4,465.9H731.3V304.4c0-11.1-2.5-22.1-7.3-32l0.1-0.1l-1.3-2.3c-0.3-0.6-0.7-1.2-1-1.8l-2.8-5l-0.3,0.2
		c-6.1-9-14-16.7-23.2-22.2L446.7,89.6c-11.5-7.1-24.8-10.8-38.5-10.8c-13.6,0-26.9,3.7-38.5,10.8L120.9,241.1
		c-9.3,5.6-17.2,13.2-23.2,22.2l-0.2-0.2l-2.8,5c-0.4,0.8-0.8,1.5-1.2,2.3l-1,1.9l0.1,0.1c-4.8,10-7.3,21-7.3,32v308.7
		c0,25.8,13.7,50.1,35.7,63.4l248.9,150.9c10.1,6.2,21.6,9.8,33.4,10.6v0.3h5c13.6,0,26.9-3.7,38.4-10.7l11.8-7.2v65.4
		c0,33.2,27.1,60.3,60.3,60.3h91.8l0.5-0.1c22.2-5,44.6-12,66.6-20.8c7.6-2.9,15.3-6.3,23-9.9c30.9-14.4,60.2-32.6,87.1-53.9l0,0
		l4.2-3.4c7-5.7,14.2-12,22.1-19.2c13.2-12.3,25.6-25.3,37-38.6l3.5-4.1l0,0c38.5-46.5,66.7-99.1,83.8-156.5l0.2-0.7V526.2
		C938.7,493,911.6,465.9,878.4,465.9z M126.1,249.7L374.9,98.2c10.1-6.1,21.6-9.4,33.3-9.4c11.9,0,23.4,3.2,33.3,9.4l248.9,151.5
		c8.1,4.9,15,11.6,20.3,19.5L440.2,448.1c-9.5,6.3-20.6,9.6-31.9,9.6c-11.3,0-22.3-3.3-31.8-9.6L105.9,269.2
		C111.1,261.3,118,254.6,126.1,249.7z M375.1,818.8L126.2,667.9c-19.1-11.5-30.9-32.5-30.9-54.8V304.4c0-9.1,2-18.2,5.7-26.4
		l270,178.5c9.8,6.4,20.9,10.2,32.3,11v360.4C393.3,827.1,383.6,824,375.1,818.8z M458.5,526.2v282.4l-17,10.3
		c-8.5,5.2-18.2,8.3-28.2,9.1V467.5c11.5-0.8,22.6-4.6,32.4-11L715.6,278c3.7,8.3,5.7,17.3,5.7,26.4v161.5H518.9
		c-5.7,0-11.1,0.7-16,2.1c-5.2,1.5-10,3.5-14.3,6c-9.1,5.3-16.6,12.8-21.8,21.7C461.4,504.8,458.5,515.4,458.5,526.2z M803.4,834.9
		c-0.3,0.3-0.6,0.5-0.9,0.8c-1.3,1.1-2.5,2.3-3.8,3.4c-0.2,0.2-0.4,0.4-0.6,0.5c-1.1,0.9-2.1,1.9-3.2,2.8c-0.3,0.3-0.6,0.5-0.9,0.8
		c-1.2,1-2.3,2-3.5,3c-0.1,0.1-0.2,0.2-0.3,0.2c-2.4-4.9-3.6-10.3-3.6-15.9c0-20.1,16.4-36.5,36.6-36.5c0.1,0,0.3,0,0.4,0
		c5.7,0,11.3,1.3,16.3,3.9c-0.1,0.1-0.2,0.2-0.3,0.3c-0.4,0.4-0.8,0.9-1.2,1.3c-1,1.1-2,2.2-2.9,3.3c-0.5,0.5-1,1.1-1.5,1.6
		c-0.9,1-1.8,2-2.7,2.9c-0.5,0.6-1.1,1.2-1.6,1.7c-0.9,0.9-1.8,1.9-2.6,2.8c-0.6,0.6-1.1,1.2-1.7,1.8c-0.9,0.9-1.8,1.8-2.7,2.7
		c-0.6,0.6-1.1,1.2-1.7,1.8c-0.9,0.9-1.8,1.9-2.8,2.8c-0.6,0.6-1.1,1.1-1.7,1.7c-1,1-2,2-3.1,3c-0.5,0.5-1,0.9-1.4,1.4
		c-1.5,1.4-3,2.9-4.5,4.3C806.1,832.5,804.8,833.7,803.4,834.9z M928.7,637.3c-16.8,56.1-44.5,107.5-82.3,152.9
		c-7-4.1-15-6.3-23.3-6.2c-25.6,0-46.5,20.9-46.5,46.5c0,7.9,2,15.5,5.7,22.3c-26.5,21.1-55.4,39-85.9,53.2
		c-7.5,3.5-15,6.8-22.4,9.7c-21.4,8.6-43.1,15.4-64.6,20.2h-90.6c-27.7,0-50.3-22.6-50.3-50.3V526.2c0-9,2.4-17.8,7-25.5
		c4.3-7.4,10.6-13.7,18.2-18.1c3.6-2.1,7.6-3.8,11.9-5c4-1.1,8.5-1.7,13.2-1.7h359.5c27.7,0,50.3,22.6,50.3,50.3V637.3z"/>
	<path class="st10" d="M698.6,659.5c-25.6,0-46.5,20.9-46.5,46.5s20.9,46.5,46.5,46.5s46.5-20.9,46.5-46.5S724.2,659.5,698.6,659.5z
		 M698.6,742.5c-20.1,0-36.5-16.4-36.5-36.5s16.4-36.5,36.5-36.5s36.5,16.4,36.5,36.5S718.7,742.5,698.6,742.5z"/>
	<path class="st10" d="M574.2,535c-25.6,0-46.5,20.9-46.5,46.5s20.9,46.5,46.5,46.5s46.5-20.9,46.5-46.5S599.8,535,574.2,535z
		 M574.2,618c-20.1,0-36.5-16.4-36.5-36.5s16.4-36.5,36.5-36.5s36.5,16.4,36.5,36.5S594.3,618,574.2,618z"/>
	<path class="st10" d="M574.2,783.9c-25.6,0-46.5,20.9-46.5,46.5s20.9,46.5,46.5,46.5s46.5-20.9,46.5-46.5S599.8,783.9,574.2,783.9z
		 M574.2,866.9c-20.1,0-36.5-16.4-36.5-36.5s16.4-36.5,36.5-36.5s36.5,16.4,36.5,36.5S594.3,866.9,574.2,866.9z"/>
	<path class="st10" d="M823.1,535c-25.6,0-46.5,20.9-46.5,46.5s20.9,46.5,46.5,46.5s46.5-20.9,46.5-46.5S848.7,535,823.1,535z
		 M823.1,618c-20.1,0-36.5-16.4-36.5-36.5S803,545,823.1,545s36.5,16.4,36.5,36.5S843.2,618,823.1,618z"/>
	<g>
		<path class="st5" d="M511.9,972c-64.6,0-127.1-13.1-185.7-39.1c-56.6-25-106.9-60.7-149.5-106c-7.6-8.1-7.2-20.7,0.9-28.3
			c8.1-7.6,20.7-7.2,28.3,0.9c38.9,41.4,84.8,74,136.5,96.8C395.9,920,452.9,932,511.9,932c31.7,0,63.2-3.5,93.6-10.5
			c20.9-4.7,42.1-11.3,62.9-19.7c0.1,0,0.1,0,0.2-0.1c7-2.7,14.2-5.8,21.4-9.2c30.7-14.4,59.7-32.6,86.3-54.1
			c6.6-5.3,13.4-11.3,20.9-18.2c12.5-11.6,24.2-23.9,34.9-36.5c38-44.8,65.8-95.8,82.4-151.5C926.1,593.4,932,553,932,512
			c0-33.9-4-67.5-11.9-100c-10.6-43.7-28.2-85.1-52.1-123.2c-62.6-99.6-164.5-168.9-279.7-190c-10.9-2-18.1-12.4-16.1-23.3
			c2-10.9,12.4-18.1,23.3-16.1c126.2,23.1,237.8,99,306.3,208c26.2,41.7,45.4,87.2,57.1,135c8.7,35.5,13.1,72.3,13.1,109.4
			c0,44.8-6.4,89.1-19.1,131.7c-18.2,61.1-48.6,117-90.2,166c-11.8,13.8-24.6,27.2-38.2,39.9c0,0-0.1,0.1-0.1,0.1
			c-8.1,7.4-15.6,13.9-22.8,19.8c-29.1,23.6-60.8,43.5-94.4,59.2c-7.9,3.7-16,7.2-23.8,10.3c-22.8,9.1-45.9,16.4-68.9,21.5
			C581.1,968.1,546.6,972,511.9,972z M810.8,835L810.8,835L810.8,835z"/>
	</g>
</g>
</svg>
