<?xml version="1.0" encoding="utf-8"?>
<!-- Generator: Adobe Illustrator 24.0.0, SVG Export Plug-In . SVG Version: 6.00 Build 0)  -->
<svg version="1.1" id="Capa_1" xmlns="http://www.w3.org/2000/svg" xmlns:xlink="http://www.w3.org/1999/xlink" x="0px" y="0px"
	 viewBox="0 0 1024 1024" style="enable-background:new 0 0 1024 1024;" xml:space="preserve">
<style type="text/css">
	.st0{fill:#9DD4A9;}
	.st1{fill:#F9F7FC;}
	.st2{fill:#FFD071;}
	.st3{fill:#EFEDEE;}
	.st4{fill:#767DD4;}
	.st5{fill:#F473C3;}
	.st6{fill:#FADC60;}
	.st7{fill:#F2C42C;}
	.st8{fill:#534A9A;}
	.st9{fill:#443F80;}
	.st10{fill:#DCDAEB;}
	.st11{fill:#5E6ACA;}
	.st12{fill:#C640A6;}
	.st13{fill:#F9B630;}
	.st14{fill:#FFFFFF;}
</style>
<g>
	<circle class="st0" cx="512" cy="512" r="440"/>
	<g>
		<path class="st1" d="M952,512c0,58.4-11.3,114-31.9,165c-10.2,25.2-22.6,49.1-37.1,71.7c-4.5,7.1-9.2,14-14.2,20.8
			c-7.6,10.5-15.6,20.6-24,30.4c-1.5,1.7-3,3.4-4.5,5c-8.7,9.7-17.8,19-27.2,28c-0.7,0.7-1.5,1.4-2.2,2.1
			c-39,36.1-84.6,65.3-134.8,85.4C625.3,940.8,570,952,512,952c-90.8,0-175.2-27.5-245.2-74.7c-4.5-3-9-6.2-13.5-9.4
			c-23.3-17-44.9-36.2-64.4-57.3V132.7h546.3c3,1.8,6.1,3.6,9.1,5.5c7.7,4.8,15.2,9.8,22.6,15.1c4.5,3.2,9,6.5,13.4,9.9
			c2.6,2,5.2,4,7.8,6.1c0.2,0.1,0.3,0.3,0.5,0.4c4,3.3,8,6.6,12,10.1c2.3,2,4.6,4,6.9,6.1l0.3,0.3c1.2,1,2.4,2.1,3.5,3.2
			c0.6,0.6,1.2,1.1,1.8,1.7c6.7,6.2,13.1,12.7,19.4,19.3c19.6,20.8,37.2,43.5,52.5,67.9c4,6.3,7.8,12.7,11.4,19.3
			c6.2,11.1,12,22.6,17.3,34.3c0.8,1.9,1.7,3.7,2.5,5.6c0.7,1.7,1.5,3.4,2.2,5.1c3.2,7.5,6.1,15.2,8.8,22.8c4.8,13.7,9,27.7,12.5,42
			C947.7,440.9,952,475.9,952,512z"/>
		<path class="st2" d="M952,512c0,58.4-11.3,114-31.9,165c-10.2,25.2-22.6,49.1-37.1,71.7c-4.5,7.1-9.2,14-14.2,20.8
			c-7.6,10.5-15.6,20.6-24,30.4c-1.5,1.7-3,3.4-4.5,5c-8.7,9.7-17.8,19-27.2,28c-0.7,0.7-1.5,1.4-2.2,2.1
			c-39,36.1-84.6,65.3-134.8,85.4C625.3,940.8,570,952,512,952c-90.8,0-175.2-27.5-245.2-74.7V210.4h565.6
			c19.6,20.8,37.2,43.5,52.5,67.9c4,6.3,7.8,12.7,11.4,19.3c6.2,11.1,12,22.6,17.3,34.3c0.8,1.9,1.7,3.7,2.5,5.6
			c0.7,1.7,1.5,3.4,2.2,5.1c3.2,7.5,6.1,15.2,8.8,22.8c4.8,13.7,9,27.7,12.5,42C947.7,440.9,952,475.9,952,512z"/>
	</g>
	<g>
		<g>
			<path class="st3" d="M635,700.3c-11.2,0.3-177.1,1.4-304.2-148.9c-1.9-6.4-3.6-12.8-5.1-19.4c-4.9-21.8-7.5-44.5-7.5-67.8
				c0-3.8,0.1-7.5,0.2-11.2c0.3-9.1,1.1-18,2.2-26.9c142.7,156.3,303.5,167.4,324.1,168.2v-0.1l0.1,0.1
				C645.1,627.4,642.7,663.8,635,700.3z"/>
			<path class="st4" d="M644.7,594.2L644.7,594.2c-20.6-0.7-181.4-11.8-324.1-168.1c0.8-6.6,1.9-13.2,3.1-19.8
				c6.7-35,19.3-67.8,36.8-97.5c3.6-6.2,7.5-12.2,11.5-18.1c14,19.5,30,37.2,47,53c27.4,25.5,57.5,46.3,86,62.9l0,0
				c65.6,38.1,123.4,54,123.4,54l0,0c0,0,0,0,0,0.1v0.1c0,0.1,0,0.2,0.1,0.3c0,0.1,0,0.1,0.1,0.2c0,0.1,0.1,0.3,0.1,0.5
				c0,0.1,0,0.2,0.1,0.3c0.3,1.1,0.7,2.7,1.2,4.9c0,0.2,0.1,0.4,0.1,0.6c0.2,0.8,0.4,1.7,0.6,2.7c0.1,0.5,0.2,0.9,0.3,1.4
				c0.2,1,0.5,2.1,0.7,3.2c0.1,0.5,0.2,1,0.3,1.5s0.2,1,0.3,1.5s0.2,1.1,0.3,1.6c0.2,1.1,0.5,2.2,0.7,3.4c0.1,0.6,0.2,1.2,0.4,1.8
				c0.1,0.5,0.2,1.1,0.3,1.6c0.2,1.1,0.4,2.2,0.6,3.4c0.1,0.6,0.2,1.2,0.3,1.8c0.1,0.7,0.2,1.4,0.4,2.1c0,0.1,0,0.2,0,0.2
				c0.1,0.6,0.2,1.3,0.3,1.9c0,0.2,0.1,0.3,0.1,0.5c0.1,0.6,0.2,1.1,0.3,1.7c0,0.2,0.1,0.5,0.1,0.7c0.1,0.8,0.3,1.7,0.4,2.5
				c0.4,2.5,0.8,5.2,1.2,7.9C641.2,531.9,644.3,561.4,644.7,594.2z"/>
			<path class="st3" d="M810.5,219.4c-1.9,0.4-3.7,0.8-5.6,1.1c-1.3,0.3-2.5,0.5-3.8,0.8c-2,0.4-4,0.9-6,1.4
				c-2.8,0.6-5.5,1.3-8.2,1.9c-1.5,0.4-3.1,0.8-4.6,1.1c-3.1,0.8-6.1,1.5-9.1,2.4c-2.7,0.7-5.4,1.5-8,2.2c-0.1,0-0.1,0-0.2,0
				c-3.2,0.9-6.3,1.8-9.4,2.8c-1.4,0.4-2.9,0.9-4.3,1.3c-2.5,0.8-5,1.6-7.4,2.4c-1,0.3-2.1,0.7-3.1,1c-1.1,0.4-2.2,0.7-3.3,1.1
				c-0.3,0.1-0.7,0.2-1,0.3c-1.4,0.5-2.9,1-4.3,1.5c-0.2,0.1-0.5,0.2-0.7,0.2c-1.6,0.6-3.3,1.2-4.9,1.8h-0.1
				c-1.6,0.6-3.1,1.2-4.7,1.7c-1.6,0.6-3.2,1.2-4.8,1.8c-1.3,0.5-2.5,1-3.8,1.5c-0.7,0.3-1.4,0.6-2.1,0.8c-5.8,2.3-11.5,4.7-17,7.2
				c-1.5,0.6-3,1.3-4.5,2c-1,0.5-2,0.9-3,1.4s-2,0.9-3,1.4c-1.9,0.9-3.8,1.8-5.6,2.7c-0.2,0.1-0.4,0.2-0.6,0.3
				c-2.3,1.1-4.6,2.3-6.9,3.4c-0.4,0.2-0.9,0.4-1.3,0.7c-1.7,0.9-3.4,1.7-5.1,2.6c-0.1,0.1-0.2,0.1-0.4,0.2
				c-1.1,0.6-2.2,1.1-3.3,1.7c-1.5,0.8-2.9,1.5-4.3,2.3c-1.3,0.7-2.6,1.4-3.8,2.1c-1.1,0.6-2.1,1.2-3.2,1.8
				c-0.8,0.5-1.6,0.9-2.4,1.4c-0.8,0.5-1.6,0.9-2.4,1.4c-0.9,0.5-1.7,1-2.6,1.5c-0.2,0.2-0.5,0.3-0.8,0.4c-2.7,1.6-5.3,3.2-7.9,4.8
				c-1.2,0.7-2.3,1.4-3.4,2.1c-0.1,0.1-0.2,0.2-0.4,0.2c-1.9,1.2-3.9,2.5-5.8,3.7c-3.1,2-6.2,4.1-9.2,6.1c-0.6,0.4-1.3,0.9-1.9,1.3
				c-1.8,1.3-3.7,2.5-5.4,3.8l-2.6,1.9c-3.5,2.5-6.8,5-10.1,7.4c-1.6,1.2-3.2,2.4-4.7,3.6l-0.1,0.1c-1.1,0.9-2.2,1.7-3.3,2.6
				c-0.6,0.5-1.3,1-1.9,1.5c-0.6,0.5-1.1,0.9-1.7,1.4c-1.5,1.2-3,2.5-4.5,3.7c-1.4,1.2-2.8,2.4-4.2,3.6s-2.9,2.5-4.3,3.7
				c-1.3,1.2-2.7,2.3-3.9,3.5c-0.7,0.6-1.3,1.2-2,1.8c-0.7,0.6-1.3,1.2-1.9,1.8c-3.8,3.5-7.5,7-10.9,10.4c-0.6,0.6-1.1,1.1-1.7,1.7
				c-0.8,0.8-1.6,1.6-2.4,2.5c-0.6,0.6-1.3,1.3-1.9,1.9c-0.4,0.4-0.7,0.8-1.1,1.1c-0.6,0.7-1.2,1.3-1.8,1.9
				c-0.1,0.1-0.2,0.2-0.3,0.3c-0.7,0.7-1.3,1.3-1.9,2l-0.1,0.1c-0.7,0.7-1.3,1.4-1.9,2.1c-5.3,5.7-9.9,11-13.9,15.8
				c-0.6,0.7-1.2,1.4-1.7,2.1c-2.1,2.6-4,5-5.7,7.2c-0.3,0.3-0.5,0.7-0.8,1.1c-2.2,2.9-4.1,5.5-5.7,7.8c-0.4,0.5-0.8,1.1-1.1,1.6
				c-0.4,0.5-0.7,1-1,1.5c-0.3,0.4-0.6,0.9-0.8,1.2c-0.7,1-1.3,1.9-1.7,2.6c-28.6-16.6-58.7-37.4-86-62.9
				c8.6-15.7,86.1-148,275.2-178.7h0.1c6.5,1.5,12.9,3.2,19.3,5.1c26.4,8,51.4,19.4,74.3,33.7C795.7,208.7,803.2,213.9,810.5,219.4z
				"/>
			<path class="st3" d="M932.2,464.2c0,51.8-12.8,100.6-35.5,143.4l0,0c-8.9,16.9-19.4,32.8-31.2,47.7c0.5-1.7,1-3.5,1.5-5.2
				c0-0.2,0.1-0.4,0.1-0.6c0.3-1.2,0.7-2.5,1-3.7c0.2-0.7,0.3-1.3,0.5-2c0.3-1.3,0.7-2.7,1-4c0.5-1.9,0.9-3.8,1.4-5.8
				c0.6-2.4,1.1-4.8,1.6-7.2c0.3-1.6,0.7-3.1,1-4.7c0.4-2,0.8-4,1.2-6c0.2-1,0.4-2,0.6-3c0.2-1.1,0.4-2.1,0.6-3.1
				c0.2-1.3,0.5-2.7,0.7-4s0.5-2.7,0.7-4s0.4-2.6,0.6-4s0.4-2.6,0.6-4c0.1-0.7,0.2-1.4,0.3-2.1c0.1-1,0.3-1.9,0.4-2.8
				c0.3-2,0.5-3.9,0.7-5.8c0.1-0.9,0.2-1.8,0.3-2.8c0-0.4,0.1-0.8,0.1-1.2c0.1-1,0.2-2,0.3-2.9c0.1-1.1,0.2-2.3,0.3-3.4
				c0.1-0.9,0.2-1.7,0.2-2.6c0.1-0.8,0.2-1.5,0.2-2.3c0.1-0.6,0.1-1.3,0.2-1.9c0.3-3.4,0.5-6.7,0.7-10.1c0.1-1.1,0.1-2.2,0.2-3.3
				c0-0.8,0.1-1.6,0.1-2.5c0.1-1.5,0.1-3,0.2-4.5c0-1,0.1-1.9,0.1-2.9c0-0.8,0-1.6,0.1-2.5c0-0.9,0-1.7,0-2.6c0-0.5,0-1,0-1.4
				c0-1.1,0-2.2,0-3.2c0.1-19.2-1-37.4-2.9-54.6c-0.3-2.5-0.6-5.1-0.9-7.6c-0.8-5.6-1.6-11.1-2.5-16.5c-0.4-2.3-0.8-4.7-1.2-7
				c-1.1-6.2-2.4-12.2-3.7-18c-0.5-2.3-1.1-4.6-1.6-6.9c-1.1-4.5-2.2-8.9-3.4-13.2c-0.6-2.1-1.2-4.2-1.8-6.3
				c-0.9-3.1-1.8-6.1-2.7-9.1c-0.6-2-1.2-3.9-1.8-5.8s-1.2-3.8-1.9-5.6c-0.9-2.7-1.9-5.4-2.8-8c-0.6-1.7-1.2-3.4-1.9-5
				c-0.6-1.7-1.2-3.2-1.9-4.8c-0.6-1.6-1.2-3.1-1.8-4.6c-0.9-2.2-1.8-4.4-2.7-6.5c-0.3-0.7-0.6-1.4-0.9-2c-0.6-1.3-1.2-2.6-1.7-3.9
				c-0.6-1.3-1.1-2.5-1.7-3.7c-0.8-1.8-1.6-3.4-2.4-5c-0.2-0.5-0.5-1-0.8-1.6c-0.7-1.5-1.5-2.9-2.1-4.3c19.1-5.5,38.9-9.5,59.4-11.6
				c3.1,5.9,6,11.9,8.7,18C922.8,378.1,932.2,420,932.2,464.2z"/>
			<path class="st4" d="M883.1,533.4c0,1.1,0,2.1,0,3.2c0,0.5,0,1,0,1.4c0,0.9,0,1.7,0,2.6c0,0.8,0,1.6-0.1,2.5c0,1,0,1.9-0.1,2.9
				c0,1.5-0.1,3-0.2,4.5c0,0.8-0.1,1.7-0.1,2.5c-0.1,1.1-0.1,2.2-0.2,3.3c-0.2,3.3-0.4,6.7-0.7,10.1c0,0.6-0.1,1.2-0.2,1.9
				c0,0.8-0.1,1.5-0.2,2.3c-0.1,0.9-0.2,1.7-0.2,2.6c-0.1,1.1-0.2,2.3-0.3,3.4c-0.1,1-0.2,1.9-0.3,2.9c0,0.4-0.1,0.8-0.1,1.2
				c-0.1,0.9-0.2,1.8-0.3,2.8c-0.2,1.9-0.5,3.9-0.7,5.8c-0.1,0.9-0.2,1.9-0.4,2.8c-0.1,0.7-0.2,1.4-0.3,2.1c-0.2,1.3-0.4,2.6-0.6,4
				s-0.4,2.6-0.6,4c-0.2,1.3-0.4,2.6-0.7,4c-0.2,1.3-0.5,2.7-0.7,4c-0.2,1-0.4,2.1-0.6,3.1c-0.2,1-0.4,2-0.6,3c-0.4,2-0.8,4-1.2,6
				c-0.3,1.6-0.7,3.1-1,4.7c-0.5,2.4-1.1,4.8-1.6,7.2c-0.5,1.9-0.9,3.8-1.4,5.8c-0.3,1.3-0.7,2.6-1,4c-0.2,0.6-0.3,1.3-0.5,2
				c-0.3,1.2-0.7,2.5-1,3.7c0,0.2-0.1,0.4-0.1,0.6c-0.5,1.7-1,3.5-1.5,5.2l0,0c-2.5,3.1-5,6.2-7.6,9.2c-1.8,2-3.5,4-5.3,6
				c-25,27.6-54.9,50.5-88.3,67.5c-8.1,4.1-16.4,7.9-25,11.3c1.2-3.2,2.3-6.5,3.4-9.6c0.4-1.1,0.7-2.1,1.1-3.2
				c0.4-1.1,0.7-2.1,1.1-3.2c0.7-2.1,1.4-4.2,2-6.4c0.7-2.1,1.3-4.2,1.9-6.3c2.5-8.4,4.8-16.7,6.9-24.9c0.5-2,1-4.1,1.5-6.1
				s1-4.1,1.4-6.1c0.5-2,0.9-4,1.3-6.1c0.2-1,0.4-2,0.6-3c0.4-2,0.8-4,1.2-6s0.8-4,1.2-6c0.7-3.9,1.4-7.9,2.1-11.8
				c0.2-1.4,0.5-2.9,0.7-4.3c0.1-0.4,0.1-0.8,0.2-1.2l0.1-0.7c0.3-1.8,0.5-3.6,0.8-5.3c0.3-1.9,0.5-3.8,0.8-5.7
				c0.4-2.9,0.7-5.7,1.1-8.5c0.2-1.6,0.4-3.2,0.5-4.7c0.5-4.3,0.9-8.5,1.2-12.7v-0.1v-0.1c0.1-1.1,0.2-2.1,0.2-3.2
				c0-0.2,0-0.5,0.1-0.7c0.1-1.1,0.2-2.2,0.2-3.3c0.4-5.4,0.7-10.8,0.9-16c0.1-1.8,0.1-3.5,0.2-5.2c0.2-5.2,0.2-10.4,0.2-15.4
				c0-107.4-33.1-178.2-36.3-185c0,0-0.1,0-0.1,0.1l0.1-0.2c29.7-17.4,64.3-33.8,102.1-44.6c0.7,1.3,1.4,2.8,2.1,4.3
				c1,2,2,4.2,3.1,6.6c0.5,1.2,1.1,2.4,1.7,3.7c0.6,1.3,1.1,2.6,1.7,3.9c0.3,0.7,0.6,1.3,0.9,2c0.9,2.1,1.8,4.2,2.7,6.5
				c0.6,1.5,1.2,3,1.8,4.6s1.2,3.2,1.9,4.8c0.6,1.6,1.2,3.3,1.9,5c0.9,2.6,1.9,5.2,2.8,8c0.6,1.8,1.2,3.7,1.9,5.6
				c0.6,1.9,1.2,3.8,1.8,5.8c0.9,2.9,1.8,6,2.7,9.1c0.6,2.1,1.2,4.2,1.8,6.3c1.2,4.3,2.3,8.7,3.4,13.2c0.5,2.3,1.1,4.5,1.6,6.9
				c1.3,5.8,2.5,11.8,3.7,18c0.4,2.3,0.8,4.6,1.2,7c0.9,5.4,1.7,10.9,2.5,16.5c0.3,2.5,0.6,5,0.9,7.6
				C882.1,496,883.2,514.2,883.1,533.4z"/>
			<path class="st4" d="M694.2,165C505.1,195.7,427.6,328,419,343.7c-17-15.8-33-33.5-47-53c3.8-5.5,7.7-10.9,11.8-16.1
				c56.2-71.5,143.4-117.3,241.5-117.3c3.7,0,7.4,0.1,11.1,0.2C656.2,158.2,675.6,160.8,694.2,165z"/>
			<path class="st5" d="M635,700.3c-5,23.8-12.3,47.7-22.5,70.6c-6.7-0.3-13.3-0.8-19.9-1.5c-106.2-11.2-196.3-76.6-242.1-168.1l0,0
				c-7.9-15.9-14.5-32.6-19.7-49.9C457.9,701.7,623.8,700.6,635,700.3z"/>
			<path class="st6" d="M772.2,563.4l-0.2,15.4c0,1.7-0.1,3.5-0.2,5.2l-0.9,16c-0.1,1.1-0.2,2.2-0.2,3.3c0,0.2,0,0.5-0.1,0.7
				c-0.1,1-0.2,2.1-0.2,3.2v0.1v0.1l-1.2,12.7c-0.2,1.6-0.3,3.2-0.5,4.7l-1.1,8.5c-0.2,1.9-0.5,3.8-0.8,5.7
				c-0.2,1.8-0.5,3.6-0.8,5.3l-0.1,0.7c-0.1,0.4-0.1,0.8-0.2,1.2c-0.2,1.4-0.5,2.9-0.7,4.3l-2.1,11.8c-0.4,2-0.8,4-1.2,6
				s-0.8,4-1.2,6c-0.2,1-0.4,2-0.6,3c-0.4,2-0.9,4-1.3,6.1c-0.5,2-0.9,4.1-1.4,6.1s-1,4.1-1.5,6.1l-6.9,24.9
				c-0.6,2.1-1.3,4.2-1.9,6.3c-0.7,2.1-1.3,4.2-2,6.4c-0.4,1.1-0.7,2.1-1.1,3.2c-0.3,1.1-0.7,2.1-1.1,3.2c-1.1,3.2-2.2,6.4-3.4,9.6
				c-6.2,2.5-12.4,4.7-18.8,6.8c-27.2,8.9-56.2,14.1-86.2,15c-3,0.1-6,0.1-9,0.1c-4.2,0-8.5-0.1-12.7-0.3
				c10.2-22.9,17.5-46.8,22.5-70.6c7.7-36.5,10.1-72.9,9.7-106c-0.4-31.8-3.3-60.5-6.6-83.1c-0.1-0.7-0.2-1.5-0.3-2.2
				c-0.3-2.1-0.6-4.1-0.9-6c-0.1-0.7-0.2-1.3-0.3-1.9c-0.1-0.8-0.3-1.7-0.4-2.5c0-0.2-0.1-0.5-0.1-0.7c-0.1-0.6-0.2-1.2-0.3-1.7
				c0-0.2-0.1-0.3-0.1-0.5c-0.1-0.6-0.2-1.3-0.3-1.9c0-0.1,0-0.2,0-0.2c-0.1-0.7-0.2-1.4-0.4-2.1c-0.1-0.6-0.2-1.2-0.3-1.8
				c-0.2-1.2-0.4-2.3-0.6-3.4c-0.1-0.5-0.2-1.1-0.3-1.6c-0.1-0.6-0.2-1.2-0.4-1.8c-0.2-1.2-0.5-2.3-0.7-3.4
				c-0.1-0.5-0.2-1.1-0.3-1.6s-0.2-1-0.3-1.5s-0.2-1-0.3-1.5c-0.3-1.2-0.5-2.3-0.7-3.4c-0.1-0.4-0.2-0.8-0.3-1.2
				c-0.6-2.6-1.1-4.8-1.5-6.4c-0.1-0.3-0.1-0.5-0.2-0.8c-0.1-0.4-0.2-0.7-0.2-1c0-0.1-0.1-0.2-0.1-0.3c-0.1-0.2-0.1-0.3-0.1-0.5
				c0-0.1,0-0.1-0.1-0.2c0-0.1-0.1-0.2-0.1-0.3v-0.1c0-0.1,0-0.1,0-0.1s0.1-0.1,0.4-0.4l0.1-0.1c0.4-0.4,1-1.1,1.9-1.9
				c0.2-0.2,0.4-0.4,0.6-0.6c0.4-0.4,0.8-0.8,1.3-1.3c0.2-0.2,0.5-0.5,0.7-0.7c5.6-5.4,15.7-14.8,29.6-26.2c1.4-1.1,2.9-2.3,4.3-3.5
				c1.5-1.2,3-2.5,4.6-3.7c1-0.8,2.1-1.7,3.2-2.5c1.5-1.1,2.9-2.3,4.4-3.4s3-2.3,4.5-3.4c3.9-2.9,8-5.9,12.2-8.9
				c1.5-1,3-2.1,4.5-3.2s3.1-2.1,4.6-3.2c0.8-0.5,1.6-1.1,2.4-1.6c1.6-1.1,3.2-2.1,4.8-3.2c2.4-1.6,4.9-3.2,7.5-4.8
				c1.7-1.1,3.4-2.1,5.1-3.2c0.9-0.5,1.7-1.1,2.6-1.6c0.9-0.5,1.7-1.1,2.6-1.6c0.9-0.5,1.8-1.1,2.7-1.6s1.8-1.1,2.7-1.6
				c0,0,0.1,0,0.1-0.1C739.2,385.2,772.2,456,772.2,563.4z"/>
			<g>
				<path class="st7" d="M897.4,322.1c-20.5,2.1-40.3,6.1-59.4,11.6c-37.8,10.8-72.4,27.2-102.1,44.6l-0.1,0.2
					c-0.9,0.5-1.8,1.1-2.7,1.6s-1.8,1-2.7,1.6c-0.9,0.5-1.8,1-2.6,1.6c-0.9,0.5-1.7,1.1-2.6,1.6c-1.7,1.1-3.4,2.1-5.1,3.2
					c-2.5,1.6-5,3.2-7.5,4.8c-1.6,1.1-3.2,2.1-4.8,3.2c-0.8,0.5-1.6,1.1-2.4,1.6c-1.6,1.1-3.1,2.1-4.6,3.2s-3,2.1-4.5,3.2
					c-2.6,1.8-5,3.6-7.5,5.4c-1.6,1.2-3.2,2.4-4.8,3.5c-1.5,1.2-3.1,2.3-4.5,3.4c-1.5,1.1-3,2.3-4.4,3.4c-1.1,0.8-2.1,1.7-3.2,2.5
					c-1.6,1.2-3.1,2.5-4.6,3.7c-0.7,0.6-1.5,1.2-2.2,1.8c-0.7,0.6-1.4,1.2-2.1,1.8c-0.9,0.7-1.7,1.4-2.6,2.1
					c-0.8,0.7-1.7,1.4-2.5,2.1c-2.1,1.7-4,3.4-5.9,5c-0.7,0.6-1.4,1.2-2,1.8c-0.7,0.6-1.4,1.2-2.1,1.8l-0.1,0.1
					c-0.6,0.6-1.2,1.1-1.8,1.7s-1.3,1.1-1.9,1.7c-3.3,3-6.1,5.6-8.5,7.8c-0.4,0.4-0.8,0.8-1.2,1.2c-1.7,1.6-3,2.9-4,3.9
					c-0.1,0.1-0.2,0.2-0.3,0.3c-0.4,0.4-0.8,0.8-1.1,1.1c-0.1,0.1-0.2,0.2-0.3,0.3l-0.1,0.1c-0.2,0.2-0.4,0.4-0.4,0.4
					s-57.8-15.9-123.4-54l0,0c0.4-0.7,1-1.6,1.7-2.6c0.3-0.4,0.5-0.8,0.8-1.2c0.3-0.5,0.7-1,1-1.5s0.7-1,1.1-1.6
					c1.6-2.2,3.5-4.8,5.7-7.8c0.3-0.4,0.5-0.7,0.8-1.1c1.7-2.2,3.6-4.6,5.7-7.2c0.6-0.7,1.1-1.4,1.7-2.1c4-4.8,8.6-10.1,13.9-15.8
					c0.6-0.7,1.3-1.4,1.9-2.1l0.1-0.1c0.6-0.7,1.3-1.3,1.9-2c0.1-0.1,0.2-0.2,0.3-0.3c0.6-0.6,1.2-1.3,1.8-1.9
					c0.4-0.4,0.7-0.8,1.1-1.1c0.6-0.6,1.3-1.3,1.9-1.9c0.8-0.8,1.6-1.6,2.4-2.5c0.6-0.6,1.1-1.1,1.7-1.7c3.4-3.4,7.1-6.8,10.9-10.4
					c0.6-0.6,1.3-1.2,1.9-1.8c0.6-0.6,1.3-1.2,2-1.8c1.3-1.2,2.6-2.3,3.9-3.5c1.4-1.2,2.8-2.5,4.3-3.7c1.4-1.2,2.8-2.4,4.2-3.6
					c1.5-1.2,3-2.4,4.5-3.7c0.6-0.5,1.1-0.9,1.7-1.4c0.6-0.5,1.3-1,1.9-1.5c1.1-0.9,2.2-1.7,3.3-2.6c0,0,0.1,0,0.1-0.1
					c1.6-1.2,3.1-2.4,4.7-3.6c3.3-2.5,6.6-5,10.1-7.4l2.6-1.9c1.8-1.3,3.6-2.5,5.4-3.8c0.6-0.4,1.3-0.9,1.9-1.3c3-2,6.1-4.1,9.2-6.1
					c1.9-1.2,3.8-2.5,5.8-3.7c0.1-0.1,0.2-0.2,0.4-0.2c1.1-0.7,2.3-1.4,3.4-2.1c2.6-1.6,5.2-3.2,7.9-4.8c0.3-0.1,0.5-0.3,0.8-0.4
					c0.9-0.5,1.7-1,2.6-1.5c0.8-0.5,1.6-0.9,2.4-1.4c0.8-0.5,1.6-0.9,2.4-1.4c1-0.6,2.1-1.2,3.2-1.8c1.3-0.7,2.5-1.4,3.8-2.1
					c1.4-0.8,2.9-1.5,4.3-2.3c1.1-0.6,2.2-1.1,3.3-1.7c0.1-0.1,0.2-0.1,0.4-0.2c1.7-0.9,3.4-1.8,5.1-2.6c0.4-0.2,0.9-0.4,1.3-0.7
					c2.3-1.1,4.6-2.3,6.9-3.4c0.2-0.1,0.4-0.2,0.6-0.3c1.8-0.9,3.7-1.8,5.6-2.7c1-0.5,2-0.9,3-1.4s2-0.9,3-1.4c1.5-0.7,3-1.3,4.5-2
					c5.5-2.4,11.2-4.8,17-7.2c0.7-0.3,1.4-0.6,2.1-0.8c1.2-0.5,2.5-1,3.8-1.5c1.6-0.6,3.2-1.2,4.8-1.8c1.5-0.6,3.1-1.2,4.7-1.7h0.1
					c1.6-0.6,3.2-1.2,4.9-1.8c0.2-0.1,0.5-0.2,0.7-0.2c1.4-0.5,2.9-1,4.3-1.5c0.3-0.1,0.7-0.2,1-0.3c1.1-0.4,2.2-0.8,3.3-1.1
					c1-0.4,2.1-0.7,3.1-1c2.4-0.8,4.9-1.6,7.4-2.4c1.4-0.4,2.9-0.9,4.3-1.3c3.1-0.9,6.2-1.9,9.4-2.8c0.1,0,0.1,0,0.2,0
					c2.7-0.8,5.3-1.5,8-2.2c3-0.8,6-1.6,9.1-2.4c1.5-0.4,3.1-0.8,4.6-1.1c2.7-0.7,5.5-1.3,8.2-1.9c2-0.5,4-0.9,6-1.4
					c1.2-0.3,2.5-0.5,3.8-0.8c1.9-0.4,3.7-0.8,5.6-1.1c5.3,4,10.5,8.2,15.5,12.6c23.6,20.5,44.1,44.5,60.6,71.2
					C890.5,309.4,894,315.7,897.4,322.1z"/>
			</g>
		</g>
		<path class="st8" d="M899.7,473.8c5.4,44.7,4.4,89.4-3,133.8l0,0c-8.9,16.9-19.4,32.8-31.2,47.7l0,0c-2.5,3.1-5,6.2-7.6,9.2
			c-1.8,2-3.5,4-5.3,6c-5.8-4.9-8.5-12.9-6.3-20.7l0,0l0,0c18.3-64.5,21.7-130.4,10-195.8c-0.3-1.6-0.6-3.1-0.9-4.6
			c-0.1-0.4-0.1-0.7-0.2-1.1c-0.2-1.2-0.5-2.4-0.7-3.5c-0.1-0.4-0.2-0.8-0.2-1.2c-0.2-1.2-0.5-2.5-0.8-3.7c0-0.2-0.1-0.5-0.2-0.7
			c-0.3-1.5-0.6-3-1-4.4c0-0.2-0.1-0.4-0.2-0.7c-0.3-1.2-0.5-2.4-0.8-3.6c-0.1-0.4-0.2-0.8-0.3-1.2c-0.2-1.1-0.5-2.1-0.8-3.2
			c-0.1-0.3-0.2-0.7-0.3-1c-0.7-2.8-1.4-5.5-2.1-8.1c-0.1-0.3-0.2-0.6-0.3-1c-0.3-1-0.5-2-0.8-3c-0.1-0.4-0.2-0.7-0.3-1.1
			c-0.3-1.1-0.6-2.1-0.9-3.1c-0.1-0.2-0.1-0.5-0.2-0.7c-0.4-1.3-0.8-2.5-1.1-3.8c0-0.2-0.1-0.3-0.1-0.5c-0.3-1.1-0.7-2.1-1-3.2
			c-0.1-0.3-0.2-0.7-0.3-1c-0.3-0.9-0.6-1.8-0.9-2.7c-0.1-0.3-0.2-0.6-0.3-1c-0.4-1.1-0.7-2.2-1.1-3.3v-0.1
			c-0.4-1.2-0.8-2.3-1.2-3.4c-0.1-0.3-0.2-0.5-0.3-0.8c-0.3-0.8-0.6-1.7-0.9-2.5c-0.1-0.3-0.2-0.6-0.3-1c-0.3-0.8-0.6-1.7-0.9-2.5
			c-0.1-0.2-0.2-0.5-0.2-0.7c-0.4-1-0.8-2.1-1.2-3.1l-0.1-0.4c-0.3-0.9-0.7-1.8-1-2.6c-0.1-0.3-0.2-0.6-0.3-0.9
			c-0.3-0.7-0.6-1.4-0.8-2.1c-0.1-0.3-0.2-0.6-0.3-0.8c-0.3-0.9-0.7-1.7-1-2.5c0-0.1-0.1-0.2-0.1-0.2c-0.4-0.9-0.8-1.8-1.1-2.7
			c-0.1-0.2-0.2-0.5-0.3-0.7c-0.3-0.7-0.5-1.3-0.8-2c-0.1-0.3-0.2-0.5-0.3-0.8c-0.3-0.6-0.5-1.2-0.8-1.9c-0.1-0.2-0.2-0.4-0.3-0.6
			c-0.3-0.8-0.7-1.5-1-2.3c-0.2,0.1-0.5,0.2-0.7,0.2c-2.4,0.8-4.8,1.6-7.2,2.5c-0.5,0.2-1,0.4-1.5,0.5c-2,0.7-4,1.5-5.9,2.2
			c-0.8,0.3-1.6,0.6-2.4,0.9c-1.9,0.8-3.8,1.5-5.7,2.3c-0.6,0.2-1.2,0.5-1.8,0.7c-2.4,1-4.8,2-7.2,3.1c-0.6,0.3-1.3,0.6-1.9,0.8
			c-1.9,0.8-3.8,1.7-5.7,2.5c-0.7,0.3-1.5,0.7-2.2,1c-2.2,1-4.5,2.1-6.7,3.2c-0.2,0.1-0.5,0.2-0.7,0.3c-2.5,1.2-4.9,2.5-7.4,3.7
			c-0.7,0.4-1.4,0.7-2.1,1.1c-1.9,1-3.8,2-5.7,3c-0.4,0.2-0.9,0.5-1.3,0.7c6.2,15.8,14.5,40.8,21,73.3
			c11.8,59.1,17.5,143.2-7.6,241.8c-0.1,0.2-0.1,0.4-0.2,0.6c-0.8,3.2-1.7,6.4-2.6,9.6c-0.2,0.8-0.5,1.7-0.7,2.5
			c-0.4,1.5-0.8,3-1.3,4.5c-0.5,1.8-1,3.6-1.6,5.4c-0.4,1.4-0.8,2.8-1.3,4.2c-0.6,2-1.2,3.9-1.8,5.9c-0.3,0.9-0.5,1.8-0.8,2.6
			c-0.1,0.2-0.1,0.4-0.2,0.7c-8.1,4.1-16.4,7.9-25,11.3c-6.2,2.5-12.4,4.7-18.8,6.8c-0.9-2.4-1.3-5-1.2-7.6c0.1-2,0.5-3.9,1.2-5.9
			c0.9-2.5,1.8-5.1,2.7-7.7l0.6-1.7c0.9-2.6,1.7-5.1,2.5-7.7c0-0.1,0.1-0.3,0.1-0.4c0.8-2.5,1.6-5,2.4-7.6c0.1-0.4,0.2-0.8,0.4-1.2
			c0.8-2.7,1.6-5.4,2.4-8.1c0-0.1,0-0.2,0.1-0.2c0.8-2.8,1.6-5.5,2.3-8.2c0-0.1,0.1-0.2,0.1-0.3c0.8-2.8,1.5-5.7,2.2-8.5v-0.1
			c1.4-5.7,2.8-11.5,4-17.2c0-0.1,0-0.1,0-0.2c1.2-5.7,2.4-11.3,3.4-17c0-0.2,0.1-0.4,0.1-0.6c1-5.5,1.9-10.9,2.7-16.4
			c0.1-0.4,0.1-0.8,0.2-1.2c0.4-2.7,0.8-5.3,1.1-8c0-0.2,0-0.4,0.1-0.6c0.3-2.4,0.6-4.8,0.9-7.2c0.1-0.6,0.1-1.2,0.2-1.7
			c0.3-2.5,0.5-5,0.8-7.5c0-0.5,0.1-1,0.1-1.6c0.2-2.2,0.4-4.3,0.6-6.5c0.1-0.6,0.1-1.2,0.2-1.8c0.2-2,0.3-4,0.5-6.1
			c0-0.1,0-0.2,0-0.3c0.1-2.2,0.3-4.4,0.4-6.5c0-0.5,0.1-1,0.1-1.5c0.1-1.7,0.2-3.4,0.2-5.1c0-0.6,0.1-1.1,0.1-1.7
			c0.1-1.8,0.1-3.5,0.2-5.3c0-0.4,0-0.8,0-1.2c0.1-4.5,0.2-9,0.2-13.5v-0.2c0-4.6-0.1-9.1-0.2-13.7c0-0.1,0-0.2,0-0.3
			c-0.1-4.5-0.3-9.1-0.6-13.6v-0.1c-0.8-13.8-2.2-27.6-4.1-41.2c-5.4-37.8-14.3-67.1-20.9-85.4c-36.6,23.7-63.4,47.5-75.9,59.2
			c4.7,21.1,13.6,68.8,14.3,127.1c0.5,39.1-2.9,76.3-10.1,110.4c-5,23.5-11.8,45.9-20.4,66.6c-3,0.1-6,0.1-9,0.1
			c-4.2,0-8.5-0.1-12.7-0.3c10.2-22.9,17.5-46.8,22.5-70.6c7.7-36.5,10.1-72.9,9.7-106c0.3,33.1-2.1,69.5-9.8,106
			c-5,23.8-12.3,47.7-22.5,70.6c-6.7-0.3-13.3-0.8-19.9-1.5c0.2-2.2,0.7-4.5,1.7-6.7c6.1-13.6,11.3-28.2,15.6-43.5
			c-0.1,0-0.3,0-0.4,0c-0.2,0-0.5,0-0.7-0.1c-0.7-0.1-1.5-0.1-2.2-0.2c-0.2,0-0.4,0-0.5,0c-0.9-0.1-1.8-0.2-2.7-0.3
			c-0.2,0-0.5,0-0.8-0.1c-0.8-0.1-1.6-0.2-2.5-0.3c-0.2,0-0.4,0-0.5-0.1c-1-0.1-2-0.2-3-0.3c-0.3,0-0.5-0.1-0.8-0.1
			c-0.9-0.1-1.8-0.2-2.7-0.3c-0.2,0-0.4,0-0.5-0.1c-1-0.1-2.1-0.3-3.2-0.4c-0.3,0-0.6-0.1-0.9-0.1c-1-0.1-2-0.3-2.9-0.4
			c-0.2,0-0.3,0-0.5-0.1c-1.1-0.2-2.3-0.3-3.4-0.5c-0.3,0-0.6-0.1-0.9-0.1c-1.1-0.2-2.1-0.3-3.2-0.5c-0.2,0-0.3-0.1-0.5-0.1
			c-1.2-0.2-2.4-0.4-3.6-0.6c-0.3-0.1-0.6-0.1-1-0.2c-1.1-0.2-2.3-0.4-3.4-0.6c-0.2,0-0.3,0-0.4-0.1c-1.3-0.2-2.5-0.5-3.8-0.8
			c-0.3-0.1-0.7-0.1-1-0.2c-1.2-0.2-2.4-0.5-3.7-0.8c-0.1,0-0.2,0-0.4-0.1c-1.3-0.3-2.7-0.6-4-0.9c-0.3-0.1-0.7-0.2-1-0.2
			c-1.3-0.3-2.6-0.6-3.9-0.9c-0.1,0-0.2-0.1-0.3-0.1c-1.4-0.3-2.8-0.7-4.2-1c-0.4-0.1-0.7-0.2-1.1-0.3c-1.4-0.3-2.8-0.7-4.1-1.1
			c-0.1,0-0.1,0-0.2,0c-1.5-0.4-2.9-0.8-4.4-1.2c-0.4-0.1-0.7-0.2-1.1-0.3c-1.5-0.4-2.9-0.8-4.4-1.2H531c-1.5-0.4-3-0.9-4.5-1.3
			c-0.4-0.1-0.8-0.2-1.1-0.3c-1.5-0.5-3.1-0.9-4.6-1.4c-33.5-10.5-65.7-25.1-95.6-43.3l29.2-29.2c0.2,0.1,0.3,0.2,0.5,0.3
			c1.5,0.8,2.9,1.7,4.4,2.5c0.4,0.2,0.8,0.5,1.2,0.7c1.8,1,3.7,2,5.5,3c0.5,0.3,1.1,0.5,1.6,0.8c1.3,0.7,2.6,1.4,3.9,2
			c0.7,0.3,1.4,0.7,2,1c1.2,0.6,2.3,1.2,3.5,1.7c0.7,0.3,1.4,0.7,2.1,1c1.2,0.6,2.4,1.2,3.6,1.7c0.6,0.3,1.2,0.6,1.9,0.9
			c1.5,0.7,3,1.4,4.5,2.1c0.3,0.1,0.6,0.3,0.8,0.4c1.8,0.8,3.5,1.6,5.3,2.3c0.6,0.2,1.1,0.5,1.7,0.7c1.2,0.5,2.4,1,3.6,1.5
			c0.7,0.3,1.3,0.5,2,0.8c1.1,0.4,2.2,0.9,3.3,1.3c0.7,0.3,1.3,0.5,2,0.8c1.2,0.5,2.3,0.9,3.4,1.3c0.6,0.2,1.2,0.4,1.8,0.7
			c1.6,0.6,3.2,1.2,4.8,1.8c0.2,0.1,0.3,0.1,0.4,0.2c1.6,0.6,3.2,1.2,4.8,1.7l1.7,0.6c1.1,0.4,2.2,0.7,3.3,1.1
			c0.6,0.2,1.3,0.4,1.9,0.6c1,0.3,2.1,0.7,3.1,1c0.6,0.2,1.2,0.4,1.9,0.6c1.1,0.3,2.2,0.7,3.3,1c0.5,0.1,1,0.3,1.5,0.5
			c1.6,0.5,3.1,0.9,4.7,1.4c0.2,0.1,0.5,0.1,0.8,0.2c1.3,0.4,2.6,0.7,3.9,1.1c0.5,0.1,1.1,0.3,1.6,0.4c1,0.3,2,0.5,3,0.8
			c0.6,0.2,1.2,0.3,1.7,0.4c1,0.2,1.9,0.5,2.8,0.7c0.5,0.1,1.1,0.3,1.6,0.4c1,0.2,2.1,0.5,3.1,0.7c0.4,0.1,0.8,0.2,1.3,0.3
			c1.4,0.3,2.8,0.6,4.2,0.9c0.3,0.1,0.6,0.1,0.9,0.2c1.1,0.2,2.2,0.5,3.3,0.7c0.5,0.1,1,0.2,1.5,0.3c0.9,0.2,1.8,0.3,2.6,0.5
			c0.5,0.1,1,0.2,1.5,0.3c0.9,0.2,1.7,0.3,2.6,0.5c0.5,0.1,0.9,0.2,1.4,0.2c1,0.2,1.9,0.3,2.9,0.5c0.3,0,0.6,0.1,0.9,0.2
			c1.2,0.2,2.5,0.4,3.7,0.6c0.3,0,0.5,0.1,0.8,0.1c0.9,0.1,1.9,0.3,2.8,0.4c0.4,0,0.8,0.1,1.2,0.2c0.8,0.1,1.6,0.2,2.3,0.3
			c0.4,0,0.8,0.1,1.2,0.2c0.8,0.1,1.5,0.2,2.3,0.3c0.3,0,0.7,0.1,1,0.1c0.9,0.1,1.9,0.2,2.7,0.3c0.1,0,0.3,0,0.4,0
			c1,0.1,2.1,0.2,3.1,0.3c0.2,0,0.4,0,0.6,0.1c0.8,0.1,1.5,0.1,2.3,0.2c0.3,0,0.6,0,0.9,0.1c0.7,0.1,1.3,0.1,1.9,0.2
			c0.3,0,0.6,0,0.8,0.1c0.7,0,1.3,0.1,2,0.2c0.2,0,0.4,0,0.6,0c0.9,0.1,1.7,0.1,2.5,0.2c3.5-21.2,5.6-43.6,6.2-67.1
			c-0.7-0.1-1.5-0.2-2.2-0.3c-0.2,0-0.3,0-0.5-0.1c-0.8-0.1-1.5-0.2-2.3-0.3c-0.3,0-0.6-0.1-0.9-0.1c-0.8-0.1-1.6-0.2-2.4-0.3
			c-0.2,0-0.4,0-0.6-0.1c-1-0.1-2-0.3-3-0.4c-0.3-0.1-0.6-0.1-0.9-0.1c-0.8-0.1-1.6-0.3-2.5-0.4c-0.3,0-0.6-0.1-0.9-0.1
			c-1.1-0.2-2.2-0.3-3.3-0.5c-0.2,0-0.4-0.1-0.6-0.1c-1-0.2-1.9-0.3-2.9-0.5c-0.3-0.1-0.7-0.1-1-0.2c-1-0.2-2.1-0.4-3.1-0.6
			c-0.2,0-0.3-0.1-0.5-0.1c-1.2-0.2-2.4-0.5-3.7-0.7c-0.3-0.1-0.7-0.1-1-0.2c-1-0.2-2-0.4-3-0.6c-0.3-0.1-0.7-0.1-1-0.2
			c-1.3-0.3-2.6-0.6-3.9-0.8c-0.3-0.1-0.5-0.1-0.8-0.2c-1.1-0.2-2.2-0.5-3.3-0.8c-0.4-0.1-0.8-0.2-1.2-0.3c-1.2-0.3-2.5-0.6-3.8-0.9
			c-0.2,0-0.3-0.1-0.5-0.1c-1.4-0.3-2.8-0.7-4.3-1.1c-0.4-0.1-0.8-0.2-1.2-0.3c-1.1-0.3-2.3-0.6-3.5-0.9c-0.4-0.1-0.7-0.2-1.1-0.3
			c-1.5-0.4-3-0.8-4.5-1.2c-0.3-0.1-0.7-0.2-1-0.3c-1.2-0.3-2.5-0.7-3.7-1c-0.5-0.1-0.9-0.3-1.4-0.4c-1.5-0.4-2.9-0.9-4.4-1.3
			c-0.1,0-0.2-0.1-0.3-0.1c-1.6-0.5-3.2-1-4.8-1.5c-0.5-0.1-0.9-0.3-1.4-0.4c-1.3-0.4-2.6-0.8-3.9-1.2c-0.4-0.1-0.8-0.3-1.2-0.4
			c-1.6-0.5-3.3-1.1-4.9-1.7c-0.4-0.1-0.8-0.3-1.1-0.4c-1.4-0.5-2.7-0.9-4.1-1.4c-0.5-0.2-1-0.3-1.4-0.5c-1.7-0.6-3.5-1.2-5.2-1.9
			c-6.2-2.3-12.5-4.7-18.6-7.3l30.9-30.9c0.9,0.3,1.8,0.7,2.7,1c0.6,0.2,1.3,0.5,1.9,0.7c1,0.4,2,0.7,3,1.1c0.7,0.2,1.3,0.5,2,0.7
			c1,0.3,1.9,0.7,2.9,1c0.6,0.2,1.3,0.4,1.9,0.6c1,0.4,2,0.7,3,1c0.6,0.2,1.1,0.4,1.7,0.5c1.5,0.5,3,1,4.5,1.5
			c0.2,0.1,0.5,0.2,0.8,0.2c1.3,0.4,2.5,0.8,3.8,1.2c0.6,0.2,1.1,0.3,1.7,0.5c0.9,0.3,1.9,0.6,2.8,0.8c0.6,0.2,1.2,0.3,1.8,0.5
			c0.9,0.3,1.8,0.5,2.6,0.8c0.6,0.2,1.2,0.3,1.7,0.5c0.9,0.2,1.8,0.5,2.7,0.7c0.5,0.1,1,0.3,1.6,0.4c1.1,0.3,2.2,0.6,3.3,0.9
			c0.3,0.1,0.5,0.1,0.8,0.2c1.3,0.3,2.7,0.7,4,1c0.5,0.1,0.9,0.2,1.4,0.3c0.9,0.2,1.7,0.4,2.6,0.6c0.5,0.1,1,0.2,1.5,0.4
			c0.8,0.2,1.6,0.3,2.3,0.5c0.5,0.1,1,0.2,1.5,0.3c0.8,0.2,1.6,0.3,2.3,0.5c0.5,0.1,0.9,0.2,1.4,0.3c0.9,0.2,1.7,0.4,2.6,0.5
			c0.3,0.1,0.7,0.1,1,0.2c1.2,0.2,2.3,0.5,3.4,0.7c0.3,0.1,0.7,0.1,1,0.2c0.8,0.2,1.6,0.3,2.4,0.4c0.4,0.1,0.8,0.1,1.2,0.2
			c0.7,0.1,1.3,0.2,2,0.4c0.4,0.1,0.8,0.1,1.2,0.2c0.7,0.1,1.3,0.2,1.9,0.3c0.4,0.1,0.8,0.1,1.1,0.2c0.7,0.1,1.4,0.2,2.1,0.3
			c0.3,0,0.6,0.1,0.9,0.1c0.9,0.1,1.9,0.3,2.8,0.4c0.2,0,0.3,0,0.5,0.1c0.6,0.1,1.2,0.2,1.9,0.3c-2.2-43.7-8.8-79.1-12.5-96l0,0
			c-0.6-0.2-1.2-0.4-1.8-0.6c-0.1,0-0.2-0.1-0.4-0.1c-0.5-0.2-1-0.3-1.6-0.5l107.8-107.8c2.7-1.6,5.4-3.3,8.2-4.9
			c0.1-0.1,0.3-0.2,0.4-0.2c0,0,0.1-0.1,0.2-0.1c0.5-0.3,0.9-0.6,1.4-0.9c35.5-20.8,71.4-36.5,106.7-46.5l0,0l0,0l0,0
			c17.8-5.1,35.9-8.9,53.8-11.2c0.1,0,0.2,0,0.4,0c3.8,6.2,7.4,12.4,10.8,18.9c3.1,5.9,6,11.9,8.7,18c-2,1-4.3,1.6-6.6,1.9
			c-2.1,0.2-4.2,0.5-6.3,0.7c-0.4,0-0.7,0.1-1.1,0.1c-2,0.3-4,0.5-6,0.8c-0.4,0.1-0.8,0.1-1.2,0.2c-2.1,0.3-4.2,0.6-6.2,1
			c-0.1,0-0.2,0-0.3,0.1c-2,0.4-4.1,0.7-6.1,1.1c-0.3,0.1-0.7,0.1-1,0.2c-1.6,0.3-3.2,0.7-4.9,1c0,0.1,0.1,0.1,0.1,0.2
			c0.3,0.8,0.7,1.7,1.1,2.5c0.1,0.3,0.2,0.6,0.4,0.9c0.3,0.7,0.6,1.5,0.9,2.2c0.1,0.2,0.2,0.5,0.3,0.8c0.4,1,0.8,1.9,1.2,2.9
			c0.1,0.2,0.2,0.5,0.3,0.7c0.3,0.8,0.6,1.6,1,2.5c0.1,0.3,0.2,0.6,0.3,0.9c0.4,1,0.8,2,1.1,3c0,0.1,0.1,0.2,0.1,0.3
			c0.4,1.1,0.8,2.2,1.2,3.3c0.1,0.3,0.2,0.6,0.3,0.9c0.3,0.9,0.6,1.8,1,2.7c0.1,0.3,0.2,0.6,0.3,0.9c0.4,1.2,0.8,2.3,1.2,3.5
			c0.1,0.2,0.1,0.4,0.2,0.6c0.3,1,0.7,2,1,3c0.1,0.3,0.2,0.7,0.3,1c0.4,1.1,0.7,2.2,1.1,3.3c0,0.2,0.1,0.3,0.2,0.5
			c0.4,1.3,0.8,2.5,1.2,3.8c0.1,0.3,0.2,0.6,0.3,1c0.3,1,0.6,2.1,1,3.1c0.1,0.3,0.2,0.7,0.3,1c0.4,1.3,0.8,2.7,1.2,4
			c0,0.2,0.1,0.3,0.1,0.5c0.4,1.2,0.7,2.4,1,3.6c0.1,0.4,0.2,0.8,0.3,1.1c0.3,1.2,0.7,2.4,1,3.6c0.1,0.2,0.1,0.4,0.2,0.7
			c0.4,1.4,0.8,2.9,1.1,4.3c0.1,0.3,0.2,0.7,0.3,1c0.3,1.2,0.6,2.3,0.9,3.5c0.1,0.4,0.2,0.8,0.3,1.1c0.4,1.5,0.7,3,1.1,4.5
			c0,0.1,0,0.2,0.1,0.2c0.3,1.4,0.7,2.9,1,4.3c0.1,0.4,0.2,0.8,0.3,1.2c0.3,1.3,0.6,2.6,0.8,3.8c0.1,0.3,0.1,0.6,0.2,0.9
			c0.3,1.6,0.7,3.1,1,4.7c0.1,0.3,0.1,0.7,0.2,1c0.3,1.3,0.5,2.6,0.8,3.9c0.1,0.4,0.2,0.8,0.2,1.3c0.3,1.6,0.6,3.3,0.9,4.9
			c1.2,6.7,2.2,13.4,3.1,20.1c0.1,0.9,0.2,1.7,0.3,2.6C899.4,471.1,899.5,472.4,899.7,473.8z"/>
		<path class="st9" d="M601.6,589c1.3,0.2,2.6,0.5,3.9,0.7C604.2,589.4,602.9,589.2,601.6,589z"/>
		<path class="st9" d="M638.5,513.4c3.2,22.2,6,50.1,6.3,80.9l-0.1-0.1C644.4,563.4,641.6,535.6,638.5,513.4z"/>
		<path class="st9" d="M748.7,720.6l6.9-24.9C753.5,703.9,751.2,712.2,748.7,720.6z"/>
		<g>
			<path class="st10" d="M635,700.3c-8.2,0.2-98.2,0.9-195.7-56.7l79-79c1,0.4,2,0.8,3.1,1.2c1,0.4,2,0.8,3,1.2s2,0.8,2.9,1.1
				c1,0.4,2.1,0.8,3.1,1.1c1,0.4,2,0.7,3,1.1c6,2.2,11.8,4.1,17.5,5.9c1.4,0.4,2.8,0.9,4.1,1.3c1.1,0.3,2.2,0.7,3.3,1
				c0.2,0.1,0.5,0.2,0.8,0.2c0.9,0.2,1.7,0.5,2.5,0.7c3.1,0.9,6.2,1.8,9.2,2.5c1.6,0.4,3.2,0.8,4.8,1.2c3.3,0.9,6.5,1.6,9.6,2.3
				c1.4,0.3,2.7,0.6,4,0.9c4.3,1,8.5,1.8,12.4,2.5c1.3,0.2,2.6,0.5,3.9,0.7c0.6,0.1,1.2,0.2,1.9,0.3c2.5,0.4,4.8,0.8,7.1,1.2
				c0.8,0.1,1.7,0.3,2.5,0.4c0.4,0.1,0.8,0.1,1.2,0.2c0.8,0.1,1.6,0.2,2.4,0.3c1.3,0.2,2.5,0.3,3.7,0.5c0.9,0.1,1.7,0.2,2.5,0.3
				s1.6,0.2,2.4,0.3c1.5,0.2,2.9,0.3,4.2,0.4c0.9,0.1,1.7,0.2,2.5,0.2c0.6,0.1,1.1,0.1,1.6,0.1c0.3,0,0.6,0,0.9,0.1
				c0.3,0,0.6,0,0.9,0.1c0.5,0,1,0.1,1.5,0.1c0,0,0.1,0,0.2,0c0.7,0,1.3,0.1,1.8,0.1c0.1,0,0.1,0,0.2,0c0.2,0,0.3,0,0.5,0
				c0.1,0,0.1,0,0.2,0c0.2,0,0.4,0,0.6,0c0.2,0,0.3,0,0.5,0V594l0.1,0.1C645.1,627.4,642.7,663.8,635,700.3z"/>
			<path class="st11" d="M644.7,594.2L644.7,594.2c-0.2,0.1-0.3,0.1-0.5,0.1s-0.4,0-0.6,0c-0.1,0-0.1,0-0.2,0c-0.2,0-0.3,0-0.5,0
				c-0.1,0-0.1,0-0.2,0c-0.6,0-1.2-0.1-1.8-0.1c-0.1,0-0.1,0-0.2,0c-0.5,0-1-0.1-1.5-0.1c-0.3,0-0.6,0-0.9-0.1c-0.3,0-0.6,0-0.9-0.1
				c-0.5,0-1.1-0.1-1.6-0.1c-0.8-0.1-1.6-0.1-2.5-0.2c-1.3-0.1-2.7-0.3-4.2-0.4c-0.8-0.1-1.6-0.2-2.4-0.3c-0.8-0.1-1.7-0.2-2.5-0.3
				c-1.2-0.2-2.4-0.3-3.7-0.5c-0.8-0.1-1.6-0.2-2.4-0.3c-0.4-0.1-0.8-0.1-1.2-0.2c-0.8-0.1-1.7-0.2-2.5-0.4
				c-2.3-0.4-4.7-0.7-7.1-1.2c-0.6-0.1-1.2-0.2-1.9-0.3c-1.3-0.2-2.5-0.5-3.9-0.7c-3.9-0.7-8.1-1.6-12.4-2.5c-1.3-0.3-2.6-0.6-4-0.9
				c-3.1-0.7-6.3-1.5-9.6-2.3c-1.6-0.4-3.2-0.8-4.8-1.2c-3-0.8-6.1-1.6-9.2-2.5c-0.8-0.2-1.7-0.5-2.5-0.7c-0.2-0.1-0.5-0.2-0.8-0.2
				c-1.1-0.3-2.2-0.7-3.3-1c-1.4-0.4-2.7-0.8-4.1-1.3c-5.6-1.8-11.5-3.7-17.5-5.9c-1-0.3-2-0.7-3-1.1c-1-0.4-2-0.8-3.1-1.1
				c-1-0.4-2-0.7-2.9-1.1c-1-0.4-2-0.8-3-1.2s-2-0.8-3.1-1.2l105.4-105.4c0.2,0.1,0.4,0.1,0.6,0.2c0.3,0.1,0.6,0.2,0.8,0.2
				c0.1,0,0.3,0.1,0.4,0.1c0.1,0,0.2,0.1,0.3,0.1c0.2,0,0.3,0.1,0.5,0.1c0.2,0.1,0.4,0.1,0.6,0.2c0.7,0.2,1.1,0.3,1.4,0.4h0.1h0.1
				c0,0,0,0,0,0.1v0.1c0,0.1,0,0.2,0.1,0.3c0,0.1,0,0.1,0.1,0.2c0,0.1,0.1,0.3,0.1,0.5c0,0.1,0,0.2,0.1,0.3c0.1,0.3,0.2,0.6,0.2,1
				c0.1,0.2,0.1,0.5,0.2,0.8c0.4,1.6,0.9,3.7,1.5,6.4c0.1,0.4,0.2,0.8,0.3,1.2c0.2,1.1,0.5,2.2,0.7,3.4c0.1,0.5,0.2,1,0.3,1.5
				s0.2,1,0.3,1.5s0.2,1.1,0.3,1.6c0.2,1.1,0.5,2.2,0.7,3.4c0.1,0.6,0.2,1.2,0.4,1.8c0.1,0.5,0.2,1.1,0.3,1.6
				c0.2,1.1,0.4,2.2,0.6,3.4c0.1,0.6,0.2,1.2,0.3,1.8c0.1,0.7,0.2,1.4,0.4,2.1c0,0.1,0,0.2,0,0.2c0.1,0.6,0.2,1.3,0.3,1.9
				c0,0.2,0.1,0.3,0.1,0.5c0.1,0.6,0.2,1.1,0.3,1.7c0,0.2,0.1,0.5,0.1,0.7c0.1,0.8,0.3,1.7,0.4,2.5c0.1,0.6,0.2,1.3,0.3,1.9
				c0.2,1.3,0.4,2.6,0.6,4c0.1,0.7,0.2,1.4,0.3,2c0.1,0.7,0.2,1.4,0.3,2.2c0.1,0.7,0.2,1.4,0.3,2.1
				C641.6,535.6,644.4,563.4,644.7,594.2z"/>
			<path class="st10" d="M932.2,464.2c0,51.8-12.8,100.6-35.5,143.4l0,0c-8.9,16.9-19.4,32.8-31.2,47.7c0.5-1.7,1-3.5,1.5-5.2
				c0-0.2,0.1-0.4,0.1-0.6c0.3-1.2,0.7-2.5,1-3.7c0.2-0.7,0.3-1.3,0.5-2c0.3-1.3,0.7-2.7,1-4c0.5-1.9,0.9-3.8,1.4-5.8
				c0.6-2.4,1.1-4.8,1.6-7.2c0.3-1.6,0.7-3.1,1-4.7c0.4-2,0.8-4,1.2-6c0.2-1,0.4-2,0.6-3c0.2-1.1,0.4-2.1,0.6-3.1
				c0.2-1.3,0.5-2.7,0.7-4s0.5-2.7,0.7-4s0.4-2.6,0.6-4s0.4-2.6,0.6-4c0.1-0.7,0.2-1.4,0.3-2.1c0.1-1,0.3-1.9,0.4-2.8
				c0.3-2,0.5-3.9,0.7-5.8c0.1-0.9,0.2-1.8,0.3-2.8c0-0.4,0.1-0.8,0.1-1.2c0.1-1,0.2-2,0.3-2.9c0.1-1.1,0.2-2.3,0.3-3.4
				c0.1-0.9,0.2-1.7,0.2-2.6c0.1-0.8,0.2-1.5,0.2-2.3c0.1-0.6,0.1-1.3,0.2-1.9c0.3-3.4,0.5-6.7,0.7-10.1c0.1-1.1,0.1-2.2,0.2-3.3
				c0-0.8,0.1-1.6,0.1-2.5c0.1-1.5,0.1-3,0.2-4.5c0-1,0.1-1.9,0.1-2.9c0-0.8,0-1.6,0.1-2.5c0-0.9,0-1.7,0-2.6c0-0.5,0-1,0-1.4
				c0-1.1,0-2.2,0-3.2c0.1-19.2-1-37.4-2.9-54.6c-0.3-2.5-0.6-5.1-0.9-7.6c-0.8-5.6-1.6-11.1-2.5-16.5c-0.4-2.3-0.8-4.7-1.2-7
				c-1.1-6.2-2.4-12.2-3.7-18c-0.5-2.3-1.1-4.6-1.6-6.9c-1.1-4.5-2.2-8.9-3.4-13.2c-0.6-2.1-1.2-4.2-1.8-6.3
				c-0.9-3.1-1.8-6.1-2.7-9.1c-0.6-2-1.2-3.9-1.8-5.8s-1.2-3.8-1.9-5.6c-0.9-2.7-1.9-5.4-2.8-8c-0.6-1.7-1.2-3.4-1.9-5
				c-0.6-1.7-1.2-3.2-1.9-4.8c-0.6-1.6-1.2-3.1-1.8-4.6c-0.9-2.2-1.8-4.4-2.7-6.5c-0.3-0.7-0.6-1.4-0.9-2c-0.6-1.3-1.2-2.6-1.7-3.9
				c-0.6-1.3-1.1-2.5-1.7-3.7c-0.3-0.6-0.5-1.2-0.8-1.7c-0.3-0.6-0.5-1.1-0.8-1.7s-0.5-1.1-0.8-1.6c-0.2-0.5-0.5-1-0.8-1.6
				c-0.7-1.5-1.5-2.9-2.1-4.3c19.1-5.5,38.9-9.5,59.4-11.6c3.1,5.9,6,11.9,8.7,18C922.8,378.1,932.2,420,932.2,464.2z"/>
			<path class="st11" d="M883.1,533.4c0,1.1,0,2.1,0,3.2c0,0.5,0,1,0,1.4c0,0.9,0,1.7,0,2.6c0,0.8,0,1.6-0.1,2.5c0,1,0,1.9-0.1,2.9
				c0,1.5-0.1,3-0.2,4.5c0,0.8-0.1,1.7-0.1,2.5c-0.1,1.1-0.1,2.2-0.2,3.3c-0.2,3.3-0.4,6.7-0.7,10.1c0,0.6-0.1,1.2-0.2,1.9
				c0,0.8-0.1,1.5-0.2,2.3c-0.1,0.9-0.2,1.7-0.2,2.6c-0.1,1.1-0.2,2.3-0.3,3.4c-0.1,1-0.2,1.9-0.3,2.9c0,0.4-0.1,0.8-0.1,1.2
				c-0.1,0.9-0.2,1.8-0.3,2.8c-0.2,1.9-0.5,3.9-0.7,5.8c-0.1,0.9-0.2,1.9-0.4,2.8c-0.1,0.7-0.2,1.4-0.3,2.1c-0.2,1.3-0.4,2.6-0.6,4
				s-0.4,2.6-0.6,4c-0.2,1.3-0.4,2.6-0.7,4c-0.2,1.3-0.5,2.7-0.7,4c-0.2,1-0.4,2.1-0.6,3.1c-0.2,1-0.4,2-0.6,3c-0.4,2-0.8,4-1.2,6
				c-0.3,1.6-0.7,3.1-1,4.7c-0.5,2.4-1.1,4.8-1.6,7.2c-0.5,1.9-0.9,3.8-1.4,5.8c-0.3,1.3-0.7,2.6-1,4c-0.2,0.6-0.3,1.3-0.5,2
				c-0.3,1.2-0.7,2.5-1,3.7c0,0.2-0.1,0.4-0.1,0.6c-0.5,1.7-1,3.5-1.5,5.2l0,0c-2.5,3.1-5,6.2-7.6,9.2c-1.8,2-3.5,4-5.3,6
				c-25,27.6-54.9,50.5-88.3,67.5c-8.1,4.1-16.4,7.9-25,11.3c1.2-3.2,2.3-6.5,3.4-9.6c0.4-1.1,0.7-2.1,1.1-3.2
				c0.4-1.1,0.7-2.1,1.1-3.2c0.7-2.1,1.4-4.2,2-6.4c0.7-2.1,1.3-4.2,1.9-6.3c2.5-8.4,4.8-16.7,6.9-24.9c0.5-2,1-4.1,1.5-6.1
				s1-4.1,1.4-6.1c0.5-2,0.9-4,1.3-6.1c0.2-1,0.4-2,0.6-3c0.4-2,0.8-4,1.2-6s0.8-4,1.2-6c0.7-3.9,1.4-7.9,2.1-11.8
				c0.2-1.4,0.5-2.9,0.7-4.3c0.1-0.4,0.1-0.8,0.2-1.2l0.1-0.7c0.3-1.8,0.5-3.6,0.8-5.3c0.3-1.9,0.5-3.8,0.8-5.7
				c0.4-2.9,0.7-5.7,1.1-8.5c0.2-1.6,0.4-3.2,0.5-4.7c0.5-4.3,0.9-8.5,1.2-12.7v-0.1v-0.1c0.1-1.1,0.2-2.1,0.2-3.2
				c0-0.2,0-0.5,0.1-0.7c0.1-1.1,0.2-2.2,0.2-3.3c0.4-5.4,0.7-10.8,0.9-16c0.1-1.8,0.1-3.5,0.2-5.2c0.2-5.2,0.2-10.4,0.2-15.4
				c0-107.4-33.1-178.2-36.3-185c0,0-0.1,0-0.1,0.1l0.1-0.2c29.7-17.4,64.3-33.8,102.1-44.6c0.7,1.3,1.4,2.8,2.1,4.3
				c0.2,0.5,0.5,1,0.8,1.6c0.3,0.5,0.5,1.1,0.8,1.6s0.5,1.1,0.8,1.7s0.5,1.1,0.8,1.7c0.5,1.2,1.1,2.4,1.7,3.7
				c0.6,1.3,1.1,2.6,1.7,3.9c0.3,0.7,0.6,1.3,0.9,2c0.9,2.1,1.8,4.2,2.7,6.5c0.6,1.5,1.2,3,1.8,4.6s1.2,3.2,1.9,4.8
				c0.6,1.6,1.2,3.3,1.9,5c0.9,2.6,1.9,5.2,2.8,8c0.6,1.8,1.2,3.7,1.9,5.6c0.6,1.9,1.2,3.8,1.8,5.8c0.9,2.9,1.8,6,2.7,9.1
				c0.6,2.1,1.2,4.2,1.8,6.3c1.2,4.3,2.3,8.7,3.4,13.2c0.5,2.3,1.1,4.5,1.6,6.9c1.3,5.8,2.5,11.8,3.7,18c0.4,2.3,0.8,4.6,1.2,7
				c0.9,5.4,1.7,10.9,2.5,16.5c0.3,2.5,0.6,5,0.9,7.6C882.1,496,883.2,514.2,883.1,533.4z"/>
			<path class="st12" d="M635,700.3c-5,23.8-12.3,47.7-22.5,70.6c-6.7-0.3-13.3-0.8-19.9-1.5c-73.3-7.7-139-41.3-187.7-91.5
				l34.4-34.4C536.8,701.2,626.8,700.5,635,700.3z"/>
			<path class="st13" d="M772.2,563.4l-0.2,15.4c0,1.7-0.1,3.5-0.2,5.2l-0.9,16c-0.1,1.1-0.2,2.2-0.2,3.3c0,0.2,0,0.5-0.1,0.7
				c-0.1,1-0.2,2.1-0.2,3.2v0.1v0.1l-1.2,12.7c-0.2,1.6-0.3,3.2-0.5,4.7l-1.1,8.5c-0.2,1.9-0.5,3.8-0.8,5.7
				c-0.2,1.8-0.5,3.6-0.8,5.3l-0.1,0.7c-0.1,0.4-0.1,0.8-0.2,1.2c-0.2,1.4-0.5,2.9-0.7,4.3l-2.1,11.8c-0.4,2-0.8,4-1.2,6
				s-0.8,4-1.2,6c-0.2,1-0.4,2-0.6,3c-0.4,2-0.9,4-1.3,6.1c-0.5,2-0.9,4.1-1.4,6.1s-1,4.1-1.5,6.1l-6.9,24.9
				c-0.6,2.1-1.3,4.2-1.9,6.3c-0.7,2.1-1.3,4.2-2,6.4c-0.4,1.1-0.7,2.1-1.1,3.2c-0.3,1.1-0.7,2.1-1.1,3.2c-1.1,3.2-2.2,6.4-3.4,9.6
				c-6.2,2.5-12.4,4.7-18.8,6.8c-27.2,8.9-56.2,14.1-86.2,15c-3,0.1-6,0.1-9,0.1c-4.2,0-8.5-0.1-12.7-0.3
				c10.2-22.9,17.5-46.8,22.5-70.6c7.7-36.5,10.1-72.9,9.7-106c-0.4-30.8-3.1-58.7-6.3-80.9c-0.1-0.7-0.2-1.4-0.3-2.1
				s-0.2-1.5-0.3-2.2s-0.2-1.4-0.3-2c-0.2-1.3-0.4-2.7-0.6-4c-0.1-0.7-0.2-1.3-0.3-1.9c-0.1-0.8-0.3-1.7-0.4-2.5
				c0-0.2-0.1-0.5-0.1-0.7c-0.1-0.6-0.2-1.2-0.3-1.7c0-0.2-0.1-0.3-0.1-0.5c-0.1-0.6-0.2-1.3-0.3-1.9c0-0.1,0-0.2,0-0.2
				c-0.1-0.7-0.2-1.4-0.4-2.1c-0.1-0.6-0.2-1.2-0.3-1.8c-0.2-1.2-0.4-2.3-0.6-3.4c-0.1-0.5-0.2-1.1-0.3-1.6
				c-0.1-0.6-0.2-1.2-0.4-1.8c-0.2-1.2-0.5-2.3-0.7-3.4c-0.1-0.5-0.2-1.1-0.3-1.6s-0.2-1-0.3-1.5s-0.2-1-0.3-1.5
				c-0.3-1.2-0.5-2.3-0.7-3.4c-0.1-0.4-0.2-0.8-0.3-1.2c-0.6-2.6-1.1-4.8-1.5-6.4c-0.1-0.3-0.1-0.5-0.2-0.8c-0.1-0.4-0.2-0.7-0.2-1
				c0-0.1-0.1-0.2-0.1-0.3c-0.1-0.2-0.1-0.3-0.1-0.5c0-0.1,0-0.1-0.1-0.2c0-0.1-0.1-0.2-0.1-0.3v-0.1c0-0.1,0-0.1,0-0.1
				s0.1-0.1,0.4-0.4l0.1-0.1c0.1-0.1,0.2-0.2,0.3-0.3c0.2-0.2,0.5-0.5,0.8-0.8c0.1-0.1,0.2-0.2,0.3-0.3c0.1-0.1,0.2-0.2,0.3-0.3
				c0.2-0.2,0.5-0.5,0.8-0.8c0.1-0.1,0.2-0.2,0.4-0.4c0.8-0.8,1.7-1.7,2.8-2.7c0.4-0.4,0.8-0.8,1.2-1.2c1-1,2.2-2.1,3.5-3.2
				c0.2-0.2,0.5-0.5,0.8-0.7c1-1,2.1-2,3.3-3c0.3-0.3,0.6-0.5,0.9-0.8c0.6-0.5,1.2-1.1,1.9-1.7c0.6-0.5,1.2-1.1,1.8-1.7l0.1-0.1
				c0.7-0.6,1.4-1.2,2.1-1.8c0.7-0.6,1.3-1.2,2-1.8c1.9-1.6,3.8-3.3,5.9-5c0.8-0.7,1.6-1.4,2.5-2.1c0.8-0.7,1.7-1.4,2.6-2.1
				c0.7-0.6,1.4-1.2,2.1-1.8c0.7-0.6,1.5-1.2,2.2-1.8c1.5-1.2,3-2.5,4.6-3.7c1-0.8,2.1-1.7,3.2-2.5c1.5-1.1,2.9-2.3,4.4-3.4
				s3-2.3,4.5-3.4c1.6-1.2,3.2-2.3,4.8-3.5c2.4-1.8,4.9-3.6,7.5-5.4c1.5-1,3-2.1,4.5-3.2s3.1-2.1,4.6-3.2c0.8-0.5,1.6-1.1,2.4-1.6
				c1.6-1.1,3.2-2.1,4.8-3.2c2.4-1.6,4.9-3.2,7.5-4.8c1.7-1.1,3.4-2.1,5.1-3.2c0.9-0.5,1.7-1.1,2.6-1.6c0.9-0.5,1.7-1.1,2.6-1.6
				c0.9-0.5,1.8-1.1,2.7-1.6s1.8-1.1,2.7-1.6c0,0,0.1,0,0.1-0.1C739.2,385.2,772.2,456,772.2,563.4z"/>
			<path class="st6" d="M631.7,457.3c-0.1,0.1-0.3,0.2-0.4,0.4c0,0,0-0.1,0.1-0.1C631.5,457.5,631.6,457.4,631.7,457.3z"/>
			<g>
				<path class="st13" d="M897.4,322.1c-20.5,2.1-40.3,6.1-59.4,11.6c-37.8,10.8-72.4,27.2-102.1,44.6l-0.1,0.2
					c-0.9,0.5-1.8,1.1-2.7,1.6s-1.8,1-2.7,1.6c-0.9,0.5-1.8,1-2.6,1.6c-0.9,0.5-1.7,1.1-2.6,1.6c-1.7,1.1-3.4,2.1-5.1,3.2
					c-2.5,1.6-5,3.2-7.5,4.8c-1.6,1.1-3.2,2.1-4.8,3.2c-0.8,0.5-1.6,1.1-2.4,1.6c-1.6,1.1-3.1,2.1-4.6,3.2s-3,2.1-4.5,3.2
					c-2.6,1.8-5,3.6-7.5,5.4c-1.6,1.2-3.2,2.4-4.8,3.5c-1.5,1.2-3.1,2.3-4.5,3.4c-1.5,1.1-3,2.3-4.4,3.4c-1.1,0.8-2.1,1.7-3.2,2.5
					c-1.6,1.2-3.1,2.5-4.6,3.7c-0.7,0.6-1.5,1.2-2.2,1.8c-0.7,0.6-1.4,1.2-2.1,1.8c-0.9,0.7-1.7,1.4-2.6,2.1
					c-0.8,0.7-1.7,1.4-2.5,2.1c-2.1,1.7-4,3.4-5.9,5c-0.7,0.6-1.4,1.2-2,1.8c-0.7,0.6-1.4,1.2-2.1,1.8l-0.1,0.1
					c-0.6,0.6-1.2,1.1-1.8,1.7s-1.3,1.1-1.9,1.7c-0.3,0.3-0.6,0.5-0.9,0.8c-1.2,1.1-2.3,2.1-3.3,3c-0.3,0.2-0.5,0.5-0.8,0.7
					c-1.3,1.2-2.4,2.3-3.5,3.2c-0.4,0.4-0.8,0.8-1.2,1.2c-1.1,1-2,2-2.8,2.7c-0.1,0.1-0.2,0.2-0.3,0.3c0,0,0,0-0.1,0.1
					c-0.3,0.3-0.6,0.5-0.8,0.8c-0.1,0.1-0.2,0.2-0.3,0.3c-0.1,0.1-0.2,0.2-0.3,0.3c-0.3,0.3-0.6,0.5-0.8,0.8
					c-0.1,0.1-0.2,0.2-0.3,0.3l-0.1,0.1c-0.2,0.2-0.4,0.4-0.4,0.4s0,0-0.1,0H628c-0.2-0.1-0.7-0.2-1.4-0.4c-0.2-0.1-0.4-0.1-0.6-0.2
					c-0.1,0-0.3-0.1-0.5-0.1c-0.1,0-0.2-0.1-0.3-0.1s-0.3-0.1-0.4-0.1c-0.3-0.1-0.5-0.2-0.8-0.2c-0.2,0-0.4-0.1-0.6-0.2L839,243.9
					c18.2,17.7,34.2,37.6,47.7,59.3C890.5,309.4,894,315.7,897.4,322.1z"/>
				<path class="st7" d="M631.4,457.6c0.1-0.1,0.2-0.2,0.3-0.3C631.6,457.4,631.4,457.5,631.4,457.6
					C631.3,457.6,631.4,457.6,631.4,457.6z"/>
			</g>
		</g>
		<path class="st9" d="M762.9,662.5l2.1-11.8C764.3,654.6,763.6,658.5,762.9,662.5z"/>
		<path class="st9" d="M767.6,633.4l1.1-8.5C768.3,627.7,767.9,630.5,767.6,633.4z"/>
		<path class="st9" d="M769.2,620.2l1.2-12.7C770,611.6,769.6,615.9,769.2,620.2z"/>
		<path class="st9" d="M770.9,600l0.9-16C771.6,589.3,771.3,594.6,770.9,600z"/>
		<path class="st9" d="M772,578.8l0.2-15.4C772.2,568.4,772.2,573.6,772,578.8z"/>
		<path class="st9" d="M843.2,344.6c0.5,1.2,1.1,2.4,1.7,3.7C844.3,347,843.8,345.7,843.2,344.6z"/>
		<path class="st9" d="M844.9,348.2c0.6,1.3,1.1,2.6,1.7,3.9C846,350.8,845.5,349.5,844.9,348.2z"/>
		<path class="st9" d="M852,365.2c0.6,1.6,1.2,3.2,1.9,4.8C853.3,368.4,852.6,366.8,852,365.2z"/>
		<path class="st9" d="M858.6,383c0.6,1.8,1.2,3.7,1.9,5.6C859.8,386.7,859.2,384.8,858.6,383z"/>
		<path class="st9" d="M865,403.4c0.6,2.1,1.2,4.2,1.8,6.3C866.2,407.6,865.6,405.5,865,403.4z"/>
		<path class="st9" d="M631.4,457.6c0.1-0.1,0.2-0.2,0.3-0.3C631.6,457.4,631.4,457.5,631.4,457.6
			C631.3,457.6,631.4,457.6,631.4,457.6z"/>
		<path class="st9" d="M712.7,392.8c2.4-1.6,4.9-3.2,7.5-4.8C717.6,389.6,715.1,391.2,712.7,392.8z"/>
		<path class="st8" d="M899.7,473.8c5.4,44.7,4.4,89.4-3,133.8l0,0c-8.9,16.9-19.4,32.8-31.2,47.7l0,0c-2.5,3.1-5,6.2-7.6,9.2
			c-1.8,2-3.5,4-5.3,6c-5.8-4.9-8.5-12.9-6.3-20.7l0,0l0,0c18.3-64.5,21.7-130.4,10-195.8c-0.3-1.6-0.6-3.1-0.9-4.6
			c-0.1-0.4-0.1-0.7-0.2-1.1c-0.2-1.2-0.5-2.4-0.7-3.5c-0.1-0.4-0.2-0.8-0.2-1.2c-0.2-1.2-0.5-2.5-0.8-3.7c0-0.2-0.1-0.5-0.2-0.7
			c-0.3-1.5-0.6-3-1-4.4c0-0.2-0.1-0.4-0.2-0.7c-0.3-1.2-0.5-2.4-0.8-3.6c-0.1-0.4-0.2-0.8-0.3-1.2c-0.2-1.1-0.5-2.1-0.8-3.2
			c-0.1-0.3-0.2-0.7-0.3-1c-0.7-2.8-1.4-5.5-2.1-8.1c-0.1-0.3-0.2-0.6-0.3-1c-0.3-1-0.5-2-0.8-3c-0.1-0.4-0.2-0.7-0.3-1.1
			c-0.3-1.1-0.6-2.1-0.9-3.1c-0.1-0.2-0.1-0.5-0.2-0.7c-0.4-1.3-0.8-2.5-1.1-3.8c0-0.2-0.1-0.3-0.1-0.5c-0.3-1.1-0.7-2.1-1-3.2
			c-0.1-0.3-0.2-0.7-0.3-1c-0.3-0.9-0.6-1.8-0.9-2.7c-0.1-0.3-0.2-0.6-0.3-1c-0.4-1.1-0.7-2.2-1.1-3.3v-0.1
			c-0.4-1.2-0.8-2.3-1.2-3.4c-0.1-0.3-0.2-0.5-0.3-0.8c-0.3-0.8-0.6-1.7-0.9-2.5c-0.1-0.3-0.2-0.6-0.3-1c-0.3-0.8-0.6-1.7-0.9-2.5
			c-0.1-0.2-0.2-0.5-0.2-0.7c-0.4-1-0.8-2.1-1.2-3.1l-0.1-0.4c-0.3-0.9-0.7-1.8-1-2.6c-0.1-0.3-0.2-0.6-0.3-0.9
			c-0.3-0.7-0.6-1.4-0.8-2.1c-0.1-0.3-0.2-0.6-0.3-0.8c-0.3-0.9-0.7-1.7-1-2.5c0-0.1-0.1-0.2-0.1-0.2c-0.4-0.9-0.8-1.8-1.1-2.7
			c-0.1-0.2-0.2-0.5-0.3-0.7c-0.3-0.7-0.5-1.3-0.8-2c-0.1-0.3-0.2-0.5-0.3-0.8c-0.3-0.6-0.5-1.2-0.8-1.9c-0.1-0.2-0.2-0.4-0.3-0.6
			c-0.3-0.8-0.7-1.5-1-2.3c-0.2,0.1-0.5,0.2-0.7,0.2c-2.4,0.8-4.8,1.6-7.2,2.5c-0.5,0.2-1,0.4-1.5,0.5c-2,0.7-4,1.5-5.9,2.2
			c-0.8,0.3-1.6,0.6-2.4,0.9c-1.9,0.8-3.8,1.5-5.7,2.3c-0.6,0.2-1.2,0.5-1.8,0.7c-2.4,1-4.8,2-7.2,3.1c-0.6,0.3-1.3,0.6-1.9,0.8
			c-1.9,0.8-3.8,1.7-5.7,2.5c-0.7,0.3-1.5,0.7-2.2,1c-2.2,1-4.5,2.1-6.7,3.2c-0.2,0.1-0.5,0.2-0.7,0.3c-2.5,1.2-4.9,2.5-7.4,3.7
			c-0.7,0.4-1.4,0.7-2.1,1.1c-1.9,1-3.8,2-5.7,3c-0.4,0.2-0.9,0.5-1.3,0.7c6.2,15.8,14.5,40.8,21,73.3
			c11.8,59.1,17.5,143.2-7.6,241.8c-0.1,0.2-0.1,0.4-0.2,0.6c-0.8,3.2-1.7,6.4-2.6,9.6c-0.2,0.8-0.5,1.7-0.7,2.5
			c-0.4,1.5-0.8,3-1.3,4.5c-0.5,1.8-1,3.6-1.6,5.4c-0.4,1.4-0.8,2.8-1.3,4.2c-0.6,2-1.2,3.9-1.8,5.9c-0.3,0.9-0.5,1.8-0.8,2.6
			c-0.1,0.2-0.1,0.4-0.2,0.7c-8.1,4.1-16.4,7.9-25,11.3c-6.2,2.5-12.4,4.7-18.8,6.8c-0.9-2.4-1.3-5-1.2-7.6c0.1-2,0.5-3.9,1.2-5.9
			c0.9-2.5,1.8-5.1,2.7-7.7l0.6-1.7c0.9-2.6,1.7-5.1,2.5-7.7c0-0.1,0.1-0.3,0.1-0.4c0.8-2.5,1.6-5,2.4-7.6c0.1-0.4,0.2-0.8,0.4-1.2
			c0.8-2.7,1.6-5.4,2.4-8.1c0-0.1,0-0.2,0.1-0.2c0.8-2.8,1.6-5.5,2.3-8.2c0-0.1,0.1-0.2,0.1-0.3c0.8-2.8,1.5-5.7,2.2-8.5v-0.1
			c1.4-5.7,2.8-11.5,4-17.2c0-0.1,0-0.1,0-0.2c1.2-5.7,2.4-11.3,3.4-17c0-0.2,0.1-0.4,0.1-0.6c1-5.5,1.9-10.9,2.7-16.4
			c0.1-0.4,0.1-0.8,0.2-1.2c0.4-2.7,0.8-5.3,1.1-8c0-0.2,0-0.4,0.1-0.6c0.3-2.4,0.6-4.8,0.9-7.2c0.1-0.6,0.1-1.2,0.2-1.7
			c0.3-2.5,0.5-5,0.8-7.5c0-0.5,0.1-1,0.1-1.6c0.2-2.2,0.4-4.3,0.6-6.5c0.1-0.6,0.1-1.2,0.2-1.8c0.2-2,0.3-4,0.5-6.1
			c0-0.1,0-0.2,0-0.3c0.1-2.2,0.3-4.4,0.4-6.5c0-0.5,0.1-1,0.1-1.5c0.1-1.7,0.2-3.4,0.2-5.1c0-0.6,0.1-1.1,0.1-1.7
			c0.1-1.8,0.1-3.5,0.2-5.3c0-0.4,0-0.8,0-1.2c0.1-4.5,0.2-9,0.2-13.5v-0.2c0-4.6-0.1-9.1-0.2-13.7c0-0.1,0-0.2,0-0.3
			c-0.1-4.5-0.3-9.1-0.6-13.6v-0.1c-0.8-13.8-2.2-27.6-4.1-41.2c-5.4-37.8-14.3-67.1-20.9-85.4c-36.6,23.7-63.4,47.5-75.9,59.2
			c4.7,21.1,13.6,68.8,14.3,127.1c0.5,39.1-2.9,76.3-10.1,110.4c-5,23.5-11.8,45.9-20.4,66.6c-3,0.1-6,0.1-9,0.1
			c-4.2,0-8.5-0.1-12.7-0.3c10.2-22.9,17.5-46.8,22.5-70.6c7.7-36.5,10.1-72.9,9.7-106c0.3,33.1-2.1,69.5-9.8,106
			c-5,23.8-12.3,47.7-22.5,70.6c-6.7-0.3-13.3-0.8-19.9-1.5c0.2-2.2,0.7-4.5,1.7-6.7c6.1-13.6,11.3-28.2,15.6-43.5
			c-0.1,0-0.3,0-0.4,0c-0.2,0-0.5,0-0.7-0.1c-0.7-0.1-1.5-0.1-2.2-0.2c-0.2,0-0.4,0-0.5,0c-0.9-0.1-1.8-0.2-2.7-0.3
			c-0.2,0-0.5,0-0.8-0.1c-0.8-0.1-1.6-0.2-2.5-0.3c-0.2,0-0.4,0-0.5-0.1c-1-0.1-2-0.2-3-0.3c-0.3,0-0.5-0.1-0.8-0.1
			c-0.9-0.1-1.8-0.2-2.7-0.3c-0.2,0-0.4,0-0.5-0.1c-1-0.1-2.1-0.3-3.2-0.4c-0.3,0-0.6-0.1-0.9-0.1c-1-0.1-2-0.3-2.9-0.4
			c-0.2,0-0.3,0-0.5-0.1c-1.1-0.2-2.3-0.3-3.4-0.5c-0.3,0-0.6-0.1-0.9-0.1c-1.1-0.2-2.1-0.3-3.2-0.5c-0.2,0-0.3-0.1-0.5-0.1
			c-1.2-0.2-2.4-0.4-3.6-0.6c-0.3-0.1-0.6-0.1-1-0.2c-1.1-0.2-2.3-0.4-3.4-0.6c-0.2,0-0.3,0-0.4-0.1c-1.3-0.2-2.5-0.5-3.8-0.8
			c-0.3-0.1-0.7-0.1-1-0.2c-1.2-0.2-2.4-0.5-3.7-0.8c-0.1,0-0.2,0-0.4-0.1c-1.3-0.3-2.7-0.6-4-0.9c-0.3-0.1-0.7-0.2-1-0.2
			c-1.3-0.3-2.6-0.6-3.9-0.9c-0.1,0-0.2-0.1-0.3-0.1c-1.4-0.3-2.8-0.7-4.2-1c-0.4-0.1-0.7-0.2-1.1-0.3c-1.4-0.3-2.8-0.7-4.1-1.1
			c-0.1,0-0.1,0-0.2,0c-1.5-0.4-2.9-0.8-4.4-1.2c-0.4-0.1-0.7-0.2-1.1-0.3c-1.5-0.4-2.9-0.8-4.4-1.2H531c-1.5-0.4-3-0.9-4.5-1.3
			c-0.4-0.1-0.8-0.2-1.1-0.3c-1.5-0.5-3.1-0.9-4.6-1.4c-33.5-10.5-65.7-25.1-95.6-43.3c-1.7-1-3.3-2-5-3.1
			c-24.7-15.4-47.9-33.4-69.3-53.8l0,0c-7.9-15.9-14.5-32.6-19.7-49.9c-1.9-6.4-3.6-12.8-5.1-19.4c1.6-0.4,3.2-0.6,4.8-0.6
			c5.8-0.1,11.5,2.3,15.5,7.1c1.8,2.1,3.5,4.1,5.3,6.2c0.6,0.6,1.1,1.3,1.7,1.9c1.2,1.4,2.5,2.8,3.7,4.1c0.7,0.7,1.3,1.4,2,2.2
			c1.2,1.3,2.4,2.5,3.5,3.8c0.6,0.7,1.3,1.4,2,2.1c1.3,1.3,2.6,2.6,3.8,3.9c0.5,0.5,1.1,1.1,1.6,1.7c1.8,1.8,3.6,3.6,5.5,5.4
			c0.2,0.2,0.5,0.4,0.7,0.7c1.6,1.5,3.2,3.1,4.8,4.6c0.6,0.6,1.2,1.1,1.9,1.7c1.2,1.1,2.5,2.3,3.7,3.4c0.7,0.6,1.4,1.2,2.1,1.8
			c1.2,1.1,2.4,2.1,3.6,3.2c0.7,0.6,1.3,1.2,2,1.7c1.4,1.2,2.7,2.3,4.1,3.4c0.5,0.4,1,0.9,1.5,1.3c1.9,1.5,3.7,3,5.6,4.5
			c0.4,0.3,0.7,0.6,1.1,0.9c1.5,1.2,3,2.3,4.5,3.5c0.7,0.5,1.3,1,2,1.5c1.2,0.9,2.5,1.8,3.7,2.8c0.7,0.5,1.4,1,2.1,1.5
			c1.2,0.9,2.5,1.8,3.7,2.6c0.7,0.5,1.3,1,2,1.4c1.4,1,2.8,1.9,4.2,2.9c0.5,0.3,0.9,0.7,1.4,1c1.9,1.2,3.7,2.5,5.6,3.7
			c0.5,0.3,1,0.6,1.4,0.9c1.4,0.9,2.8,1.8,4.2,2.7c0.7,0.4,1.3,0.8,2,1.2c1.2,0.7,2.4,1.5,3.6,2.2c0.7,0.4,1.4,0.8,2.1,1.3
			c1.2,0.7,2.4,1.4,3.6,2.1c0.5,0.3,1,0.6,1.5,0.8c0.2,0.1,0.3,0.2,0.5,0.3c1.5,0.8,2.9,1.7,4.4,2.5c0.4,0.2,0.8,0.5,1.2,0.7
			c1.8,1,3.7,2,5.5,3c0.5,0.3,1.1,0.5,1.6,0.8c1.3,0.7,2.6,1.4,3.9,2c0.7,0.3,1.4,0.7,2,1c1.2,0.6,2.3,1.2,3.5,1.7
			c0.7,0.3,1.4,0.7,2.1,1c1.2,0.6,2.4,1.2,3.6,1.7c0.6,0.3,1.2,0.6,1.9,0.9c1.5,0.7,3,1.4,4.5,2.1c0.3,0.1,0.6,0.3,0.8,0.4
			c1.8,0.8,3.5,1.6,5.3,2.3c0.6,0.2,1.1,0.5,1.7,0.7c1.2,0.5,2.4,1,3.6,1.5c0.7,0.3,1.3,0.5,2,0.8c1.1,0.4,2.2,0.9,3.3,1.3
			c0.7,0.3,1.3,0.5,2,0.8c1.2,0.5,2.3,0.9,3.4,1.3c0.6,0.2,1.2,0.4,1.8,0.7c1.6,0.6,3.2,1.2,4.8,1.8c0.2,0.1,0.3,0.1,0.4,0.2
			c1.6,0.6,3.2,1.2,4.8,1.7l1.7,0.6c1.1,0.4,2.2,0.7,3.3,1.1c0.6,0.2,1.3,0.4,1.9,0.6c1,0.3,2.1,0.7,3.1,1c0.6,0.2,1.2,0.4,1.9,0.6
			c1.1,0.3,2.2,0.7,3.3,1c0.5,0.1,1,0.3,1.5,0.5c1.6,0.5,3.1,0.9,4.7,1.4c0.2,0.1,0.5,0.1,0.8,0.2c1.3,0.4,2.6,0.7,3.9,1.1
			c0.5,0.1,1.1,0.3,1.6,0.4c1,0.3,2,0.5,3,0.8c0.6,0.2,1.2,0.3,1.7,0.4c1,0.2,1.9,0.5,2.8,0.7c0.5,0.1,1.1,0.3,1.6,0.4
			c1,0.2,2.1,0.5,3.1,0.7c0.4,0.1,0.8,0.2,1.3,0.3c1.4,0.3,2.8,0.6,4.2,0.9c0.3,0.1,0.6,0.1,0.9,0.2c1.1,0.2,2.2,0.5,3.3,0.7
			c0.5,0.1,1,0.2,1.5,0.3c0.9,0.2,1.8,0.3,2.6,0.5c0.5,0.1,1,0.2,1.5,0.3c0.9,0.2,1.7,0.3,2.6,0.5c0.5,0.1,0.9,0.2,1.4,0.2
			c1,0.2,1.9,0.3,2.9,0.5c0.3,0,0.6,0.1,0.9,0.2c1.2,0.2,2.5,0.4,3.7,0.6c0.3,0,0.5,0.1,0.8,0.1c0.9,0.1,1.9,0.3,2.8,0.4
			c0.4,0,0.8,0.1,1.2,0.2c0.8,0.1,1.6,0.2,2.3,0.3c0.4,0,0.8,0.1,1.2,0.2c0.8,0.1,1.5,0.2,2.3,0.3c0.3,0,0.7,0.1,1,0.1
			c0.9,0.1,1.9,0.2,2.7,0.3c0.1,0,0.3,0,0.4,0c1,0.1,2.1,0.2,3.1,0.3c0.2,0,0.4,0,0.6,0.1c0.8,0.1,1.5,0.1,2.3,0.2
			c0.3,0,0.6,0,0.9,0.1c0.7,0.1,1.3,0.1,1.9,0.2c0.3,0,0.6,0,0.8,0.1c0.7,0,1.3,0.1,2,0.2c0.2,0,0.4,0,0.6,0
			c0.9,0.1,1.7,0.1,2.5,0.2c3.5-21.2,5.6-43.6,6.2-67.1c-0.7-0.1-1.5-0.2-2.2-0.3c-0.2,0-0.3,0-0.5-0.1c-0.8-0.1-1.5-0.2-2.3-0.3
			c-0.3,0-0.6-0.1-0.9-0.1c-0.8-0.1-1.6-0.2-2.4-0.3c-0.2,0-0.4,0-0.6-0.1c-1-0.1-2-0.3-3-0.4c-0.3-0.1-0.6-0.1-0.9-0.1
			c-0.8-0.1-1.6-0.3-2.5-0.4c-0.3,0-0.6-0.1-0.9-0.1c-1.1-0.2-2.2-0.3-3.3-0.5c-0.2,0-0.4-0.1-0.6-0.1c-1-0.2-1.9-0.3-2.9-0.5
			c-0.3-0.1-0.7-0.1-1-0.2c-1-0.2-2.1-0.4-3.1-0.6c-0.2,0-0.3-0.1-0.5-0.1c-1.2-0.2-2.4-0.5-3.7-0.7c-0.3-0.1-0.7-0.1-1-0.2
			c-1-0.2-2-0.4-3-0.6c-0.3-0.1-0.7-0.1-1-0.2c-1.3-0.3-2.6-0.6-3.9-0.8c-0.3-0.1-0.5-0.1-0.8-0.2c-1.1-0.2-2.2-0.5-3.3-0.8
			c-0.4-0.1-0.8-0.2-1.2-0.3c-1.2-0.3-2.5-0.6-3.8-0.9c-0.2,0-0.3-0.1-0.5-0.1c-1.4-0.3-2.8-0.7-4.3-1.1c-0.4-0.1-0.8-0.2-1.2-0.3
			c-1.1-0.3-2.3-0.6-3.5-0.9c-0.4-0.1-0.7-0.2-1.1-0.3c-1.5-0.4-3-0.8-4.5-1.2c-0.3-0.1-0.7-0.2-1-0.3c-1.2-0.3-2.5-0.7-3.7-1
			c-0.5-0.1-0.9-0.3-1.4-0.4c-1.5-0.4-2.9-0.9-4.4-1.3c-0.1,0-0.2-0.1-0.3-0.1c-1.6-0.5-3.2-1-4.8-1.5c-0.5-0.1-0.9-0.3-1.4-0.4
			c-1.3-0.4-2.6-0.8-3.9-1.2c-0.4-0.1-0.8-0.3-1.2-0.4c-1.6-0.5-3.3-1.1-4.9-1.7c-0.4-0.1-0.8-0.3-1.1-0.4c-1.4-0.5-2.7-0.9-4.1-1.4
			c-0.5-0.2-1-0.3-1.4-0.5c-1.7-0.6-3.5-1.2-5.2-1.9c-6.2-2.3-12.5-4.7-18.6-7.3c-68.2-28.2-130.1-70.9-184.5-127
			c0.3-9.1,1.1-18,2.2-26.9c0.8-6.6,1.9-13.2,3.1-19.8c4.3,0.7,8.5,2.8,11.7,6.3c2,2.1,3.9,4.2,5.9,6.3c0.6,0.7,1.3,1.3,1.9,2
			c1.3,1.4,2.7,2.8,4,4.2c0.7,0.8,1.5,1.5,2.2,2.3c1.3,1.3,2.5,2.6,3.8,3.8c0.8,0.7,1.5,1.5,2.2,2.2c1.3,1.3,2.6,2.6,3.9,3.8
			c0.7,0.7,1.4,1.3,2,2c1.6,1.6,3.3,3.1,4.9,4.6c0.3,0.3,0.7,0.7,1,1c2,1.8,4,3.6,5.9,5.4c0.6,0.5,1.2,1,1.8,1.6
			c1.4,1.3,2.8,2.5,4.2,3.8c0.7,0.6,1.5,1.3,2.2,1.9c1.3,1.1,2.5,2.2,3.8,3.3c0.8,0.7,1.5,1.3,2.3,1.9c1.3,1.1,2.6,2.1,3.8,3.2
			c0.7,0.6,1.4,1.2,2.1,1.8c1.5,1.2,2.9,2.4,4.4,3.5c0.5,0.4,1,0.8,1.6,1.3c2,1.6,3.9,3.1,5.9,4.6c0.5,0.4,1,0.7,1.5,1.1
			c1.5,1.2,3,2.3,4.5,3.4c0.7,0.5,1.4,1.1,2.2,1.6c1.3,0.9,2.5,1.9,3.8,2.8c0.8,0.6,1.5,1.1,2.3,1.7c1.2,0.9,2.5,1.8,3.7,2.6
			c0.7,0.5,1.5,1,2.2,1.6c1.3,0.9,2.7,1.9,4,2.8c0.6,0.4,1.2,0.8,1.8,1.2c1.9,1.3,3.9,2.6,5.8,3.9c0.3,0.2,0.6,0.4,1,0.6
			c1.6,1.1,3.2,2.1,4.9,3.1c0.7,0.4,1.4,0.9,2.1,1.3c1.2,0.8,2.5,1.6,3.8,2.4c0.8,0.5,1.5,0.9,2.3,1.4c1.2,0.7,2.4,1.5,3.6,2.2
			c0.8,0.5,1.5,0.9,2.2,1.3c1.2,0.7,2.5,1.5,3.7,2.2c0.7,0.4,1.3,0.8,2,1.2c1.7,1,3.3,1.9,5,2.8c0.2,0.1,0.5,0.3,0.7,0.4
			c1.9,1,3.7,2.1,5.6,3.1c0.6,0.3,1.3,0.7,1.9,1c1.2,0.7,2.5,1.3,3.7,2c0.7,0.4,1.5,0.8,2.2,1.1c1.1,0.6,2.3,1.2,3.4,1.8
			c0.7,0.4,1.5,0.7,2.2,1.1c1.2,0.6,2.3,1.1,3.5,1.7c0.7,0.3,1.4,0.7,2,1c1.4,0.7,2.7,1.3,4.1,2c0.5,0.2,0.9,0.4,1.4,0.7
			c1.8,0.8,3.5,1.6,5.3,2.4c0.6,0.3,1.1,0.5,1.7,0.8c1.2,0.5,2.4,1.1,3.6,1.6c0.7,0.3,1.4,0.6,2.1,0.9c1.1,0.5,2.2,0.9,3.2,1.4
			c0.7,0.3,1.4,0.6,2.1,0.9c1.1,0.5,2.1,0.9,3.2,1.3c0.7,0.3,1.3,0.6,2,0.8c1.2,0.5,2.3,0.9,3.5,1.4c0.5,0.2,1.1,0.4,1.6,0.7
			c1.7,0.6,3.3,1.3,4.9,1.9c0.5,0.2,0.9,0.3,1.4,0.5c0.3,0.1,0.6,0.2,0.9,0.3c0.9,0.3,1.8,0.7,2.7,1c0.6,0.2,1.3,0.5,1.9,0.7
			c1,0.4,2,0.7,3,1.1c0.7,0.2,1.3,0.5,2,0.7c1,0.3,1.9,0.7,2.9,1c0.6,0.2,1.3,0.4,1.9,0.6c1,0.4,2,0.7,3,1c0.6,0.2,1.1,0.4,1.7,0.5
			c1.5,0.5,3,1,4.5,1.5c0.2,0.1,0.5,0.2,0.8,0.2c1.3,0.4,2.5,0.8,3.8,1.2c0.6,0.2,1.1,0.3,1.7,0.5c0.9,0.3,1.9,0.6,2.8,0.8
			c0.6,0.2,1.2,0.3,1.8,0.5c0.9,0.3,1.8,0.5,2.6,0.8c0.6,0.2,1.2,0.3,1.7,0.5c0.9,0.2,1.8,0.5,2.7,0.7c0.5,0.1,1,0.3,1.6,0.4
			c1.1,0.3,2.2,0.6,3.3,0.9c0.3,0.1,0.5,0.1,0.8,0.2c1.3,0.3,2.7,0.7,4,1c0.5,0.1,0.9,0.2,1.4,0.3c0.9,0.2,1.7,0.4,2.6,0.6
			c0.5,0.1,1,0.2,1.5,0.4c0.8,0.2,1.6,0.3,2.3,0.5c0.5,0.1,1,0.2,1.5,0.3c0.8,0.2,1.6,0.3,2.3,0.5c0.5,0.1,0.9,0.2,1.4,0.3
			c0.9,0.2,1.7,0.4,2.6,0.5c0.3,0.1,0.7,0.1,1,0.2c1.2,0.2,2.3,0.5,3.4,0.7c0.3,0.1,0.7,0.1,1,0.2c0.8,0.2,1.6,0.3,2.4,0.4
			c0.4,0.1,0.8,0.1,1.2,0.2c0.7,0.1,1.3,0.2,2,0.4c0.4,0.1,0.8,0.1,1.2,0.2c0.7,0.1,1.3,0.2,1.9,0.3c0.4,0.1,0.8,0.1,1.1,0.2
			c0.7,0.1,1.4,0.2,2.1,0.3c0.3,0,0.6,0.1,0.9,0.1c0.9,0.1,1.9,0.3,2.8,0.4c0.2,0,0.3,0,0.5,0.1c0.6,0.1,1.2,0.2,1.9,0.3
			c-2.2-43.7-8.8-79.1-12.5-96l0,0c-0.6-0.2-1.2-0.4-1.8-0.6c-0.1,0-0.2-0.1-0.4-0.1c-0.5-0.2-1-0.3-1.6-0.5c-0.1,0-0.2-0.1-0.3-0.1
			h-0.1c-0.7-0.2-1.3-0.5-2-0.7c-0.2-0.1-0.3-0.1-0.5-0.2c-0.7-0.2-1.4-0.5-2.1-0.7H603c-0.7-0.2-1.5-0.5-2.3-0.8
			c-0.2-0.1-0.4-0.1-0.6-0.2c-0.7-0.3-1.5-0.5-2.3-0.8c-0.1,0-0.1,0-0.2-0.1c-0.8-0.3-1.6-0.6-2.5-0.9c-0.2-0.1-0.4-0.2-0.6-0.2
			c-0.8-0.3-1.6-0.6-2.5-0.9c-0.1,0-0.1,0-0.2-0.1c-0.9-0.3-1.8-0.7-2.7-1c-0.2-0.1-0.4-0.2-0.6-0.2c-0.9-0.3-1.8-0.7-2.7-1
			c-0.1,0-0.1,0-0.2-0.1c-0.9-0.4-1.9-0.7-2.9-1.1c-0.2-0.1-0.5-0.2-0.7-0.3c-1-0.4-1.9-0.8-2.9-1.1H579c-1-0.4-2-0.8-3.1-1.2
			c-0.3-0.1-0.5-0.2-0.8-0.3c-1-0.4-2-0.8-3-1.2c0,0-0.1,0-0.2-0.1c-1.1-0.4-2.2-0.9-3.3-1.3c-0.3-0.1-0.5-0.2-0.8-0.3
			c-1.1-0.5-2.1-0.9-3.2-1.4c-0.1,0-0.1,0-0.1,0c-1.1-0.5-2.3-1-3.4-1.5c-0.3-0.1-0.5-0.2-0.8-0.4c-1.1-0.5-2.2-1-3.4-1.5
			c0,0-0.1,0-0.1-0.1c-1.2-0.5-2.4-1.1-3.6-1.6c-0.3-0.1-0.6-0.2-0.8-0.4c-1.2-0.5-2.4-1.1-3.6-1.6h-0.1c-1.2-0.6-2.5-1.1-3.7-1.7
			c-0.3-0.1-0.6-0.3-0.9-0.4c-1.2-0.6-2.5-1.2-3.7-1.7c0,0,0,0-0.1,0c-1.3-0.6-2.5-1.2-3.8-1.8c-0.3-0.2-0.6-0.3-0.9-0.5
			c-1.3-0.6-2.6-1.2-3.8-1.9l0,0c-1.3-0.6-2.6-1.3-3.9-2c-0.3-0.2-0.6-0.3-0.9-0.5c-1.3-0.7-2.6-1.3-4-2l0,0c-1.3-0.7-2.7-1.4-4-2.1
			c-0.3-0.2-0.7-0.3-1-0.5c-1.3-0.7-2.7-1.4-4-2.1l0,0c-1.4-0.7-2.7-1.5-4.1-2.2c-0.3-0.2-0.7-0.4-1-0.5c-1.4-0.8-2.8-1.5-4.1-2.3
			c-1.4-0.8-2.8-1.5-4.2-2.3c-0.3-0.2-0.7-0.4-1-0.6c-1.4-0.8-2.8-1.6-4.2-2.4c-0.4-0.2-0.8-0.5-1.2-0.8c-0.9-0.5-1.8-1.1-2.8-1.6
			c-0.9-0.5-1.9-1.1-2.8-1.7c-1.2-0.7-2.3-1.4-3.4-2.1c-0.9-0.5-1.8-1.1-2.8-1.7c-1.1-0.7-2.3-1.4-3.4-2.1c-0.9-0.6-1.8-1.1-2.7-1.7
			c-1.1-0.7-2.3-1.4-3.4-2.2c-0.9-0.6-1.8-1.1-2.6-1.7c-1.1-0.7-2.2-1.5-3.4-2.2c-0.8-0.6-1.7-1.1-2.6-1.7c-1.1-0.8-2.2-1.5-3.3-2.3
			c-0.8-0.6-1.7-1.1-2.5-1.7c-1.1-0.8-2.2-1.5-3.3-2.3c-0.8-0.6-1.6-1.1-2.4-1.7c-1.1-0.8-2.2-1.6-3.3-2.3c-0.8-0.6-1.6-1.1-2.4-1.7
			c-1.1-0.8-2.2-1.6-3.2-2.4c-0.8-0.6-1.5-1.1-2.3-1.7c-1.1-0.8-2.1-1.6-3.2-2.5c-0.7-0.6-1.5-1.1-2.2-1.7c-1.1-0.8-2.1-1.7-3.2-2.5
			c-0.7-0.6-1.5-1.1-2.2-1.7c-1.1-0.8-2.1-1.7-3.1-2.5c-0.7-0.6-1.4-1.1-2.1-1.7c-1-0.9-2.1-1.7-3.1-2.6c-0.7-0.6-1.3-1.1-2-1.7
			c-1.1-0.9-2.1-1.8-3.2-2.7c-0.6-0.5-1.2-1.1-1.9-1.6c-1.1-1-2.3-2-3.4-3c-0.5-0.5-1-0.9-1.5-1.4c-1.6-1.5-3.2-2.9-4.8-4.4
			c-10.2-9.5-19.8-19.4-28.7-29.6c-5.7-6.5-11.1-13.2-16.2-19.9c3.6-6.2,7.5-12.2,11.5-18.1c3.8-5.5,7.7-10.9,11.8-16.1
			c1.7,1.2,3.1,2.7,4.4,4.4c1.4,1.9,2.8,3.9,4.3,5.8c0.3,0.5,0.7,0.9,1,1.3c1.5,1.9,2.9,3.8,4.4,5.7c0.2,0.2,0.4,0.4,0.5,0.7
			c1.4,1.7,2.8,3.4,4.2,5.1c0.4,0.4,0.7,0.8,1,1.2c1.6,1.8,3.2,3.7,4.8,5.5c0.3,0.3,0.6,0.7,0.9,1c1.4,1.6,2.9,3.2,4.4,4.8
			c0.3,0.4,0.6,0.7,1,1.1c0.2,0.2,0.4,0.4,0.6,0.6l0,0c0.7-1,1.4-2,2.2-3c0.2-0.3,0.4-0.6,0.6-0.9c0.6-0.8,1.1-1.5,1.7-2.3
			c0.3-0.4,0.6-0.8,0.8-1.1c0.6-0.8,1.1-1.5,1.7-2.3c0.3-0.4,0.5-0.7,0.8-1.1c0.7-1,1.5-2,2.3-3c0.1-0.2,0.2-0.3,0.4-0.5
			c0.9-1.2,1.8-2.3,2.8-3.5c0.3-0.4,0.6-0.7,0.9-1.1c0.7-0.9,1.4-1.7,2.1-2.6c0.4-0.4,0.7-0.9,1.1-1.3c0.7-0.9,1.4-1.7,2.2-2.6
			c0.3-0.4,0.7-0.8,1-1.3c1-1.1,2-2.3,3-3.5c0.1-0.1,0.2-0.3,0.4-0.4c1.1-1.3,2.3-2.6,3.5-3.9c0.4-0.4,0.7-0.8,1.1-1.2
			c0.9-0.9,1.7-1.9,2.6-2.9c0.4-0.5,0.9-1,1.3-1.4c0.9-0.9,1.8-1.9,2.7-2.8c0.4-0.4,0.8-0.9,1.3-1.3c1.2-1.3,2.5-2.6,3.8-3.9
			c0.1-0.1,0.2-0.2,0.2-0.2c1.4-1.4,2.8-2.8,4.2-4.2c0.4-0.4,0.9-0.9,1.3-1.3c1-1,2.1-2,3.1-3c0.5-0.5,1.1-1,1.6-1.5
			c1.1-1,2.1-2,3.2-3c0.5-0.5,1-0.9,1.5-1.4c1.6-1.4,3.2-2.9,4.8-4.3c6.6-5.8,13.4-11.5,20.4-16.9c21-16.2,43.6-30.4,67.6-42.3
			c22-11,45.2-20.1,69.3-27.3c1.1-0.3,2.2-0.7,3.4-1c19.8,0.7,39.2,3.3,57.8,7.5h0.1c6.5,1.5,12.9,3.2,19.3,5.1
			c-2,7.6-8.3,13.4-16.1,14.6l0,0c-2.7,0.4-5.4,0.9-8.1,1.4c-0.6,0.1-1.2,0.2-1.8,0.3c-2,0.4-3.9,0.7-5.8,1.1
			c-0.9,0.2-1.8,0.4-2.7,0.6c-1.6,0.3-3.2,0.7-4.8,1c-1,0.2-1.9,0.4-2.9,0.7c-1.5,0.3-3.1,0.7-4.6,1.1c-0.9,0.2-1.9,0.5-2.8,0.7
			c-1.6,0.4-3.2,0.8-4.8,1.2c-0.8,0.2-1.6,0.4-2.5,0.6c-2.1,0.6-4.2,1.1-6.3,1.7l-0.8,0.2c-2.3,0.7-4.6,1.3-6.9,2
			c-0.8,0.2-1.5,0.5-2.3,0.7c-1.5,0.5-3,0.9-4.5,1.4c-0.9,0.3-1.8,0.6-2.6,0.9c-1.4,0.4-2.7,0.9-4.1,1.4c-0.9,0.3-1.8,0.6-2.7,0.9
			c-1.4,0.5-2.7,1-4,1.4c-0.8,0.3-1.7,0.6-2.5,0.9c-1.5,0.6-3,1.1-4.4,1.7c-0.6,0.2-1.3,0.5-1.9,0.7c-2.1,0.8-4.1,1.6-6.1,2.5
			c-0.5,0.2-1.1,0.5-1.6,0.7c-1.5,0.6-3,1.2-4.5,1.9c-0.8,0.3-1.5,0.7-2.3,1c-1.2,0.5-2.5,1.1-3.7,1.6c-0.8,0.4-1.6,0.7-2.4,1.1
			c-1.2,0.5-2.3,1.1-3.5,1.6c-0.8,0.4-1.6,0.7-2.4,1.1c-1.2,0.6-2.4,1.2-3.6,1.8c-0.7,0.3-1.4,0.7-2.1,1c-1.5,0.8-3,1.5-4.5,2.3
			c-0.3,0.2-0.7,0.4-1,0.5c-1.8,0.9-3.6,1.9-5.3,2.8c-0.6,0.3-1.3,0.7-1.9,1.1c-1.1,0.6-2.3,1.2-3.4,1.9c-0.7,0.4-1.4,0.8-2.2,1.2
			c-1,0.6-2.1,1.2-3.1,1.8c-0.7,0.4-1.4,0.8-2.1,1.3c-1,0.6-2,1.2-3,1.8c-0.7,0.4-1.4,0.8-2,1.2c-1.1,0.7-2.2,1.3-3.3,2
			c-0.5,0.3-1.1,0.7-1.7,1c-1.6,1-3.1,2-4.7,3c-0.5,0.3-0.9,0.6-1.3,0.9c-1.1,0.7-2.2,1.5-3.3,2.2c-0.6,0.4-1.2,0.8-1.8,1.3
			c-0.9,0.6-1.8,1.3-2.7,1.9c-0.6,0.5-1.3,0.9-1.9,1.4c-0.9,0.6-1.7,1.2-2.6,1.9c-0.6,0.5-1.2,0.9-1.8,1.3c-0.9,0.6-1.8,1.3-2.6,1.9
			c-0.6,0.4-1.1,0.8-1.7,1.2c-1.1,0.8-2.1,1.6-3.2,2.4c-0.3,0.3-0.7,0.5-1,0.8c-1.3,1-2.6,2.1-4,3.1c-0.5,0.4-1,0.8-1.5,1.2
			c-0.8,0.7-1.7,1.3-2.5,2c-0.5,0.4-1.1,0.9-1.6,1.3c-0.8,0.6-1.5,1.3-2.2,1.9c-0.6,0.4-1.1,0.9-1.6,1.4c-0.7,0.6-1.5,1.3-2.2,1.9
			c-0.5,0.4-1,0.9-1.5,1.3c-0.8,0.7-1.5,1.4-2.3,2.1c-0.4,0.4-0.9,0.8-1.3,1.1c-1.1,1-2.3,2.1-3.4,3.1c-0.3,0.3-0.6,0.6-1,0.9
			c-0.8,0.8-1.6,1.5-2.4,2.3c-0.4,0.4-0.9,0.8-1.3,1.3c-0.7,0.6-1.3,1.3-2,1.9c-0.5,0.4-0.9,0.9-1.3,1.3c-0.6,0.6-1.2,1.2-1.8,1.8
			c-0.4,0.4-0.9,0.9-1.3,1.3c-0.6,0.6-1.2,1.3-1.9,1.9c-0.4,0.4-0.8,0.8-1.1,1.2c-0.8,0.8-1.5,1.5-2.2,2.3c-0.2,0.2-0.5,0.5-0.7,0.7
			c-0.9,1-1.8,2-2.7,3c-0.3,0.4-0.6,0.7-1,1c-0.6,0.6-1.2,1.3-1.7,1.9c-0.4,0.4-0.7,0.8-1.1,1.2c-0.5,0.6-1,1.2-1.5,1.8
			c-0.3,0.4-0.7,0.8-1,1.2c-0.5,0.6-1,1.2-1.5,1.7c-0.3,0.4-0.6,0.8-1,1.1c-0.5,0.6-1,1.2-1.6,1.9c-0.3,0.3-0.5,0.6-0.8,0.9
			c-0.8,0.9-1.5,1.8-2.2,2.7c-0.2,0.2-0.3,0.4-0.5,0.6c-0.6,0.7-1.1,1.4-1.6,2c-0.3,0.3-0.5,0.7-0.8,1c-0.4,0.5-0.9,1.1-1.3,1.6
			c-0.3,0.3-0.5,0.7-0.8,1c-0.4,0.5-0.8,1-1.2,1.5c-0.3,0.3-0.5,0.7-0.8,1c-0.4,0.5-0.8,1-1.2,1.5c-0.2,0.3-0.4,0.6-0.7,0.9
			c-0.5,0.6-0.9,1.2-1.4,1.8c-0.1,0.2-0.2,0.3-0.4,0.5c-0.5,0.8-1.1,1.5-1.6,2.2c-0.2,0.2-0.3,0.5-0.5,0.7c-0.4,0.5-0.7,1-1,1.5
			c-0.2,0.3-0.4,0.5-0.6,0.8c-0.3,0.4-0.6,0.9-0.9,1.3c-0.2,0.3-0.4,0.5-0.5,0.8c-0.3,0.4-0.6,0.8-0.8,1.2c-0.2,0.2-0.3,0.5-0.5,0.7
			c-0.1,0.1-0.1,0.2-0.2,0.3c0.2,0.2,0.4,0.3,0.6,0.5c1.8,1.6,3.7,3.1,5.6,4.7c0.1,0.1,0.2,0.1,0.2,0.2c1.8,1.5,3.7,3,5.5,4.5
			c0.6,0.5,1.2,1,1.8,1.4c1.4,1.1,2.9,2.2,4.3,3.3c0.6,0.5,1.2,0.9,1.8,1.4c1.9,1.4,3.8,2.8,5.7,4.2c0.1,0.1,0.2,0.2,0.4,0.3
			c2,1.5,4.1,3,6.2,4.5c0.6,0.4,1.2,0.9,1.9,1.3c1.5,1.1,3.1,2.2,4.7,3.2c0.7,0.4,1.3,0.9,2,1.3c1.9,1.3,3.9,2.6,5.8,3.9
			c0.2,0.1,0.5,0.3,0.7,0.5c2.2,1.4,4.4,2.8,6.7,4.2c0.2,0.1,0.4,0.3,0.6,0.4c0.2-0.2,0.3-0.5,0.5-0.7c0.2-0.3,0.4-0.5,0.6-0.8
			c0.5-0.7,1-1.3,1.6-2c0.2-0.2,0.3-0.4,0.5-0.6c0.4-0.5,0.9-1.1,1.3-1.7c0.2-0.3,0.4-0.5,0.6-0.8c0.6-0.7,1.2-1.5,1.8-2.3l0.1-0.1
			c0.6-0.8,1.3-1.6,2-2.4c0.2-0.2,0.4-0.5,0.6-0.7c0.6-0.7,1.2-1.4,1.8-2.1c0.1-0.2,0.2-0.3,0.4-0.5c0.7-0.9,1.5-1.8,2.2-2.6
			c0.2-0.2,0.3-0.4,0.5-0.6c0.6-0.8,1.3-1.5,2-2.3c0.2-0.2,0.4-0.4,0.5-0.6c0.8-0.9,1.7-1.9,2.5-2.8c0.1-0.1,0.2-0.2,0.2-0.2
			c0.8-0.9,1.6-1.8,2.4-2.7c0.2-0.2,0.4-0.4,0.6-0.7c0.9-1,1.8-1.9,2.7-2.9l0.1-0.1c1-1,1.9-2,2.9-3c0.2-0.2,0.4-0.5,0.6-0.7
			c0.8-0.9,1.7-1.8,2.6-2.6c0.2-0.2,0.4-0.4,0.5-0.5c1-1,2.1-2.1,3.1-3.2c0.2-0.2,0.4-0.4,0.5-0.5c0.9-0.9,1.8-1.8,2.8-2.7
			c0.2-0.2,0.5-0.5,0.8-0.8c1.1-1.1,2.2-2.2,3.4-3.3c0,0,0,0,0.1-0.1c1.1-1,2.2-2.1,3.4-3.2c0.3-0.3,0.6-0.5,0.9-0.8
			c1-0.9,2.1-1.9,3.1-2.9c0.2-0.2,0.3-0.3,0.5-0.5c1.2-1.1,2.5-2.2,3.7-3.3c0.3-0.3,0.6-0.5,0.9-0.8c1-0.9,2-1.8,3.1-2.7
			c0.3-0.3,0.6-0.5,0.9-0.8c1.3-1.1,2.6-2.2,3.9-3.4c0.2-0.2,0.5-0.4,0.7-0.6c1.1-1,2.3-1.9,3.4-2.9c0.4-0.3,0.8-0.6,1.2-1
			c1.3-1.1,2.6-2.1,3.9-3.2c0.1-0.1,0.2-0.1,0.3-0.2l0,0l0.1-0.1c0.9-0.7,1.8-1.4,2.7-2.1c1.1-0.9,2.3-1.8,3.4-2.7
			c0.9-0.7,1.7-1.3,2.6-2c1.2-0.9,2.4-1.9,3.7-2.8c0.8-0.6,1.5-1.1,2.3-1.7c1.3-1,2.7-2,4.1-3c0.7-0.5,1.3-1,2-1.4
			c1.5-1.1,2.9-2.1,4.4-3.1c0.6-0.4,1.2-0.9,1.9-1.3c1.5-1.1,3.1-2.1,4.6-3.2c0.5-0.3,1-0.7,1.5-1c1.7-1.1,3.4-2.3,5.1-3.4
			c0.4-0.3,0.9-0.6,1.3-0.8c1.8-1.2,3.5-2.3,5.3-3.4c0.4-0.2,0.8-0.5,1.2-0.7c1.8-1.2,3.7-2.3,5.5-3.4c0.3-0.2,0.6-0.4,0.9-0.6
			c1.9-1.2,3.9-2.4,5.9-3.5c0.3-0.2,0.6-0.3,0.8-0.5c2-1.2,4-2.3,6-3.5c0.1-0.1,0.3-0.2,0.4-0.2c2.2-1.2,4.3-2.4,6.5-3.6
			c0.1,0,0.2-0.1,0.3-0.1c41.8-22.9,87.5-40.5,136.8-52.5c0.3-0.1,0.6-0.1,0.9-0.2c1.8-0.4,3.6-0.9,5.4-1.3
			c7.8,4.9,15.3,10.1,22.6,15.6c5.3,4,10.5,8.2,15.5,12.6c-2.8,3.5-6.8,6-11.6,7c-0.1,0-0.2,0-0.3,0.1c-2.8,0.6-5.5,1.1-8.2,1.7
			c-1,0.2-1.9,0.4-2.8,0.6c-1.9,0.4-3.8,0.8-5.6,1.3c-1,0.2-2.1,0.5-3.1,0.7c-1.8,0.4-3.6,0.9-5.4,1.3c-1,0.2-2,0.5-3,0.7
			c-2,0.5-4,1-6,1.6c-0.7,0.2-1.4,0.4-2.1,0.6c-2.6,0.7-5.3,1.4-7.8,2.2c-0.7,0.2-1.4,0.4-2,0.6c-1.9,0.6-3.8,1.1-5.8,1.7
			c-0.9,0.3-1.9,0.6-2.8,0.9c-1.6,0.5-3.3,1-4.9,1.5c-1,0.3-1.9,0.6-2.9,0.9c-1.7,0.5-3.3,1.1-5,1.6c-0.8,0.3-1.7,0.6-2.5,0.9
			c-2.2,0.8-4.4,1.5-6.6,2.3c-0.3,0.1-0.5,0.2-0.8,0.3c-2.3,0.8-4.7,1.7-7,2.5c-0.8,0.3-1.6,0.6-2.4,0.9c-1.6,0.6-3.1,1.2-4.6,1.8
			c-0.9,0.4-1.8,0.7-2.7,1.1c-1.5,0.6-2.9,1.2-4.3,1.7c-0.9,0.4-1.8,0.7-2.6,1.1c-1.6,0.6-3.1,1.3-4.6,1.9c-0.7,0.3-1.4,0.6-2.1,0.9
			c-2.2,0.9-4.3,1.9-6.4,2.8c-0.7,0.3-1.3,0.6-2,0.9c-1.5,0.7-3,1.4-4.5,2c-0.9,0.4-1.7,0.8-2.5,1.2c-1.3,0.6-2.6,1.2-3.8,1.8
			c-0.9,0.4-1.7,0.8-2.6,1.2c-1.3,0.6-2.5,1.2-3.8,1.9c-0.8,0.4-1.6,0.8-2.4,1.2c-1.6,0.8-3.1,1.6-4.6,2.4c-0.7,0.3-1.3,0.7-2,1
			c-1.7,0.9-3.4,1.8-5,2.7c-0.8,0.4-1.5,0.8-2.3,1.3c-1.1,0.6-2.3,1.2-3.4,1.9c-0.8,0.5-1.7,0.9-2.5,1.4c-1.1,0.6-2.1,1.2-3.2,1.8
			c-0.8,0.5-1.6,0.9-2.4,1.4c-1.1,0.7-2.2,1.3-3.3,2c-0.7,0.4-1.4,0.9-2.2,1.3c-1.7,1-3.4,2-5,3.1c-0.7,0.4-1.3,0.8-2,1.3
			c-1,0.7-2.1,1.3-3.1,2c-0.8,0.5-1.6,1-2.3,1.5c-0.9,0.6-1.8,1.2-2.7,1.8c-0.8,0.5-1.6,1-2.3,1.5c-0.9,0.6-1.8,1.2-2.6,1.8
			c-0.7,0.5-1.5,1-2.2,1.5c-1,0.7-1.9,1.3-2.9,2s-2,1.4-3,2.1c-1,0.8-2.1,1.5-3.1,2.2c-0.7,0.5-1.4,1-2.2,1.6s-1.6,1.1-2.3,1.7
			c-0.7,0.5-1.5,1.1-2.2,1.6s-1.5,1.1-2.2,1.6c-0.7,0.6-1.5,1.1-2.2,1.6c-0.7,0.6-1.5,1.1-2.2,1.7c-0.7,0.5-1.4,1.1-2.1,1.6
			c-1,0.8-2,1.6-3,2.4c-0.9,0.7-1.8,1.4-2.7,2.2c-0.7,0.5-1.3,1.1-2,1.6c-0.7,0.6-1.3,1.1-2,1.7c-0.6,0.5-1.2,1-1.8,1.5
			c-0.7,0.6-1.3,1.1-2,1.7c-0.6,0.5-1.2,1-1.8,1.5c-0.6,0.6-1.3,1.1-1.9,1.7c-0.6,0.5-1.2,1-1.8,1.5c-1.1,1-2.2,1.9-3.2,2.9
			c-0.6,0.5-1.2,1-1.7,1.6c-0.6,0.6-1.2,1.1-1.8,1.7c-0.5,0.5-1,1-1.5,1.4c-0.6,0.5-1.2,1.1-1.8,1.6c-0.5,0.5-1,0.9-1.5,1.4
			c-0.6,0.5-1.2,1.1-1.7,1.6s-0.9,0.9-1.4,1.4s-1.1,1.1-1.7,1.6c-0.5,0.5-0.9,0.9-1.4,1.4c-1,1-1.9,1.9-2.8,2.8
			c-0.4,0.4-0.9,0.9-1.3,1.3c-0.5,0.5-1,1-1.5,1.5c-0.4,0.4-0.8,0.9-1.2,1.3c-0.5,0.5-1,1-1.4,1.5c-0.4,0.4-0.8,0.9-1.2,1.3
			c-0.5,0.5-0.9,1-1.4,1.5c-0.4,0.4-0.8,0.9-1.2,1.3c-0.7,0.8-1.4,1.5-2.1,2.3c-0.4,0.5-0.9,1-1.3,1.5c-0.4,0.4-0.8,0.9-1.2,1.3
			s-0.8,0.9-1.1,1.3s-0.7,0.8-1.1,1.3c-0.4,0.4-0.7,0.8-1.1,1.2c-0.4,0.4-0.7,0.8-1,1.2c-0.4,0.4-0.7,0.9-1.1,1.3
			c-0.3,0.4-0.6,0.7-0.9,1.1c-0.6,0.7-1.2,1.4-1.8,2.1c-0.2,0.3-0.5,0.6-0.7,0.9c-0.4,0.5-0.8,1-1.2,1.5c-0.2,0.3-0.5,0.6-0.7,0.9
			c-0.3,0.4-0.7,0.9-1,1.3c-0.2,0.3-0.4,0.6-0.7,0.8c-0.1,0.2-0.3,0.4-0.4,0.5c38.4,20.3,72.1,32.5,88.6,38c0.1-0.1,0.2-0.2,0.3-0.3
			c0.3-0.3,0.6-0.5,0.8-0.8c0.2-0.2,0.4-0.4,0.6-0.5c0.4-0.4,0.8-0.8,1.3-1.2c0.2-0.2,0.4-0.3,0.6-0.5c0.3-0.3,0.7-0.6,1-0.9
			c0.2-0.2,0.4-0.4,0.6-0.6c0.5-0.5,1-0.9,1.5-1.4c0.2-0.2,0.4-0.4,0.6-0.5c0.4-0.3,0.8-0.7,1.1-1c0.2-0.2,0.5-0.4,0.7-0.6
			c0.5-0.4,1-0.9,1.5-1.3c0.3-0.2,0.6-0.5,0.8-0.7c0.4-0.4,0.8-0.7,1.3-1.1c0.3-0.2,0.5-0.5,0.8-0.7c0.5-0.4,1-0.9,1.5-1.3
			c0.3-0.3,0.7-0.6,1-0.9c0.5-0.4,1-0.8,1.4-1.2c0.3-0.3,0.6-0.5,0.9-0.8c0.5-0.4,1-0.9,1.5-1.3c0.4-0.3,0.7-0.6,1.1-0.9
			c0.5-0.5,1.1-0.9,1.7-1.4c0.3-0.3,0.7-0.6,1-0.8c0.5-0.4,1.1-0.9,1.6-1.3c0.3-0.3,0.7-0.5,1-0.8c0.7-0.6,1.3-1.1,2-1.7
			c0.3-0.3,0.7-0.5,1-0.8c0.6-0.5,1.1-0.9,1.7-1.4c0.3-0.2,0.6-0.5,0.9-0.7c0.8-0.6,1.6-1.3,2.4-1.9c0.4-0.3,0.7-0.6,1.1-0.8
			c0.6-0.5,1.2-1,1.8-1.4c0.3-0.3,0.6-0.5,1-0.8c0.8-0.7,1.7-1.3,2.6-2c0.4-0.3,0.7-0.6,1.1-0.8c0.6-0.5,1.3-1,2-1.5
			c0.3-0.3,0.7-0.5,1-0.8c0.9-0.7,1.8-1.4,2.8-2.1c0.4-0.3,0.7-0.5,1.1-0.8c0.7-0.5,1.4-1,2.1-1.6c0.4-0.3,0.7-0.5,1.1-0.8
			c1-0.7,2-1.4,3-2.2c0.3-0.2,0.7-0.5,1.1-0.8c0.8-0.5,1.5-1.1,2.3-1.7c0.4-0.3,0.7-0.5,1.1-0.8c1-0.7,2.1-1.5,3.2-2.2
			c0.3-0.2,0.7-0.5,1-0.7c0.9-0.6,1.7-1.2,2.6-1.8c0.4-0.2,0.7-0.5,1.1-0.8c1.1-0.8,2.2-1.5,3.4-2.3c0.3-0.2,0.6-0.4,0.8-0.6
			c1-0.6,1.9-1.3,2.9-1.9c0.3-0.2,0.7-0.5,1-0.7c1.2-0.8,2.4-1.6,3.6-2.4c0.2-0.1,0.4-0.3,0.6-0.4c1.1-0.7,2.2-1.4,3.2-2.1
			c0.3-0.2,0.7-0.4,1-0.6c1.3-0.8,2.6-1.6,3.9-2.5c0.1-0.1,0.2-0.1,0.3-0.2c1.2-0.8,2.4-1.5,3.7-2.3c0.3-0.2,0.6-0.4,1-0.6
			c0,0,0,0,0.1,0c2.7-1.6,5.4-3.3,8.2-4.9c0.1-0.1,0.3-0.2,0.4-0.2c0,0,0.1-0.1,0.2-0.1c0.5-0.3,0.9-0.6,1.4-0.9
			c35.5-20.8,71.4-36.5,106.7-46.5l0,0l0,0l0,0c17.8-5.1,35.9-8.9,53.8-11.2c0.1,0,0.2,0,0.4,0c3.8,6.2,7.4,12.4,10.8,18.9
			c3.1,5.9,6,11.9,8.7,18c-2,1-4.3,1.6-6.6,1.9c-2.1,0.2-4.2,0.5-6.3,0.7c-0.4,0-0.7,0.1-1.1,0.1c-2,0.3-4,0.5-6,0.8
			c-0.4,0.1-0.8,0.1-1.2,0.2c-2.1,0.3-4.2,0.6-6.2,1c-0.1,0-0.2,0-0.3,0.1c-2,0.4-4.1,0.7-6.1,1.1c-0.3,0.1-0.7,0.1-1,0.2
			c-1.6,0.3-3.2,0.7-4.9,1c0,0.1,0.1,0.1,0.1,0.2c0.3,0.8,0.7,1.7,1.1,2.5c0.1,0.3,0.2,0.6,0.4,0.9c0.3,0.7,0.6,1.5,0.9,2.2
			c0.1,0.2,0.2,0.5,0.3,0.8c0.4,1,0.8,1.9,1.2,2.9c0.1,0.2,0.2,0.5,0.3,0.7c0.3,0.8,0.6,1.6,1,2.5c0.1,0.3,0.2,0.6,0.3,0.9
			c0.4,1,0.8,2,1.1,3c0,0.1,0.1,0.2,0.1,0.3c0.4,1.1,0.8,2.2,1.2,3.3c0.1,0.3,0.2,0.6,0.3,0.9c0.3,0.9,0.6,1.8,1,2.7
			c0.1,0.3,0.2,0.6,0.3,0.9c0.4,1.2,0.8,2.3,1.2,3.5c0.1,0.2,0.1,0.4,0.2,0.6c0.3,1,0.7,2,1,3c0.1,0.3,0.2,0.7,0.3,1
			c0.4,1.1,0.7,2.2,1.1,3.3c0,0.2,0.1,0.3,0.2,0.5c0.4,1.3,0.8,2.5,1.2,3.8c0.1,0.3,0.2,0.6,0.3,1c0.3,1,0.6,2.1,1,3.1
			c0.1,0.3,0.2,0.7,0.3,1c0.4,1.3,0.8,2.7,1.2,4c0,0.2,0.1,0.3,0.1,0.5c0.4,1.2,0.7,2.4,1,3.6c0.1,0.4,0.2,0.8,0.3,1.1
			c0.3,1.2,0.7,2.4,1,3.6c0.1,0.2,0.1,0.4,0.2,0.7c0.4,1.4,0.8,2.9,1.1,4.3c0.1,0.3,0.2,0.7,0.3,1c0.3,1.2,0.6,2.3,0.9,3.5
			c0.1,0.4,0.2,0.8,0.3,1.1c0.4,1.5,0.7,3,1.1,4.5c0,0.1,0,0.2,0.1,0.2c0.3,1.4,0.7,2.9,1,4.3c0.1,0.4,0.2,0.8,0.3,1.2
			c0.3,1.3,0.6,2.6,0.8,3.8c0.1,0.3,0.1,0.6,0.2,0.9c0.3,1.6,0.7,3.1,1,4.7c0.1,0.3,0.1,0.7,0.2,1c0.3,1.3,0.5,2.6,0.8,3.9
			c0.1,0.4,0.2,0.8,0.2,1.3c0.3,1.6,0.6,3.3,0.9,4.9c1.2,6.7,2.2,13.4,3.1,20.1c0.1,0.9,0.2,1.7,0.3,2.6
			C899.4,471.1,899.5,472.4,899.7,473.8z"/>
	</g>
</g>
<g>
	<path class="st14" d="M956.9,504.8c0-0.8,0-1.6-0.1-2.4c0-1.6-0.1-3.2-0.1-4.8c0-1-0.1-2-0.1-3c-0.1-1.4-0.1-2.7-0.2-4.1
		c-0.1-1.2-0.1-2.3-0.2-3.4c-0.1-1.2-0.1-2.4-0.2-3.6c0-0.7-0.1-1.4-0.1-2.1c0-0.4-0.1-0.9-0.1-1.3c-0.2-2.6-0.4-5.3-0.6-7.9
		c0-0.2,0-0.4-0.1-0.6c-0.3-2.8-0.5-5.7-0.8-8.5c0-0.4-0.1-0.9-0.1-1.3c-2.1-18.7-5.3-37.3-9.7-55.6c-3.4-14.1-7.7-28.4-12.6-42.5
		c-3.2-9-6-16.3-8.9-23c-0.4-0.9-0.8-1.8-1.1-2.7c-0.4-0.8-0.7-1.6-1.1-2.5c-0.4-1-0.9-2-1.3-2.9c-0.4-0.9-0.8-1.8-1.2-2.7l-0.1-0.1
		c-5.3-11.8-11.2-23.5-17.5-34.6c-3.6-6.5-7.3-12.9-11.6-19.6c-15.3-24.4-33.2-47.5-53.1-68.7c-7.7-8-13.7-14-19.6-19.5
		c-0.3-0.3-0.7-0.6-1-0.9c-0.2-0.2-0.5-0.5-0.7-0.7c-1.2-1.2-2.4-2.3-3.7-3.4l-0.3-0.3c-2.4-2.2-4.7-4.2-7-6.2
		c-4.1-3.5-8.1-6.9-12.1-10.2l-0.2-0.1c-0.1-0.1-0.3-0.3-0.6-0.5c-2.6-2.1-5.2-4.1-7.7-6c-4.1-3.2-8.5-6.4-13.5-10
		c-7.4-5.3-14.9-10.3-22.8-15.3c-2.2-1.4-4.5-2.8-6.8-4.1c-0.8-0.5-1.6-1-2.4-1.5l-1.2-0.7H183.9v684.9l1.3,1.4
		c19.6,21.2,41.5,40.7,65.1,57.9l0.1,0.1c3.7,2.6,7.5,5.3,11.3,7.9v0l2.2,1.5c73.3,49.4,159.1,75.6,248,75.6
		c57.3,0,113.2-10.8,166-32c44-17.6,84.6-42.1,121-72.8c5.2-4.4,10.3-8.9,15.3-13.6l0.1-0.1c0.3-0.3,0.6-0.6,1-0.9
		c0.4-0.4,0.8-0.7,1.2-1.1c2.5-2.4,4.9-4.8,7.3-7.1c7.1-7.1,13.8-14,20.1-21.1c0.8-0.8,1.5-1.6,2.3-2.5c0.8-0.8,1.5-1.7,2.3-2.5
		l0.1-0.1c6.5-7.5,12.7-15.2,18.5-23c1.9-2.6,3.9-5.2,5.7-7.7c5-6.8,9.7-13.7,14.4-21.1c14.7-22.9,27.3-47.3,37.5-72.5
		c21.4-53,32.3-109.1,32.3-166.9C957,509.6,957,507.2,956.9,504.8z M256.2,863.9c-22.5-16.4-43.5-35-62.3-55.2V137.7h539.9
		c0.4,0.3,0.9,0.5,1.3,0.8c2.2,1.3,4.4,2.6,6.6,4c7.8,4.9,15.1,9.7,22.3,14.9c4.9,3.5,9.2,6.7,13.2,9.8c2.5,1.9,5.1,3.9,7.7,6
		l0.1,0.1c0.1,0.1,0.3,0.3,0.6,0.5c3.8,3.2,7.8,6.4,11.7,9.8c2.2,1.9,4.5,3.9,6.7,5.9l0.6,0.5c1.1,0.9,2.2,1.9,3.2,2.9
		c0.4,0.4,0.7,0.7,1.1,1c0.2,0.2,0.5,0.5,0.7,0.7l0.1,0.1c3.5,3.2,7,6.7,11,10.6h-21.1c-2.7-1.9-5.6-3.8-8.6-5.9l-0.1-0.1
		c-23.5-14.7-48.9-26.2-75.5-34.3c-6.7-2-13.1-3.7-19.6-5.2l-0.7-0.1h-0.8c-19-4.2-38.4-6.7-57.8-7.4c-3.7-0.1-7.5-0.2-11.2-0.2
		c-48.8,0-95.4,10.9-138.7,32.4c-12.3,6.1-24.2,13-35.6,20.7H261.8v662.4C259.9,866.5,258.1,865.2,256.2,863.9z M625.3,162.3
		c3.6,0,7.4,0.1,10.9,0.2c19,0.7,38.1,3.1,56.8,7.4l1,0.2l0.5-0.1c6,1.4,11.9,3,18,4.8c25.8,7.8,50.3,19,73,33.1
		c6.6,4.4,12.2,8.3,17.4,12.1l-0.5,0.5l4.6,3.5c5.4,4.1,10.5,8.2,15.2,12.4c23.4,20.3,43.5,43.9,59.6,70.1l0.3,0.4
		c4.2,5.5,7.7,11.8,10.6,17.2l1.6,3l0.1,0c2.5,4.8,4.8,9.7,7,14.7c17.1,39.2,25.8,80.5,25.8,122.6c0,49.2-12.1,98-34.9,141.1
		c-8.5,16-18.7,31.7-30.4,46.6l-0.6,0.8l-0.1,0.5c-2.2,2.8-4.5,5.6-6.8,8.2c-0.9,1-1.8,2-2.7,3.1c-0.9,1-1.7,2-2.6,2.9
		c-24.7,27.3-54,49.7-86.9,66.4c-6.8,3.4-13.2,6.4-19.7,9.1l-0.1-0.3l-4.9,2c-5.6,2.3-11.5,4.4-18.5,6.7
		c-27.3,8.9-55.8,13.9-84.8,14.8c-2.9,0.1-5.9,0.1-8.8,0.1c-4.2,0-8.4-0.1-12.5-0.3l-2.2-0.1l-0.1,0.1c-5.8-0.3-11.5-0.8-17.4-1.4
		c-50.7-5.3-99.6-23.7-141.3-53.1c-41-28.8-74.4-67.6-96.8-112.3c-7.8-15.6-14.3-32.2-19.4-49.1c-2-6.6-3.6-12.8-5-19.1
		c-4.9-21.8-7.4-44.2-7.4-66.7c0-3.8,0.1-7.5,0.2-11c0.3-8.2,1-16.9,2.2-26.5c0.7-5.6,1.6-11.6,3-19.5c6.5-33.9,18.7-66.1,36.2-95.9
		c3.1-5.3,6.7-11,11.3-17.8c4.2-6.1,8-11.3,11.6-15.9C445.4,204.4,532,162.3,625.3,162.3z M915.5,675.1c-1.2,3.1-2.5,6.2-3.9,9.2
		c-9.2,21.4-20.3,42.1-32.8,61.7c-3.4,5.4-6.8,10.5-10.4,15.5c-1.2,1.7-2.4,3.4-3.6,5c-7.3,10.1-15.3,20.2-23.7,30.1
		c-1.4,1.6-2.9,3.3-4.4,4.8l-0.1,0.1c-8.3,9.2-17.1,18.3-26.9,27.7l-0.1,0.1c-0.3,0.3-0.6,0.6-1,0.9c-0.4,0.4-0.8,0.7-1.2,1.1
		c-39.2,36.3-84,64.7-133.2,84.4C622.6,936.5,568,947,512,947c-2.7,0-5.4,0-8.1-0.1c-0.9,0-1.8-0.1-2.7-0.1c-1.8,0-3.6-0.1-5.4-0.1
		c-1.1,0-2.2-0.1-3.2-0.1c-1.6-0.1-3.2-0.1-4.8-0.2c-1.2-0.1-2.4-0.2-3.5-0.2c-1.5-0.1-3-0.2-4.5-0.3c-1.2-0.1-2.4-0.2-3.6-0.3
		c-1.5-0.1-2.9-0.2-4.4-0.4c-1.2-0.1-2.5-0.2-3.7-0.4c-1.4-0.1-2.9-0.3-4.3-0.4c-1.3-0.1-2.5-0.3-3.8-0.4c-1.4-0.2-2.8-0.3-4.2-0.5
		c-1.3-0.2-2.5-0.3-3.8-0.5c-1.4-0.2-2.8-0.4-4.1-0.6c-1.3-0.2-2.5-0.4-3.8-0.6c-1.4-0.2-2.7-0.4-4.1-0.7c-1.3-0.2-2.5-0.4-3.8-0.7
		c-1.4-0.2-2.7-0.5-4.1-0.7c-1.3-0.2-2.5-0.5-3.7-0.7c-1.4-0.3-2.7-0.5-4.1-0.8c-1.2-0.3-2.5-0.5-3.7-0.8c-1.4-0.3-2.7-0.6-4.1-0.9
		c-1.2-0.3-2.5-0.6-3.7-0.9c-1.4-0.3-2.7-0.6-4.1-1c-1.2-0.3-2.4-0.6-3.7-0.9c-1.4-0.3-2.7-0.7-4.1-1c-1.2-0.3-2.4-0.7-3.6-1
		c-1.3-0.4-2.7-0.7-4-1.1c-1.2-0.3-2.4-0.7-3.6-1c-1.3-0.4-2.7-0.8-4-1.2c-1.2-0.4-2.4-0.7-3.5-1.1c-1.3-0.4-2.7-0.8-4-1.3
		c-1.2-0.4-2.3-0.8-3.5-1.2c-1.4-0.4-2.7-0.9-4-1.4c-1.2-0.4-2.3-0.8-3.5-1.2c-1.4-0.5-2.7-1-4-1.4c-1.1-0.4-2.3-0.8-3.4-1.3
		c-1.3-0.5-2.7-1-4-1.5c-1.1-0.4-2.2-0.9-3.4-1.3c-1.3-0.5-2.7-1.1-4-1.6c-1.1-0.5-2.2-0.9-3.3-1.4c-1.3-0.6-2.7-1.1-4-1.7
		c-1.1-0.5-2.2-1-3.3-1.4c-1.3-0.6-2.7-1.2-4-1.8c-1.1-0.5-2.2-1-3.3-1.5c-1.3-0.6-2.6-1.2-4-1.8c-1.1-0.5-2.2-1-3.2-1.6
		c-1.3-0.6-2.6-1.3-3.9-1.9c-1.1-0.5-2.2-1.1-3.2-1.6c-1.3-0.7-2.6-1.3-3.9-2c-1.1-0.6-2.1-1.1-3.2-1.7c-1.3-0.7-2.6-1.4-3.8-2
		c-1.1-0.6-2.2-1.2-3.2-1.8c-1.3-0.7-2.5-1.4-3.8-2.1c-1.1-0.6-2.2-1.2-3.2-1.9c-1.2-0.7-2.5-1.4-3.7-2.2c-1.1-0.6-2.2-1.3-3.2-1.9
		c-1.2-0.7-2.4-1.5-3.6-2.2c-1.1-0.7-2.2-1.4-3.3-2c-1.2-0.7-2.3-1.5-3.5-2.2c-1.1-0.7-2.2-1.4-3.3-2.2c-0.8-0.5-1.5-1-2.3-1.5
		V215.4h165.3c-21.3,16.2-40.7,35.1-57.2,56.1c-3.7,4.8-7.7,10.1-12,16.4c-4.8,7-8.5,12.9-11.7,18.4c-18.1,30.7-30.7,64.1-37.4,99.1
		c-1.5,8.1-2.4,14.3-3.1,20.1c-1.2,9.9-2,18.8-2.2,27.4c-0.1,3.7-0.2,7.5-0.2,11.3c0,23.2,2.6,46.4,7.6,68.9
		c1.5,6.5,3.2,12.9,5.2,19.7c5.3,17.5,12,34.5,20,50.7c23.1,46.2,57.7,86.3,100,116c43.2,30.3,93.7,49.3,146,54.8
		c6.8,0.7,13.4,1.2,20.2,1.5l2.2,0.1l0.1-0.1c3.5,0.1,7.1,0.2,10.7,0.2c3,0,6.1,0,9.2-0.1c30-0.9,59.4-6,87.6-15.2
		c5.2-1.7,9.8-3.3,14.2-5l0.1,0.3l4.9-1.9c8.4-3.3,16.7-7.1,25.4-11.5c34-17.3,64.2-40.4,89.7-68.6c0.9-1,1.8-2,2.7-3.1
		c0.9-1,1.7-2,2.7-3c2.6-3.1,5.2-6.2,7.7-9.3l0.6-0.8l0.2-0.6c11.9-15.1,22.3-31.1,30.8-47.4c23.6-44.5,36.1-94.9,36.1-145.7
		c0-43.5-9-86.1-26.6-126.6c-2.7-6.2-5.7-12.3-8.8-18.3l-1.6-3l-0.2,0c-2.7-5-5.9-10.4-9.7-15.4c-16.7-26.9-37.3-51.2-61.4-72.1
		c-3.5-3.1-7.3-6.2-11.2-9.3l0.5-0.5l-4.6-3.5c0,0,0,0,0,0h16.7c18.9,20.2,35.8,42.3,50.4,65.6c4.1,6.5,7.8,12.7,11.3,19.1
		c6.1,10.9,11.9,22.3,17.1,33.9c0.4,1,0.8,1.9,1.3,2.9c0.4,0.9,0.8,1.8,1.2,2.6c0.4,0.9,0.8,1.8,1.1,2.7c0.4,0.8,0.7,1.6,1.1,2.5
		c2.8,6.6,5.6,13.8,8.7,22.5c4.8,13.8,9,27.8,12.4,41.5c4.3,17.8,7.5,36.1,9.5,54.4c0,0.4,0.1,0.8,0.1,1.2c0.3,2.8,0.6,5.7,0.8,8.5
		c0,0.1,0,0.2,0,0.4c0.2,2.6,0.4,5.3,0.6,7.9c0.1,1.1,0.1,2.1,0.2,3.2c0.1,1.2,0.1,2.4,0.2,3.5c0.1,1.1,0.1,2.2,0.2,3.4
		c0.1,1.3,0.1,2.6,0.2,4c0,1,0.1,2,0.1,3c0,1.6,0.1,3.1,0.1,4.7c0,0.8,0,1.6,0.1,2.3c0,2.4,0.1,4.7,0.1,7
		C947,568.4,936.4,623.3,915.5,675.1z"/>
</g>
<path class="st4" d="M512,972c-62.1,0-122.3-12.2-179.1-36.2c-54.8-23.2-104-56.3-146.2-98.6C144.5,795,111.3,745.8,88.1,691
	C64.2,634.3,52,574.1,52,512c0-43.6,6.1-86.8,18.2-128.4C73.3,373,84.4,366.9,95,370s16.7,14.2,13.6,24.8
	C97.6,432.7,92,472.1,92,512c0,56.7,11.1,111.7,33,163.5c21.2,50,51.4,94.9,90,133.5s83.5,68.9,133.5,90
	c51.8,21.9,106.8,33,163.5,33s111.7-11.1,163.5-33c50-21.2,94.9-51.4,133.5-90s68.9-83.5,90-133.5c21.9-51.8,33-106.8,33-163.5
	s-11.1-111.7-33-163.5c-21.2-50-51.4-94.9-90-133.5s-83.5-68.9-133.5-90C623.7,103.1,568.7,92,512,92c-14.8,0-29.8,0.8-44.5,2.3
	c-11,1.2-20.8-6.8-22-17.8s6.8-20.8,17.8-22c16-1.7,32.4-2.5,48.6-2.5C574,52,634.2,64.2,691,88.2c54.8,23.2,104,56.3,146.2,98.6
	c42.2,42.2,75.4,91.4,98.6,146.2c24,56.7,36.2,117,36.2,179.1s-12.2,122.3-36.2,179.1c-23.2,54.8-56.3,104-98.6,146.2
	C795,879.6,745.8,912.8,691,936C634.3,959.8,574.1,972,512,972z"/>
</svg>
