<?xml version="1.0" encoding="utf-8"?>
<!-- Generator: Adobe Illustrator 24.0.0, SVG Export Plug-In . SVG Version: 6.00 Build 0)  -->
<svg version="1.1" id="Capa_1" xmlns="http://www.w3.org/2000/svg" xmlns:xlink="http://www.w3.org/1999/xlink" x="0px" y="0px"
	 viewBox="0 0 1024 1024" style="enable-background:new 0 0 1024 1024;" xml:space="preserve">
<style type="text/css">
	.st0{fill:#F473C3;}
	.st1{fill:#443F80;}
	.st2{fill:#2A286B;}
	.st3{fill:#534A9A;}
	.st4{fill:#F9F7FC;}
	.st5{fill:#DCDAEB;}
	.st6{fill:#F9B630;}
	.st7{fill:#DFD7D5;}
	.st8{fill:#9DD4A9;}
	.st9{fill:#84BFA7;}
	.st10{fill:#C640A6;}
	.st11{fill:#FFD071;}
	.st12{fill:#FFFFFF;}
</style>
<g>
	<path class="st0" d="M952,512c0,135.6-61.3,256.8-157.7,337.5c-16.3,13.6-33.5,26.1-51.7,37.3C675.5,928.2,596.5,952,512,952
		s-163.5-23.8-230.6-65.2c-19.9-12.2-38.7-26-56.3-41.2C131.4,764.9,72,645.4,72,512C72,269,269,72,512,72
		c160.5,0,301,86,377.8,214.3c18.1,30.3,32.7,62.9,43.2,97.3C945.3,424.3,952,467.3,952,512z"/>
	<g>
		<path class="st1" d="M926.8,535.9V381.6h-43.7v154.3H926.8z"/>
		<path class="st2" d="M772.4,535.9l0.4,131h88.4c36.1,0,65.5-29.4,65.5-65.5v-65.5H772.4z"/>
		<g>
			<path class="st3" d="M794.3,239.6v208.9H225.1V239.6l8.7-6.6c5.2-3.9,126-91.4,275.9-91.7h0.7c150.2,0,269.9,87.8,275.1,91.7
				L794.3,239.6z"/>
			<path class="st3" d="M794.3,710.6v138.9c-16.3,13.6-33.5,26.1-51.7,37.3H281.4c-19.9-12.2-38.7-26-56.3-41.2v-135H794.3z"/>
		</g>
		<path class="st4" d="M225.1,448.5h569.2v262H225.1V448.5z"/>
		<path class="st5" d="M510.4,448.5h283.9v262H510.4V448.5z"/>
		<path class="st6" d="M904.9,391.6c-29.6,0-53.7-24.1-53.7-53.7s24.1-53.7,53.7-53.7s53.7,24.1,53.7,53.7S934.5,391.6,904.9,391.6z
			"/>
		<path class="st7" d="M510.4,228.7h109.2v131H510.4V228.7z"/>
		<path class="st8" d="M270.2,492.2h131v174.7h-131V492.2z"/>
		<path class="st8" d="M444.9,492.2h131v174.7h-131L444.9,492.2L444.9,492.2z"/>
		<path class="st9" d="M619.6,492.2h131v174.7h-131V492.2z"/>
		<path class="st9" d="M510.4,492.2h65.5v174.7h-65.5L510.4,492.2L510.4,492.2z"/>
		<path class="st10" d="M663.3,535.9H707v87.3h-43.7V535.9z"/>
		<path class="st0" d="M488.6,535.9h43.7v87.3h-43.7L488.6,535.9L488.6,535.9z"/>
		<path class="st0" d="M313.9,535.9h43.7v87.3h-43.7V535.9z"/>
		<path class="st10" d="M510.4,535.9h21.8v87.3h-21.8L510.4,535.9L510.4,535.9z"/>
		<path class="st1" d="M794.3,239.6v208.9H509.7V141.4h0.7c150.2,0,269.9,87.8,275.1,91.7L794.3,239.6z"/>
		<path class="st1" d="M794.3,710.6v138.9c-16.3,13.6-33.5,26.1-51.7,37.3H509.7V710.6H794.3z"/>
		<rect x="401.2" y="228.7" class="st0" width="218.4" height="131"/>
		<path class="st11" d="M401.2,750h218.4v107.3H401.2V750z"/>
		<path class="st6" d="M510.4,750h109.2v107.3H510.4V750z"/>
		<rect x="509.7" y="228.7" class="st10" width="109.9" height="131"/>
	</g>
</g>
<g>
	<g>
		<path class="st12" d="M963.6,337.9c0-32.4-26.3-58.7-58.7-58.7s-58.7,26.3-58.7,58.7c0,22.7,13,42.4,31.9,52.2v140.8h-78.8v-82.4
			V239.6c0-1.6-0.7-3.1-2-4l-8.8-6.6c-5-3.8-125.4-92.7-278.1-92.7h-0.7C355.8,136.6,232,228.1,230.8,229l-8.7,6.6
			c-1.2,0.9-2,2.4-2,4v208.9v262c0,0,0,0,0,0c0,0,0,0,0,0v135c0,1.5,0.6,2.8,1.7,3.8c17.9,15.5,37.1,29.5,57,41.7
			c0.8,0.5,1.7,0.7,2.6,0.7h461.2c0.9,0,1.8-0.3,2.6-0.7c17.9-11,35.5-23.7,52.3-37.7c1.1-0.9,1.8-2.4,1.8-3.8V710.6c0,0,0,0,0,0
			c0,0,0,0,0,0v-38.6h61.9c38.9,0,70.5-31.6,70.5-70.5v-64.5c0.1-0.3,0.1-0.6,0.1-1V390C950.7,380.3,963.6,360.6,963.6,337.9z
			 M789.3,705.5H230.1v-252h559.2V705.5z M230.1,242.1l6.7-5.1c1.2-0.9,122.3-90.4,272.9-90.7h0.7c61,0,126.6,15.2,189.9,43.9
			c49.9,22.7,81,45.8,82.2,46.8l6.8,5.1v201.4H230.1V242.1z M789.3,847.2c-15.5,12.8-31.7,24.5-48.1,34.6H282.8
			c-18.4-11.3-36.1-24.3-52.7-38.5V715.6h559.2V847.2z M921.7,601.4c0,33.4-27.1,60.5-60.5,60.5h-61.9v-121h83.8h38.6V601.4z
			 M921.8,530.9h-33.7V394.1c5.3,1.6,11,2.5,16.8,2.5c5.9,0,11.5-0.9,16.9-2.5V530.9z M904.9,386.6c-26.9,0-48.7-21.8-48.7-48.7
			c0-26.9,21.8-48.7,48.7-48.7c26.9,0,48.7,21.8,48.7,48.7C953.6,364.8,931.8,386.6,904.9,386.6z"/>
		<path class="st12" d="M270.2,671.9h131c2.8,0,5-2.2,5-5V492.2c0-2.8-2.2-5-5-5h-131c-2.8,0-5,2.2-5,5v174.7
			C265.2,669.7,267.4,671.9,270.2,671.9z M275.2,497.2h121v164.7h-121V497.2z"/>
		<path class="st12" d="M444.9,671.9h131c2.8,0,5-2.2,5-5V492.2c0-2.8-2.2-5-5-5h-131c-2.8,0-5,2.2-5,5v174.7
			C439.9,669.7,442.1,671.9,444.9,671.9z M449.9,497.2h121v164.7h-121V497.2z"/>
		<path class="st12" d="M619.6,671.9h131c2.8,0,5-2.2,5-5V492.2c0-2.8-2.2-5-5-5h-131c-2.8,0-5,2.2-5,5v174.7
			C614.6,669.7,616.8,671.9,619.6,671.9z M624.6,497.2h121v164.7h-121V497.2z"/>
		<path class="st12" d="M707,530.9h-43.7c-2.8,0-5,2.2-5,5v87.3c0,2.8,2.2,5,5,5H707c2.8,0,5-2.2,5-5v-87.3
			C712,533.1,709.8,530.9,707,530.9z M702,618.2h-33.7v-77.3H702V618.2z"/>
		<path class="st12" d="M532.3,530.9h-43.7c-2.8,0-5,2.2-5,5v87.3c0,2.8,2.2,5,5,5h43.7c2.8,0,5-2.2,5-5v-87.3
			C537.3,533.1,535.1,530.9,532.3,530.9z M527.3,618.2h-33.7v-77.3h33.7V618.2z"/>
		<path class="st12" d="M357.6,530.9h-43.7c-2.8,0-5,2.2-5,5v87.3c0,2.8,2.2,5,5,5h43.7c2.8,0,5-2.2,5-5v-87.3
			C362.6,533.1,360.4,530.9,357.6,530.9z M352.6,618.2h-33.7v-77.3h33.7V618.2z"/>
		<path class="st12" d="M401.2,862.3h218.4c2.8,0,5-2.2,5-5V750c0-2.8-2.2-5-5-5H401.2c-2.8,0-5,2.2-5,5v107.3
			C396.2,860.1,398.4,862.3,401.2,862.3z M406.2,755h208.4v97.3H406.2V755z"/>
		<path class="st12" d="M619.6,223.7H401.2c-2.8,0-5,2.2-5,5v131c0,2.8,2.2,5,5,5h218.4c2.8,0,5-2.2,5-5v-131
			C624.6,225.9,622.4,223.7,619.6,223.7z M614.6,354.7H406.2v-121h208.4V354.7z"/>
	</g>
	<path class="st11" d="M512,972c-85.4,0-168.8-23.6-241.1-68.2c-20.5-12.6-40.4-27.1-58.9-43.1C110.3,773.2,52,646,52,512
		c0-76.6,19.2-152.4,55.5-219.3c5.3-9.7,17.4-13.3,27.1-8c9.7,5.3,13.3,17.4,8,27.1C109.5,372.9,92,442.1,92,512
		c0,122.4,53.3,238.5,146.2,318.4c16.9,14.6,35,27.8,53.7,39.3C357.9,910.5,434,932,512,932s154.1-21.5,220.1-62.2
		c16.9-10.4,33.5-22.4,49.4-35.6c21.9-18.4,42.1-39,59.9-61.5c6.9-8.7,19.4-10.1,28.1-3.2c8.7,6.9,10.1,19.4,3.2,28.1
		c-19.5,24.6-41.5,47.2-65.6,67.3c-17.4,14.5-35.6,27.6-54.1,39C680.8,948.4,597.4,972,512,972z"/>
</g>
</svg>
