<?xml version="1.0" encoding="utf-8"?>
<!-- Generator: Adobe Illustrator 24.0.0, SVG Export Plug-In . SVG Version: 6.00 Build 0)  -->
<svg version="1.1" id="Capa_1" xmlns="http://www.w3.org/2000/svg" xmlns:xlink="http://www.w3.org/1999/xlink" x="0px" y="0px"
	 viewBox="0 0 1024 1024" style="enable-background:new 0 0 1024 1024;" xml:space="preserve">
<style type="text/css">
	.st0{fill:#534A9A;}
	.st1{fill:#F473C3;}
	.st2{fill:#C640A6;}
	.st3{fill:#F9B630;}
	.st4{fill:#F9A40D;}
	.st5{fill:#F9F7FC;}
	.st6{fill:#DCDAEB;}
	.st7{fill:#9DD4A9;}
	.st8{fill:#FFFFFF;}
</style>
<g>
	<circle class="st0" cx="512" cy="512" r="440"/>
	<g>
		<g>
			<path class="st1" d="M811.2,162.3v672.4c-0.1,0.1-0.2,0.2-0.3,0.3c-39,36.1-84.6,65.3-134.8,85.4C625.3,940.8,570,952,512,952
				c-68.3,0-132.9-15.5-190.6-43.3c-11.5-5.5-22.7-11.5-33.6-18c-6.5-3.8-12.9-7.9-19.2-12.1l-0.1-0.1c-19.7-13.2-38.4-27.9-55.7-44
				V162.3c0-7.3,1.7-14.1,4.6-20.3c0.3-0.7,0.7-1.4,1-2c0.7-1.3,1.5-2.6,2.3-3.8c8.4-12.4,22.6-20.6,38.7-20.6h505
				c16.1,0,30.3,8.2,38.7,20.6c0.8,1.2,1.6,2.5,2.3,3.8c0.3,0.7,0.7,1.3,1,2C809.5,148.1,811.2,155,811.2,162.3z"/>
			<path class="st2" d="M811.2,162.3v672.4c-0.1,0.1-0.2,0.2-0.3,0.3c-39,36.1-84.6,65.3-134.8,85.4C625.3,940.8,570,952,512,952
				V115.5h252.5c16.1,0,30.3,8.2,38.7,20.6c0.8,1.2,1.6,2.5,2.3,3.8c0.3,0.7,0.7,1.3,1,2C809.5,148.1,811.2,155,811.2,162.3z"/>
			<path class="st3" d="M748.2,217.9v299.2c0,21.8-17.6,39.4-39.4,39.4H315.2c-21.7,0-39.4-17.6-39.4-39.4V217.9
				c0-21.8,17.6-39.4,39.4-39.4h393.7C730.6,178.5,748.2,196.1,748.2,217.9z"/>
			<path class="st4" d="M748.2,217.9v299.2c0,21.8-17.6,39.4-39.4,39.4H512v-378h196.8C730.6,178.5,748.2,196.1,748.2,217.9z"/>
			<rect x="338.8" y="241.5" class="st5" width="346.5" height="252"/>
			<path class="st5" d="M461.6,682.5h-44.1v-44.1c0-10.5-8.5-18.9-18.9-18.9h-25.1c-10.5,0-18.9,8.5-18.9,18.9v44.1h-44.1
				c-10.5,0-18.9,8.5-18.9,18.9v25.1c0,10.5,8.5,18.9,18.9,18.9h44.1v44.1c0,10.5,8.5,18.9,18.9,18.9h25.1
				c10.5,0,18.9-8.5,18.9-18.9v-44.1h44.1c10.5,0,18.9-8.5,18.9-18.9v-25.1C480.5,691,472,682.5,461.6,682.5z"/>
			<circle class="st3" cx="685.2" cy="713.9" r="47.2"/>
			<circle class="st3" cx="575" cy="824.2" r="47.2"/>
			<rect x="512" y="241.5" class="st6" width="173.2" height="252"/>
		</g>
		<path class="st0" d="M369,488.2h-16.1c-5.2,0-9.4-4.2-9.4-9.4v-16.1c0-5.2,4.2-9.4,9.4-9.4H369c5.2,0,9.4,4.2,9.4,9.4v16.1
			C378.4,484,374.2,488.2,369,488.2z"/>
		<path class="st0" d="M404,488.2h-16.1c-5.2,0-9.4-4.2-9.4-9.4v-16.1c0-5.2,4.2-9.4,9.4-9.4H404c5.2,0,9.4,4.2,9.4,9.4v16.1
			C413.4,484,409.2,488.2,404,488.2z"/>
		<path class="st0" d="M439,488.2h-16.1c-5.2,0-9.4-4.2-9.4-9.4v-16.1c0-5.2,4.2-9.4,9.4-9.4H439c5.2,0,9.4,4.2,9.4,9.4v16.1
			C448.4,484,444.2,488.2,439,488.2z"/>
		<path class="st0" d="M473.9,488.2h-16.1c-5.2,0-9.4-4.2-9.4-9.4v-16.1c0-5.2,4.2-9.4,9.4-9.4h16.1c5.2,0,9.4,4.2,9.4,9.4v16.1
			C483.3,484,479.1,488.2,473.9,488.2z"/>
		<path class="st2" d="M543.8,488.2h-16.1c-5.2,0-9.4-4.2-9.4-9.4v-16.1c0-5.2,4.2-9.4,9.4-9.4h16.1c5.2,0,9.4,4.2,9.4,9.4v16.1
			C553.3,484,549,488.2,543.8,488.2z"/>
		<path class="st2" d="M578.8,488.2h-16.1c-5.2,0-9.4-4.2-9.4-9.4v-16.1c0-5.2,4.2-9.4,9.4-9.4h16.1c5.2,0,9.4,4.2,9.4,9.4v16.1
			C588.2,484,584,488.2,578.8,488.2z"/>
		<path class="st2" d="M578.8,453.3h-16.1c-5.2,0-9.4-4.2-9.4-9.4v-16.1c0-5.2,4.2-9.4,9.4-9.4h16.1c5.2,0,9.4,4.2,9.4,9.4v16.1
			C588.2,449.1,584,453.3,578.8,453.3z"/>
		<path class="st7" d="M518.3,344v16.1c0,5.2-4.2,9.4-9.4,9.4h-16.1c-5.2,0-9.4-4.2-9.4-9.4V344c0-5.2,4.2-9.4,9.4-9.4h16.1
			C514.1,334.5,518.3,338.7,518.3,344z"/>
		<path class="st7" d="M518.3,309v16.1c0,5.2-4.2,9.4-9.4,9.4h-16.1c-5.2,0-9.4-4.2-9.4-9.4V309c0-5.2,4.2-9.4,9.4-9.4h16.1
			C514.1,299.6,518.3,303.8,518.3,309z"/>
		<path class="st7" d="M483.3,309v16.1c0,5.2-4.2,9.4-9.4,9.4h-16.1c-5.2,0-9.4-4.2-9.4-9.4V309c0-5.2,4.2-9.4,9.4-9.4h16.1
			C479.1,299.6,483.3,303.8,483.3,309z"/>
		<path class="st7" d="M448.4,309v16.1c0,5.2-4.2,9.4-9.4,9.4h-16.1c-5.2,0-9.4-4.2-9.4-9.4V309c0-5.2,4.2-9.4,9.4-9.4H439
			C444.2,299.6,448.4,303.8,448.4,309z"/>
	</g>
</g>
<g>
	<g>
		<g>
			<path class="st8" d="M512,957c-67.6,0-132.5-14.7-192.8-43.8c-11.6-5.5-23-11.7-34-18.2c-5.9-3.4-12-7.3-19.4-12.2l-0.5-0.4
				c-20-13.4-38.8-28.3-55.9-44.2l-1.6-1.5V162.3c0-7.7,1.7-15.2,5-22.4c0.3-0.6,0.6-1.2,0.8-1.7c0.1-0.2,0.2-0.4,0.3-0.5l0.1-0.1
				c0.7-1.3,1.6-2.8,2.5-4.2c9.7-14.3,25.7-22.8,42.9-22.8h505c17.2,0,33.2,8.5,42.8,22.8c1,1.5,1.8,2.9,2.6,4.2l0.2,0.4
				c0.1,0.2,0.2,0.4,0.3,0.6c0.2,0.3,0.4,0.7,0.6,1.2c3.5,6.9,5.3,14.5,5.3,22.4v674.5l-1.9,1.9c-40.2,37.2-86,66.2-136.3,86.4
				C625.2,946.2,569.3,957,512,957z M271.8,874.7c7,4.7,12.9,8.4,18.5,11.7c10.8,6.4,21.9,12.4,33.2,17.8
				c59,28.4,122.4,42.8,188.4,42.8c56,0,110.6-10.5,162.2-31.2c48.6-19.5,93-47.5,132-83.2V162.3c0-6.4-1.4-12.5-4.3-18l-0.1-0.3
				c-0.1-0.2-0.2-0.4-0.3-0.6c-0.2-0.3-0.4-0.7-0.6-1.2c-0.6-1-1.2-2.1-2-3.2c-7.8-11.5-20.7-18.4-34.5-18.4h-505
				c-13.8,0-26.8,6.9-34.6,18.4c-0.8,1.1-1.4,2.3-2,3.3c-0.1,0.2-0.2,0.4-0.3,0.6c-0.2,0.3-0.4,0.7-0.5,1l-0.1,0.1
				c-2.7,5.9-4.1,12-4.1,18.2v670c16.4,15.1,34.4,29.2,53.5,42L271.8,874.7z"/>
			<path class="st8" d="M708.8,561.5H315.2c-24.5,0-44.4-19.9-44.4-44.4V217.9c0-24.5,19.9-44.4,44.4-44.4h393.7
				c24.4,0,44.3,19.9,44.3,44.4v299.2C753.2,541.6,733.3,561.5,708.8,561.5z M315.2,183.5c-19,0-34.4,15.4-34.4,34.4v299.2
				c0,19,15.4,34.4,34.4,34.4h393.6c19,0,34.4-15.4,34.4-34.4V217.9c0-19-15.4-34.4-34.3-34.4H315.2z"/>
			<path class="st8" d="M690.3,498.5H333.8v-262h356.5V498.5z M343.8,488.5h336.5v-242H343.8V488.5z"/>
			<path class="st8" d="M398.6,813.4h-25.1c-13.2,0-23.9-10.7-23.9-23.9v-39.1h-39.1c-13.2,0-23.9-10.7-23.9-23.9v-25.1
				c0-13.2,10.7-23.9,23.9-23.9h39.1v-39.1c0-13.2,10.7-23.9,23.9-23.9h25.1c13.2,0,23.9,10.7,23.9,23.9v39.1h39.1
				c13.2,0,23.9,10.7,23.9,23.9v25.1c0,13.2-10.7,23.9-23.9,23.9h-39.1v39.1C422.5,802.7,411.8,813.4,398.6,813.4z M310.5,687.5
				c-7.7,0-13.9,6.2-13.9,13.9v25.1c0,7.7,6.2,13.9,13.9,13.9h49.1v49.1c0,7.7,6.2,13.9,13.9,13.9h25.1c7.7,0,13.9-6.2,13.9-13.9
				v-49.1h49.1c7.7,0,13.9-6.2,13.9-13.9v-25.1c0-7.7-6.2-13.9-13.9-13.9h-49.1v-49.1c0-7.7-6.2-13.9-13.9-13.9h-25.1
				c-7.7,0-13.9,6.2-13.9,13.9v49.1H310.5z"/>
			<path class="st8" d="M685.2,766.1c-28.8,0-52.2-23.4-52.2-52.2s23.4-52.2,52.2-52.2s52.2,23.4,52.2,52.2S714,766.1,685.2,766.1z
				 M685.2,671.7c-23.3,0-42.2,18.9-42.2,42.2c0,23.3,18.9,42.2,42.2,42.2s42.2-18.9,42.2-42.2C727.4,690.6,708.5,671.7,685.2,671.7
				z"/>
			<path class="st8" d="M575,876.4c-28.8,0-52.2-23.4-52.2-52.2S546.2,772,575,772s52.2,23.4,52.2,52.2S603.8,876.4,575,876.4z
				 M575,782c-23.3,0-42.2,18.9-42.2,42.2s18.9,42.2,42.2,42.2s42.2-18.9,42.2-42.2S598.3,782,575,782z"/>
		</g>
	</g>
	<path class="st3" d="M512,972c-4.4,0-8.9-0.1-13.3-0.2c-1.4,0-2.7-0.1-4-0.1c-3.8-0.1-7.9-0.3-12.5-0.6c-1.8-0.1-3.4-0.2-5.1-0.4
		c-0.5,0-1.1-0.1-1.6-0.1c-1.5-0.1-3.1-0.3-4.6-0.4c0,0-0.1,0-0.1,0c-1.9-0.2-3.9-0.4-5.8-0.5c-1.9-0.2-3.8-0.4-5.8-0.6
		c-3-0.3-6.3-0.7-10.2-1.3c-68.2-9.4-132-33.3-189.5-71.2c-0.6-0.4-1.3-0.8-1.9-1.3c-0.1-0.1-0.2-0.2-0.4-0.2
		C128.7,809.4,52,666.2,52,512c0-72.8,16.5-142.5,49.2-207.1c5-9.9,17-13.8,26.9-8.8c9.9,5,13.8,17,8.8,26.9
		C107.1,381.9,92,445.5,92,512c0,140.9,70.2,271.8,187.7,349.9c0.1,0.1,0.3,0.2,0.4,0.3c0.4,0.3,0.8,0.6,1.2,0.8c0,0,0.1,0,0.1,0.1
		c52.5,34.6,110.8,56.5,173,65c3.6,0.5,6.6,0.9,9.3,1.2c1.8,0.2,3.6,0.4,5.3,0.6c1.7,0.2,3.5,0.3,5.3,0.5c1.5,0.1,2.9,0.2,4.4,0.4
		c0.1,0,0.2,0,0.2,0c0.3,0,0.6,0,0.9,0.1c0,0,0.1,0,0.1,0c1.6,0.1,3.2,0.2,4.8,0.3c4.1,0.3,7.9,0.4,11.4,0.6c1.3,0,2.5,0.1,3.8,0.1
		c4,0.1,8.1,0.2,12.1,0.2c6.6,0,13.2-0.2,19.7-0.5c0.1,0,0.1,0,0.2,0c0.9,0,1.7-0.1,2.6-0.1c0.2,0,0.3,0,0.5,0c0.3,0,0.6,0,0.9-0.1
		c0.2,0,0.3,0,0.5,0c0.7,0,1.4-0.1,2.1-0.1c1.7-0.1,3.3-0.2,4.9-0.3c1.1-0.1,2.2-0.2,3.2-0.3c0.1,0,0.3,0,0.4,0
		c0.6,0,1.1-0.1,1.7-0.1c0.1,0,0.1,0,0.2,0c1-0.1,1.9-0.2,2.9-0.3c0.1,0,0.2,0,0.2,0l0.7-0.1c0.3,0,0.7-0.1,1-0.1c0.2,0,0.3,0,0.5,0
		c0.6-0.1,1.3-0.1,1.9-0.2c0.1,0,0.2,0,0.3,0c1.2-0.1,2.4-0.3,3.6-0.4c0.1,0,0.2,0,0.3,0c0.1,0,0.2,0,0.3,0
		c3.7-0.4,7.3-0.9,10.7-1.4c1.3-0.2,2.6-0.4,3.8-0.6c0.1,0,0.1,0,0.2,0c2-0.3,3.9-0.6,5.9-0.9c0,0,0.1,0,0.1,0
		c0.6-0.1,1.3-0.2,1.9-0.3c4.5-0.8,9-1.6,13.4-2.5l2.3-0.5c0,0,0.1,0,0.1,0c1.2-0.2,2.4-0.5,3.6-0.8c0.1,0,0.1,0,0.2,0
		c1.3-0.3,2.6-0.6,3.9-0.9c0.2,0,0.3-0.1,0.5-0.1c1.6-0.4,3.2-0.8,4.8-1.1c0.1,0,0.2,0,0.3-0.1c0.2,0,0.4-0.1,0.7-0.2
		c0,0,0.1,0,0.1,0c0.9-0.2,1.9-0.5,2.8-0.7l0.2-0.1c0.1,0,0.2,0,0.3-0.1c0.3-0.1,0.6-0.1,0.8-0.2c3.5-0.9,6.6-1.7,9.6-2.6
		c1.3-0.4,2.6-0.7,3.9-1.1c0,0,0.1,0,0.1,0c1-0.3,1.9-0.6,2.9-0.9l0.5-0.1c0,0,0.1,0,0.1,0l-0.1,0c0.1,0,0.3-0.1,0.4-0.1l3.4-1
		c0.2-0.1,0.3-0.1,0.5-0.2c1.1-0.3,2.1-0.7,3.2-1l0.3-0.1c0,0,0.1,0,0.1,0c0.7-0.2,1.4-0.5,2.1-0.7c0.1,0,0.2-0.1,0.3-0.1
		c0.8-0.2,1.5-0.5,2.2-0.8c0.1,0,0.2-0.1,0.3-0.1c0.7-0.2,1.4-0.5,2.2-0.7c0.1,0,0.1,0,0.2-0.1c0.8-0.3,1.6-0.5,2.4-0.8
		c0.1,0,0.1,0,0.2-0.1c0.7-0.2,1.4-0.5,2.1-0.7c0.1,0,0.1-0.1,0.2-0.1c0.6-0.2,1.3-0.5,1.9-0.7l0.5-0.2
		c52.5-19.2,100-48.3,141.2-86.6c42-38.9,75-85.1,98.2-137.1C919.8,629,932,571.5,932,512c0-65.4-14.6-128-43.4-186.1
		c-4.9-9.9-0.8-21.9,9.1-26.8c9.9-4.9,21.9-0.8,26.8,9.1C956,371.9,972,440.4,972,512c0,65.1-13.3,128.1-39.7,187.1
		c-25.4,57-61.6,107.5-107.5,150.2c-45.1,41.9-97.1,73.8-154.6,94.8l-0.5,0.2c-0.7,0.3-1.4,0.5-2.1,0.8c-0.9,0.3-1.9,0.7-2.8,1
		c-0.8,0.3-1.7,0.6-2.5,0.9c-0.9,0.3-1.8,0.6-2.8,0.9c-0.9,0.3-1.7,0.6-2.6,0.9c-0.9,0.3-1.9,0.6-2.8,0.9l-0.2,0.1c-1,0.3-2,0.6-3,1
		c-0.4,0.1-0.8,0.3-1.1,0.4l-3.2,1c-0.3,0.1-0.6,0.2-0.9,0.3l-0.4,0.1c-1.1,0.3-2.1,0.6-3.2,0.9c-1.4,0.4-2.9,0.8-4.3,1.3
		c-3.3,0.9-6.7,1.9-10.4,2.8c-0.5,0.1-1,0.2-1.5,0.4l-0.1,0c-1,0.3-2.1,0.5-3.1,0.8c-0.4,0.1-0.8,0.2-1.2,0.3
		c-1.7,0.4-3.3,0.8-5,1.2c-0.3,0.1-0.7,0.2-1,0.2c-1.3,0.3-2.7,0.6-4,0.9c-1.4,0.3-2.9,0.6-4.3,0.9l-2.3,0.5
		c-4.9,1-9.8,1.9-14.7,2.8c-0.7,0.1-1.5,0.3-2.3,0.4c-2.2,0.4-4.4,0.7-6.5,1c-1.4,0.2-2.8,0.4-4.3,0.6c-3.6,0.5-7.5,1-11.4,1.5
		c-0.2,0-0.4,0.1-0.6,0.1c-0.3,0-0.6,0.1-0.8,0.1c-1.2,0.1-2.4,0.3-3.6,0.4c-0.8,0.1-1.7,0.2-2.5,0.3c-0.5,0.1-1,0.1-1.5,0.2l-0.5,0
		c-0.2,0-0.4,0-0.7,0.1c-1,0.1-1.9,0.2-2.9,0.3c-0.8,0.1-1.7,0.2-2.5,0.2c-1.2,0.1-2.3,0.2-3.5,0.3c0,0-0.1,0-0.1,0
		c-1.8,0.1-3.6,0.3-5.3,0.4c-0.7,0-1.5,0.1-2.4,0.1c-0.6,0-1.3,0.1-1.9,0.1c-1,0.1-2.1,0.1-3.1,0.2C526.4,971.8,519.2,972,512,972z
		 M549.1,930.6C549,930.6,549,930.6,549.1,930.6C549,930.6,549,930.6,549.1,930.6z M549.1,930.6
		C549.1,930.6,549.1,930.6,549.1,930.6C549.1,930.6,549.1,930.6,549.1,930.6z M549.1,930.6C549.1,930.6,549.1,930.6,549.1,930.6
		C549.1,930.6,549.1,930.6,549.1,930.6z M549.3,930.5c0,0-0.1,0-0.1,0C549.2,930.6,549.2,930.6,549.3,930.5z M549.3,930.5
		C549.3,930.5,549.3,930.5,549.3,930.5C549.3,930.5,549.3,930.5,549.3,930.5z M549.3,930.5C549.3,930.5,549.3,930.5,549.3,930.5
		C549.3,930.5,549.3,930.5,549.3,930.5z M553.6,930C553.6,930,553.6,930,553.6,930C553.6,930,553.6,930,553.6,930z M558.5,929.5
		C558.5,929.5,558.5,929.5,558.5,929.5C558.5,929.5,558.5,929.5,558.5,929.5z M558.7,929.5c0,0-0.1,0-0.1,0
		C558.6,929.5,558.6,929.5,558.7,929.5z M558.7,929.5C558.7,929.5,558.7,929.5,558.7,929.5C558.7,929.5,558.7,929.5,558.7,929.5z
		 M558.9,929.5C558.9,929.5,558.9,929.5,558.9,929.5C558.9,929.5,558.9,929.5,558.9,929.5z M558.7,929.5
		C558.7,929.5,558.7,929.5,558.7,929.5C558.7,929.5,558.7,929.5,558.7,929.5z M558.9,929.5C558.9,929.5,558.9,929.5,558.9,929.5
		C558.9,929.5,558.9,929.5,558.9,929.5z M558.8,929.5C558.8,929.5,558.8,929.5,558.8,929.5C558.8,929.5,558.8,929.5,558.8,929.5z
		 M562.1,929.2C562.1,929.2,562.1,929.2,562.1,929.2C562.1,929.2,562.1,929.2,562.1,929.2z M562.2,929.2
		C562.2,929.2,562.2,929.2,562.2,929.2C562.2,929.2,562.2,929.2,562.2,929.2z M600.6,923.9C600.6,923.9,600.5,923.9,600.6,923.9
		C600.5,923.9,600.6,923.9,600.6,923.9z M600.6,923.9C600.6,923.9,600.6,923.9,600.6,923.9C600.6,923.9,600.6,923.9,600.6,923.9z
		 M600.7,923.8C600.6,923.8,600.6,923.9,600.7,923.8C600.6,923.9,600.6,923.8,600.7,923.8z M605,921.8c-1.5,0.5-3,1.2-4.4,2.1
		C602,923,603.5,922.3,605,921.8z M611.1,920.8C611.1,920.8,611.1,920.8,611.1,920.8C611.1,920.8,611.1,920.8,611.1,920.8z
		 M611.2,920.8C611.2,920.8,611.2,920.8,611.2,920.8C611.2,920.8,611.2,920.8,611.2,920.8z M611.2,920.8
		C611.2,920.8,611.2,920.8,611.2,920.8C611.2,920.8,611.2,920.8,611.2,920.8z M636.7,913.2C636.7,913.3,636.7,913.3,636.7,913.2
		C636.7,913.3,636.7,913.3,636.7,913.2z"/>
</g>
</svg>
