<?xml version="1.0" encoding="utf-8"?>
<!-- Generator: Adobe Illustrator 24.0.0, SVG Export Plug-In . SVG Version: 6.00 Build 0)  -->
<svg version="1.1" id="Capa_1" xmlns="http://www.w3.org/2000/svg" xmlns:xlink="http://www.w3.org/1999/xlink" x="0px" y="0px"
	 viewBox="0 0 1024 1024" style="enable-background:new 0 0 1024 1024;" xml:space="preserve">
<style type="text/css">
	.st0{fill:#A5C6FF;}
	.st1{fill:#534A9A;}
	.st2{fill:#443F80;}
	.st3{fill:#767DD4;}
	.st4{fill:#F9F7FC;}
	.st5{fill:#BAE4FA;}
	.st6{fill:#9DD4A9;}
	.st7{fill:#FFD071;}
	.st8{fill:#F473C3;}
	.st9{fill:#C640A6;}
	.st10{fill:#F9B630;}
	.st11{fill:#84BFA7;}
	.st12{fill:#5E6ACA;}
	.st13{fill:#FFFFFF;}
</style>
<g>
	<path class="st0" d="M952,512c0,80.9-21.8,156.8-60,221.9c-17.9,30.6-39.4,58.8-63.9,84.1c-80,82.6-192.1,134-316.2,134
		s-236.2-51.4-316.2-134c-24.5-25.3-46-53.5-63.9-84.1c-38.1-65.2-60-141-60-221.9C72,269,269,72,512,72S952,269,952,512z"/>
	<g>
		<g>
			<path class="st1" d="M167.1,755.6V446.4c0-21.6,17.6-39.2,39.2-39.2h5.7c21.6,0,39.2,17.6,39.2,39.2v309.3
				c0,21.6-17.6,39.2-39.2,39.2h-5.7C184.7,794.8,167.1,777.2,167.1,755.6z"/>
			<path class="st2" d="M772.8,755.6V446.4c0-21.6,17.6-39.2,39.2-39.2h5.7c21.6,0,39.2,17.6,39.2,39.2v309.3
				c0,21.6-17.6,39.2-39.2,39.2H812C790.4,794.8,772.8,777.2,772.8,755.6z"/>
		</g>
		<path class="st3" d="M892,733.9c-17.9,30.6-39.4,58.8-63.9,84.1H195.8c-24.5-25.3-46-53.5-63.9-84.1H892z"/>
		<g>
			<path class="st4" d="M565.1,650.3c0,29.4-23.8,53.1-53.1,53.1c-0.6,0-1.2,0-1.8,0c-0.1,0-0.2,0-0.3,0c-0.7,0-1.4-0.1-2-0.1
				s-1.2-0.1-1.7-0.2h-0.1c-0.1,0-0.1,0-0.2,0c-1.3-0.1-2.5-0.3-3.8-0.6c-0.3-0.1-0.6-0.1-0.8-0.2c-1.1-0.2-2.2-0.5-3.3-0.8
				c-0.6-0.2-1.3-0.4-1.9-0.6c-21.5-6.8-37-26.9-37-50.7V231.6h106.3L565.1,650.3z"/>
			<path class="st4" d="M575.7,231.6H448.3c-6.6,0-11.9-5.3-11.9-11.9v-1.8c0-6.6,5.3-11.9,11.9-11.9h127.4
				c6.6,0,11.9,5.3,11.9,11.9v1.8C587.6,226.3,582.3,231.6,575.7,231.6z"/>
		</g>
		<g>
			<path class="st4" d="M733.4,650.3c0,29.4-23.8,53.1-53.1,53.1c-0.6,0-1.2,0-1.8,0c-0.1,0-0.2,0-0.3,0c-0.7,0-1.4-0.1-2-0.1
				c-0.5,0-1.1-0.1-1.6-0.2c-1.4-0.2-2.8-0.4-4.1-0.6c-0.3-0.1-0.5-0.1-0.8-0.2c-0.3-0.1-0.7-0.1-1-0.2c-0.3-0.1-0.5-0.1-0.8-0.2
				l0,0c-0.6-0.1-1.1-0.3-1.7-0.4c-0.6-0.2-1.3-0.4-1.9-0.6c-21.5-6.8-37-26.9-37-50.7V231.6h106.3L733.4,650.3z"/>
			<path class="st4" d="M744,231.6H616.6c-6.6,0-11.9-5.3-11.9-11.9v-1.8c0-6.6,5.3-11.9,11.9-11.9H744c6.6,0,11.9,5.3,11.9,11.9
				v1.8C755.9,226.3,750.6,231.6,744,231.6z"/>
		</g>
		<g>
			<path class="st4" d="M401.4,231.6l-0.2,418.7c0,29.3-23.7,53-53,53.1H346c-0.7,0-1.4-0.1-2-0.1c-0.5,0-1.1-0.1-1.6-0.2
				c-1.4-0.2-2.8-0.4-4.1-0.6c-0.3-0.1-0.5-0.1-0.8-0.2c-0.3-0.1-0.7-0.1-1-0.2s-0.5-0.1-0.8-0.2c-0.6-0.1-1.1-0.3-1.7-0.4
				c-0.6-0.2-1.3-0.4-1.9-0.6c-21.5-6.8-37-26.9-37-50.7V231.6H401.4z"/>
			<path class="st4" d="M423.7,217.9v1.8c0,6.6-5.4,11.9-12,11.9H284.4c-6.6,0-11.9-5.3-11.9-11.9v-1.8c0-6.6,5.3-11.9,11.9-11.9
				h127.4C418.4,206,423.7,211.3,423.7,217.9z"/>
		</g>
		<path class="st5" d="M423.7,217.9v1.8c0,6.6-5.4,11.9-12,11.9h-10.3l-0.2,418.7c0,29.3-23.7,53-53,53.1V206h63.5
			C418.4,206,423.7,211.3,423.7,217.9z"/>
		<path class="st5" d="M587.6,217.9v1.8c0,6.6-5.4,11.9-12,11.9h-10.3l-0.2,418.7c0,29.3-23.7,53-53,53.1V206h63.5
			C582.3,206,587.6,211.3,587.6,217.9z"/>
		<path class="st5" d="M755.9,217.9v1.8c0,6.6-5.4,11.9-12,11.9h-10.3l-0.2,418.7c0,29.3-23.7,53-53,53.1V206H744
			C750.6,206,755.9,211.3,755.9,217.9z"/>
		<path class="st3" d="M932,425.4v5.7c0,21.7-17.6,39.3-39.2,39.3H131.2c-21.6,0-39.2-17.6-39.2-39.2v-5.8
			c0-21.6,17.6-39.2,39.2-39.2h761.6C914.4,386.2,932,403.8,932,425.4z"/>
		<rect x="627.3" y="277.1" class="st6" width="106.3" height="60.7"/>
		<rect x="459.1" y="277.1" class="st7" width="106.2" height="60.7"/>
		<rect x="294.9" y="277.1" class="st8" width="106.3" height="60.7"/>
		<rect x="348.2" y="277.1" class="st9" width="53" height="60.7"/>
		<rect x="512.3" y="277.1" class="st10" width="53" height="60.7"/>
		<rect x="680.6" y="277.1" class="st11" width="53" height="60.7"/>
		<path class="st12" d="M932,425.4v5.7c0,21.7-17.6,39.3-39.2,39.3H512v-84.2h380.8C914.4,386.2,932,403.8,932,425.4z"/>
		<path class="st12" d="M892,733.9c-17.9,30.6-39.4,58.8-63.9,84.1H512v-84.1H892z"/>
	</g>
</g>
<g>
	<path class="st13" d="M892.8,381.2H738.5l0-42.9c0-0.2,0-0.3,0-0.5v-60.7c0-0.1,0-0.1,0-0.2l0-40.3h5.4c9.3,0,16.9-7.6,16.9-16.9
		v-1.8c0-9.3-7.6-16.9-16.9-16.9H616.6c-9.3,0-16.9,7.6-16.9,16.9v1.8c0,9.3,7.6,16.9,16.9,16.9h5.7v40.5v60.7v43.4h-52l0.1-144.6
		h5.3c9.3,0,16.9-7.6,16.9-16.9v-1.8c0-9.3-7.6-16.9-16.9-16.9H448.3c-9.3,0-16.9,7.6-16.9,16.9v1.8c0,9.3,7.6,16.9,16.9,16.9h5.8
		v40.5v60.7v43.4h-47.8l0.1-144.6h5.3c9.4,0,17-7.6,17-16.9v-1.8c0-9.3-7.6-16.9-16.9-16.9H284.4c-9.3,0-16.9,7.6-16.9,16.9v1.8
		c0,9.3,7.6,16.9,16.9,16.9h5.7v39.2c-0.1,0.4-0.2,0.9-0.2,1.3v60.7c0,0.5,0.1,0.9,0.2,1.3v42.1H131.2c-24.4,0-44.2,19.8-44.2,44.2
		v5.8c0,24.4,19.8,44.2,44.2,44.2h30.9v253.5h-30.2c-1.8,0-3.4,1-4.3,2.5c-0.9,1.6-0.9,3.5,0,5c18,30.7,39.7,59.3,64.6,85.1
		c0.9,1,2.2,1.5,3.6,1.5h632.3c1.4,0,2.7-0.5,3.6-1.5c24.9-25.7,46.7-54.4,64.6-85.1c0.9-1.5,0.9-3.5,0-5c-0.9-1.6-2.5-2.5-4.3-2.5
		h-30.1V475.4h30.9c24.4,0,44.2-19.9,44.2-44.3v-5.7C937,401,917.2,381.2,892.8,381.2z M632.3,282.1h96.3l0,50.7h-96.3V282.1z
		 M616.6,226.6c-3.9,0-6.9-3-6.9-6.9v-1.8c0-3.9,3-6.9,6.9-6.9H744c3.9,0,6.9,3,6.9,6.9v1.8c0,3.9-3,6.9-6.9,6.9h-10.4
		c-2.8,0-5,2.2-5,5l0,40.5h-96.3v-40.5c0-2.8-2.2-5-5-5H616.6z M632.3,342.8h96.2l0,38.4h-96.2V342.8z M448.3,226.6
		c-3.9,0-6.9-3-6.9-6.9v-1.8c0-3.9,3-6.9,6.9-6.9h127.4c3.9,0,6.9,3,6.9,6.9v1.8c0,3.9-3,6.9-6.9,6.9h-10.3c-2.8,0-5,2.2-5,5l0,40.5
		h-96.3v-40.5c0-2.8-2.2-5-5-5H448.3z M464.1,282.1h96.2v50.7h-96.2V282.1z M464.1,342.8h96.2l0,38.4h-96.2V342.8z M284.4,226.6
		c-3.9,0-6.9-3-6.9-6.9v-1.8c0-3.9,3-6.9,6.9-6.9h127.4c3.9,0,6.9,3,6.9,6.9v1.8c0,3.8-3.1,6.9-7,6.9h-10.3c-2.8,0-5,2.2-5,5l0,40.5
		h-96.3v-40.5c0-2.8-2.2-5-5-5H284.4z M300.1,282.1h96.1v50.7h-96.1V282.1z M300.1,342.8h96.2l0,38.4h-96.2V342.8z M172.1,475.4
		h74.1v253.5h-74.1V475.4z M290.1,475.4v174.8c0,25.5,16.3,47.8,40.4,55.4c0.3,0.1,0.7,0.2,1,0.3c0.3,0.1,0.6,0.2,0.9,0.3
		c0.2,0.1,0.5,0.1,0.8,0.2c0.1,0,0.2,0.1,0.4,0.1c0.3,0.1,0.6,0.2,1,0.2c0.2,0,0.4,0.1,0.5,0.1c0.4,0.1,0.8,0.2,1.2,0.2
		c0.2,0.1,0.4,0.1,0.7,0.2c0.2,0.1,0.4,0.1,0.6,0.1c1.3,0.2,2.6,0.4,4,0.6c0.9,0.2,1.7,0.3,2.4,0.3c0.2,0,0.4,0,0.6,0
		c0.5,0,1,0.1,1.4,0.1h2.2c32-0.1,58-26.2,58-58.1l0.1-174.9h47.8v174.8c0,25.5,16.3,47.8,40.4,55.4c0.3,0.1,0.7,0.2,1,0.3
		c0.3,0.1,0.6,0.2,0.9,0.3c0.1,0,0.2,0.1,0.3,0.1c1.1,0.3,2.2,0.6,3.3,0.8c0.3,0.1,0.6,0.1,0.8,0.2c0.1,0,0.1,0,0.2,0.1
		c1.6,0.4,3.1,0.6,4.5,0.7c0.1,0,0.1,0,0.2,0c0.6,0.1,1.4,0.2,2.2,0.2c0.2,0,0.4,0,0.6,0c0.5,0,1,0.1,1.4,0.1h2.1
		c32,0,58.1-26.1,58.1-58.1l0.1-174.9h52.1v174.8c0,25.5,16.3,47.8,40.4,55.4c0.3,0.1,0.7,0.2,1,0.3c0.3,0.1,0.6,0.2,0.9,0.3
		c0.2,0.1,0.5,0.1,0.8,0.2c0.1,0,0.2,0.1,0.4,0.1c0.3,0.1,0.6,0.2,1,0.2c0.2,0,0.4,0.1,0.5,0.1c0.4,0.1,0.8,0.2,1.2,0.2
		c0.2,0.1,0.4,0.1,0.7,0.2c0.2,0.1,0.4,0.1,0.6,0.1c1.3,0.2,2.6,0.4,4,0.6c0.9,0.2,1.7,0.3,2.4,0.3c0.2,0,0.4,0,0.6,0
		c0.5,0,1,0.1,1.4,0.1h2.1c32,0,58.1-26.1,58.1-58.1l0.1-174.9h29.3v253.5H256.2V475.4H290.1z M338.9,697.5
		c-0.4-0.1-0.8-0.2-1.2-0.2c-0.2-0.1-0.4-0.1-0.7-0.2c-0.2-0.1-0.4-0.1-0.6-0.1c-0.1,0-0.2-0.1-0.4-0.1c-0.2-0.1-0.6-0.2-0.9-0.2
		c-0.2-0.1-0.5-0.2-0.7-0.2c-0.3-0.1-0.6-0.2-0.9-0.3c-20-6.3-33.5-24.8-33.5-45.9V475.4h96.2l-0.1,174.9c0,26.4-21.5,48-48,48.1
		H346c-0.2,0-0.5,0-0.7,0c-0.4,0-0.9-0.1-1.3-0.1c0,0-0.1,0-0.7-0.1c-0.1,0-0.2,0-0.3,0c-1.3-0.2-2.6-0.4-3.7-0.5
		C339.2,697.6,339.1,697.5,338.9,697.5z M499.4,696.7c-0.3-0.1-0.6-0.2-0.9-0.3c-0.3-0.1-0.6-0.2-0.9-0.3
		c-20-6.3-33.5-24.8-33.5-45.9V475.4h96.1l-0.1,174.9c0,26.5-21.6,48.1-48.1,48.1h-2.1c-0.2,0-0.5,0-0.7,0c-0.5,0-0.9-0.1-1.3-0.1
		c-0.1,0-0.3,0-0.7-0.1c-0.3-0.1-0.7-0.1-1-0.1h-0.1c-0.9-0.1-1.7-0.2-2.7-0.4c-0.2-0.1-0.4-0.1-0.6-0.1c-0.2-0.1-0.4-0.1-0.6-0.1
		C501.3,697.2,500.4,697,499.4,696.7z M671.1,697.5c-0.4-0.1-0.8-0.2-1.2-0.2c-0.2-0.1-0.4-0.1-0.7-0.2c-0.2-0.1-0.4-0.1-0.6-0.1
		c-0.1,0-0.2-0.1-0.4-0.1c-0.2-0.1-0.6-0.2-0.9-0.2c-0.2-0.1-0.5-0.2-0.7-0.2c-0.3-0.1-0.6-0.2-0.9-0.3c-20-6.3-33.5-24.8-33.5-45.9
		V475.4h96.2l-0.1,174.9c0,26.5-21.6,48.1-48.1,48.1h-2.1c-0.2,0-0.5,0-0.7,0c-0.4,0-0.9-0.1-1.3-0.1c0,0-0.1,0-0.7-0.1
		c-0.1,0-0.2,0-0.3,0c-1.3-0.2-2.6-0.4-3.7-0.5C671.4,697.6,671.3,697.5,671.1,697.5z M826,813h-628c-21.7-22.6-40.9-47.5-57.2-74.1
		h742.5C866.9,765.5,847.7,790.4,826,813z M851.9,728.9h-74.1V475.4h74.1V728.9z M927,431.1c0,18.9-15.3,34.3-34.2,34.3h-35.9h-84.1
		h-39.3H627.3h-62.1H459.1h-57.8H295.1H131.2c-18.9,0-34.2-15.3-34.2-34.2v-5.8c0-18.9,15.3-34.2,34.2-34.2h163.9h106.2h57.8h106.2
		h62h106.2h159.3c18.9,0,34.2,15.3,34.2,34.2V431.1z"/>
	<path class="st8" d="M511.9,972c-63.4,0-124.8-12.7-182.6-37.7c-55.7-24.1-105.5-58.6-148-102.4c-25.8-26.6-48.2-56.2-66.8-87.9
		c-25.3-43.3-43.2-90-53.3-138.9c-2.2-10.8,4.7-21.4,15.6-23.6c10.8-2.2,21.4,4.7,23.6,15.6c9.2,44.6,25.5,87.3,48.6,126.8
		c16.9,29,37.5,56,61,80.3c38.8,40,84.2,71.5,135.1,93.5C397.9,920.4,454,932,511.9,932c57.9,0,114-11.6,166.7-34.4
		c50.9-22,96.4-53.5,135.1-93.5c23.5-24.3,44.1-51.3,61-80.3c23.1-39.4,39.5-82,48.7-126.8c2.2-10.8,12.8-17.8,23.6-15.6
		c10.8,2.2,17.8,12.8,15.6,23.6c-10.1,49.1-28,95.8-53.3,138.9c-18.6,31.7-41,61.3-66.8,87.9c-42.4,43.8-92.2,78.3-148,102.4
		C636.7,959.3,575.3,972,511.9,972z M139.8,297.1c-3.7,0-7.4-1-10.7-3.1c-9.3-5.9-12.1-18.3-6.2-27.6
		c40.8-64.4,97.4-118.2,163.7-155.5C355.1,72.4,433,52,512,52c79,0,156.9,20.4,225.4,58.9C803.7,148.2,860.3,202,901,266.4
		c5.9,9.3,3.1,21.7-6.2,27.6c-9.3,5.9-21.7,3.1-27.6-6.2c-37.2-58.8-88.9-107.9-149.5-142C655.3,110.6,584.1,92,512,92
		c-72.1,0-143.3,18.6-205.7,53.8c-60.6,34.1-112.3,83.2-149.5,142C152.9,293.8,146.4,297.1,139.8,297.1z"/>
</g>
</svg>
