<?xml version="1.0" encoding="utf-8"?>
<!-- Generator: Adobe Illustrator 24.0.0, SVG Export Plug-In . SVG Version: 6.00 Build 0)  -->
<svg version="1.1" id="Capa_1" xmlns="http://www.w3.org/2000/svg" xmlns:xlink="http://www.w3.org/1999/xlink" x="0px" y="0px"
	 viewBox="0 0 1024 1024" style="enable-background:new 0 0 1024 1024;" xml:space="preserve">
<style type="text/css">
	.st0{fill:#443F80;}
	.st1{fill:#F9F7FC;}
	.st2{fill:#DCDAEB;}
	.st3{fill:#F473C3;}
	.st4{fill:#DD5CA2;}
	.st5{fill:#C640A6;}
	.st6{fill:#534A9A;}
	.st7{fill:#707DD3;}
	.st8{fill:#FFFFFF;}
</style>
<g>
	<path class="st0" d="M952,512c0,127.7-54.4,242.6-141.2,323c-39,36.1-84.6,65.3-134.8,85.4C625.3,940.8,570,952,512,952
		C269,952,72,755,72,512c0-57.8,11.2-113,31.4-163.6c15.4-38.4,36-74.2,61.1-106.3c26.4-33.9,57.6-63.8,92.6-88.8
		c22.7-16.1,46.9-30.2,72.5-41.8C385.1,86.1,446.9,72,512,72c27.3,0,54,2.5,79.9,7.2c123.3,22.6,228.7,96.6,293,199
		c24.7,39.3,43.3,82.7,54.6,129.1C947.7,440.9,952,475.9,952,512z"/>
	<g>
		<g>
			<path class="st1" d="M598.3,98.7l96.5,507c8.2,43.2-20.1,84.8-63.3,93l-367.2,69.9c-43.2,8.2-84.8-20.1-93-63.3L74.9,198.4
				c-8.2-43.2,20.1-84.8,63.3-93l367.2-69.9C548.4,27.3,590,55.6,598.3,98.7z"/>
			<path class="st2" d="M598.3,98.7l96.5,507c8.2,43.2-20.1,84.8-63.3,93l-183.6,34.9L321.7,70.5l183.6-34.9
				C548.4,27.3,590,55.6,598.3,98.7z"/>
			<g>
				<g>
					<path class="st3" d="M191,157.9c-19.2-13.1-45.5-8.2-58.7,11.1c-13.1,19.2-8.2,45.5,11.1,58.7l60.4,41.3
						c5.1,3.5,12.1,2.2,15.6-2.9l41.3-60.4c13.1-19.2,8.2-45.5-11.1-58.7C230.3,133.8,204.1,138.7,191,157.9z"/>
					<path class="st4" d="M637.4,635.1c-13.2,19.2-39.5,24.2-58.7,11.1c-13.1,19.3-39.4,24.3-58.7,11.1
						c-19.2-13.2-24.2-39.5-11.1-58.7l41.3-60.4c3.5-5.1,10.5-6.4,15.6-2.9l60.5,41.3C645.5,589.6,650.5,615.9,637.4,635.1z"/>
				</g>
				<path class="st3" d="M480.3,413.4l-60.4,88.5c-3.5,5.1-8.7,8.3-14.3,9.4c-5.7,1.1-11.8,0-16.9-3.5l-88.5-60.4
					c-29.6-20.1-37.1-60.4-17-90s60.3-37.2,89.9-17.1c0.1,0,0.1,0.1,0.2,0.1c20.2-29.5,60.5-37.1,90.1-16.9
					C492.9,343.5,500.6,383.8,480.3,413.4z"/>
			</g>
			<path class="st5" d="M480.3,413.4l-60.4,88.5c-3.5,5.1-8.7,8.3-14.3,9.4L373,340.2c0.1,0,0.1,0.1,0.2,0.1
				c20.2-29.5,60.5-37.1,90.1-16.9C492.9,343.5,500.6,383.8,480.3,413.4z"/>
			<path class="st5" d="M637.4,635.1c-13.2,19.2-39.5,24.2-58.7,11.1c-13.1,19.3-39.4,24.3-58.7,11.1
				c-19.2-13.2-24.2-39.5-11.1-58.7l41.3-60.4c3.5-5.1,10.5-6.4,15.6-2.9l60.5,41.3C645.5,589.6,650.5,615.9,637.4,635.1z"/>
		</g>
		<g>
			<path class="st1" d="M947.7,380.2l-8.2,27.2L810.8,835c-39,36.1-84.6,65.3-134.8,85.4l-155.1-46.7l-179-53.8
				c-27.5-8.3-47.2-30-54-55.8c-3.6-13.8-3.7-28.6,0.8-43.3l70.2-233.4l25.8-85.8l26.4-87.6l26.3-87.3c12.7-42.1,57-65.9,99.1-53.3
				l80.7,24.3l0,0l98.3,29.6l169.4,51l9.5,2.9C936.4,293.8,960.2,338.1,947.7,380.2z"/>
			<path class="st2" d="M947.7,380.2l-8.2,27.2L810.8,835c-39,36.1-84.6,65.3-134.8,85.4l-155.1-46.7L570,710.4l0,0l10.9-36.3
				l7-23.2l25.1-83.5l42.3-140.5l3.3-11l56.8-188.6l169.4,51l9.5,2.9C936.4,293.8,960.2,338.1,947.7,380.2z"/>
			<g>
				<path class="st6" d="M609.1,283.5l-40-74.4l-74.4,40c-20.5,11-28.2,36.6-17.2,57.2c8.1,15.1,23.9,23.1,39.8,22.2l-4.9,16.3
					l-13-3.9c-8-2.4-16.5,2.1-18.9,10.2c-2.4,8,2.1,16.5,10.2,18.9l55.1,16.6c8,2.4,16.5-2.1,18.9-10.2c2.4-8-2.1-16.5-10.2-18.9
					l-13-3.9l4.9-16.3c12.8,9.6,30.5,11.6,45.4,3.5C612.5,329.6,620.2,304,609.1,283.5z"/>
				<path class="st6" d="M622.2,614l-7.2,24l19,5.7c11.8,3.5,18.4,15.9,14.9,27.7s-15.9,18.4-27.7,14.9L540.6,662
					c-11.8-3.5-18.4-15.9-14.9-27.7s15.9-18.4,27.7-14.9l19,5.7l7.2-23.9c-23.3,1.5-46.5-10.5-58.3-32.4
					c-16.1-30-4.8-67.5,25.2-83.6l108.8-58.4h0.1l58.5,108.8c16.1,30,4.9,67.4-25.2,83.5C666.7,630.9,640.8,628.1,622.2,614z"/>
				<path class="st7" d="M742.6,848.3l-74.4,40l-40-74.4c-11.1-20.5-3.3-46.1,17.2-57.2c15-8.1,32.7-6.1,45.4,3.5l4.9-16.3l-13-3.9
					c-8.1-2.4-12.6-10.9-10.2-18.9c2.4-8.1,10.9-12.6,18.9-10.2l55.1,16.6c8.1,2.4,12.6,10.9,10.2,18.9
					c-2.4,8.1-10.9,12.6-18.9,10.2l-13-3.9L720,769c15.9-1,31.7,7.1,39.8,22.2C770.8,811.7,763.1,837.3,742.6,848.3z"/>
			</g>
			<path class="st0" d="M648.9,671.4c-3.5,11.8-15.9,18.4-27.7,14.9L581,674.1l74.4-247.2h0.1L714,535.7c16.1,30,4.9,67.4-25.2,83.5
				c-21.9,11.8-47.8,9-66.5-5.1l-7.2,24l19,5.7C645.8,647.2,652.4,659.6,648.9,671.4z"/>
			<path class="st0" d="M742.6,848.3l-74.4,40l-40-74.4c-11.1-20.5-3.3-46.1,17.2-57.2c15-8.1,32.7-6.1,45.4,3.5l4.9-16.3l-13-3.9
				c-8.1-2.4-12.6-10.9-10.2-18.9c2.4-8.1,10.9-12.6,18.9-10.2l55.1,16.6c8.1,2.4,12.6,10.9,10.2,18.9c-2.4,8.1-10.9,12.6-18.9,10.2
				l-13-3.9L720,769c15.9-1,31.7,7.1,39.8,22.2C770.8,811.7,763.1,837.3,742.6,848.3z"/>
		</g>
	</g>
</g>
<g>
	<g>
		<path class="st8" d="M252.4,142.9c-10.5-7.2-23.1-9.8-35.5-7.5c-10.8,2-20.3,7.6-27.2,15.9c-21-11.4-47.8-5.3-61.6,14.9
			c-14.7,21.5-9.1,50.9,12.4,65.6l60.4,41.3c2.8,1.9,6,2.8,9.2,2.8c5.2,0,10.3-2.5,13.4-7l41.3-60.4
			C279.5,187,273.9,157.6,252.4,142.9z M256.6,202.9l-41.3,60.4c-1.9,2.8-5.8,3.5-8.7,1.6l-60.4-41.3c-17-11.6-21.4-34.8-9.8-51.8
			c7.2-10.6,18.9-16.2,30.9-16.2c7.2,0,14.5,2.1,20.9,6.5c2.3,1.6,5.4,1,6.9-1.3c5.6-8.2,14-13.7,23.7-15.5c9.8-1.8,19.7,0.3,28,5.9
			C263.7,162.7,268.1,185.9,256.6,202.9z"/>
		<path class="st8" d="M895.9,276.4l-9.3-2.8c-0.1,0-0.2-0.1-0.3-0.1l-264.8-79.7l-18.3-96c-1.4-7.2-3.7-14.2-6.8-20.7
			c-16.6-34.5-54.4-53.6-91.9-46.4l-367.2,69.9c-45.8,8.7-76,53-67.3,98.8l96.4,506.9c4.2,22.2,16.8,41.4,35.5,54.1
			C216,770,232.4,775,249.3,775c5.3,0,10.7-0.5,16-1.5l19.2-3.6c8.5,26.4,29.2,46.7,56.1,54.8l179,53.8l155.1,46.7
			c0.5,0.1,1,0.2,1.4,0.2c0.6,0,1.3-0.1,1.9-0.4c50.3-20.1,96.2-49.2,136.3-86.4c0.7-0.6,1.1-1.4,1.4-2.2l128.7-427.6
			c0,0,0-0.1,0-0.1l8.2-27.1C965.8,337,940.3,289.8,895.9,276.4z M263.4,763.7c-19.6,3.7-39.4-0.4-55.9-11.6s-27.6-28.1-31.3-47.7
			L79.8,197.5c-7.7-40.4,18.9-79.5,59.3-87.2l367.2-69.9c33.1-6.3,66.4,10.5,81,40.9c2.8,5.8,4.8,11.9,6,18.3l17.3,90.9l-72.8-21.9
			c-44.6-13.4-91.9,12.1-105.3,56.6L407.1,310c-13.9,4.1-26.1,12.3-35,23.7c-31.4-18.5-72.3-9.6-93,20.9
			c-21.7,31.9-13.4,75.4,18.3,96.9l55.7,38l-69.1,229.8c-4,13.2-4.7,27.2-2,40.8L263.4,763.7z M356.1,479.5L303,443.3
			c-27.2-18.5-34.2-55.7-15.7-83.1c11.5-17,30.3-26.1,49.4-26.1c11.6,0,23.3,3.3,33.5,10.3c0.1,0.1,0.2,0.1,0.3,0.2
			c0.8,0.5,1.7,0.8,2.7,0.8c1.6,0,3.2-0.8,4.1-2.2c6.5-9.5,15.6-16.9,26.1-21.3l-23.6,78.2L356.1,479.5z M942.9,378.8l-8.2,27.2
			c0,0,0,0.1,0,0.1L806.4,832.3c-38.6,35.5-82.5,63.4-130.6,82.9l-153.4-46.2l-179-53.8c-25-7.5-43.9-27-50.6-52.1c0,0,0-0.1,0-0.1
			c-3.6-13.7-3.3-27.3,0.8-40.6l70.2-233.3c0,0,0-0.1,0-0.1l25.8-85.8l26.4-87.5c0,0,0,0,0,0c0,0,0,0,0,0l26.3-87.4
			c11.9-39.3,53.5-61.7,92.9-50l80.6,24.3c0,0,0.1,0,0.1,0L883.3,283c0.1,0,0.1,0,0.2,0.1l9.4,2.9
			C932.2,297.8,954.6,339.4,942.9,378.8z"/>
		<path class="st8" d="M550.2,392.3c3.3,0,6.6-0.8,9.6-2.4c4.7-2.6,8.2-6.8,9.7-12c1.6-5.2,1-10.7-1.6-15.4c-2.6-4.7-6.8-8.2-12-9.7
			l-8.2-2.5l1.6-5.2c13.9,7.5,30.9,7.7,44.9,0.1c11.2-6,19.3-16,23-28.1c3.6-12.1,2.3-24.9-3.7-35.9l-40-74.4c-0.6-1.2-1.7-2-3-2.4
			c-1.3-0.4-2.6-0.2-3.8,0.4l-74.4,40c-22.9,12.3-31.5,41-19.2,64c7.5,14.1,21.8,23.3,37.5,24.7l-1.6,5.2l-8.2-2.5
			c-7.6-2.3-15.9,0.1-21.1,6.1c-1.9,2.2-3.2,4.7-4.1,7.4c-1.6,5.2-1,10.7,1.6,15.4c2.6,4.7,6.8,8.2,12,9.7l55.1,16.6
			C546.3,392,548.2,392.3,550.2,392.3z M486.1,360.3c-0.5-0.9-0.8-1.9-1-2.8c-0.1-0.7-0.2-1.3-0.2-2c0-1,0.1-2,0.4-3
			c0.1-0.3,0.2-0.6,0.3-0.8c0.4-1.1,1-2,1.7-2.9c2-2.3,4.8-3.5,7.7-3.5c1,0,2,0.1,2.9,0.4l13,3.9c2.6,0.8,5.4-0.7,6.2-3.3l4.9-16.3
			c0.5-1.6,0.1-3.3-0.9-4.5c-1-1.3-2.6-2-4.2-1.9c-14.7,0.8-28.2-6.7-35.1-19.6c-9.7-18.1-2.9-40.8,15.2-50.4l70-37.6l37.6,70
			c4.7,8.7,5.8,18.8,2.9,28.3c-2.9,9.5-9.3,17.4-18.2,22.2c0,0,0,0,0,0c-12.6,6.9-28.3,5.6-40-3.1c-1.3-1-3-1.3-4.6-0.8
			c-1.6,0.5-2.8,1.7-3.2,3.3l-4.9,16.3c-0.4,1.3-0.2,2.6,0.4,3.8c0.6,1.2,1.7,2,3,2.4l13,3.9c2.6,0.8,4.7,2.5,6,4.9
			c1.3,2.4,1.6,5.2,0.8,7.8c-0.8,2.6-2.5,4.7-4.9,6c-2.4,1.3-5.2,1.6-7.8,0.8l-54.5-16.4l-0.6-0.2
			C489.5,364.4,487.4,362.7,486.1,360.3z"/>
		<path class="st8" d="M627.6,692.2c11.8,0,22.6-7.6,26.1-19.4c4.3-14.4-3.9-29.7-18.3-33.9l-14.2-4.3l3.8-12.7
			c19.9,12,45.1,12.8,66,1.6c15.7-8.4,27.2-22.4,32.3-39.4c5.2-17.1,3.4-35.1-5.1-50.8l-58.5-108.8c-0.9-1.6-2.6-2.6-4.4-2.6h-0.1
			c-0.8,0-1.6,0.2-2.4,0.6l-108.8,58.4c-32.4,17.4-44.6,57.9-27.2,90.4c11.2,20.8,32.7,34.1,56,35.1l-3.8,12.6l-14.2-4.3
			c-14.4-4.3-29.7,3.9-33.9,18.3c-4.3,14.4,3.9,29.7,18.2,33.9l80.6,24.3C622.4,691.9,625,692.2,627.6,692.2z M530.5,635.7
			c2.2-7.4,9.1-12.3,16.5-12.3c1.6,0,3.3,0.2,4.9,0.7l19,5.7c2.6,0.8,5.4-0.7,6.2-3.3l7.2-23.9c0.5-1.6,0.1-3.3-0.9-4.6
			c-1-1.3-2.6-2-4.2-1.9c-22,1.4-43.1-10.3-53.6-29.8c-14.8-27.6-4.4-62,23.2-76.8l104.5-56.1L709.5,538c7.2,13.4,8.7,28.7,4.3,43.2
			c-4.4,14.5-14.1,26.4-27.5,33.5c-19.5,10.5-43.5,8.6-61.1-4.7c-1.3-1-3-1.3-4.6-0.8c-1.6,0.5-2.8,1.7-3.2,3.3l-7.2,24
			c-0.8,2.6,0.7,5.4,3.4,6.2l19,5.7c9.1,2.7,14.2,12.3,11.5,21.5c-2.7,9.1-12.3,14.2-21.5,11.5L542,657.2
			C532.9,654.5,527.8,644.9,530.5,635.7z"/>
		<path class="st8" d="M726.7,764.1l1.5-5.2l8.2,2.5c5.2,1.6,10.7,1,15.4-1.6c4.7-2.6,8.2-6.8,9.7-12c1.6-5.2,1-10.7-1.6-15.4
			c-2.6-4.7-6.8-8.2-12-9.7l-55.1-16.6c-5.2-1.6-10.7-1-15.4,1.6c-4.7,2.6-8.2,6.8-9.7,12c-1.6,5.2-1,10.7,1.6,15.4
			c2.6,4.7,6.8,8.2,12,9.7l8.2,2.5l-1.6,5.2c-13.9-7.5-30.8-7.7-44.9-0.1c-11.1,6-19.2,16-22.9,28c-3.7,12.1-2.4,24.9,3.6,35.9
			l40,74.4c0.9,1.7,2.6,2.6,4.4,2.6c0.8,0,1.6-0.2,2.4-0.6l74.4-40c11.1-6,19.2-15.9,22.8-28c3.6-12.1,2.4-24.8-3.6-35.9
			C756.6,774.7,742.3,765.5,726.7,764.1z M758.2,821.9c-2.9,9.5-9.3,17.3-18,22c0,0,0,0,0,0l-70,37.6l-37.6-70
			c-4.7-8.7-5.7-18.8-2.9-28.3c2.9-9.5,9.3-17.4,18-22.1c5.5-3,11.5-4.4,17.6-4.4c7.9,0,15.9,2.5,22.4,7.5c1.3,1,3,1.3,4.6,0.8
			c1.6-0.5,2.8-1.7,3.2-3.3l4.9-16.3c0.4-1.3,0.2-2.6-0.4-3.8c-0.6-1.2-1.7-2-3-2.4l-13-3.9c-2.6-0.8-4.8-2.5-6-4.9
			c-1.3-2.4-1.6-5.2-0.8-7.8c0.8-2.6,2.5-4.7,4.9-6c2.4-1.3,5.2-1.6,7.8-0.8l55.1,16.6c2.6,0.8,4.7,2.5,6,4.9
			c1.3,2.4,1.6,5.2,0.8,7.8c-0.8,2.6-2.5,4.7-4.9,6c-2.4,1.3-5.2,1.6-7.8,0.8l-13-3.9c-1.3-0.4-2.6-0.2-3.8,0.4
			c-1.2,0.6-2,1.7-2.4,3l-4.8,16.3c-0.5,1.6-0.1,3.3,0.9,4.5c1,1.3,2.6,2,4.2,1.9c14.4-0.9,28.2,6.8,35.1,19.6
			C760.1,802.3,761.1,812.4,758.2,821.9z"/>
	</g>
	<path class="st3" d="M512,972c-62.1,0-122.3-12.2-179.1-36.2c-54.8-23.2-104-56.3-146.2-98.6c-42.2-42.2-75.4-91.4-98.6-146.2
		C64.2,634.3,52,574.1,52,512c0-11,9-20,20-20c11,0,20,9,20,20c0,56.7,11.1,111.7,33,163.5c21.2,50,51.4,94.9,90,133.5
		c38.6,38.6,83.5,68.9,133.5,90c51.8,21.9,106.8,33,163.5,33c54.1,0,106.8-10.1,156.5-30.2c47.5-19,90.8-46.4,128.7-81.5
		c32-29.6,59.1-63.8,80.5-101.6c21.9-38.6,37.4-80.2,46.1-123.6c2.2-10.8,12.7-17.8,23.5-15.7s17.8,12.7,15.7,23.5
		c-9.5,47.6-26.5,93.2-50.5,135.5c-23.5,41.4-53.1,78.8-88.1,111.3c-41.5,38.4-88.9,68.5-141,89.3C629,960.9,571.3,972,512,972z"/>
</g>
</svg>
