<?xml version="1.0" encoding="utf-8"?>
<!-- Generator: Adobe Illustrator 24.0.0, SVG Export Plug-In . SVG Version: 6.00 Build 0)  -->
<svg version="1.1" id="Capa_1" xmlns="http://www.w3.org/2000/svg" xmlns:xlink="http://www.w3.org/1999/xlink" x="0px" y="0px"
	 viewBox="0 0 1024 1024" style="enable-background:new 0 0 1024 1024;" xml:space="preserve">
<style type="text/css">
	.st0{fill:#BAE4FA;}
	.st1{fill:#9DD4A9;}
	.st2{fill:#84BFA7;}
	.st3{fill:#F473C3;}
	.st4{fill:#C640A6;}
	.st5{fill:#5E6ACA;}
	.st6{fill:#534A9A;}
	.st7{fill:#767DD4;}
	.st8{fill:#F9F7FC;}
	.st9{fill:#F9B630;}
	.st10{fill:#F9A40D;}
	.st11{fill:#DCDAEB;}
</style>
<g>
	<circle class="st0" cx="512" cy="512" r="440"/>
	<g>
		<rect x="224" y="332.3" transform="matrix(0.866 -0.5 0.5 0.866 -163.2841 302.4072)" class="st1" width="517.3" height="247.2"/>
		
			<rect x="465.3" y="267.6" transform="matrix(0.866 -0.5 0.5 0.866 -115.9268 349.7346)" class="st2" width="258.7" height="247.2"/>
		<path class="st3" d="M637.6,447l169.1,216.6c23.4,30.9,66.2,39.6,99.7,20.2l-169.8-294L637.6,447z"/>
		<path class="st4" d="M736.6,389.8l169.8,294c33.6-19.4,47.5-60.8,32.4-96.5l-103-254.8L736.6,389.8z"/>
		<path class="st3" d="M653.4,103.2l48.2,83.5l-133.1,76.8L520.3,180c-6.3-10.9-2.6-24.9,8.4-31.2l93.4-54
			C633.1,88.6,647,92.3,653.4,103.2z"/>
		<path class="st4" d="M653.4,103.2l48.2,83.5L640,222.4L580.3,119l41.8-24.1C633.1,88.6,647,92.3,653.4,103.2z"/>
		<path class="st5" d="M854.1,241.4c48.6,84.2,19.8,191.8-64.4,240.4l0,0c-84.2,48.6-191.8,19.8-240.5-64.4S529.5,225.6,613.7,177
			l0,0C697.9,128.4,805.5,157.2,854.1,241.4z"/>
		<path class="st3" d="M199.4,700l169.1,216.6c23.4,30.9,66.2,39.6,99.7,20.2l-169.8-294L199.4,700z"/>
		<path class="st4" d="M298.4,642.8l169.8,294l0,0c33.6-19.4,47.5-60.8,32.4-96.5l-103-254.8L298.4,642.8z"/>
		<path class="st3" d="M215.1,356.2l48.2,83.5l-133.1,76.8L82,433c-6.3-10.9-2.6-24.9,8.4-31.2l93.4-54
			C194.8,341.6,208.8,345.3,215.1,356.2z"/>
		<path class="st4" d="M215.1,356.2l48.2,83.5l-61.6,35.6L142.1,372l41.8-24.1C194.8,341.6,208.8,345.3,215.1,356.2z"/>
		<circle class="st5" cx="263.5" cy="582.4" r="176"/>
		<path class="st6" d="M854.1,241.4c48.6,84.2,19.8,191.8-64.4,240.4l-176-304.9C697.9,128.4,805.5,157.2,854.1,241.4z"/>
		<g>
			<circle class="st7" cx="263.5" cy="582.4" r="149.5"/>
			<path class="st7" d="M831.2,254.6c41.3,71.5,16.8,162.9-54.7,204.2l0,0c-71.5,41.3-163,16.8-204.3-54.7s-16.8-163,54.7-204.3l0,0
				C698.5,158.6,789.9,183.1,831.2,254.6z"/>
		</g>
		<path class="st6" d="M416,494.4c48.6,84.2,19.8,191.8-64.4,240.5L175.6,430C259.7,381.3,367.4,410.2,416,494.4z"/>
		<path class="st5" d="M393,507.6c41.3,71.5,16.8,163-54.7,204.3l-149.5-259C260.3,411.6,351.7,436.1,393,507.6z"/>
		<path class="st5" d="M831.2,254.6c41.3,71.5,16.8,162.9-54.7,204.2L627,199.9C698.5,158.6,789.9,183.1,831.2,254.6z"/>
		<path class="st8" d="M362.6,525.2L362.6,525.2c7.2,12.5,3,28.5-9.5,35.7l-49.4,28.5c-2.4,1.4-3.2,4.5-1.9,6.9l28.5,49.4
			c3.6,6.3,4.4,13.4,2.6,19.8c-1.7,6.5-5.9,12.3-12.2,15.9c-12.5,7.2-28.5,2.9-35.7-9.6l-28.5-49.4c-1.4-2.4-4.5-3.2-6.9-1.8
			l-49.4,28.5c-6.3,3.6-13.4,4.3-19.8,2.6c-6.5-1.7-12.3-5.9-15.9-12.2c-7.2-12.5-2.9-28.5,9.6-35.7l49.4-28.5
			c2.4-1.4,3.2-4.4,1.8-6.9L196.8,519c-3.6-6.3-4.3-13.4-2.6-19.8c1.7-6.5,5.9-12.3,12.2-15.9c12.5-7.2,28.5-2.9,35.7,9.6l28.5,49.4
			c1.4,2.4,4.4,3.2,6.9,1.8l49.4-28.5C339.4,508.4,355.4,512.7,362.6,525.2z"/>
		<g>
			<path class="st9" d="M610.9,329.1l-25.6,56.8c-3.2,7.1,1.5,15.3,9.3,16.1l62,6.2c9.3,0.9,15.7-9,11.1-17.1L631.3,328
				C626.5,320,614.7,320.6,610.9,329.1z"/>
			<path class="st10" d="M746.9,250.5l62,6.2c7.8,0.8,12.5,9,9.3,16.1l-25.6,56.8c-3.8,8.5-15.7,9.1-20.3,1l-36.4-63.1
				C731.2,259.6,737.6,249.6,746.9,250.5z"/>
		</g>
		<g>
			<path class="st9" d="M703.1,258.9L640,295.3c-8.1,4.7-18-1.8-17.1-11.1l6.2-62c0.4-3.9,2.6-7,5.7-8.8c3-1.7,6.8-2.1,10.4-0.5
				l56.8,25.6C710.6,242.4,711.1,254.2,703.1,258.9z"/>
			<path class="st9" d="M780.6,374.6l-6.2,62c-0.4,3.9-2.6,7-5.6,8.8s-6.8,2.1-10.4,0.5l-56.8-25.6c-8.5-3.8-9.1-15.7-1-20.3
				l63.1-36.4C771.6,358.9,781.5,365.3,780.6,374.6z"/>
		</g>
		<path class="st10" d="M780.6,374.6l-6.2,62c-0.4,3.9-2.6,7-5.6,8.8L732,381.7l31.5-18.2C771.6,358.9,781.5,365.3,780.6,374.6z"/>
		<path class="st10" d="M703.1,258.9l-31.5,18.2l-36.7-63.6c3-1.7,6.8-2.1,10.4-0.5l56.8,25.6C710.6,242.4,711.1,254.2,703.1,258.9z
			"/>
		<path class="st11" d="M362.6,525.2L362.6,525.2c7.2,12.5,3,28.5-9.5,35.7l-49.4,28.5c-2.4,1.4-3.2,4.5-1.9,6.9l28.5,49.4
			c3.6,6.3,4.4,13.4,2.6,19.8c-1.7,6.5-5.9,12.3-12.2,15.9L206.3,483.3c12.5-7.2,28.5-2.9,35.7,9.6l28.5,49.4
			c1.4,2.4,4.4,3.2,6.9,1.8l49.4-28.5C339.4,508.4,355.4,512.7,362.6,525.2z"/>
	</g>
</g>
<g>
	<path class="st9" d="M512,972c-11,0-20-9-20-20s9-20,20-20c33.1,0,66-3.9,97.8-11.4c42-10,82.1-26.5,119.2-48.9
		c36.4-22,69.2-49.4,97.5-81.3c7.3-8.3,20-9,28.2-1.7c8.3,7.3,9,20,1.7,28.2c-31,34.9-66.9,64.9-106.7,89
		c-40.6,24.6-84.6,42.6-130.6,53.6C584.2,967.8,548.2,972,512,972z"/>
	<path class="st9" d="M144.9,289.4c-3.8,0-7.6-1.1-11-3.3c-9.2-6.1-11.7-18.5-5.6-27.7c37.7-57,88.6-105.7,147.1-140.9
		c60.9-36.6,127.8-58.1,198.7-63.9c12.5-1,25.3-1.5,37.9-1.5c11,0,20,9,20,20s-9,20-20,20c-11.5,0-23.2,0.5-34.7,1.4
		c-64.7,5.3-125.8,24.9-181.4,58.3c-53.5,32.1-99.9,76.6-134.4,128.7C157.7,286.2,151.3,289.4,144.9,289.4z"/>
	<path class="st8" d="M943.4,585.4l-75-185.5c3.2-7.6,5.9-15.5,8.1-23.6c12.5-46.7,6.1-95.5-18.1-137.3
		c-24.2-41.9-63.2-71.8-109.9-84.3c-20.8-5.6-42.1-7.4-62.9-5.5l-27.9-48.4C650,87.5,632.9,83,619.6,90.5l-93.4,54
		c-6.5,3.7-11.1,9.7-13,16.9c-1.9,7.2-1,14.7,2.8,21.2l30.7,53.2c-8.6,14.2-15.2,29.6-19.7,46.1L309.5,407.3
		c-14.7-3.9-30.1-5.9-46-5.9c-5.4,0-10.8,0.3-16.1,0.7l-28-48.4c-7.6-13.2-24.7-17.8-38.1-10.2l-93.4,54c-6.5,3.7-11.1,9.7-13,16.9
		c-1.9,7.2-1,14.7,2.8,21.2l30.9,53.5c-16.5,27.3-26,59.3-26,93.4c0,92.4,69.5,168.8,159,179.7l123,157.6
		c16,21.1,40.5,32.5,65.4,32.5c13.9,0,28-3.6,40.8-11c35.7-20.6,50.6-64.8,34.5-102.7l-75-185.6c3.1-7.4,5.8-15,7.9-22.8
		l217.6-125.6c8,2.1,16,3.6,24,4.6l123,157.5c16,21.1,40.5,32.5,65.4,32.5c13.9,0,28-3.6,40.8-11
		C944.6,667.5,959.5,623.3,943.4,585.4z M524.6,177.5c-2.4-4.1-3-8.9-1.8-13.6c1.2-4.6,4.2-8.4,8.4-10.8l93.4-54
		c8.7-4.9,19.5-2,24.5,6.5l25.8,44.6c-22.1,3.3-43.7,10.8-63.6,22.3c-23.6,13.6-43.4,31.9-58.4,53.6L524.6,177.5z M616.2,181.3
		c26.4-15.2,55.6-23,85.3-23c14.8,0,29.8,2,44.5,5.9c44.1,11.8,81,40.1,103.8,79.7c22.8,39.6,28.9,85.7,17.1,129.8
		c-11.8,44.1-40.1,81-79.7,103.8c-39.6,22.8-85.7,28.9-129.8,17.1c-44.1-11.8-81-40.1-103.9-79.7c-22.9-39.5-28.9-85.6-17.1-129.7
		C548.3,241,576.6,204.2,616.2,181.3z M86.3,430.5c-2.4-4.1-3-9-1.8-13.6c1.2-4.6,4.2-8.4,8.4-10.8l93.4-54
		c8.6-4.9,19.6-1.9,24.5,6.5l25.8,44.7c-50.4,7.5-94.1,36-121.9,76.2L86.3,430.5z M92.5,582.4c0-94.3,76.7-171,171-171
		s171,76.7,171,171s-76.7,171-171,171S92.5,676.7,92.5,582.4z M496,842.2c14.1,33.3,1.1,72.1-30.3,90.2c-31.3,18.1-71.3,10-93.3-19
		L255.1,763.2c2.8,0.1,5.6,0.2,8.4,0.2c70,0,130.8-39.9,160.9-98.2L496,842.2z M322.6,411.3l201.2-116.2
		c-8.3,42.8-1.1,86.6,21,124.8c22.1,38.2,56.5,66.4,97.7,80.6L441.2,616.7c2.1-11.1,3.3-22.6,3.3-34.3
		C444.5,503.3,393.5,435.9,322.6,411.3z M903.9,679.5c-31.3,18.1-71.3,10-93.3-19L693.3,510.2c2.9,0.1,5.8,0.2,8.6,0.2
		c31.4,0,62.3-8.2,90.2-24.3c30.6-17.6,54.8-43.2,70.5-73.8l71.5,177C948.3,622.6,935.3,661.4,903.9,679.5z"/>
</g>
</svg>
