<?xml version="1.0" encoding="utf-8"?>
<!-- Generator: Adobe Illustrator 24.0.0, SVG Export Plug-In . SVG Version: 6.00 Build 0)  -->
<svg version="1.1" id="Capa_1" xmlns="http://www.w3.org/2000/svg" xmlns:xlink="http://www.w3.org/1999/xlink" x="0px" y="0px"
	 viewBox="0 0 1024 1024" style="enable-background:new 0 0 1024 1024;" xml:space="preserve">
<style type="text/css">
	.st0{fill:#A5C6FF;}
	.st1{fill:#534A9A;}
	.st2{fill:#9DD4A9;}
	.st3{fill:#FFD071;}
	.st4{fill:#F9B630;}
	.st5{fill:#F9A40D;}
	.st6{fill:#F473C3;}
	.st7{fill:#DD8903;}
	.st8{fill:#C640A6;}
	.st9{fill:#FFFFFF;}
</style>
<g>
	<circle class="st0" cx="512" cy="512" r="440"/>
	<g>
		<path class="st1" d="M952,512c0,58.4-11.3,114-31.9,165c-10.2,25.2-22.6,49.1-37.1,71.7c-4.5,7.1-9.2,14-14.2,20.8
			c-7.6,10.5-15.6,20.6-24,30.4c-1.5,1.7-3,3.4-4.5,5c-8.7,9.7-17.8,19-27.2,28c-0.7,0.7-1.5,1.4-2.2,2.1
			c-39,36.1-84.6,65.3-134.8,85.4C625.3,940.8,570,952,512,952c-90.8,0-175.2-27.5-245.2-74.7c-4.5-3-9-6.2-13.5-9.4
			c-23.3-17-44.9-36.2-64.4-57.3V132.7h546.3c3,1.8,6.1,3.6,9.1,5.5c7.7,4.8,15.2,9.8,22.6,15.1c4.5,3.2,9,6.5,13.4,9.9
			c2.6,2,5.2,4,7.8,6.1c0.2,0.1,0.3,0.3,0.5,0.4c4,3.3,8,6.6,12,10.1c2.3,2,4.6,4,6.9,6.1l0.3,0.3c1.2,1,2.4,2.1,3.5,3.2
			c0.6,0.6,1.2,1.1,1.8,1.7c6.7,6.2,13.1,12.7,19.4,19.3c19.6,20.8,37.2,43.5,52.5,67.9c4,6.3,7.8,12.7,11.4,19.3
			c6.2,11.1,12,22.6,17.3,34.3c0.8,1.9,1.7,3.7,2.5,5.6c0.7,1.7,1.5,3.4,2.2,5.1c3.2,7.5,6.1,15.2,8.8,22.8c4.8,13.7,9,27.7,12.5,42
			C947.7,440.9,952,475.9,952,512z"/>
		<path class="st2" d="M952,512c0,58.4-11.3,114-31.9,165c-10.2,25.2-22.6,49.1-37.1,71.7c-4.5,7.1-9.2,14-14.2,20.8
			c-7.6,10.5-15.6,20.6-24,30.4c-1.5,1.7-3,3.4-4.5,5c-8.7,9.7-17.8,19-27.2,28c-0.7,0.7-1.5,1.4-2.2,2.1
			c-39,36.1-84.6,65.3-134.8,85.4C625.3,940.8,570,952,512,952c-90.8,0-175.2-27.5-245.2-74.7V210.4h565.6
			c19.6,20.8,37.2,43.5,52.5,67.9c4,6.3,7.8,12.7,11.4,19.3c6.2,11.1,12,22.6,17.3,34.3c0.8,1.9,1.7,3.7,2.5,5.6
			c0.7,1.7,1.5,3.4,2.2,5.1c3.2,7.5,6.1,15.2,8.8,22.8c4.8,13.7,9,27.7,12.5,42C947.7,440.9,952,475.9,952,512z"/>
	</g>
	<g>
		<path class="st3" d="M870.4,552c0,130.8-105.9,236.8-236.7,236.9h-0.2c-130.9,0-236.9-106.1-236.9-236.9v-0.1
			c0-130.8,106.1-236.9,237-236.9h0.2C764.4,315.2,870.4,421.2,870.4,552z"/>
		<path class="st4" d="M870.4,552c0,130.8-105.9,236.8-236.7,236.9V315C764.4,315.2,870.4,421.2,870.4,552z"/>
		<path class="st5" d="M633.7,291.5h-0.2C489.7,291.5,373,408.2,373,552s116.7,260.5,260.5,260.5h0.2
			c143.7-0.1,260.2-116.8,260.2-260.5S777.3,291.6,633.7,291.5z M633.7,778.6h-0.2c-124.8,0-226.6-101.8-226.6-226.7
			c0-124.8,101.8-226.6,226.6-226.6h0.2c125.1,0.1,226.4,101.9,226.4,226.6C860.1,676.7,758.4,778.5,633.7,778.6z"/>
		<path class="st5" d="M633.7,369.6h-0.2c-100.6,0-182.3,81.7-182.3,182.3s81.7,182.3,182.3,182.3h0.2
			c100.5-0.1,182.1-81.8,182.1-182.3C815.8,451.4,734.2,369.8,633.7,369.6z M633.7,710.6h-0.2c-87.4,0-158.7-71.3-158.7-158.7
			s71.3-158.6,158.7-158.6h0.2c87.5,0.1,158.4,71.4,158.4,158.6C792.1,639.3,720.9,710.5,633.7,710.6z"/>
		<g>
			<path class="st6" d="M717,456.6H550.1c-6.6,0-11.8,5.2-11.8,11.8c0,6.6,5.2,11.8,11.8,11.8H717c6.6,0,11.8-5.2,11.8-11.8
				C728.9,461.8,723.6,456.6,717,456.6z M740.2,607.4H526.9c-6.6,0-11.8,5.2-11.8,11.8s5.2,11.8,11.8,11.8h213.4
				c6.6,0,11.8-5.2,11.8-11.8C752.1,612.6,746.9,607.4,740.2,607.4z"/>
			<path class="st6" d="M670.8,492.3h-74.4c-28.9,0-52.3,23.4-52.3,52.3c0,28.9,23.4,52.3,52.3,52.3h74.1
				c28.9,0,52.3-23.7,52.6-52.3C723.2,515.8,699.7,492.3,670.8,492.3z M670.8,573h-74.4c-15.9,0-28.7-12.8-28.7-28.7
				s12.8-28.6,28.7-28.6h74.4c15.9,0,28.7,12.8,28.7,28.6C699.5,560.3,686.7,573,670.8,573z"/>
			<path class="st6" d="M682.7,544.4c0,6.6-5.4,11.8-12.1,11.8h-74.1c-6.6,0-11.8-5.2-11.8-11.8s5.2-11.8,11.8-11.8h74.4
				C677.5,532.6,682.7,537.8,682.7,544.4z"/>
			<path class="st6" d="M645.3,438.3v227.3c0,6.6-5.1,11.7-11.6,11.8h-0.2c-6.6,0-11.8-5.2-11.8-11.8V438.3
				c0-6.6,5.2-11.8,11.8-11.8h0.2C640.2,426.6,645.3,431.8,645.3,438.3z"/>
		</g>
		<path class="st7" d="M893.9,552c0,143.7-116.6,260.4-260.2,260.5v-33.8c124.7-0.1,226.4-101.9,226.4-226.7
			c0-124.7-101.4-226.5-226.4-226.6v-33.8C777.3,291.6,893.9,408.3,893.9,552z"/>
		<path class="st7" d="M815.8,552c0,100.6-81.6,182.2-182.1,182.3v-23.7c87.3-0.1,158.4-71.4,158.4-158.7s-70.9-158.5-158.4-158.6
			v-23.7C734.2,369.8,815.8,451.4,815.8,552z"/>
		<path class="st8" d="M740.2,607.4h-95V597h25.3c28.9,0,52.3-23.7,52.6-52.3c0-28.9-23.4-52.3-52.3-52.3h-25.6v-12.1H717
			c6.6,0,11.8-5.2,11.8-11.8c0-6.6-5.2-11.8-11.8-11.8h-71.8v-18.2c0-6.6-5.1-11.7-11.6-11.8v251c6.5-0.1,11.6-5.3,11.6-11.8v-34.6
			h95c6.6,0,11.8-5.2,11.8-11.8C752.1,612.6,746.9,607.4,740.2,607.4z M645.3,556.2h25.3c6.6,0,12.1-5.2,12.1-11.8
			s-5.2-11.8-11.8-11.8h-25.6v-16.8h25.6c15.9,0,28.7,12.8,28.7,28.6c0,15.9-12.8,28.7-28.7,28.7h-25.6V556.2z"/>
	</g>
</g>
<g>
	<g>
		<path class="st9" d="M512,957c-88.9,0-174.7-26.1-248-75.6c-4.5-3-9.1-6.3-13.5-9.4c0,0-0.1-0.1-0.1-0.1
			c-23.6-17.2-45.5-36.7-65.1-57.9c-0.9-0.9-1.3-2.1-1.3-3.4V132.7c0-2.8,2.2-5,5-5h546.3c0.9,0,1.8,0.2,2.6,0.7
			c0.8,0.5,1.6,1,2.4,1.5c2.2,1.3,4.5,2.7,6.8,4.1c7.9,4.9,15.4,9.9,22.8,15.3c5,3.6,9.4,6.8,13.5,10c2.5,1.9,5.1,3.9,7.7,6
			c0.3,0.2,0.5,0.4,0.6,0.5c0,0,0.1,0.1,0.1,0.1c4,3.3,8.1,6.6,12.1,10.2c2.3,2,4.6,4,7,6.2c0.1,0.1,0.1,0.1,0.2,0.2l0.1,0.1
			c1.2,1,2.5,2.2,3.7,3.4c0.2,0.2,0.5,0.5,0.7,0.7c0.3,0.3,0.7,0.6,1,0.9c5.9,5.4,11.9,11.4,19.6,19.5
			c19.9,21.1,37.8,44.3,53.1,68.7c4.2,6.6,8,13,11.6,19.6c6.2,11.2,12.1,22.8,17.5,34.6c0,0,0,0.1,0.1,0.1c0.4,0.9,0.8,1.8,1.2,2.7
			c0.4,1,0.9,1.9,1.3,2.9c0.3,0.8,0.7,1.7,1.1,2.5c0.4,0.9,0.8,1.8,1.1,2.7c2.9,6.7,5.7,14.1,8.9,23c4.9,14.1,9.2,28.4,12.6,42.5
			c8.3,34.6,12.4,70.2,12.4,105.8c0,57.7-10.9,113.9-32.3,166.9c-10.2,25.2-22.8,49.6-37.5,72.5c-4.6,7.3-9.4,14.2-14.4,21.1
			c-7.5,10.3-15.6,20.7-24.2,30.7c0,0-0.1,0.1-0.1,0.1c-1.5,1.7-3,3.4-4.5,5c-8.4,9.4-17.4,18.6-27.4,28.2c-0.4,0.4-0.8,0.7-1.2,1.1
			c-0.3,0.3-0.7,0.6-1,0.9c0,0-0.1,0.1-0.1,0.1c-40.2,37.2-86,66.2-136.3,86.4C625.2,946.2,569.3,957,512,957z M193.9,808.6
			c18.9,20.2,39.8,38.8,62.3,55.2c4.4,3.1,8.9,6.3,13.3,9.3C341.2,921.5,425.1,947,512,947c56,0,110.6-10.5,162.2-31.2
			c49.2-19.7,94-48.1,133.2-84.4c0.4-0.4,0.8-0.7,1.2-1.1c0.3-0.3,0.7-0.6,1-0.9c0,0,0.1-0.1,0.1-0.1c9.8-9.4,18.7-18.5,26.9-27.7
			c0,0,0-0.1,0.1-0.1c1.4-1.5,2.9-3.2,4.4-4.8c8.4-9.8,16.4-19.9,23.7-30.1c4.9-6.7,9.5-13.4,14-20.5c14.4-22.4,26.7-46.2,36.7-70.9
			C936.4,623.3,947,568.4,947,512c0-34.8-4.1-69.6-12.2-103.4c-3.4-13.7-7.5-27.7-12.4-41.5c-3.1-8.7-5.9-15.9-8.7-22.5
			c-0.4-0.9-0.7-1.7-1.1-2.5c-0.4-0.9-0.8-1.8-1.1-2.7c-0.4-0.9-0.8-1.7-1.2-2.6c-0.4-1-0.9-1.9-1.3-2.9
			c-5.2-11.5-11-22.9-17.1-33.9c-3.5-6.4-7.1-12.6-11.3-19.1c-15-23.9-32.5-46.5-51.9-67.2c-7.5-7.9-13.4-13.8-19.2-19.1
			c0,0-0.1-0.1-0.1-0.1c-0.2-0.2-0.5-0.5-0.7-0.7c-0.4-0.3-0.7-0.6-1.1-1c-1-1-2.1-2-3.2-2.9c-0.1-0.1-0.2-0.2-0.3-0.3l-0.2-0.2
			c-2.2-2-4.5-4-6.7-5.9c-3.9-3.4-7.9-6.7-11.7-9.8c-0.2-0.2-0.4-0.3-0.6-0.5c0,0-0.1,0-0.1-0.1c-2.6-2.1-5.2-4.1-7.7-6
			c-4-3.1-8.3-6.3-13.2-9.8c-7.3-5.2-14.6-10.1-22.3-14.9c-2.2-1.4-4.4-2.7-6.6-4c-0.4-0.3-0.9-0.5-1.3-0.8H193.9V808.6z M810.9,835
			L810.9,835L810.9,835z"/>
		<path class="st9" d="M512,957c-88.9,0-174.7-26.1-248-75.6c-1.4-0.9-2.2-2.5-2.2-4.1V210.4c0-2.8,2.2-5,5-5h565.6
			c1.4,0,2.7,0.6,3.6,1.6c19.9,21.1,37.8,44.2,53.1,68.7c4.2,6.6,8,13,11.6,19.6c6.2,11.2,12.1,22.8,17.5,34.6c0,0,0,0.1,0.1,0.1
			c0.4,0.9,0.8,1.8,1.2,2.6c0.4,1,0.9,2,1.3,3c0.3,0.8,0.7,1.7,1.1,2.5c0.4,0.9,0.8,1.8,1.1,2.7c2.9,6.7,5.7,14.1,8.9,23
			c4.9,14.1,9.2,28.4,12.6,42.5c8.3,34.4,12.5,70,12.5,105.8c0,57.7-10.9,113.9-32.3,166.9c-10.2,25.2-22.8,49.6-37.5,72.5
			c-4.6,7.3-9.4,14.2-14.4,21.1c-7.5,10.3-15.6,20.7-24.2,30.7c0,0-0.1,0.1-0.1,0.1c-1.5,1.7-3,3.4-4.5,5
			c-8.4,9.4-17.4,18.6-27.4,28.2c-0.4,0.4-0.8,0.8-1.2,1.1c-0.3,0.3-0.7,0.6-1,0.9c0,0-0.1,0.1-0.1,0.1
			c-40.2,37.2-86,66.2-136.3,86.4C625.2,946.2,569.3,957,512,957z M271.8,874.6C343,922,426,947,512,947c56,0,110.6-10.5,162.2-31.2
			c49.2-19.7,94-48.1,133.2-84.4c0.4-0.4,0.8-0.7,1.2-1.1c0.3-0.3,0.7-0.6,1-0.9c0,0,0.1-0.1,0.1-0.1c9.8-9.4,18.7-18.5,26.9-27.7
			c0,0,0-0.1,0.1-0.1c1.4-1.5,2.9-3.2,4.4-4.8c8.4-9.8,16.4-19.9,23.7-30.1c4.9-6.7,9.5-13.4,14-20.5c14.4-22.4,26.7-46.2,36.7-70.9
			C936.4,623.3,947,568.4,947,512c0-35-4.1-69.8-12.3-103.4c-3.4-13.8-7.5-27.7-12.4-41.5c-3.1-8.7-5.9-15.9-8.7-22.5
			c-0.4-0.9-0.7-1.7-1.1-2.5c-0.4-0.9-0.8-1.8-1.1-2.7c-0.4-0.9-0.8-1.7-1.2-2.6c-0.4-0.9-0.9-1.9-1.3-2.9
			c-5.2-11.5-11-22.9-17.1-33.9c-3.5-6.4-7.1-12.6-11.3-19.1c-14.6-23.3-31.6-45.4-50.4-65.6H271.8V874.6z M810.9,835L810.9,835
			L810.9,835z"/>
	</g>
	<path class="st3" d="M512,972c-62.1,0-122.3-12.2-179.1-36.2c-54.8-23.2-104-56.3-146.2-98.6c-42.2-42.2-75.4-91.4-98.6-146.2
		C64.2,634.3,52,574.1,52,512c0-43.6,6.1-86.8,18.2-128.4c3.1-10.6,14.2-16.7,24.8-13.6c10.6,3.1,16.7,14.2,13.6,24.8
		C97.6,432.7,92,472.1,92,512c0,56.7,11.1,111.7,33,163.5c21.2,50,51.4,94.9,90,133.5c38.6,38.6,83.5,68.9,133.5,90
		c51.8,21.9,106.8,33,163.5,33c56.7,0,111.7-11.1,163.5-33c50-21.2,94.9-51.4,133.5-90c38.6-38.6,68.9-83.5,90-133.5
		c21.9-51.8,33-106.8,33-163.5c0-56.7-11.1-111.7-33-163.5c-21.2-50-51.4-94.9-90-133.5c-38.6-38.6-83.5-68.9-133.5-90
		C623.7,103.1,568.7,92,512,92c-14.8,0-29.8,0.8-44.5,2.3c-11,1.2-20.8-6.8-22-17.8c-1.2-11,6.8-20.8,17.8-22
		c16-1.7,32.4-2.5,48.6-2.5c62.1,0,122.3,12.2,179.1,36.2c54.8,23.2,104,56.3,146.2,98.6c42.2,42.2,75.4,91.4,98.6,146.2
		c24,56.7,36.2,117,36.2,179.1s-12.2,122.3-36.2,179.1c-23.2,54.8-56.3,104-98.6,146.2c-42.2,42.2-91.4,75.4-146.2,98.6
		C634.3,959.8,574.1,972,512,972z"/>
	<g>
		<path class="st9" d="M633.7,817.5h-0.2C487.1,817.5,368,698.4,368,552s119.1-265.5,265.5-265.5h0.2c0,0,0,0,0,0
			c146.2,0.1,265.2,119.2,265.2,265.5c0,70.8-27.6,137.5-77.7,187.6C771.1,789.8,704.5,817.5,633.7,817.5z M633.5,296.5
			C492.6,296.5,378,411.1,378,552c0,140.9,114.6,255.5,255.5,255.5h0.2c140.7-0.1,255.2-114.7,255.2-255.5S774.4,296.6,633.7,296.5
			H633.5z"/>
	</g>
</g>
</svg>
