<?xml version="1.0" encoding="utf-8"?>
<!-- Generator: Adobe Illustrator 24.0.0, SVG Export Plug-In . SVG Version: 6.00 Build 0)  -->
<svg version="1.1" id="Capa_1" xmlns="http://www.w3.org/2000/svg" xmlns:xlink="http://www.w3.org/1999/xlink" x="0px" y="0px"
	 viewBox="0 0 1024 1024" style="enable-background:new 0 0 1024 1024;" xml:space="preserve">
<style type="text/css">
	.st0{fill:#767DD4;}
	.st1{fill:#FFCE55;}
	.st2{fill:#F9B630;}
	.st3{fill:#F9F7FC;}
	.st4{fill:#DCDAEB;}
	.st5{fill:#F473C3;}
	.st6{fill:#C640A6;}
	.st7{fill:#A8148C;}
	.st8{fill:#F9A40D;}
	.st9{fill:#FFFFFF;}
</style>
<g>
	<circle class="st0" cx="512" cy="512" r="440"/>
	<g>
		<g>
			<g>
				<path class="st1" d="M318.9,829.3c-6.4,0-11.6-5.2-11.6-11.6V212.9c0-6.4,5.2-11.6,11.6-11.6s11.6,5.2,11.6,11.6v604.7
					C330.6,824.1,325.4,829.3,318.9,829.3z"/>
				<path class="st1" d="M394.5,772.4c-6.4,0-11.6-5.2-11.6-11.6V239.6c0-6.4,5.2-11.6,11.6-11.6s11.6,5.2,11.6,11.6v521.1
					C406.1,767.1,400.9,772.4,394.5,772.4z"/>
				<path class="st1" d="M467.4,725.7c-6.4,0-11.6-5.2-11.6-11.6v-439c0-6.4,5.2-11.6,11.6-11.6s11.6,5.2,11.6,11.6v439
					C479,720.5,473.8,725.7,467.4,725.7z"/>
				<path class="st1" d="M542.7,675.3c-6.4,0-11.6-5.2-11.6-11.6V319.9c0-6.4,5.2-11.6,11.6-11.6s11.6,5.2,11.6,11.6v343.8
					C554.3,670.1,549.1,675.3,542.7,675.3z"/>
				<path class="st1" d="M626.1,613.3c-6.4,0-11.6-5.2-11.6-11.6V413c0-6.4,5.2-11.6,11.6-11.6c6.4,0,11.6,5.2,11.6,11.6v188.6
					C637.7,608,632.5,613.3,626.1,613.3z"/>
			</g>
			<path class="st2" d="M925.1,423c-0.2,2.6-1.1,5.3-2.6,7.9l0,0c-0.2,0.4-0.5,0.8-0.7,1.2c-0.1,0.2-0.3,0.4-0.4,0.6
				c-2.8,4.2-7.1,8.4-12.6,12.4c-1.2,0.9-2.4,1.7-3.7,2.6l-0.4,0.2c-27.9,18.4-80.9,34.6-137.4,42.5c-2.1,0.3-4.1,0.6-6.2,0.8H761
				c-57.1,6.8-119-1.6-174.9-48.9c-25.6-21.7-49.9-51.5-71.9-91.8C430,196.1,308.2,203,247.1,263.8V112.2c0,0,134-57.2,242.4,39.4
				c48.1,42.9,73.3,93.6,96.6,138.2c29.2,55.9,55.2,101.9,119.3,110.5c91.5,12.2,169.5-31.5,203-11.2c0,0,0,0,0.1,0
				c8.6,5.2,14.3,14.7,16.5,30.5c0,0.2,0,0.3,0.1,0.5c0,0.2,0,0.4,0,0.5C925.2,421.4,925.2,422.2,925.1,423z"/>
			<g>
				<path class="st3" d="M256.4,84.3v735.8h-58.5c-1-1-2.1-2.1-3.1-3.1V90.5c0-3.4,3.6-6.2,8-6.2H256.4z"/>
				<path class="st3" d="M278.6,80.7v16.5c-0.1,2.9-2.5,5.3-5.4,5.3h-95c-3,0-5.4-2.4-5.4-5.4V80.7c0-3,2.4-5.4,5.4-5.4h95
					C276.2,75.3,278.6,77.7,278.6,80.7z"/>
				<path class="st3" d="M270.8,107.8v5.6c0,3-2.4,5.4-5.4,5.4h-79.5c-3,0-5.4-2.4-5.4-5.4v-5.6c0-2.6,1.9-4.8,4.4-5.3
					c0.3-0.1,0.7-0.1,1-0.1h79.5c0.4,0,0.7,0,1,0.1C269,103,270.8,105.2,270.8,107.8z"/>
				<path class="st3" d="M278.5,783.2v16.5c0,2.5-1.7,4.6-3.9,5.2c-0.5,0.1-1,0.2-1.5,0.2h-89.3c-0.1-0.1-0.1-0.1-0.2-0.2
					c-1.5-1.7-3-3.3-4.4-5c-2.2-2.6-4.4-5.2-6.6-7.8v-8.9c0-3,2.5-5.4,5.4-5.4h95C276.1,777.8,278.5,780.2,278.5,783.2z"/>
				<path class="st3" d="M270.8,766.9v5.6c0,2.7-1.9,4.8-4.4,5.3c-0.3,0.1-0.7,0.1-1,0.1h-79.5c-0.3,0-0.7,0-1-0.1
					c-2.5-0.5-4.4-2.6-4.4-5.3v-5.6c0-3,2.4-5.4,5.4-5.4h79.5C268.4,761.5,270.8,763.9,270.8,766.9z"/>
				<path class="st3" d="M270.8,154.6v5.6c0,2.6-1.9,4.8-4.4,5.3c-0.3,0.1-0.7,0.1-1,0.1h-79.5c-0.3,0-0.7,0-1-0.1
					c-2.5-0.5-4.4-2.7-4.4-5.3v-5.6c0-3,2.4-5.4,5.4-5.4h79.5C268.4,149.2,270.8,151.6,270.8,154.6z"/>
				<path class="st3" d="M270.8,187.3v5.6c0,3-2.4,5.4-5.4,5.4h-79.5c-3,0-5.4-2.4-5.4-5.4v-5.6c0-3,2.4-5.4,5.4-5.4h79.5
					C268.4,181.9,270.8,184.3,270.8,187.3z"/>
				<path class="st3" d="M275.5,170.9v5.6c-0.1,3-2.5,5.4-5.4,5.4h-88.8c-3,0-5.4-2.4-5.4-5.4v-5.6c0-3,2.4-5.4,5.4-5.4h88.8
					C273.1,165.5,275.5,167.9,275.5,170.9z"/>
				<path class="st3" d="M270.8,662.7v5.6c0,2.7-1.9,4.8-4.4,5.3c-0.3,0.1-0.7,0.1-1,0.1h-79.5c-0.3,0-0.7,0-1-0.1
					c-2.5-0.5-4.4-2.6-4.4-5.3v-5.6c0-3,2.4-5.4,5.4-5.4h79.5C268.4,657.3,270.8,659.7,270.8,662.7z"/>
				<path class="st3" d="M270.8,695.3v5.6c0,3-2.4,5.4-5.4,5.4h-79.5c-3,0-5.4-2.4-5.4-5.4v-5.6c0-2.6,1.9-4.8,4.4-5.3
					c0.3-0.1,0.7-0.1,1-0.1h79.5c0.4,0,0.7,0,1,0.1C269,690.5,270.8,692.7,270.8,695.3z"/>
				<path class="st3" d="M275.5,679v5.6c-0.1,3-2.5,5.4-5.4,5.4h-88.8c-3,0-5.4-2.4-5.4-5.4V679c0-3,2.4-5.4,5.4-5.4h88.8
					C273.1,673.6,275.5,676,275.5,679z"/>
			</g>
			<path class="st4" d="M273.2,102.5h-6.8c2.5,0.5,4.4,2.7,4.4,5.3v5.6c0,3-2.4,5.4-5.4,5.4h-9v30.4h9c3,0,5.4,2.4,5.4,5.4v5.6
				c0,2.6-1.9,4.8-4.4,5.3h3.7c3,0,5.4,2.4,5.4,5.4v5.6c-0.1,3-2.5,5.4-5.4,5.4h-4.7c3,0,5.4,2.4,5.4,5.4v5.6c0,3-2.4,5.4-5.4,5.4
				h-9v459h9c3,0,5.4,2.4,5.4,5.4v5.6c0,2.7-1.9,4.8-4.4,5.3h3.7c3,0,5.4,2.4,5.4,5.4v5.6c-0.1,3-2.5,5.4-5.4,5.4h-3.7
				c2.5,0.5,4.4,2.7,4.4,5.3v5.6c0,3-2.4,5.4-5.4,5.4h-9v55.2h9c3,0,5.4,2.4,5.4,5.4v5.6c0,2.7-1.9,4.8-4.4,5.3h6.7
				c3,0,5.4,2.4,5.4,5.4v16.5c0,3-2.4,5.4-5.4,5.4h-16.7v15h-30.8V75.3h47.6c3,0,5.4,2.4,5.4,5.4v16.5
				C278.5,100.1,276.1,102.5,273.2,102.5z"/>
			<g>
				<path class="st5" d="M446.7,814.5v64H268.5c-25.5-17-49.2-36.6-70.5-58.4c-1-1-2.1-2.1-3.1-3.1c-3.7-3.9-7.4-7.8-11-11.9
					c-0.1-0.1-0.1-0.1-0.2-0.2h253.4C442.4,804.9,446.7,809.2,446.7,814.5z"/>
				<path class="st6" d="M478.8,888.2v14.3c0,3.4-2.8,6.2-6.2,6.2H321.4c-11.5-5.5-22.7-11.5-33.6-18c-6.5-3.8-12.9-7.9-19.2-12.1
					h200.6C474.5,878.6,478.8,882.9,478.8,888.2z"/>
			</g>
			<path class="st2" d="M925.1,423c-0.2,2.7-1.1,5.3-2.6,7.9l0,0c-0.2,0.4-0.5,0.8-0.7,1.2c-0.1,0.2-0.3,0.4-0.4,0.6
				c-2.8,4.2-7.1,8.4-12.6,12.4l-3.7,2.6l-0.4,0.2L586.1,669.2L390.5,805h-81.4l277-192.2l175-121.5l0,0L908.5,389h0.1
				c8.6,5.2,14.3,14.7,16.5,30.5c0,0.2,0,0.4,0.1,0.6c0,0.2,0,0.4,0,0.5C925.2,421.4,925.2,422.2,925.1,423z"/>
			<path class="st6" d="M287.8,878.5v-73.6h149.3c5.3,0,9.6,4.3,9.6,9.6v64H287.8z"/>
			<path class="st7" d="M478.8,888.2v14.3c0,3.4-2.8,6.2-6.2,6.2H321.4c-11.5-5.5-22.7-11.5-33.6-18v-12.1h181.5
				C474.5,878.6,478.8,882.9,478.8,888.2z"/>
			<path class="st8" d="M925.1,423c-0.2,2.6-1.1,5.3-2.6,7.9l0,0c-0.2,0.4-0.5,0.8-0.7,1.2c-0.1,0.2-0.3,0.4-0.4,0.6
				c-2.8,4.2-7.1,8.4-12.6,12.4c-1.2,0.9-2.4,1.7-3.7,2.6l-0.4,0.2L586.1,669.2v-56.4l175-121.5l0,0H761
				c-57.1,6.8-119-1.6-174.9-48.9V289.8c29.2,55.9,55.2,101.9,119.3,110.5c91.5,12.2,169.5-31.5,203-11.2h0.1
				c8.6,5.2,14.3,14.7,16.5,30.5c0,0.2,0,0.4,0.1,0.6c0,0.2,0,0.4,0,0.5C925.2,421.4,925.2,422.2,925.1,423z"/>
		</g>
	</g>
</g>
<g>
	<path class="st2" d="M876.9,286c-6.4,0-12.7-3.1-16.6-8.8C781.9,161.2,651.7,92,512,92c-11,0-20-9-20-20s9-20,20-20
		c153.1,0,295.6,75.8,381.4,202.8c6.2,9.2,3.8,21.6-5.4,27.8C884.6,284.9,880.7,286,876.9,286z"/>
	<path class="st9" d="M930.2,420.1c0-0.4,0-0.8-0.1-1.1c0-0.1,0-0.1,0-0.2c-2.3-16.7-8.5-27.8-18.9-34.1c-0.4-0.2-0.9-0.4-1.3-0.5
		c-17.9-10-45-4.7-79.2,2c-34.9,6.8-78.4,15.3-124.6,9.2c-59.2-7.9-84.2-47.9-115.5-107.9l-3.2-6.1c-22.5-43.1-47.9-92-94.5-133.5
		c-36-32.1-78.4-50.9-126.2-56.1c0,0-0.1,0-0.1,0c-32.1-3.4-61.1-0.1-82.9,4.5V80.7c0-5.7-4.7-10.4-10.4-10.4h-95
		c-5.7,0-10.4,4.7-10.4,10.4v16.4c0,4.8,3.3,8.9,7.7,10c0,0.2,0,0.4,0,0.7v5.6c0,5.7,4.7,10.4,10.4,10.4h3.9v20.4h-3.9
		c-5.7,0-10.4,4.7-10.4,10.4v5.6c0,0.7,0.1,1.3,0.2,2c-2.9,1.9-4.8,5.1-4.8,8.7v5.6c0,3.7,1.9,6.9,4.8,8.8c-0.1,0.7-0.2,1.3-0.2,2
		v5.6c0,5.7,4.7,10.4,10.4,10.4h3.9v449h-3.9c-5.7,0-10.4,4.7-10.4,10.4v5.6c0,0.7,0.1,1.3,0.2,2c-2.9,1.9-4.8,5.1-4.8,8.7v5.6
		c0,3.7,1.9,6.9,4.8,8.7c-0.1,0.6-0.2,1.3-0.2,2v5.6c0,5.7,4.7,10.4,10.4,10.4h3.9v45.2h-3.9c-5.7,0-10.4,4.7-10.4,10.4v5.6
		c0,0.2,0,0.4,0,0.6c-4.5,1.1-7.9,5.2-7.9,10.1v8.9c0,1.2,0.4,2.3,1.2,3.2l6.6,7.8c1,1.2,2.1,2.4,3.1,3.5c0.5,0.5,0.9,1,1.4,1.6
		c0.1,0.1,0.1,0.2,0.2,0.2l0.2,0.2c0.1,0.1,0.2,0.2,0.3,0.3c3.3,3.7,6.7,7.3,10,10.9c0.2,0.3,0.4,0.5,0.6,0.8l3.1,3.1
		c0.2,0.2,0.3,0.3,0.5,0.4c21.3,21.7,45,41.4,70.7,58.5c0.1,0.1,0.2,0.2,0.3,0.2c7.4,4.9,13.5,8.8,19.4,12.2
		c11,6.5,22.4,12.7,34,18.2c0.7,0.3,1.4,0.5,2.2,0.5h151.2c6.2,0,11.2-5,11.2-11.2v-14.3c0-8.1-6.5-14.6-14.6-14.6h-17.5v-59.1
		c0-8-6.5-14.6-14.6-14.6h-30.5L589,673.3l318.3-221.1l0.1,0c0.2-0.1,0.4-0.2,0.6-0.4l0.9-0.6c1-0.7,1.9-1.3,2.9-2l0,0
		c3-2.2,5.7-4.5,8-6.7c2.3-2.3,4.2-4.6,5.8-6.9c0,0,0.1-0.1,0.1-0.1c0.2-0.2,0.4-0.5,0.6-0.9c0-0.1,0.1-0.2,0.1-0.2
		c0.2-0.3,0.3-0.5,0.5-0.8c0.2-0.4,0.4-0.8,0.6-1.1c0.2-0.4,0.4-0.8,0.6-1.2c0.1-0.1,0.1-0.2,0.2-0.4c0.1-0.2,0.2-0.5,0.3-0.7
		c0,0,0-0.1,0-0.1c0.2-0.4,0.3-0.7,0.4-1.1c0,0,0,0,0-0.1c0.1-0.3,0.2-0.7,0.3-1c0-0.2,0.1-0.3,0.1-0.5c0.1-0.3,0.2-0.6,0.2-1
		c0-0.1,0-0.1,0-0.2c0-0.1,0.1-0.3,0.1-0.4c0.1-0.3,0.1-0.6,0.1-0.9c0,0,0,0,0,0c0,0,0,0,0,0c0,0,0,0,0,0c0.1-0.4,0.1-0.9,0.1-1.3
		l0-0.3l0-0.2c0-0.1,0-0.1,0-0.2c0,0,0,0,0-0.1c0,0,0,0,0,0c0,0,0-0.1,0-0.1c0-0.7,0-1.3,0-1.9V420.1z M177.8,80.7
		c0-0.2,0.2-0.4,0.4-0.4h95c0.2,0,0.4,0.2,0.4,0.4v16.4c0,0.2-0.2,0.4-0.4,0.4h-6.3c-0.6-0.1-1.1-0.1-1.5-0.1h-79.5
		c-0.3,0-0.9,0-1.5,0.1h-6.2c-0.2,0-0.4-0.2-0.4-0.4V80.7z M185.5,113.4v-5.6c0-0.1,0.1-0.2,0.2-0.3h80c0.1,0.1,0.2,0.2,0.2,0.3v5.6
		c0,0.2-0.2,0.4-0.4,0.4h-79.5C185.7,113.8,185.5,113.6,185.5,113.4z M199.8,123.8h51.6v20.4h-51.6V123.8z M185.5,154.6
		c0-0.2,0.2-0.4,0.4-0.4h79.5c0.2,0,0.4,0.2,0.4,0.4v5.6c0,0.1-0.1,0.2-0.2,0.3h-79.9c-0.1-0.1-0.2-0.2-0.2-0.3V154.6z M181.3,176.9
		c-0.2,0-0.4-0.2-0.4-0.4v-5.6c0-0.2,0.2-0.4,0.4-0.4h3.1c0.6,0.1,1.2,0.1,1.5,0.1h54.8c0,0,0,0,0,0c0,0,0,0,0,0h24.7
		c0.3,0,0.9,0,1.5-0.1h3.2c0.2,0,0.4,0.2,0.4,0.4v5.5c0,0.3-0.3,0.5-0.4,0.5h-4.7h-79.5H181.3z M185.5,192.9v-5.6
		c0-0.2,0.2-0.4,0.4-0.4h79.5c0.2,0,0.4,0.2,0.4,0.4v5.6c0,0.2-0.2,0.4-0.4,0.4h-79.5C185.7,193.3,185.5,193.1,185.5,192.9z
		 M401.1,241.1v494l-13.2,9.2V239.6c0-1.2,0.3-2.3,0.9-3.3C392.9,237.7,397,239.3,401.1,241.1z M450.8,274.6c0,0.2,0,0.4,0,0.5
		v425.5l-39.7,27.5V246C424.9,253.3,438.2,262.9,450.8,274.6z M642.7,482.5c26.1,10.5,53.9,15.8,84.2,15.8c5.3,0,10.6-0.2,16-0.5
		l-100.2,69.6V482.5z M632.7,574.4l-13.2,9.2V471.5c4.3,2.4,8.8,4.6,13.2,6.7V574.4z M609.5,590.5l-50.2,34.8V423.4
		c7.6,8.2,15.5,15.9,23.6,22.7c8.6,7.3,17.5,13.8,26.6,19.5V590.5z M549.3,632.2l-13.2,9.2V394.8c4.3,6,8.7,11.7,13.2,17.1V632.2z
		 M526.1,648.3L484,677.5V312c9.1,12.4,17.7,26,25.8,40.8c5.2,9.5,10.7,18.7,16.3,27.4V648.3z M474,684.5l-13.2,9.2V284.3
		c4.5,4.7,8.9,9.6,13.2,14.9V684.5z M377.9,239.6v511.6l-42.4,29.4V228.9c14.6-0.9,29.2,0.5,43.7,4.4
		C378.4,235.3,377.9,237.4,377.9,239.6z M325.5,787.5l-13.2,9.2V232.5c4.3-1.1,8.8-2,13.2-2.6V787.5z M302.3,799.9h-18.8
		c0-0.1,0-0.1,0-0.2v-16.5c0-4.9-3.2-8.9-7.7-10c0-0.2,0-0.4,0-0.7v-5.6c0-5.7-4.7-10.4-10.4-10.4h-4v-45.2h4
		c5.7,0,10.4-4.7,10.4-10.4v-5.6c0-0.6-0.1-1.3-0.2-1.9c2.8-1.8,4.8-5,4.9-8.6c0-0.1,0-0.1,0-0.2V679c0-3.7-2-7-4.9-8.8
		c0.1-0.6,0.2-1.3,0.2-1.9v-5.6c0-5.7-4.7-10.4-10.4-10.4h-4V257.7c12.2-9.7,26.2-17.4,40.9-22.3V799.9z M265.4,684.9h-79.5
		c-0.3,0-0.9,0-1.5,0.1h-3.1c-0.2,0-0.4-0.2-0.4-0.4V679c0-0.2,0.2-0.4,0.4-0.4h3.1c0.6,0.1,1.2,0.1,1.5,0.1h79.5
		c0.3,0,0.9,0,1.5-0.1h3.2c0.2,0,0.4,0.2,0.4,0.4v5.5c0,0.3-0.3,0.5-0.4,0.5h-3.2C266.3,684.9,265.8,684.9,265.4,684.9z
		 M199.8,203.3h51.6v449h-51.6V203.3z M185.5,662.7c0-0.2,0.2-0.4,0.4-0.4h79.5c0.2,0,0.4,0.2,0.4,0.4v5.6c0,0.1,0,0.2-0.1,0.3h-80
		c-0.1-0.1-0.1-0.2-0.1-0.3V662.7z M185.5,700.9v-5.6c0-0.1,0.1-0.2,0.2-0.3h80c0.1,0.1,0.2,0.2,0.2,0.3v5.6c0,0.2-0.2,0.4-0.4,0.4
		h-79.5C185.7,701.3,185.5,701.1,185.5,700.9z M199.8,711.3h51.6v45.2h-51.6V711.3z M185.5,766.9c0-0.2,0.2-0.4,0.4-0.4h79.5
		c0.2,0,0.4,0.2,0.4,0.4v5.6c0,0.1,0,0.2-0.1,0.3h-80c-0.1-0.1-0.1-0.2-0.1-0.3V766.9z M177.6,790.3v-7.1c0-0.2,0.2-0.4,0.4-0.4h6.4
		c0.6,0.1,1.2,0.1,1.5,0.1h79.5c0.3,0,0.9,0,1.5-0.1h6.1c0.1,0,0.5,0,0.5,0.4v16.5c0,0.1,0,0.1-0.1,0.2h-87.6
		c-1-1.1-1.9-2.1-2.8-3.2L177.6,790.3z M473.8,888.2v14.3c0,0.6-0.6,1.2-1.2,1.2H322.5c-11-5.3-21.8-11.1-32.2-17.3
		c-1.5-0.9-3.1-1.8-4.7-2.8h183.5C471.7,883.6,473.8,885.7,473.8,888.2z M441.7,814.5v59H270c-24.8-16.7-47.8-35.8-68.5-56.9
		l-1.7-1.7v-4.7h73.3c0.8,0,1.4-0.1,2-0.2h33.1c0.3,0.1,0.6,0.1,0.9,0.1h81.4c0.3,0,0.6,0,0.9-0.1h45.7
		C439.6,809.9,441.7,812,441.7,814.5z M583.2,665.1L389.1,799.9h-63.9l8.1-5.6c0,0,0,0,0,0l75.6-52.4c0,0,0.1,0,0.1-0.1l49.6-34.5
		c0,0,0,0,0,0L589,616.9l175-121.5l0.2-0.1c0.1-0.1,0.2-0.1,0.2-0.2c0.1-0.1,0.3-0.2,0.4-0.4c0.1-0.1,0.2-0.2,0.3-0.4
		c0.1-0.1,0.2-0.2,0.3-0.4c0.1-0.1,0.2-0.3,0.2-0.4c0.1-0.1,0.1-0.3,0.2-0.4c0.1-0.1,0.1-0.3,0.2-0.4c0-0.2,0.1-0.3,0.1-0.5
		c0-0.2,0-0.3,0.1-0.5c0-0.2,0-0.3,0-0.5c0-0.2,0-0.4,0-0.5c0-0.1,0-0.2,0-0.3c0,0,0-0.1,0-0.1c0-0.2-0.1-0.3-0.1-0.5
		c0-0.2-0.1-0.3-0.2-0.5c-0.1-0.1-0.1-0.3-0.2-0.4c-0.1-0.2-0.2-0.3-0.3-0.5c0,0,0-0.1-0.1-0.1c-0.1-0.1-0.1-0.1-0.2-0.2
		c-0.1-0.1-0.2-0.3-0.4-0.4c-0.1-0.1-0.2-0.2-0.3-0.3c-0.1-0.1-0.3-0.2-0.4-0.3c-0.1-0.1-0.3-0.2-0.4-0.2c-0.1-0.1-0.3-0.2-0.4-0.2
		c-0.1-0.1-0.3-0.1-0.4-0.2c-0.2-0.1-0.3-0.1-0.5-0.1c-0.1,0-0.3-0.1-0.4-0.1c-0.2,0-0.3,0-0.5,0c-0.2,0-0.3,0-0.5,0
		c-0.1,0-0.1,0-0.2,0c-0.1,0-0.2,0-0.4,0c-45.3,5.4-84.7,0.2-120.7-15.8c-7.7-3.4-15.3-7.4-22.6-11.9c-9.5-5.8-18.8-12.5-27.8-20
		c-10.9-9.2-21.4-19.8-31.2-31.6c-7.9-9.4-15.6-19.8-22.9-30.9c-5.8-8.8-11.4-18.2-16.7-27.9c-11-20.1-23-38.2-35.7-53.9
		c-7.5-9.2-15.3-17.7-23.4-25.3c-16.1-15.2-33.4-27.2-51.3-35.6c0,0,0,0-0.1,0c0,0,0,0-0.1,0c-6.3-3-12.8-5.5-19.2-7.6c0,0,0,0,0,0
		c0,0,0,0,0,0c-19.4-6.2-39.2-8.4-58.9-6.4c-8.1,0.8-16.2,2.3-24.1,4.5c-15.8,4.4-31,11.8-44.6,21.4v-41.9h4
		c5.7,0,10.4-4.7,10.4-10.4v-5.6c0-0.7-0.1-1.3-0.2-2c2.8-1.8,4.8-5,4.9-8.6c0-0.1,0-0.1,0-0.2v-5.6c0-3.7-2-7-4.9-8.8
		c0.1-0.6,0.2-1.3,0.2-1.9v-5.6c0-5.7-4.7-10.4-10.4-10.4h-4v-20.4h4c5.7,0,10.4-4.7,10.4-10.4v-5c21.8-5.4,53.7-10.5,89.7-6.6
		c0,0,0.1,0,0.1,0c45.6,4.9,86.2,23,120.6,53.6c45.2,40.3,70.2,88.3,92.3,130.7l3.2,6.1c15.1,28.9,29.1,54.4,47.3,74.1
		c20.9,22.5,45,34.9,75.7,39.1c47.9,6.4,92.2-2.3,127.9-9.3c32.7-6.4,58.5-11.5,73.1-2.6c0.1,0.1,0.2,0.1,0.3,0.1
		c0.1,0.1,0.2,0.1,0.3,0.2c0,0,0.1,0,0.1,0c7.3,4.7,11.7,13.3,13.6,26.3c0,0.2,0,0.5,0.1,0.8c0,0.1,0,0.3,0,0.4c0,0.2,0,0.4,0,0.6
		c0,0,0,0,0,0c0,0.1,0,0.1,0,0.2l0,0.3l0,0.2c0,0.1,0,0.1,0,0.2c0,0.2,0,0.4-0.1,0.6c0,0,0,0,0,0c0,0.3-0.1,0.5-0.1,0.8
		c0,0.2-0.1,0.4-0.2,0.7c0,0,0,0,0,0.1c-0.1,0.2-0.2,0.5-0.2,0.8c-0.1,0.2-0.1,0.4-0.2,0.6c-0.1,0.2-0.1,0.4-0.2,0.5
		c-0.1,0.3-0.3,0.6-0.4,0.9c0,0,0,0.1-0.1,0.1c-0.1,0.2-0.2,0.4-0.3,0.6c-0.1,0.1-0.1,0.2-0.2,0.3c0,0.1-0.1,0.2-0.1,0.2
		c-0.1,0.2-0.3,0.4-0.4,0.7c-0.1,0.1-0.2,0.3-0.3,0.5c0,0,0,0.1-0.1,0.1c-0.1,0.1-0.1,0.2-0.2,0.3c-2.4,3.5-6.2,7.1-11.1,10.7
		l-3.3,2.3l-0.1,0c-0.2,0.1-0.4,0.2-0.6,0.4L583.2,665.1z"/>
	<path class="st2" d="M512,972c-69.8,0-136.8-15.2-199.2-45.3c-18.1-8.7-35.9-18.8-52.8-29.8c-0.8-0.5-1.5-1-2.2-1.5
		c-0.1-0.1-0.2-0.1-0.3-0.2c-27.2-18.1-52.5-39.1-75.2-62.5l-0.4-0.5c-0.5-0.5-1-1.1-1.6-1.6c-3.8-4-7.7-8.1-11.4-12.3
		c-4-4.4-7.9-9-11.7-13.6c-33.3-40.3-59.3-85.6-77.2-134.5C61.4,619.6,52,566.4,52,512c0-73.6,16.9-143.9,50.1-209.1
		c5-9.8,17.1-13.7,26.9-8.7c9.8,5,13.7,17.1,8.7,26.9C107.4,380.6,92,444.8,92,512c0,49.7,8.6,98.3,25.5,144.5
		c16.4,44.6,40.1,86,70.5,122.8c3.5,4.2,7.1,8.4,10.7,12.5c3.4,3.9,7,7.6,10.5,11.3c0.1,0.1,0.1,0.1,0.2,0.2
		c0.4,0.4,0.8,0.8,1.1,1.2l0.5,0.5c20.7,21.2,43.6,40.3,68.3,56.8c0.2,0.1,0.4,0.2,0.5,0.4c0.7,0.5,1.4,0.9,2.1,1.4
		c15.4,10.1,31.6,19.2,48.1,27.2c57,27.4,118.2,41.3,181.9,41.3c104.7,0,205-38.7,282.4-109.1c76.9-69.9,125-165,135.4-267.9
		c1.1-11,10.9-19,21.9-17.9c11,1.1,19,10.9,17.9,21.9c-11.4,112.7-64.1,217-148.3,293.5C736.5,929.6,626.7,972,512,972z"/>
</g>
</svg>
