<?xml version="1.0" encoding="utf-8"?>
<!-- Generator: Adobe Illustrator 24.0.0, SVG Export Plug-In . SVG Version: 6.00 Build 0)  -->
<svg version="1.1" id="Capa_1" xmlns="http://www.w3.org/2000/svg" xmlns:xlink="http://www.w3.org/1999/xlink" x="0px" y="0px"
	 viewBox="0 0 1024 1024" style="enable-background:new 0 0 1024 1024;" xml:space="preserve">
<style type="text/css">
	.st0{fill:#9DD4A9;}
	.st1{fill:#443F80;}
	.st2{fill:#2A286B;}
	.st3{fill:#171759;}
	.st4{fill:#534A9A;}
	.st5{fill:#F9F7FC;}
	.st6{fill:#DCDAEB;}
	.st7{fill:#FFD071;}
	.st8{fill:#F9B630;}
	.st9{fill:#FFFFFF;}
</style>
<g>
	<circle class="st0" cx="512" cy="512" r="440"/>
	<g>
		<g>
			<path class="st1" d="M640.6,411.9H383.2v-61.2c0-3.8,3-6.8,6.8-6.8h243.6c3.8,0,6.8,3,6.8,6.8L640.6,411.9z"/>
			<g>
				<path class="st2" d="M155,540v229.2c-4.8-6.7-9.5-13.5-13.9-20.5c-14.6-22.7-27.1-46.9-37.3-72.2V540H155z"/>
				<path class="st3" d="M920.1,540v137c-10.2,25.2-22.6,49.1-37.1,71.7c-4.5,7.1-9.2,14-14.2,20.8V540H920.1z"/>
			</g>
			<path class="st4" d="M893.7,408.9c-4.6,0-9.1-2.7-11.3-7.1L778,177c-2.8-6.3-0.2-13.6,6-16.6c6.3-2.8,13.6-0.2,16.6,6L905,391.1
				c2.8,6.3,0.2,13.6-6,16.6C897.4,408.6,895.5,408.9,893.7,408.9z"/>
			<path class="st1" d="M875.5,148c0,9.2-5.9,17.7-15,20.7L512,284.1L139.2,407.6c-11.4,3.8-23.7-2.5-27.5-14.1
				c-0.8-2.3-1.1-4.6-1.1-6.9c0-9.3,5.9-17.9,15-20.9l386.3-128l334.8-110.9c11.4-3.8,23.7,2.5,27.5,14.1
				C875.1,143.2,875.5,145.7,875.5,148z"/>
			<g>
				<rect x="486.3" y="540" class="st4" width="51.2" height="255.6"/>
				<path class="st4" d="M913.3,394.8L913.1,540H110.7V388.2h795.9C910.3,388.2,913.3,391.2,913.3,394.8z"/>
			</g>
			<rect x="110.7" y="513.6" class="st5" width="802.5" height="26.4"/>
			<path class="st1" d="M913.3,394.8L913.1,540H537.5v255.6H512V388.2h394.6C910.3,388.2,913.3,391.2,913.3,394.8z"/>
			<g>
				<g>
					<g>
						<rect x="152.2" y="500.5" class="st2" width="16.9" height="13.1"/>
						<rect x="185.7" y="500.5" class="st2" width="16.9" height="13.1"/>
						<rect x="220" y="500.5" class="st2" width="16.9" height="13.1"/>
					</g>
					<rect x="285.4" y="500.5" class="st2" width="16.9" height="13.1"/>
					<rect x="312.1" y="500.5" class="st2" width="16.9" height="13.1"/>
					<rect x="372.8" y="500.5" class="st2" width="16.9" height="13.1"/>
					<rect x="399.1" y="500.5" class="st2" width="16.9" height="13.1"/>
				</g>
				<g>
					<g>
						<rect x="849.8" y="500.5" class="st3" width="16.9" height="13.1"/>
						<rect x="816.3" y="500.5" class="st3" width="16.9" height="13.1"/>
						<rect x="782" y="500.5" class="st3" width="16.9" height="13.1"/>
					</g>
					<rect x="716.5" y="500.5" class="st3" width="16.9" height="13.1"/>
					<rect x="689.7" y="500.5" class="st3" width="16.9" height="13.1"/>
					<rect x="629.2" y="500.5" class="st3" width="16.9" height="13.1"/>
					<rect x="602.8" y="500.5" class="st3" width="16.9" height="13.1"/>
				</g>
				<g>
					<rect x="464.4" y="500.5" class="st2" width="16.9" height="13.1"/>
					<rect x="490.5" y="500.5" class="st2" width="16.9" height="13.1"/>
					<rect x="516.5" y="500.5" class="st3" width="16.9" height="13.1"/>
					<rect x="542.5" y="500.5" class="st3" width="16.9" height="13.1"/>
				</g>
			</g>
			<path class="st1" d="M936.3,502.2v89c0,3.6-3,6.6-6.6,6.6H94.3c-3.7,0-6.6-3-6.6-6.6v-89c0-3.7,3-6.6,6.6-6.6h44.6v44.2h746.2
				v-44.2h44.6C933.3,495.6,936.3,498.5,936.3,502.2z"/>
			<path class="st2" d="M936.3,502.2v89c0,3.6-3,6.6-6.6,6.6H512v-58h373.1v-44.2h44.6C933.3,495.6,936.3,498.5,936.3,502.2z"/>
			<g>
				<g>
					<path class="st2" d="M537.5,782.3h-51.2v-38.8c0-14.1,11.4-25.5,25.5-25.5h0.2c7,0,13.3,2.9,17.9,7.5c4.6,4.6,7.5,11,7.5,18.1
						l0.1,25.5V782.3z"/>
					<path class="st2" d="M467.6,782.3h-51.2v-38.8c0-14.1,11.4-25.5,25.5-25.5l0,0c14.1,0,25.5,11.4,25.5,25.5L467.6,782.3
						L467.6,782.3z"/>
					<path class="st2" d="M607.5,782.3h-51.2v-38.8c0-14.1,11.4-25.5,25.5-25.5c7,0,13.4,2.9,18,7.5s7.5,11,7.5,18.1l0.1,25.5
						L607.5,782.3z"/>
				</g>
				<g>
					<path class="st2" d="M633.2,775.8v30.7c0,3.8-3,6.8-6.8,6.8H397.5c-3.8,0-6.8-3-6.8-6.8v-30.7c0-3.8,3-6.8,6.8-6.8h228.9
						C630.2,769,633.2,772,633.2,775.8z"/>
				</g>
			</g>
			<path class="st2" d="M640.5,350.7l0.2,61.2H512v-68h121.7C637.5,343.9,640.5,346.9,640.5,350.7z"/>
			<path class="st2" d="M875.5,148c0,9.2-5.9,17.7-15,20.7L512,284.1v-46.5l334.8-110.9c11.4-3.8,23.7,2.5,27.5,14.1
				C875.1,143.2,875.5,145.7,875.5,148z"/>
			<g>
				<path class="st5" d="M577.8,473.2H445.9c-2.8,0-5.1-2.3-5.1-5.1V317.2c0-2.8,2.3-5.1,5.1-5.1h131.9c2.8,0,5.1,2.3,5.1,5.1V468
					C583.1,470.9,580.8,473.2,577.8,473.2z"/>
				<path class="st6" d="M577.8,473.2H512V312.1h65.8c2.8,0,5.1,2.3,5.1,5.1V468C583.1,470.9,580.8,473.2,577.8,473.2z"/>
				<g>
					<path class="st7" d="M571.3,358.8c0,1.4-0.5,2.6-1.4,3.5s-2.1,1.4-3.4,1.4H457.1c-2.7,0-4.8-2.2-4.8-4.8c0-1.3,0.5-2.5,1.4-3.4
						s2.1-1.4,3.4-1.4h109.4C569.2,354,571.3,356.2,571.3,358.8z"/>
					<path class="st7" d="M571.3,381c0,1.3-0.5,2.5-1.4,3.4s-2.1,1.4-3.4,1.4H457.1c-2.7,0-4.8-2.2-4.8-4.8c0-1.3,0.5-2.5,1.4-3.4
						s2.1-1.4,3.4-1.4h109.4C569.2,376.2,571.3,378.4,571.3,381z"/>
					<path class="st7" d="M571.3,403.1c0,1.3-0.5,2.5-1.4,3.4s-2.1,1.4-3.4,1.4H457.1c-2.7,0-4.8-2.2-4.8-4.8c0-1.3,0.5-2.5,1.4-3.4
						s2.1-1.4,3.4-1.4h109.4C569.2,398.3,571.3,400.4,571.3,403.1z"/>
					<path class="st7" d="M571.3,425.3c0,1.3-0.5,2.5-1.4,3.4s-2.1,1.4-3.4,1.4H457.1c-2.7,0-4.8-2.2-4.8-4.8c0-1.3,0.5-2.5,1.4-3.4
						s2.1-1.4,3.4-1.4h109.4C569.2,420.5,571.3,422.6,571.3,425.3z"/>
					<path class="st7" d="M571.3,447.3c0,1.3-0.5,2.5-1.4,3.4s-2.1,1.4-3.4,1.4H457.1c-2.7,0-4.8-2.2-4.8-4.8c0-1.3,0.5-2.5,1.4-3.4
						s2.1-1.4,3.4-1.4h109.4C569.2,442.5,571.3,444.7,571.3,447.3z"/>
					<path class="st7" d="M534.9,330.7c0,1.3-0.5,2.5-1.4,3.4s-2.1,1.4-3.4,1.4h-36.5c-2.6,0-4.8-2.2-4.8-4.8c0-1.3,0.5-2.5,1.4-3.4
						s2.1-1.4,3.4-1.4h36.5C532.7,325.8,534.9,328,534.9,330.7z"/>
				</g>
				<g>
					<path class="st8" d="M530.1,335.5H512v-9.6h18.1c2.6,0,4.8,2.2,4.8,4.8c0,1.3-0.5,2.5-1.4,3.4
						C532.6,334.9,531.4,335.5,530.1,335.5z"/>
					<path class="st8" d="M571.3,447.3c0,1.3-0.5,2.5-1.4,3.4s-2.1,1.4-3.4,1.4H512v-9.6h54.5C569.2,442.5,571.3,444.7,571.3,447.3z
						"/>
					<path class="st8" d="M571.3,425.3c0,1.3-0.5,2.5-1.4,3.4s-2.1,1.4-3.4,1.4H512v-9.6h54.5C569.2,420.5,571.3,422.6,571.3,425.3z
						"/>
					<path class="st8" d="M571.3,403.1c0,1.3-0.5,2.5-1.4,3.4s-2.1,1.4-3.4,1.4H512v-9.6h54.5C569.2,398.3,571.3,400.4,571.3,403.1z
						"/>
					<path class="st8" d="M571.3,381c0,1.3-0.5,2.5-1.4,3.4s-2.1,1.4-3.4,1.4H512v-9.6h54.5C569.2,376.2,571.3,378.4,571.3,381z"/>
					<path class="st8" d="M566.5,363.6H512V354h54.5c2.6,0,4.8,2.2,4.8,4.8c0,1.4-0.5,2.6-1.4,3.5
						C569.1,363.1,567.9,363.6,566.5,363.6z"/>
				</g>
			</g>
			<rect x="110.7" y="469.2" class="st2" width="802.5" height="26.4"/>
			<path class="st3" d="M633.2,775.8v30.7c0,3.8-3,6.8-6.8,6.8H512V718c7,0,13.3,2.9,17.9,7.5c4.6,4.6,7.5,11,7.5,18.1l0.1,25.5
				h18.8v-25.5c0-14.1,11.4-25.5,25.5-25.5c7,0,13.4,2.9,18,7.5s7.5,11,7.5,18.1l0.1,25.5h19C630.2,769,633.2,772,633.2,775.8z"/>
			<rect x="512" y="469.2" class="st3" width="401.3" height="26.4"/>
			<rect x="512" y="513.6" class="st6" width="373.1" height="26.4"/>
		</g>
	</g>
</g>
<g>
	<path class="st9" d="M929.7,490.6h-11.5l0.1-95.8c0-6.3-5.1-11.5-11.5-11.6l-90.4-194.6l45.7-15.1c11-3.6,18.4-13.9,18.4-25.4
		c0-3-0.5-6.1-1.6-8.8c-2.3-6.9-7.1-12.4-13.5-15.7c-6.4-3.2-13.6-3.7-20.3-1.5L510.3,233L124,361c-11,3.6-18.4,13.9-18.4,25.6
		c0,0.8,0,1.6,0.1,2.3v101.7H94.3c-6.4,0-11.6,5.2-11.6,11.6v89c0,6.4,5.2,11.6,11.6,11.6h4.5v73.7c0,2.8,2.2,5,5,5s5-2.2,5-5v-73.7
		H150v166.4c0,2.8,2.2,5,5,5s5-2.2,5-5V602.8h321.3v140.7V764h-8.8l-0.1-20.5c0-8.1-3.2-15.8-8.9-21.6c-5.8-5.8-13.4-8.9-21.6-8.9
		c-16.8,0-30.5,13.7-30.5,30.5V764h-13.9c-6.5,0-11.8,5.3-11.8,11.8v30.7c0,6.5,5.3,11.8,11.8,11.8h228.9c6.5,0,11.8-5.3,11.8-11.8
		v-30.7c0-6.5-5.3-11.8-11.8-11.8h-14l-0.1-20.4c0-8.2-3.2-15.9-9-21.6c-5.8-5.8-13.4-9-21.5-9c-16.8,0-30.5,13.7-30.5,30.5V764
		h-8.8V602.8h321.3v166.7c0,2.8,2.2,5,5,5s5-2.2,5-5V602.8h41.3V677c0,2.8,2.2,5,5,5s5-2.2,5-5v-74.2h4.6c6.4,0,11.6-5.2,11.6-11.6
		v-89C941.3,495.8,936.1,490.6,929.7,490.6z M895.8,383.2h-16.5l-86.7-186.7l14.3-4.7L895.8,383.2z M577.9,468.2c0,0-0.1,0-0.1,0
		H445.9c0,0-0.1-0.1-0.1-0.1V317.2c0,0,0.1-0.1,0.1-0.1h131.9c0,0,0.1,0.1,0.1,0.1V468C577.9,468.1,577.9,468.1,577.9,468.2z
		 M228.8,383.2l207.4-68.7c-0.2,0.9-0.4,1.8-0.4,2.7v21.7H390c-6.5,0-11.8,5.3-11.8,11.8v32.5H228.8z M388.2,350.7
		c0-1,0.8-1.8,1.8-1.8h45.8v34.3h-47.6V350.7z M587.9,348.9h45.7c1,0,1.8,0.8,1.8,1.8l0.1,32.5h-47.6V348.9z M645.5,383.2l-0.1-32.5
		c0-6.5-5.3-11.8-11.8-11.8h-45.7v-21.7c0-5.6-4.5-10.1-10.1-10.1H458.5l55.1-18.3L783,199.6l85.2,183.6H645.5z M127.2,370.4
		l386.3-128l334.8-110.9c4.2-1.4,8.7-1.1,12.6,0.9c4.1,2,7.1,5.6,8.5,10c0,0.1,0.1,0.2,0.1,0.3c0.6,1.6,1,3.5,1,5.3
		c0,7.3-4.6,13.7-11.6,16l-51,16.9l-297.5,98.5L197,383.2h-81C117.1,377.3,121.3,372.4,127.2,370.4z M115.7,393.2h320.1v74.9
		c0,5.6,4.5,10.1,10.1,10.1h131.9c2.9,0,5.6-1.2,7.5-3.2c1.8-1.9,2.7-4.5,2.6-7.1v-74.7h52.6c0,0,0,0,0,0h235.5c0,0,0,0,0,0
		c0,0,0,0,0,0h27.5c0,0,0,0,0,0c0,0,0,0,0,0h2.9c0.9,0,1.7,0.7,1.7,1.6l-0.1,95.8h-23.1c-2.8,0-5,2.2-5,5v39.2H143.9v-39.2
		c0-2.8-2.2-5-5-5h-23.2V393.2z M491.3,743.5c0-11.3,9.2-20.5,20.5-20.5h0.2c5.4,0,10.5,2.1,14.4,6c3.9,3.9,6,9.1,6,14.6l0.1,20.4
		h-41.2V743.5z M421.4,743.5c0-11.3,9.2-20.5,20.5-20.5c5.5,0,10.6,2.1,14.5,6c3.9,3.9,6,9,6,14.5l0.1,20.5h-41.1V743.5z
		 M628.2,775.8v30.7c0,1-0.8,1.8-1.8,1.8H397.5c-1,0-1.8-0.8-1.8-1.8v-30.7c0-1,0.8-1.8,1.8-1.8h70c0,0,0,0,0,0h69.9c0,0,0,0,0,0
		h69.9c0,0,0,0,0,0h19C627.4,774,628.2,774.8,628.2,775.8z M561.3,743.5c0-11.3,9.2-20.5,20.5-20.5c5.4,0,10.6,2.1,14.5,6
		c3.9,3.9,6,9.1,6,14.6l0.1,20.4h-41.1V743.5z M532.5,721.1c-5.7-5.2-12.9-8.1-20.5-8.1h-0.2c-7.9,0-15.1,3-20.5,7.9V602.8h41.2
		V721.1z M931.3,591.2c0,0.8-0.8,1.6-1.6,1.6H94.3c-0.9,0-1.6-0.7-1.6-1.6v-89c0-0.9,0.7-1.6,1.6-1.6h39.6v39.2c0,2.8,2.2,5,5,5
		h14.8c0.4,0.1,0.9,0.2,1.3,0.2h331.3h51.2h331.3c0.5,0,0.9-0.1,1.3-0.2h15c2.8,0,5-2.2,5-5v-39.2h23.1c0,0,0,0,0,0h16.5
		c0.9,0,1.6,0.7,1.6,1.6V591.2z"/>
	<g>
		<path class="st1" d="M927.6,658.2c-10.2-4.1-21.9,0.8-26,11c-12.6,31.3-29.1,61.1-49,88.5c-6.5,9-4.5,21.5,4.5,27.9
			c3.5,2.6,7.6,3.8,11.7,3.8c6.2,0,12.3-2.9,16.2-8.3c21.7-30.1,39.8-62.7,53.6-97C942.8,674,937.8,662.4,927.6,658.2z"/>
		<path class="st1" d="M796.9,820.6C719.1,892.5,617.9,932,512,932c-103,0-202-37.6-278.9-106c-8.3-7.3-20.9-6.6-28.2,1.7
			c-7.3,8.3-6.6,20.9,1.7,28.2C290.7,930.8,399.2,972,512,972c116,0,226.8-43.3,312-122c8.1-7.5,8.6-20.1,1.1-28.3
			C817.6,813.6,805,813.1,796.9,820.6z"/>
		<path class="st1" d="M122.3,669c-4.1-10.2-15.8-15.2-26-11.1c-10.2,4.1-15.2,15.8-11.1,26c13.8,34.3,31.8,66.9,53.5,96.9
			c3.9,5.4,10,8.3,16.2,8.3c4.1,0,8.1-1.2,11.7-3.8c9-6.5,11-19,4.5-27.9C151.4,730.1,134.9,700.3,122.3,669z"/>
		<path class="st1" d="M125.2,301.2c3.2,2,6.8,2.9,10.4,2.9c6.8,0,13.4-3.4,17.1-9.6c36.8-60.6,88.7-111.4,150.2-146.8
			C366.2,111.3,438.5,92,512,92c62.6,0,122.8,13.4,178.9,39.9c10,4.7,21.9,0.4,26.6-9.6c4.7-10,0.4-21.9-9.6-26.6
			C646.5,66.7,580.5,52,512,52c-80.5,0-159.7,21.1-229.1,61c-67.3,38.7-124.2,94.3-164.4,160.7C112.7,283.2,115.7,295.5,125.2,301.2
			z"/>
	</g>
</g>
</svg>
