<?xml version="1.0" encoding="utf-8"?>
<!-- Generator: Adobe Illustrator 24.0.0, SVG Export Plug-In . SVG Version: 6.00 Build 0)  -->
<svg version="1.1" id="Capa_1" xmlns="http://www.w3.org/2000/svg" xmlns:xlink="http://www.w3.org/1999/xlink" x="0px" y="0px"
	 viewBox="0 0 1024 1024" style="enable-background:new 0 0 1024 1024;" xml:space="preserve">
<style type="text/css">
	.st0{fill:#9DD4A9;}
	.st1{fill:#534A9A;}
	.st2{fill:#BAE4FA;}
	.st3{fill:#F9B630;}
	.st4{fill:#F9A40D;}
	.st5{fill:#F473C3;}
	.st6{fill:#C640A6;}
	.st7{fill:#FFFFFF;}
	.st8{fill:#FFD071;}
</style>
<circle class="st0" cx="512" cy="512" r="440"/>
<g>
	<path class="st1" d="M952,512c0,58.4-11.3,114-31.9,165c-10.2,25.2-22.6,49.1-37.1,71.7c-4.5,7.1-9.2,14-14.2,20.8
		c-7.6,10.5-15.6,20.6-24,30.4c-1.5,1.7-3,3.4-4.5,5c-8.7,9.7-17.8,19-27.2,28c-0.7,0.7-1.5,1.4-2.2,2.1
		c-39,36.1-84.6,65.3-134.8,85.4C625.3,940.8,570,952,512,952c-90.8,0-175.2-27.5-245.2-74.7c-4.5-3-9-6.2-13.5-9.4
		c-23.3-17-44.9-36.2-64.4-57.3V132.7h546.3c3,1.8,6.1,3.6,9.1,5.5c7.7,4.8,15.2,9.8,22.6,15.1c4.5,3.2,9,6.5,13.4,9.9
		c2.6,2,5.2,4,7.8,6.1c0.2,0.1,0.3,0.3,0.5,0.4c4,3.3,8,6.6,12,10.1c2.3,2,4.6,4,6.9,6.1l0.3,0.3c1.2,1,2.4,2.1,3.5,3.2
		c0.6,0.6,1.2,1.1,1.8,1.7c6.7,6.2,13.1,12.7,19.4,19.3c19.6,20.8,37.2,43.5,52.5,67.9c4,6.3,7.8,12.7,11.4,19.3
		c6.2,11.1,12,22.6,17.3,34.3c0.8,1.9,1.7,3.7,2.5,5.6c0.7,1.7,1.5,3.4,2.2,5.1c3.2,7.5,6.1,15.2,8.8,22.8c4.8,13.7,9,27.7,12.5,42
		C947.7,440.9,952,475.9,952,512z"/>
	<path class="st2" d="M952,512c0,58.4-11.3,114-31.9,165c-10.2,25.2-22.6,49.1-37.1,71.7c-4.5,7.1-9.2,14-14.2,20.8
		c-7.6,10.5-15.6,20.6-24,30.4c-1.5,1.7-3,3.4-4.5,5c-8.7,9.7-17.8,19-27.2,28c-0.7,0.7-1.5,1.4-2.2,2.1
		c-39,36.1-84.6,65.3-134.8,85.4C625.3,940.8,570,952,512,952c-90.8,0-175.2-27.5-245.2-74.7V210.4h565.6
		c19.6,20.8,37.2,43.5,52.5,67.9c4,6.3,7.8,12.7,11.4,19.3c6.2,11.1,12,22.6,17.3,34.3c0.8,1.9,1.7,3.7,2.5,5.6
		c0.7,1.7,1.5,3.4,2.2,5.1c3.2,7.5,6.1,15.2,8.8,22.8c4.8,13.7,9,27.7,12.5,42C947.7,440.9,952,475.9,952,512z"/>
</g>
<g>
	<path class="st3" d="M919.5,472.1c0,10.1-0.5,20.1-1.4,29.9c-6.2,64.6-32.5,123.2-72.4,169.8c-0.8,0.9-1.5,1.8-2.3,2.7
		c-8.8,10-18.3,19.5-28.3,28.3c-47.6,41.8-108.1,69.1-174.9,75c-9.1,0.8-18.2,1.2-27.5,1.2c-4.3,0-8.5-0.1-12.8-0.3
		c-37-1.5-72.3-9.6-104.8-23.1c-31.1-13-59.7-30.9-84.7-52.8c-4-3.5-8-7.2-11.8-10.9c0-0.1-0.1-0.1-0.2-0.2l-2.6-2.6
		c-4.7-4.7-9.3-9.6-13.7-14.6c-0.8-0.9-1.5-1.8-2.3-2.7c-43.9-51.2-71.2-117.1-73.6-189.3c-0.1-3.5-0.2-6.9-0.2-10.4
		c0-10.1,0.5-20,1.4-29.9c2.6-27.4,8.9-53.7,18.2-78.5c12.7-33.7,31.2-64.5,54.2-91.4c0.8-0.9,1.5-1.8,2.3-2.7
		c8.8-10,18.3-19.5,28.3-28.3c47.6-41.7,108.1-69,174.9-74.9c9-0.8,18.2-1.2,27.4-1.2c4.3,0,8.6,0.1,12.9,0.3
		c72.5,3,138.5,31.1,189.5,75.9c5,4.4,9.9,9,14.6,13.7l2.6,2.6c0.1,0,0.1,0.1,0.2,0.2c3.7,3.8,7.3,7.9,10.8,11.9
		c0.8,0.9,1.5,1.8,2.3,2.7l0.1-0.1c23,26.8,41.5,57.7,54.2,91.4c11.5,30.6,18.3,63.5,19.5,97.9C919.4,465.1,919.5,468.6,919.5,472.1
		z"/>
	<path class="st4" d="M919.5,472.1c0,10.1-0.5,20.1-1.4,29.9c-6.2,64.6-32.5,123.2-72.4,169.8c-0.8,0.9-1.5,1.8-2.3,2.7
		c-8.8,10-18.3,19.5-28.3,28.3c-47.6,41.8-108.1,69.1-174.9,75c-9.1,0.8-18.2,1.2-27.5,1.2c-4.3,0-8.5-0.1-12.8-0.3
		c-37-1.5-72.3-9.6-104.8-23.1c-31.1-13-59.7-30.9-84.7-52.8c-4-3.5-8-7.2-11.8-10.9L832.5,258c3.7,3.8,7.3,7.9,10.8,11.9
		c0.8,0.9,1.5,1.8,2.3,2.7l0.1-0.1c23,26.8,41.5,57.7,54.2,91.4c11.5,30.6,18.3,63.5,19.5,97.9C919.4,465.1,919.5,468.6,919.5,472.1
		z"/>
	<path class="st5" d="M918,502c-63.9,6.4-123.7,32.3-172.4,74.7l97.7,97.7c-8.8,10.1-18.3,19.5-28.3,28.3l-97.9-97.9
		c-43.3,48.6-70,108.6-77,172.9c-9,0.8-18.2,1.2-27.5,1.2c-4.3,0-8.6-0.1-12.8-0.3c3.4-35.7,12.1-70.4,26.1-103.5
		c15.4-36.4,36.5-69.5,62.9-98.7l-76.1-76.1L410.4,702.7c-4-3.5-8-7.1-11.8-10.9c-0.1-0.1-0.1-0.2-0.2-0.2l-2.6-2.6c0,0,0,0-0.1-0.1
		c-4.7-4.7-9.3-9.6-13.6-14.5L584.5,472l-76.3-76.3c-28.5,25.3-60.6,45.5-95.8,60.4c-34,14.3-69.6,23.2-106.2,26.3
		c-0.1-3.4-0.2-6.9-0.2-10.4c0-10.1,0.5-20.1,1.4-29.9c63.9-6.4,123.7-32.3,172.4-74.7l-97.7-97.7c8.8-10.1,18.3-19.5,28.3-28.3
		l97.9,97.9c43.3-48.6,70-108.5,77-172.8c9-0.8,18.2-1.2,27.4-1.2c4.4,0,8.6,0.1,12.9,0.3c-3.4,35.6-12.1,70.3-26.1,103.4
		c-15.4,36.4-36.5,69.5-62.9,98.7l76.1,76.1L815,241.5c5,4.4,9.8,9,14.5,13.6c0,0,0,0,0.1,0.1l2.6,2.6c0.1,0.1,0.2,0.2,0.2,0.2
		c3.7,3.8,7.3,7.8,10.8,11.9L641,472.1l76.3,76.3c28.5-25.2,60.7-45.5,95.8-60.4c34-14.3,69.6-23.2,106.2-26.3
		c0.1,3.4,0.2,6.9,0.2,10.4C919.5,482.2,919,492.1,918,502z"/>
	<path class="st6" d="M918,502c-63.9,6.4-123.7,32.3-172.4,74.7l97.7,97.7c-8.8,10.1-18.3,19.5-28.3,28.3l-97.9-97.9
		c-43.3,48.6-70,108.6-77,172.9c-9,0.8-18.2,1.2-27.5,1.2c-4.3,0-8.6-0.1-12.8-0.3c3.4-35.7,12.1-70.4,26.1-103.5
		c15.4-36.4,36.5-69.5,62.9-98.7l-76.1-76.1L410.4,702.7c-4-3.5-8-7.1-11.8-10.9c-0.1-0.1-0.1-0.2-0.2-0.2l-2.6-2.6c0,0,0,0-0.1-0.1
		l433.8-433.8c0,0,0,0,0.1,0.1l2.6,2.6c0.1,0.1,0.2,0.2,0.2,0.2c3.7,3.8,7.3,7.8,10.8,11.9L641,472.1l76.3,76.3
		c28.5-25.2,60.7-45.5,95.8-60.4c34-14.3,69.6-23.2,106.2-26.3c0.1,3.4,0.2,6.9,0.2,10.4C919.5,482.2,919,492.1,918,502z"/>
</g>
<path class="st7" d="M957,508.2c0-0.1,0-0.2,0-0.2c0-3.9-0.1-7.9-0.3-11.9c0-1.1-0.1-2.1-0.1-3.1c-0.1-1.3-0.1-2.5-0.2-3.8
	c0-0.7-0.1-1.4-0.1-2.1l-0.1-2.1c0-0.7-0.1-1.5-0.1-2.2l-0.1-1.2c-0.1-0.9-0.1-1.9-0.2-2.8l-0.1-1.4c0,0,0-0.1,0-0.1
	c0-0.4-0.1-0.7-0.1-1.1c0,0,0,0,0,0l0-0.3c-0.1-1.4-0.2-2.8-0.3-4.2c-0.3-3-0.6-6-0.9-8.9c-0.1-1.2-0.3-2.4-0.4-3.6
	c0-0.3-0.1-0.7-0.1-1c-0.1-1-0.3-2.1-0.4-3.1l-0.4-3.1c0,0,0-0.1,0-0.2l0,0c0,0,0-0.1,0-0.1l0,0c0-0.2-0.1-0.4-0.1-0.6
	c-0.2-1.3-0.4-2.5-0.5-3.8c-0.1-0.8-0.2-1.6-0.4-2.5c-1.9-12.9-4.4-25.7-7.4-38.4c-3.4-14.1-7.7-28.4-12.6-42.5
	c-3.2-9-6-16.3-8.9-23c-0.4-0.9-0.8-1.8-1.1-2.7c-0.4-0.8-0.7-1.6-1.1-2.5c-0.4-1-0.9-2-1.3-2.9c-0.4-0.9-0.8-1.8-1.2-2.7
	c0,0,0-0.1-0.1-0.1c-5.3-11.8-11.2-23.5-17.5-34.6c-3.6-6.5-7.3-12.9-11.6-19.6c-15.3-24.4-33.2-47.5-53.1-68.7
	c-7.7-8-13.7-14-19.6-19.5c-0.3-0.3-0.7-0.6-1-0.9c-0.2-0.2-0.5-0.5-0.7-0.7c-1.2-1.2-2.4-2.3-3.7-3.4l-0.1-0.1
	c-0.1-0.1-0.1-0.1-0.2-0.2c-2.4-2.2-4.7-4.2-7-6.2c-4.1-3.5-8.1-6.9-12.1-10.2c0,0-0.1-0.1-0.1-0.1c-0.2-0.1-0.4-0.3-0.6-0.5
	c-2.6-2.1-5.2-4.1-7.7-6c-4.1-3.2-8.5-6.4-13.5-10c-7.4-5.3-14.9-10.3-22.8-15.3c-2.2-1.4-4.5-2.8-6.8-4.1c-0.8-0.5-1.6-1-2.4-1.5
	c-0.8-0.5-1.7-0.7-2.6-0.7H188.9c-2.8,0-5,2.2-5,5v677.9c0,1.3,0.5,2.5,1.3,3.4c19.6,21.2,41.5,40.7,65.1,57.9c0,0,0.1,0.1,0.1,0.1
	c4.4,3.2,9,6.4,13.5,9.4c73.3,49.4,159.1,75.6,248,75.6c57.3,0,113.2-10.8,166-32c44-17.6,84.6-42.1,121-72.8
	c5.2-4.4,10.3-8.9,15.3-13.6c0,0,0.1-0.1,0.1-0.1c0.3-0.3,0.6-0.6,1-0.9c0.4-0.4,0.8-0.7,1.2-1.1c2.5-2.4,4.9-4.8,7.3-7.1
	c7.1-7.1,13.8-14,20.1-21.1c0.8-0.8,1.5-1.6,2.3-2.5c0.8-0.8,1.5-1.7,2.3-2.5c0,0,0.1-0.1,0.1-0.1c6.5-7.5,12.7-15.2,18.5-23
	c1.9-2.6,3.9-5.2,5.7-7.7c5-6.8,9.7-13.7,14.4-21.1c14.7-22.9,27.3-47.3,37.5-72.5c21.4-53,32.3-109.1,32.3-166.9
	C957,510.7,957,509.4,957,508.2z M193.9,808.6V137.7h539.9c0.4,0.3,0.9,0.5,1.3,0.8c2.2,1.3,4.4,2.6,6.6,4
	c7.8,4.9,15.1,9.7,22.3,14.9c4.9,3.5,9.2,6.7,13.2,9.8c2.5,1.9,5.1,3.9,7.7,6c0,0,0.1,0,0.1,0.1c0.1,0.1,0.3,0.3,0.6,0.5
	c3.8,3.2,7.8,6.4,11.7,9.8c2.2,1.9,4.5,3.9,6.7,5.9l0.2,0.2c0.1,0.1,0.2,0.2,0.3,0.3c1.1,0.9,2.2,1.9,3.2,2.9c0.4,0.4,0.7,0.7,1.1,1
	c0.2,0.2,0.5,0.5,0.7,0.7c0,0,0.1,0.1,0.1,0.1c3.5,3.2,7,6.7,11,10.6h-46.2c-44.8-27.2-96.1-42.7-148.6-44.9
	c-13.7-0.6-27.6-0.3-41,0.9c-47.8,4.2-92.9,19-133.9,44H266.8c-2.8,0-5,2.2-5,5v657.4c-1.9-1.3-3.7-2.6-5.6-3.9
	C233.7,847.4,212.8,828.9,193.9,808.6z M454.9,214.7c38.3-23.5,80.2-37.9,124.7-42.7c-0.2,1.6-0.4,3.2-0.7,4.8
	c0,0.3-0.1,0.5-0.1,0.8c-0.2,1.4-0.4,2.9-0.7,4.3c-0.1,0.6-0.2,1.1-0.3,1.7c-0.2,1.1-0.4,2.3-0.6,3.4c-0.1,0.6-0.2,1.3-0.4,1.9
	c-0.2,1.1-0.4,2.1-0.6,3.2c-0.1,0.7-0.3,1.3-0.4,2c-0.2,1.1-0.4,2.1-0.7,3.2c-0.1,0.6-0.3,1.2-0.4,1.9c-0.3,1.2-0.5,2.3-0.8,3.5
	c-0.1,0.5-0.2,1-0.4,1.6c-0.4,1.7-0.8,3.3-1.2,5c0,0,0,0,0,0c-11.6,44.9-33.8,87.3-64.4,122.8l-90.4-90.4
	C429.4,231.7,441.9,222.7,454.9,214.7z M533.1,371.2l76.1,76.1c2,2,5.1,2,7.1,0l199-199c3.9,3.6,7.6,7.1,10.8,10.2l2.9,2.9
	c2.5,2.5,5,5.2,7.6,8.2L637.5,468.6c-2,2-2,5.1,0,7.1l76.3,76.3c1.9,1.9,4.9,2,6.8,0.2c28.1-24.8,59.9-44.9,94.4-59.5
	c32-13.5,65.5-22,99.4-25.4c0,0.8,0,1.6,0,2.4c0,0,0,0,0,0c0,0.9,0,1.7,0,2.6c0,3.7-0.1,7.5-0.2,11.1c0,0,0,0,0,0
	c-0.2,4.7-0.5,9.5-0.9,14.2c-63.5,7.2-122.6,33.2-171.1,75.5c-1,0.9-1.7,2.2-1.7,3.6c0,1.4,0.5,2.7,1.5,3.7l94.4,94.4
	c-6.5,7.2-13.6,14.3-21.2,21.2l-94.6-94.6c-1-1-2.3-1.5-3.7-1.5c-1.4,0-2.7,0.6-3.6,1.7c-43.1,48.4-70,107.7-77.8,171.6
	c-9.9,0.7-20.2,1-30.3,0.8c3.7-33.4,12.2-66,25.2-96.8c15.2-35.8,36-68.5,62-97.3c1.8-2,1.7-5-0.2-6.9l-76.1-76.1
	c-0.9-0.9-2.2-1.5-3.5-1.5c-1.3,0-2.6,0.5-3.5,1.5l-199,199.1c-2.5-2.3-5.2-4.7-7.8-7.3c-0.2-0.3-0.5-0.5-0.8-0.8l-2.4-2.4
	c-3.5-3.5-7-7.1-10.3-10.8L588,475.5c2-2,2-5.1,0-7.1l-76.3-76.3c-1.9-1.9-4.9-2-6.9-0.2c-28,24.8-59.7,44.8-94.4,59.5
	c-32,13.5-65.5,22-99.4,25.4c0-0.4,0-0.9,0-1.3c0-0.3,0-0.7,0-1c0-0.9,0-1.7,0-2.6c0-1.8,0-3.7,0.1-5.5c0-1.8,0.1-3.7,0.2-5.5
	c0.2-4.7,0.4-9.4,0.8-14.4c63.5-7.2,122.5-33.2,171-75.5c1-0.9,1.7-2.2,1.7-3.6c0-1.4-0.5-2.7-1.5-3.7L389,269.5
	c6.5-7.2,13.6-14.3,21.2-21.2l94.6,94.6c1,1,2.3,1.5,3.7,1.5c1.4,0,2.7-0.6,3.6-1.7c33.5-37.5,57.7-82.8,70.1-131c0,0,0,0,0,0
	c2.1-8.3,3.9-16.7,5.4-25.2c0.9-5.1,1.6-10.2,2.3-15.3c10-0.7,20.3-1,30.3-0.7c-1.5,13.1-3.7,26.2-6.6,38.9c0,0,0,0,0,0c0,0,0,0,0,0
	c-4.5,19.7-10.7,39.1-18.6,57.8c-15.2,35.8-36,68.5-62,97.3C531.1,366.3,531.2,369.4,533.1,371.2z M382.4,277l90.1,90.1
	c-45.6,38.4-100.5,62.2-159.4,69.3c2.8-24.1,8.6-47.9,17.2-71C342.4,333.3,359.9,303.6,382.4,277z M414.3,460.7
	c34.3-14.5,65.7-34.1,93.6-58.2l69.5,69.5L382.4,667.1c-21.3-25.1-38.2-53.3-50.3-83.9c-12.1-30.7-19.1-63.1-20.7-96.3
	C346.6,483.5,381.2,474.7,414.3,460.7z M612.7,507.4l69.2,69.2c-25.3,28.7-45.7,61.2-60.6,96.6c-13.5,31.9-22.2,65.6-26,100.3
	c-33.9-1.9-66.9-9.5-98.3-22.5c-28.9-12.1-55.5-28.4-79.3-48.5L612.7,507.4z M717.3,612.1l90.4,90.4c-46.2,39.2-102,63.2-162,69.7
	C653.4,712.9,678.1,657.7,717.3,612.1z M843.1,667.1L753,577c45.7-38.4,100.6-62.3,159.5-69.3C905.6,566.5,881.7,621.5,843.1,667.1z
	 M811.1,483.4c-34.1,14.5-65.6,34-93.6,58.2l-69.5-69.5l195-195c22.4,26.4,39.9,56.2,52.1,88.5c11,29.3,17.4,60.1,19,91.6
	C879,460.6,844.4,469.4,811.1,483.4z M612.7,436.7l-69.2-69.2c25.3-28.7,45.7-61.2,60.6-96.6c8.1-19.2,14.6-39.2,19.2-59.4
	c0,0,0,0,0,0c0.4-1.8,0.8-3.5,1.2-5.3c0.1-0.6,0.2-1.2,0.4-1.8c0.2-1.2,0.5-2.4,0.7-3.6c0.1-0.7,0.3-1.4,0.4-2.1
	c0.2-1.1,0.4-2.2,0.6-3.3c0.1-0.7,0.3-1.5,0.4-2.2c0.2-1.1,0.4-2.1,0.5-3.2c0.1-0.8,0.2-1.5,0.4-2.3c0.2-1.1,0.3-2.1,0.5-3.2
	c0.1-0.8,0.2-1.5,0.3-2.3c0.1-1.1,0.3-2.1,0.4-3.2c0.1-0.8,0.2-1.5,0.3-2.3c0.1-1.1,0.3-2.2,0.4-3.3c0.1-0.7,0.2-1.5,0.3-2.2
	c0-0.2,0-0.4,0.1-0.5c49.7,2.8,98.1,18,140.4,43.9c13,8,25.6,17.1,37.3,27L612.7,436.7z M915.5,675.1c-1.2,3.1-2.5,6.2-3.9,9.2
	c-9.2,21.4-20.3,42.1-32.8,61.7c-3.4,5.4-6.8,10.5-10.4,15.5c-1.2,1.7-2.4,3.4-3.6,5c-7.3,10.1-15.3,20.2-23.7,30.1
	c-1.4,1.6-2.9,3.3-4.4,4.8c0,0,0,0.1-0.1,0.1c-8.3,9.2-17.1,18.3-26.9,27.7c0,0-0.1,0-0.1,0.1c-0.3,0.3-0.6,0.6-1,0.9
	c-0.4,0.4-0.8,0.7-1.2,1.1c-39.2,36.3-84,64.7-133.2,84.4C622.6,936.5,568,947,512,947c-2.7,0-5.4,0-8.1-0.1c-0.9,0-1.8-0.1-2.7-0.1
	c-1.8,0-3.6-0.1-5.4-0.1c-1.1,0-2.2-0.1-3.2-0.1c-1.6-0.1-3.2-0.1-4.8-0.2c-1.2-0.1-2.4-0.2-3.5-0.2c-1.5-0.1-3-0.2-4.5-0.3
	c-1.2-0.1-2.4-0.2-3.6-0.3c-1.5-0.1-2.9-0.2-4.4-0.4c-1.2-0.1-2.5-0.2-3.7-0.4c-1.4-0.1-2.9-0.3-4.3-0.4c-1.3-0.1-2.5-0.3-3.8-0.4
	c-1.4-0.2-2.8-0.3-4.2-0.5c-1.3-0.2-2.5-0.3-3.8-0.5c-1.4-0.2-2.8-0.4-4.1-0.6c-1.3-0.2-2.5-0.4-3.8-0.6c-1.4-0.2-2.7-0.4-4.1-0.7
	c-1.3-0.2-2.5-0.4-3.8-0.7c-1.4-0.2-2.7-0.5-4.1-0.7c-1.3-0.2-2.5-0.5-3.7-0.7c-1.4-0.3-2.7-0.5-4.1-0.8c-1.2-0.3-2.5-0.5-3.7-0.8
	c-1.4-0.3-2.7-0.6-4.1-0.9c-1.2-0.3-2.5-0.6-3.7-0.9c-1.4-0.3-2.7-0.6-4.1-1c-1.2-0.3-2.4-0.6-3.7-0.9c-1.4-0.3-2.7-0.7-4.1-1
	c-1.2-0.3-2.4-0.7-3.6-1c-1.3-0.4-2.7-0.7-4-1.1c-1.2-0.3-2.4-0.7-3.6-1c-1.3-0.4-2.7-0.8-4-1.2c-1.2-0.4-2.4-0.7-3.5-1.1
	c-1.3-0.4-2.7-0.8-4-1.3c-1.2-0.4-2.3-0.8-3.5-1.2c-1.4-0.4-2.7-0.9-4-1.4c-1.2-0.4-2.3-0.8-3.5-1.2c-1.4-0.5-2.7-1-4-1.4
	c-1.1-0.4-2.3-0.8-3.4-1.3c-1.3-0.5-2.7-1-4-1.5c-1.1-0.4-2.2-0.9-3.4-1.3c-1.3-0.5-2.7-1.1-4-1.6c-1.1-0.5-2.2-0.9-3.3-1.4
	c-1.3-0.6-2.7-1.1-4-1.7c-1.1-0.5-2.2-1-3.3-1.4c-1.3-0.6-2.7-1.2-4-1.8c-1.1-0.5-2.2-1-3.3-1.5c-1.3-0.6-2.6-1.2-4-1.8
	c-1.1-0.5-2.2-1-3.2-1.6c-1.3-0.6-2.6-1.3-3.9-1.9c-1.1-0.5-2.2-1.1-3.2-1.6c-1.3-0.7-2.6-1.3-3.9-2c-1.1-0.6-2.1-1.1-3.2-1.7
	c-1.3-0.7-2.6-1.4-3.8-2c-1.1-0.6-2.2-1.2-3.2-1.8c-1.3-0.7-2.5-1.4-3.8-2.1c-1.1-0.6-2.2-1.2-3.2-1.9c-1.2-0.7-2.5-1.4-3.7-2.2
	c-1.1-0.6-2.2-1.3-3.2-1.9c-1.2-0.7-2.4-1.5-3.6-2.2c-1.1-0.7-2.2-1.4-3.3-2c-1.2-0.7-2.3-1.5-3.5-2.2c-1.1-0.7-2.2-1.4-3.3-2.2
	c-0.8-0.5-1.5-1-2.3-1.5V215.4h163.7c-9.9,6.8-19.4,14.2-28.4,22.1c-10.1,8.9-19.8,18.6-28.7,28.7c-0.4,0.5-0.8,1-1.3,1.5
	c-0.3,0.4-0.7,0.8-1.1,1.3c-23.8,27.9-42.3,59.1-55.1,92.9c-9.7,25.8-15.9,52.6-18.5,79.6c0,0,0,0.1,0,0.1c-0.1,1.1-0.2,2.3-0.3,3.4
	c-0.1,0.6-0.1,1.3-0.2,1.9c-0.1,1.2-0.2,2.3-0.2,3.5c-0.1,1.5-0.2,2.9-0.3,4.3c0,0.3,0,0.7-0.1,1c-0.1,1.6-0.2,3.2-0.2,4.8
	c0,0,0,0,0,0c0,1.2-0.1,2.3-0.1,3.5c-0.1,2.6-0.1,5.3-0.1,7.9c0,0.9,0,1.8,0,2.7c0,0.5,0,1.1,0,1.6c0,0.4,0,0.7,0,1.1
	c0,0.9,0,1.7,0.1,2.6c0,0,0,0,0,0c0,0.8,0,1.7,0.1,2.5v0c0,0.1,0,0.1,0,0.2c1.2,35.9,8.5,71,21.6,104.2
	c12.7,32.2,30.6,61.8,53.3,88.3c0.4,0.4,0.7,0.8,1,1.2c0.4,0.5,0.8,1,1.2,1.5c4.5,5.1,9.1,10,13.9,14.8l2.6,2.6c0,0,0.1,0.1,0.1,0.1
	c0,0,0.1,0.1,0.1,0.1c3.9,3.8,8,7.6,12,11.1c25.6,22.4,54.6,40.5,86.1,53.7c33.9,14.1,69.8,22,106.5,23.5c4.4,0.2,8.7,0.3,13,0.3
	c9.5,0,18.6-0.4,27.9-1.2c66.2-5.8,127.6-32.2,177.8-76.2c10.1-8.9,19.8-18.6,28.7-28.7c0.4-0.5,0.8-1,1.3-1.5
	c0.3-0.4,0.7-0.8,1.1-1.3c42-49.1,67.5-108.7,73.6-172.6c0.6-6.4,1-12.8,1.2-18.9c0.1-3.8,0.2-7.7,0.2-11.5c0-0.9,0-1.8,0-2.7
	c0,0,0,0,0,0c0-1,0-2.1,0-3.1c0-1.5,0-3.1,0-4.6c0-0.1,0-0.1,0-0.2c-1.2-34.2-7.9-67.7-19.8-99.5c-12.8-34-31.3-65.2-55.1-92.9
	c-0.3-0.3-0.6-0.6-0.9-0.8c-0.1-0.1-0.2-0.3-0.3-0.4c-0.4-0.5-0.8-1-1.2-1.4c-3.1-3.5-6.9-7.9-10.8-11.9c-0.2-0.3-0.5-0.6-0.8-0.8
	l-2.3-2.3c-4.8-4.8-9.8-9.5-14.8-13.9c-9.1-8-18.6-15.4-28.5-22.2h40.4c18.9,20.2,35.8,42.3,50.4,65.6c4.1,6.5,7.8,12.7,11.3,19.1
	c6.1,10.9,11.9,22.3,17.1,33.9c0.4,1,0.8,1.9,1.3,2.9c0.4,0.9,0.8,1.8,1.2,2.6c0.4,0.9,0.8,1.8,1.1,2.7c0.4,0.8,0.7,1.6,1.1,2.5
	c2.8,6.6,5.6,13.8,8.7,22.5c4.8,13.8,9,27.8,12.4,41.5c3,12.4,5.4,25,7.3,37.5c0.1,0.8,0.2,1.6,0.4,2.4c0.2,1.2,0.4,2.4,0.5,3.6
	c0.3,2.3,0.6,4.6,0.9,6.9c0,0.1,0,0.2,0,0.3c0,0.3,0.1,0.6,0.1,0.9c0.6,5.5,1.2,11,1.6,16.5c0,0.4,0.1,0.9,0.1,1.3l0.1,1.4
	c0.1,0.9,0.1,1.8,0.2,2.7l0.1,1.2c0,0.7,0.1,1.4,0.1,2.1l0.1,2.1c0,0.7,0.1,1.3,0.1,2c0.1,1.2,0.1,2.5,0.2,3.8c0,1,0.1,2,0.1,3
	c0.1,4.1,0.2,8.1,0.3,11.9c0,1.2,0,2.5,0,3.8C947,568.4,936.4,623.3,915.5,675.1z"/>
<path class="st8" d="M512,972c-62.1,0-122.3-12.2-179.1-36.2c-54.8-23.2-104-56.3-146.2-98.6C144.5,795,111.3,745.8,88.1,691
	C64.2,634.3,52,574.1,52,512c0-43.6,6.1-86.8,18.2-128.4C73.3,373,84.4,366.9,95,370s16.7,14.2,13.6,24.8
	C97.6,432.7,92,472.1,92,512c0,56.7,11.1,111.7,33,163.5c21.2,50,51.4,94.9,90,133.5s83.5,68.9,133.5,90
	c51.8,21.9,106.8,33,163.5,33s111.7-11.1,163.5-33c50-21.2,94.9-51.4,133.5-90s68.9-83.5,90-133.5c21.9-51.8,33-106.8,33-163.5
	s-11.1-111.7-33-163.5c-21.2-50-51.4-94.9-90-133.5s-83.5-68.9-133.5-90C623.7,103.1,568.7,92,512,92c-14.8,0-29.8,0.8-44.5,2.3
	c-11,1.2-20.8-6.8-22-17.8s6.8-20.8,17.8-22c16-1.7,32.4-2.5,48.6-2.5C574,52,634.2,64.2,691,88.2c54.8,23.2,104,56.3,146.2,98.6
	c42.2,42.2,75.4,91.4,98.6,146.2c24,56.7,36.2,117,36.2,179.1s-12.2,122.3-36.2,179.1c-23.2,54.8-56.3,104-98.6,146.2
	C795,879.6,745.8,912.8,691,936C634.3,959.8,574.1,972,512,972z"/>
</svg>
