<?xml version="1.0" encoding="utf-8"?>
<!-- Generator: Adobe Illustrator 24.0.0, SVG Export Plug-In . SVG Version: 6.00 Build 0)  -->
<svg version="1.1" id="Capa_1" xmlns="http://www.w3.org/2000/svg" xmlns:xlink="http://www.w3.org/1999/xlink" x="0px" y="0px"
	 viewBox="0 0 1024 1024" style="enable-background:new 0 0 1024 1024;" xml:space="preserve">
<style type="text/css">
	.st0{fill:#A5C6FF;}
	.st1{fill:#F9F7FC;}
	.st2{fill:#DCDAEB;}
	.st3{fill:#443F80;}
	.st4{fill:#FFD071;}
	.st5{fill:#2A286B;}
	.st6{fill:#F9B630;}
	.st7{fill:#534A9A;}
	.st8{fill:#595959;}
	.st9{fill:#F9A40D;}
	.st10{fill:#424242;}
	.st11{fill:#FFFFFF;}
</style>
<g>
	<circle class="st0" cx="512" cy="512" r="440"/>
	<g>
		<g>
			<g>
				<path class="st1" d="M413.7,672.7c-5.8-3.7-13.5-2-17.2,3.8l-46.3,72.7c-3.7,5.8-2,13.5,3.8,17.2c2.1,1.3,4.4,2,6.7,2
					c4.1,0,8.1-2,10.5-5.8l46.3-72.7C421.2,684.1,419.5,676.4,413.7,672.7z"/>
				<path class="st2" d="M636.4,676.5c-3.7-5.8-11.4-7.5-17.2-3.8s-7.5,11.4-3.8,17.2l46.3,72.7c2.4,3.7,6.4,5.8,10.5,5.8
					c2.3,0,4.6-0.6,6.7-2c5.8-3.7,7.5-11.4,3.8-17.2L636.4,676.5z"/>
				<path class="st1" d="M244.8,680.8V114.6c0-6.9-5.6-12.5-12.5-12.5s-12.5,5.6-12.5,12.5v566.2l-53.5,66.4
					c-4.3,5.4-3.5,13.2,1.9,17.5s13.2,3.5,17.5-1.9l34.1-42.3V755c0,6.9,5.6,12.5,12.5,12.5s12.5-5.6,12.5-12.5v-34.5l34.1,42.3
					c2.5,3.1,6.1,4.6,9.7,4.6c2.7,0,5.5-0.9,7.8-2.8c5.4-4.3,6.2-12.2,1.9-17.5L244.8,680.8z"/>
				<path class="st1" d="M864.6,764.6c-2.3,1.9-5.1,2.8-7.8,2.8c-3.6,0-7.2-1.5-9.7-4.6L813,720.5V755c0,6.9-5.6,12.5-12.5,12.5
					S788,761.9,788,755v-34.5l-34.1,42.3c-4.3,5.4-12.1,6.2-17.5,1.9s-6.2-12.1-1.9-17.5l53.5-66.4V114.6c0-6.9,5.6-12.5,12.5-12.5
					s12.5,5.6,12.5,12.5v566.2l53.5,66.4C870.8,752.6,870,760.4,864.6,764.6z"/>
				<path class="st2" d="M864.6,764.6c-2.3,1.9-5.1,2.8-7.8,2.8c-3.6,0-7.2-1.5-9.7-4.6L813,720.5V755c0,6.9-5.6,12.5-12.5,12.5
					V102.1c6.9,0,12.5,5.6,12.5,12.5v566.2l53.5,66.4C870.8,752.6,870,760.4,864.6,764.6z"/>
				<path class="st2" d="M296.4,764.6c-2.3,1.9-5.1,2.8-7.8,2.8c-3.6,0-7.2-1.5-9.7-4.6l-34.1-42.3V755c0,6.9-5.6,12.5-12.5,12.5
					V102.1c6.9,0,12.5,5.6,12.5,12.5v566.2l53.5,66.4C302.6,752.6,301.8,760.4,296.4,764.6z"/>
			</g>
			<g>
				<path class="st3" d="M916,331.8v220.7c-0.2,6.2-5.2,11.3-11.5,11.3H558.4c-6.2,0-11.1-5-11.1-11.1V331.8H916z"/>
				<path class="st4" d="M933,308.6v46.8c0.2,6.1-4.9,11.1-11.1,11.1H541c-6.2,0-11.1-5-11.1-11.1v-46.8c0-6.2,5-11.1,11.1-11.1
					h380.9C928.2,297.5,933,302.5,933,308.6z"/>
				<path class="st3" d="M465.6,563.7H119.4c-6.2,0-11.1-5-11.1-11.1V331.8h368.8v220.7C476.9,558.7,471.8,563.7,465.6,563.7z"/>
				<path class="st4" d="M483,366.5H102.1c-6.2,0-11.1-5-11.1-11.1v-46.8c0-6.2,5-11.1,11.1-11.1H483c6.2,0,11.1,5,11.1,11.1v46.8
					C494.2,361.4,489.2,366.5,483,366.5z"/>
				<path class="st5" d="M916,331.8v220.7c-0.2,6.2-5.2,11.3-11.5,11.3H731.7v-232H916z"/>
				<path class="st6" d="M933,308.6v46.8c0.2,6.1-4.9,11.1-11.1,11.1H731.7v-69h190.2C928.2,297.5,933,302.5,933,308.6z"/>
				<path class="st5" d="M477.1,331.8v220.7c-0.2,6.2-5.2,11.3-11.5,11.3H292.8v-232H477.1z"/>
				<path class="st6" d="M494.1,308.6v46.8c0.2,6.1-4.9,11.1-11.1,11.1H292.8v-69H483C489.2,297.5,494.1,302.5,494.1,308.6z"/>
			</g>
			<g>
				<path class="st6" d="M909.4,185.8h-217c-5.4,0-8.6-6-5.5-10.5c11-15.8,40.8-44,113.7-44.5c0.7,0,1.4,0,2.2,0
					c74.9,0,102.7,29,112.3,44.9C917.8,180,914.6,185.8,909.4,185.8z"/>
			</g>
			<g>
				<path class="st7" d="M462.8,400.6H257c-3.7,0-6.6-3-6.6-6.6V262.8h219.1v131.1C469.4,397.6,466.5,400.6,462.8,400.6z"/>
				<path class="st4" d="M473.1,283.4H246.7c-3.7,0-6.6-3-6.6-6.6V249c0-3.7,3-6.6,6.6-6.6H473c3.7,0,6.6,3,6.6,6.6v27.8
					C479.7,280.4,476.7,283.4,473.1,283.4z"/>
				<path class="st7" d="M773.8,262.8v131.1c-0.1,3.7-3,6.7-6.7,6.7H561.3c-3.7,0-6.6-3-6.6-6.6V262.8H773.8z"/>
				<path class="st4" d="M783.9,249v27.8c0.1,3.6-2.9,6.6-6.5,6.6H551c-3.7,0-6.6-3-6.6-6.6V249c0-3.7,3-6.6,6.6-6.6h226.3
					C781,242.4,783.9,245.4,783.9,249z"/>
				<path class="st3" d="M773.8,262.8v131.1c-0.1,3.7-3,6.7-6.7,6.7H664.3V262.8H773.8z"/>
				<path class="st6" d="M783.9,249v27.8c0.1,3.6-2.9,6.6-6.5,6.6H664.3v-41h113C781,242.4,783.9,245.4,783.9,249z"/>
				<path class="st3" d="M469.5,262.8v131.1c-0.1,3.7-3,6.7-6.7,6.7H359.9V262.8H469.5z"/>
				<path class="st6" d="M479.6,249v27.8c0.1,3.6-2.9,6.6-6.5,6.6H359.9v-41h113C476.7,242.4,479.6,245.4,479.6,249z"/>
			</g>
			<path class="st6" d="M311.9,219.8H150c-4,0-6.4-4.5-4.1-7.8c8.3-11.9,30.9-33.2,86.4-33.2c55.9,0,76.6,21.6,83.8,33.5
				C318.1,215.6,315.8,219.8,311.9,219.8z"/>
			<path class="st8" d="M883,748.7c-11.5,18-24.3,35.1-38.2,51.2H179.3c-13.9-16.1-26.7-33.2-38.2-51.2H883z"/>
			<g>
				<circle class="st4" cx="516.4" cy="514.2" r="207.1"/>
				<path class="st3" d="M679,514.2c0,89.7-72.9,162.5-162.6,162.5s-162.6-72.9-162.6-162.6s72.9-162.6,162.6-162.6
					S679,424.5,679,514.2z"/>
				<path class="st6" d="M723.5,514.2c0,114.4-92.7,207.1-207.1,207.1V307.1C630.8,307.1,723.5,399.8,723.5,514.2z"/>
				<path class="st5" d="M679,514.2c0,89.7-72.9,162.5-162.6,162.5V351.5C606.1,351.5,679,424.5,679,514.2z"/>
			</g>
			<path class="st9" d="M909.4,185.8H800.5v-55c0.7,0,1.4,0,2.2,0c74.9,0,102.7,29,112.3,44.9C917.8,180,914.6,185.8,909.4,185.8z"
				/>
			<path class="st9" d="M311.9,219.8h-79.6v-41c55.9,0,76.6,21.6,83.8,33.5C318.1,215.6,315.8,219.8,311.9,219.8z"/>
			<path class="st10" d="M883,748.7c-11.5,18-24.3,35.1-38.2,51.2H516.4v-51.2H883z"/>
		</g>
	</g>
</g>
<g>
	<g>
		<path class="st11" d="M938,355.4v-46.8c0-9-7.1-16.1-16.1-16.1H818V190.8h91.4c4.2,0,8.1-2.3,10.2-6c2-3.7,1.9-8.2-0.2-11.6
			c-9.9-16.5-36-43.3-101.4-46.9v-11.6c0-9.6-7.9-17.5-17.5-17.5S783,105,783,114.6v11.9c-62,4.5-89.2,30.2-100.2,46
			c-2.5,3.6-2.8,8.2-0.8,12.1c2,3.9,6,6.2,10.4,6.2H783v48.1c-1.7-1-3.6-1.5-5.7-1.5H551c-6.4,0-11.6,5.2-11.6,11.6v27.8
			c0,6,4.5,10.9,10.3,11.5v4.2H541c-6.7,0-12.4,4-14.8,9.8c-3.2-0.1-6.5-0.2-9.8-0.2c-6.2,0-12.3,0.3-18.3,0.8
			c-2.3-6.1-8.1-10.4-15.1-10.4h-8.5v-4.2c2.6-0.3,5-1.5,6.9-3.4c2.2-2.2,3.3-5.1,3.2-8.2V249c0-6.4-5.2-11.6-11.6-11.6H249.8v-12.6
			h62.1c3.6,0,6.9-1.9,8.7-5c1.8-3.1,1.7-7-0.2-10.1c-7.2-12-25.7-31.1-70.6-35.1v-60c0-9.6-7.9-17.5-17.5-17.5s-17.5,7.9-17.5,17.5
			v60c-44.8,4-64.8,22.8-73,34.6c-2.1,3-2.4,7-0.7,10.3c1.7,3.3,5.1,5.4,8.9,5.4h64.8v67.7H102.1c-8.9,0-16.1,7.2-16.1,16.1v46.8
			c0,6.1,3.4,11.6,8.8,14.4c2.2,1.1,4.8,1.7,7.3,1.7h1.2v181.1c0,8.9,7.2,16.1,16.1,16.1h95.4V679l-52.1,64.7h-21.6
			c-1.8,0-3.5,1-4.4,2.6c-0.9,1.6-0.8,3.6,0.2,5.1c11.5,17.9,24.5,35.4,38.6,51.8c0.9,1.1,2.3,1.7,3.8,1.7h665.5
			c1.5,0,2.8-0.6,3.8-1.7c5.9-6.8,11.5-13.8,16.8-20.6c7.7-10,15.1-20.5,21.8-31.1c1-1.5,1-3.5,0.2-5.1c-0.9-1.6-2.6-2.6-4.4-2.6
			h-12.9L818,679V568.8h86.5c9,0,16.2-7.1,16.5-16.1c0-0.1,0-0.1,0-0.2v-181h0.9c0.3,0,0.6,0,0.9,0c0,0,0.1,0,0.1,0
			c0.4,0,0.8-0.1,1.1-0.1l0.1,0c0.2,0,0.4-0.1,0.6-0.1c0.3,0,0.6-0.1,0.8-0.2c0.3-0.1,0.7-0.2,1-0.3c0.3-0.1,0.6-0.2,0.8-0.3
			c0.3-0.1,0.6-0.2,0.9-0.4c0.3-0.1,0.6-0.3,0.9-0.4c0.3-0.2,0.6-0.3,0.9-0.5c0.3-0.2,0.6-0.4,0.9-0.6c0,0,0.1,0,0.1-0.1
			c0.3-0.2,0.5-0.4,0.8-0.6c0,0,0,0,0,0c0,0,0,0,0,0c0.3-0.2,0.5-0.4,0.8-0.7c0.3-0.2,0.5-0.5,0.7-0.7c0,0,0,0,0,0c0,0,0,0,0,0
			c0.2-0.2,0.5-0.5,0.7-0.7c0,0,0,0,0,0c0,0,0,0,0,0c0.1-0.1,0.1-0.2,0.2-0.2c0,0,0.1-0.1,0.1-0.1c0.1-0.1,0.2-0.3,0.3-0.4
			c0.2-0.3,0.4-0.6,0.6-0.9c0.1-0.1,0.1-0.2,0.2-0.3c0.2-0.2,0.3-0.5,0.5-0.8c0.2-0.3,0.4-0.7,0.5-0.9c0.2-0.3,0.3-0.7,0.4-1
			c0,0,0-0.1,0-0.1l0-0.1c0.1-0.3,0.2-0.5,0.2-0.7c0,0,0,0,0,0c0,0,0,0,0,0c0,0,0,0,0-0.1c0.1-0.3,0.2-0.6,0.2-0.9
			c0.1-0.3,0.1-0.7,0.2-1c0-0.1,0-0.2,0-0.4c0,0,0-0.1,0-0.1c0-0.3,0.1-0.6,0.1-0.8c0-0.4,0-0.8,0-1.2
			C938,355.6,938,355.5,938,355.4z M793,114.6c0-4.1,3.4-7.5,7.5-7.5s7.5,3.4,7.5,7.5v11.3c-1.7,0-3.4-0.1-5.2-0.1h-2.2
			c-2.6,0-5.1,0.1-7.6,0.2V114.6z M690.9,179.9c-0.2-0.4-0.4-1,0.1-1.7c10.9-15.6,39.6-41.9,109.6-42.4h2.2c3.5,0,6.9,0.1,10.2,0.2
			c0,0,0,0,0,0c0,0,0,0,0,0c64,2.4,88.7,27.2,97.9,42.4c0.4,0.6,0.2,1.2,0,1.6c-0.2,0.3-0.6,0.9-1.5,0.9h-217
			C691.5,180.8,691.1,180.2,690.9,179.9z M808,190.8v101.7h-15V190.8H808z M783,292.5h-4.2v-4.2c1.5-0.2,2.9-0.7,4.2-1.4V292.5z
			 M559.7,306.5v-18.1h209.1v105.4c0,1-0.8,1.8-1.7,1.8h-74.9C661.7,350.7,614.6,318,559.7,306.5z M549.4,249c0-0.9,0.7-1.6,1.6-1.6
			h226.3c0.9,0,1.6,0.7,1.6,1.6v27.8c0,0,0,0.1,0,0.1c0,0.5-0.3,0.8-0.4,1c-0.3,0.3-0.7,0.5-1.1,0.5H551c-0.9,0-1.6-0.7-1.6-1.6V249
			z M541,302.5h8.7v2.2c-3.8-0.6-7.7-1.1-11.5-1.5C539,302.8,540,302.5,541,302.5z M718.5,514.2c0,111.4-90.7,202.1-202.1,202.1
			s-202.1-90.7-202.1-202.1S405,312.1,516.4,312.1S718.5,402.8,718.5,514.2z M730.9,743.7h-45.8l-39.2-61.6
			c36.3-28.1,63.3-67.7,75.5-113.3H783V679L730.9,743.7z M359.6,743.7l35.4-55.6c4.1,2.8,8.2,5.6,12.5,8.1l-30.3,47.5H359.6z
			 M302,743.7L249.8,679V568.7h61.6c12.2,45.7,39.2,85.3,75.6,113.4l-39.2,61.6H302z M416.3,701.1c29.8,16,63.9,25.2,100.1,25.2
			c36.2,0,70.3-9.1,100.2-25.2l27.1,42.6H389.2L416.3,701.1z M655.6,743.7l-30.3-47.6c4.3-2.6,8.4-5.3,12.5-8.1l35.5,55.7H655.6z
			 M255.4,288.4h209.1v20.1c-51.2,12.9-95,44.5-123.9,87.1H257c-0.9,0-1.6-0.7-1.6-1.6V288.4z M483,302.5c1.6,0,3.1,0.6,4.2,1.6
			c-4.3,0.6-8.5,1.3-12.7,2.1v-3.8H483z M474.6,249v27.8c0,0,0,0.1,0,0.1c0,0.5-0.3,0.8-0.4,1c-0.3,0.3-0.7,0.5-1.1,0.5H246.7
			c-0.9,0-1.6-0.7-1.6-1.6V249c0-0.9,0.7-1.6,1.6-1.6H473C473.9,247.4,474.6,248.1,474.6,249z M224.8,114.6c0-4.1,3.4-7.5,7.5-7.5
			s7.5,3.4,7.5,7.5v59.3c-2.4-0.1-4.9-0.1-7.5-0.1c-2.6,0-5.1,0.1-7.5,0.1V114.6z M232.3,183.8c52.7,0,72.4,19.4,79.5,31l-66.8,0
			c-0.1,0-0.2,0-0.2,0c-0.1,0-0.2,0-0.2,0l-24.4,0c-0.1,0-0.2,0-0.3,0c-0.1,0-0.2,0-0.3,0l-69.5,0
			C158.1,203.3,179.5,183.8,232.3,183.8z M224.8,224.8h15v14.9c-2.8,2.1-4.7,5.5-4.7,9.3v27.8c0,3.8,1.9,7.2,4.7,9.3v6.4h-15V224.8z
			 M99.3,360.8c-2-1-3.3-3.1-3.3-5.4v-46.8c0-3.4,2.7-6.1,6.1-6.1h143.3v59H102.1C101.1,361.5,100.2,361.3,99.3,360.8z M113.3,552.6
			V371.5h132.1V394c0,6.4,5.2,11.6,11.6,11.6h77.3c-19,31.8-30,68.9-30,108.6c0,15.3,1.6,30.1,4.7,44.5H119.4
			C116,558.7,113.3,556,113.3,552.6z M223.7,683.9c0.7-0.9,1.1-2,1.1-3.1V568.7h15v112.1c0,1.1,0.4,2.3,1.1,3.1l48.2,59.8h-19.2
			l-21.2-26.3c-1.3-1.7-3.6-2.3-5.6-1.6c-2,0.7-3.3,2.6-3.3,4.7v23.2h-15v-23.2c0-2.1-1.3-4-3.3-4.7c-2-0.7-4.2-0.1-5.6,1.6
			l-21.2,26.3h-19.1L223.7,683.9z M257.1,743.7h-7.3v-9L257.1,743.7z M207.5,743.7l7.3-9v9H207.5z M857.4,776.4
			c-4.7,6.2-9.7,12.4-14.9,18.5H181.6c-11.3-13.2-21.7-27-31.3-41.2h14.9c0,0,0,0,0,0c0,0,0,0,0,0h134.1c0,0,0,0,0,0s0,0,0,0h51.1
			c0,0,0,0,0,0c0,0,0,0,0,0H380c0,0,0,0,0,0c0,0,0,0,0,0h272.8c0,0,0,0,0,0c0,0,0,0,0,0h29.5c0,0,0,0,0,0c0,0,0,0,0,0h51.1h31.8
			h102.3c0,0,0,0,0,0c0,0,0,0,0,0h6.2C868.6,761.4,863.1,769.1,857.4,776.4z M783,743.7h-7.3l7.3-9V743.7z M818,743.7v-9l7.3,9H818z
			 M809.1,683.9l48.2,59.8h-19.1l-21.2-26.3c-1.3-1.7-3.6-2.3-5.6-1.6c-2,0.7-3.3,2.6-3.3,4.7v23.2h-15v-23.2c0-2.1-1.3-4-3.3-4.7
			c-2-0.7-4.2-0.1-5.6,1.6l-21.2,26.3h-19.1l48.2-59.8c0.7-0.9,1.1-2,1.1-3.1v-112h15v112C808,681.9,808.4,683,809.1,683.9z
			 M911,552.4c-0.2,3.6-3,6.4-6.5,6.4H723.8c3.1-14.4,4.7-29.3,4.7-44.6c0-39.7-11-76.8-30-108.6h68.6c6.4,0,11.5-5.1,11.7-11.6
			c0,0,0-0.1,0-0.1v-22.4H911V552.4z M928,356.2c0,0.1,0,0.3-0.1,0.4c0,0,0,0.1,0,0.1c0,0.1,0,0.2-0.1,0.3c0,0.1-0.1,0.2-0.1,0.4
			c0,0,0,0,0,0c0,0.1-0.1,0.2-0.1,0.3l0,0.1c0,0.1-0.1,0.2-0.1,0.3c-0.1,0.1-0.1,0.2-0.2,0.4c-0.1,0.3-0.3,0.5-0.4,0.7
			c0,0.1-0.1,0.1-0.1,0.2c0,0-0.1,0.1-0.1,0.1c0,0,0,0,0,0c-0.1,0.1-0.1,0.2-0.2,0.2c0,0-0.1,0.1-0.1,0.1c-0.1,0.1-0.2,0.1-0.2,0.2
			c-0.1,0.1-0.2,0.2-0.3,0.3c-0.1,0.1-0.2,0.2-0.3,0.2c-0.1,0-0.1,0.1-0.2,0.1c0,0-0.1,0.1-0.1,0.1c-0.1,0.1-0.2,0.1-0.3,0.2
			c-0.1,0-0.1,0.1-0.2,0.1c0,0-0.1,0-0.1,0.1c-0.1,0-0.1,0.1-0.2,0.1c-0.1,0-0.1,0.1-0.3,0.1c-0.1,0-0.2,0.1-0.3,0.1
			c-0.1,0-0.2,0.1-0.3,0.1c-0.1,0-0.2,0-0.3,0.1c-0.1,0-0.2,0-0.3,0l-0.1,0c0,0-0.1,0-0.1,0c-0.1,0-0.2,0-0.4,0c-0.1,0-0.3,0-0.4,0
			H778.8v-59h143.1c3.4,0,6.1,2.7,6.1,6.1v46.8c0,0.1,0,0.3,0,0.4C928,355.9,928,356,928,356.2z"/>
		<path class="st11" d="M516.4,681.7c92.4,0,167.6-75.1,167.6-167.5c0-92.5-75.2-167.7-167.6-167.7s-167.6,75.2-167.6,167.6
			C348.8,606.5,424,681.7,516.4,681.7z M516.4,356.5c86.9,0,157.6,70.7,157.6,157.7c0,86.8-70.7,157.5-157.6,157.5
			c-86.9,0-157.6-70.7-157.6-157.6C358.8,427.2,429.5,356.5,516.4,356.5z"/>
	</g>
	<path class="st4" d="M512,972c-50.5,0-100.1-8.1-147.5-24.2c-45.8-15.5-88.8-38.1-127.7-67.2c-38.5-28.8-72.1-63.2-99.9-102.3
		c-28.2-39.7-49.8-83.2-64.2-129.5c-3.3-10.5,2.6-21.8,13.2-25c10.5-3.3,21.8,2.6,25,13.2c13.1,42.2,32.9,82,58.6,118.2
		c25.4,35.7,56.1,67.2,91.2,93.5c73,54.6,159.9,83.4,251.3,83.4c62,0,121.8-13.2,177.5-39.2c53.1-24.8,101.6-61.5,140.1-106
		c5.4-6.3,10.8-12.8,15.9-19.5c7.2-9.5,14.2-19.3,20.6-29.4c20.6-32.2,36.7-67,47.8-103.5c3.2-10.6,14.4-16.5,25-13.3
		c10.6,3.2,16.5,14.4,13.3,25c-12.2,39.9-29.8,78.1-52.3,113.4c-7,11-14.6,21.8-22.5,32.2c-5.6,7.3-11.5,14.5-17.4,21.4
		c-42.2,48.7-95.3,88.8-153.4,116C645.3,957.5,579.9,972,512,972z"/>
	<path class="st4" d="M355.1,120.8c-8.1,0-15.6-4.9-18.7-12.9c-3.9-10.3,1.2-21.9,11.5-25.8C400.3,62.1,455.5,52,512,52
		c38.7,0,77.1,4.8,114.2,14.3c10.7,2.7,17.2,13.6,14.4,24.3c-2.7,10.7-13.6,17.2-24.3,14.4c-33.9-8.7-69-13-104.3-13
		c-51.6,0-102,9.3-149.8,27.5C359.8,120.4,357.4,120.8,355.1,120.8z"/>
</g>
</svg>
