<?xml version="1.0" encoding="utf-8"?>
<!-- Generator: Adobe Illustrator 24.0.0, SVG Export Plug-In . SVG Version: 6.00 Build 0)  -->
<svg version="1.1" id="Capa_1" xmlns="http://www.w3.org/2000/svg" xmlns:xlink="http://www.w3.org/1999/xlink" x="0px" y="0px"
	 viewBox="0 0 1024 1024" style="enable-background:new 0 0 1024 1024;" xml:space="preserve">
<style type="text/css">
	.st0{fill:#BAE4FA;}
	.st1{fill:#767DD4;}
	.st2{fill:#FFDDCE;}
	.st3{fill:#FFCBBE;}
	.st4{fill:#EAAC9D;}
	.st5{fill:#EAB1B7;}
	.st6{fill:#F473C3;}
	.st7{fill:#C640A6;}
	.st8{fill:#5E6ACA;}
	.st9{fill:#534A9A;}
	.st10{fill:#FFFFFF;}
</style>
<g>
	<circle class="st0" cx="512" cy="512" r="440"/>
	<g>
		<path class="st1" d="M952,512c0,6.8-0.2,13.5-0.5,20.1c-1.2,26.2-4.6,51.8-10.2,76.5c-15.9,70.9-48.9,135.3-94.5,188.7
			C809.6,841,764,877.2,712.7,903.6C652.5,934.6,584.3,952,512,952c-152.9,0-287.6-78.1-366.5-196.4c-16.7-25.1-30.9-52-42.3-80.5
			c-4.3-10.9-8.3-22.1-11.8-33.4c-10.2-33-16.5-67.6-18.7-103.4c21.9-5,36.2-15.5,51.2-26.5c21-15.4,42.8-31.4,85.8-31.4
			s64.8,15.9,85.8,31.4c20.6,15.1,40.2,29.5,80,29.5s59.4-14.3,80-29.5c21-15.4,42.7-31.4,85.8-31.4s64.8,15.9,85.8,31.4
			c20.6,15.1,40.2,29.5,80,29.5s59.4-14.3,80-29.5c21-15.4,42.7-31.4,85.8-31.4c38.1,0,59.5,12.5,78.5,26
			C952,508.2,952,510.1,952,512z"/>
		<g>
			<path class="st2" d="M665.6,623.4L470,815.4l-10.3,10.1L353,719.1l-24.2-24.2l48.1-47.1l132.9-130l-44.5-196.2
				c-3.8-16.8,3.7-34.1,18.4-43l181-108.3c18.9-11.3,43.3-5.2,54.5,13.7c11.6,19,5.4,43.4-13.5,54.7l-156.3,93.5l19.1,84.3
				c6.6,29.4,21.4,56.1,42.8,77.5l10.1,10l11.1,11.1l14.7,14.6l18.3,18.3c2.2,2.3,4.2,4.6,5.9,7.1c10.9,15.6,12.6,35.7,4.9,52.6
				C673.8,613.6,670.2,618.9,665.6,623.4z"/>
			<path class="st3" d="M663.6,378.5c24.5,4,47.8-12.7,51.7-37.3c4-24.5-12.7-47.8-37.3-51.7l0,0c-24.5-4-47.8,12.7-51.7,37.3
				C622.4,351.4,639,374.6,663.6,378.5L663.6,378.5z"/>
			<path class="st4" d="M646.8,336.5c1.3,13.2,13.2,23,26.5,21.6c13.2-1.3,23-13.2,21.6-26.5c-1.3-13.2-13.2-23-26.5-21.6
				C655.1,311.3,645.4,323.2,646.8,336.5z"/>
			<path class="st3" d="M797.4,509.9c2.5,24.8,24.6,42.8,49.4,40.3c24.8-2.5,42.8-24.6,40.3-49.4l0,0c-2.5-24.8-24.6-42.8-49.4-40.3
				C813,463,794.9,485,797.4,509.9C797.3,509.8,797.4,509.9,797.4,509.9z"/>
			<path class="st4" d="M818.3,507.8c1.3,13.2,13.2,23,26.5,21.6c13.3-1.3,23-13.2,21.6-26.5c-1.3-13.2-13.2-23-26.5-21.6
				C826.6,482.7,816.9,494.5,818.3,507.8L818.3,507.8z"/>
			<polygon class="st2" points="671.5,555.3 645.3,581.5 620.4,556.6 594.7,530.9 607.9,517.7 621.4,504.1 641.8,483.6 643.7,481.8 
				660.5,465.1 660.6,465 686.3,490.8 711.1,515.6 704.8,521.9 692.3,534.4 683.8,542.9 			"/>
			<path class="st3" d="M711.2,515.6l-27.3,27.3c-8.7-5-17.1-11.4-24.7-18.9l-3-3l-4-4c-7.6-7.5-13.9-15.9-19-24.7l27.3-27.3
				l25.9,25.8L711.2,515.6z"/>
			<path class="st2" d="M833.8,515.4c-42.5,42.7-109.8,45.8-155.9,9.2c-2.4-1.9-8.3-9-11.9-13.5c-1.8-2.2-3.1-3.9-3.1-3.9
				c-45.8-45.9-43.3-114.2,2.6-160.1l37.5-47.3c45.8-45.8,120.3-46,166.1-0.1l4.1,4l3,3c45.9,45.8,45.9,120.3,0,166.1L833.8,515.4z"
				/>
			<polygon class="st3" points="671.5,555.3 645.3,581.5 620.4,556.6 686.3,490.8 711.1,515.6 704.8,521.9 692.3,534.4 683.8,542.9 
							"/>
			<path class="st5" d="M711.2,515.6l-27.3,27.3c-8.7-5-17.1-11.4-24.7-18.9l-3-3l30.2-30.2L711.2,515.6z"/>
			<path class="st3" d="M833.8,515.4c-42.5,42.7-109.8,45.8-155.9,9.2c-2.4-1.9-8.3-9-11.9-13.5l207.3-207.3l3,3
				c45.9,45.8,45.9,120.3,0,166.1L833.8,515.4z"/>
			<path class="st5" d="M738.1,485.7c-13.3-0.8-24.6-5.7-32.7-14l0,0c-8.2-8.1-13.1-19.3-14-32.7c-0.3-4.6,3.2-8.6,7.7-8.9
				c4.6-0.3,8.6,3.2,8.9,7.7c0.6,9.1,3.8,16.5,9.2,21.9s12.9,8.6,21.8,9.2c4.6,0.3,8.1,4.2,7.8,8.9
				C746.6,482.4,742.8,485.9,738.1,485.7z"/>
			<path class="st6" d="M909.2,440l-23.4,23.4l-9.6,8.9c-2.9-13.6-6.9-26.8-12.2-39.5c-11.2-27.1-27.6-51.5-47.9-71.9
				c-30.2-30.4-69.2-52.1-113-61.1l32.8-32.9c45.4-45.5,117.6-47.7,165.7-6.9c2.6,2.1,5,4.4,7.4,6.9l0.5,0.5
				C957,315.2,956.8,392.4,909.2,440z"/>
			<path class="st7" d="M909.2,440l-23.4,23.4l-9.6,8.9c-2.9-13.6-6.9-26.8-12.2-39.5c-11.2-27.1-27.6-51.5-47.9-71.9l93.5-93.5
				C957,315.2,956.8,392.4,909.2,440z"/>
			<path class="st4" d="M738.1,485.7c-13.3-0.8-24.6-5.7-32.7-14l11.9-11.9c5.4,5.4,12.9,8.6,21.8,9.2c4.6,0.3,8.1,4.2,7.8,8.9
				C746.6,482.4,742.8,485.9,738.1,485.7z"/>
			<path class="st3" d="M665.6,623.4L470,815.4l-54.2-54.2l231.4-231.4l18.3,18.3c2.2,2.3,4.2,4.6,5.9,7.1
				c10.9,15.6,12.6,35.7,4.9,52.6C673.8,613.6,670.2,618.9,665.6,623.4z"/>
		</g>
		<path class="st8" d="M941.3,608.7c-5.5,24.5-13.1,48.2-22.4,71c-2.9,7.2-6.1,14.2-9.4,21.2c-4.4,9.2-9.1,18.3-14.1,27.2
			c-13.9,24.7-30.2,47.9-48.5,69.4c-37.2,43.5-82.8,79.7-134.1,106.1C652.5,934.6,584.3,952,512,952
			c-152.9,0-287.6-78.1-366.5-196.4c-6.5-9.8-12.6-19.8-18.3-30.1c-9-16.2-17.1-33-24.1-50.5c-4.3-10.9-8.3-22.1-11.8-33.4
			c12.3-5.5,22.3-12.8,32.5-20.3c21-15.4,42.8-31.4,85.8-31.4s64.8,15.9,85.8,31.4c20.6,15.1,40.2,29.5,80,29.5s59.4-14.3,80-29.5
			c21-15.4,42.7-31.4,85.8-31.4s64.8,15.9,85.8,31.4c14.4,10.6,28.3,20.7,48.8,25.9c8.9,2.3,19.1,3.5,31.2,3.5
			c29.5,0,47.8-7.9,63.7-18.1c4.9-3.1,9.6-6.6,14.4-10c0.6-0.5,1.3-0.9,1.9-1.4c13.8-10.1,27.9-20.5,48.2-26.4
			c10.6-3.1,22.9-5,37.6-5C904.7,589.9,924.7,598.2,941.3,608.7z"/>
		<path class="st9" d="M909.5,700.9c-4.4,9.2-9.1,18.3-14.1,27.2c-13.9,24.7-30.2,47.9-48.5,69.4c-37.2,43.5-82.8,79.7-134.1,106.1
			C652.5,934.6,584.3,952,512,952c-152.9,0-287.6-78.1-366.5-196.4c-6.5-9.8-12.6-19.8-18.3-30.1c20-14.6,41.7-29,82.5-29
			c43,0,64.8,15.9,85.8,31.4c20.6,15.1,40.2,29.5,80,29.5s59.4-14.3,80-29.5c21-15.4,42.7-31.4,85.8-31.4s64.8,15.9,85.8,31.4
			c14.4,10.6,28.3,20.7,48.8,25.9c8.9,2.3,19.1,3.5,31.2,3.5c29.5,0,47.8-7.9,63.7-18.1c4.9-3.1,9.6-6.6,14.4-10
			c0.6-0.5,1.3-0.9,1.9-1.4c13.8-10.1,27.9-20.5,48.2-26.4c10.6-3.1,22.9-5,37.6-5C887.4,696.4,899.3,698.1,909.5,700.9z"/>
	</g>
</g>
<g>
	<path class="st10" d="M957,512c0-2.2,0-4.6-0.9-7.2c-0.3-1-1-1.9-1.8-2.5c-16.7-11.9-37.4-24.6-71.7-26.6c-0.3-0.4-0.6-0.9-1-1.3
		c0.8-0.8,1.5-1.6,2.2-2.3l5.4-5c0,0,0.1-0.1,0.1-0.1l23.4-23.4c49.5-49.5,49.6-130.1,0.3-179.7l-0.5-0.5c-2.8-2.9-5.3-5.2-7.8-7.3
		c-24.3-20.6-55.3-31.3-87.2-30.1c-32.2,1.2-62.4,14.5-85.2,37.3l-30.1,30.2c-0.3,0.3-0.5,0.5-0.8,0.8c-6.6-5.1-14.3-8.5-22.6-9.8
		c-2.7-0.4-5.4-0.7-8.1-0.7c-24.3,0-45.6,18.1-49.4,42.1c-2.9,18,4.2,36,18.2,47.2c-18.9,34.3-19.7,74-2.2,107.7l-16,16.1l-6.6-6.5
		c-20.8-20.8-35.1-46.7-41.5-75.1l-18.3-80.8L708.3,243c10.3-6.2,17.6-16,20.5-27.6c2.9-11.6,1-23.7-5.3-33.9
		c-6.1-10.3-15.8-17.5-27.3-20.4c-11.6-2.9-23.7-1.2-34,5l-181,108.3c-16.6,10.1-25,29.5-20.7,48.4l36.2,159.7
		c-18.1,6.3-31.2,15.9-43.9,25.3l-0.2,0.1c-19.9,14.7-38.7,28.5-77,28.5c-38.1,0-57-13.8-77-28.5c-20.6-15.2-43.9-32.4-88.8-32.4
		c-44.6,0-67,16.4-88.7,32.3l-0.1,0.1c-14.6,10.7-28.4,20.9-49.3,25.6c-2.4,0.5-4,2.7-3.9,5.2c2.2,35.6,8.5,70.5,18.7,103.7
		c0,0.3,0.1,0.5,0.2,0.8c3.4,10.9,7.4,22.2,11.9,33.8c3.5,8.8,7.5,17.7,11.7,26.6c0.1,0.3,0.2,0.5,0.4,0.8c0.7,1.4,1.3,2.7,2,4.1
		c0.7,1.4,1.4,2.8,2.1,4.1c0.4,0.8,0.8,1.6,1.2,2.4c0.1,0.3,0.3,0.6,0.4,0.9c3.5,6.7,7.1,13.4,10.9,19.8c0.1,0.1,0.1,0.2,0.2,0.3
		c0.7,1.2,1.4,2.5,2.2,3.7c0.8,1.3,1.5,2.6,2.3,3.8c0.8,1.3,1.5,2.5,2.3,3.8c0.8,1.3,1.6,2.5,2.4,3.8c1.5,2.4,3.2,4.9,4.9,7.5
		C224.3,882.7,362.9,957,512,957c1.4,0,2.8,0,4.2,0c0.8,0,1.5,0,2.3,0c0.1,0,0.3,0,0.4,0c0.4,0,0.8,0,1.3,0l0.7,0
		c1.1,0,2.3,0,3.4-0.1c0.6,0,1.2,0,1.7,0c0.6,0,1.2,0,1.8-0.1c0.4,0,0.8,0,1.2,0c0.1,0,0.3,0,0.4,0c65.2-2.5,127.6-18.8,185.6-48.6
		c52-26.7,97.6-62.8,135.6-107.3c18.7-22,35.2-45.6,49.1-70.2c4.9-8.8,9.7-18,14.3-27.5c0,0,0,0,0,0c0,0,0,0,0,0
		c3-6.3,6.4-13.7,9.5-21.4c1.8-4.4,3.5-8.8,5.1-13.2c0.3-0.7,0.5-1.5,0.8-2.2c0.4-1.1,0.8-2.3,1.3-3.4c0.1-0.2,0.1-0.4,0.2-0.6
		c0.5-1.5,1.1-3,1.6-4.5l0.4-1.1c0.2-0.4,0.3-0.9,0.5-1.3l0.1-0.3c0.5-1.4,0.9-2.7,1.4-4.1c0.5-1.5,1-3,1.5-4.5l0.1-0.4
		c0.3-1.1,0.7-2.1,1-3.1c0.3-1.1,0.7-2.2,1-3.3c0.2-0.7,0.4-1.4,0.6-2.1c0.1-0.3,0.2-0.7,0.3-1c0.1-0.2,0.1-0.4,0.2-0.6l0.2-0.8
		c0.3-0.9,0.5-1.9,0.8-2.8c0.2-0.8,0.4-1.5,0.6-2.3c0.4-1.5,0.8-3.1,1.2-4.6c0.4-1.4,0.8-2.9,1.1-4.3c0.4-1.7,0.8-3.4,1.3-5.1
		c0.1-0.4,0.2-0.8,0.3-1.3c0.4-1.6,0.8-3.1,1.1-4.7c0-0.1,0-0.2,0-0.3c5.6-24.8,9.1-50.7,10.3-77.2C956.8,524.8,957,518.2,957,512z
		 M870.7,485.4c2.1,0,4.2,0,6.4,0c2.8,4.9,4.5,10.2,5.1,15.8c1.1,10.7-2.1,21.1-8.8,29.4c-6.8,8.3-16.4,13.4-27,14.5
		c-10.9,1.1-21.8-2.4-30-9.4c7.6-4.8,14.7-10.5,21.1-16.9L870.7,485.4z M739.4,270.4c21-21,48.8-33.2,78.5-34.3
		c29.5-1.1,58,8.7,80.4,27.7c0,0,0.1,0.1,0.1,0.1c2.2,1.8,4.4,3.8,6.9,6.5c0,0,0,0,0.1,0.1l0.5,0.5c45.4,45.7,45.3,120-0.3,165.5
		l-23.3,23.3l-3.2,3c-2.8-11.2-6.3-21.9-10.5-31.9c-11.4-27.6-27.9-52.3-49-73.5c-29.5-29.7-66.2-50.5-106.6-60.5L739.4,270.4z
		 M631.2,327.6c3-19.2,20-33.7,39.5-33.7c2.2,0,4.3,0.2,6.5,0.5c6.5,1,12.5,3.6,17.7,7.5l-33.1,41.8c-6.4,6.4-12.1,13.4-16.9,20.8
		C634.3,355.6,629,341.6,631.2,327.6z M650.4,374.4c5.1-8.5,11.3-16.5,18.6-23.7c0.1-0.1,0.3-0.3,0.4-0.4l35.6-44.9
		c40.9,9,78,29.4,107.5,59.1c20.2,20.3,35.9,43.9,46.8,70.3c4.7,11.3,8.6,23.6,11.4,36.4l-40.6,40.7c-7.3,7.3-15.6,13.6-24.5,18.7
		c0,0,0,0,0,0c-29.5,16.6-65.9,18.9-97.3,6.1c0,0,0,0,0,0c0,0,0,0,0,0c-0.1,0-0.1,0-0.2-0.1c-4.6-1.9-9.1-4.1-13.4-6.5
		c-4.8-2.8-9.5-5.9-13.8-9.4c-1.5-1.2-6.1-6.4-11.1-12.7c-1.7-2.1-3-3.8-3-3.8c-0.1-0.2-0.3-0.3-0.4-0.5
		c-7.4-7.4-13.6-15.5-18.5-24.2C629.6,446.8,630.5,407.5,650.4,374.4z M672,547.7c-0.9-1-1.8-2.1-2.9-3.2c0,0-0.1-0.1-0.1-0.1
		l-18.3-18.3l-12.4-12.3l-9.8-9.8l14.1-14.2c4.7,7.3,10.2,14.2,16.5,20.6c0.4,0.6,1.6,2,3,3.7c3.5,4.3,9.7,11.9,12.7,14.3
		c3,2.4,6.2,4.7,9.5,6.8l-1,1c-0.1,0.1-0.2,0.2-0.3,0.3L672,547.7z M486.3,282.9l181-108.3c8-4.8,17.4-6.2,26.4-3.9
		c9,2.3,16.5,7.9,21.2,15.9c4.9,8,6.3,17.3,4.1,26.4c-2.2,9-7.9,16.6-15.9,21.5l-156.3,93.5c-1.9,1.1-2.8,3.3-2.3,5.4l19.1,84.3
		c6.8,30.2,22,57.8,44.2,80l6.9,6.8c0,0.1-0.1,0.2-0.1,0.3c0,0.1-0.1,0.3-0.1,0.4c0,0.2,0,0.3-0.1,0.5c0,0.2,0,0.3,0,0.5
		c0,0.2,0,0.3,0,0.5c0,0.2,0,0.3,0,0.5c0,0.2,0.1,0.3,0.1,0.5c0,0.1,0.1,0.3,0.1,0.4c0.1,0.2,0.1,0.3,0.2,0.4
		c0.1,0.1,0.1,0.3,0.2,0.4c0.1,0.1,0.2,0.2,0.3,0.4c0.1,0.1,0.2,0.3,0.3,0.4c0,0,0,0.1,0.1,0.1c0.1,0.1,0.2,0.2,0.3,0.3
		c0.1,0.1,0.2,0.2,0.3,0.3c2.6,1.8,5.1,3.7,7.7,5.6c2.2,1.6,4.8,3.5,7.4,5.4l12.1,12l18.3,18.3c2.3,2.5,4,4.4,5.3,6.4
		c0,0,0.1,0.1,0.1,0.1c0,0,0,0,0,0c0,0,0,0,0,0c0,0,0,0,0,0.1c9.7,14,11.3,32.2,4.3,47.5c0,0,0,0.1-0.1,0.1
		c-2.3,5.3-5.5,10.1-9.6,14.1l-11.7,11.4c-7.2-4.2-13.7-9-20.5-14c-20.6-15.2-43.9-32.4-88.8-32.4c-44.6,0-67,16.4-88.6,32.2
		l-0.2,0.1c-17.9,13.2-34.8,25.7-65.9,28.1l126.8-124c1.2-1.2,1.8-3,1.4-4.7l-44.5-196.2C466.9,305.8,473.3,290.7,486.3,282.9z
		 M932.7,622.6c-0.3,1-0.5,1.9-0.8,2.9c-0.3,1.1-0.6,2.2-0.9,3.3c-0.6,2.3-1.3,4.5-2,6.8c-0.1,0.3-0.2,0.6-0.2,0.8
		c-0.8,2.6-1.6,5.3-2.4,7.9c-0.1,0.2-0.1,0.4-0.2,0.6c-0.8,2.6-1.7,5.3-2.6,7.9c0,0,0,0.1,0,0.1c-0.8,2.3-1.6,4.6-2.4,6.8
		c-0.4,1.2-0.9,2.4-1.3,3.7c-0.1,0.3-0.2,0.6-0.3,0.9c-3.9,10.3-8.2,20.6-12.8,30.6c-10.3-2.4-21.4-3.6-33.7-3.6
		c-14.3,0-27,1.7-39,5.2c-21,6.1-35.4,16.7-49.4,26.9l-0.4,0.3c-0.1,0.1-0.2,0.1-0.2,0.2c-0.2,0.2-0.4,0.3-0.6,0.4
		c-0.3,0.2-0.7,0.5-1.1,0.8c-1.1,0.8-2.2,1.6-3.3,2.4c-3.7,2.6-7.1,5.1-10.7,7.4c-13.3,8.6-31,17.3-61,17.3c-11.5,0-21.2-1.1-30-3.3
		c-19.8-5-33.1-14.8-47.1-25.1c-20.6-15.2-43.9-32.4-88.8-32.4c-44.6,0-67,16.4-88.6,32.2l-0.2,0.1c-19.9,14.7-38.7,28.5-77,28.5
		c-38.1,0-57-13.8-77-28.5c-20.6-15.2-43.9-32.4-88.8-32.4c-38.1,0-60.5,12.2-80.8,26.6c-1.3-2.4-2.5-4.7-3.7-7.1
		c-0.2-0.3-0.3-0.6-0.5-0.9c-1.9-3.7-3.7-7.4-5.5-11c-4-8.3-7.8-17-11.3-25.9c-3.9-9.9-7.4-19.6-10.4-29
		c11.1-5.5,20.4-12.3,29.3-18.9c20.4-15,41.5-30.4,82.8-30.4c41.6,0,62.6,15.5,82.9,30.5c20.1,14.8,40.9,30,81.2,30.4
		c0,0,0.1,0,0.1,0c0,0,0.1,0,0.1,0c0.5,0,1,0,1.5,0c41.7,0,62.7-15.5,83-30.5l0.2-0.1c20.3-14.9,41.3-30.3,82.7-30.3
		c41.6,0,62.6,15.5,82.8,30.4c14.2,10.4,28.8,21.2,50.5,26.7c9.5,2.5,20.1,3.7,32.5,3.7c32.6,0,51.8-9.5,66.4-18.9
		c3.8-2.4,7.6-5.1,11.2-7.7c1.1-0.8,2.3-1.6,3.4-2.4c0.1-0.1,0.2-0.2,0.3-0.2c0.2-0.2,0.4-0.3,0.6-0.4c0.3-0.2,0.7-0.5,1.2-0.9
		l0.2-0.2c13.3-9.7,27-19.8,46.3-25.4c11-3.2,22.9-4.8,36.2-4.8c30.6,0.1,49.1,8,62.8,16.3C934.7,614.9,933.8,618.7,932.7,622.6z
		 M126.8,515.9l-3-4L126.8,515.9c20.5-15,41.6-30.5,82.9-30.5c41.6,0,62.6,15.5,82.9,30.5c20.4,15,41.5,30.4,82.9,30.4
		c41.7,0,62.7-15.5,83-30.5l0.2-0.1c11.9-8.7,24.1-17.6,40.2-23.5l5.4,24l-130.9,128l-1.6,1.5c-35.8-0.8-54.1-14.3-73.5-28.5
		c-20.6-15.2-43.9-32.4-88.8-32.4c-44.6,0-67,16.4-88.8,32.4c-8.2,6-16.6,12.2-26.4,17.2c-8.7-29.7-14.3-60.7-16.5-92.4
		C98.5,536.6,112.3,526.5,126.8,515.9z M491.6,946.5c-13.6-0.6-27-1.9-40.3-3.8c-2.2-0.3-4.4-0.6-6.6-1c-4.4-0.7-8.8-1.4-13.2-2.3
		c-2.2-0.4-4.4-0.8-6.6-1.3c-100.5-20.5-191-76-255.2-157.8c-7-8.9-13.6-18.1-20-27.6c0,0-0.1-0.1-0.1-0.1c-1.5-2.3-3-4.6-4.4-6.8
		c-0.5-0.8-1-1.5-1.4-2.3c-1-1.6-2-3.1-2.9-4.7c-0.6-0.9-1.1-1.8-1.6-2.7c-0.9-1.4-1.7-2.9-2.6-4.3c-0.6-0.9-1.1-1.9-1.7-2.8
		c-0.4-0.7-0.8-1.4-1.2-2.1c19.8-14.1,40.1-25.4,75.9-25.4c41.6,0,62.6,15.5,82.8,30.4c0,0,0.1,0.1,0.1,0.1
		c20.4,15,41.5,30.4,82.9,30.4c41.7,0,62.7-15.5,83-30.5l0.2-0.1c20.3-14.9,41.3-30.3,82.7-30.3c41.6,0,62.6,15.5,82.8,30.4
		c14.2,10.4,28.8,21.2,50.5,26.7c9.5,2.5,20.1,3.7,32.5,3.7c32.6,0,51.8-9.5,66.4-18.9c3.8-2.4,7.6-5.1,11.2-7.7
		c1.1-0.8,2.3-1.6,3.4-2.4c0.1-0.1,0.2-0.2,0.3-0.2c0.2-0.2,0.4-0.3,0.6-0.4c0.3-0.2,0.7-0.5,1.2-0.9l0.3-0.2
		c13.3-9.7,27-19.8,46.3-25.4c11-3.2,22.9-4.8,36.2-4.8c10.7,0,20.4,0.9,29.3,2.9c-15.9,32.2-35.8,62.4-59.2,89.8
		c-37.1,43.5-81.7,78.9-132.6,105.1c-17.1,8.8-35,16.5-53.1,23c-1.3,0.5-2.6,0.9-3.9,1.4c-1.3,0.5-2.6,0.9-3.9,1.3
		c-2,0.7-4,1.3-6.1,2c-1.3,0.4-2.6,0.8-3.9,1.2c-1.1,0.3-2.2,0.7-3.4,1c-1,0.3-1.9,0.6-2.9,0.8c-0.1,0-0.1,0-0.2,0.1
		c0,0-0.1,0-0.1,0c-0.5,0.2-1.1,0.3-1.7,0.5c-0.9,0.3-1.9,0.5-2.8,0.8c-0.9,0.3-1.9,0.5-2.9,0.8c-0.5,0.1-1,0.3-1.6,0.4l-0.5,0.1
		c-1.2,0.3-2.5,0.7-3.7,1c-0.1,0-0.1,0-0.2,0c-1.3,0.3-2.6,0.7-4,1c-1.5,0.4-3,0.8-4.7,1.1c-0.8,0.2-1.7,0.4-2.6,0.6
		c-1.3,0.3-2.7,0.6-4.1,0.9c-0.7,0.1-1.3,0.3-2,0.4c0,0-0.1,0-0.1,0c-1.3,0.3-2.6,0.6-4,0.8c-0.7,0.1-1.4,0.3-2.1,0.4l-0.4,0.1
		c-1,0.2-2.1,0.4-3.1,0.6c-1.2,0.2-2.3,0.4-3.6,0.7c-1.3,0.2-2.6,0.5-4,0.7c-1.8,0.3-3.7,0.6-5.6,0.9l-3.5,0.5c-0.1,0-0.2,0-0.3,0
		c-1.3,0.2-2.5,0.4-3.8,0.5l-0.6,0.1c-0.6,0.1-1.2,0.2-1.9,0.3l-0.2,0c-0.6,0.1-1.2,0.2-1.8,0.2c-1.3,0.2-2.6,0.3-4,0.5
		c-1.1,0.1-2.1,0.2-3.2,0.4c-1.1,0.1-2.2,0.2-3.2,0.3c-2.1,0.2-4.3,0.4-6.4,0.6l-2.6,0.2c-1.4,0.1-2.9,0.2-4.3,0.3l-0.4,0
		c-0.8,0.1-1.7,0.1-2.5,0.2c-1.1,0.1-2.2,0.1-3.3,0.2c-0.6,0-1.2,0.1-1.8,0.1l-0.9,0c-0.9,0-1.8,0.1-2.7,0.1c-0.5,0-1.1,0.1-1.6,0.1
		c-1.5,0.1-3,0.1-4.6,0.2c-0.3,0-0.6,0-1,0c-0.3,0-0.5,0-0.8,0c-1.7,0-3.4,0.1-5,0.1c-0.4,0-0.7,0-1.1,0c-2,0-3.9,0-5.9,0
		C505.2,947,498.4,946.8,491.6,946.5z M946.5,531.9c-1.1,23.5-4,46.7-8.6,68.9c-14.1-8-34.1-15.9-65.1-16c-14.3,0-27,1.7-39,5.2
		c-21,6.1-35.4,16.7-49.4,26.9l-0.4,0.3c-0.1,0.1-0.2,0.1-0.2,0.2c-0.2,0.2-0.4,0.3-0.6,0.4c-0.3,0.2-0.7,0.5-1.1,0.8
		c-1.1,0.8-2.2,1.6-3.3,2.4c-3.7,2.6-7.1,5.1-10.8,7.4c-13.3,8.6-31,17.3-61,17.3c-11.5,0-21.2-1.1-30-3.3
		c-6.4-1.6-12.1-3.7-17.3-6.2l9.4-9.2c5-4.9,9-10.7,11.8-17.3c7.8-17.3,6.6-37.5-3-53.8l9.5-9.5l1.3-1.3c5.4,0.7,11,1.1,16.9,1.1
		c14.4,5.7,29.8,8.6,45.1,8.6c19.6,0,39.1-4.6,56.6-13.7c9.4,9.2,22,14.3,35.1,14.3c1.7,0,3.3-0.1,5-0.3
		c13.3-1.3,25.3-7.8,33.8-18.2c8.4-10.4,12.4-23.4,11-36.7c-0.5-4.9-1.7-9.6-3.6-14.1c26.8,2.8,43.7,12.8,58.4,23.2
		c0.1,0.8,0.1,1.7,0.1,2.6C947,518,946.8,524.5,946.5,531.9z"/>
	<path class="st7" d="M512,972c-62.1,0-122.3-12.2-179.1-36.2c-54.8-23.2-104-56.3-146.2-98.6c-42.2-42.2-75.4-91.4-98.6-146.2
		C64.2,634.3,52,574.1,52,512s12.2-122.3,36.2-179.1c23.2-54.8,56.3-104,98.6-146.2s91.4-75.4,146.2-98.6
		C389.7,64.2,449.9,52,512,52c27.5,0,55,2.4,81.8,7.3c10.9,2,18.1,12.3,16.2,23.2c-2,10.9-12.3,18.1-23.2,16.2
		C562.2,94.2,537.1,92,512,92c-56.7,0-111.7,11.1-163.5,33c-50,21.2-94.9,51.4-133.5,90s-68.9,83.5-90,133.5
		C103.1,400.3,92,455.3,92,512c0,56.7,11.1,111.7,33,163.5c21.2,50,51.4,94.9,90,133.5c38.6,38.6,83.5,68.9,133.5,90
		c51.8,21.9,106.8,33,163.5,33c56.7,0,111.7-11.1,163.5-33c50-21.2,94.9-51.4,133.5-90c38.6-38.6,68.9-83.5,90-133.5
		c21.9-51.8,33-106.8,33-163.5c0-11,9-20,20-20s20,9,20,20c0,62.1-12.2,122.3-36.2,179.1c-23.2,54.8-56.3,104-98.6,146.2
		c-42.2,42.2-91.4,75.4-146.2,98.6C634.3,959.8,574.1,972,512,972z"/>
</g>
</svg>
