<?xml version="1.0" encoding="utf-8"?>
<!-- Generator: Adobe Illustrator 24.0.0, SVG Export Plug-In . SVG Version: 6.00 Build 0)  -->
<svg version="1.1" id="Capa_1" xmlns="http://www.w3.org/2000/svg" xmlns:xlink="http://www.w3.org/1999/xlink" x="0px" y="0px"
	 viewBox="0 0 1024 1024" style="enable-background:new 0 0 1024 1024;" xml:space="preserve">
<style type="text/css">
	.st0{fill:#FFD071;}
	.st1{fill-rule:evenodd;clip-rule:evenodd;fill:#F9B630;}
	.st2{fill-rule:evenodd;clip-rule:evenodd;fill:#F9A40D;}
	.st3{fill-rule:evenodd;clip-rule:evenodd;fill:#E58D00;}
	.st4{fill-rule:evenodd;clip-rule:evenodd;fill:#767DD4;}
	.st5{fill-rule:evenodd;clip-rule:evenodd;fill:#F473C3;}
	.st6{fill-rule:evenodd;clip-rule:evenodd;fill:#F9F7FC;}
	.st7{fill-rule:evenodd;clip-rule:evenodd;fill:#C640A6;}
	.st8{fill-rule:evenodd;clip-rule:evenodd;fill:#5E6ACA;}
	.st9{fill-rule:evenodd;clip-rule:evenodd;fill:#DCDAEB;}
	.st10{fill:#FFFFFF;}
	.st11{fill:#5E6ACA;}
</style>
<g>
	<path class="st0" d="M952,512c0,243-197,440-440,440c-96.2,0-185.1-30.8-257.5-83.2c-19-13.7-36.8-28.9-53.4-45.5
		c-16.5-16.5-31.8-34.3-45.5-53.2C103,697.6,72,608.4,72,512C72,269,269,72,512,72c73.5,0,142.8,18,203.7,49.9
		c39.9,20.8,76.2,47.6,107.7,79.2c31.8,31.8,58.7,68.4,79.5,108.7C934.3,370.3,952,439.1,952,512z"/>
	<g>
		<g>
			<g>
				<path class="st1" d="M653,746.6c-5.8,0.7-11.5,1-18.9,1.1c-92.8,1.6-148.7-26.6-257.9-8.2l-91.3-91.3
					c18.5-109.2-9.8-165-8.2-257.9c0.1-7.4,0.4-13.1,1.1-18.9L465.4,559L653,746.6z"/>
			</g>
		</g>
		<path class="st2" d="M653,746.6c-5.8,0.7-11.5,1-18.9,1.1c-92.8,1.6-148.7-26.6-257.9-8.2l-45.6-45.6L465.5,559L653,746.6z"/>
		<g>
			<g>
				<path class="st2" d="M503.4,597L503.4,597L376.2,739.6l-17.7,19.8l-2.9,3.3l-81.4,91.2c-5.7,6.4-12.4,11.4-19.7,15
					c-19-13.7-36.8-28.9-53.4-45.5c-16.5-16.5-31.8-34.3-45.5-53.2c3.6-7.3,8.6-14.1,15-19.8l35.8-32l11.9-10.6l46.8-41.7l19.8-17.7
					l142.6-127.2l37.9,38l0,0L503.4,597z"/>
			</g>
		</g>
		<path class="st3" d="M503.4,597L503.4,597L376.2,739.6l-17.7,19.8l-2.9,3.3l-81.4,91.2c-5.7,6.4-12.4,11.4-19.7,15
			c-19-13.7-36.8-28.9-53.4-45.5l55.2-55.2l55.5-55.5l0,0l18.7-18.7l0,0l134.9-134.9l0,0L503.4,597z"/>
		<g>
			<polygon class="st4" points="306.2,818 206.4,718.3 265.1,666 358.5,759.4 			"/>
		</g>
		<g>
			<path class="st5" d="M731.6,715.8c-15.6,9-32,16.7-49,22.8c-13.3,4.8-21.5,7-29.6,8.1L503.4,597L277.9,371.5
				c1.1-8.1,3.3-16.3,8.1-29.6c36.6-102.2,128.7-180.8,238.3-216.1c117.9-37.9,234-9,308.8,65.6l0,0
				c74.6,74.7,103.5,190.9,65.6,308.8c-9,28.1-20.9,55-35.3,80.1C841.1,638,738.1,721.2,731.6,715.8z"/>
		</g>
		<g>
			<path class="st6" d="M593.7,206.7c0,54-44.1,98.2-98.3,98.2c-27.1,0-51.7-11-69.5-28.8S397,233.7,397,206.6
				c0-54.1,44.2-98.3,98.3-98.3c27.1,0,51.7,11.1,69.5,28.9S593.6,179.6,593.7,206.7z"/>
		</g>
		<path class="st7" d="M731.6,715.8c-15.6,9-32,16.7-49,22.8c-13.3,4.8-21.5,7-29.6,8.1L503.4,597l-38-38L833,191.4l0,0
			c74.6,74.7,103.5,190.9,65.6,308.8c-9,28.1-20.9,55-35.3,80.1C841.1,638,738.1,721.2,731.6,715.8z"/>
		<polygon class="st8" points="306.2,818 256.3,768.2 311.8,712.7 358.5,759.4 		"/>
		<path class="st9" d="M593.7,206.7c0,54-44.1,98.2-98.3,98.2c-27.1,0-51.7-11-69.5-28.8l138.9-138.9
			C582.6,155,593.6,179.6,593.7,206.7z"/>
	</g>
</g>
<path class="st10" d="M907.8,308.6c-13.6-46-38.2-87.7-71.2-120.8c-32.8-32.7-74.2-57.2-119.7-70.8c-54.8-16.4-114.8-17.1-173.7-1.9
	c-14.6-7.7-31-11.8-48-11.8c-51,0-93.5,37.2-101.8,85.8c-52.8,41.3-91.6,93.5-112.2,151.1c-3.1,8.6-5.2,15.2-6.6,21.1l-0.7-0.7
	l-1.2,10.2c-0.7,5.7-1,11.5-1.1,19.4c-0.6,36.8,3.4,68.2,7.3,98.4c6.1,47.5,11.9,92.4,1.2,157.2l-14.9,13.3l0,0l-66.2,59l0.1,0.1
	l-31.9,28.5c-6.7,5.9-12.1,13.1-16.2,21.3l-1.3,2.7l1.8,2.4c13.6,18.8,29.1,36.9,46,53.8c16.8,16.8,35,32.3,54,46l2.4,1.8l2.7-1.3
	c8.1-4,15.2-9.4,21.2-16.2l100.9-113.1c64.6-10.6,109.5-4.9,156.9,1.2c7,0.9,14.1,1.8,21.3,2.7c21.6,2.6,44.2,4.7,69.4,4.7
	c0,0,0,0,0,0c0,0,0,0,0,0c2.5,0,5.1,0,7.7-0.1c6.7-0.1,12-0.4,16.9-0.9l0.1,0.1l2.5-0.3c0.1,0,0.2,0,0.3,0l11.1,0l-1.8-1.8
	c5.9-1.4,12.5-3.5,21-6.5c16.4-5.9,32.6-13.4,48.2-22.3c0.8,0,1.6-0.1,2.4-0.3c18.1-4.7,111.3-82.9,133-138.3
	c14.6-25.5,26.5-52.6,35.5-80.7c11.2-34.9,16.9-70.3,16.9-105.3C920.3,366.3,916.1,336.7,907.8,308.6z M495.3,113.3
	c24.8,0,48.3,9.7,66,27.4c17.6,17.6,27.3,41,27.4,66c0,51.4-41.9,93.2-93.3,93.2c-24.9,0-48.3-9.7-66-27.3
	c-17.7-17.7-27.4-41.1-27.4-66C402,155.2,443.9,113.3,495.3,113.3z M281.7,390.4c0-2.9,0.1-5.4,0.2-7.8l138.4,138.4L291.9,635.4
	c8.4-60.1,2.6-104.8-3-148.1C285.1,457.4,281.1,426.5,281.7,390.4z M306,810.7l-92.3-92.2l51.2-45.6l86.7,86.7L306,810.7z
	 M270.5,850.6c-4.5,5-9.7,9.2-15.5,12.5c-17.7-12.9-34.6-27.5-50.3-43.2c-15.8-15.8-30.3-32.6-43.2-50.1c3.3-5.9,7.5-11.2,12.5-15.6
	l32.3-28.9l93.1,93L270.5,850.6z M358.3,752.1l-85.9-85.9l15.8-14.1l139.1-124.1l34.6,34.7l34.6,34.4l0.1,0.1l-124,139.1
	L358.3,752.1z M528.3,734.3c-40.6-5.2-83.1-9.6-139-1.9l114.3-128.2l138.1,138.2c-2.3,0.1-4.9,0.2-7.7,0.2c-4.5,0.1-8.9,0.1-13.3,0
	c-17.4-0.2-33.7-1.5-49.3-3.1c0,0,0,0,0,0c-1.4-0.1-2.7-0.3-4.1-0.4c-0.6-0.1-1.2-0.1-1.7-0.2c-0.1,0-0.3,0-0.4-0.1
	c-9.5-1.1-18.8-2.3-28.1-3.5C534.1,735.1,531.2,734.7,528.3,734.3z M893.9,498.7c-8.8,27.6-20.6,54.2-34.9,79.1l-0.2,0.3l-0.1,0.4
	c-20.6,53.2-110.1,126.7-125.4,132.3l-1.2-1l-3,1.7c-15.6,9-31.8,16.6-48.2,22.4c-11.3,4.1-18.9,6.3-26.1,7.5L469,555.5l-3.6-3.5
	l0,0L283.2,369.7c1.2-7.1,3.4-14.8,7.5-26.2c19-53,53.9-101.4,101.4-140.5c0,1.2-0.1,2.3-0.1,3.5c0,27.5,10.8,53.5,30.4,73
	c19.5,19.5,45.5,30.3,73,30.3c57,0,103.3-46.3,103.3-103.2v0c-0.1-27.6-10.9-53.5-30.4-73c-4.1-4.1-8.5-7.8-13.1-11.2
	c54-12.3,108.7-11,158.9,4.1c43.9,13.2,83.9,36.8,115.5,68.3c31.8,31.9,55.6,72.2,68.7,116.5c8,27.2,12.1,55.8,12.1,84.9
	C910.3,430.4,904.8,464.8,893.9,498.7z"/>
<path class="st11" d="M512,972c-97.4,0-190.5-30.1-269.1-86.9c-0.1-0.1-0.1-0.1-0.2-0.2c-19.6-14.1-38.3-30.1-55.7-47.5
	c-17.5-17.5-33.4-36.1-47.5-55.5c0,0-0.1-0.1-0.1-0.1C82.2,703,52,609.7,52,512c0-168.7,92.2-323.6,240.5-404.3
	c9.7-5.3,21.8-1.7,27.1,8s1.7,21.8-8,27.1C176.1,216.5,92,358,92,512c0,89.2,27.6,174.3,79.7,246.3c0,0,0.1,0.1,0.1,0.1
	c12.8,17.7,27.4,34.8,43.4,50.8c15.9,15.9,33,30.5,51,43.4c0.1,0.1,0.2,0.1,0.2,0.2C338.2,904.6,423.1,932,512,932
	c49.6,0,98.2-8.6,144.4-25.5c44.6-16.3,85.9-40,122.7-70.4c74-61,125.2-146.1,144.3-239.4c2.2-10.8,12.8-17.8,23.6-15.6
	c10.8,2.2,17.8,12.8,15.6,23.6c-20.9,102.3-77.1,195.4-158,262.3c-40.3,33.3-85.6,59.2-134.4,77.1C619.6,962.6,566.4,972,512,972z
	 M242.7,885c0,0,0.1,0.1,0.1,0.1l0,0C242.8,885,242.8,885,242.7,885C242.8,885,242.8,885,242.7,885z M242.1,884.5
	c0.1,0.1,0.2,0.1,0.2,0.2C242.2,884.6,242.2,884.5,242.1,884.5z M242.1,884.5C242.1,884.5,242.1,884.5,242.1,884.5
	C242.1,884.5,242.1,884.5,242.1,884.5z M242,884.4C242,884.5,242.1,884.5,242,884.4C242.1,884.5,242,884.5,242,884.4z M266.7,853
	c0.1,0.1,0.2,0.1,0.3,0.2C266.9,853.1,266.8,853,266.7,853z M266.2,852.6c0,0,0.1,0.1,0.1,0.1c0,0,0,0,0.1,0
	C266.3,852.7,266.3,852.6,266.2,852.6L266.2,852.6z M265.8,852.3C265.8,852.3,265.8,852.3,265.8,852.3L265.8,852.3
	C265.8,852.3,265.8,852.3,265.8,852.3z"/>
</svg>
