<?xml version="1.0" encoding="utf-8"?>
<!-- Generator: Adobe Illustrator 24.0.0, SVG Export Plug-In . SVG Version: 6.00 Build 0)  -->
<svg version="1.1" id="Capa_1" xmlns="http://www.w3.org/2000/svg" xmlns:xlink="http://www.w3.org/1999/xlink" x="0px" y="0px"
	 viewBox="0 0 1024 1024" style="enable-background:new 0 0 1024 1024;" xml:space="preserve">
<style type="text/css">
	.st0{fill:#FFD071;}
	.st1{fill:#F9F7FC;}
	.st2{fill:#DCDAEB;}
	.st3{fill:#9DD4A9;}
	.st4{fill:#84BFA7;}
	.st5{fill:#F473C3;}
	.st6{fill:#C640A6;}
	.st7{fill:#534A9A;}
	.st8{fill:#443F80;}
	.st9{fill:#FFFFFF;}
</style>
<g>
	<circle class="st0" cx="512" cy="512" r="440"/>
	<g>
		<g>
			<path class="st1" d="M814.4,213.7l49.1,49.1c18.8,18.8,18.8,49.6,0,68.4L826,368.6c-18.8,18.8-49.6,18.8-68.4,0l-49.1-49.1
				L814.4,213.7z"/>
			<path class="st1" d="M319.5,708.5l49.1,49.1c18.8,18.8,18.8,49.6,0,68.4l-37.4,37.4c-18.8,18.8-49.6,18.8-68.4,0l-49.1-49.1
				L319.5,708.5z"/>
			<path class="st2" d="M319.5,708.5l49.1,49.1c18.8,18.8,18.8,49.6,0,68.4l-18.7,18.7l-83.3-83.3L319.5,708.5z"/>
			<path class="st2" d="M814.4,213.7l49.1,49.1c18.8,18.8,18.8,49.6,0,68.4l-18.7,18.7l-83.3-83.3L814.4,213.7z"/>
		</g>
		<path class="st3" d="M842.7,134.2v46.4c0,12.3-1.5,24.5-4.4,36.2c-1.3,5.4-3,10.8-4.9,16c-7.4,20-19.1,38.4-34.7,54l-8.6,8.6
			L286.7,798.7c-15.6,15.6-34,27.3-54,34.7c-5.2,1.9-10.5,3.6-15.9,4.9c-14.6-13.3-28.4-27.5-41.1-42.6
			c-15.5-18.3-29.5-38-41.9-58.7c0.1,0,0.2,0,0.4,0h46.4c3.3,0,6.6-0.4,9.8-1.1c0.4-0.1,0.7-0.2,1.1-0.2c1-0.3,2.1-0.6,3.1-0.9
			c1-0.3,2-0.7,3-1.1c1-0.4,2-0.9,2.9-1.3c0.6-0.3,1.3-0.7,1.9-1c1.3-0.7,2.5-1.5,3.7-2.3c0.3-0.2,0.6-0.4,0.9-0.6
			c0.6-0.4,1.2-0.9,1.7-1.4c1.1-0.9,2.2-1.9,3.3-3l512-512c8.4-8.4,13-19.5,13-31.4v-46.4c0-0.1,0-0.3,0-0.4
			c0.2-29,23.8-52.4,52.9-52.4c0.2,0,0.3,0,0.5,0C819.3,81.6,842.7,105.1,842.7,134.2z"/>
		<path class="st4" d="M842.7,134.2v46.4c0,40.1-15.6,77.8-44,106.1l-256,256L468,468l256-256c8.4-8.4,13-19.5,13-31.4v-46.4
			c0-29.2,23.7-52.9,52.9-52.9C819,81.3,842.7,105,842.7,134.2z"/>
		<path class="st5" d="M797.5,107.4v45.2c0,7.8-0.6,15.5-1.8,23c-4.8,30.3-18.9,58.3-41,80.4L505.3,505.3L256,754.7
			c-22.1,22.1-50,36.3-80.3,41c-15.5-18.3-29.5-38-41.9-58.7c0.1,0,0.2,0,0.4,0h46.4c3.3,0,6.6-0.4,9.8-1.1c0.4-0.1,0.7-0.2,1.1-0.2
			c1-0.3,2.1-0.6,3.1-0.9c1-0.3,2-0.7,3-1.1c1-0.4,2-0.9,2.9-1.3c0.6-0.3,1.3-0.7,1.9-1c1.3-0.7,2.5-1.5,3.7-2.3
			c0.3-0.2,0.6-0.4,0.9-0.6c0.6-0.4,1.2-0.9,1.7-1.4c1.1-0.9,2.2-1.9,3.3-3l512-512c8.4-8.4,13-19.5,13-31.4v-46.4
			c0-0.1,0-0.3,0-0.4c0.2-29,23.8-52.4,52.9-52.4c0.2,0,0.3,0,0.5,0C794.9,89,797.5,97.9,797.5,107.4z"/>
		<g>
			<path class="st5" d="M424.3,919.2c-7.9,7.9-17.1,13.8-26.9,17.8c-36.6-9.9-71.4-24.3-103.6-42.7l0,0c-2.4-5.6-4.2-11.4-5.2-17.4
				c-4.5-25,2.9-51.8,22.2-71.1c19.3-19.4,46.1-26.8,71.1-22.2c15.5,2.8,30.4,10.2,42.4,22.2C455.7,837,455.7,887.8,424.3,919.2z"/>
			<path class="st6" d="M424.3,805.7c31.3,31.3,31.3,82.1,0,113.5L310.8,805.7C342.2,774.4,393,774.4,424.3,805.7z"/>
			
				<ellipse transform="matrix(0.5847 -0.8112 0.8112 0.5847 -547.0151 656.3401)" class="st7" cx="367.6" cy="862.5" rx="27.4" ry="27.4"/>
			<path class="st8" d="M387,843.1c10.7,10.7,10.7,28.1,0,38.7l-38.7-38.7C358.9,832.4,376.3,832.4,387,843.1z"/>
		</g>
		<g>
			<path class="st5" d="M919.2,310.8c31.3,31.3,31.3,82.1,0,113.5c-31.3,31.3-82.2,31.3-113.5,0s-31.3-82.2,0-113.5
				S887.9,279.5,919.2,310.8z"/>
			<path class="st6" d="M919.2,310.8c31.3,31.3,31.3,82.1,0,113.5L805.7,310.8C837.1,279.5,887.9,279.5,919.2,310.8z"/>
			
				<ellipse transform="matrix(0.5847 -0.8112 0.8112 0.5847 59.9685 852.2999)" class="st7" cx="862.5" cy="367.6" rx="27.4" ry="27.4"/>
			<path class="st8" d="M881.8,348.2c10.7,10.7,10.7,28.1,0,38.7l-38.7-38.7C853.8,337.5,871.1,337.5,881.8,348.2z"/>
		</g>
		<path class="st6" d="M790.4,81.3c4.5,7.7,7.2,16.5,7.2,26.1v45.2c0,39.1-15.2,75.8-42.8,103.4L505.3,505.3L468,468l256-256
			c8.4-8.4,13-19.5,13-31.4v-46.4c0-29.2,23.7-52.9,52.9-52.9C790,81.3,790.2,81.3,790.4,81.3z"/>
	</g>
</g>
<g>
	<g>
		<path class="st9" d="M341.3,843.5c-10.4,14.5-7.2,34.8,7.3,45.2c5.7,4.1,12.3,6.1,18.9,6.1c10.1,0,20-4.7,26.3-13.4
			c10.4-14.5,7.2-34.8-7.3-45.2C372,825.7,351.7,829,341.3,843.5z M380.7,844.3c10,7.2,12.3,21.2,5.1,31.3s-21.2,12.3-31.3,5.1
			c-10-7.2-12.3-21.2-5.1-31.3c4.4-6.1,11.2-9.3,18.2-9.3C372.1,840.1,376.7,841.4,380.7,844.3z"/>
		<path class="st9" d="M922.7,307.3c-11.9-11.9-26.4-19.5-41.6-22.9c-2.3-9.5-7.1-18.2-14.1-25.1l-27.9-27.8c1.6-4.7,2.9-9.2,4-13.4
			c3-12.2,4.5-24.8,4.5-37.4v-46.4c0-31.7-25.7-57.6-57.3-57.7h-0.5c-31.7,0-57.7,25.7-57.9,57.4v46.8c0,10.5-4.1,20.4-11.5,27.9
			l-512,512c-1,1-2,1.9-2.9,2.7c-0.1,0.1-0.3,0.2-0.4,0.3c-0.3,0.3-0.6,0.6-0.9,0.8l-0.9,0.6c-1.1,0.7-2.2,1.4-3.2,2
			c-0.3,0.2-0.7,0.4-1,0.5c-0.2,0.1-0.5,0.3-0.7,0.4c-0.3,0.1-0.6,0.3-0.9,0.4c-0.5,0.3-1.1,0.5-1.7,0.8c-0.9,0.4-1.8,0.7-2.6,0.9
			c-0.5,0.1-1,0.3-1.5,0.4c-0.4,0.1-0.7,0.2-1.1,0.3c-0.5,0.1-1,0.2-1.3,0.3l-0.1,0c-0.4,0.1-0.8,0.2-1.2,0.2
			c-2.5,0.5-5,0.7-7.4,0.7h-46.8c-1.8,0-3.5,1-4.4,2.5s-0.9,3.5,0.1,5c1.6,2.6,3.2,5.3,4.8,7.9c11.4,18.2,24,35.5,37.5,51.5
			c12.5,14.8,26.4,29.3,41.6,43.1c0.9,0.8,2.1,1.3,3.4,1.3c0.4,0,0.8,0,1.2-0.1c4.2-1,8.7-2.3,13.5-4l27.8,27.8
			c6.9,6.9,15.5,11.7,25,14c1.1,5.1,2.7,10.2,4.9,15.3c0.4,1,1.2,1.8,2.1,2.4c32.7,18.7,68,33.2,104.8,43.2c0.4,0.1,0.9,0.2,1.3,0.2
			c0.6,0,1.3-0.1,1.9-0.4c10.8-4.4,20.4-10.8,28.5-18.9c16.2-16.2,25.1-37.6,25-60.4c0-22.7-8.9-44-25-60
			c-11.5-11.5-25.8-19.4-41.6-22.9c-2.3-9.6-7.1-18.3-14.1-25.3l-16.9-16.9l382-381.9l16.8,16.8c7,7,15.7,11.8,25.2,14.1
			c3.4,15.3,11,29.8,22.9,41.6c16.1,16.1,37.5,24.9,60.3,24.9s44.2-8.9,60.3-24.9C955.9,394.5,955.9,340.5,922.7,307.3z M180.6,742
			c3.5,0,7.2-0.4,10.9-1.2c0.1,0,0.1,0,0.2,0l0.2-0.1h0c0.4,0,0.7-0.1,1.1-0.2c0.5-0.1,1-0.3,1.5-0.4c0.5-0.2,1.1-0.3,1.6-0.5
			c1.2-0.4,2.3-0.8,3.4-1.2c0.7-0.3,1.5-0.6,2.2-1c0.3-0.1,0.6-0.3,0.9-0.4c0.1,0,0.1-0.1,0.2-0.1c0.3-0.2,0.7-0.4,1.1-0.6
			c0.3-0.2,0.6-0.3,0.8-0.4c0,0,0.1,0,0.1-0.1c1.5-0.8,2.8-1.7,4.1-2.5l0.9-0.6c0.8-0.5,1.6-1.2,2.3-1.8c1.2-1,2.3-2,3.5-3.2
			l512-512c1.7-1.7,3.4-3.6,4.8-5.6c6.3-8.5,9.7-18.7,9.7-29.4v-46.8c0-0.8,0-1.6,0.1-2.4c0-0.3,0-0.5,0.1-0.8
			c0-0.5,0.1-1.1,0.1-1.6c0-0.3,0.1-0.6,0.1-0.9c0.1-0.5,0.1-1,0.2-1.4c0.1-0.3,0.1-0.6,0.2-1c0.1-0.4,0.2-0.9,0.2-1.3
			c0.1-0.3,0.2-0.7,0.2-1c0.1-0.4,0.2-0.9,0.3-1.3c0.1-0.3,0.2-0.7,0.3-1c0.1-0.4,0.2-0.8,0.4-1.2c0.1-0.3,0.2-0.7,0.3-1
			c0.1-0.4,0.3-0.8,0.4-1.2c0.1-0.3,0.2-0.6,0.4-1c0.2-0.4,0.3-0.8,0.5-1.2c0.1-0.3,0.3-0.6,0.4-0.9c0.2-0.4,0.3-0.8,0.5-1.1
			c0.2-0.3,0.3-0.6,0.5-0.9c0.2-0.4,0.4-0.7,0.6-1.1c0.2-0.3,0.3-0.6,0.5-0.9c0.2-0.4,0.4-0.7,0.6-1.1c0.2-0.3,0.4-0.6,0.6-0.9
			c0.2-0.3,0.4-0.7,0.7-1c0.2-0.3,0.4-0.6,0.6-0.8c0.2-0.3,0.5-0.7,0.7-1c0.2-0.3,0.4-0.5,0.6-0.8c0.3-0.3,0.5-0.6,0.8-1
			c0.2-0.3,0.4-0.5,0.7-0.8c0.3-0.3,0.5-0.6,0.8-0.9c0.2-0.3,0.5-0.5,0.7-0.8c0.3-0.3,0.6-0.6,0.8-0.9c0.2-0.2,0.5-0.5,0.7-0.7
			c0.3-0.3,0.6-0.6,0.9-0.8c0.3-0.2,0.5-0.5,0.8-0.7c0.3-0.3,0.6-0.5,0.9-0.8c0.3-0.2,0.5-0.4,0.8-0.7c0.3-0.3,0.6-0.5,1-0.8
			c0.3-0.2,0.5-0.4,0.8-0.6c0.3-0.2,0.7-0.5,1-0.7c0.3-0.2,0.6-0.4,0.9-0.6c0.3-0.2,0.7-0.4,1-0.7c0.3-0.2,0.6-0.4,0.9-0.5
			c0.4-0.2,0.7-0.4,1.1-0.6c0.3-0.2,0.6-0.3,0.9-0.5c0.4-0.2,0.7-0.4,1.1-0.6c0.3-0.2,0.6-0.3,0.9-0.5c0.4-0.2,0.8-0.3,1.2-0.5
			c0.3-0.1,0.6-0.3,0.9-0.4c0.4-0.2,0.8-0.3,1.2-0.5c0.3-0.1,0.6-0.2,1-0.4c0.4-0.1,0.8-0.3,1.2-0.4c0.3-0.1,0.6-0.2,1-0.3
			c0.4-0.1,0.8-0.2,1.3-0.4c0.3-0.1,0.6-0.2,1-0.3c0.4-0.1,0.9-0.2,1.3-0.3c0.3-0.1,0.6-0.2,1-0.2c0.5-0.1,0.9-0.2,1.4-0.2
			c0.3-0.1,0.6-0.1,0.9-0.2c0.5-0.1,1-0.1,1.5-0.2c0.3,0,0.6-0.1,0.8-0.1c0.6-0.1,1.2-0.1,1.8-0.1c0.2,0,0.4,0,0.6,0c0,0,0,0,0,0
			c3.3,6.4,5,13.5,5,20.8v45.2c0,7.5-0.6,15-1.7,22.2c-4.7,29.6-18.4,56.4-39.6,77.6L501.8,501.8L252.5,751.2
			c-20.7,20.7-46.5,34.2-74.8,39.1c-0.6-0.7-1.1-1.3-1.7-2c-0.7-0.9-1.5-1.8-2.2-2.7c-0.9-1.1-1.7-2.1-2.5-3.2
			c-0.7-0.9-1.5-1.8-2.2-2.7c-0.8-1.1-1.7-2.2-2.5-3.3c-0.7-0.9-1.4-1.8-2.1-2.8c-0.8-1.1-1.7-2.2-2.5-3.4c-0.7-0.9-1.4-1.8-2-2.8
			c-0.8-1.2-1.7-2.3-2.5-3.5c-0.6-0.9-1.3-1.8-1.9-2.7c-0.9-1.2-1.7-2.5-2.6-3.7c-0.6-0.9-1.2-1.7-1.8-2.6c-0.9-1.4-1.9-2.8-2.8-4.2
			c-0.5-0.7-1-1.5-1.5-2.2c-1.4-2.2-2.8-4.3-4.2-6.5H180.6z M185.2,799c28.1-6.1,53.6-20.1,74.4-40.8l249.3-249.4l249.4-249.3
			c22.7-22.7,37.4-51.5,42.4-83.1c1.2-7.7,1.9-15.7,1.9-23.8v-45.2c0-6.9-1.3-13.8-3.7-20.1c22.1,4.1,38.9,23.6,38.9,46.9v46.4
			c0,11.8-1.4,23.6-4.3,35c-1.2,4.8-2.8,10-4.7,15.4c-7.3,19.6-18.6,37.2-33.5,52.2l-61.4,61.4c0,0,0,0,0,0s0,0,0,0L283.2,795.2
			c-15,15-32.6,26.3-52.2,33.5c0,0,0,0-0.1,0c0,0,0,0,0,0c-4.6,1.7-8.7,3-12.7,4C206.4,821.9,195.3,810.6,185.2,799z M442.9,862.3
			c0,20.1-7.8,39.1-22.1,53.4c-6.8,6.8-14.8,12.2-23.7,16.1c-34.8-9.6-68.2-23.3-99.3-40.9c-2-4.9-3.4-9.9-4.2-14.8
			c-4.4-24.3,3.4-49.3,20.8-66.7c17.4-17.5,42.3-25.3,66.7-20.8c15.1,2.7,28.9,9.9,39.8,20.8C435,823.5,442.8,842.3,442.9,862.3z
			 M365.1,761.1c4.7,4.7,8.2,10.3,10.3,16.5c-25.1-2.4-50.1,6.6-68.1,24.6c-17.9,17.9-26.8,42.8-24.6,67.8
			c-6.1-2.1-11.7-5.6-16.3-10.2l-24.7-24.7c18.1-7.7,34.4-18.8,48.6-33l58-58L365.1,761.1z M761.1,365.1l-16.8-16.8l57.9-57.9
			c14.2-14.2,25.3-30.5,33-48.7l24.7,24.7c4.6,4.6,8.1,10.2,10.2,16.4c-24.3-2.2-49.4,6-68,24.6c-18.6,18.6-26.8,43.7-24.6,68.1
			C771.4,373.2,765.8,369.7,761.1,365.1z M915.7,420.8c-14.2,14.2-33.1,22-53.2,22s-39-7.8-53.2-22c-29.3-29.3-29.3-77.1,0-106.4
			c14.7-14.7,33.9-22,53.2-22s38.5,7.3,53.2,22C945,343.6,945,391.4,915.7,420.8z"/>
		<path class="st9" d="M881.4,341.3c-7-5.1-15.6-7.1-24.1-5.7c-8.5,1.4-16,6-21.1,13c-5.1,7-7.1,15.6-5.7,24.1c1.4,8.5,6,16,13,21.1
			c5.6,4,12.1,6.1,18.9,6.1c1.7,0,3.5-0.1,5.3-0.4c8.5-1.4,16-6,21.1-13c5.1-7,7.1-15.6,5.7-24.1
			C893.1,353.8,888.4,346.4,881.4,341.3z M880.6,380.7c-3.5,4.9-8.7,8.1-14.6,9c-5.9,1-11.8-0.4-16.7-3.9c-4.9-3.5-8.1-8.7-9-14.6
			c-1-5.9,0.4-11.8,3.9-16.7c0,0,0,0,0,0c3.5-4.9,8.7-8.1,14.6-9c1.2-0.2,2.4-0.3,3.6-0.3c4.7,0,9.2,1.5,13,4.2
			c4.9,3.5,8.1,8.7,9,14.6C885.5,369.9,884.1,375.8,880.6,380.7z"/>
	</g>
	<path class="st5" d="M950.4,554.4c-10.9-1.5-21.1,6.1-22.6,17c-14,99.2-63.5,190.4-139.3,256.7C712,895.1,613.8,932,512,932
		c-37.1,0-73.9-4.8-109.3-14.4c-0.1,0-0.2-0.1-0.3-0.1c-34.5-9.3-67.7-23-98.7-40.8c-26.3-15-51-33-73.4-53.3
		c-0.1-0.1-0.2-0.2-0.4-0.3c-2.4-2.2-4.8-4.4-7.5-7c-0.8-0.8-1.6-1.5-2.4-2.3l-1.1-1.1c-0.7-0.7-1.4-1.3-2-2
		c-0.1-0.1-0.2-0.2-0.2-0.2c-0.5-0.5-1-1-1.5-1.5c-0.1-0.1-0.1-0.1-0.2-0.2c-0.8-0.8-1.6-1.6-2.4-2.4l-0.1-0.1c0,0-0.1-0.1-0.1-0.1
		c-0.7-0.7-1.5-1.5-2.2-2.2c-0.1-0.1-0.1-0.1-0.2-0.2c-0.8-0.9-1.7-1.7-2.5-2.6c-0.1-0.1-0.1-0.1-0.2-0.2c-0.7-0.7-1.3-1.4-2-2.1
		c0,0-0.1-0.1-0.1-0.1c-0.1-0.1-0.2-0.2-0.3-0.3c-0.8-0.8-1.6-1.7-2.4-2.5c-3.3-3.6-6.3-7-9.3-10.5c-3.5-4.1-7-8.3-10.4-12.6
		c-2.1-2.7-3.9-5-5.6-7.2c-0.1-0.1-0.2-0.2-0.2-0.3c-0.6-0.8-1.2-1.6-1.8-2.4c-0.1-0.1-0.1-0.2-0.2-0.3c-6-8-11.8-16.4-17.1-24.8
		c0-0.1-0.1-0.1-0.1-0.2c-0.7-1.1-1.4-2.3-2.2-3.5c-1.3-2-2.5-4-3.7-6.1c-0.1-0.1-0.1-0.2-0.2-0.3c-0.2-0.3-0.4-0.6-0.6-0.9
		c0,0,0-0.1-0.1-0.1C112.4,662,92,587.8,92,512c0-56.7,11.1-111.7,33-163.5c21.2-50,51.4-94.9,90-133.5
		c38.6-38.6,83.5-68.9,133.5-90c51.8-21.9,106.8-33,163.5-33c11,0,20-9,20-20s-9-20-20-20c-62.1,0-122.3,12.2-179.1,36.2
		c-54.8,23.2-104,56.3-146.2,98.6c-42.2,42.2-75.4,91.4-98.6,146.2C64.2,389.7,52,449.9,52,512c0,83,22.3,164.3,64.6,235.2
		c0.3,0.5,0.6,1.1,1,1.6c1.3,2.2,2.6,4.3,3.9,6.4c0.9,1.4,1.7,2.8,2.6,4.2c5.8,9.2,12.1,18.2,18.6,27c0.9,1.2,1.7,2.4,2.6,3.4
		c1.8,2.4,3.8,5,6.1,7.8c3.7,4.7,7.6,9.4,11.5,13.9c3.2,3.8,6.5,7.5,10.1,11.4c0.8,0.9,1.6,1.8,2.5,2.7c0.1,0.2,0.3,0.3,0.4,0.5
		c0.9,0.9,1.7,1.9,2.6,2.8c0.8,0.9,1.7,1.7,2.5,2.6c0.9,1,1.9,2,2.9,2.9l0.1,0.1c0.8,0.8,1.6,1.7,2.5,2.5c0.8,0.8,1.6,1.6,2.4,2.3
		c0.7,0.7,1.4,1.4,2.1,2.1l1.1,1c1,1,1.9,1.9,2.9,2.8c3,2.8,5.7,5.4,8.5,7.9c0.1,0.1,0.3,0.3,0.4,0.4c24.5,22.1,51.4,41.6,80,58
		c34.1,19.5,70.6,34.6,108.5,44.8c0.1,0,0.2,0.1,0.3,0.1C431.4,966.7,471.5,972,512,972c111.5,0,219.1-40.4,302.9-113.8
		c83-72.7,137.2-172.5,152.6-281.2C969,566.1,961.4,556,950.4,554.4z"/>
</g>
</svg>
