<?xml version="1.0" encoding="utf-8"?>
<!-- Generator: Adobe Illustrator 24.0.0, SVG Export Plug-In . SVG Version: 6.00 Build 0)  -->
<svg version="1.1" id="Capa_1" xmlns="http://www.w3.org/2000/svg" xmlns:xlink="http://www.w3.org/1999/xlink" x="0px" y="0px"
	 viewBox="0 0 1024 1024" style="enable-background:new 0 0 1024 1024;" xml:space="preserve">
<style type="text/css">
	.st0{fill:#A5C6FF;}
	.st1{fill:#534A9A;}
	.st2{fill:#FFD071;}
	.st3{fill:#F473C3;}
	.st4{fill:#5E6ACA;}
	.st5{fill:#84BFA7;}
	.st6{fill:#F9F7FC;}
	.st7{fill:#767DD4;}
	.st8{fill:#F9A40D;}
	.st9{fill:#2A286B;}
	.st10{fill:#C640A6;}
	.st11{fill:#DCDAEB;}
	.st12{fill:#443F80;}
	.st13{fill:#FFFFFF;}
</style>
<g>
	<circle class="st0" cx="512" cy="512" r="440"/>
	<g>
		<g>
			<path class="st1" d="M235.2,854.1c23.7,19.2,49.5,36.1,77,50.1h399.5c27.5-14,53.3-30.8,77.1-50.1H235.2z M615,162.2
				c-24.1-37.5-63.5-56.3-103-56.3s-78.9,18.8-103,56.3L94.9,652.4c6.5,19.4,14.4,38.2,23.4,56.2l332.9-519.5
				c6.9-10.8,16-19.2,26.9-25c10.3-5.4,22-8.3,33.9-8.3c11.9,0,23.6,2.9,33.9,8.3c10.9,5.8,20,14.2,26.9,25l332.9,519.5
				c9.1-18.1,16.9-36.9,23.4-56.3L615,162.2z"/>
			<g>
				<g>
					<path class="st2" d="M321.8,749.2c0,47.6-38.6,86.2-86.2,86.2c-9.2,0-18-1.4-26.3-4.1c-10.5-10-20.5-20.5-30-31.4
						c-10.2-11.8-19.8-24.2-28.8-37l0,0c-0.7-4.4-1.1-9-1.1-13.6c0-47.6,38.6-86.2,86.2-86.2C283.3,663,321.8,701.6,321.8,749.2z"/>
					<path class="st3" d="M506.1,749.2c0,19.3-6.4,37.2-17.1,51.6c0,0,0,0,0,0c-7.2,9.6-16.3,17.6-26.8,23.5
						c-12.5,7.1-26.9,11.1-42.3,11.1c-47.6,0-86.2-38.6-86.2-86.2s38.6-86.2,86.2-86.2C467.5,663,506.1,701.6,506.1,749.2z"/>
					<circle class="st4" cx="604.1" cy="749.2" r="86.2"/>
					<path class="st5" d="M874.5,749.2c0,4.7-0.4,9.3-1.1,13.8c-8.9,12.8-18.5,25.1-28.6,36.8c-9.5,10.9-19.5,21.4-30,31.4
						c-8.3,2.7-17.3,4.2-26.5,4.2c-47.6,0-86.2-38.6-86.2-86.2c0-47.6,38.6-86.2,86.2-86.2C835.9,663,874.5,701.6,874.5,749.2z"/>
				</g>
				<g>
					<circle class="st5" cx="327.8" cy="596.6" r="86.2"/>
					<circle class="st6" cx="512" cy="596.6" r="86.2"/>
					<circle class="st7" cx="696.2" cy="596.6" r="86.2"/>
				</g>
				<g>
					<circle class="st8" cx="419.9" cy="437.4" r="86.2"/>
					<circle class="st9" cx="604.1" cy="437.4" r="86.2"/>
				</g>
				<circle class="st3" cx="512" cy="282.9" r="86.2"/>
				<path class="st10" d="M598.2,282.9c0-47.6-38.6-86.2-86.2-86.2v172.4C559.6,369.1,598.2,330.5,598.2,282.9z"/>
				<path class="st11" d="M598.2,596.6c0-47.6-38.6-86.2-86.2-86.2v172.4C559.6,682.8,598.2,644.2,598.2,596.6z"/>
			</g>
			<path class="st12" d="M512,854.1h276.9c-23.8,19.3-49.6,36.1-77.1,50.1H512V854.1z"/>
			<path class="st12" d="M929.1,652.4c-6.5,19.4-14.4,38.2-23.4,56.3L572.8,189.2c-6.9-10.8-16-19.2-26.9-25
				c-10.3-5.4-22-8.3-33.9-8.3v-50.1c39.5,0,78.9,18.8,103,56.3L929.1,652.4z"/>
			<circle class="st6" cx="308.3" cy="584" r="34.6"/>
			<path class="st6" d="M491,788.8c0,4.2-0.7,8.2-2,12c0,0,0,0,0,0c-7.2,9.6-16.3,17.6-26.8,23.5c-2.4,0.5-4.9,0.8-7.5,0.8
				c-20,0-36.3-16.2-36.3-36.3s16.2-36.3,36.3-36.3S491,768.8,491,788.8z"/>
			<circle class="st6" cx="467.4" cy="270.5" r="36.3"/>
			<circle class="st6" cx="604.1" cy="437.4" r="36.3"/>
			<circle class="st6" cx="250.1" cy="741" r="58.2"/>
			<circle class="st11" cx="788.3" cy="749.2" r="58.2"/>
			<circle class="st11" cx="680.4" cy="614.5" r="58.2"/>
		</g>
	</g>
</g>
<g>
	<g>
		<path class="st13" d="M232.1,858c24.3,19.7,50.5,36.7,77.9,50.7l1.1,0.5h401.9l1.1-0.5c27.6-14.1,53.9-31.1,78-50.7l11-8.9H221.1
			L232.1,858z M774.3,859.1c-20.1,15.2-41.5,28.6-63.8,40.1H313.4c-22.2-11.4-43.5-24.8-63.7-40.1H774.3z"/>
		<path class="st13" d="M619.2,159.5L619.2,159.5c-23.6-36.7-63.7-58.6-107.2-58.6s-83.6,21.9-107.2,58.6L89.4,651.7l0.8,2.3
			c6.4,19.1,14.4,38.3,23.7,56.8l3.9,7.9l337.7-526.9c6.4-10,14.8-17.8,25-23.3c9.6-5.1,20.6-7.7,31.6-7.7c11,0,21.9,2.7,31.6,7.7
			c10.2,5.4,18.6,13.3,25,23.3l337.6,526.9l3.9-7.8c9.1-18.2,17.1-37.3,23.7-57l0.8-2.3L619.2,159.5z M905.1,698.4L577,186.4
			c-7.3-11.5-17-20.5-28.8-26.7c-11.1-5.8-23.6-8.9-36.2-8.9c-12.6,0-25.2,3.1-36.2,8.9c-11.8,6.3-21.4,15.2-28.8,26.7l-328.1,512
			c-7.1-14.9-13.3-30.1-18.5-45.3l312.8-488.2c21.7-33.8,58.7-54,98.8-54c40.1,0,77.1,20.2,98.8,54L923.6,653
			C918.3,668.5,912.1,683.8,905.1,698.4z"/>
		<path class="st13" d="M788.3,658c-10.3,0-20.3,1.7-29.6,4.9c17.6-16.6,28.7-40.2,28.7-66.3c0-50.3-40.9-91.2-91.2-91.2
			S605,546.3,605,596.6c0,26.1,11,49.7,28.7,66.3c-9.3-3.2-19.2-4.9-29.6-4.9c-10.3,0-20.3,1.7-29.6,4.9
			c17.6-16.6,28.7-40.2,28.7-66.3c0-50.3-40.9-91.2-91.2-91.2s-91.2,40.9-91.2,91.2c0,26.1,11,49.7,28.7,66.3
			c-9.3-3.2-19.2-4.9-29.6-4.9s-20.3,1.7-29.6,4.9c17.6-16.6,28.7-40.2,28.7-66.3c0-50.3-40.9-91.2-91.2-91.2
			c-50.3,0-91.2,40.9-91.2,91.2c0,26.1,11.1,49.8,28.8,66.4c-9.4-3.2-19.3-4.9-29.6-4.9c-0.1,0-0.1,0-0.2,0
			c-50.3,0-91.2,40.9-91.2,91.2c0,4.7,0.4,9.5,1.2,14.4l0.2,1.1l0.7,0.9c9.3,13.2,19.1,25.8,29.1,37.4c9.7,11.2,19.9,21.8,30.3,31.7
			l0.8,0.8l1.1,0.4c8.9,2.9,18.2,4.3,27.8,4.3c50.3,0,91.2-40.9,91.2-91.2c0-24.4-9.5-47.3-26.7-64.5c-0.6-0.6-1.3-1.2-1.9-1.8
			c9.3,3.2,19.3,5,29.7,5c10.3,0,20.3-1.7,29.6-4.9c-17.6,16.6-28.7,40.2-28.7,66.3c0,50.3,40.9,91.2,91.2,91.2
			c15.7,0,31.2-4.1,44.8-11.7c10.2-5.8,19.5-13.7,26.8-22.9h0.8l1.1-2.5c11.6-15.7,17.7-34.4,17.7-54.1c0-26.1-11-49.7-28.7-66.3
			c9.3,3.2,19.2,4.9,29.6,4.9c10.3,0,20.3-1.7,29.6-4.9c-17.6,16.6-28.7,40.2-28.7,66.3c0,50.3,40.9,91.2,91.2,91.2
			c50.3,0,91.2-40.9,91.2-91.2c0-26.1-11-49.7-28.7-66.3c9.3,3.2,19.2,4.9,29.6,4.9c10.3,0,20.3-1.7,29.6-4.9
			c-17.6,16.6-28.7,40.2-28.7,66.3c0,50.3,40.9,91.2,91.2,91.2c9.5,0,19-1.5,28-4.4l1.1-0.4l0.8-0.8c10.4-9.9,20.6-20.6,30.3-31.8
			c10.4-12,20.1-24.6,28.9-37.2l0.7-0.9l0.2-1.1c0.8-4.9,1.2-9.9,1.2-14.6C879.5,698.9,838.6,658,788.3,658z M316.8,749.2
			c0,44.8-36.4,81.2-81.2,81.2c-8.2,0-16.1-1.2-23.7-3.5c-9.9-9.5-19.6-19.6-28.8-30.3c-9.6-11.1-18.9-23-27.8-35.6
			c-0.6-3.9-0.9-7.9-0.9-11.7c0-44.8,36.4-81.2,81.2-81.2c0.1,0,0.1,0,0.2,0c21.6,0,41.9,8.4,57.2,23.6
			C308.3,707.1,316.8,727.5,316.8,749.2z M246.6,596.6c0-44.8,36.4-81.2,81.2-81.2c44.8,0,81.2,36.4,81.2,81.2
			c0,44.8-36.4,81.2-81.2,81.2C283,677.8,246.6,641.4,246.6,596.6z M501.1,749.2c0,17.7-5.6,34.5-16.1,48.6l-0.6,0.9
			c-6.6,8.6-15.1,16-24.6,21.3c-12.1,6.8-25.9,10.4-39.8,10.4c-44.8,0-81.2-36.4-81.2-81.2s36.4-81.2,81.2-81.2
			C464.7,668,501.1,704.4,501.1,749.2z M430.8,596.6c0-44.8,36.4-81.2,81.2-81.2c44.8,0,81.2,36.4,81.2,81.2
			c0,44.8-36.4,81.2-81.2,81.2C467.2,677.8,430.8,641.4,430.8,596.6z M685.3,749.2c0,44.8-36.4,81.2-81.2,81.2
			c-44.8,0-81.2-36.4-81.2-81.2s36.4-81.2,81.2-81.2C648.9,668,685.3,704.4,685.3,749.2z M615,596.6c0-44.8,36.4-81.2,81.2-81.2
			s81.2,36.4,81.2,81.2c0,44.8-36.4,81.2-81.2,81.2S615,641.4,615,596.6z M868.6,761.1c-8.4,12-17.7,24-27.6,35.4
			c-9.3,10.6-19,20.8-28.8,30.3c-7.7,2.4-15.8,3.6-23.9,3.6c-44.8,0-81.2-36.4-81.2-81.2s36.4-81.2,81.2-81.2s81.2,36.4,81.2,81.2
			C869.5,753,869.2,757,868.6,761.1z"/>
		<path class="st13" d="M328.7,437.4c0,50.3,40.9,91.2,91.2,91.2c50.3,0,91.2-40.9,91.2-91.2c0-27.8-12.5-52.8-32.3-69.5
			c10.3,4,21.5,6.2,33.2,6.2c11.7,0,22.9-2.2,33.2-6.2c-19.7,16.7-32.3,41.7-32.3,69.5c0,50.3,40.9,91.2,91.2,91.2
			c50.3,0,91.2-40.9,91.2-91.2s-40.9-91.2-91.2-91.2c-11.7,0-22.9,2.2-33.2,6.2c19.7-16.7,32.3-41.7,32.3-69.5
			c0-50.3-40.9-91.2-91.2-91.2s-91.2,40.9-91.2,91.2c0,27.8,12.5,52.8,32.3,69.5c-10.3-4-21.5-6.2-33.2-6.2
			C369.6,346.2,328.7,387.1,328.7,437.4z M685.3,437.4c0,44.8-36.4,81.2-81.2,81.2c-44.8,0-81.2-36.4-81.2-81.2s36.4-81.2,81.2-81.2
			C648.9,356.2,685.3,392.6,685.3,437.4z M430.8,282.9c0-44.8,36.4-81.2,81.2-81.2c44.8,0,81.2,36.4,81.2,81.2
			c0,44.8-36.4,81.2-81.2,81.2C467.2,364.1,430.8,327.7,430.8,282.9z M501.1,437.4c0,44.8-36.4,81.2-81.2,81.2
			c-44.8,0-81.2-36.4-81.2-81.2s36.4-81.2,81.2-81.2C464.7,356.2,501.1,392.6,501.1,437.4z"/>
	</g>
	<path class="st7" d="M512,972c-99.4,0-194.1-31.2-273.8-90.3c-38.3-28.4-71.9-62.4-99.8-101.2c-28.2-39.2-50-82.3-64.7-128.2
		c-3.4-10.5,2.4-21.8,12.9-25.1c10.5-3.4,21.8,2.4,25.1,13c13.4,41.8,33.3,81.2,59,117c25.5,35.4,56.1,66.4,91.1,92.4
		C334.8,903.5,421.2,932,512,932c90.8,0,177.2-28.5,250-82.4c35-26,65.7-57.1,91.1-92.4c25.8-35.8,45.6-75.2,59-117
		c3.4-10.5,14.6-16.3,25.1-13c10.5,3.4,16.3,14.6,13,25.1c-14.7,45.8-36.4,89-64.7,128.2c-27.9,38.7-61.4,72.7-99.8,101.2
		C706.1,940.8,611.5,972,512,972z"/>
	<path class="st7" d="M73.7,493.8c-0.6,0-1.2,0-1.7-0.1c-11-0.9-19.2-10.6-18.2-21.6c9.8-114.3,61.8-220.3,146.5-298.3
		C285.4,95.3,396.1,52,512,52c114.7,0,224.5,42.4,309.3,119.5C905.5,248,958.2,352.3,969.6,465c1.1,11-6.9,20.8-17.9,21.9
		c-11,1.1-20.8-6.9-21.9-17.9c-10.4-102.9-58.5-198-135.4-267.9C717,130.7,616.7,92,512,92c-105.8,0-206.9,39.5-284.7,111.2
		c-77.3,71.3-124.8,168-133.8,272.4C92.7,486,83.9,493.8,73.7,493.8z"/>
</g>
</svg>
