<?xml version="1.0" encoding="utf-8"?>
<!-- Generator: Adobe Illustrator 24.0.0, SVG Export Plug-In . SVG Version: 6.00 Build 0)  -->
<svg version="1.1" id="Capa_1" xmlns="http://www.w3.org/2000/svg" xmlns:xlink="http://www.w3.org/1999/xlink" x="0px" y="0px"
	 viewBox="0 0 1024 1024" style="enable-background:new 0 0 1024 1024;" xml:space="preserve">
<style type="text/css">
	.st0{fill:#BAE4FA;}
	.st1{fill:#F9F7FC;}
	.st2{fill:#E61E14;}
	.st3{fill:#DCDAEB;}
	.st4{fill:#767DD4;}
	.st5{fill:#5E6ACA;}
	.st6{fill:#9DD4A9;}
	.st7{fill:#84BFA7;}
	.st8{fill:#534A9A;}
	.st9{fill:#443F80;}
	.st10{fill:#F9B630;}
	.st11{fill:#F9A40D;}
	.st12{fill:#FFD071;}
	.st13{fill:#F473C3;}
	.st14{fill:#C640A6;}
	.st15{fill:#FFFFFF;}
</style>
<g>
	<circle class="st0" cx="512" cy="512" r="440"/>
	<g>
		<g>
			<path class="st1" d="M545.5,126.1c-3.8,0-7.6,0.1-11.4,0.2c-196.8,6-354.5,167.5-354.5,365.7c0,198.3,157.7,359.7,354.5,365.7
				c3.8,0.1,7.6,0.2,11.4,0.2c59.7,0,23.5-42.4,90-110.7c64.2-65.9,275.9-26.8,275.9-255.2C911.4,290,747.5,126.1,545.5,126.1z
				 M465.4,707c-37.9,0-68.6-30.7-68.6-68.6s30.7-68.6,68.6-68.6s68.6,30.7,68.6,68.6S503.3,707,465.4,707z"/>
			<path class="st2" d="M702.2,248.3c-29.4,0-53.2,23.8-53.2,53.2s23.8,53.2,53.2,53.2s53.2-23.8,53.2-53.2
				C755.4,272.1,731.6,248.3,702.2,248.3L702.2,248.3z"/>
			<path class="st3" d="M911.4,492c0,228.5-211.7,189.3-275.9,255.2c-66.5,68.3-30.2,110.7-90,110.7c-3.8,0-7.6-0.1-11.4-0.2V126.3
				c3.8-0.1,7.6-0.2,11.4-0.2C747.5,126.1,911.4,290,911.4,492z"/>
			<g>
				<path class="st4" d="M859.8,354.6l-72.6-40.2l-46.2-69c64-60.4,148.4-119.6,187-84.1S914.6,285.8,859.8,354.6z"/>
				<path class="st5" d="M859.8,354.6l-72.6-40.2L928,161.3C966.5,196.8,914.6,285.8,859.8,354.6z"/>
				<path class="st6" d="M804.4,417.9l-73.6-42.3l-48.3-69.8c18.8-21.7,38.6-42,58.4-60.5c26.7,6,52.6,18.4,74.3,38.4
					s36.3,44.7,44.5,70.9C839.9,379.9,821.9,400.1,804.4,417.9z"/>
				<path class="st7" d="M804.4,417.9l-73.6-42.3l84.5-91.9c21.7,20,36.3,44.7,44.5,70.9C839.9,379.9,821.9,400.1,804.4,417.9z"/>
				<path class="st8" d="M804.4,417.9C757.5,465.8,638.9,573.8,590,528.7c-49-45.1,48.7-172.2,92.6-222.9
					c27.6,6.2,54.1,18.6,76.4,39.2C781.3,365.6,795.9,390.9,804.4,417.9z"/>
				<path class="st9" d="M804.4,417.9C757.5,465.8,638.9,573.8,590,528.7L759,345C781.3,365.6,795.9,390.9,804.4,417.9z"/>
				<path class="st10" d="M557.9,677.3c-0.5-12.3,2.8-24.6,8.8-34.8c21.4-1.2,41.4-10.6,56.3-26.8c31-33.7,28.8-86.6-4.9-117.6
					s-86.6-28.8-117.6,4.9l-14.1,15.3c-34.1,37.1-36.2,92.2-7.8,131.4c4.1,5.4,8.7,10.8,13.9,15.6l67.7,62.2L557.9,677.3z"/>
				<path class="st11" d="M560.3,727.6l-67.7-62.2c-5.2-4.8-9.8-10.2-13.9-15.6l139.4-151.6c33.7,31,35.9,83.9,4.9,117.6
					c-14.9,16.2-34.9,25.6-56.3,26.8c-6,10.3-9.4,22.5-8.8,34.8L560.3,727.6z"/>
			</g>
			<path class="st12" d="M244.5,476c0,29.4,23.8,53.2,53.2,53.2h0.1c29.4,0,53.2-23.9,53.2-53.3s-23.9-53.2-53.3-53.2
				C268.3,422.8,244.5,446.7,244.5,476z"/>
			<ellipse class="st6" cx="369.7" cy="311.2" rx="53.2" ry="53.2"/>
			<path class="st5" d="M771.1,469.2c-33.3,0-60.3,27-60.3,60.3s27,60.3,60.3,60.3s60.3-27,60.3-60.3
				C831.5,496.2,804.4,469.2,771.1,469.2L771.1,469.2z"/>
			<path class="st13" d="M593.2,232.7c0,29.4-23.8,53.2-53.2,53.2c-2,0-4-0.1-6-0.3c-26.6-3-47.3-25.5-47.3-52.9
				s20.7-49.9,47.3-52.9c2-0.2,3.9-0.3,6-0.3C569.4,179.4,593.2,203.3,593.2,232.7z"/>
			<path class="st14" d="M593.2,232.7c0,29.4-23.8,53.2-53.2,53.2c-2,0-4-0.1-6-0.3V179.8c2-0.2,3.9-0.3,6-0.3
				C569.4,179.4,593.2,203.3,593.2,232.7z"/>
		</g>
	</g>
</g>
<g>
	<path class="st4" d="M512,972c-62.1,0-122.3-12.2-179.1-36.2c-54.8-23.2-104-56.3-146.2-98.6c-42.2-42.2-75.4-91.4-98.6-146.2
		C64.2,634.3,52,574.1,52,512c0-92.2,27.2-181.1,78.6-257.2c50.1-74.2,120.1-131.9,202.4-166.6c10.2-4.3,21.9,0.5,26.2,10.6
		c4.3,10.2-0.5,21.9-10.6,26.2c-75.1,31.8-139,84.4-184.8,152.2C116.8,346.6,92,427.8,92,512c0,56.7,11.1,111.7,33,163.5
		c21.2,50,51.4,94.9,90,133.5s83.5,68.9,133.5,90c51.8,21.9,106.8,33,163.5,33c73.7,0,146.2-19.3,209.6-56
		c61.6-35.5,113.5-86.5,150.3-147.4c5.7-9.5,18-12.5,27.5-6.8c9.5,5.7,12.5,18,6.8,27.5C865.9,816,809,871.8,741.6,910.7
		C672.1,950.8,592.7,972,512,972z"/>
	<g>
		<path class="st15" d="M902.6,304.1c32-49.4,63-115,28.8-146.4c-13.3-12.3-32.1-15.2-55.8-8.6c-19.6,5.4-42.6,17.3-68.4,35.3
			c-8.8,6.1-17.9,13-27.2,20.5c-31.8-26-67.4-46.5-105.9-60.7c-41.1-15.2-84.4-22.9-128.6-22.9c-3.8,0-7.7,0.1-11.6,0.2
			c-96.6,2.9-187,42.8-254.5,112.3C211.8,303.2,174.6,395,174.6,492c0,97.1,37.2,188.9,104.9,258.4
			c67.5,69.4,157.9,109.3,254.5,112.3l0.1,0c3.7,0.1,7.6,0.2,11.4,0.2c35.8,0,41.3-15.9,48.8-38c6.3-18.4,15-43.7,44.7-74.3
			c19.1-19.6,53.4-29.9,89.7-40.9c83.6-25.2,187.6-56.7,187.6-217.8c0-55-11.8-108-35-157.4C889,324.3,896.1,314.1,902.6,304.1z
			 M812.9,192.5c66.5-46.4,97.4-40.6,111.7-27.5c30.6,28.2-5.9,95.8-30.4,133.6c-6.9,10.6-14.5,21.5-22.6,32.5
			c-3.2,4.4-6.6,8.8-10.1,13.3c-9.2-24.8-23.9-46.9-42.9-64.4c-18.8-17.3-41.9-30.1-67.4-37.3c10.7-9.9,21.4-19.2,31.9-27.7
			c0,0,0,0,0,0c0,0,0,0,0,0C793.3,206.7,803.4,199.1,812.9,192.5z M806.5,408.6c-9.6-26.4-24.4-49-44.1-67.2
			c-4.7-4.3-9.6-8.3-14.6-12c-16.5-12-35.3-20.8-56.1-26.4c13.1-14.7,27-29.3,41.5-43.4c2.9-2.8,5.9-5.7,9.2-8.8
			c26.4,6.4,50.3,19,69.4,36.6c19.2,17.7,33.8,40.6,42.3,66.2C838.4,373.6,822.7,391.6,806.5,408.6z M771.1,474.2
			c14.8,0,28.8,5.8,39.2,16.3c10.4,10.4,16.1,24.3,16.1,39c0,30.5-24.8,55.3-55.3,55.3c-30.5,0-55.3-24.8-55.3-55.3
			S740.6,474.2,771.1,474.2z M552.9,677.5C552.9,677.5,552.9,677.5,552.9,677.5l1.7,38.1l-58.8-54c-4.4-4.1-8.7-8.9-13.3-14.9
			c-27.4-37.9-24.3-90.5,7.5-125l14.1-15.3c14.1-15.3,33.4-24.2,54.3-25.1c6.4-0.3,12.7,0.2,18.8,1.4c0,0,0.1,0,0.1,0
			c0.1,0,0.1,0,0.2,0c13.8,2.8,26.6,9.3,37.1,19c10.6,9.7,18.1,22,22,35.5c0,0.1,0,0.1,0,0.2c0,0.1,0,0.1,0.1,0.1
			c1.7,6,2.7,12.1,3,18.5c0.9,20.9-6.4,40.9-20.5,56.2c-13.9,15.1-32.7,24.1-52.9,25.2c-1.7,0.1-3.2,1-4,2.5
			C555.7,651.3,552.4,664.6,552.9,677.5z M474.6,652.6C474.6,652.7,474.6,652.7,474.6,652.6c5,6.6,9.7,11.9,14.6,16.3l18.5,17
			c-11.6,10.4-26.4,16-42.2,16c-35.1,0-63.6-28.5-63.6-63.6c0-31.2,22.8-57.6,53-62.7C451.6,602.2,458,629.8,474.6,652.6z
			 M621.5,494.4c-10.7-9.9-23.4-16.8-37.2-20.3c11.2-46.5,54.1-105.7,79.3-137.5c6.8-8.6,13.8-17.1,20.8-25.2
			c21.4,5.2,40.8,13.9,57.5,26.1c4.7,3.4,9.4,7.2,13.7,11.3c19.7,18.2,34.2,41,43.1,67.9c-24.4,24.7-96.9,94.5-153.8,113.3
			C640.1,516.4,632.2,504.3,621.5,494.4z M678.7,302.5c-0.2,0.2-0.4,0.5-0.5,0.7c-6.1,7-12.1,14.3-18.1,21.8
			c-4-7.1-6.1-15.1-6.1-23.5c0-26.6,21.6-48.2,48.2-48.2c6.6,0,13.1,1.3,19.1,3.9C706.3,272,692,287.2,678.7,302.5z M847.5,644.2
			c-34.8,29.7-80.9,43.7-121.5,55.9c-37.6,11.4-73.1,22.1-94,43.5c-31.3,32.2-40.4,58.7-47,78c-7.6,22.1-10.7,31.2-39.4,31.2
			c-3.7,0-7.5-0.1-11.2-0.2l-0.1,0c-94-2.9-182-41.7-247.6-109.2c-65.8-67.7-102-157-102-251.5c0-94.4,36.2-183.7,102-251.4
			c65.7-67.6,153.6-106.4,247.7-109.3c3.7-0.1,7.5-0.2,11.2-0.2c43,0,85.1,7.5,125.1,22.3c36.8,13.6,70.9,33,101.4,57.7
			c-11.1,9.2-22.4,19.2-33.6,29.8c-0.3,0.2-0.7,0.4-1,0.7c-3.1,2.9-5.9,5.5-8.6,8.1c-8.2-4.2-17.4-6.5-26.7-6.5
			c-32.1,0-58.2,26.1-58.2,58.2c0,11.5,3.3,22.4,9.5,31.8c-53.7,68.3-72.8,112.6-79,138.8c-5.4-0.8-10.9-1.1-16.4-0.8
			c-23.6,1-45.4,11-61.3,28.3l-14.1,15.3c-13.4,14.6-22.1,32.1-26.2,50.4c-36.6,4.4-64.8,35.8-64.8,73.1c0,40.6,33,73.6,73.6,73.6
			c18.6,0,36-6.8,49.6-19.2l41.8,38.4c0.9,0.9,2.2,1.3,3.4,1.3c0.7,0,1.4-0.2,2.1-0.5c1.8-0.9,3-2.7,2.9-4.8l-2.3-50.2
			c-0.4-10.2,2-20.6,6.9-29.8c21.8-1.9,41.9-11.9,56.9-28.2c15.9-17.3,24.1-39.8,23.1-63.4c-0.2-5.5-1-11-2.2-16.2
			c20-6.6,41.7-19,62.6-33.6c-2.9,7.3-4.5,15.3-4.5,23.7c0,36,29.3,65.3,65.3,65.3s65.3-29.3,65.3-65.3c0.1-17.4-6.7-33.8-19-46.1
			c-12.4-12.4-28.8-19.2-46.3-19.2c-3.1,0-6.1,0.2-9.1,0.6c20.7-18.1,37.3-34.6,46-43.4c0,0,0,0,0,0c19-19.3,37-39.9,55.2-63.1
			c0.2-0.2,0.4-0.4,0.6-0.6c3.7-4.7,7.4-9.4,10.9-14c21.1,46.7,31.8,96.5,31.8,148.3C906.4,560.5,887.1,610.3,847.5,644.2z"/>
		<path class="st15" d="M297.7,417.7c-32.1,0.1-58.2,26.3-58.2,58.3c0,32.1,26.1,58.2,58.3,58.2c32.1,0,58.2-26.2,58.2-58.3
			C356,443.8,329.8,417.7,297.7,417.7z M297.7,524.2c-26.6,0-48.2-21.6-48.2-48.2c0-26.5,21.6-48.2,48.2-48.3
			c26.6,0,48.3,21.6,48.3,48.2C346,502.5,324.4,524.2,297.7,524.2z"/>
		<path class="st15" d="M427.9,311.2c0-32.1-26.1-58.2-58.2-58.2c-32.1,0-58.2,26.1-58.2,58.2c0,32.1,26.1,58.2,58.2,58.2
			C401.8,369.4,427.9,343.3,427.9,311.2z M369.7,359.4c-26.6,0-48.2-21.6-48.2-48.2s21.6-48.2,48.2-48.2s48.2,21.6,48.2,48.2
			S396.3,359.4,369.7,359.4z"/>
		<path class="st15" d="M533.5,290.6c2.2,0.2,4.3,0.3,6.5,0.3c32.1,0,58.2-26.1,58.2-58.2c0-15.6-6.1-30.3-17.1-41.3
			c-10.9-10.9-25.5-16.9-40.9-16.9c-2.3,0-4.4,0.1-6.8,0.3c-29.5,3.3-51.7,28.2-51.7,57.9C481.7,262.4,503.9,287.2,533.5,290.6z
			 M534.5,184.8c1.9-0.2,3.8-0.3,5.7-0.3c12.8,0,24.8,5,33.8,14c9.2,9.1,14.2,21.3,14.2,34.2c0,26.6-21.6,48.2-48.2,48.2
			c-1.8,0-3.7-0.1-5.4-0.3c-24.4-2.8-42.9-23.4-42.9-47.9S510.1,187.5,534.5,184.8z"/>
	</g>
</g>
</svg>
