<?xml version="1.0" encoding="utf-8"?>
<!-- Generator: Adobe Illustrator 24.0.0, SVG Export Plug-In . SVG Version: 6.00 Build 0)  -->
<svg version="1.1" id="Capa_1" xmlns="http://www.w3.org/2000/svg" xmlns:xlink="http://www.w3.org/1999/xlink" x="0px" y="0px"
	 viewBox="0 0 1024 1024" style="enable-background:new 0 0 1024 1024;" xml:space="preserve">
<style type="text/css">
	.st0{fill:#A5C6FF;}
	.st1{fill:#F9F7FC;}
	.st2{fill:#DCDAEB;}
	.st3{fill:#443F80;}
	.st4{fill:#FFD071;}
	.st5{fill:#2A286B;}
	.st6{fill:#F9B630;}
	.st7{fill:#534A9A;}
	.st8{fill:#595959;}
	.st9{fill:#F9A40D;}
	.st10{fill:#424242;}
</style>
<circle class="st0" cx="512" cy="512" r="440"/>
<g>
	<g>
		<g>
			<path class="st1" d="M413.7,672.7c-5.8-3.7-13.5-2-17.2,3.8l-46.3,72.7c-3.7,5.8-2,13.5,3.8,17.2c2.1,1.3,4.4,2,6.7,2
				c4.1,0,8.1-2,10.5-5.8l46.3-72.7C421.2,684.1,419.5,676.4,413.7,672.7z"/>
			<path class="st2" d="M636.4,676.5c-3.7-5.8-11.4-7.5-17.2-3.8s-7.5,11.4-3.8,17.2l46.3,72.7c2.4,3.7,6.4,5.8,10.5,5.8
				c2.3,0,4.6-0.6,6.7-2c5.8-3.7,7.5-11.4,3.8-17.2L636.4,676.5z"/>
			<path class="st1" d="M244.8,680.8V114.6c0-6.9-5.6-12.5-12.5-12.5s-12.5,5.6-12.5,12.5v566.2l-53.5,66.4
				c-4.3,5.4-3.5,13.2,1.9,17.5s13.2,3.5,17.5-1.9l34.1-42.3V755c0,6.9,5.6,12.5,12.5,12.5s12.5-5.6,12.5-12.5v-34.5l34.1,42.3
				c2.5,3.1,6.1,4.6,9.7,4.6c2.7,0,5.5-0.9,7.8-2.8c5.4-4.3,6.2-12.2,1.9-17.5L244.8,680.8z"/>
			<path class="st1" d="M864.6,764.6c-2.3,1.9-5.1,2.8-7.8,2.8c-3.6,0-7.2-1.5-9.7-4.6L813,720.5V755c0,6.9-5.6,12.5-12.5,12.5
				S788,761.9,788,755v-34.5l-34.1,42.3c-4.3,5.4-12.1,6.2-17.5,1.9s-6.2-12.1-1.9-17.5l53.5-66.4V114.6c0-6.9,5.6-12.5,12.5-12.5
				s12.5,5.6,12.5,12.5v566.2l53.5,66.4C870.8,752.6,870,760.4,864.6,764.6z"/>
			<path class="st2" d="M864.6,764.6c-2.3,1.9-5.1,2.8-7.8,2.8c-3.6,0-7.2-1.5-9.7-4.6L813,720.5V755c0,6.9-5.6,12.5-12.5,12.5
				V102.1c6.9,0,12.5,5.6,12.5,12.5v566.2l53.5,66.4C870.8,752.6,870,760.4,864.6,764.6z"/>
			<path class="st2" d="M296.4,764.6c-2.3,1.9-5.1,2.8-7.8,2.8c-3.6,0-7.2-1.5-9.7-4.6l-34.1-42.3V755c0,6.9-5.6,12.5-12.5,12.5
				V102.1c6.9,0,12.5,5.6,12.5,12.5v566.2l53.5,66.4C302.6,752.6,301.8,760.4,296.4,764.6z"/>
		</g>
		<g>
			<path class="st3" d="M916,331.8v220.7c-0.2,6.2-5.2,11.3-11.5,11.3H558.4c-6.2,0-11.1-5-11.1-11.1V331.8H916z"/>
			<path class="st4" d="M933,308.6v46.8c0.2,6.1-4.9,11.1-11.1,11.1H541c-6.2,0-11.1-5-11.1-11.1v-46.8c0-6.2,5-11.1,11.1-11.1
				h380.9C928.2,297.5,933,302.5,933,308.6z"/>
			<path class="st3" d="M465.6,563.7H119.4c-6.2,0-11.1-5-11.1-11.1V331.8h368.8v220.7C476.9,558.7,471.8,563.7,465.6,563.7z"/>
			<path class="st4" d="M483,366.5H102.1c-6.2,0-11.1-5-11.1-11.1v-46.8c0-6.2,5-11.1,11.1-11.1H483c6.2,0,11.1,5,11.1,11.1v46.8
				C494.2,361.4,489.2,366.5,483,366.5z"/>
			<path class="st5" d="M916,331.8v220.7c-0.2,6.2-5.2,11.3-11.5,11.3H731.7v-232H916z"/>
			<path class="st6" d="M933,308.6v46.8c0.2,6.1-4.9,11.1-11.1,11.1H731.7v-69h190.2C928.2,297.5,933,302.5,933,308.6z"/>
			<path class="st5" d="M477.1,331.8v220.7c-0.2,6.2-5.2,11.3-11.5,11.3H292.8v-232H477.1z"/>
			<path class="st6" d="M494.1,308.6v46.8c0.2,6.1-4.9,11.1-11.1,11.1H292.8v-69H483C489.2,297.5,494.1,302.5,494.1,308.6z"/>
		</g>
		<g>
			<path class="st6" d="M909.4,185.8h-217c-5.4,0-8.6-6-5.5-10.5c11-15.8,40.8-44,113.7-44.5c0.7,0,1.4,0,2.2,0
				c74.9,0,102.7,29,112.3,44.9C917.8,180,914.6,185.8,909.4,185.8z"/>
		</g>
		<g>
			<path class="st7" d="M462.8,400.6H257c-3.7,0-6.6-3-6.6-6.6V262.8h219.1v131.1C469.4,397.6,466.5,400.6,462.8,400.6z"/>
			<path class="st4" d="M473.1,283.4H246.7c-3.7,0-6.6-3-6.6-6.6V249c0-3.7,3-6.6,6.6-6.6H473c3.7,0,6.6,3,6.6,6.6v27.8
				C479.7,280.4,476.7,283.4,473.1,283.4z"/>
			<path class="st7" d="M773.8,262.8v131.1c-0.1,3.7-3,6.7-6.7,6.7H561.3c-3.7,0-6.6-3-6.6-6.6V262.8H773.8z"/>
			<path class="st4" d="M783.9,249v27.8c0.1,3.6-2.9,6.6-6.5,6.6H551c-3.7,0-6.6-3-6.6-6.6V249c0-3.7,3-6.6,6.6-6.6h226.3
				C781,242.4,783.9,245.4,783.9,249z"/>
			<path class="st3" d="M773.8,262.8v131.1c-0.1,3.7-3,6.7-6.7,6.7H664.3V262.8H773.8z"/>
			<path class="st6" d="M783.9,249v27.8c0.1,3.6-2.9,6.6-6.5,6.6H664.3v-41h113C781,242.4,783.9,245.4,783.9,249z"/>
			<path class="st3" d="M469.5,262.8v131.1c-0.1,3.7-3,6.7-6.7,6.7H359.9V262.8H469.5z"/>
			<path class="st6" d="M479.6,249v27.8c0.1,3.6-2.9,6.6-6.5,6.6H359.9v-41h113C476.7,242.4,479.6,245.4,479.6,249z"/>
		</g>
		<path class="st6" d="M311.9,219.8H150c-4,0-6.4-4.5-4.1-7.8c8.3-11.9,30.9-33.2,86.4-33.2c55.9,0,76.6,21.6,83.8,33.5
			C318.1,215.6,315.8,219.8,311.9,219.8z"/>
		<path class="st8" d="M883,748.7c-11.5,18-24.3,35.1-38.2,51.2H179.3c-13.9-16.1-26.7-33.2-38.2-51.2H883z"/>
		<g>
			<circle class="st4" cx="516.4" cy="514.2" r="207.1"/>
			<path class="st3" d="M679,514.2c0,89.7-72.9,162.5-162.6,162.5s-162.6-72.9-162.6-162.6s72.9-162.6,162.6-162.6
				S679,424.5,679,514.2z"/>
			<path class="st6" d="M723.5,514.2c0,114.4-92.7,207.1-207.1,207.1V307.1C630.8,307.1,723.5,399.8,723.5,514.2z"/>
			<path class="st5" d="M679,514.2c0,89.7-72.9,162.5-162.6,162.5V351.5C606.1,351.5,679,424.5,679,514.2z"/>
		</g>
		<path class="st9" d="M909.4,185.8H800.5v-55c0.7,0,1.4,0,2.2,0c74.9,0,102.7,29,112.3,44.9C917.8,180,914.6,185.8,909.4,185.8z"/>
		<path class="st9" d="M311.9,219.8h-79.6v-41c55.9,0,76.6,21.6,83.8,33.5C318.1,215.6,315.8,219.8,311.9,219.8z"/>
		<path class="st10" d="M883,748.7c-11.5,18-24.3,35.1-38.2,51.2H516.4v-51.2H883z"/>
	</g>
</g>
</svg>
