<?xml version="1.0" encoding="utf-8"?>
<!-- Generator: Adobe Illustrator 24.0.0, SVG Export Plug-In . SVG Version: 6.00 Build 0)  -->
<svg version="1.1" id="Capa_1" xmlns="http://www.w3.org/2000/svg" xmlns:xlink="http://www.w3.org/1999/xlink" x="0px" y="0px"
	 viewBox="0 0 1024 1024" style="enable-background:new 0 0 1024 1024;" xml:space="preserve">
<style type="text/css">
	.st0{fill:#A5C6FF;}
	.st1{fill:#F9F7FC;}
	.st2{fill:#767DD4;}
	.st3{fill:#F473C3;}
	.st4{fill:#C640A6;}
	.st5{fill:#DCDAEB;}
	.st6{fill:#FFD071;}
	.st7{fill:#F9B630;}
</style>
<circle class="st0" cx="512" cy="512" r="440"/>
<g>
	<path class="st1" d="M952,512c0,58.4-11.3,114-31.9,165c-10.2,25.2-22.6,49.1-37.1,71.7c-4.5,7.1-9.2,14-14.2,20.8
		c-7.6,10.5-15.6,20.6-24,30.4c-1.5,1.7-3,3.4-4.5,5c-8.7,9.7-17.8,19-27.2,28c-0.7,0.7-1.5,1.4-2.2,2.1
		c-39,36.1-84.6,65.3-134.8,85.4C625.3,940.8,570,952,512,952c-90.8,0-175.2-27.5-245.2-74.7c-4.5-3-9-6.2-13.5-9.4
		c-23.3-17-44.9-36.2-64.4-57.3V132.7h546.3c3,1.8,6.1,3.6,9.1,5.5c7.7,4.8,15.2,9.8,22.6,15.1c4.5,3.2,9,6.5,13.4,9.9
		c2.6,2,5.2,4,7.8,6.1c0.2,0.1,0.3,0.3,0.5,0.4c4,3.3,8,6.6,12,10.1c2.3,2,4.6,4,6.9,6.1l0.3,0.3c1.2,1,2.4,2.1,3.5,3.2
		c0.6,0.6,1.2,1.1,1.8,1.7c6.7,6.2,13.1,12.7,19.4,19.3c19.6,20.8,37.2,43.5,52.5,67.9c4,6.3,7.8,12.7,11.4,19.3
		c6.2,11.1,12,22.6,17.3,34.3c0.8,1.9,1.7,3.7,2.5,5.6c0.7,1.7,1.5,3.4,2.2,5.1c3.2,7.5,6.1,15.2,8.8,22.8c4.8,13.7,9,27.7,12.5,42
		C947.7,440.9,952,475.9,952,512z"/>
	<path class="st2" d="M952,512c0,58.4-11.3,114-31.9,165c-10.2,25.2-22.6,49.1-37.1,71.7c-4.5,7.1-9.2,14-14.2,20.8
		c-7.6,10.5-15.6,20.6-24,30.4c-1.5,1.7-3,3.4-4.5,5c-8.7,9.7-17.8,19-27.2,28c-0.7,0.7-1.5,1.4-2.2,2.1
		c-39,36.1-84.6,65.3-134.8,85.4C625.3,940.8,570,952,512,952c-90.8,0-175.2-27.5-245.2-74.7V210.4h565.6
		c19.6,20.8,37.2,43.5,52.5,67.9c4,6.3,7.8,12.7,11.4,19.3c6.2,11.1,12,22.6,17.3,34.3c0.8,1.9,1.7,3.7,2.5,5.6
		c0.7,1.7,1.5,3.4,2.2,5.1c3.2,7.5,6.1,15.2,8.8,22.8c4.8,13.7,9,27.7,12.5,42C947.7,440.9,952,475.9,952,512z"/>
</g>
<g>
	<path class="st3" d="M791.4,670C721.3,740.1,645.5,775.3,576,791.1l0,0c-17.2,3.9-34.1,6.7-50.3,8.5c-16.3,1.8-32,2.7-47,2.8
		c0,0,0,0-0.1,0c-43.6,0.4-80.9-5.2-107.3-10.9c-26.4-5.7-41.8-11.5-41.8-11.5l0,0c-0.3-0.8-5.9-16.1-11.5-41.8
		c-5.7-26.4-11.3-63.6-10.9-107.3c0,0,0,0,0-0.1c0.3-29.9,3.4-62.9,11.3-97.3l0,0c15.9-69.5,51-145.3,121.1-215.4
		c35-35,71.5-61.4,107.9-80.9s72.7-32.3,107.5-40.2c0,0,0,0,0.1,0c17.2-3.9,34-6.7,50.3-8.5s32-2.7,47-2.8h0.1
		c86.2-0.8,147.5,21.8,149,22.4l0,0c0,0,5.8,15.5,11.5,41.8c5.7,26.4,11.3,63.6,10.9,107.3v0.1c-0.1,15-1,30.7-2.8,47
		s-4.6,33.1-8.5,50.3c0,0,0,0,0,0.1C896.6,524.2,861.5,600,791.4,670z"/>
	<path class="st4" d="M791.4,670C721.3,740.1,645.5,775.3,576,791.1l0,0c-17.2,3.9-34.1,6.7-50.3,8.5c-16.3,1.8-32,2.7-47,2.8
		c0,0,0,0-0.1,0c-43.6,0.4-80.9-5.2-107.3-10.9c-26.4-5.7-41.8-11.5-41.8-11.5l0,0l571.9-571.9l0,0c0,0,5.8,15.5,11.5,41.8
		c5.7,26.4,11.3,63.6,10.9,107.3v0.1c-0.1,15-1,30.7-2.8,47s-4.6,33.1-8.5,50.3c0,0,0,0,0,0.1C896.6,524.2,861.5,600,791.4,670z"/>
	<g>
		<path class="st1" d="M729.4,405.7L527.1,608c-7.1,7.1-18.5,7.1-25.6,0c-3.5-3.5-5.3-8.2-5.3-12.8s1.8-9.3,5.3-12.8l202.3-202.3
			c7.1-7.1,18.5-7.1,25.6,0c3.5,3.5,5.3,8.2,5.3,12.8C734.7,397.6,732.9,402.2,729.4,405.7z"/>
		<g>
			<path class="st1" d="M656.3,534.8c-7.1,7.1-18.5,7.1-25.6,0l-28-28v-0.1l-0.1,0.1l-28-28c-3.5-3.5-5.3-8.2-5.3-12.8
				c0-4.6,1.8-9.2,5.3-12.8c7.1-7.1,18.5-7.1,25.6,0l28,28l0,0h0.1l28,28c3.5,3.5,5.3,8.2,5.3,12.8
				C661.6,526.7,659.8,531.3,656.3,534.8z"/>
			<path class="st1" d="M592.9,598.2c-7.1,7.1-18.5,7.1-25.6,0l-28-28v-0.1l0,0l-0.1,0.1l-28-28c-3.5-3.5-5.3-8.2-5.3-12.8
				s1.8-9.3,5.3-12.8c7.1-7.1,18.5-7.1,25.6,0l28,28l0,0l0,0h0.1l28,28c3.5,3.5,5.3,8.2,5.3,12.8
				C598.2,590.1,596.4,594.7,592.9,598.2z"/>
			<path class="st1" d="M719.7,471.5L719.7,471.5c-7.1,7.1-18.5,7.1-25.6,0l-28-28v-0.1l-0.1,0.1l-28-28c-3.5-3.5-5.3-8.2-5.3-12.8
				c0-4.6,1.8-9.3,5.3-12.8c7.1-7.1,18.5-7.1,25.6,0l28,28h0.1l28,28C726.7,453,726.7,464.4,719.7,471.5z"/>
		</g>
		<path class="st5" d="M734.6,393c0-4.6-1.8-9.3-5.3-12.8L628.2,481.3l0,0l-25.5,25.5l0,0l-37.8,37.8h-0.1l-25.5,25.5v0.1L501.5,608
			c7.1,7.1,18.5,7.1,25.6,0l25-25l15.2,15.2c7.1,7.1,18.5,7.1,25.6,0c3.5-3.5,5.3-8.2,5.3-12.8s-1.8-9.2-5.3-12.8l-15.2-15.2
			l37.8-37.8l15.2,15.2c7.1,7.1,18.5,7.1,25.6,0c3.5-3.6,5.3-8.2,5.3-12.8c0-4.7-1.8-9.3-5.3-12.8L641.1,494l37.8-37.8l15.2,15.2
			c7.1,7.1,18.5,7.1,25.6,0c7-7.1,7-18.5,0-25.6l-15.2-15.2l25-24.9C732.9,402.2,734.7,397.6,734.6,393z"/>
	</g>
	<g>
		<path class="st6" d="M912.5,454.6L655,197.1c17.2-3.9,34-6.7,50.3-8.5s32-2.7,47-2.8h0.1l171.5,171.5v0.1c-0.1,15-1,30.7-2.8,47
			C919.2,420.5,916.4,437.4,912.5,454.6z"/>
		<path class="st6" d="M576,791.2c-17.2,3.9-34.1,6.7-50.3,8.5c-16.3,1.8-32,2.7-47,2.8c0,0,0,0-0.1,0L307.1,631c0,0,0,0,0-0.1
			c0.3-29.9,3.4-62.9,11.3-97.3L576,791.2z"/>
	</g>
	<path class="st7" d="M912.5,454.6L783.7,325.8l54.3-54.3l85.7,85.7v0.1c-0.1,15-1,30.7-2.8,47C919.2,420.5,916.4,437.4,912.5,454.6
		z"/>
	<path class="st7" d="M576,791.2c-17.2,3.9-34.1,6.7-50.3,8.5c-16.3,1.8-32,2.7-47,2.8c0,0,0,0-0.1,0l-85.8-85.8l54.3-54.3
		L576,791.2z"/>
</g>
</svg>
