<?xml version="1.0" encoding="utf-8"?>
<!-- Generator: Adobe Illustrator 24.0.0, SVG Export Plug-In . SVG Version: 6.00 Build 0)  -->
<svg version="1.1" id="Capa_1" xmlns="http://www.w3.org/2000/svg" xmlns:xlink="http://www.w3.org/1999/xlink" x="0px" y="0px"
	 viewBox="0 0 1024 1024" style="enable-background:new 0 0 1024 1024;" xml:space="preserve">
<style type="text/css">
	.st0{fill:#A5C6FF;}
	.st1{fill:#534A9A;}
	.st2{fill:#FFD071;}
	.st3{fill:#F473C3;}
	.st4{fill:#5E6ACA;}
	.st5{fill:#84BFA7;}
	.st6{fill:#F9F7FC;}
	.st7{fill:#767DD4;}
	.st8{fill:#F9A40D;}
	.st9{fill:#2A286B;}
	.st10{fill:#C640A6;}
	.st11{fill:#DCDAEB;}
	.st12{fill:#443F80;}
</style>
<circle class="st0" cx="512" cy="512" r="440"/>
<g>
	<path class="st1" d="M235.2,854.1c23.7,19.2,49.5,36.1,77,50.1h399.5c27.5-14,53.3-30.8,77.1-50.1H235.2z M615,162.2
		c-24.1-37.5-63.5-56.3-103-56.3s-78.9,18.8-103,56.3L94.9,652.4c6.5,19.4,14.4,38.2,23.4,56.2l332.9-519.5
		c6.9-10.8,16-19.2,26.9-25c10.3-5.4,22-8.3,33.9-8.3c11.9,0,23.6,2.9,33.9,8.3c10.9,5.8,20,14.2,26.9,25l332.9,519.5
		c9.1-18.1,16.9-36.9,23.4-56.3L615,162.2z"/>
	<g>
		<g>
			<path class="st2" d="M321.8,749.2c0,47.6-38.6,86.2-86.2,86.2c-9.2,0-18-1.4-26.3-4.1c-10.5-10-20.5-20.5-30-31.4
				c-10.2-11.8-19.8-24.2-28.8-37l0,0c-0.7-4.4-1.1-9-1.1-13.6c0-47.6,38.6-86.2,86.2-86.2C283.3,663,321.8,701.6,321.8,749.2z"/>
			<circle class="st3" cx="419.9" cy="749.2" r="86.2"/>
			<circle class="st4" cx="604.1" cy="749.2" r="86.2"/>
			<path class="st5" d="M874.5,749.2c0,4.7-0.4,9.3-1.1,13.8c-8.9,12.8-18.5,25.1-28.6,36.8c-9.5,10.9-19.5,21.4-30,31.4
				c-8.3,2.7-17.3,4.2-26.5,4.2c-47.6,0-86.2-38.6-86.2-86.2c0-47.6,38.6-86.2,86.2-86.2C835.9,663,874.5,701.6,874.5,749.2z"/>
		</g>
		<g>
			<circle class="st5" cx="327.8" cy="596.6" r="86.2"/>
			<circle class="st6" cx="512" cy="596.6" r="86.2"/>
			<circle class="st7" cx="696.2" cy="596.6" r="86.2"/>
		</g>
		<g>
			<circle class="st8" cx="419.9" cy="437.4" r="86.2"/>
			<circle class="st9" cx="604.1" cy="437.4" r="86.2"/>
		</g>
		<circle class="st3" cx="512" cy="282.9" r="86.2"/>
		<path class="st10" d="M598.2,282.9c0-47.6-38.6-86.2-86.2-86.2v172.4C559.6,369.1,598.2,330.5,598.2,282.9z"/>
		<path class="st11" d="M598.2,596.6c0-47.6-38.6-86.2-86.2-86.2v172.4C559.6,682.8,598.2,644.2,598.2,596.6z"/>
	</g>
	<path class="st12" d="M512,854.1h276.9c-23.8,19.3-49.6,36.1-77.1,50.1H512V854.1z"/>
	<path class="st12" d="M929.1,652.4c-6.5,19.4-14.4,38.2-23.4,56.3L572.8,189.2c-6.9-10.8-16-19.2-26.9-25
		c-10.3-5.4-22-8.3-33.9-8.3v-50.1c39.5,0,78.9,18.8,103,56.3L929.1,652.4z"/>
	<circle class="st6" cx="308.3" cy="584" r="34.6"/>
	<circle class="st6" cx="454.7" cy="788.8" r="36.3"/>
	<circle class="st6" cx="467.4" cy="270.5" r="36.3"/>
	<circle class="st6" cx="604.1" cy="437.4" r="36.3"/>
	<circle class="st6" cx="250.1" cy="741" r="58.2"/>
	<circle class="st11" cx="788.3" cy="749.2" r="58.2"/>
	<circle class="st11" cx="680.4" cy="614.5" r="58.2"/>
</g>
</svg>
