<?xml version="1.0" encoding="utf-8"?>
<!-- Generator: Adobe Illustrator 24.0.0, SVG Export Plug-In . SVG Version: 6.00 Build 0)  -->
<svg version="1.1" id="Capa_1" xmlns="http://www.w3.org/2000/svg" xmlns:xlink="http://www.w3.org/1999/xlink" x="0px" y="0px"
	 viewBox="0 0 1024 1024" style="enable-background:new 0 0 1024 1024;" xml:space="preserve">
<style type="text/css">
	.st0{fill:#9DD4A9;}
	.st1{fill:#DCDAEB;}
	.st2{fill:#F9F7FC;}
	.st3{fill:#171759;}
	.st4{fill:#443F80;}
	.st5{fill:#2A286B;}
	.st6{fill:#534A9A;}
	.st7{fill:#F9A40D;}
	.st8{fill:#F9B630;}
</style>
<circle class="st0" cx="512" cy="512" r="440"/>
<g>
	<g>
		<path class="st1" d="M572.8,784L572.8,784c-7.2,0-14.1-5.3-15.4-12.1l-98-517.8c-8.5-43.6,0.1-65.7,20.2-65.7l0,0
			c20.1,0,40.9,22.1,46,65.7L584.4,772C585.2,778.7,580,784,572.8,784z"/>
		<path class="st2" d="M598.8,784L598.8,784c-7.2,0-13.7-5.3-14.5-12.1l-58.8-517.8c-5.1-43.6,6.6-65.7,26.7-65.7l0,0
			c20.1,0,37.9,22.1,39.6,65.7L611.4,772C611.7,778.7,606,784,598.8,784z"/>
		<path class="st1" d="M624.9,784L624.9,784c-7.2,0-13.2-5.3-13.5-12.1l-19.6-517.8c-1.7-43.6,13-65.7,33.1-65.7l0,0
			c20.1,0,34.8,22.1,33.1,65.7L638.4,772C638.2,778.7,632.1,784,624.9,784z"/>
		<path class="st2" d="M651,784L651,784c-7.2,0-12.8-5.3-12.6-12.1L658,254.2c1.7-43.6,19.5-65.7,39.6-65.7l0,0
			c20.1,0,31.8,22.1,26.7,65.7L665.5,772C664.7,778.7,658.2,784,651,784z"/>
		<path class="st1" d="M677.1,784L677.1,784c-7.2,0-12.4-5.3-11.6-12.1l58.8-517.8c5.1-43.6,25.9-65.7,46-65.7l0,0
			c20.1,0,28.8,22.1,20.2,65.7l-98,517.8C691.2,778.7,684.3,784,677.1,784z"/>
		<path class="st3" d="M840.3,804.9l77.9-462.4l26.2-155.6c0.6-3.8-1.9-7.4-5.7-8l-52.4-8.8L798,155.4c-3.8-0.6-7.4,1.9-8,5.7
			l-1.5,8.7l-4.1,24.1l-99.1,587.8l-3.8,22.2c-0.6,3.8,1.9,7.4,5.7,8l90.6,15.1l35.2,5.9L840.3,804.9z"/>
		<path class="st4" d="M348.6,849.5l-95.3,18.4c-25.3-18.4-48.6-39.5-69.4-62.8l-4.6-23.6l-9.9-51.1l-9.9-51l-9.9-51.1l-9.9-51
			l-9.9-51.1l-9.9-51.1L110,424l-9.9-51l-2-10l-8-41l-9.6-49.3c-5.1-26.4,12.1-51.9,38.6-57l83.3-16.1l19.2-3.7l18.9,97l7.8,40
			l2.1,11.1l2.2,11.2l0,0L258,383l2.3,12.1l2,10.2l0,0l5.4,27.8l2.5,13l3.4,17.2l4.1,21.3l2.4,12.6l1.9,9.7l0,0l5.3,27.3l2.7,14
			l1.6,8.3l5.5,28.2l2.8,14.5l1.5,7.8l8.4,43.3l7,35.8l3,15.3l1.4,7l8.6,44L348.6,849.5z"/>
		<g>
			<g>
				<polygon class="st2" points="91.7,323.3 239.1,294.8 248.5,342.9 101,371.4 				"/>
				<path class="st4" d="M237.9,296.6l8.8,45.2l-144.5,27.9l-8.8-45.2L237.9,296.6 M240.3,293L89.9,322l9.9,51.1l150.4-29L240.3,293
					L240.3,293z"/>
			</g>
			<g>
				<polygon class="st2" points="101.6,374.3 249,345.9 258.4,394 111,422.4 				"/>
				<path class="st4" d="M247.9,347.6l8.8,45.2l-144.5,27.9l-8.8-45.2L247.9,347.6 M250.2,344.1l-150.4,29l9.9,51.1l150.4-29
					L250.2,344.1L250.2,344.1z"/>
			</g>
			<g>
				<polygon class="st2" points="111.5,425.4 259,396.9 268.3,445 120.9,473.5 				"/>
				<path class="st4" d="M257.8,398.7l8.8,45.2l-144.5,27.9l-8.8-45.2L257.8,398.7 M260.2,395.2l-150.4,29l9.9,51.1l150.4-29
					L260.2,395.2L260.2,395.2z"/>
			</g>
			<g>
				<polygon class="st2" points="121.5,476.4 268.9,448 278.3,496.1 130.8,524.5 				"/>
				<path class="st4" d="M267.7,449.7l8.8,45.2L132,522.8l-8.8-45.2L267.7,449.7 M270.1,446.2l-150.4,29l9.9,51.1l150.4-29
					L270.1,446.2L270.1,446.2z"/>
			</g>
			<g>
				<polygon class="st2" points="131.4,527.5 278.8,499 288.2,547.1 140.8,575.6 				"/>
				<path class="st4" d="M277.7,500.8l8.8,45.2L142,573.9l-8.8-45.2L277.7,500.8 M280,497.3l-150.4,29l9.9,51.1l150.4-29L280,497.3
					L280,497.3z"/>
			</g>
			<g>
				<polygon class="st2" points="141.3,578.5 288.8,550.1 298.1,598.2 150.7,626.6 				"/>
				<path class="st4" d="M287.6,551.8l8.8,45.2l-144.5,27.9l-8.8-45.2L287.6,551.8 M290,548.3l-150.4,29l9.9,51.1l150.4-29
					L290,548.3L290,548.3z"/>
			</g>
			<g>
				<polygon class="st2" points="151.3,629.6 298.7,601.1 308.1,649.2 160.6,677.7 				"/>
				<path class="st4" d="M297.5,602.9l8.8,45.2L161.8,676l-8.8-45.2L297.5,602.9 M299.9,599.4l-150.4,29l9.9,51.1l150.4-29
					L299.9,599.4L299.9,599.4z"/>
			</g>
			<g>
				<polygon class="st2" points="161.2,680.6 308.7,652.2 318,700.3 170.6,728.7 				"/>
				<path class="st4" d="M307.5,653.9l8.8,45.2L171.8,727l-8.8-45.2L307.5,653.9 M309.8,650.4l-150.4,29l9.9,51.1l150.4-29
					L309.8,650.4L309.8,650.4z"/>
			</g>
			<g>
				<polygon class="st2" points="171.1,731.7 318.6,703.2 328,751.3 180.5,779.8 				"/>
				<path class="st4" d="M317.4,705l8.8,45.2L181.7,778l-8.8-45.2L317.4,705 M319.8,701.5l-150.4,29l9.9,51.1l150.4-29L319.8,701.5
					L319.8,701.5z"/>
			</g>
		</g>
		<g>
			<path class="st5" d="M277.2,350.5l-125.1,24.1c-3.4,0.7-6.7-1.6-7.4-5l-1.9-9.9c-0.7-3.4,1.6-6.8,5-7.4l125.1-24.1L277.2,350.5z"
				/>
			<path class="st5" d="M290.6,399.9L165.5,424c-3.4,0.7-6.7-1.6-7.4-5l-1.9-9.9c-0.7-3.4,1.6-6.8,5-7.4l125.1-24.1L290.6,399.9z"/>
			<path class="st5" d="M303.9,502.7l-125.1,24.1c-3.4,0.7-6.7-1.6-7.4-5l-1.9-9.9c-0.7-3.4,1.6-6.8,5-7.4l125.1-24.1L303.9,502.7z"
				/>
			<path class="st5" d="M317.3,551.6l-125.1,24.1c-3.4,0.7-6.7-1.6-7.4-5l-1.9-9.9c-0.7-3.4,1.6-6.8,5-7.4L313,529.3L317.3,551.6z"
				/>
			<path class="st5" d="M330.7,601.5l-125.1,24.1c-3.4,0.7-6.7-1.6-7.4-5l-1.9-9.9c-0.7-3.4,1.6-6.8,5-7.4l125.1-24.1L330.7,601.5z"
				/>
			<path class="st5" d="M344.1,704.1L219,728.2c-3.4,0.7-6.7-1.6-7.4-5l-1.9-9.9c-0.7-3.4,1.6-6.8,5-7.4l125.1-24.1L344.1,704.1z"/>
		</g>
		<path class="st6" d="M567,807.4l-218.4,42.1L221.4,196l218.4-42.1c3.8-0.7,7.4,1.7,8.1,5.5l124.5,639.9
			C573.2,803,570.8,806.7,567,807.4z"/>
		<polygon class="st7" points="282.7,237.4 405.4,213.7 512.6,764.8 389.9,788.4 		"/>
		<g>
			<circle class="st2" cx="805.1" cy="258.4" r="13.8"/>
			<circle class="st8" cx="854.3" cy="258.4" r="13.8"/>
			<circle class="st2" cx="903.5" cy="258.4" r="13.8"/>
		</g>
		<g>
			<circle class="st8" cx="793.2" cy="327.4" r="13.8"/>
			<circle class="st2" cx="842.4" cy="327.4" r="13.8"/>
			<circle class="st2" cx="891.6" cy="327.4" r="13.8"/>
		</g>
		<g>
			<circle class="st2" cx="781.3" cy="396.4" r="13.8"/>
			<circle class="st8" cx="830.5" cy="396.4" r="13.8"/>
			<circle class="st2" cx="879.8" cy="396.4" r="13.8"/>
		</g>
		<g>
			<circle class="st2" cx="769.5" cy="465.4" r="13.8"/>
			<circle class="st2" cx="818.7" cy="465.4" r="13.8"/>
			<circle class="st8" cx="867.9" cy="465.4" r="13.8"/>
		</g>
		<g>
			<circle class="st2" cx="757.6" cy="534.5" r="13.8"/>
			<circle class="st8" cx="806.8" cy="534.5" r="13.8"/>
			<circle class="st2" cx="856" cy="534.5" r="13.8"/>
		</g>
		<g>
			<circle class="st8" cx="745.8" cy="603.5" r="13.8"/>
			<circle class="st2" cx="795" cy="603.5" r="13.8"/>
			<circle class="st2" cx="844.2" cy="603.5" r="13.8"/>
		</g>
		<g>
			<circle class="st2" cx="733.9" cy="672.5" r="13.8"/>
			<circle class="st8" cx="783.1" cy="672.5" r="13.8"/>
			<circle class="st2" cx="832.3" cy="672.5" r="13.8"/>
		</g>
		<g>
			<circle class="st2" cx="722.1" cy="741.5" r="13.8"/>
			<circle class="st2" cx="771.3" cy="741.5" r="13.8"/>
			<circle class="st8" cx="820.5" cy="741.5" r="13.8"/>
		</g>
	</g>
</g>
</svg>
