<?xml version="1.0" encoding="utf-8"?>
<!-- Generator: Adobe Illustrator 24.0.0, SVG Export Plug-In . SVG Version: 6.00 Build 0)  -->
<svg version="1.1" id="Capa_1" xmlns="http://www.w3.org/2000/svg" xmlns:xlink="http://www.w3.org/1999/xlink" x="0px" y="0px"
	 viewBox="0 0 1024 1024" style="enable-background:new 0 0 1024 1024;" xml:space="preserve">
<style type="text/css">
	.st0{fill:#BAE4FA;}
	.st1{fill:#767DD4;}
	.st2{fill:#FFDDCE;}
	.st3{fill:#FFCBBE;}
	.st4{fill:#EAAC9D;}
	.st5{fill:#EAB1B7;}
	.st6{fill:#F473C3;}
	.st7{fill:#C640A6;}
	.st8{fill:#5E6ACA;}
	.st9{fill:#534A9A;}
</style>
<circle class="st0" cx="512" cy="512" r="440"/>
<g>
	<path class="st1" d="M952,512c0,6.8-0.2,13.5-0.5,20.1c-1.2,26.2-4.6,51.8-10.2,76.5c-15.9,70.9-48.9,135.3-94.5,188.7
		C809.6,841,764,877.2,712.7,903.6C652.5,934.6,584.3,952,512,952c-152.9,0-287.6-78.1-366.5-196.4c-16.7-25.1-30.9-52-42.3-80.5
		c-4.3-10.9-8.3-22.1-11.8-33.4c-10.2-33-16.5-67.6-18.7-103.4c21.9-5,36.2-15.5,51.2-26.5c21-15.4,42.8-31.4,85.8-31.4
		s64.8,15.9,85.8,31.4c20.6,15.1,40.2,29.5,80,29.5s59.4-14.3,80-29.5c21-15.4,42.7-31.4,85.8-31.4s64.8,15.9,85.8,31.4
		c20.6,15.1,40.2,29.5,80,29.5s59.4-14.3,80-29.5c21-15.4,42.7-31.4,85.8-31.4c38.1,0,59.5,12.5,78.5,26
		C952,508.2,952,510.1,952,512z"/>
	<g>
		<path class="st2" d="M665.6,623.4L470,815.4l-10.3,10.1L353,719.1l-24.2-24.2l48.1-47.1l132.9-130l-44.5-196.2
			c-3.8-16.8,3.7-34.1,18.4-43l181-108.3c18.9-11.3,43.3-5.2,54.5,13.7c11.6,19,5.4,43.4-13.5,54.7l-156.3,93.5l19.1,84.3
			c6.6,29.4,21.4,56.1,42.8,77.5l10.1,10l11.1,11.1l14.7,14.6l18.3,18.3c2.2,2.3,4.2,4.6,5.9,7.1c10.9,15.6,12.6,35.7,4.9,52.6
			C673.8,613.6,670.2,618.9,665.6,623.4z"/>
		<path class="st3" d="M663.6,378.5c24.5,4,47.8-12.7,51.7-37.3c4-24.5-12.7-47.8-37.3-51.7l0,0c-24.5-4-47.8,12.7-51.7,37.3
			C622.4,351.4,639,374.6,663.6,378.5L663.6,378.5z"/>
		<path class="st4" d="M646.8,336.5c1.3,13.2,13.2,23,26.5,21.6c13.2-1.3,23-13.2,21.6-26.5c-1.3-13.2-13.2-23-26.5-21.6
			C655.1,311.3,645.4,323.2,646.8,336.5z"/>
		<path class="st3" d="M797.4,509.9c2.5,24.8,24.6,42.8,49.4,40.3c24.8-2.5,42.8-24.6,40.3-49.4l0,0c-2.5-24.8-24.6-42.8-49.4-40.3
			C813,463,794.9,485,797.4,509.9C797.3,509.8,797.4,509.9,797.4,509.9z"/>
		<path class="st4" d="M818.3,507.8c1.3,13.2,13.2,23,26.5,21.6c13.3-1.3,23-13.2,21.6-26.5c-1.3-13.2-13.2-23-26.5-21.6
			C826.6,482.7,816.9,494.5,818.3,507.8L818.3,507.8z"/>
		<polygon class="st2" points="671.5,555.3 645.3,581.5 620.4,556.6 594.7,530.9 607.9,517.7 621.4,504.1 641.8,483.6 643.7,481.8 
			660.5,465.1 660.6,465 686.3,490.8 711.1,515.6 704.8,521.9 692.3,534.4 683.8,542.9 		"/>
		<path class="st3" d="M711.2,515.6l-27.3,27.3c-8.7-5-17.1-11.4-24.7-18.9l-3-3l-4-4c-7.6-7.5-13.9-15.9-19-24.7l27.3-27.3
			l25.9,25.8L711.2,515.6z"/>
		<path class="st2" d="M833.8,515.4c-42.5,42.7-109.8,45.8-155.9,9.2c-2.4-1.9-8.3-9-11.9-13.5c-1.8-2.2-3.1-3.9-3.1-3.9
			c-45.8-45.9-43.3-114.2,2.6-160.1l37.5-47.3c45.8-45.8,120.3-46,166.1-0.1l4.1,4l3,3c45.9,45.8,45.9,120.3,0,166.1L833.8,515.4z"
			/>
		<polygon class="st3" points="671.5,555.3 645.3,581.5 620.4,556.6 686.3,490.8 711.1,515.6 704.8,521.9 692.3,534.4 683.8,542.9 
					"/>
		<path class="st5" d="M711.2,515.6l-27.3,27.3c-8.7-5-17.1-11.4-24.7-18.9l-3-3l30.2-30.2L711.2,515.6z"/>
		<path class="st3" d="M833.8,515.4c-42.5,42.7-109.8,45.8-155.9,9.2c-2.4-1.9-8.3-9-11.9-13.5l207.3-207.3l3,3
			c45.9,45.8,45.9,120.3,0,166.1L833.8,515.4z"/>
		<path class="st5" d="M738.1,485.7c-13.3-0.8-24.6-5.7-32.7-14l0,0c-8.2-8.1-13.1-19.3-14-32.7c-0.3-4.6,3.2-8.6,7.7-8.9
			c4.6-0.3,8.6,3.2,8.9,7.7c0.6,9.1,3.8,16.5,9.2,21.9s12.9,8.6,21.8,9.2c4.6,0.3,8.1,4.2,7.8,8.9
			C746.6,482.4,742.8,485.9,738.1,485.7z"/>
		<path class="st6" d="M909.2,440l-23.4,23.4l-9.6,8.9c-2.9-13.6-6.9-26.8-12.2-39.5c-11.2-27.1-27.6-51.5-47.9-71.9
			c-30.2-30.4-69.2-52.1-113-61.1l32.8-32.9c45.4-45.5,117.6-47.7,165.7-6.9c2.6,2.1,5,4.4,7.4,6.9l0.5,0.5
			C957,315.2,956.8,392.4,909.2,440z"/>
		<path class="st7" d="M909.2,440l-23.4,23.4l-9.6,8.9c-2.9-13.6-6.9-26.8-12.2-39.5c-11.2-27.1-27.6-51.5-47.9-71.9l93.5-93.5
			C957,315.2,956.8,392.4,909.2,440z"/>
		<path class="st4" d="M738.1,485.7c-13.3-0.8-24.6-5.7-32.7-14l11.9-11.9c5.4,5.4,12.9,8.6,21.8,9.2c4.6,0.3,8.1,4.2,7.8,8.9
			C746.6,482.4,742.8,485.9,738.1,485.7z"/>
		<path class="st3" d="M665.6,623.4L470,815.4l-54.2-54.2l231.4-231.4l18.3,18.3c2.2,2.3,4.2,4.6,5.9,7.1
			c10.9,15.6,12.6,35.7,4.9,52.6C673.8,613.6,670.2,618.9,665.6,623.4z"/>
	</g>
	<path class="st8" d="M941.3,608.7c-5.5,24.5-13.1,48.2-22.4,71c-2.9,7.2-6.1,14.2-9.4,21.2c-4.4,9.2-9.1,18.3-14.1,27.2
		c-13.9,24.7-30.2,47.9-48.5,69.4c-37.2,43.5-82.8,79.7-134.1,106.1C652.5,934.6,584.3,952,512,952c-152.9,0-287.6-78.1-366.5-196.4
		c-6.5-9.8-12.6-19.8-18.3-30.1c-9-16.2-17.1-33-24.1-50.5c-4.3-10.9-8.3-22.1-11.8-33.4c12.3-5.5,22.3-12.8,32.5-20.3
		c21-15.4,42.8-31.4,85.8-31.4s64.8,15.9,85.8,31.4c20.6,15.1,40.2,29.5,80,29.5s59.4-14.3,80-29.5c21-15.4,42.7-31.4,85.8-31.4
		s64.8,15.9,85.8,31.4c14.4,10.6,28.3,20.7,48.8,25.9c8.9,2.3,19.1,3.5,31.2,3.5c29.5,0,47.8-7.9,63.7-18.1c4.9-3.1,9.6-6.6,14.4-10
		c0.6-0.5,1.3-0.9,1.9-1.4c13.8-10.1,27.9-20.5,48.2-26.4c10.6-3.1,22.9-5,37.6-5C904.7,589.9,924.7,598.2,941.3,608.7z"/>
	<path class="st9" d="M909.5,700.9c-4.4,9.2-9.1,18.3-14.1,27.2c-13.9,24.7-30.2,47.9-48.5,69.4c-37.2,43.5-82.8,79.7-134.1,106.1
		C652.5,934.6,584.3,952,512,952c-152.9,0-287.6-78.1-366.5-196.4c-6.5-9.8-12.6-19.8-18.3-30.1c20-14.6,41.7-29,82.5-29
		c43,0,64.8,15.9,85.8,31.4c20.6,15.1,40.2,29.5,80,29.5s59.4-14.3,80-29.5c21-15.4,42.7-31.4,85.8-31.4s64.8,15.9,85.8,31.4
		c14.4,10.6,28.3,20.7,48.8,25.9c8.9,2.3,19.1,3.5,31.2,3.5c29.5,0,47.8-7.9,63.7-18.1c4.9-3.1,9.6-6.6,14.4-10
		c0.6-0.5,1.3-0.9,1.9-1.4c13.8-10.1,27.9-20.5,48.2-26.4c10.6-3.1,22.9-5,37.6-5C887.4,696.4,899.3,698.1,909.5,700.9z"/>
</g>
</svg>
