<?xml version="1.0" encoding="utf-8"?>
<!-- Generator: Adobe Illustrator 24.0.0, SVG Export Plug-In . SVG Version: 6.00 Build 0)  -->
<svg version="1.1" id="Capa_1" xmlns="http://www.w3.org/2000/svg" xmlns:xlink="http://www.w3.org/1999/xlink" x="0px" y="0px"
	 viewBox="0 0 1024 1024" style="enable-background:new 0 0 1024 1024;" xml:space="preserve">
<style type="text/css">
	.st0{fill:#A5C6FF;}
	.st1{fill-rule:evenodd;clip-rule:evenodd;fill:#F9F7FC;}
	.st2{fill-rule:evenodd;clip-rule:evenodd;fill:#DCDAEB;}
	.st3{fill:#443F80;}
	.st4{fill:#2A286B;}
	.st5{fill:#C640A6;}
	.st6{fill:#F473C3;}
	.st7{fill:#B2299E;}
	.st8{fill:#534A9A;}
	.st9{fill:#FFD071;}
	.st10{fill:#F9B630;}
	.st11{fill:#F9F7FC;}
	.st12{fill:#DCDAEB;}
</style>
<path class="st0" d="M952,512c0,243-197,440-440,440c-96.2,0-185.1-30.8-257.5-83.2c-1.4-1-2.8-2-4.2-3c-3.8-2.8-7.6-5.7-11.4-8.7
	c-9.1-7.2-18-14.8-26.6-22.8c0,0,0,0,0,0c-3.8-3.6-7.6-7.2-11.3-10.9c-3.9-3.9-7.7-7.9-11.5-11.9c-3.8-4-7.5-8.2-11.1-12.4
	c-8.1-9.3-15.7-19-22.9-28.9C103,697.6,72,608.4,72,512C72,269,269,72,512,72c73.5,0,142.8,18,203.7,49.9c0,0,0.1,0,0.1,0.1
	c17.8,9.3,35,19.8,51.3,31.4c0.1,0,0.1,0.1,0.2,0.1c0.8,0.5,1.5,1.1,2.3,1.6c7.8,5.6,15.5,11.5,22.9,17.7c5,4.1,9.9,8.4,14.7,12.7
	c5.6,5,11,10.2,16.3,15.5c1.5,1.5,2.9,2.9,4.3,4.4c2.2,2.3,4.4,4.6,6.6,6.9c2.2,2.4,4.5,4.8,6.6,7.3c6.4,7.2,12.5,14.5,18.5,22.1
	c4,5.1,7.9,10.4,11.7,15.7c5.7,8,11,16.1,16.1,24.5c1.8,3,3.6,5.9,5.3,8.9c0,0,0,0.1,0,0.1c0,0,0,0.1,0.1,0.1
	c3.5,6.1,7,12.3,10.2,18.6c6.4,12.3,12.2,25,17.4,37.9c0,0,0,0,0,0C940.8,398.5,952,454,952,512z"/>
<g>
	<g>
		<path class="st1" d="M377,355.8c-27.1,0-51.7-11-69.5-28.8s-28.9-42.4-28.9-69.5c0-54.1,44.2-98.3,98.3-98.3
			c27.1,0,51.7,11.1,69.5,28.9s28.8,42.4,28.9,69.5C475.3,311.6,431.2,355.8,377,355.8z"/>
	</g>
	<path class="st2" d="M377,355.8c-27.1,0-51.7-11-69.5-28.8l138.9-138.9c17.8,17.8,28.8,42.4,28.9,69.5
		C475.3,311.6,431.2,355.8,377,355.8z"/>
</g>
<g>
	<g>
		<g>
			<path class="st3" d="M445.5,438.4c0,0-2,108.4-120.6,227h47.8c0,0,68.2-67.4,97-153.5c0.6,1.1-5.9-55.2-5.9-55.2L445.5,438.4z"/>
			<path class="st4" d="M608.6,601.5c0,0-108.4,2-227,120.6v-47.8c0,0,67.4-68.2,153.5-97c-1.1-0.6,55.2,5.9,55.2,5.9L608.6,601.5z"
				/>
		</g>
		<path class="st5" d="M383.6,720.1c-0.6,0.7-1.2,1.4-1.9,2.1l-32.1,32.1l-28.8,28.8l-32.4,32.4l-32.3,32.3
			c-0.8,0.8-1.6,1.5-2.4,2.2l0,0c-4.3,3.6-9.4,5.9-14.7,7c-9.1-7.2-18-14.8-26.6-22.8c0,0,0,0,0,0c-3.8-3.6-7.6-7.2-11.3-10.9
			c-3.9-3.9-7.7-7.9-11.5-11.9c0.7-6.4,3.2-12.6,7.4-17.8c0.7-0.9,1.5-1.7,2.3-2.5l4.1-4.1l32.6-32.6l28.6-28.6l60.3-60.3
			c13.1-13.2,34.6-13.2,47.8,0l9,9C394.1,687,394.8,706.9,383.6,720.1z"/>
		<path class="st6" d="M376.9,669.7l-37.8,37.7l-0.1,0.1l-32.4,32.4l0,0L278,768.6l0,0l-32.5,32.5l0,0l-17.1,17.1l-16,15.9
			c-3.8-3.6-7.6-7.2-11.3-10.9c-3.9-3.9-7.7-7.9-11.5-11.9c0.7-6.4,3.2-12.6,7.4-17.8c0.7-0.9,1.5-1.7,2.3-2.5l4.1-4.1l32.6-32.6
			l28.6-28.6l32.7-32.7l27.5-27.5c0,0,0.1-0.1,0.1-0.1c13.1-13.1,34.4-13.1,47.6,0c0,0,0.1,0.1,0.1,0.1L376.9,669.7z"/>
		<g>
			<polygon class="st7" points="203.4,786.9 288.4,815.5 320.9,783.1 236,754.3 			"/>
			<polygon class="st7" points="264.6,725.7 349.6,754.3 381.6,722.1 297.3,693 			"/>
		</g>
		<g>
			<polygon class="st5" points="236,754.3 203.4,786.9 245.5,801.1 278,768.6 			"/>
			<polygon class="st5" points="297.3,693 264.6,725.7 306.7,739.9 339.1,707.5 			"/>
		</g>
		<path class="st3" d="M253.9,853.3c0,0.4,0,0.8,0,1.1c0,0.4,0,0.8-0.1,1.1c-0.1,1.5-0.4,3-0.9,4.4c-0.1,0.4-0.2,0.7-0.3,1.1
			c-0.1,0.4-0.3,0.7-0.4,1.1c-0.5,1.2-1.1,2.5-1.9,3.6c-3.8-2.8-7.6-5.7-11.4-8.7c-9.1-7.2-18-14.8-26.6-22.8c0,0,0,0,0,0
			c-3.8-3.6-7.6-7.2-11.3-10.9c-3.9-3.9-7.7-7.9-11.5-11.9c-3.8-4-7.5-8.2-11.1-12.4c5.2-4.6,12-6.4,18.5-5.5
			c4.8,0.7,9.5,2.9,13.2,6.6l18.1,18.1l18.8,18.8c3.6,3.6,5.8,8.3,6.5,13c0.1,0.8,0.2,1.5,0.2,2.3
			C253.9,852.7,253.9,853,253.9,853.3z"/>
		<path class="st8" d="M893.7,164.8c-1.8-2-3.8-4.1-5.7-6l-0.1-0.1c-46.4-46.3-109.7-51.9-172-36.7
			c-70.4,17.2-139.5,61.1-181.5,103.2c-53.3,53.3-96.6,135.3-88.8,214c2.5,25,10.1,49.6,24.2,72.9c7.6,12.5,17.1,24.7,28.6,36.3
			l0.1,0.1c11.7,11.7,24,21.3,36.6,28.9c23.4,14.2,48.2,21.8,73.4,24.2c41.2,4,83.3-6.1,121.7-24.3c21-9.9,40.9-22.3,59-36.1
			c11.7-9,22.7-18.6,32.6-28.5c8.4-8.4,16.9-17.9,25.3-28.3c1.7-2.1,3.3-4.2,5-6.3c0,0,0,0,0,0c2.3-2.9,4.5-5.9,6.7-9
			c2.2-3,4.4-6.1,6.5-9.2c5.2-7.6,10.3-15.5,15.2-23.7c1.5-2.5,3-5,4.4-7.5c0,0,0,0,0,0c2.2-3.8,4.3-7.6,6.4-11.5
			c2.8-5.2,5.5-10.5,8-15.8c0.3-0.6,0.6-1.2,0.8-1.7c0-0.1,0.1-0.2,0.1-0.2c0.3-0.7,0.6-1.4,1-2c0.6-1.3,1.2-2.7,1.8-4c0,0,0,0,0,0
			c0.6-1.3,1.2-2.7,1.8-4c0.6-1.4,1.2-2.7,1.8-4.1c2.9-6.8,5.7-13.7,8.1-20.6c0,0,0,0,0,0c2-5.6,3.9-11.2,5.6-16.8
			C940.1,282.8,938.8,214.9,893.7,164.8z M796.7,482.6c-0.6,0.6-1.2,1.3-1.9,1.9c-0.2,0.2-0.4,0.4-0.6,0.6c-0.6,0.6-1.2,1.2-1.8,1.8
			c-3.1,3-6.3,6.1-9.7,9.1c-38.6,34.4-96.6,67.5-156.3,67.5c-38.5,0-72.3-14.3-100.5-42.5l-0.1-0.1c-23.4-23.4-37.1-50.6-41.1-81
			c-1.1-8.5-1.5-17.4-1.1-26.4c0.2-3.8,0.5-7.7,0.9-11.6c0.6-5.1,1.4-10.2,2.4-15.5c0.5-2.6,1.1-5.2,1.7-7.8
			c2.6-10.6,6.1-21.3,10.4-32c0-0.1,0.1-0.2,0.1-0.3c2.5-6.2,5.4-12.5,8.5-18.6c2.1-4.1,4.3-8.3,6.6-12.3c0.7-1.3,1.4-2.5,2.2-3.8
			c0.7-1.2,1.4-2.3,2.1-3.5c0.9-1.5,1.8-3,2.7-4.4c0.4-0.6,0.8-1.2,1.1-1.8c0.3-0.4,0.5-0.8,0.8-1.2c1.7-2.6,3.4-5.1,5.1-7.7
			c0.8-1.2,1.7-2.4,2.6-3.6c0-0.1,0.1-0.1,0.1-0.2c0.8-1.1,1.6-2.3,2.5-3.4c0,0,0-0.1,0.1-0.1c5.5-7.4,11.3-14.6,17.4-21.4
			c3.5-3.9,7.1-7.8,10.8-11.5c0.8-0.8,1.7-1.7,2.6-2.5c6.6-6.4,13.8-12.8,21.5-19c5-4,10.1-8,15.5-11.9c4.5-3.3,9.1-6.5,13.8-9.6
			c3.5-2.3,7-4.6,10.6-6.8c5.6-3.5,11.4-6.9,17.3-10.1c8.8-4.9,17.8-9.4,27-13.6c2.2-1,4.5-2,6.7-3c4.2-1.8,8.4-3.5,12.6-5.1
			c10.1-3.9,20.4-7.3,30.6-10c16-4.3,31.9-6.9,47.2-7.6c1.3-0.1,2.7-0.1,4-0.1c1.2,0,2.4,0,3.5,0c12,0,23.1,1.2,33.4,3.7
			c7.2,1.7,14,4,20.4,7c8.9,4.1,17.2,9.3,24.8,15.8c2.4,2,4.8,4.2,7,6.5l0.1,0.1c2.3,2.3,4.5,4.7,6.6,7.1
			c6.5,7.6,11.7,15.9,15.8,24.8c0.5,1,0.9,2,1.4,3.1c0.7,1.7,1.3,3.3,2,5c0.2,0.4,0.3,0.8,0.5,1.3c0.2,0.7,0.5,1.3,0.7,2
			c1,2.9,1.8,5.9,2.6,9c0.9,3.8,1.7,7.7,2.3,11.6c1.2,8.1,1.7,16.5,1.5,25.2c-0.1,5-0.4,10.1-1,15.4c-1.2,11.5-3.4,23.5-6.7,36
			c-0.5,1.8-1,3.6-1.5,5.4c-2.4,8.3-5.2,16.7-8.5,25.2c-2.5,6.4-5.2,12.9-8.2,19.3c-4.1,9-8.7,18.1-13.6,27
			c-3.2,5.8-6.6,11.6-10.1,17.3c-5.2,8.3-10.6,16.5-16.3,24.3c-3.9,5.3-7.9,10.6-11.9,15.6C809.6,468.7,803.2,476,796.7,482.6z"/>
		<path class="st9" d="M505.8,257.9c-13.8,18-26.1,37.9-36.1,59l29.5,29.5c8.5-20.8,20.2-41.6,34.3-60.7L505.8,257.9z"/>
		<path class="st3" d="M821.7,512.6c-79.4,79.4-222.4,136.7-323.3,35.8l-0.1-0.1l27.5-27.5l0.1,0.1c28.2,28.2,62,42.5,100.5,42.5
			l0,0c65.9,0,129.9-40.5,167.8-78.4c39.4-39.4,74.8-99.4,90.1-152.8c8.7-30.2,11.3-57.7,7.7-82c-3.7-25.5-14.1-46.5-31.6-64
			l-0.1-0.1l27.5-27.5l0.1,0.1C986.9,257.7,901.1,433.2,821.7,512.6z"/>
		<path class="st10" d="M761.4,513.5c-17.9,13.2-38.5,25.4-60.6,34.4l29.5,29.5c21-9.9,40.9-22.3,59-36.1L761.4,513.5z"/>
		<path class="st9" d="M647.5,146.9c-21.3,10.2-41.7,22.1-60.2,34.9l28,28c19.1-12.7,40-24.2,61.6-33.5L647.5,146.9z"/>
		<path class="st10" d="M900.2,399.7l-29.4-29.4c-9.1,21-20.5,42-33.5,61.6l28,28C878.1,441.4,890.1,421,900.2,399.7z"/>
		<path class="st4" d="M253.9,853.3c0,0.4,0,0.8,0,1.1c0,0.4,0,0.8-0.1,1.1c-0.1,1.5-0.4,3-0.9,4.4c-0.1,0.4-0.2,0.7-0.3,1.1
			c-0.1,0.4-0.3,0.7-0.4,1.1c-0.5,1.2-1.1,2.5-1.9,3.6c-3.8-2.8-7.6-5.7-11.4-8.7c-9.1-7.2-18-14.8-26.6-22.8l16-16l18.7,18.7
			c3.7,3.7,5.9,8.3,6.6,13.1c0.1,0.8,0.2,1.5,0.2,2.3C253.9,852.7,253.9,853,253.9,853.3z"/>
	</g>
	<path class="st11" d="M893.6,275.7l-15.8,15.8l-20.3-20.3l13.6-13.6l18.7-18.7l0,0l0.2-0.2c-1.7-7.2-4.1-14-7-20.4l-0.2,0.2
		l-23.5,23.5l-15.6,15.6l-20.3-20.3l43.6-43.6l0,0l0.1-0.1c-2.1-2.4-4.3-4.8-6.6-7.1l-0.1-0.1c-0.1,0-0.1-0.1-0.2-0.1
		c-2.2-2.2-4.5-4.3-6.8-6.4l-43.7,43.7l-20.3-20.3l17.6-17.6l21.6-21.6c-6.5-2.9-13.3-5.3-20.4-7l-0.1,0.1l-15.8,15.8l-16.6,16.6
		l-20.3-20.3l15.8-15.8l0.1-0.1c-1.4,0-2.9,0.1-4.3,0.2c-15.3,0.7-31.2,3.3-47.2,7.6l8.1,8.1l-20.3,20.3l-18.3-18.3l-0.1-0.1
		c-4.2,1.6-8.4,3.3-12.6,5.1c-2.3,1-4.5,2-6.7,3l24,24l-20.3,20.3l-30.5-30.5l-0.2-0.2c-5.9,3.3-11.7,6.6-17.3,10.1l0.1,0.1
		l34.2,34.2l-20.3,20.3l-38.3-38.1l-0.1-0.1c-5.4,3.9-10.6,7.9-15.5,11.9l40.1,40.1l-20.3,20.3l-41.2-41.3l-0.1-0.1l-2.5,2.5
		c-3.7,3.7-7.4,7.6-10.9,11.5l41,41l-19.4,19.4l-38.9-38.9l-0.1-0.1c0,0-0.1,0.1-0.1,0.1c-3.9,5.3-7.7,10.6-11.1,16.2l0.1,0.1l0,0
		l36.4,36.4l-20.3,20.3l-30.9-30.9c-3,6.2-5.9,12.4-8.5,18.6c0,0.1-0.1,0.2-0.1,0.3l0.1,0.1l25.6,25.6l-21.2,21.2l-15-15
		c-0.6,2.6-1.2,5.2-1.7,7.8c-1.1,5.2-1.9,10.4-2.4,15.5l0.1,0.1l5.3,5.3l-6.3,6.3c-0.4,9,0,17.8,1.1,26.4l19-19l20.3,20.3L493.1,472
		c2.5,6.3,5.5,12.4,9.1,18.4l35.5-35.5l20.3,20.3l-38.7,38.7c2.1,2.3,4.3,4.7,6.5,6.9l0.1,0.1c0.6,0.6,1.2,1.2,1.9,1.8
		c1.6,1.5,3.2,3,4.9,4.5c0.1,0.1,0.3,0.2,0.4,0.4l38.6-38.6l20.3,20.3l-35.5,35.4c5.9,3.5,12.1,6.5,18.4,9l30.8-30.8l20.3,20.3
		L607,562.1c2.3,0.3,4.6,0.6,6.9,0.8c0.6,0,1.2,0.1,1.8,0.1c0.6,0,1.2,0.1,1.8,0.1c0.9,0,1.8,0.1,2.8,0.1c0.4,0,0.8,0,1.2,0
		c0.8,0,1.5,0,2.3,0.1c0.9,0,1.7,0,2.6,0c2.3,0,4.6,0,6.9-0.1l0.1-0.1l6.2-6.2l5.4,5.4l0,0c7.9-0.9,15.6-2.3,23.3-4.1l0-0.1
		l-15-14.9l21.2-21.2l25.8,25.8c6.4-2.6,12.7-5.5,18.9-8.6l0-0.1l-31-30.9l20.3-20.3l36.5,36.5l0,0c5.6-3.6,11-7.4,16.3-11.2l0-0.1
		l-39-38.9l19.4-19.4l40.9,41l0.1,0.1c3.4-3,6.6-6.1,9.7-9.1c0.6-0.6,1.2-1.2,1.8-1.8c0.2-0.2,0.4-0.4,0.6-0.6
		c0.6-0.6,1.3-1.3,1.9-1.9l0,0l0,0l-41.2-41.2l20.3-20.3l40.1,40.1c4.1-5,8-10.2,11.9-15.6l-38.3-38.3l20.3-20.3l34.2,34.2l0.1,0
		c3.5-5.7,6.9-11.5,10.1-17.3l0,0l-0.1,0l-30.6-30.6l20.3-20.3l23.9,23.9l0.1,0.1l0,0c3-6.4,5.7-12.9,8.2-19.3l0,0l-0.1-0.1
		l-18.3-18.3l20.3-20.3l8.1,8.1c3.4-12.4,5.6-24.4,6.8-35.9c0.6-5.3,0.9-10.5,1-15.6L893.6,275.7z M830,271.2l-20.3,20.3l-20.3-20.3
		l20.3-20.3L830,271.2z M654.2,406.3l19.4-19.4l20.3,20.3l-19.4,19.4L654.2,406.3z M660.8,440.3l-20.3,20.3l-20.3-20.3l20.3-20.3
		L660.8,440.3z M687.3,373.2l20.3-20.3l20.3,20.3l-20.3,20.3L687.3,373.2z M721.4,339.2l20.3-20.3l20.3,20.3l-20.3,20.3L721.4,339.2
		z M755.4,305.2l20.3-20.3l20.3,20.3l-20.3,20.3L755.4,305.2z M796,237.2l-20.3,20.3l-20.3-20.3l20.3-20.3L796,237.2z M620.2,372.3
		l19.4-19.4l20.3,20.3l-19.4,19.4L620.2,372.3z M626.8,406.3l-20.3,20.3l-20.3-20.3l20.3-20.3L626.8,406.3z M653.3,339.2l20.3-20.3
		l20.3,20.3l-20.3,20.3L653.3,339.2z M687.3,305.2l20.3-20.3l20.3,20.3l-20.3,20.3L687.3,305.2z M721.4,271.2l20.3-20.3l20.3,20.3
		l-20.3,20.3L721.4,271.2z M741.7,182.9l20.3,20.3l-20.3,20.3l-20.3-20.3L741.7,182.9z M707.6,216.9l20.3,20.3l-20.3,20.3
		l-20.3-20.3L707.6,216.9z M673.6,250.9l20.3,20.3l-20.3,20.3l-20.3-20.3L673.6,250.9z M639.6,284.9l20.3,20.3l-20.3,20.3
		l-20.3-20.3L639.6,284.9z M605.6,318.9l20.3,20.3l-19.4,19.4l-20.3-20.3L605.6,318.9z M572.5,352l20.3,20.3l-20.3,20.3l-20.3-20.3
		L572.5,352z M537.6,427.5l-20.3-20.3l21.2-21.2l20.3,20.3L537.6,427.5z M551.3,441.3l21.2-21.2l20.3,20.3l-21.2,21.1L551.3,441.3z
		 M585.3,475.3l21.2-21.2l20.3,20.3l-21.2,21.1L585.3,475.3z M639.6,529.5l-20.3-20.2l21.2-21.2l20.3,20.3L639.6,529.5z
		 M674.5,494.6l-20.3-20.3l20.3-20.3l20.3,20.3L674.5,494.6z M708.5,460.6l-20.3-20.3l19.4-19.4l20.3,20.3L708.5,460.6z
		 M741.7,427.5l-20.3-20.3l20.3-20.3l20.3,20.3L741.7,427.5z M775.7,393.5l-20.3-20.3l20.3-20.3l20.3,20.3L775.7,393.5z
		 M809.7,359.5l-20.3-20.3l20.3-20.3l20.3,20.3L809.7,359.5z M843.7,325.5l-20.3-20.3l20.3-20.3l20.3,20.3L843.7,325.5z"/>
	<path class="st12" d="M893.6,275.7l-15.8,15.8l-20.3-20.3l13.6-13.6l18.7-18.7l0,0l0.2-0.2c-1.7-7.2-4.1-14-7-20.4l-0.2,0.2
		l-23.5,23.5l-15.6,15.6l-20.3-20.3l43.6-43.6l0,0l0.1-0.1c-2.1-2.4-4.3-4.8-6.6-7.1l-0.1-0.1l-0.1,0l0,0.1l-26.1,26.1L525.8,520.8
		l0.1,0.1c0.6,0.6,1.2,1.2,1.9,1.8c1.6,1.5,3.2,3,4.9,4.5c0.1,0.1,0.3,0.2,0.4,0.4l38.6-38.6l20.3,20.3l-35.5,35.4
		c5.9,3.5,12.1,6.5,18.4,9l30.8-30.8l20.3,20.3L607,562.1c2.3,0.3,4.6,0.6,6.9,0.8c0.6,0,1.2,0.1,1.8,0.1c0.6,0,1.2,0.1,1.8,0.1
		c0.9,0,1.8,0.1,2.8,0.1c0.4,0,0.8,0,1.2,0c0.8,0,1.5,0,2.3,0.1c0.9,0,1.7,0,2.6,0c2.3,0,4.6,0,6.9-0.1l0.1-0.1l6.2-6.2l5.4,5.4l0,0
		c7.9-0.9,15.6-2.3,23.3-4.1l0-0.1l-15-14.9l21.2-21.2l25.8,25.8c6.4-2.6,12.7-5.5,18.9-8.6l0-0.1l-31-30.9l20.3-20.3l36.5,36.5l0,0
		c5.6-3.6,11-7.4,16.3-11.2l0-0.1l-39-38.9l19.4-19.4l40.9,41l0.1,0.1c3.4-3,6.6-6.1,9.7-9.1c0.6-0.6,1.2-1.2,1.8-1.8
		c0.2-0.2,0.4-0.4,0.6-0.6c0.6-0.6,1.3-1.3,1.9-1.9l0,0l0,0l-41.2-41.2l20.3-20.3l40.1,40.1c4.1-5,8-10.2,11.9-15.6l-38.3-38.3
		l20.3-20.3l34.2,34.2l0.1,0c3.5-5.7,6.9-11.5,10.1-17.3l0,0l-0.1,0l-30.6-30.6l20.3-20.3l23.9,23.9l0.1,0.1l0,0
		c3-6.4,5.7-12.9,8.2-19.3l0,0l-0.1-0.1l-18.3-18.3l20.3-20.3l8.1,8.1c3.4-12.4,5.6-24.4,6.8-35.9c0.6-5.3,0.9-10.5,1-15.6
		L893.6,275.7z M809.7,250.9l20.3,20.3l-20.3,20.3l-20.3-20.3L809.7,250.9z M775.7,284.9l20.3,20.3l-20.3,20.3l-20.3-20.3
		L775.7,284.9z M741.7,318.9l20.3,20.3l-20.3,20.3l-20.3-20.3L741.7,318.9z M707.6,352.9l20.3,20.3l-20.3,20.3l-20.3-20.3
		L707.6,352.9z M673.6,386.9l20.3,20.3l-19.4,19.4l-20.3-20.3L673.6,386.9z M640.5,420l20.3,20.3l-20.3,20.3l-20.3-20.3L640.5,420z
		 M585.3,475.3l21.2-21.2l20.3,20.3l-21.2,21.1L585.3,475.3z M639.6,529.5l-20.3-20.2l21.2-21.2l20.3,20.3L639.6,529.5z
		 M674.5,494.6l-20.3-20.3l20.3-20.3l20.3,20.3L674.5,494.6z M708.5,460.6l-20.3-20.3l19.4-19.4l20.3,20.3L708.5,460.6z
		 M741.7,427.5l-20.3-20.3l20.3-20.3l20.3,20.3L741.7,427.5z M775.7,393.5l-20.3-20.3l20.3-20.3l20.3,20.3L775.7,393.5z
		 M809.7,359.5l-20.3-20.3l20.3-20.3l20.3,20.3L809.7,359.5z M843.7,325.5l-20.3-20.3l20.3-20.3l20.3,20.3L843.7,325.5z"/>
</g>
</svg>
