<?xml version="1.0" encoding="utf-8"?>
<!-- Generator: Adobe Illustrator 24.0.0, SVG Export Plug-In . SVG Version: 6.00 Build 0)  -->
<svg version="1.1" id="Capa_1" xmlns="http://www.w3.org/2000/svg" xmlns:xlink="http://www.w3.org/1999/xlink" x="0px" y="0px"
	 viewBox="0 0 1024 1024" style="enable-background:new 0 0 1024 1024;" xml:space="preserve">
<style type="text/css">
	.st0{fill:#A5C6FF;}
	.st1{fill:#C640A6;}
	.st2{fill:#F9F7FC;}
	.st3{fill:#84BFA7;}
	.st4{fill:#B5289B;}
	.st5{fill:#F473C3;}
	.st6{fill:#FFFFFF;}
	.st7{fill:#DCDAEB;}
	.st8{fill:#9DD4A9;}
	.st9{fill:#FFD071;}
	.st10{fill:#767DD4;}
	.st11{fill:#F9B630;}
	.st12{fill:#83B5FC;}
	.st13{fill:#6EA7ED;}
</style>
<circle class="st0" cx="512" cy="512" r="440"/>
<g>
	<g>
		<path class="st1" d="M866.5,550.9c-9.7,4.8-20.5,12.4-31.1,24c-1.9,2-3.7,4.3-5.5,6.5c-0.6,0.8-1.2,1.5-1.8,2.4
			c-1,1.2-1.8,2.5-2.7,3.7c-0.6,0.8-1.2,1.7-1.8,2.6c-0.3,0.4-0.6,0.8-0.9,1.3c-0.6,0.9-1.1,1.8-1.7,2.7c-1.2,1.9-2.3,3.8-3.4,5.8
			c-0.5,1-1.1,2-1.7,3.1c-0.2,0.4-0.4,0.7-0.6,1.1c-2,3.8-4,7.9-5.9,12.2l-31.5,71.5l-604.1-266L300.1,135
			c6.5-14.8,23.8-21.6,38.7-15.1l36,15.8c17.2,7.6,29.2,23.8,31.1,42.5c0.6,6.2,2.7,13,5,19.2c4.6,12.2,14,22,25.9,27.3l47,20.7
			c7.4,3.3,15.3,5.3,23.1,6c11.6,1.1,23.4-0.4,34.4-4.7l23.5-9.1c10.3-4,21.8-3.8,31.8,0.7l19,8.8c8.7,4,16.3,9.9,22.4,17.1
			c1.3,1.6,2.5,3.2,3.7,4.9c6,8.5,14.3,20.5,24.1,34.5c4.2,6,8.8,12.5,13.6,19.3c9.4,13.3,19.8,27.8,30.5,42.8
			c4.6,6.4,9.3,12.9,14.1,19.4c10.3,14.1,20.6,28.3,31,42c4.8,6.5,9.6,12.7,14.3,19c29.7,39.1,56.1,71.6,69.5,82.2L866.5,550.9z"/>
		<path class="st2" d="M917.8,756.5c-12.3,28-45.1,40.8-73.2,28.4L152.2,480.1c-12.2-5.4-17.7-19.5-12.3-31.6l5.2-11.9
			c5.6-12.7,20.5-18.4,33-12.8l736.2,324.1c1.6,0.7,2.8,2,3.4,3.6C918.5,753,918.5,754.8,917.8,756.5z"/>
		<path class="st3" d="M880.8,562.4l-14.4-11.6c-18.2,9.1-40.6,27.7-57.2,65.4l-31.4,71.4l128,56.3l12.3-27.9
			C941.8,662.2,926.5,599.4,880.8,562.4L880.8,562.4z"/>
		<path class="st4" d="M866.5,550.9c-9.7,4.8-20.5,12.4-31.1,24c-1.9,2-3.7,4.3-5.5,6.5c-0.6,0.8-1.2,1.5-1.8,2.4
			c-1,1.2-1.8,2.5-2.7,3.7c-0.6,0.8-1.2,1.7-1.8,2.6c-0.3,0.4-0.6,0.8-0.9,1.3c-0.6,0.9-1.1,1.8-1.7,2.7c-1.2,1.9-2.3,3.8-3.4,5.8
			c-0.5,1-1.1,2-1.7,3.1c-0.2,0.4-0.4,0.7-0.6,1.1c-2,3.8-4,7.9-5.9,12.2l-31.5,71.5L504.4,567.4l133.5-303.2
			c1.3,1.6,2.5,3.2,3.7,4.9c6,8.5,14.3,20.5,24.1,34.5c4.2,6,8.8,12.5,13.6,19.3c9.4,13.3,19.8,27.8,30.5,42.8
			c4.6,6.4,9.3,12.9,14.1,19.4c10.3,14.1,20.6,28.3,31,42c4.8,6.5,9.6,12.7,14.3,19c29.7,39.1,56.1,71.6,69.5,82.2L866.5,550.9z"/>
		<path class="st5" d="M866.5,550.9c-9.7,4.8-20.5,12.4-31.1,24c-1.9,2-3.7,4.3-5.5,6.5c-0.6,0.8-1.2,1.5-1.8,2.4
			c-1,1.2-1.8,2.5-2.7,3.7c-0.6,0.8-1.2,1.7-1.8,2.6c-0.3,0.4-0.6,0.8-0.9,1.3c-0.6,0.9-1.1,1.8-1.7,2.7c-1.2,1.9-2.3,3.8-3.4,5.8
			c-0.5,1-1.1,2-1.7,3.1c-0.2,0.4-0.4,0.7-0.6,1.1L597.6,355.5l-90.9-103.9c11.6,1.1,23.4-0.4,34.4-4.7l23.5-9.1
			c10.3-4,21.8-3.8,31.8,0.7l19,8.8c8.6,4,16.3,9.8,22.4,17.1c1.3,1.6,2.6,3.2,3.8,4.9c6,8.5,14.3,20.5,24.1,34.5
			c4.2,6,8.8,12.5,13.6,19.3c9.4,13.3,19.8,27.8,30.5,42.8c4.6,6.4,9.3,12.9,14.1,19.4c10.3,14.1,20.6,28.3,31,42
			c4.8,6.5,9.6,12.7,14.3,19c29.7,39.1,56.1,71.6,69.5,82.2L866.5,550.9z"/>
		<path class="st1" d="M866.5,550.9c-9.7,4.8-20.5,12.4-31.1,24c-1.9,2-3.7,4.3-5.5,6.5c-0.6,0.8-1.2,1.5-1.8,2.4
			c-1,1.2-1.8,2.5-2.7,3.7c-0.6,0.8-1.2,1.7-1.8,2.6c-0.3,0.4-0.6,0.8-0.9,1.3c-0.6,0.9-1.1,1.8-1.7,2.7c-1.2,1.9-2.3,3.8-3.4,5.8
			c-0.5,1-1.1,2-1.7,3.1c-0.2,0.4-0.4,0.7-0.6,1.1L597.6,355.5l40.2-91.2c1.3,1.6,2.6,3.2,3.8,4.9c6,8.5,14.3,20.5,24.1,34.5
			c4.2,6,8.8,12.5,13.6,19.3c9.4,13.3,19.8,27.8,30.5,42.8c4.6,6.4,9.3,12.9,14.1,19.4c10.3,14.1,20.6,28.3,31,42
			c4.8,6.5,9.6,12.7,14.3,19c29.7,39.1,56.1,71.6,69.5,82.2L866.5,550.9z"/>
		<g>
			<path class="st6" d="M723.2,386.4l-53.4,20.7c-3.1,1.3-6.4,1-9.2-0.2s-5.2-3.6-6.4-6.6c-2.4-6.2,0.7-13.2,6.9-15.7l47.6-18.6
				L723.2,386.4z"/>
			<path class="st7" d="M721.1,386.9l-51.4,20c-6.1,2.4-12.9-0.7-15.4-6.8l0,0c-2.4-6.1,0.7-12.9,6.8-15.4l51.4-20
				c6.1-2.4,12.9,0.7,15.4,6.8l0,0C730.2,377.6,727.2,384.4,721.1,386.9z"/>
			<path class="st7" d="M675.7,325.3l-51.4,20c-6.1,2.4-12.9-0.7-15.4-6.8l0,0c-2.4-6.1,0.7-12.9,6.8-15.4l51.4-20
				c6.1-2.4,12.9,0.7,15.4,6.8l0,0C684.8,315.9,681.7,322.9,675.7,325.3z"/>
			<path class="st7" d="M765.4,448.7l-51.4,20c-6.1,2.4-12.9-0.7-15.4-6.8l0,0c-2.4-6.1,0.7-12.9,6.8-15.4l51.4-20
				c6.1-2.4,12.9,0.7,15.4,6.8l0,0C774.6,439.4,771.6,446.2,765.4,448.7z"/>
		</g>
		<path class="st8" d="M366.5,136.3c-16.6,37.7-54.1,59.6-92.8,58.2l26.2-59.6c6.5-14.8,23.8-21.6,38.7-15.1l29.4,12.9
			C367.4,134,367,135.2,366.5,136.3z"/>
		<path class="st9" d="M667.7,639.2l-494-217.5l84.9-192.9c118,54.2,217.4,132.7,294.9,227C599.6,511.9,637.9,573.7,667.7,639.2z"/>
		<path class="st10" d="M451.6,544l-278-122.4L241.2,268h0.1C358.4,319.7,434.2,426.2,451.6,544z"/>
		<path class="st8" d="M292.1,153.6c0.7-3.7,3.1-22.7-18-32c-0.1,0-0.2-0.1-0.4-0.2c-10.1-4.4-14.6-16.2-10.3-26.3
			c4.3-10.1,16.1-14.8,26.3-10.4c0.2,0.1,0.3,0.1,0.5,0.2c41.6,18.3,45.1,58.2,41.1,76.7l-39.1-8.5L292.1,153.6z"/>
		<path class="st7" d="M917.8,756.5c-12.3,28-45.1,40.8-73.2,28.4L479.4,624.1l25-56.7l410.1,180.5c1.6,0.7,2.8,2,3.4,3.6
			C918.5,753,918.5,754.8,917.8,756.5z"/>
		<path class="st11" d="M667.7,639.2l-163.3-71.9l49.1-111.5C599.6,511.9,637.9,573.7,667.7,639.2z"/>
	</g>
</g>
<g>
	<path class="st12" d="M656,750.8c0,11-9,20-20,20H156.2c-9.4-12.8-18-26.2-26-40H636C647,730.8,656,739.8,656,750.8z"/>
	<path class="st12" d="M415.1,654.3c0,11-9,20-20,20H102.9c-5.2-13-9.8-26.4-13.7-40c0.3,0,0.7,0,1,0h304.9
		C406.2,634.3,415.1,643.3,415.1,654.3z"/>
	<path class="st12" d="M76.9,577.8h105.6c11,0,20-9,20-20s-9-20-20-20H72.8L76.9,577.8z"/>
	<path class="st13" d="M656,750.8c0,11-9,20-20,20H417.1l17.6-40H636C647,730.8,656,739.8,656,750.8z"/>
</g>
</svg>
