<?xml version="1.0" encoding="utf-8"?>
<!-- Generator: Adobe Illustrator 24.0.0, SVG Export Plug-In . SVG Version: 6.00 Build 0)  -->
<svg version="1.1" id="Capa_1" xmlns="http://www.w3.org/2000/svg" xmlns:xlink="http://www.w3.org/1999/xlink" x="0px" y="0px"
	 viewBox="0 0 1024 1024" style="enable-background:new 0 0 1024 1024;" xml:space="preserve">
<style type="text/css">
	.st0{fill:#9DD4A9;}
	.st1{fill:#FFD071;}
	.st2{fill:#F9B630;}
	.st3{fill:#534A9A;}
	.st4{fill:#443F80;}
	.st5{fill:#F9A40D;}
	.st6{fill:#C640A6;}
	.st7{fill:#F473C3;}
</style>
<path class="st0" d="M952,512c0,243-197,440-440,440c-115.3,0-220.3-44.4-298.8-117c-13.4-12.4-26-25.6-37.8-39.5
	C110.9,718.9,72,620,72,512C72,269,269,72,512,72c106.9,0,205,38.2,281.2,101.6c15.7,13.1,30.5,27.2,44.2,42.3
	C908.6,294,952,398,952,512z"/>
<g>
	<g>
		<path class="st1" d="M846.4,194.3c0,7.8-3,15.6-9,21.6c0,0,0,0,0,0l-36.6,36.5l-28.2,28.2l-0.1,0.1l-34.6,34.6l-0.1,0l-22.2,22.2
			l-0.1,0.1L347.7,705.6l-0.1,0.1l-22.2,22.2l0,0.1l-34.6,34.6l-0.1,0.1l-28.2,28.2l-36.6,36.6c-3.7,3.7-8,6.2-12.7,7.6
			c-13.4-12.4-26-25.6-37.8-39.5c1.5-4.1,3.9-8,7.2-11.4l64.8-64.8l0.1-0.1l34.6-34.6l0-0.1l22.2-22.2l0.1-0.1L406,560.8l46.6-46.6
			l29.1-29.1l28.8-28.8l46.6-46.6l80.5-80.5l34.6-34.6l0.1-0.1l22.2-22.2l0.1,0l34.6-34.6l0.1-0.1l64.9-64.9
			c11.9-11.9,31.2-11.9,43.2,0.1C843.4,178.7,846.3,186.5,846.4,194.3z"/>
		<path class="st2" d="M846.4,194.3c0,7.8-3,15.6-9,21.6L525,528.3l-43.2-43.2l312.5-312.5c11.9-11.9,31.2-11.9,43.2,0.1
			C843.4,178.7,846.3,186.5,846.4,194.3z"/>
		<g>
			
				<rect x="417.9" y="528.5" transform="matrix(0.7071 -0.7071 0.7071 0.7071 -263.3102 482.5704)" class="st3" width="65.9" height="61.2"/>
			
				<rect x="522.5" y="423.9" transform="matrix(0.7071 -0.7071 0.7071 0.7071 -158.7113 525.8593)" class="st4" width="65.9" height="61.2"/>
		</g>
		<g>
			<g>
				<path class="st4" d="M809.7,445.1l-21.4,21.4c-3.7,3.7-9.6,3.7-13.3,0L547.5,238.9c-3.7-3.7-3.7-9.6,0-13.3l21.4-21.4
					c3.7-3.7,9.6-3.7,13.3,0l227.6,227.6C813.4,435.5,813.4,441.4,809.7,445.1z"/>
				<path class="st4" d="M866.7,388.1l-21.4,21.4c-3.7,3.7-9.6,3.7-13.3,0L604.5,182c-3.7-3.7-3.7-9.6,0-13.3l21.4-21.4
					c3.7-3.7,9.6-3.7,13.3,0l227.6,227.6C870.4,378.5,870.4,384.5,866.7,388.1z"/>
				<path class="st5" d="M882.4,345L865,362.4c-3,3-7.9,3-10.9,0L651.6,159.8c-3-3-3-7.9,0-10.9l17.4-17.4c3-3,7.9-3,10.9,0
					l202.6,202.6C885.4,337.1,885.4,342,882.4,345z"/>
				<path class="st6" d="M833.4,421.5l-11.7,11.7c-2.9,2.9-7.7,2.9-10.6,0L580.8,203c-2.9-2.9-2.9-7.7,0-10.6l11.7-11.7
					c2.9-2.9,7.7-2.9,10.6,0l230.2,230.2C836.3,413.8,836.3,418.5,833.4,421.5z"/>
			</g>
			<g>
				<path class="st3" d="M455.1,799.7l21.4-21.4c3.7-3.7,3.7-9.6,0-13.3L248.9,537.5c-3.7-3.7-9.6-3.7-13.3,0l-21.4,21.4
					c-3.7,3.7-3.7,9.6,0,13.3l227.6,227.6C445.5,803.4,451.4,803.4,455.1,799.7z"/>
				<path class="st3" d="M398.1,856.7l21.4-21.4c3.7-3.7,3.7-9.6,0-13.3L192,594.5c-3.7-3.7-9.6-3.7-13.3,0l-21.4,21.4
					c-3.7,3.7-3.7,9.6,0,13.3l227.6,227.6C388.5,860.4,394.5,860.4,398.1,856.7z"/>
				<path class="st2" d="M355,872.4l17.4-17.4c3-3,3-7.9,0-10.9L169.8,641.6c-3-3-7.9-3-10.9,0L141.6,659c-3,3-3,7.9,0,10.9
					l202.6,202.6C347.1,875.4,352,875.4,355,872.4z"/>
				<path class="st7" d="M431.5,823.4l11.7-11.7c2.9-2.9,2.9-7.7,0-10.6L213,570.8c-2.9-2.9-7.7-2.9-10.6,0l-11.7,11.7
					c-2.9,2.9-2.9,7.7,0,10.6l230.2,230.2C423.8,826.3,428.5,826.3,431.5,823.4z"/>
			</g>
		</g>
	</g>
</g>
</svg>
