<?xml version="1.0" encoding="utf-8"?>
<!-- Generator: Adobe Illustrator 24.0.0, SVG Export Plug-In . SVG Version: 6.00 Build 0)  -->
<svg version="1.1" id="Capa_1" xmlns="http://www.w3.org/2000/svg" xmlns:xlink="http://www.w3.org/1999/xlink" x="0px" y="0px"
	 viewBox="0 0 1024 1024" style="enable-background:new 0 0 1024 1024;" xml:space="preserve">
<style type="text/css">
	.st0{fill:#534A9A;}
	.st1{fill:#FFD071;}
	.st2{fill:#F9B630;}
	.st3{fill:#C640A6;}
	.st4{fill:#F473C3;}
	.st5{fill:#F9F7FC;}
	.st6{fill:#DCDAEB;}
</style>
<circle class="st0" cx="512" cy="512" r="440"/>
<g>
	<path class="st1" d="M918.8,126.5c0,0.6,0,1.2,0,1.8s0,1.3,0,1.9c0,0.7-0.1,1.3-0.1,2c-0.1,1.4-0.2,2.8-0.3,4.2
		c-0.1,0.5-0.1,1-0.2,1.6c0,0.2,0,0.3,0,0.5c0,0.1,0,0.3,0,0.4c-0.2,1.9-0.4,3.8-0.7,5.8c-0.1,0.6-0.2,1.3-0.3,1.9
		c-1,6.6-2.4,13.9-4.3,21.8c-0.4,1.6-0.8,3.3-1.2,5c-0.7,2.8-1.4,5.6-2.2,8.5c-0.3,1.1-0.6,2.3-0.9,3.4c-1.7,6.2-3.7,12.6-5.8,19.4
		c-0.4,1.2-0.8,2.5-1.2,3.7c-0.2,0.8-0.5,1.6-0.8,2.4c-0.3,0.9-0.6,1.8-0.9,2.7c-0.9,2.7-1.9,5.5-2.9,8.3c-0.3,0.9-0.6,1.9-1,2.8
		c-0.7,1.9-1.4,3.8-2.1,5.7c-0.2,0.5-0.3,0.9-0.5,1.4c-1.2,3.4-2.5,6.8-3.9,10.3c-1.1,3-2.3,6-3.5,9c-0.4,1-0.8,2-1.2,3
		c-0.7,1.8-1.4,3.6-2.2,5.4s-1.5,3.6-2.3,5.5c-0.1,0.2-0.1,0.4-0.2,0.5c-0.5,1.1-0.9,2.2-1.4,3.3c-0.2,0.6-0.5,1.2-0.7,1.7
		c-1.5,3.5-3,7-4.6,10.5c-0.1,0.2-0.2,0.5-0.3,0.8c-1.6,3.6-3.2,7.2-4.8,10.8c-0.1,0.2-0.2,0.5-0.3,0.7c-0.9,1.9-1.8,3.9-2.7,5.8
		c-2.1,4.5-4.2,9-6.4,13.6c-1.1,2.3-2.2,4.6-3.3,6.9c-0.6,1.2-1.2,2.3-1.7,3.5c-2.6,5.2-5.2,10.5-8,15.8c-0.9,1.8-1.8,3.6-2.8,5.3
		c-0.6,1.2-1.2,2.4-1.9,3.6c-0.6,1.2-1.3,2.4-1.9,3.6c-1.9,3.6-3.8,7.2-5.8,10.8c-1.3,2.4-2.6,4.9-4,7.3c-1.2,2.1-2.3,4.2-3.5,6.3
		c-0.4,0.7-0.7,1.3-1.1,2c-1.9,3.4-3.8,6.8-5.8,10.2c-1.5,2.6-3,5.2-4.6,7.8c-1.2,2.1-2.5,4.2-3.7,6.3c-0.4,0.6-0.7,1.2-1.1,1.8
		c-1.2,2-2.3,3.9-3.5,5.8c-2.4,4-4.9,8-7.4,12c-0.8,1.3-1.6,2.5-2.4,3.8c-0.8,1.2-1.5,2.4-2.3,3.7c-1,1.5-1.9,3-2.9,4.5
		c-0.7,1.1-1.4,2.2-2.1,3.2l0,0c-3.2,5-6.4,9.9-9.7,14.9c-1.1,1.7-2.3,3.4-3.4,5.1c-1.5,2.2-3,4.5-4.5,6.7c-1.3,1.8-2.5,3.7-3.8,5.5
		c-1.8,2.6-3.5,5.1-5.3,7.7c-0.6,0.9-1.2,1.7-1.8,2.5c-1,1.5-2.1,2.9-3.1,4.4c-1.8,2.6-3.7,5.2-5.6,7.8c-1.4,1.9-2.7,3.8-4.1,5.7
		c-3,4-6,8.1-9,12.1c-0.3,0.5-0.7,0.9-1,1.4c-3.4,4.5-6.8,9-10.3,13.5c-1.7,2.1-3.3,4.3-5,6.4c-0.2,0.2-0.3,0.4-0.5,0.6
		c-1.7,2.2-3.4,4.3-5.2,6.5s-3.6,4.5-5.4,6.7c0,0.1-0.1,0.1-0.1,0.2c-0.1,0.1-0.2,0.2-0.3,0.4l-3.2,3.9c-0.3,0.4-0.7,0.8-1,1.2
		c-1.6,1.9-3.1,3.8-4.7,5.7c-1.1,1.4-2.2,2.7-3.4,4.1c-7.1,8.4-14.4,16.8-21.8,25.2c-1.3,1.5-2.7,3-4.1,4.5c-3.1,3.5-6.3,7-9.5,10.5
		c-1.1,1.2-2.3,2.4-3.4,3.6c-2.3,2.4-4.5,4.9-6.8,7.3c-1.7,1.8-3.5,3.6-5.2,5.4c-0.2,0.3-0.5,0.5-0.7,0.7c-1.1,1.2-2.3,2.3-3.4,3.5
		c-0.4,0.4-0.8,0.8-1.1,1.2c-0.4,0.5-0.9,0.9-1.4,1.4c-1,1.1-2.1,2.1-3.2,3.2c-2,2.1-4.1,4.1-6.1,6.2c-1.7,1.7-3.5,3.5-5.2,5.2
		c-1.6,1.5-3.1,3-4.6,4.5c-1.7,1.6-3.3,3.2-4.9,4.8c-0.7,0.7-1.4,1.4-2.2,2.1c-1,0.9-1.9,1.8-2.8,2.7c-0.4,0.4-0.8,0.8-1.2,1.2
		c-1.7,1.6-3.3,3.1-5,4.7c-0.9,0.8-1.7,1.6-2.6,2.4c-1,0.9-2,1.9-3,2.8c-0.7,0.7-1.5,1.4-2.2,2c-0.2,0.2-0.5,0.4-0.7,0.6
		c-1.2,1.1-2.3,2.1-3.5,3.2c-1.2,1.1-2.3,2.1-3.5,3.2c-2.4,2.2-4.8,4.3-7.2,6.5c-1.2,1.1-2.4,2.1-3.6,3.2c-1.2,1.1-2.4,2.1-3.6,3.2
		c-2.4,2.1-4.9,4.2-7.3,6.3c-2.9,2.5-5.8,5-8.8,7.4c-1.7,1.4-3.4,2.8-5,4.2c-1,0.8-2,1.6-2.9,2.4c-1.4,1.2-2.9,2.4-4.3,3.5
		c-0.6,0.5-1.2,1-1.8,1.5c-2.2,1.8-4.3,3.5-6.5,5.2c-2.3,1.8-4.6,3.6-6.9,5.4c-2.6,2-5.2,4-7.8,6c0,0,0,0-0.1,0
		c-2.5,1.9-4.9,3.8-7.4,5.6c-2.5,1.9-4.9,3.7-7.4,5.5c-1.1,0.8-2.2,1.7-3.3,2.5c-2.6,1.9-5.2,3.8-7.8,5.7c-1.2,0.9-2.4,1.7-3.6,2.6
		c-4.9,3.6-9.8,7-14.7,10.5c-3.4,2.4-6.8,4.7-10.2,7.1c-2,1.3-3.9,2.7-5.9,4c-9.8,6.6-19.6,13-29.4,19.2c-1.6,1-3.1,2-4.6,2.9
		c-2.9,1.8-5.8,3.6-8.7,5.4c-2.1,1.3-4.3,2.6-6.4,3.9c-1.4,0.8-2.8,1.7-4.2,2.5c-5.3,3.2-10.6,6.3-15.9,9.4
		c-21.4,12.4-42.4,23.7-62.6,33.8c-2.6,1.3-5.1,2.6-7.7,3.8c-1.3,0.6-2.6,1.3-3.8,1.9c-4,1.9-7.9,3.8-11.8,5.7
		c-1.2,0.5-2.4,1.1-3.5,1.7c-13.3,6.2-26.1,11.9-38.5,17c-4.6-3.1-9-6.2-13.5-9.4c-18.6-13.6-36.1-28.5-52.3-44.7
		c-4.1-4.1-8.2-8.3-12.1-12.6c-1.7-1.8-3.3-3.6-5-5.5c-1.6-1.7-3.1-3.5-4.6-5.2c-8.5-9.9-16.6-20.1-24.3-30.8
		c-3-4.1-5.9-8.3-8.8-12.6c26.2-62.3,65.4-136.8,118.8-212.8c26.8-38.2,57.2-76.7,91.4-114.1c0.1-0.1,0.2-0.2,0.2-0.2
		c5.2-5.7,10.4-11.3,15.8-17c6.3-6.6,12.7-13.2,19.3-19.8c28.7-28.7,58.2-55.1,88-79.3c0.1,0,0.1-0.1,0.2-0.1
		c35.9-29.1,72.1-55,107.5-77.8c60.3-38.8,118.3-68.6,168.4-89.8c85.3-36.1,147.5-47.3,158.8-36c0.2,0.2,0.3,0.3,0.5,0.5
		c0.1,0.1,0.1,0.1,0.2,0.2c0.2,0.2,0.3,0.5,0.5,0.7s0.3,0.5,0.4,0.7c0.6,1.1,1.1,2.4,1.5,3.9c0,0.2,0.1,0.3,0.1,0.5
		c0.5,2,0.8,4.3,1,6.9c0,0.5,0.1,1.1,0.1,1.7C918.8,125.4,918.8,126,918.8,126.5z"/>
	<path class="st2" d="M918.8,126.5c0,0.6,0,1.2,0,1.8s0,1.3,0,1.9c0,0.7-0.1,1.3-0.1,2c-0.1,1.4-0.2,2.8-0.3,4.2
		c-0.1,0.5-0.1,1-0.2,1.6c0,0.2,0,0.3,0,0.5c0,0.1,0,0.3,0,0.4c-0.2,1.9-0.4,3.8-0.7,5.8c-0.1,0.6-0.2,1.3-0.3,1.9
		c-1,6.6-2.4,13.9-4.3,21.8c-0.4,1.6-0.8,3.3-1.2,5c-0.7,2.8-1.4,5.6-2.2,8.5c-0.3,1.1-0.6,2.3-0.9,3.4c-1.7,6.2-3.7,12.6-5.8,19.4
		c-0.4,1.2-0.8,2.5-1.2,3.7c-0.2,0.8-0.5,1.6-0.8,2.4c-0.3,0.9-0.6,1.8-0.9,2.7c-0.9,2.7-1.9,5.5-2.9,8.3c-0.3,0.9-0.6,1.9-1,2.8
		c-0.7,1.9-1.4,3.8-2.1,5.7c-0.2,0.5-0.3,0.9-0.5,1.4c-1.2,3.4-2.5,6.8-3.9,10.3c-1.1,3-2.3,6-3.5,9c-0.4,1-0.8,2-1.2,3
		c-0.7,1.8-1.4,3.6-2.2,5.4s-1.5,3.6-2.3,5.5c-0.1,0.2-0.1,0.4-0.2,0.5c-0.5,1.1-0.9,2.2-1.4,3.3c-0.2,0.6-0.5,1.2-0.7,1.7
		c-1.5,3.5-3,7-4.6,10.5c-0.1,0.2-0.2,0.5-0.3,0.8c-1.6,3.6-3.2,7.2-4.8,10.8c-0.1,0.2-0.2,0.5-0.3,0.7c-0.9,1.9-1.8,3.9-2.7,5.8
		c-2.1,4.5-4.2,9-6.4,13.6c-1.1,2.3-2.2,4.6-3.3,6.9c-0.6,1.2-1.2,2.3-1.7,3.5c-2.6,5.2-5.2,10.5-8,15.8c-0.9,1.8-1.8,3.6-2.8,5.3
		c-0.6,1.2-1.2,2.4-1.9,3.6c-0.6,1.2-1.3,2.4-1.9,3.6c-1.9,3.6-3.8,7.2-5.8,10.8c-1.3,2.4-2.6,4.9-4,7.3c-1.2,2.1-2.3,4.2-3.5,6.3
		c-0.4,0.7-0.7,1.3-1.1,2c-1.9,3.4-3.8,6.8-5.8,10.2c-1.5,2.6-3,5.2-4.6,7.8c-1.2,2.1-2.5,4.2-3.7,6.3c-0.4,0.6-0.7,1.2-1.1,1.8
		c-1.2,2-2.3,3.9-3.5,5.8c-2.4,4-4.9,8-7.4,12c-0.8,1.3-1.6,2.5-2.4,3.8c-0.8,1.2-1.5,2.4-2.3,3.7c-1,1.5-1.9,3-2.9,4.5
		c-0.7,1.1-1.4,2.2-2.1,3.2l0,0c-3.2,5-6.4,9.9-9.7,14.9c-1.1,1.7-2.3,3.4-3.4,5.1c-1.5,2.2-3,4.5-4.5,6.7c-1.3,1.8-2.5,3.7-3.8,5.5
		c-1.8,2.6-3.5,5.1-5.3,7.7c-0.6,0.9-1.2,1.7-1.8,2.5c-1,1.5-2.1,2.9-3.1,4.4c-1.8,2.6-3.7,5.2-5.6,7.8c-1.4,1.9-2.7,3.8-4.1,5.7
		c-3,4-6,8.1-9,12.1c-0.3,0.5-0.7,0.9-1,1.4c-3.4,4.5-6.8,9-10.3,13.5c-1.7,2.1-3.3,4.3-5,6.4c-0.2,0.2-0.3,0.4-0.5,0.6
		c-1.7,2.2-3.4,4.3-5.2,6.5s-3.6,4.5-5.4,6.7c0,0.1-0.1,0.1-0.1,0.2c-0.1,0.1-0.2,0.2-0.3,0.4l-3.2,3.9c-0.3,0.4-0.7,0.8-1,1.2
		c-1.6,1.9-3.1,3.8-4.7,5.7c-1.1,1.4-2.2,2.7-3.4,4.1c-7.1,8.4-14.4,16.8-21.8,25.2c-1.3,1.5-2.7,3-4.1,4.5c-3.1,3.5-6.3,7-9.5,10.5
		c-1.1,1.2-2.3,2.4-3.4,3.6c-2.3,2.4-4.5,4.9-6.8,7.3c-1.7,1.8-3.5,3.6-5.2,5.4c-0.2,0.3-0.5,0.5-0.7,0.7c-1.1,1.2-2.3,2.3-3.4,3.5
		c-0.4,0.4-0.8,0.8-1.1,1.2c-0.4,0.5-0.9,0.9-1.4,1.4c-1,1.1-2.1,2.1-3.2,3.2c-2,2.1-4.1,4.1-6.1,6.2c-1.7,1.7-3.5,3.5-5.2,5.2
		c-1.6,1.5-3.1,3-4.6,4.5c-1.7,1.6-3.3,3.2-4.9,4.8c-0.7,0.7-1.4,1.4-2.2,2.1c-1,0.9-1.9,1.8-2.8,2.7c-0.4,0.4-0.8,0.8-1.2,1.2
		c-1.7,1.6-3.3,3.1-5,4.7c-0.9,0.8-1.7,1.6-2.6,2.4c-1.7,1.6-3.5,3.2-5.2,4.8c-0.2,0.2-0.5,0.4-0.7,0.6c-1.2,1.1-2.3,2.1-3.5,3.2
		c-1.2,1.1-2.3,2.1-3.5,3.2c-2.4,2.2-4.8,4.3-7.2,6.5c-1.2,1.1-2.4,2.1-3.6,3.2c-1.2,1.1-2.4,2.1-3.6,3.2c-2.4,2.1-4.9,4.2-7.3,6.3
		c-2.9,2.5-5.8,5-8.8,7.4c-1.7,1.4-3.4,2.8-5,4.2c-1,0.8-2,1.6-2.9,2.4c-1.4,1.2-2.9,2.4-4.3,3.5c-0.6,0.5-1.2,1-1.8,1.5
		c-2.2,1.8-4.3,3.5-6.5,5.2c-2.3,1.8-4.6,3.6-6.9,5.4c-2.6,2-5.2,4-7.8,6c0,0,0,0-0.1,0c-2.5,1.9-4.9,3.8-7.4,5.6
		c-2.5,1.9-4.9,3.7-7.4,5.5c-1.1,0.8-2.2,1.7-3.3,2.5c-2.6,1.9-5.2,3.8-7.8,5.7c-1.2,0.9-2.4,1.7-3.6,2.6c-4.9,3.6-9.8,7-14.7,10.5
		c-3.4,2.4-6.8,4.7-10.2,7.1c-2,1.3-3.9,2.7-5.9,4c-9.8,6.6-19.6,13-29.4,19.2c-1.6,1-3.1,2-4.6,2.9c-2.9,1.8-5.8,3.6-8.7,5.4
		c-2.1,1.3-4.3,2.6-6.4,3.9c-1.4,0.8-2.8,1.7-4.2,2.5c-5.3,3.2-10.6,6.3-15.9,9.4c-21.4,12.4-42.4,23.7-62.6,33.8
		c-2.6,1.3-5.1,2.6-7.7,3.8c-1.3,0.6-2.6,1.3-3.8,1.9c-4,1.9-7.9,3.8-11.8,5.7c-1.2,0.5-2.4,1.1-3.5,1.7
		c-13.3,6.2-26.1,11.9-38.5,17c-4.6-3.1-9-6.2-13.5-9.4c-18.6-13.6-36.1-28.5-52.3-44.7l64-64L373,651.9l0.1-0.1l107.4-107.4
		L587.9,437l235.3-236l91.3-91.3c0.2,0.2,0.3,0.3,0.5,0.5c0.1,0.1,0.1,0.1,0.2,0.2c0.2,0.2,0.3,0.5,0.5,0.7s0.3,0.5,0.4,0.7
		c0.6,1.1,1.1,2.4,1.5,3.9c0,0.2,0.1,0.3,0.1,0.5c0.5,2,0.8,4.3,1,6.9c0,0.5,0.1,1.1,0.1,1.7C918.8,125.4,918.8,126,918.8,126.5z"/>
	<g>
		<path class="st3" d="M711,544.3H485.1l0,0h-5.2l107.4-107.4l201.6-0.1c-3.2,4.9-6.4,9.9-9.7,14.9c-1.1,1.7-2.3,3.4-3.4,5.1
			c-1.5,2.2-3,4.5-4.5,6.7c-1.3,1.8-2.5,3.7-3.8,5.5c-1.8,2.6-3.5,5.1-5.3,7.7c-0.6,0.9-1.2,1.7-1.8,2.5c-1,1.5-2.1,2.9-3.1,4.4
			c-1.8,2.6-3.7,5.2-5.6,7.8c-1.4,1.9-2.7,3.8-4.1,5.7c-3,4-6,8.1-9,12.1c-0.3,0.5-0.7,0.9-1,1.4c-3.4,4.5-6.8,9-10.3,13.5
			c-1.7,2.1-3.3,4.3-5,6.4c-0.2,0.2-0.3,0.4-0.5,0.6c-1.7,2.2-3.4,4.3-5.1,6.5C714.6,539.8,712.8,542,711,544.3z"/>
		<path class="st4" d="M587.3,436.9L479.9,544.3v-5.2l0,0V313.2c35.9-29.1,72.1-55,107.5-77.8L587.3,436.9z"/>
		<path class="st5" d="M479.9,544.3L372.5,651.7v-5.2V540.6v-3.9V526V412.6v-0.1c6.3-6.6,12.7-13.2,19.3-19.8
			c28.7-28.7,58.3-55.1,88-79.3l0.2,225.7l0,0L479.9,544.3z"/>
		<path class="st6" d="M631.6,632.5c-1.7,1.7-3.5,3.5-5.2,5.2c-1.5,1.5-3.1,3-4.6,4.5c-1.6,1.6-3.3,3.2-4.9,4.8
			c-0.7,0.7-1.4,1.4-2.2,2.1c-0.9,0.9-1.9,1.8-2.8,2.7h-0.1l-99.7-0.1h-13.7h-10.7h-3.9H377.9h-5.2l107.4-107.4h5.2l0,0l225.7,0.2
			c-0.1,0.1-0.2,0.2-0.3,0.4l-3.2,3.9c-0.3,0.4-0.7,0.8-1,1.2c-1.6,1.9-3.1,3.8-4.7,5.7c-1.1,1.4-2.3,2.7-3.4,4.1
			c-7.1,8.4-14.3,16.8-21.8,25.2c-1.3,1.5-2.7,3-4.1,4.5c-3.2,3.5-6.3,7-9.5,10.5c-1.1,1.2-2.3,2.4-3.4,3.7
			c-2.3,2.4-4.5,4.9-6.8,7.3c-1.7,1.8-3.5,3.6-5.2,5.4c-0.2,0.3-0.5,0.5-0.7,0.7c-1.1,1.2-2.3,2.4-3.4,3.5c-0.4,0.4-0.7,0.8-1.1,1.2
			c-0.4,0.5-0.9,0.9-1.3,1.4c-1.1,1.1-2.1,2.1-3.2,3.2C635.7,628.4,633.6,630.4,631.6,632.5z"/>
		<path class="st4" d="M372.4,651.7L265,759.1v-5.2V543.7c26.8-38.2,57.2-76.7,91.4-114.1c0.1-0.1,0.1-0.1,0.2-0.2
			c5.2-5.6,10.5-11.3,15.8-16.8l0.1-0.1L372.4,526v10.7v3.9v106V651.7L372.4,651.7z"/>
		<path class="st3" d="M611.8,651.7L611.8,651.7c-4,3.8-7.9,7.5-11.8,11.2c-0.7,0.7-1.5,1.4-2.2,2c-0.2,0.2-0.5,0.4-0.7,0.6
			c-1.2,1.1-2.3,2.1-3.5,3.2c-1.2,1.1-2.3,2.1-3.5,3.2c-2.4,2.2-4.8,4.3-7.2,6.5c-1.2,1.1-2.4,2.1-3.7,3.2c-1.2,1.1-2.4,2.1-3.6,3.2
			c-2.4,2.1-4.8,4.2-7.3,6.3c-2.9,2.5-5.8,5-8.8,7.4c-1.7,1.4-3.4,2.8-5,4.2c-1,0.8-2,1.6-2.9,2.4c-1.4,1.2-2.9,2.4-4.3,3.5
			c-0.6,0.5-1.2,1-1.8,1.4c-2.1,1.7-4.3,3.5-6.5,5.2c-2.3,1.8-4.6,3.6-6.9,5.4c-2.6,2-5.2,4-7.8,6c0,0,0,0-0.1,0.1
			c-2.5,1.9-4.9,3.8-7.4,5.6c-2.5,1.9-4.9,3.7-7.4,5.5c-1.1,0.8-2.2,1.7-3.3,2.5c-2.6,1.9-5.2,3.8-7.8,5.7c-1.2,0.9-2.4,1.7-3.6,2.6
			c-4.9,3.6-9.8,7-14.7,10.5H270.2H265l107.4-107.4h5.2h106h3.9h10.7h17.9H611.8z"/>
	</g>
</g>
</svg>
