<?xml version="1.0" encoding="utf-8"?>
<!-- Generator: Adobe Illustrator 24.0.0, SVG Export Plug-In . SVG Version: 6.00 Build 0)  -->
<svg version="1.1" id="Capa_1" xmlns="http://www.w3.org/2000/svg" xmlns:xlink="http://www.w3.org/1999/xlink" x="0px" y="0px"
	 viewBox="0 0 1024 1024" style="enable-background:new 0 0 1024 1024;" xml:space="preserve">
<style type="text/css">
	.st0{fill:#534A9A;}
	.st1{fill:#FFD071;}
	.st2{fill:#F9B630;}
	.st3{fill:#767DD4;}
	.st4{fill:#5E6ACA;}
	.st5{fill:#F473C3;}
	.st6{fill:#C640A6;}
	.st7{fill:#F9F7FC;}
	.st8{fill:#DCDAEB;}
</style>
<path class="st0" d="M952,512c0,243-197,440-440,440c-90.1,0-173.9-27.1-243.6-73.6c0,0-0.1,0-0.1-0.1
	c-24.4-16.2-47.1-34.9-67.7-55.5v0c-20.8-20.8-39.4-43.6-55.7-68.2c0,0-0.1-0.1-0.1-0.1C98.8,684.9,72,601.6,72,512
	C72,269,269,72,512,72c65.8,0,128.3,14.5,184.4,40.4c0,0,0,0,0,0c30.2,13.9,58.5,31.2,84.5,51.3c7.9,6.1,15.6,12.5,23.1,19.2
	c6.4,5.7,12.6,11.6,18.7,17.6c6.1,6,12,12.3,17.7,18.7c6.7,7.5,13.1,15.2,19.3,23.2c20,25.8,37.3,53.9,51.2,83.9c0,0,0,0.1,0,0.1
	C937.3,382.8,952,445.7,952,512z"/>
<g>
	<path class="st1" d="M856.2,407.4c-4.7,4.7-9.6,9.3-14.6,13.5c-11.5,10-23.7,18.7-36.1,26.1c-8,4.8-16.2,9-24.4,12.8
		c-8.6,3.9-17.4,7.2-26.1,10c-4.3,1.3-8.5,2.5-12.8,3.6c-6.9,1.7-13.7,3-20.6,4c-8.8,1.3-17.5,2-26.1,2c-11.4,0.1-22.5-0.8-33.4-2.8
		c-9-1.7-17.7-4.1-26.1-7.3c-11.9-4.5-23.1-10.4-33.4-17.9c-5.8-4.2-11.3-8.9-16.5-14.1c-5.2-5.2-9.9-10.7-14.1-16.5
		c-7.5-10.3-13.4-21.5-17.9-33.4c-3.2-8.4-5.6-17.1-7.3-26.1c-2-10.8-3-22-2.8-33.4c0.1-8.6,0.7-17.4,2-26.1
		c1.6-11.1,4.2-22.3,7.6-33.4c2.8-8.8,6.1-17.5,10-26.1c3.7-8.2,8-16.4,12.8-24.4c7.5-12.5,16.2-24.6,26.1-36.1
		c4.3-5,8.8-9.8,13.5-14.6c6.3-6.3,12.9-12.3,19.6-17.8c12.3-10.1,25.2-18.8,38.5-26.1c7-3.9,14.1-7.3,21.2-10.4
		c8.6-3.7,17.4-6.9,26.1-9.4c11.1-3.3,22.3-5.6,33.4-6.9c8.8-1.1,17.5-1.6,26.1-1.5c11.4,0.2,22.6,1.4,33.4,3.8
		c9,1.9,17.7,4.6,26.1,8.1c10.4,4.3,20.2,9.7,29.3,16.4c1.5,1.1,3,2.2,4.4,3.4c1.3,1,2.5,1.9,3.7,3c2.8,2.4,5.6,4.9,8.2,7.5l0,0
		c5.1,5.1,9.7,10.5,13.9,16.2c6.7,9.2,12.2,19,16.4,29.5c3.5,8.4,6.1,17.1,8.1,26.1c2.3,10.8,3.5,22,3.7,33.4
		c0.1,8.6-0.4,17.4-1.5,26.1c-1.3,11.1-3.7,22.3-6.9,33.4c-2.5,8.8-5.7,17.5-9.4,26.1c-3.1,7.2-6.5,14.3-10.4,21.2
		c-7.3,13.3-16,26.2-26.1,38.5C868.3,394.5,862.5,401,856.2,407.4z"/>
	<path class="st2" d="M856.2,407.4c-4.7,4.7-9.6,9.3-14.6,13.5c-11.5,10-23.7,18.7-36.1,26.1c-8,4.8-16.2,9-24.4,12.8
		c-8.6,3.9-17.4,7.2-26.1,10c-4.3,1.3-8.5,2.5-12.8,3.6c-6.9,1.7-13.7,3-20.6,4c-8.8,1.3-17.5,2-26.1,2c-11.4,0.1-22.5-0.8-33.4-2.8
		c-9-1.7-17.7-4.1-26.1-7.3c-11.9-4.5-23.1-10.4-33.4-17.9c-5.8-4.2-11.3-8.9-16.5-14.1L886,137.4c5.1,5.1,9.7,10.5,13.9,16.2
		c6.7,9.2,12.2,19,16.4,29.5c3.5,8.4,6.1,17.1,8.1,26.1c2.3,10.8,3.5,22,3.7,33.4c0.1,8.6-0.4,17.4-1.5,26.1
		c-1.3,11.1-3.7,22.3-6.9,33.4c-2.5,8.8-5.7,17.5-9.4,26.1c-3.1,7.2-6.5,14.3-10.4,21.2c-7.3,13.3-16,26.2-26.1,38.5
		C868.3,394.5,862.5,401,856.2,407.4z"/>
	<path class="st3" d="M900.1,242.5l0-33.4h24.5c-1.9-9-4.6-17.7-8.1-26.1h-16.4v-29.5c-4.2-5.7-8.8-11.1-13.9-16.2l-0.1,0
		c-2.6-2.6-5.4-5.1-8.1-7.5c-1.2-1-2.4-2-3.7-3c-1.5-1.2-2.9-2.3-4.4-3.4h-29.4V107c-3.2-1.3-6.3-2.5-9.6-3.6c0,0-0.1,0-0.1,0
		c-0.7-0.2-1.4-0.5-2-0.7c-0.1,0-0.2-0.1-0.4-0.1c-0.9-0.3-1.8-0.5-2.6-0.8s-1.8-0.5-2.7-0.8c-0.4-0.1-0.9-0.2-1.3-0.4
		s-0.9-0.2-1.3-0.4c-0.9-0.2-1.8-0.4-2.7-0.7c-0.2,0-0.4-0.1-0.6-0.1c-0.1,0-0.2,0-0.4-0.1c-0.8-0.2-1.6-0.4-2.4-0.6v24.4H781V95.1
		c-1.6,0-3.1,0-4.7,0c-0.8,0-1.7,0-2.5,0c-0.6,0-1.1,0-1.7,0.1c-0.8,0-1.6,0.1-2.4,0.1c-0.1,0-0.1,0-0.2,0c-0.9,0-1.8,0.1-2.7,0.1
		c-2,0.1-4,0.3-6,0.5c-1,0.1-2,0.2-3,0.3s-2,0.2-3,0.3v26.7h-33.4v-19.8c-8.4,2.4-16.8,5.4-25,8.9c-0.4,0.2-0.8,0.3-1.1,0.5l0,10.4
		h-21.2c-13.3,7.3-26.2,16-38.5,26.1h0.2v33.4l-33.4,0l0-1c-0.3,0.3-0.6,0.7-0.9,1c-9,10.5-16.9,21.5-23.8,32.7
		c-0.5,0.8-1,1.6-1.4,2.3l0,24.4h-12.8c-0.5,1.1-1,2.2-1.4,3.2c-3.3,7.5-6.2,15.2-8.6,22.9h22.8v33.4l-30.4,0
		c-0.2,1.1-0.3,2.2-0.5,3.3c-0.1,1.1-0.3,2.2-0.4,3.3c-0.8,6.5-1.1,13-1.1,19.4v0.2h32.5l0,33.4h-29.6c1.7,9,4.1,17.7,7.3,26.1h22.3
		v33.4H572c4.2,5.8,8.9,11.3,14.1,16.5c5.2,5.2,10.7,9.9,16.5,14.1V447H636l0,22.3c8.4,3.2,17.1,5.6,26.1,7.3V447h33.4v32.4
		c5.6-0.1,11.3-0.3,17.1-0.9c0.8-0.1,1.6-0.2,2.4-0.2c2.2-0.2,4.4-0.5,6.6-0.9V447H755v22.8c2.2-0.7,4.4-1.4,6.5-2.2
		c1.1-0.4,2.2-0.8,3.3-1.2c1.1-0.4,2.2-0.8,3.3-1.2c1.1-0.4,2.2-0.8,3.3-1.3c0.6-0.2,1.3-0.5,1.9-0.8c0.6-0.2,1.2-0.5,1.8-0.7
		c0.9-0.4,1.9-0.8,2.8-1.2c1.1-0.5,2.2-0.9,3.2-1.4V447h24.4c12-7.3,23.9-15.7,35.1-25.2c0.3-0.3,0.7-0.6,1-0.9h-1.1v-33.4l25.8,0
		h7.6l0,0.2v0.1c10.1-12.3,18.8-25.2,26.1-38.5v-21.2h10.4c0.2-0.6,0.5-1.1,0.7-1.7c3.4-8.1,6.3-16.3,8.7-24.4H900v-33.4h26.8
		c1.1-8.8,1.6-17.5,1.5-26.1H900.1z M840.5,209h33.4l0,33.4h-14.1l-19.3,0V209z M873.8,149.5v33.4l-33.4,0v-33.4L873.8,149.5z
		 M754.8,182.9l-33.4,0v-33.4h33.4L754.8,182.9z M754.8,209v33.4l-33.4,0V209H754.8z M721.5,268.5l25.8,0h7.6v33.4h-33.4V268.5z
		 M781,268.5h33.4v33.4H781L781,268.5z M781,242.4l0-33.4h33.4v33.4H781z M781,149.5h33.4v33.4H781V149.5z M662,149.5l33.4,0v33.4
		l-33.4,0V149.5z M695.4,209v7.6l0,25.8l-33.4,0V209H695.4z M695.4,301.9H662v-33.4h33.4V301.9z M635.8,209v33.4h-33.4l0-33.4H635.8
		z M635.8,328v33.4l-33.4,0l0-33.4H635.8z M602.5,301.9v-33.4l33.4,0v33.4H602.5z M602.5,420.9l0-26.9v-6.5l33.4,0v33.4H602.5z
		 M695.3,420.9H662l0-33.4h33.4L695.3,420.9z M662,361.4l0-33.4h33.4l0,33.4H662z M721.5,420.9v-33.4l33.4,0l0,33.4H721.5z
		 M754.8,361.4l-33.4,0V328h33.4v8.1L754.8,361.4z M814.3,420.9H781v-33.4h33.4V420.9z M814.3,361.4H781V328h33.4V361.4z
		 M873.8,361.4l-33.4,0V328h33.4V361.4z M840.5,301.9v-33.4h33.4v33.4H840.5z"/>
	<path class="st4" d="M900.1,242.5l0-33.4h24.5c-1.9-9-4.6-17.7-8.1-26.1h-16.4v-29.5c-4.2-5.7-8.8-11.1-13.9-16.2l-0.1,0
		l-12.2,12.2v33.4l-33.4,0l-17.7,17.6l-8.5,8.5v33.4H781l-26.1,26.1v33.4h-33.4l-0.4,0.4L695.3,328l0,33.4H662l-26.1,26.1v33.4
		h-33.4L586,437.3c5.2,5.2,10.7,9.9,16.5,14.1V447H636l0,22.3c8.4,3.2,17.1,5.6,26.1,7.3V447h33.4v32.4c5.6-0.1,11.3-0.3,17.1-0.9
		c0.8-0.1,1.6-0.2,2.4-0.2c2.2-0.2,4.4-0.5,6.6-0.9V447H755v22.8c2.2-0.7,4.4-1.4,6.5-2.2c1.1-0.4,2.2-0.8,3.3-1.2
		c1.1-0.4,2.2-0.8,3.3-1.2c1.1-0.4,2.2-0.8,3.3-1.3c0.6-0.2,1.3-0.5,1.9-0.8c0.6-0.2,1.2-0.5,1.8-0.7c0.9-0.4,1.9-0.8,2.8-1.2
		c1.1-0.5,2.2-0.9,3.2-1.4V447h24.4c12-7.3,23.9-15.7,35.1-25.2c0.3-0.3,0.7-0.6,1-0.9h-1.1v-33.4l25.8,0h7.6l0,0.2v0.1
		c10.1-12.3,18.8-25.2,26.1-38.5v-21.2h10.4c0.2-0.6,0.5-1.1,0.7-1.7c3.4-8.1,6.3-16.3,8.7-24.4H900v-33.4h26.8
		c1.1-8.8,1.6-17.5,1.5-26.1H900.1z M695.3,420.9H662l0-33.4h33.4L695.3,420.9z M840.5,209h33.4l0,33.4h-14.1l-19.3,0V209z
		 M814.3,268.5v33.4H781l0-33.4H814.3z M721.5,420.9v-33.4l33.4,0l0,33.4H721.5z M754.8,361.4l-33.4,0V328h33.4v8.1L754.8,361.4z
		 M814.3,420.9H781v-33.4h33.4V420.9z M814.3,361.4H781V328h33.4V361.4z M873.8,361.4l-33.4,0V328h33.4V361.4z M840.5,301.9v-33.4
		h33.4v33.4H840.5z"/>
	<path class="st5" d="M675,497.3l-30.4,28.8l-30.8,29.2L382.9,769.7l-0.1,0L342.5,808l-0.1,0.1l-40.4,38.3h0l-33.8,32.1
		c-24.4-16.2-47.1-34.9-67.7-55.5v0c-20.8-20.8-39.4-43.6-55.7-68.2c0,0-0.1-0.1-0.1-0.1l31.8-33.5l38.3-40.4l38.3-40.4l272.4-292.2
		c5-5.3,12.1-7.4,18.7-6.3c4.3,0.7,8.4,2.7,11.7,6l13.8,13.8l32.7,32.7l13.5,13.5h0l13.5,13.5l32.6,32.6l13.4,13.4
		c3.4,3.4,5.4,7.7,6,12.1C682.4,485.5,680.2,492.4,675,497.3z"/>
	<path class="st6" d="M675,497.3l-30.4,28.8l-30.8,29.2L382.9,769.7l-0.1,0L342.5,808l-0.1,0.1l-40.4,38.3h0l-33.8,32.1
		c-24.4-16.2-47.1-34.9-67.7-55.5v0l39-39l39.4-39.4l39.4-39.3l143-143L586,437.3l16.4-16.4h0l13.5-13.5h0l13.5,13.5l32.6,32.6
		l13.4,13.4c3.4,3.4,5.4,7.7,6,12.1C682.4,485.5,680.2,492.4,675,497.3z"/>
	<path class="st1" d="M551.2,531.9l-30,30c-16.5,16.5-43.2,16.6-59.8,0.1l-0.1-0.1c-16.6-16.6-16.6-43.5,0-60l30-30
		c16.6-16.6,43.5-16.6,60,0l0.1,0.1C567.8,488.7,567.7,515.5,551.2,531.9z"/>
	<path class="st7" d="M871,422.2c-8.3,8.3-21.7,8.3-30,0L600.9,182.1c-8.3-8.3-8.3-21.7,0-30c8.3-8.3,21.7-8.3,30,0L871,392.2
		C879.3,400.5,879.3,414,871,422.2z"/>
	<polygon class="st7" points="382.9,769.7 342.6,808 278.9,744.4 215,680.6 253.4,640.2 318.3,705.1 	"/>
	<path class="st7" d="M302.2,846.4l-33.8,32l-6.6,6.3l-0.1-0.1l6.6-6.2c-24.4-16.2-47.1-34.9-67.7-55.5v0
		c-20.8-20.8-39.4-43.6-55.7-68.2l31.9-33.6l62.8,62.8l62.5,62.5h0L302.2,846.4z"/>
	<path class="st2" d="M461.3,562l90-90c16.5,16.6,16.4,43.4-0.1,59.9l-30,30C504.6,578.5,477.9,578.5,461.3,562z"/>
	<path class="st8" d="M302.2,846.4l-33.8,32l-6.6,6.3l-0.1-0.1l6.6-6.2c-24.4-16.2-47.1-34.9-67.7-55.5v0l39-39L302.2,846.4z"/>
	<polygon class="st8" points="382.9,769.7 342.6,808 278.9,744.4 318.3,705.1 	"/>
	<path class="st8" d="M871,422.2c-8.3,8.3-21.7,8.3-30,0L721.1,302.3l30-30L871,392.2C879.3,400.5,879.3,414,871,422.2z"/>
</g>
</svg>
