<?xml version="1.0" encoding="utf-8"?>
<!-- Generator: Adobe Illustrator 24.0.0, SVG Export Plug-In . SVG Version: 6.00 Build 0)  -->
<svg version="1.1" id="Capa_1" xmlns="http://www.w3.org/2000/svg" xmlns:xlink="http://www.w3.org/1999/xlink" x="0px" y="0px"
	 viewBox="0 0 1024 1024" style="enable-background:new 0 0 1024 1024;" xml:space="preserve">
<style type="text/css">
	.st0{fill:#F473C3;}
	.st1{fill:#443F80;}
	.st2{fill:#2A286B;}
	.st3{fill:#534A9A;}
	.st4{fill:#F9F7FC;}
	.st5{fill:#DCDAEB;}
	.st6{fill:#F9B630;}
	.st7{fill:#DFD7D5;}
	.st8{fill:#9DD4A9;}
	.st9{fill:#84BFA7;}
	.st10{fill:#C640A6;}
	.st11{fill:#FFD071;}
</style>
<path class="st0" d="M952,512c0,135.6-61.3,256.8-157.7,337.5c-16.3,13.6-33.5,26.1-51.7,37.3C675.5,928.2,596.5,952,512,952
	s-163.5-23.8-230.6-65.2c-19.9-12.2-38.7-26-56.3-41.2C131.4,764.9,72,645.4,72,512C72,269,269,72,512,72
	c160.5,0,301,86,377.8,214.3c18.1,30.3,32.7,62.9,43.2,97.3C945.3,424.3,952,467.3,952,512z"/>
<g>
	<path class="st1" d="M926.8,535.9V381.6h-43.7v154.3H926.8z"/>
	<path class="st2" d="M772.4,535.9l0.4,131h88.4c36.1,0,65.5-29.4,65.5-65.5v-65.5H772.4z"/>
	<g>
		<path class="st3" d="M794.3,239.6v208.9H225.1V239.6l8.7-6.6c5.2-3.9,126-91.4,275.9-91.7h0.7c150.2,0,269.9,87.8,275.1,91.7
			L794.3,239.6z"/>
		<path class="st3" d="M794.3,710.6v138.9c-16.3,13.6-33.5,26.1-51.7,37.3H281.4c-19.9-12.2-38.7-26-56.3-41.2v-135H794.3z"/>
	</g>
	<path class="st4" d="M225.1,448.5h569.2v262H225.1V448.5z"/>
	<path class="st5" d="M510.4,448.5h283.9v262H510.4V448.5z"/>
	<path class="st6" d="M904.9,391.6c-29.6,0-53.7-24.1-53.7-53.7s24.1-53.7,53.7-53.7s53.7,24.1,53.7,53.7S934.5,391.6,904.9,391.6z"
		/>
	<path class="st7" d="M510.4,228.7h109.2v131H510.4V228.7z"/>
	<path class="st8" d="M270.2,492.2h131v174.7h-131V492.2z"/>
	<path class="st8" d="M444.9,492.2h131v174.7h-131L444.9,492.2L444.9,492.2z"/>
	<path class="st9" d="M619.6,492.2h131v174.7h-131V492.2z"/>
	<path class="st9" d="M510.4,492.2h65.5v174.7h-65.5L510.4,492.2L510.4,492.2z"/>
	<path class="st10" d="M663.3,535.9H707v87.3h-43.7V535.9z"/>
	<path class="st0" d="M488.6,535.9h43.7v87.3h-43.7L488.6,535.9L488.6,535.9z"/>
	<path class="st0" d="M313.9,535.9h43.7v87.3h-43.7V535.9z"/>
	<path class="st10" d="M510.4,535.9h21.8v87.3h-21.8L510.4,535.9L510.4,535.9z"/>
	<path class="st1" d="M794.3,239.6v208.9H509.7V141.4h0.7c150.2,0,269.9,87.8,275.1,91.7L794.3,239.6z"/>
	<path class="st1" d="M794.3,710.6v138.9c-16.3,13.6-33.5,26.1-51.7,37.3H509.7V710.6H794.3z"/>
	<rect x="401.2" y="228.7" class="st0" width="218.4" height="131"/>
	<path class="st11" d="M401.2,750h218.4v107.3H401.2V750z"/>
	<path class="st6" d="M510.4,750h109.2v107.3H510.4V750z"/>
	<rect x="509.7" y="228.7" class="st10" width="109.9" height="131"/>
</g>
</svg>
