<?xml version="1.0" encoding="utf-8"?>
<!-- Generator: Adobe Illustrator 24.0.0, SVG Export Plug-In . SVG Version: 6.00 Build 0)  -->
<svg version="1.1" id="Capa_1" xmlns="http://www.w3.org/2000/svg" xmlns:xlink="http://www.w3.org/1999/xlink" x="0px" y="0px"
	 viewBox="0 0 1024 1024" style="enable-background:new 0 0 1024 1024;" xml:space="preserve">
<style type="text/css">
	.st0{fill:#9DD4A9;}
	.st1{fill:#F473C3;}
	.st2{fill:#C640A6;}
	.st3{fill:#FFD071;}
	.st4{fill:#F9A40D;}
	.st5{fill:#534A9A;}
	.st6{fill:#F9B630;}
	.st7{fill:#F7830F;}
	.st8{fill:#443F80;}
	.st9{fill:#F9F7FC;}
	.st10{fill:#DCDAEB;}
</style>
<circle class="st0" cx="512" cy="512" r="440"/>
<g>
	<g>
		<g>
			<g>
				<g>
					<circle class="st1" cx="799.2" cy="112.4" r="20.2"/>
					
						<rect x="813" y="116.9" transform="matrix(0.7071 -0.7071 0.7071 0.7071 145.4471 620.1968)" class="st1" width="16.7" height="35.3"/>
				</g>
				<g>
					<circle class="st1" cx="763.2" cy="148.4" r="20.2"/>
					
						<rect x="777" y="152.9" transform="matrix(0.7071 -0.7071 0.7071 0.7071 109.4332 605.2794)" class="st1" width="16.7" height="35.3"/>
				</g>
				<g>
					<circle class="st2" cx="907.7" cy="238.6" r="20.2"/>
					
						<rect x="877.3" y="198.9" transform="matrix(0.7071 -0.7071 0.7071 0.7071 106.2931 689.6898)" class="st2" width="16.7" height="35.3"/>
				</g>
				<g>
					<circle class="st2" cx="871.7" cy="274.7" r="20.2"/>
					
						<rect x="841.2" y="234.9" transform="matrix(0.7071 -0.7071 0.7071 0.7071 70.237 674.7147)" class="st2" width="16.7" height="35.3"/>
				</g>
			</g>
			<path class="st3" d="M329.1,867.9c-37.5-9.3-74.5-29.3-106.3-61.2c-0.7-0.7-1.4-1.4-2-2c-69.3-71-81.1-167.5-45.5-237.8
				c21.1-41.7,58.8-74.3,111-86.9c0.2-0.1,0.2-0.6,0.1-1.4c-0.6-5.9,5.3-10.3,10.8-8.2c24.5,9.3,74.3,24.1,97.4,1
				c18.5-18.5,24.6-45.7,19.2-73.9c-0.1-0.5-2.2-1.1-5-1.7c-5.5-1.2-6.9-8.4-2.2-11.5c10.6-7,25.2-17.8,37.5-31.4
				c61.9-67.8,155.3-42.2,215.8,16.5c61.9,60,89.4,154.5,13.7,219.1c-12.8,10.9-22.2,23.5-28.2,33.2c-3,4.8-10.2,3.5-11.5-1.9
				c-0.5-2.3-1.1-3.9-1.5-4c-28.3-5.4-55.6,0.7-74.1,19.2c-19.1,19.1-5.5,73.2,2.2,98.2c1.7,5.5-2.8,10.9-8.5,10.3
				c-1.4-0.2-2.3-0.1-2.4,0.2C525.1,844.3,425.5,891.7,329.1,867.9z"/>
			<g>
				<path class="st4" d="M532.7,563.1c-2.5,2.5-6.4,2.5-8.9,0l-28.7-28.7l-28.6-28.6c-2.5-2.5-2.5-6.4,0-8.9L813.6,172l21.9,21.9
					l22.1,22.1L532.7,563.1z"/>
				<path class="st4" d="M367.4,705.1l-113.9,92.4c-5.8,4.7-14.5,4.1-20.1-1.5l0,0c-5.6-5.6-6.2-14.3-1.4-20.1l92.5-113.8
					c2.3-2.9,6.7-3.1,9.3-0.5l34.2,34.2C370.6,698.4,370.3,702.7,367.4,705.1z"/>
			</g>
			<path class="st5" d="M826,265.3l-30.9-30.9l-30.7-30.7c-2.8-2.8-1.6-8.5,2.6-12.2l126.8-98.6c3.7-3.2,8.4-3.8,10.9-1.3l16.6,16.6
				l16.4,16.4c2.5,2.5,1.9,7.2-1.3,10.9l-98.2,127.2C834.5,266.9,828.8,268.1,826,265.3z"/>
			<path class="st6" d="M329.1,867.9c-37.5-9.3-74.5-29.3-106.3-61.2l437.3-437.3c61.9,60,89.4,154.5,13.7,219.1
				c-12.8,10.9-22.2,23.5-28.2,33.2c-3,4.8-10.2,3.5-11.5-1.9c-0.5-2.3-1.1-3.9-1.5-4c-28.3-5.4-55.6,0.7-74.1,19.2
				c-19.1,19.1-5.5,73.2,2.2,98.2c1.7,5.5-2.8,10.9-8.5,10.3c-1.4-0.2-2.3-0.1-2.4,0.2C525.1,844.3,425.5,891.7,329.1,867.9z"/>
			<path class="st7" d="M532.7,563.1c-2.5,2.5-6.4,2.5-8.9,0l-28.7-28.7L835.5,194l22.1,22.1L532.7,563.1z"/>
			<path class="st8" d="M826,265.3l-30.9-30.9l126.2-126.2l16.4,16.4c2.5,2.5,1.9,7.2-1.3,10.9l-98.2,127.2
				C834.5,266.9,828.8,268.1,826,265.3z"/>
			<path class="st1" d="M942.9,157.2l-27.6,27.6c-3.4,3.4-8.5,4.2-12.7,2l-34.9-17.7c-1.6-0.8-2.9-1.9-3.9-3.3
				c-0.3-0.4-0.6-0.8-0.8-1.3l-20-37.3c-2.3-4.3-1.5-9.5,1.9-12.9l27.9-27.9c2.2-2.2,5.3-3.4,8.5-3.2l11.8,0.8
				c2.7,0.2,5.2,1.3,7,3.2l21.1,21.1l21.1,21.1c2,2,3.1,4.6,3.2,7.3L946,149C946.2,152,945.1,155,942.9,157.2z"/>
			<path class="st5" d="M329.1,867.9c-37.5-9.3-74.5-29.3-106.3-61.2c-0.7-0.7-1.4-1.4-2-2c-69.3-71-81.1-167.5-45.5-237.8
				c43.1,22.7,85.6,55.2,89.4,98.7c4.8,55.8-18.9,65.7-32.6,89c-8.2,13.9-11.6,28.1,0.7,42.3c8.3,9.6,23.8,19.2,49.8,28.6
				C309.1,835,322.5,851.7,329.1,867.9z"/>
			<path class="st2" d="M942.9,157.2l-27.6,27.6c-3.4,3.4-8.5,4.2-12.7,2l-34.9-17.7c-1.6-0.8-2.9-1.9-3.9-3.3l57.6-57.6l21.1,21.1
				c2,2,3.1,4.6,3.2,7.3l0.5,12.3C946.2,152,945.1,155,942.9,157.2z"/>
			<path class="st7" d="M367.4,705.1l-113.9,92.4c-5.8,4.7-14.5,4.1-20.1-1.5l0,0l117.4-117.4l17.1,17.1
				C370.6,698.4,370.3,702.7,367.4,705.1z"/>
			<g>
				<path class="st8" d="M459.4,764.4c-2,0-4.1-0.5-5.9-1.6c-8.7-5.1-18.5-18.6-19.3-36c-0.7-14.5,4.6-36.1,33.8-57.1
					c29.5-21.2,24.6-34.5,24.5-34.6c-3.5-5.5-1.8-12.8,3.7-16.3s12.8-1.8,16.3,3.7c0.8,1.2,18.7,30.9-30.7,66.4
					c-16.3,11.7-24.6,24.4-24,36.8c0.4,9.5,5.9,15.7,7.7,16.7c5.6,3.3,7.5,10.5,4.2,16.1C467.4,762.3,463.5,764.4,459.4,764.4z"/>
				<path class="st5" d="M266.3,561c-0.2,2,0.2,4.1,1.1,6.1c4.3,9.1,16.9,20,34.2,22.3c14.4,1.9,36.4-1.5,59.8-28.8
					c23.6-27.6,36.5-21.5,36.6-21.4c5.2,3.9,12.6,2.9,16.5-2.3s2.9-12.6-2.3-16.5c-1.2-0.9-29.2-21.3-68.7,24.9
					c-13.1,15.2-26.4,22.4-38.7,20.8c-9.4-1.3-15.1-7.2-16-9.1c-2.8-5.9-9.8-8.4-15.7-5.6C269.1,553.2,266.7,556.9,266.3,561z"/>
				<path class="st9" d="M453,641.5c-1.5,1.5-3.4,2.2-5.3,2.2s-3.8-0.7-5.3-2.2l-54.3-54.3c-2.9-2.9-2.9-7.6,0-10.6
					c1.5-1.5,3.4-2.2,5.3-2.2s3.8,0.7,5.3,2.2l54.3,54.3C455.9,633.8,455.9,638.5,453,641.5z"/>
				<path class="st10" d="M453,641.5c-1.5,1.5-3.4,2.2-5.3,2.2s-3.8-0.7-5.3-2.2l-27.2-27.2l10.6-10.6l27.2,27.2
					C455.9,633.8,455.9,638.5,453,641.5z"/>
			</g>
			<path class="st8" d="M329.1,867.9c-37.5-9.3-74.5-29.3-106.3-61.2l9.9-9.9c8.3,9.6,23.8,19.2,49.8,28.6
				C309.1,835,322.5,851.7,329.1,867.9z"/>
		</g>
		<g>
			<polygon class="st5" points="524.2,239.2 574.7,238.7 574.7,174.4 524.2,174.4 			"/>
			<g>
				<path class="st4" d="M513.3,858.9c-0.8-0.8-1.4-1.6-2-2.6c-3.2-5.7-1.1-12.9,4.6-16l7.2-4c17.2-9.6,28.8-35.1,28.8-63.5V117.1
					c0-6.5,5.3-11.8,11.8-11.8s11.8,5.3,11.8,11.8v655.7c0,37.2-16.1,70.2-40.9,84.1l-7.2,4C522.6,863.5,516.9,862.6,513.3,858.9z"
					/>
			</g>
			<path class="st9" d="M532.6,159.3v700.4c0,3.5-2.8,6.3-6.3,6.3h-10.6c-3.5,0-6.3-2.8-6.3-6.3V159.3c0-3.5,2.8-6.3,6.3-6.3h10.6
				C529.8,153,532.6,155.9,532.6,159.3z"/>
		</g>
	</g>
</g>
</svg>
