<?xml version="1.0" encoding="utf-8"?>
<!-- Generator: Adobe Illustrator 24.0.0, SVG Export Plug-In . SVG Version: 6.00 Build 0)  -->
<svg version="1.1" id="Capa_1" xmlns="http://www.w3.org/2000/svg" xmlns:xlink="http://www.w3.org/1999/xlink" x="0px" y="0px"
	 viewBox="0 0 1024 1024" style="enable-background:new 0 0 1024 1024;" xml:space="preserve">
<style type="text/css">
	.st0{fill:#534A9A;}
	.st1{fill:#9DD4A9;}
	.st2{fill:#F473C3;}
	.st3{fill:#F8F2F0;}
	.st4{fill:#84BFA7;}
	.st5{fill:#C640A6;}
	.st6{fill-rule:evenodd;clip-rule:evenodd;fill:#F9F7FC;}
	.st7{fill-rule:evenodd;clip-rule:evenodd;fill:#DCDAEB;}
</style>
<path class="st0" d="M952,512c0,243-197,440-440,440c-96.2,0-185.1-30.8-257.5-83.2c-19-13.7-36.8-28.9-53.4-45.5
	c-1.4-1.5-2.9-2.9-4.3-4.4l0,0c-14.4-14.8-27.8-30.5-39.9-47.1c-0.4-0.6-0.8-1.1-1.2-1.7c-6.1-8.4-11.9-17-17.4-25.8l0,0
	c-21.1-33.9-37.8-71-49.1-110.3C78,595.2,72,554.3,72,512C72,269,269,72,512,72c73.5,0,142.8,18,203.7,49.9
	c39.9,20.8,76.2,47.6,107.7,79.2c5.3,5.3,10.5,10.8,15.6,16.4c5,5.6,10,11.3,14.7,17.2l0,0c4.8,5.9,9.4,11.9,13.9,18
	c13.2,18,25,37.1,35.3,57.1C934.3,370.3,952,439.1,952,512z"/>
<g>
	<path class="st1" d="M450.8,669.5l-15.9-16l-16.6-16.7L814.4,242l94.3-94c8.5-8.4,22-8.8,30.9-0.8c0.3,0.2,0.5,0.5,0.8,0.7
		c8.8,8.7,8.9,23,0.1,31.9L846.3,274L450.8,669.5z"/>
	<path class="st1" d="M485.9,634.4c-0.3,2.3-1.4,4.5-3.2,6.2l-52.1,52.2l-55.3,55.4c-33.7,42-70.4,62.5-105.5,70.3
		c-4.2,1-8.5,1.7-12.7,2.3c-0.3,0-0.5,0.1-0.8,0.1c-0.3,0-0.7,0.1-1,0.1c-0.6,0.1-1.2,0.2-1.8,0.2c-1.7,0.2-3.4,0.4-5,0.5
		c-0.6,0-1.2,0.1-1.8,0.1c-0.7,0.1-1.4,0.1-2.1,0.2c-1.7,0.1-3.4,0.2-5,0.2c-0.6,0-1.2,0-1.8,0.1h-0.2c-0.6,0-1.2,0-1.8,0
		c-13.6,0.2-26.6-1.2-38.9-3.5l0,0c-14.4-14.8-27.8-30.5-39.9-47.1c-0.4-0.6-0.8-1.1-1.2-1.7c-6.1-8.4-11.9-17-17.4-25.8l0,0
		c-21.1-33.9-37.8-71-49.1-110.3c3.7-8.8,7.9-16.7,12.1-23.7c12.1-20.1,38.2-26.1,58-13.4l24.2,15.1l127.2,79.3l30.7,19.1l53.6-53.4
		l52-51.8c1.7-1.7,3.9-2.8,6.2-3.1c3.4-0.5,7,0.5,9.7,3.1l10.3,10.1l9.6,9.4C485.3,627.3,486.4,631,485.9,634.4z"/>
	<path class="st2" d="M430.6,692.8l-17.5-17.6L394.9,657l52-51.8c4.4-4.3,11.4-4.4,15.8-0.1l10.3,10.1l9.6,9.4
		c4.5,4.4,4.5,11.6,0.1,16L430.6,692.8z"/>
	<path class="st3" d="M310.6,691.3l-53.5,129.5l0,0c-0.3,0-0.5,0.1-0.8,0.1s-0.7,0.1-1,0.1c-0.6,0.1-1.2,0.2-1.8,0.2
		c-1.7,0.2-3.4,0.4-5,0.5c-0.6,0-1.2,0.1-1.8,0.1c-0.7,0.1-1.4,0.1-2.1,0.2c-1.7,0.1-3.4,0.2-5,0.2c-0.6,0-1.2,0-1.8,0.1h-0.2
		c-0.6,0-1.2,0-1.8,0c-13.6,0.2-26.6-1.2-38.9-3.5l0,0c-14.4-14.8-27.8-30.5-39.9-47.1c-0.4-0.6-0.8-1.1-1.2-1.7
		c-6.1-8.4-11.9-17-17.4-25.8l4.2-12.4l5.6-16.5l0,0l10.1-29.5l5.2-15.1l10.1-29.5l9.9-29.2L310.6,691.3z"/>
	<g>
		<path class="st2" d="M247.5,724.7l-89.3-38.9l-10.1,29.5l86.9,37.9c1.7,0.7,12.9,5.7,20.5-8C259.7,737.7,255.3,728.1,247.5,724.7z
			"/>
		<path class="st2" d="M243.3,670.9l-70-29.8l-10.1,29.5l67.8,28.9c1.7,0.7,14.5,6.3,20.4-8.2C254.8,683.4,251.2,674.3,243.3,670.9z
			"/>
		<path class="st2" d="M215.3,779.8c-5.6,13.4-18.7,8.9-20.4,8.2l-38.1-16.2c-0.4-0.6-0.8-1.1-1.2-1.7c-6.1-8.4-11.9-17-17.4-25.8
			l0,0l4.2-12.4l64.6,27.5C215,762.8,218.6,771.9,215.3,779.8z"/>
	</g>
	<path class="st2" d="M940.4,179.9L846.3,274l-31.9-32l94.3-94c8.5-8.4,22-8.8,30.9-0.8c0.3,0.2,0.5,0.5,0.8,0.7
		C949.1,156.7,949.2,171,940.4,179.9z"/>
	<path class="st4" d="M450.8,669.5l-15.9-16L940.3,148c8.8,8.7,8.9,23,0.1,31.9L846.3,274L450.8,669.5z"/>
	<path class="st5" d="M940.4,179.9L846.3,274l-16-16l110-110C949.1,156.7,949.2,171,940.4,179.9z"/>
	<path class="st4" d="M269.8,818.5L473,615.3l9.6,9.4c4.5,4.4,4.5,11.6,0.1,16L375.3,748.2C341.6,790.2,304.9,810.7,269.8,818.5z"/>
	<path class="st5" d="M430.6,692.8l-17.5-17.6l60-60l9.6,9.4c4.5,4.4,4.5,11.6,0.1,16L430.6,692.8z"/>
</g>
<g>
	<g>
		<path class="st6" d="M351.3,448.1c0,54-44.1,98.2-98.3,98.2c-27.1,0-51.7-11-69.5-28.8s-28.9-42.4-28.9-69.5
			c0-54.1,44.2-98.3,98.3-98.3c27.1,0,51.7,11.1,69.5,28.9C340.2,396.4,351.2,421,351.3,448.1z"/>
	</g>
	<path class="st7" d="M351.3,448.1c0,54-44.1,98.2-98.3,98.2c-27.1,0-51.7-11-69.5-28.8l138.9-138.9
		C340.2,396.4,351.2,421,351.3,448.1z"/>
</g>
</svg>
