<?xml version="1.0" encoding="utf-8"?>
<!-- Generator: Adobe Illustrator 24.0.0, SVG Export Plug-In . SVG Version: 6.00 Build 0)  -->
<svg version="1.1" id="Capa_1" xmlns="http://www.w3.org/2000/svg" xmlns:xlink="http://www.w3.org/1999/xlink" x="0px" y="0px"
	 viewBox="0 0 1024 1024" style="enable-background:new 0 0 1024 1024;" xml:space="preserve">
<style type="text/css">
	.st0{fill:#BAE4FA;}
	.st1{fill:#F9F7FC;}
	.st2{fill:#E61E14;}
	.st3{fill:#DCDAEB;}
	.st4{fill:#767DD4;}
	.st5{fill:#5E6ACA;}
	.st6{fill:#9DD4A9;}
	.st7{fill:#84BFA7;}
	.st8{fill:#534A9A;}
	.st9{fill:#443F80;}
	.st10{fill:#F9B630;}
	.st11{fill:#F9A40D;}
	.st12{fill:#FFD071;}
	.st13{fill:#F473C3;}
	.st14{fill:#C640A6;}
</style>
<circle class="st0" cx="512" cy="512" r="440"/>
<g>
	<g>
		<path class="st1" d="M545.5,126.1c-3.8,0-7.6,0.1-11.4,0.2c-196.8,6-354.5,167.5-354.5,365.7c0,198.3,157.7,359.7,354.5,365.7
			c3.8,0.1,7.6,0.2,11.4,0.2c59.7,0,23.5-42.4,90-110.7c64.2-65.9,275.9-26.8,275.9-255.2C911.4,290,747.5,126.1,545.5,126.1z
			 M465.4,707c-37.9,0-68.6-30.7-68.6-68.6s30.7-68.6,68.6-68.6s68.6,30.7,68.6,68.6S503.3,707,465.4,707z"/>
		<path class="st2" d="M702.2,248.3c-29.4,0-53.2,23.8-53.2,53.2s23.8,53.2,53.2,53.2s53.2-23.8,53.2-53.2
			C755.4,272.1,731.6,248.3,702.2,248.3L702.2,248.3z"/>
		<path class="st3" d="M911.4,492c0,228.5-211.7,189.3-275.9,255.2c-66.5,68.3-30.2,110.7-90,110.7c-3.8,0-7.6-0.1-11.4-0.2V126.3
			c3.8-0.1,7.6-0.2,11.4-0.2C747.5,126.1,911.4,290,911.4,492z"/>
		<g>
			<path class="st4" d="M859.8,354.6l-72.6-40.2l-46.2-69c64-60.4,148.4-119.6,187-84.1S914.6,285.8,859.8,354.6z"/>
			<path class="st5" d="M859.8,354.6l-72.6-40.2L928,161.3C966.5,196.8,914.6,285.8,859.8,354.6z"/>
			<path class="st6" d="M804.4,417.9l-73.6-42.3l-48.3-69.8c18.8-21.7,38.6-42,58.4-60.5c26.7,6,52.6,18.4,74.3,38.4
				s36.3,44.7,44.5,70.9C839.9,379.9,821.9,400.1,804.4,417.9z"/>
			<path class="st7" d="M804.4,417.9l-73.6-42.3l84.5-91.9c21.7,20,36.3,44.7,44.5,70.9C839.9,379.9,821.9,400.1,804.4,417.9z"/>
			<path class="st8" d="M804.4,417.9C757.5,465.8,638.9,573.8,590,528.7c-49-45.1,48.7-172.2,92.6-222.9
				c27.6,6.2,54.1,18.6,76.4,39.2C781.3,365.6,795.9,390.9,804.4,417.9z"/>
			<path class="st9" d="M804.4,417.9C757.5,465.8,638.9,573.8,590,528.7L759,345C781.3,365.6,795.9,390.9,804.4,417.9z"/>
			<path class="st10" d="M557.9,677.3c-0.5-12.3,2.8-24.6,8.8-34.8c21.4-1.2,41.4-10.6,56.3-26.8c31-33.7,28.8-86.6-4.9-117.6
				s-86.6-28.8-117.6,4.9l-14.1,15.3c-34.1,37.1-36.2,92.2-7.8,131.4c4.1,5.4,8.7,10.8,13.9,15.6l67.7,62.2L557.9,677.3z"/>
			<path class="st11" d="M560.3,727.6l-67.7-62.2c-5.2-4.8-9.8-10.2-13.9-15.6l139.4-151.6c33.7,31,35.9,83.9,4.9,117.6
				c-14.9,16.2-34.9,25.6-56.3,26.8c-6,10.3-9.4,22.5-8.8,34.8L560.3,727.6z"/>
		</g>
		<path class="st12" d="M244.5,476c0,29.4,23.8,53.2,53.2,53.2h0.1c29.4,0,53.2-23.9,53.2-53.3s-23.9-53.2-53.3-53.2
			C268.3,422.8,244.5,446.7,244.5,476z"/>
		<ellipse class="st6" cx="369.7" cy="311.2" rx="53.2" ry="53.2"/>
		<path class="st5" d="M771.1,469.2c-33.3,0-60.3,27-60.3,60.3s27,60.3,60.3,60.3s60.3-27,60.3-60.3
			C831.5,496.2,804.4,469.2,771.1,469.2L771.1,469.2z"/>
		<path class="st13" d="M593.2,232.7c0,29.4-23.8,53.2-53.2,53.2c-2,0-4-0.1-6-0.3c-26.6-3-47.3-25.5-47.3-52.9s20.7-49.9,47.3-52.9
			c2-0.2,3.9-0.3,6-0.3C569.4,179.4,593.2,203.3,593.2,232.7z"/>
		<path class="st14" d="M593.2,232.7c0,29.4-23.8,53.2-53.2,53.2c-2,0-4-0.1-6-0.3V179.8c2-0.2,3.9-0.3,6-0.3
			C569.4,179.4,593.2,203.3,593.2,232.7z"/>
	</g>
</g>
</svg>
