<?xml version="1.0" encoding="utf-8"?>
<!-- Generator: Adobe Illustrator 24.0.0, SVG Export Plug-In . SVG Version: 6.00 Build 0)  -->
<svg version="1.1" id="Capa_1" xmlns="http://www.w3.org/2000/svg" xmlns:xlink="http://www.w3.org/1999/xlink" x="0px" y="0px"
	 viewBox="0 0 1024 1024" style="enable-background:new 0 0 1024 1024;" xml:space="preserve">
<style type="text/css">
	.st0{fill:#A5C6FF;}
	.st1{fill:#534A9A;}
	.st2{fill:#9DD4A9;}
	.st3{fill:#FFD071;}
	.st4{fill:#F9B630;}
	.st5{fill:#F9A40D;}
	.st6{fill:#F473C3;}
	.st7{fill:#DD8903;}
	.st8{fill:#C640A6;}
</style>
<circle class="st0" cx="512" cy="512" r="440"/>
<g>
	<path class="st1" d="M952,512c0,58.4-11.3,114-31.9,165c-10.2,25.2-22.6,49.1-37.1,71.7c-4.5,7.1-9.2,14-14.2,20.8
		c-7.6,10.5-15.6,20.6-24,30.4c-1.5,1.7-3,3.4-4.5,5c-8.7,9.7-17.8,19-27.2,28c-0.7,0.7-1.5,1.4-2.2,2.1
		c-39,36.1-84.6,65.3-134.8,85.4C625.3,940.8,570,952,512,952c-90.8,0-175.2-27.5-245.2-74.7c-4.5-3-9-6.2-13.5-9.4
		c-23.3-17-44.9-36.2-64.4-57.3V132.7h546.3c3,1.8,6.1,3.6,9.1,5.5c7.7,4.8,15.2,9.8,22.6,15.1c4.5,3.2,9,6.5,13.4,9.9
		c2.6,2,5.2,4,7.8,6.1c0.2,0.1,0.3,0.3,0.5,0.4c4,3.3,8,6.6,12,10.1c2.3,2,4.6,4,6.9,6.1l0.3,0.3c1.2,1,2.4,2.1,3.5,3.2
		c0.6,0.6,1.2,1.1,1.8,1.7c6.7,6.2,13.1,12.7,19.4,19.3c19.6,20.8,37.2,43.5,52.5,67.9c4,6.3,7.8,12.7,11.4,19.3
		c6.2,11.1,12,22.6,17.3,34.3c0.8,1.9,1.7,3.7,2.5,5.6c0.7,1.7,1.5,3.4,2.2,5.1c3.2,7.5,6.1,15.2,8.8,22.8c4.8,13.7,9,27.7,12.5,42
		C947.7,440.9,952,475.9,952,512z"/>
	<path class="st2" d="M952,512c0,58.4-11.3,114-31.9,165c-10.2,25.2-22.6,49.1-37.1,71.7c-4.5,7.1-9.2,14-14.2,20.8
		c-7.6,10.5-15.6,20.6-24,30.4c-1.5,1.7-3,3.4-4.5,5c-8.7,9.7-17.8,19-27.2,28c-0.7,0.7-1.5,1.4-2.2,2.1
		c-39,36.1-84.6,65.3-134.8,85.4C625.3,940.8,570,952,512,952c-90.8,0-175.2-27.5-245.2-74.7V210.4h565.6
		c19.6,20.8,37.2,43.5,52.5,67.9c4,6.3,7.8,12.7,11.4,19.3c6.2,11.1,12,22.6,17.3,34.3c0.8,1.9,1.7,3.7,2.5,5.6
		c0.7,1.7,1.5,3.4,2.2,5.1c3.2,7.5,6.1,15.2,8.8,22.8c4.8,13.7,9,27.7,12.5,42C947.7,440.9,952,475.9,952,512z"/>
</g>
<g>
	<path class="st3" d="M870.4,552c0,130.8-105.9,236.8-236.7,236.9h-0.2c-130.9,0-236.9-106.1-236.9-236.9v-0.1
		c0-130.8,106.1-236.9,237-236.9h0.2C764.4,315.2,870.4,421.2,870.4,552z"/>
	<path class="st4" d="M870.4,552c0,130.8-105.9,236.8-236.7,236.9V315C764.4,315.2,870.4,421.2,870.4,552z"/>
	<path class="st5" d="M633.7,291.5h-0.2C489.7,291.5,373,408.2,373,552s116.7,260.5,260.5,260.5h0.2
		c143.7-0.1,260.2-116.8,260.2-260.5S777.3,291.6,633.7,291.5z M633.7,778.6h-0.2c-124.8,0-226.6-101.8-226.6-226.7
		c0-124.8,101.8-226.6,226.6-226.6h0.2c125.1,0.1,226.4,101.9,226.4,226.6C860.1,676.7,758.4,778.5,633.7,778.6z"/>
	<path class="st5" d="M633.7,369.6h-0.2c-100.6,0-182.3,81.7-182.3,182.3s81.7,182.3,182.3,182.3h0.2
		c100.5-0.1,182.1-81.8,182.1-182.3C815.8,451.4,734.2,369.8,633.7,369.6z M633.7,710.6h-0.2c-87.4,0-158.7-71.3-158.7-158.7
		s71.3-158.6,158.7-158.6h0.2c87.5,0.1,158.4,71.4,158.4,158.6C792.1,639.3,720.9,710.5,633.7,710.6z"/>
	<g>
		<path class="st6" d="M717,456.6H550.1c-6.6,0-11.8,5.2-11.8,11.8c0,6.6,5.2,11.8,11.8,11.8H717c6.6,0,11.8-5.2,11.8-11.8
			C728.9,461.8,723.6,456.6,717,456.6z M740.2,607.4H526.9c-6.6,0-11.8,5.2-11.8,11.8s5.2,11.8,11.8,11.8h213.4
			c6.6,0,11.8-5.2,11.8-11.8C752.1,612.6,746.9,607.4,740.2,607.4z"/>
		<path class="st6" d="M670.8,492.3h-74.4c-28.9,0-52.3,23.4-52.3,52.3c0,28.9,23.4,52.3,52.3,52.3h74.1c28.9,0,52.3-23.7,52.6-52.3
			C723.2,515.8,699.7,492.3,670.8,492.3z M670.8,573h-74.4c-15.9,0-28.7-12.8-28.7-28.7s12.8-28.6,28.7-28.6h74.4
			c15.9,0,28.7,12.8,28.7,28.6C699.5,560.3,686.7,573,670.8,573z"/>
		<path class="st6" d="M682.7,544.4c0,6.6-5.4,11.8-12.1,11.8h-74.1c-6.6,0-11.8-5.2-11.8-11.8s5.2-11.8,11.8-11.8h74.4
			C677.5,532.6,682.7,537.8,682.7,544.4z"/>
		<path class="st6" d="M645.3,438.3v227.3c0,6.6-5.1,11.7-11.6,11.8h-0.2c-6.6,0-11.8-5.2-11.8-11.8V438.3c0-6.6,5.2-11.8,11.8-11.8
			h0.2C640.2,426.6,645.3,431.8,645.3,438.3z"/>
	</g>
	<path class="st7" d="M893.9,552c0,143.7-116.6,260.4-260.2,260.5v-33.8c124.7-0.1,226.4-101.9,226.4-226.7
		c0-124.7-101.4-226.5-226.4-226.6v-33.8C777.3,291.6,893.9,408.3,893.9,552z"/>
	<path class="st7" d="M815.8,552c0,100.6-81.6,182.2-182.1,182.3v-23.7c87.3-0.1,158.4-71.4,158.4-158.7s-70.9-158.5-158.4-158.6
		v-23.7C734.2,369.8,815.8,451.4,815.8,552z"/>
	<path class="st8" d="M740.2,607.4h-95V597h25.3c28.9,0,52.3-23.7,52.6-52.3c0-28.9-23.4-52.3-52.3-52.3h-25.6v-12.1H717
		c6.6,0,11.8-5.2,11.8-11.8c0-6.6-5.2-11.8-11.8-11.8h-71.8v-18.2c0-6.6-5.1-11.7-11.6-11.8v251c6.5-0.1,11.6-5.3,11.6-11.8v-34.6
		h95c6.6,0,11.8-5.2,11.8-11.8C752.1,612.6,746.9,607.4,740.2,607.4z M645.3,556.2h25.3c6.6,0,12.1-5.2,12.1-11.8
		s-5.2-11.8-11.8-11.8h-25.6v-16.8h25.6c15.9,0,28.7,12.8,28.7,28.6c0,15.9-12.8,28.7-28.7,28.7h-25.6V556.2z"/>
</g>
</svg>
