<?xml version="1.0" encoding="utf-8"?>
<!-- Generator: Adobe Illustrator 24.0.0, SVG Export Plug-In . SVG Version: 6.00 Build 0)  -->
<svg version="1.1" id="Capa_1" xmlns="http://www.w3.org/2000/svg" xmlns:xlink="http://www.w3.org/1999/xlink" x="0px" y="0px"
	 viewBox="0 0 1024 1024" style="enable-background:new 0 0 1024 1024;" xml:space="preserve">
<style type="text/css">
	.st0{fill:#9DD4A9;}
	.st1{fill:#534A9A;}
	.st2{fill:#FFD071;}
	.st3{fill:#443F80;}
	.st4{fill:#F9B630;}
	.st5{fill:#F9F7FC;}
	.st6{fill:#DCDAEB;}
	.st7{fill:#767DD4;}
	.st8{fill:#5E6ACA;}
	.st9{fill:#F473C3;}
	.st10{fill:#C640A6;}
	.st11{fill:#84BFA7;}
	.st12{fill:#F9A40D;}
	.st13{fill:#BAE4FA;}
	.st14{fill:#A5C6FF;}
</style>
<g>
	<path class="st0" d="M952,512c0,127.7-54.4,242.6-141.2,323c-39,36.1-84.6,65.3-134.8,85.4C625.3,940.8,570,952,512,952
		C269,952,72,755,72,512c0-57.8,11.2-113,31.4-163.6c15.4-38.4,36-74.2,61.1-106.3c26.4-33.9,57.6-63.8,92.6-88.8
		c22.7-16.1,46.9-30.2,72.5-41.8C385.1,86.1,446.9,72,512,72c27.3,0,54,2.5,79.9,7.2c123.3,22.6,228.7,96.6,293,199
		c24.7,39.3,43.3,82.7,54.6,129.1C947.7,440.9,952,475.9,952,512z"/>
</g>
<g>
	<g>
		<g>
			<path class="st1" d="M837.8,201.4l-15.4,15.4L756.6,159l-8-7c-7.7-6.7-8-18.5-0.8-25.7c6.9-6.9,18.1-6.8,25,0
				c0.3,0.3,0.6,0.6,0.9,0.9l6.8,7.9L837.8,201.4z"/>
			<path class="st2" d="M780.5,135.1L756.6,159l-8-7c-7.7-6.7-8-18.5-0.8-25.7c6.9-6.9,18.1-6.8,25,0c0.3,0.3,0.6,0.6,0.9,0.9
				L780.5,135.1z"/>
		</g>
		<g>
			<path class="st1" d="M791.2,248l-15.4,15.4L710,205.6l-8-7c-7.7-6.7-8-18.5-0.8-25.7c6.9-6.9,18.1-6.8,25,0
				c0.3,0.3,0.6,0.6,0.9,0.9l6.8,7.9L791.2,248z"/>
			<path class="st2" d="M733.9,181.7L710,205.6l-8-7c-7.7-6.7-8-18.5-0.8-25.7c6.9-6.9,18.1-6.8,25,0c0.3,0.3,0.6,0.6,0.9,0.9
				L733.9,181.7z"/>
		</g>
		<g>
			<path class="st3" d="M845.9,163l-15.4,15.4l57.8,65.7l7,8c6.7,7.7,18.5,8,25.7,0.8c6.9-6.9,6.8-18.1,0-25
				c-0.3-0.3-0.6-0.6-0.9-0.9l-7.9-6.8L845.9,163z"/>
			<path class="st4" d="M912.2,220.2l-23.9,23.9l7,8c6.7,7.7,18.5,8,25.7,0.8c6.9-6.9,6.8-18.1,0-25c-0.3-0.3-0.6-0.6-0.9-0.9
				L912.2,220.2z"/>
		</g>
		<g>
			<path class="st3" d="M799.3,209.5L783.9,225l57.8,65.7l7,8c6.7,7.7,18.5,8,25.7,0.8c6.9-6.9,6.8-18.1,0-25
				c-0.3-0.3-0.6-0.6-0.9-0.9l-7.9-6.8L799.3,209.5z"/>
			<path class="st4" d="M865.6,266.8l-23.9,23.9l7,8c6.7,7.7,18.5,8,25.7,0.8c6.9-6.9,6.8-18.1,0-25c-0.3-0.3-0.6-0.6-0.9-0.9
				L865.6,266.8z"/>
		</g>
	</g>
	<g>
		<path class="st5" d="M477.6,784.5c-130.9,130.9-223,32.5-246.8,8.7s-122.2-115.9,8.7-246.8s396-157.9,562.6-324.6
			C635.5,388.5,608.5,653.5,477.6,784.5z"/>
		<path class="st6" d="M477.6,784.5c-130.9,130.9-223,32.5-246.8,8.7l571.4-571.4C635.5,388.5,608.5,653.5,477.6,784.5z"/>
	</g>
	<path class="st7" d="M642.4,533.2c42.2-105,85.7-213.6,171.6-299.5l71.4-71.4c6.6-6.6,6.6-17.2,0-23.8l0,0
		c-6.6-6.6-17.2-6.6-23.8,0l-71.4,71.4c-85.9,85.9-194.5,129.5-299.5,171.6c-94.7,38-199.2,89-263.1,152.9
		C77.2,684.8,205.5,791.6,218.9,805c13.4,13.4,120.2,141.7,270.6-8.7C553.5,732.4,604.4,627.9,642.4,533.2z M242.7,781.3
		c-17.9-17.9-115.9-98.4,8.7-223c59.1-59.1,160.5-108.8,251.9-145.5c31.1-12.5,62.6-25.2,93.7-39l53.1,53.1
		c-13.8,31.2-26.5,62.6-39,93.7c-36.7,91.4-86.4,192.8-145.5,251.9C341.1,897.2,260.6,799.2,242.7,781.3z"/>
	<path class="st8" d="M489.5,796.4c-150.4,150.4-257.2,22.1-270.6,8.7l23.8-23.8c17.9,17.9,98.4,115.9,223-8.7
		c59.1-59.1,108.8-160.5,145.5-251.9c12.5-31.1,25.2-62.6,39-93.7l-26.6-26.6l261.9-261.9l0,0c6.6,6.6,6.6,17.2,0,23.8l-71.4,71.4
		c-85.9,85.9-129.5,194.5-171.6,299.5C604.4,627.9,553.5,732.4,489.5,796.4z"/>
	<path class="st1" d="M916.1,169.1L916.1,169.1c-16.9,16.9-44.4,16.9-61.3,0l0,0c-16.9-16.9-16.9-44.3,0-61.2l0,0
		c16.9-16.9,44.3-16.9,61.2,0l0,0C933,124.8,933,152.2,916.1,169.1z"/>
	<path class="st3" d="M916.1,169.1L916.1,169.1c-16.9,16.9-44.4,16.9-61.3,0l61.3-61.3l0,0C933,124.8,933,152.2,916.1,169.1z"/>
	<path class="st2" d="M466.9,628.5l-56.3-56.3c-6.6-6.6-17.2-6.6-23.8,0c-6.6,6.6-6.6,17.2,0,23.8l56.3,56.3
		c6.6,6.6,17.2,6.6,23.8,0C473.5,645.7,473.5,635.1,466.9,628.5z M516.5,578.9l-56.3-56.3c-6.6-6.6-17.2-6.6-23.8,0
		c-6.6,6.6-6.6,17.2,0,23.8l56.3,56.3c6.6,6.6,17.2,6.6,23.8,0C523.1,596.2,523.1,585.5,516.5,578.9z M718.8,305.2
		c-6.6-6.6-17.2-6.6-23.8,0s-6.6,17.2,0,23.8c6.6,6.6,17.2,6.6,23.8,0C725.4,322.4,725.4,311.7,718.8,305.2z M564.1,531.3
		l-71.4-71.4c-6.6-6.6-17.2-6.6-23.8,0c-6.6,6.6-6.6,17.2,0,23.8l71.4,71.4c6.6,6.6,17.2,6.6,23.8,0
		C570.7,548.6,570.7,537.9,564.1,531.3z M685.4,366.9l-28.3-28.3l0,0c-6.6-6.6-17.2-6.6-23.8,0l0,0c-6.6,6.6-6.6,17.2,0,23.8
		l28.3,28.3l0,0c3.3,3.3,7.6,4.9,11.9,4.9c4.3,0,8.6-1.7,11.9-4.9C692,384.2,692,373.5,685.4,366.9z M659.3,436.1l-71.4-71.4
		c-6.6-6.6-17.2-6.6-23.8,0s-6.6,17.2,0,23.8l71.4,71.4c6.6,6.6,17.2,6.6,23.8,0C665.9,453.3,665.9,442.7,659.3,436.1z M611.7,483.7
		l-71.4-71.4c-6.6-6.6-17.2-6.6-23.8,0c-6.6,6.6-6.6,17.2,0,23.8l71.4,71.4c6.6,6.6,17.2,6.6,23.8,0
		C618.3,500.9,618.3,490.3,611.7,483.7z"/>
	<path class="st0" d="M909.3,162.3L909.3,162.3c-13.2,13.2-34.5,13.2-47.6,0l0,0c-13.1-13.2-13.1-34.5,0-47.6l0,0
		c13.2-13.1,34.5-13.1,47.6,0l0,0C922.5,127.9,922.5,149.2,909.3,162.3z"/>
	<g>
		<path class="st9" d="M343.8,748.5l-9.3,9.3l-68.3-68.3l9.3-9.3c2.8-2.8,7.2-2.8,10,0l58.4,58.4
			C346.5,741.3,346.5,745.8,343.8,748.5z"/>
		<path class="st9" d="M338.9,769.2l-7.4,7.4c-1.9,1.9-5,1.9-6.9,0l-77.3-77.3c-1.9-1.9-1.9-5,0-6.9l7.4-7.4c1.9-1.9,5-1.9,6.9,0
			l77.3,77.3C340.8,764.2,340.8,767.3,338.9,769.2z"/>
	</g>
	<path class="st10" d="M338.9,769.2l-7.4,7.4c-1.9,1.9-5,1.9-6.9,0L286,738l28.6-28.6l29.2,29.2c2.8,2.8,2.8,7.2,0,10l-9.3,9.3
		l4.5,4.5C340.8,764.2,340.8,767.3,338.9,769.2z"/>
	<path class="st11" d="M909.3,162.3L909.3,162.3c-13.2,13.2-34.5,13.2-47.6,0l47.6-47.6l0,0C922.5,127.9,922.5,149.2,909.3,162.3z"
		/>
	<g>
		<path class="st12" d="M695,329l23.8-23.8c6.6,6.6,6.6,17.2,0,23.8C712.3,335.5,701.6,335.5,695,329z"/>
		<path class="st12" d="M661.6,390.7l-14.2-14.2l23.8-23.8l14.2,14.2c6.6,6.6,6.6,17.2,0,23.8c-3.3,3.3-7.6,4.9-11.9,4.9
			C669.2,395.7,664.9,394,661.6,390.7L661.6,390.7z"/>
		<path class="st12" d="M466.9,652.3c-6.6,6.6-17.2,6.6-23.8,0l-35.7-35.7l23.8-23.8l35.7,35.7C473.5,635.1,473.5,645.7,466.9,652.3
			z"/>
		<path class="st12" d="M516.5,602.7c-6.6,6.6-17.2,6.6-23.8,0L457,567l23.8-23.8l35.7,35.7C523.1,585.5,523.1,596.2,516.5,602.7z"
			/>
		<path class="st12" d="M564.1,555.1c-6.6,6.6-17.2,6.6-23.8,0l-35.7-35.7l23.8-23.8l35.7,35.7C570.7,537.9,570.7,548.6,564.1,555.1
			z"/>
		<path class="st12" d="M611.7,507.5c-6.6,6.6-17.2,6.6-23.8,0l-35.7-35.7L576,448l35.7,35.7C618.3,490.3,618.3,500.9,611.7,507.5z"
			/>
		<path class="st12" d="M635.5,459.9l-35.7-35.7l23.8-23.8l35.7,35.7c6.6,6.6,6.6,17.2,0,23.8C652.8,466.5,642.1,466.5,635.5,459.9z
			"/>
	</g>
	<g>
		<path class="st13" d="M282.1,698.7c-2.1-2.1-2.1-5.5,0-7.5L634,339.3c2.1-2.1,5.5-2.1,7.5,0s2.1,5.5,0,7.5L289.7,698.7
			C287.6,700.8,284.2,700.8,282.1,698.7z"/>
		<path class="st13" d="M296.5,713.1c-2.1-2.1-2.1-5.5,0-7.5l351.9-351.9c2.1-2.1,5.5-2.1,7.5,0c2.1,2.1,2.1,5.5,0,7.5L304,713.1
			C302,715.2,298.6,715.2,296.5,713.1z"/>
		<path class="st14" d="M310.9,727.5c-2.1-2.1-2.1-5.5,0-7.5l351.9-351.9c2.1-2.1,5.5-2.1,7.5,0c2.1,2.1,2.1,5.5,0,7.5L318.4,727.5
			C316.3,729.6,313,729.6,310.9,727.5z"/>
		<path class="st14" d="M325.3,741.9c-2.1-2.1-2.1-5.5,0-7.5l351.9-351.9c2.1-2.1,5.5-2.1,7.5,0c2.1,2.1,2.1,5.5,0,7.5L332.8,741.9
			C330.7,744,327.3,744,325.3,741.9z"/>
	</g>
</g>
</svg>
