<?xml version="1.0" encoding="utf-8"?>
<!-- Generator: Adobe Illustrator 24.0.0, SVG Export Plug-In . SVG Version: 6.00 Build 0)  -->
<svg version="1.1" id="Capa_1" xmlns="http://www.w3.org/2000/svg" xmlns:xlink="http://www.w3.org/1999/xlink" x="0px" y="0px"
	 viewBox="0 0 1024 1024" style="enable-background:new 0 0 1024 1024;" xml:space="preserve">
<style type="text/css">
	.st0{fill:#9DD4A9;}
	.st1{fill:#534A9A;}
	.st2{fill:#BAE4FA;}
	.st3{fill:#F9B630;}
	.st4{fill:#F9A40D;}
	.st5{fill:#F473C3;}
	.st6{fill:#C640A6;}
</style>
<circle class="st0" cx="512" cy="512" r="440"/>
<g>
	<path class="st1" d="M952,512c0,58.4-11.3,114-31.9,165c-10.2,25.2-22.6,49.1-37.1,71.7c-4.5,7.1-9.2,14-14.2,20.8
		c-7.6,10.5-15.6,20.6-24,30.4c-1.5,1.7-3,3.4-4.5,5c-8.7,9.7-17.8,19-27.2,28c-0.7,0.7-1.5,1.4-2.2,2.1
		c-39,36.1-84.6,65.3-134.8,85.4C625.3,940.8,570,952,512,952c-90.8,0-175.2-27.5-245.2-74.7c-4.5-3-9-6.2-13.5-9.4
		c-23.3-17-44.9-36.2-64.4-57.3V132.7h546.3c3,1.8,6.1,3.6,9.1,5.5c7.7,4.8,15.2,9.8,22.6,15.1c4.5,3.2,9,6.5,13.4,9.9
		c2.6,2,5.2,4,7.8,6.1c0.2,0.1,0.3,0.3,0.5,0.4c4,3.3,8,6.6,12,10.1c2.3,2,4.6,4,6.9,6.1l0.3,0.3c1.2,1,2.4,2.1,3.5,3.2
		c0.6,0.6,1.2,1.1,1.8,1.7c6.7,6.2,13.1,12.7,19.4,19.3c19.6,20.8,37.2,43.5,52.5,67.9c4,6.3,7.8,12.7,11.4,19.3
		c6.2,11.1,12,22.6,17.3,34.3c0.8,1.9,1.7,3.7,2.5,5.6c0.7,1.7,1.5,3.4,2.2,5.1c3.2,7.5,6.1,15.2,8.8,22.8c4.8,13.7,9,27.7,12.5,42
		C947.7,440.9,952,475.9,952,512z"/>
	<path class="st2" d="M952,512c0,58.4-11.3,114-31.9,165c-10.2,25.2-22.6,49.1-37.1,71.7c-4.5,7.1-9.2,14-14.2,20.8
		c-7.6,10.5-15.6,20.6-24,30.4c-1.5,1.7-3,3.4-4.5,5c-8.7,9.7-17.8,19-27.2,28c-0.7,0.7-1.5,1.4-2.2,2.1
		c-39,36.1-84.6,65.3-134.8,85.4C625.3,940.8,570,952,512,952c-90.8,0-175.2-27.5-245.2-74.7V210.4h565.6
		c19.6,20.8,37.2,43.5,52.5,67.9c4,6.3,7.8,12.7,11.4,19.3c6.2,11.1,12,22.6,17.3,34.3c0.8,1.9,1.7,3.7,2.5,5.6
		c0.7,1.7,1.5,3.4,2.2,5.1c3.2,7.5,6.1,15.2,8.8,22.8c4.8,13.7,9,27.7,12.5,42C947.7,440.9,952,475.9,952,512z"/>
</g>
<g>
	<path class="st3" d="M919.5,472.1c0,10.1-0.5,20.1-1.4,29.9c-6.2,64.6-32.5,123.2-72.4,169.8c-0.8,0.9-1.5,1.8-2.3,2.7
		c-8.8,10-18.3,19.5-28.3,28.3c-47.6,41.8-108.1,69.1-174.9,75c-9.1,0.8-18.2,1.2-27.5,1.2c-4.3,0-8.5-0.1-12.8-0.3
		c-37-1.5-72.3-9.6-104.8-23.1c-31.1-13-59.7-30.9-84.7-52.8c-4-3.5-8-7.2-11.8-10.9c0-0.1-0.1-0.1-0.2-0.2l-2.6-2.6
		c-4.7-4.7-9.3-9.6-13.7-14.6c-0.8-0.9-1.5-1.8-2.3-2.7c-43.9-51.2-71.2-117.1-73.6-189.3c-0.1-3.5-0.2-6.9-0.2-10.4
		c0-10.1,0.5-20,1.4-29.9c2.6-27.4,8.9-53.7,18.2-78.5c12.7-33.7,31.2-64.5,54.2-91.4c0.8-0.9,1.5-1.8,2.3-2.7
		c8.8-10,18.3-19.5,28.3-28.3c47.6-41.7,108.1-69,174.9-74.9c9-0.8,18.2-1.2,27.4-1.2c4.3,0,8.6,0.1,12.9,0.3
		c72.5,3,138.5,31.1,189.5,75.9c5,4.4,9.9,9,14.6,13.7l2.6,2.6c0.1,0,0.1,0.1,0.2,0.2c3.7,3.8,7.3,7.9,10.8,11.9
		c0.8,0.9,1.5,1.8,2.3,2.7l0.1-0.1c23,26.8,41.5,57.7,54.2,91.4c11.5,30.6,18.3,63.5,19.5,97.9C919.4,465.1,919.5,468.6,919.5,472.1
		z"/>
	<path class="st4" d="M919.5,472.1c0,10.1-0.5,20.1-1.4,29.9c-6.2,64.6-32.5,123.2-72.4,169.8c-0.8,0.9-1.5,1.8-2.3,2.7
		c-8.8,10-18.3,19.5-28.3,28.3c-47.6,41.8-108.1,69.1-174.9,75c-9.1,0.8-18.2,1.2-27.5,1.2c-4.3,0-8.5-0.1-12.8-0.3
		c-37-1.5-72.3-9.6-104.8-23.1c-31.1-13-59.7-30.9-84.7-52.8c-4-3.5-8-7.2-11.8-10.9L832.5,258c3.7,3.8,7.3,7.9,10.8,11.9
		c0.8,0.9,1.5,1.8,2.3,2.7l0.1-0.1c23,26.8,41.5,57.7,54.2,91.4c11.5,30.6,18.3,63.5,19.5,97.9C919.4,465.1,919.5,468.6,919.5,472.1
		z"/>
	<path class="st5" d="M918,502c-63.9,6.4-123.7,32.3-172.4,74.7l97.7,97.7c-8.8,10.1-18.3,19.5-28.3,28.3l-97.9-97.9
		c-43.3,48.6-70,108.6-77,172.9c-9,0.8-18.2,1.2-27.5,1.2c-4.3,0-8.6-0.1-12.8-0.3c3.4-35.7,12.1-70.4,26.1-103.5
		c15.4-36.4,36.5-69.5,62.9-98.7l-76.1-76.1L410.4,702.7c-4-3.5-8-7.1-11.8-10.9c-0.1-0.1-0.1-0.2-0.2-0.2l-2.6-2.6c0,0,0,0-0.1-0.1
		c-4.7-4.7-9.3-9.6-13.6-14.5L584.5,472l-76.3-76.3c-28.5,25.3-60.6,45.5-95.8,60.4c-34,14.3-69.6,23.2-106.2,26.3
		c-0.1-3.4-0.2-6.9-0.2-10.4c0-10.1,0.5-20.1,1.4-29.9c63.9-6.4,123.7-32.3,172.4-74.7l-97.7-97.7c8.8-10.1,18.3-19.5,28.3-28.3
		l97.9,97.9c43.3-48.6,70-108.5,77-172.8c9-0.8,18.2-1.2,27.4-1.2c4.4,0,8.6,0.1,12.9,0.3c-3.4,35.6-12.1,70.3-26.1,103.4
		c-15.4,36.4-36.5,69.5-62.9,98.7l76.1,76.1L815,241.5c5,4.4,9.8,9,14.5,13.6c0,0,0,0,0.1,0.1l2.6,2.6c0.1,0.1,0.2,0.2,0.2,0.2
		c3.7,3.8,7.3,7.8,10.8,11.9L641,472.1l76.3,76.3c28.5-25.2,60.7-45.5,95.8-60.4c34-14.3,69.6-23.2,106.2-26.3
		c0.1,3.4,0.2,6.9,0.2,10.4C919.5,482.2,919,492.1,918,502z"/>
	<path class="st6" d="M918,502c-63.9,6.4-123.7,32.3-172.4,74.7l97.7,97.7c-8.8,10.1-18.3,19.5-28.3,28.3l-97.9-97.9
		c-43.3,48.6-70,108.6-77,172.9c-9,0.8-18.2,1.2-27.5,1.2c-4.3,0-8.6-0.1-12.8-0.3c3.4-35.7,12.1-70.4,26.1-103.5
		c15.4-36.4,36.5-69.5,62.9-98.7l-76.1-76.1L410.4,702.7c-4-3.5-8-7.1-11.8-10.9c-0.1-0.1-0.1-0.2-0.2-0.2l-2.6-2.6c0,0,0,0-0.1-0.1
		l433.8-433.8c0,0,0,0,0.1,0.1l2.6,2.6c0.1,0.1,0.2,0.2,0.2,0.2c3.7,3.8,7.3,7.8,10.8,11.9L641,472.1l76.3,76.3
		c28.5-25.2,60.7-45.5,95.8-60.4c34-14.3,69.6-23.2,106.2-26.3c0.1,3.4,0.2,6.9,0.2,10.4C919.5,482.2,919,492.1,918,502z"/>
</g>
</svg>
