<?xml version="1.0" encoding="utf-8"?>
<!-- Generator: Adobe Illustrator 24.0.0, SVG Export Plug-In . SVG Version: 6.00 Build 0)  -->
<svg version="1.1" id="Capa_1" xmlns="http://www.w3.org/2000/svg" xmlns:xlink="http://www.w3.org/1999/xlink" x="0px" y="0px"
	 viewBox="0 0 1024 1024" style="enable-background:new 0 0 1024 1024;" xml:space="preserve">
<style type="text/css">
	.st0{fill:#534A9A;}
	.st1{fill:#F473C3;}
	.st2{fill:#C640A6;}
	.st3{fill:#F9B630;}
	.st4{fill:#F9A40D;}
	.st5{fill:#F9F7FC;}
	.st6{fill:#DCDAEB;}
	.st7{fill:#9DD4A9;}
</style>
<circle class="st0" cx="512" cy="512" r="440"/>
<g>
	<g>
		<path class="st1" d="M811.2,162.3v672.4c-0.1,0.1-0.2,0.2-0.3,0.3c-39,36.1-84.6,65.3-134.8,85.4C625.3,940.8,570,952,512,952
			c-68.3,0-132.9-15.5-190.6-43.3c-11.5-5.5-22.7-11.5-33.6-18c-6.5-3.8-12.9-7.9-19.2-12.1l-0.1-0.1c-19.7-13.2-38.4-27.9-55.7-44
			V162.3c0-7.3,1.7-14.1,4.6-20.3c0.3-0.7,0.7-1.4,1-2c0.7-1.3,1.5-2.6,2.3-3.8c8.4-12.4,22.6-20.6,38.7-20.6h505
			c16.1,0,30.3,8.2,38.7,20.6c0.8,1.2,1.6,2.5,2.3,3.8c0.3,0.7,0.7,1.3,1,2C809.5,148.1,811.2,155,811.2,162.3z"/>
		<path class="st2" d="M811.2,162.3v672.4c-0.1,0.1-0.2,0.2-0.3,0.3c-39,36.1-84.6,65.3-134.8,85.4C625.3,940.8,570,952,512,952
			V115.5h252.5c16.1,0,30.3,8.2,38.7,20.6c0.8,1.2,1.6,2.5,2.3,3.8c0.3,0.7,0.7,1.3,1,2C809.5,148.1,811.2,155,811.2,162.3z"/>
		<path class="st3" d="M748.2,217.9v299.2c0,21.8-17.6,39.4-39.4,39.4H315.2c-21.7,0-39.4-17.6-39.4-39.4V217.9
			c0-21.8,17.6-39.4,39.4-39.4h393.7C730.6,178.5,748.2,196.1,748.2,217.9z"/>
		<path class="st4" d="M748.2,217.9v299.2c0,21.8-17.6,39.4-39.4,39.4H512v-378h196.8C730.6,178.5,748.2,196.1,748.2,217.9z"/>
		<rect x="338.8" y="241.5" class="st5" width="346.5" height="252"/>
		<path class="st5" d="M461.6,682.5h-44.1v-44.1c0-10.5-8.5-18.9-18.9-18.9h-25.1c-10.5,0-18.9,8.5-18.9,18.9v44.1h-44.1
			c-10.5,0-18.9,8.5-18.9,18.9v25.1c0,10.5,8.5,18.9,18.9,18.9h44.1v44.1c0,10.5,8.5,18.9,18.9,18.9h25.1c10.5,0,18.9-8.5,18.9-18.9
			v-44.1h44.1c10.5,0,18.9-8.5,18.9-18.9v-25.1C480.5,691,472,682.5,461.6,682.5z"/>
		<circle class="st3" cx="685.2" cy="713.9" r="47.2"/>
		<circle class="st3" cx="575" cy="824.2" r="47.2"/>
		<rect x="512" y="241.5" class="st6" width="173.2" height="252"/>
	</g>
	<path class="st0" d="M369,488.2h-16.1c-5.2,0-9.4-4.2-9.4-9.4v-16.1c0-5.2,4.2-9.4,9.4-9.4H369c5.2,0,9.4,4.2,9.4,9.4v16.1
		C378.4,484,374.2,488.2,369,488.2z"/>
	<path class="st0" d="M404,488.2h-16.1c-5.2,0-9.4-4.2-9.4-9.4v-16.1c0-5.2,4.2-9.4,9.4-9.4H404c5.2,0,9.4,4.2,9.4,9.4v16.1
		C413.4,484,409.2,488.2,404,488.2z"/>
	<path class="st0" d="M439,488.2h-16.1c-5.2,0-9.4-4.2-9.4-9.4v-16.1c0-5.2,4.2-9.4,9.4-9.4H439c5.2,0,9.4,4.2,9.4,9.4v16.1
		C448.4,484,444.2,488.2,439,488.2z"/>
	<path class="st0" d="M473.9,488.2h-16.1c-5.2,0-9.4-4.2-9.4-9.4v-16.1c0-5.2,4.2-9.4,9.4-9.4h16.1c5.2,0,9.4,4.2,9.4,9.4v16.1
		C483.3,484,479.1,488.2,473.9,488.2z"/>
	<path class="st2" d="M543.8,488.2h-16.1c-5.2,0-9.4-4.2-9.4-9.4v-16.1c0-5.2,4.2-9.4,9.4-9.4h16.1c5.2,0,9.4,4.2,9.4,9.4v16.1
		C553.3,484,549,488.2,543.8,488.2z"/>
	<path class="st2" d="M578.8,488.2h-16.1c-5.2,0-9.4-4.2-9.4-9.4v-16.1c0-5.2,4.2-9.4,9.4-9.4h16.1c5.2,0,9.4,4.2,9.4,9.4v16.1
		C588.2,484,584,488.2,578.8,488.2z"/>
	<path class="st2" d="M578.8,453.3h-16.1c-5.2,0-9.4-4.2-9.4-9.4v-16.1c0-5.2,4.2-9.4,9.4-9.4h16.1c5.2,0,9.4,4.2,9.4,9.4v16.1
		C588.2,449.1,584,453.3,578.8,453.3z"/>
	<path class="st7" d="M518.3,344v16.1c0,5.2-4.2,9.4-9.4,9.4h-16.1c-5.2,0-9.4-4.2-9.4-9.4V344c0-5.2,4.2-9.4,9.4-9.4h16.1
		C514.1,334.5,518.3,338.7,518.3,344z"/>
	<path class="st7" d="M518.3,309v16.1c0,5.2-4.2,9.4-9.4,9.4h-16.1c-5.2,0-9.4-4.2-9.4-9.4V309c0-5.2,4.2-9.4,9.4-9.4h16.1
		C514.1,299.6,518.3,303.8,518.3,309z"/>
	<path class="st7" d="M483.3,309v16.1c0,5.2-4.2,9.4-9.4,9.4h-16.1c-5.2,0-9.4-4.2-9.4-9.4V309c0-5.2,4.2-9.4,9.4-9.4h16.1
		C479.1,299.6,483.3,303.8,483.3,309z"/>
	<path class="st7" d="M448.4,309v16.1c0,5.2-4.2,9.4-9.4,9.4h-16.1c-5.2,0-9.4-4.2-9.4-9.4V309c0-5.2,4.2-9.4,9.4-9.4H439
		C444.2,299.6,448.4,303.8,448.4,309z"/>
</g>
</svg>
