<?xml version="1.0" encoding="UTF-8"?>
<svg width="200" height="200" viewBox="0 0 200 200" fill="none" xmlns="http://www.w3.org/2000/svg">
    <!-- 勋章底座 -->
    <circle cx="100" cy="100" r="90" fill="#FFD700" stroke="#DAA520" stroke-width="4"/>
    
    <!-- 旗帜图案 -->
    <path d="M70 140 L70 60 L120 60 L100 80 L120 100 L70 100" fill="#FFFFFF" stroke="#FFFFFF" stroke-width="2"/>
    <line x1="70" y1="60" x2="70" y2="140" stroke="#DAA520" stroke-width="4"/>
    
    <!-- 装饰星星 -->
    <path d="M130 70 L135 80 L145 82 L138 90 L140 100 L130 95 L120 100 L122 90 L115 82 L125 80 Z" fill="#FFFFFF"/>
    <path d="M140 110 L143 116 L150 117 L145 122 L146 129 L140 126 L134 129 L135 122 L130 117 L137 116 Z" fill="#FFFFFF"/>
</svg>