<?xml version="1.0" encoding="utf-8"?>
<svg version="1.1" xmlns="http://www.w3.org/2000/svg" xmlns:xlink="http://www.w3.org/1999/xlink" x="0px" y="0px" viewBox="0 0 1024 1024" style="enable-background:new 0 0 1024 1024;" xml:space="preserve">
<style type="text/css">
    .st0{fill:#E8EAF6;}
    .st1{fill:#9FA8DA;}
    .st2{fill:#7986CB;}
    .st3{fill:#FFFFFF;}
</style>
<circle class="st0" cx="512" cy="512" r="440"/>
<path class="st1" d="M712,362H312c-22.1,0-40,17.9-40,40v220c0,22.1,17.9,40,40,40h400c22.1,0,40-17.9,40-40V402C752,379.9,734.1,362,712,362z"/>
<path class="st2" d="M712,422H312c-22.1,0-40,17.9-40,40v160c0,22.1,17.9,40,40,40h400c22.1,0,40-17.9,40-40V462C752,439.9,734.1,422,712,422z"/>
<g>
    <path class="st3" d="M512,452c-44.2,0-80,35.8-80,80s35.8,80,80,80s80-35.8,80-80S556.2,452,512,452z M512,572c-22.1,0-40-17.9-40-40s17.9-40,40-40s40,17.9,40,40S534.1,572,512,572z"/>
    <path class="st3" d="M392,512c0-11,9-20,20-20h20c11,0,20,9,20,20s-9,20-20,20h-20C401,532,392,523,392,512z"/>
    <path class="st3" d="M592,512c0-11,9-20,20-20h20c11,0,20,9,20,20s-9,20-20,20h-20C601,532,592,523,592,512z"/>
</g>
</svg>