<?xml version="1.0" encoding="utf-8"?>
<svg version="1.1" xmlns="http://www.w3.org/2000/svg" xmlns:xlink="http://www.w3.org/1999/xlink" x="0px" y="0px" viewBox="0 0 1024 1024" style="enable-background:new 0 0 1024 1024;" xml:space="preserve">
<style type="text/css">
    .st0{fill:#A5C6FF;}
    .st1{fill:#FFD071;}
    .st2{fill:#F9B630;}
    .st3{fill:#FFFFFF;}
</style>
<circle class="st0" cx="512" cy="512" r="440"/>
<path class="st1" d="M812,392c0,22.1-17.9,40-40,40H252c-22.1,0-40-17.9-40-40V312c0-22.1,17.9-40,40-40h520c22.1,0,40,17.9,40,40V392z"/>
<path class="st1" d="M812,712c0,22.1-17.9,40-40,40H252c-22.1,0-40-17.9-40-40v-80c0-22.1,17.9-40,40-40h520c22.1,0,40,17.9,40,40V712z"/>
<path class="st2" d="M812,392v320c0,22.1-17.9,40-40,40H252c-22.1,0-40-17.9-40-40V392c0,22.1,17.9,40,40,40h520C794.1,432,812,414.1,812,392z"/>
<g>
    <path class="st3" d="M512,472c-22.1,0-40,17.9-40,40v0c0,22.1,17.9,40,40,40s40-17.9,40-40v0C552,489.9,534.1,472,512,472z"/>
    <path class="st3" d="M432,512c0-22.1-17.9-40-40-40h-60c-11,0-20,9-20,20v40c0,11,9,20,20,20h60C414.1,552,432,534.1,432,512z"/>
    <path class="st3" d="M692,472h-60c-22.1,0-40,17.9-40,40v0c0,22.1,17.9,40,40,40h60c11,0,20-9,20-20v-40C712,481,703,472,692,472z"/>
</g>
<text transform="matrix(1 0 0 1 400 390)" class="st3" style="font-family:'Arial-BoldMT'; font-size:90px;">¥100</text>
</svg>