<?xml version="1.0" encoding="utf-8"?>
<svg version="1.1" xmlns="http://www.w3.org/2000/svg" xmlns:xlink="http://www.w3.org/1999/xlink" x="0px" y="0px" viewBox="0 0 1024 1024" style="enable-background:new 0 0 1024 1024;" xml:space="preserve">
<style type="text/css">
    .st0{fill:#A5C6FF;}
    .st1{fill:#FFD071;}
    .st2{fill:#F9B630;}
    .st3{fill:#FFFFFF;}
</style>
<circle class="st0" cx="512" cy="512" r="440"/>
<path class="st1" d="M812,392c0,22.1-17.9,40-40,40H252c-22.1,0-40-17.9-40-40V312c0-22.1,17.9-40,40-40h520c22.1,0,40,17.9,40,40V392z"/>
<path class="st1" d="M812,712c0,22.1-17.9,40-40,40H252c-22.1,0-40-17.9-40-40v-80c0-22.1,17.9-40,40-40h520c22.1,0,40,17.9,40,40V712z"/>
<path class="st2" d="M812,392v320c0,22.1-17.9,40-40,40H252c-22.1,0-40-17.9-40-40V392c0,22.1,17.9,40,40,40h520C794.1,432,812,414.1,812,392z"/>
<g>
    <!-- 飞机图标 -->
    <path class="st3" d="M512,472c-5.5,0-10,4.5-10,10v60c0,5.5,4.5,10,10,10s10-4.5,10-10v-60C522,476.5,517.5,472,512,472z"/>
    <path class="st3" d="M462,502h-90c-5.5,0-10,4.5-10,10v0c0,5.5,4.5,10,10,10h90c5.5,0,10-4.5,10-10v0C472,506.5,467.5,502,462,502z"/>
    <path class="st3" d="M652,502h-90c-5.5,0-10,4.5-10,10v0c0,5.5,4.5,10,10,10h90c5.5,0,10-4.5,10-10v0C662,506.5,657.5,502,652,502z"/>
    <!-- 地球图标 -->
    <circle class="st3" cx="512" cy="512" r="30"/>
    <path class="st3" d="M512,462c-27.6,0-50,22.4-50,50s22.4,50,50,50s50-22.4,50-50S539.6,462,512,462z M512,542c-16.6,0-30-13.4-30-30s13.4-30,30-30s30,13.4,30,30S528.6,542,512,542z"/>
</g>
<text transform="matrix(1 0 0 1 420 390)" class="st3" style="font-family:'Arial-BoldMT'; font-size:90px;">北京</text>
</svg>