<?xml version="1.0" encoding="utf-8"?>
<!-- Generator: Adobe Illustrator 24.0.0, SVG Export Plug-In . SVG Version: 6.00 Build 0)  -->
<svg version="1.1" id="Capa_1" xmlns="http://www.w3.org/2000/svg" xmlns:xlink="http://www.w3.org/1999/xlink" x="0px" y="0px"
	 viewBox="0 0 1024 1024" style="enable-background:new 0 0 1024 1024;" xml:space="preserve">
<style type="text/css">
	.st0{fill:#BAE4FA;}
	.st1{fill:#F473C3;}
	.st2{fill:#C640A6;}
	.st3{fill:#9DD4A9;}
	.st4{fill:#84BFA7;}
	.st5{fill:#F9F7FC;}
	.st6{fill:#767DD4;}
	.st7{fill:#DCDAEB;}
	.st8{fill:#5E6ACA;}
	.st9{fill-rule:evenodd;clip-rule:evenodd;fill:#F9F7FC;}
	.st10{fill-rule:evenodd;clip-rule:evenodd;fill:#DCDAEB;}
	.st11{fill:none;}
	.st12{fill:#FFFFFF;}
</style>
<g>
	<path class="st0" d="M952,512c0,243-197,440-440,440c-88.1,0-170.2-25.9-239-70.5c-16.7-10.8-32.6-22.7-47.6-35.6
		c-14.8-12.7-28.7-26.4-41.7-40.9C114.2,727.1,72,624.5,72,512C72,269,269,72,512,72c103.7,0,199.1,35.9,274.3,96c0,0,0,0,0.1,0
		c21.5,17.2,41.4,36.4,59.4,57.3l0,0c16.5,19.2,31.5,39.9,44.5,61.9l0,0c1.7,2.8,3.3,5.7,5,8.6C931.4,359.7,952,433.4,952,512z"/>
	<g>
		<path class="st1" d="M907.2,284.5l-269.6,257c-19.4,18.8-41.9,34.1-66.5,45.3l-49,22.4c-25.8,11.8-49.4,28.2-69.4,48.3L408,702.1
			L370.9,665l44.7-44.7c20.1-20.1,36.4-43.6,48.2-69.4l22.4-49c11.3-24.6,26.6-47.1,45.3-66.5l256.9-269.5
			c32.3-32.3,85.1-32.6,117.8-0.9c0.3,0.3,0.6,0.6,0.9,0.9l0,0C939.8,198.5,939.8,251.9,907.2,284.5z"/>
		<path class="st2" d="M907.2,284.5l-269.6,257c-19.4,18.8-41.9,34.1-66.5,45.3l-49,22.4c-25.8,11.8-49.4,28.2-69.4,48.3L408,702.1
			l-19.5-19.5L906.2,165c0.3,0.3,0.6,0.6,0.9,0.9l0,0C939.8,198.5,939.8,251.9,907.2,284.5z"/>
		<path class="st3" d="M269.2,864.3l-60.5-60.5c13,1.5,31.4-11.4,42.7-20.6l0,0c6.1-5,10.1-8.9,10.1-8.9l112.6-112.6l37.2,37.2
			L298.7,811.4c0,0-12.6,13.1-21.4,27.7C272.2,847.8,268.4,856.9,269.2,864.3z"/>
		<path class="st4" d="M269.2,864.3L238,833.1l153.8-153.8l19.5,19.5L298.7,811.4c0,0-12.6,13.1-21.4,27.7
			C272.2,847.8,268.4,856.9,269.2,864.3z"/>
		<g>
			<polygon class="st5" points="411.3,698.9 383,727.1 344.1,727.1 308.7,727.1 337.4,698.5 410.9,698.5 			"/>
			<path class="st5" d="M355.7,754.5L327,783.1h-39h-36.6c6.1-5,10.1-8.9,10.1-8.9l19.8-19.8h35.4L355.7,754.5z"/>
			<path class="st5" d="M277.3,839.2h-33.2l-28.7-28.7h45.2h39l-0.9,0.9C298.7,811.4,286.1,824.5,277.3,839.2z"/>
		</g>
		<path class="st1" d="M274.5,875.1c-0.2,2.2-0.7,4.3-1.5,6.4c-16.7-10.8-32.6-22.7-47.6-35.6c-14.8-12.7-28.7-26.4-41.7-40.9
			c8.7-8.3,22-8.8,31.3-1.4c0,0,0,0,0.1,0c0.7,0.5,1.3,1.1,2,1.8l24.3,24.3h0.1l0,0l9.3,9.4l16.9,16.9c0.6,0.7,1.2,1.3,1.8,2l0,0
			C273.4,863,275.1,869.1,274.5,875.1z"/>
		<path class="st6" d="M575.4,584.7c-1.4,0.7-2.8,1.4-4.3,2.1l-49,22.4c-7.3,3.3-14.4,7.1-21.3,11.1l-48.2-48.2
			c4-6.9,7.8-14,11.1-21.3l22.4-49c0.7-1.4,1.4-2.9,2.1-4.3L575.4,584.7z"/>
		<path class="st6" d="M907.2,284.5l-10,9.6L778.8,175.8l9.6-10c3.3-3.3,6.9-6.3,10.6-9l117.1,117.1
			C913.5,277.6,910.5,281.2,907.2,284.5z"/>
		<polygon class="st6" points="871,319.4 851.1,338.7 734.3,221.9 753.6,202 		"/>
		<path class="st7" d="M277.3,839.2h-33.2l-6-6l22.6-22.6h39l-0.9,0.9C298.7,811.4,286.1,824.5,277.3,839.2z"/>
		<path class="st2" d="M274.5,875.1c-0.2,2.2-0.7,4.3-1.5,6.4c-16.7-10.8-32.6-22.7-47.6-35.6l16-16l0,0l9.2,9.4l16.8,16.8
			c0.7,0.7,1.3,1.4,1.9,2.1c0,0,0,0.1,0.1,0.1C273.4,863.1,275,869.2,274.5,875.1z"/>
		<path class="st8" d="M575.4,584.7c-1.4,0.7-2.8,1.4-4.3,2.1l-49,22.4c-7.3,3.3-14.4,7.1-21.3,11.1l-25-25l55.1-55.1L575.4,584.7z"
			/>
		<polygon class="st8" points="811.4,259.8 871,319.4 851.1,338.7 791.8,279.4 		"/>
		<path class="st8" d="M907.2,284.5l-10,9.6L837.1,234l19.6-19.6l59.4,59.4C913.5,277.6,910.5,281.2,907.2,284.5z"/>
		<polygon class="st7" points="383,727.1 344.1,727.1 372.7,698.5 410.9,698.5 411.3,698.9 		"/>
		<polygon class="st7" points="327,783.1 288.1,783.1 316.7,754.5 355.7,754.5 		"/>
	</g>
	<g>
		<g>
			<path class="st9" d="M615.7,233.7c0,54-44.1,98.2-98.3,98.2c-27.1,0-51.7-11-69.5-28.8S419,260.7,419,233.6
				c0-54.1,44.2-98.3,98.3-98.3c27.1,0,51.7,11.1,69.5,28.9S615.6,206.6,615.7,233.7z"/>
		</g>
		<path class="st10" d="M615.7,233.7c0,54-44.1,98.2-98.3,98.2c-27.1,0-51.7-11-69.5-28.8l138.9-138.9
			C604.6,182,615.6,206.6,615.7,233.7z"/>
	</g>
</g>
<g>
	<path class="st11" d="M952,512c0,243-197,440-440,440c-88.1,0-170.2-25.9-239-70.5c-16.7-10.8-32.6-22.7-47.6-35.6
		c-14.8-12.7-28.7-26.4-41.7-40.9C114.2,727.1,72,624.5,72,512C72,269,269,72,512,72c103.7,0,199.1,35.9,274.3,96c0,0,0,0,0.1,0
		c21.5,17.2,41.4,36.4,59.4,57.3l0,0c16.5,19.2,31.5,39.9,44.5,61.9l0,0c1.7,2.8,3.3,5.7,5,8.6C931.4,359.7,952,433.4,952,512z"/>
	<g>
		<path class="st11" d="M907.2,284.5l-269.6,257c-19.4,18.8-41.9,34.1-66.5,45.3l-49,22.4c-25.8,11.8-49.4,28.2-69.4,48.3L408,702.1
			L370.9,665l44.7-44.7c20.1-20.1,36.4-43.6,48.2-69.4l22.4-49c11.3-24.6,26.6-47.1,45.3-66.5l256.9-269.5
			c32.3-32.3,85.1-32.6,117.8-0.9c0.3,0.3,0.6,0.6,0.9,0.9l0,0C939.8,198.5,939.8,251.9,907.2,284.5z"/>
		<path class="st11" d="M907.2,284.5l-269.6,257c-19.4,18.8-41.9,34.1-66.5,45.3l-49,22.4c-25.8,11.8-49.4,28.2-69.4,48.3L408,702.1
			l-19.5-19.5L906.2,165c0.3,0.3,0.6,0.6,0.9,0.9l0,0C939.8,198.5,939.8,251.9,907.2,284.5z"/>
		<path class="st11" d="M269.2,864.3l-60.5-60.5c13,1.5,31.4-11.4,42.7-20.6l0,0c6.1-5,10.1-8.9,10.1-8.9l112.6-112.6l37.2,37.2
			L298.7,811.4c0,0-12.6,13.1-21.4,27.7C272.2,847.8,268.4,856.9,269.2,864.3z"/>
		<path class="st11" d="M269.2,864.3L238,833.1l153.8-153.8l19.5,19.5L298.7,811.4c0,0-12.6,13.1-21.4,27.7
			C272.2,847.8,268.4,856.9,269.2,864.3z"/>
		<g>
			<polygon class="st11" points="411.3,698.9 383,727.1 344.1,727.1 308.7,727.1 337.4,698.5 410.9,698.5 			"/>
			<path class="st11" d="M355.7,754.5L327,783.1h-39h-36.6c6.1-5,10.1-8.9,10.1-8.9l19.8-19.8h35.4L355.7,754.5z"/>
			<path class="st11" d="M277.3,839.2h-33.2l-28.7-28.7h45.2h39l-0.9,0.9C298.7,811.4,286.1,824.5,277.3,839.2z"/>
		</g>
		<path class="st11" d="M274.5,875.1c-0.2,2.2-0.7,4.3-1.5,6.4c-16.7-10.8-32.6-22.7-47.6-35.6c-14.8-12.7-28.7-26.4-41.7-40.9
			c8.7-8.3,22-8.8,31.3-1.4c0,0,0,0,0.1,0c0.7,0.5,1.3,1.1,2,1.8l24.3,24.3h0.1l0,0l9.3,9.4l16.9,16.9c0.6,0.7,1.2,1.3,1.8,2l0,0
			C273.4,863,275.1,869.1,274.5,875.1z"/>
		<path class="st11" d="M575.4,584.7c-1.4,0.7-2.8,1.4-4.3,2.1l-49,22.4c-7.3,3.3-14.4,7.1-21.3,11.1l-48.2-48.2
			c4-6.9,7.8-14,11.1-21.3l22.4-49c0.7-1.4,1.4-2.9,2.1-4.3L575.4,584.7z"/>
		<path class="st11" d="M907.2,284.5l-10,9.6L778.8,175.8l9.6-10c3.3-3.3,6.9-6.3,10.6-9l117.1,117.1
			C913.5,277.6,910.5,281.2,907.2,284.5z"/>
		<polygon class="st11" points="871,319.4 851.1,338.7 734.3,221.9 753.6,202 		"/>
		<path class="st11" d="M277.3,839.2h-33.2l-6-6l22.6-22.6h39l-0.9,0.9C298.7,811.4,286.1,824.5,277.3,839.2z"/>
		<path class="st11" d="M274.5,875.1c-0.2,2.2-0.7,4.3-1.5,6.4c-16.7-10.8-32.6-22.7-47.6-35.6l16-16l0,0l9.2,9.4l16.8,16.8
			c0.7,0.7,1.3,1.4,1.9,2.1c0,0,0,0.1,0.1,0.1C273.4,863.1,275,869.2,274.5,875.1z"/>
		<path class="st11" d="M575.4,584.7c-1.4,0.7-2.8,1.4-4.3,2.1l-49,22.4c-7.3,3.3-14.4,7.1-21.3,11.1l-25-25l55.1-55.1L575.4,584.7z
			"/>
		<polygon class="st11" points="811.4,259.8 871,319.4 851.1,338.7 791.8,279.4 		"/>
		<path class="st11" d="M907.2,284.5l-10,9.6L837.1,234l19.6-19.6l59.4,59.4C913.5,277.6,910.5,281.2,907.2,284.5z"/>
		<polygon class="st11" points="383,727.1 344.1,727.1 372.7,698.5 410.9,698.5 411.3,698.9 		"/>
		<polygon class="st11" points="327,783.1 288.1,783.1 316.7,754.5 355.7,754.5 		"/>
	</g>
	<g>
		<g>
			<path class="st11" d="M615.7,233.7c0,54-44.1,98.2-98.3,98.2c-27.1,0-51.7-11-69.5-28.8S419,260.7,419,233.6
				c0-54.1,44.2-98.3,98.3-98.3c27.1,0,51.7,11.1,69.5,28.9S615.6,206.6,615.7,233.7z"/>
		</g>
		<path class="st11" d="M615.7,233.7c0,54-44.1,98.2-98.3,98.2c-27.1,0-51.7-11-69.5-28.8l138.9-138.9
			C604.6,182,615.6,206.6,615.7,233.7z"/>
	</g>
</g>
<g>
	<path class="st2" d="M512,972c-31.3,0-62.5-3.2-92.9-9.4c-10.8-2.2-17.8-12.8-15.6-23.6c2.2-10.8,12.8-17.8,23.6-15.6
		c27.7,5.7,56.3,8.6,84.9,8.6c56.7,0,111.7-11.1,163.5-33c50-21.2,94.9-51.4,133.5-90c38.6-38.6,68.9-83.5,90-133.5
		c21.9-51.8,33-106.8,33-163.5c0-43.2-6.5-85.8-19.4-126.6c-3.3-10.5,2.5-21.8,13-25.1c10.5-3.3,21.8,2.5,25.1,13
		C964.8,418,972,464.7,972,512c0,62.1-12.2,122.3-36.2,179.1c-23.2,54.8-56.3,104-98.6,146.2c-42.2,42.2-91.4,75.4-146.2,98.6
		C634.3,959.8,574.1,972,512,972z"/>
	<g>
		<path class="st12" d="M915.5,282.9c0.1-0.1,0.2-0.2,0.3-0.3c13.5-16,20.9-36.1,20.9-57.4c0-23.8-9.3-46.1-26-62.8l-1-1
			c-30.8-29.9-78.4-32.8-112.6-9.2c-0.4,0.1-0.7,0.3-1,0.6c-4.1,3-7.9,6.2-11.2,9.5c0,0,0,0-0.1,0.1l-9.6,10
			c-0.3,0.3-0.5,0.6-0.7,0.9l-23.3,24.4c-0.5,0.2-0.9,0.5-1.3,0.9l-19.3,19.9c-0.6,0.6-0.9,1.3-1.2,2L527.9,431.9
			c-17.8,18.4-32.5,39.5-43.8,62.7c-0.1,0.2-0.3,0.4-0.4,0.6c-0.4,0.7-0.7,1.5-1.1,2.2c-0.3,0.7-0.7,1.4-1,2.1
			c0,0.1-0.1,0.1-0.1,0.2l-22.4,49c-2.9,6.4-6.5,13.2-10.9,20.9c-0.2,0.3-0.3,0.7-0.5,1.1c-9.9,16.8-21.9,32.2-35.8,46.1l-40.9,40.9
			c-0.2,0.1-0.4,0.3-0.6,0.5L258,770.7c0,0-3.9,3.8-9.8,8.6c-12.6,10.3-23.9,16.8-32.2,18.9c-11.2-7.4-25.9-6.3-35.8,3.2
			c-2,1.9-2.1,4.9-0.3,7c13.3,14.9,27.5,28.8,42.2,41.4c15.2,13,31.4,25.2,48.1,36c0.8,0.5,1.8,0.8,2.7,0.8c0.5,0,1-0.1,1.6-0.2
			c1.4-0.5,2.6-1.6,3.1-3c1-2.6,1.6-5.1,1.8-7.7c0.7-6.6-1-13.1-4.6-18.7c1.1-4.3,3.3-9.4,6.7-15.2c8.2-13.6,20-26.1,20.7-26.8
			l112.6-112.5c0.2-0.2,0.3-0.3,0.4-0.5l41-40.9c14-14.1,29.7-26.3,46.8-36.3c0.1,0,0.2-0.1,0.2-0.1c4.4-2.6,8.6-4.8,12.6-6.9
			c2.7-1.4,5.5-2.7,8.3-4l49-22.4c0,0,0,0,0,0l0,0c0,0,0,0,0,0c25.2-11.5,48.1-27,67.8-46.2l211.6-201.7c0.7-0.2,1.4-0.6,2-1.2
			l19.9-19.3c0.4-0.4,0.7-0.8,0.9-1.3l24.9-23.7c0.1-0.1,0.3-0.2,0.4-0.3l10-9.6l0,0c0,0,0,0,0,0l0,0c0,0,0,0,0.1-0.1
			c0.9-0.9,1.8-1.9,2.7-2.8C914.1,284.5,914.8,283.7,915.5,282.9z M902.7,168.5l0.9,0.9c14.9,14.8,23.1,34.6,23.1,55.7
			c0,14.7-3.9,28.7-11.3,40.9L807,157.7C836.9,139.7,876.6,143.3,902.7,168.5z M903.7,280.9l-6.5,6.2L785.9,175.8l6.1-6.4
			c2.1-2.1,4.3-4.1,6.6-5.9l110.9,110.9C907.7,276.7,905.8,278.9,903.7,280.9C903.7,280.9,903.7,280.9,903.7,280.9z M870.9,312.2
			L760.8,202.1L779,183L890,294L870.9,312.2z M850.8,331.3L741.7,222.2l12.2-12.8l109.8,109.8L850.8,331.3z M530.9,599.7l-10.9,5
			c0,0,0,0,0,0c-2.9,1.3-5.9,2.8-9,4.3c-3.2,1.6-6.3,3.3-9.4,5L459,571.4c3.4-6,6.5-12.1,9.4-18.4l21.4-46.8l77.1,77.1L530.9,599.7z
			 M228.7,842.1c-13-11.1-25.6-23.4-37.6-36.4c3.9-2.2,8.3-2.8,12.6-2c0,1.3,0.5,2.6,1.5,3.6l60.5,60.5c1,1,2.2,1.5,3.5,1.5
			c0,0,0.1,0,0.1,0c0.2,1.3,0.4,2.6,0.3,4C255.4,863.7,241.6,853.3,228.7,842.1z M295.1,807.9c-0.5,0.6-13.1,13.7-22.1,28.6
			c-2.5,4.2-4.4,8.1-5.9,11.8l-12.8-12.8l-9.3-9.4c-0.2-0.2-0.4-0.4-0.7-0.6l-19.7-19.7c8.7-3.4,18.6-9.7,29.9-18.8
			c6.2-5.1,10.3-9,10.5-9.2L370.9,672l30.1,30.1L295.1,807.9z M449.2,654l-37.9,37.8l-30-30l37.9-37.9
			c13.2-13.2,24.8-27.8,34.6-43.6l39,39C476.9,629.1,462.4,640.7,449.2,654z M634.1,537.9c-17,16.5-36.4,30.2-57.7,40.8l-82.1-82.1
			c10.7-21.3,24.4-40.7,40.8-57.7l199.6-209.4l108.8,108.8L634.1,537.9z"/>
		<path class="st12" d="M517.4,336.9c57,0,103.3-46.3,103.3-103.2c0,0,0,0,0,0c-0.1-27.6-10.9-53.5-30.4-73
			c-19.6-19.6-45.5-30.4-73-30.4c-57,0-103.3,46.3-103.3,103.3c0,27.5,10.8,53.5,30.4,73C463.9,326.2,489.8,336.9,517.4,336.9z
			 M517.3,140.3c24.8,0,48.3,9.7,66,27.4c17.6,17.6,27.3,41,27.4,66c0,51.4-41.9,93.2-93.3,93.2c-24.9,0-48.3-9.7-66-27.3
			c-17.7-17.7-27.4-41.1-27.4-66C424,182.2,465.9,140.3,517.3,140.3z"/>
	</g>
	<path class="st2" d="M273,901.5c-3.7,0-7.5-1-10.8-3.2c-17.4-11.2-34.1-23.8-49.8-37.2c-15.1-13-29.8-27.3-43.6-42.7
		c-7.4-8.2-6.7-20.9,1.5-28.2c8.2-7.4,20.9-6.7,28.2,1.5c12.6,14.1,26,27.2,39.8,39.1c14.3,12.3,29.6,23.7,45.4,34
		c9.3,6,11.9,18.4,5.9,27.7C286,898.3,279.5,901.5,273,901.5z"/>
	<path class="st2" d="M113.4,718.5c-7.5,0-14.7-4.3-18.1-11.5C66.6,645.7,52,580.1,52,512c0-62.1,12.2-122.3,36.2-179.1
		c23.2-54.8,56.3-104,98.6-146.2c42.2-42.2,91.4-75.4,146.2-98.6C389.7,64.2,449.9,52,512,52c71.1,0,139.2,15.8,202.5,46.9
		c9.9,4.9,14,16.9,9.1,26.8c-4.9,9.9-16.9,14-26.8,9.1C639.1,106.4,576.9,92,512,92c-56.7,0-111.7,11.1-163.5,33
		c-50,21.2-94.9,51.4-133.5,90s-68.9,83.5-90,133.5C103.1,400.3,92,455.3,92,512c0,62.2,13.3,122.1,39.5,178
		c4.7,10,0.4,21.9-9.6,26.6C119.1,717.9,116.2,718.5,113.4,718.5z"/>
</g>
</svg>
