<?xml version="1.0" encoding="utf-8"?>
<!-- Generator: Adobe Illustrator 24.0.0, SVG Export Plug-In . SVG Version: 6.00 Build 0)  -->
<svg version="1.1" id="Capa_1" xmlns="http://www.w3.org/2000/svg" xmlns:xlink="http://www.w3.org/1999/xlink" x="0px" y="0px"
	 viewBox="0 0 1024 1024" style="enable-background:new 0 0 1024 1024;" xml:space="preserve">
<style type="text/css">
	.st0{fill:#9DD4A9;}
	.st1{fill:#DCDAEB;}
	.st2{fill:#F9F7FC;}
	.st3{fill:#171759;}
	.st4{fill:#443F80;}
	.st5{fill:#2A286B;}
	.st6{fill:#534A9A;}
	.st7{fill:#F9A40D;}
	.st8{fill:#F9B630;}
</style>
<g>
	<circle class="st0" cx="512" cy="512" r="440"/>
	<g>
		<g>
			<path class="st1" d="M572.8,784L572.8,784c-7.2,0-14.1-5.3-15.4-12.1l-98-517.8c-8.5-43.6,0.1-65.7,20.2-65.7l0,0
				c20.1,0,40.9,22.1,46,65.7L584.4,772C585.2,778.7,580,784,572.8,784z"/>
			<path class="st2" d="M598.8,784L598.8,784c-7.2,0-13.7-5.3-14.5-12.1l-58.8-517.8c-5.1-43.6,6.6-65.7,26.7-65.7l0,0
				c20.1,0,37.9,22.1,39.6,65.7L611.4,772C611.7,778.7,606,784,598.8,784z"/>
			<path class="st1" d="M624.9,784L624.9,784c-7.2,0-13.2-5.3-13.5-12.1l-19.6-517.8c-1.7-43.6,13-65.7,33.1-65.7l0,0
				c20.1,0,34.8,22.1,33.1,65.7L638.4,772C638.2,778.7,632.1,784,624.9,784z"/>
			<path class="st2" d="M651,784L651,784c-7.2,0-12.8-5.3-12.6-12.1L658,254.2c1.7-43.6,19.5-65.7,39.6-65.7l0,0
				c20.1,0,31.8,22.1,26.7,65.7L665.5,772C664.7,778.7,658.2,784,651,784z"/>
			<path class="st1" d="M677.1,784L677.1,784c-7.2,0-12.4-5.3-11.6-12.1l58.8-517.8c5.1-43.6,25.9-65.7,46-65.7l0,0
				c20.1,0,28.8,22.1,20.2,65.7l-98,517.8C691.2,778.7,684.3,784,677.1,784z"/>
			<path class="st3" d="M840.3,804.9l77.9-462.4l26.2-155.6c0.6-3.8-1.9-7.4-5.7-8l-52.4-8.8L798,155.4c-3.8-0.6-7.4,1.9-8,5.7
				l-1.5,8.7l-4.1,24.1l-99.1,587.8l-3.8,22.2c-0.6,3.8,1.9,7.4,5.7,8l90.6,15.1l35.2,5.9L840.3,804.9z"/>
			<path class="st4" d="M348.6,849.5l-95.3,18.4c-25.3-18.4-48.6-39.5-69.4-62.8l-4.6-23.6l-9.9-51.1l-9.9-51l-9.9-51.1l-9.9-51
				l-9.9-51.1l-9.9-51.1L110,424l-9.9-51l-2-10l-8-41l-9.6-49.3c-5.1-26.4,12.1-51.9,38.6-57l83.3-16.1l19.2-3.7l18.9,97l7.8,40
				l2.1,11.1l2.2,11.2l0,0L258,383l2.3,12.1l2,10.2l0,0l5.4,27.8l2.5,13l3.4,17.2l4.1,21.3l2.4,12.6l1.9,9.7l0,0l5.3,27.3l2.7,14
				l1.6,8.3l5.5,28.2l2.8,14.5l1.5,7.8l8.4,43.3l7,35.8l3,15.3l1.4,7l8.6,44L348.6,849.5z"/>
			<g>
				<g>
					<polygon class="st2" points="91.7,323.3 239.1,294.8 248.5,342.9 101,371.4 					"/>
					<path class="st4" d="M237.9,296.6l8.8,45.2l-144.5,27.9l-8.8-45.2L237.9,296.6 M240.3,293L89.9,322l9.9,51.1l150.4-29
						L240.3,293L240.3,293z"/>
				</g>
				<g>
					<polygon class="st2" points="101.6,374.3 249,345.9 258.4,394 111,422.4 					"/>
					<path class="st4" d="M247.9,347.6l8.8,45.2l-144.5,27.9l-8.8-45.2L247.9,347.6 M250.2,344.1l-150.4,29l9.9,51.1l150.4-29
						L250.2,344.1L250.2,344.1z"/>
				</g>
				<g>
					<polygon class="st2" points="111.5,425.4 259,396.9 268.3,445 120.9,473.5 					"/>
					<path class="st4" d="M257.8,398.7l8.8,45.2l-144.5,27.9l-8.8-45.2L257.8,398.7 M260.2,395.2l-150.4,29l9.9,51.1l150.4-29
						L260.2,395.2L260.2,395.2z"/>
				</g>
				<g>
					<polygon class="st2" points="121.5,476.4 268.9,448 278.3,496.1 130.8,524.5 					"/>
					<path class="st4" d="M267.7,449.7l8.8,45.2L132,522.8l-8.8-45.2L267.7,449.7 M270.1,446.2l-150.4,29l9.9,51.1l150.4-29
						L270.1,446.2L270.1,446.2z"/>
				</g>
				<g>
					<polygon class="st2" points="131.4,527.5 278.8,499 288.2,547.1 140.8,575.6 					"/>
					<path class="st4" d="M277.7,500.8l8.8,45.2L142,573.9l-8.8-45.2L277.7,500.8 M280,497.3l-150.4,29l9.9,51.1l150.4-29L280,497.3
						L280,497.3z"/>
				</g>
				<g>
					<polygon class="st2" points="141.3,578.5 288.8,550.1 298.1,598.2 150.7,626.6 					"/>
					<path class="st4" d="M287.6,551.8l8.8,45.2l-144.5,27.9l-8.8-45.2L287.6,551.8 M290,548.3l-150.4,29l9.9,51.1l150.4-29
						L290,548.3L290,548.3z"/>
				</g>
				<g>
					<polygon class="st2" points="151.3,629.6 298.7,601.1 308.1,649.2 160.6,677.7 					"/>
					<path class="st4" d="M297.5,602.9l8.8,45.2L161.8,676l-8.8-45.2L297.5,602.9 M299.9,599.4l-150.4,29l9.9,51.1l150.4-29
						L299.9,599.4L299.9,599.4z"/>
				</g>
				<g>
					<polygon class="st2" points="161.2,680.6 308.7,652.2 318,700.3 170.6,728.7 					"/>
					<path class="st4" d="M307.5,653.9l8.8,45.2L171.8,727l-8.8-45.2L307.5,653.9 M309.8,650.4l-150.4,29l9.9,51.1l150.4-29
						L309.8,650.4L309.8,650.4z"/>
				</g>
				<g>
					<polygon class="st2" points="171.1,731.7 318.6,703.2 328,751.3 180.5,779.8 					"/>
					<path class="st4" d="M317.4,705l8.8,45.2L181.7,778l-8.8-45.2L317.4,705 M319.8,701.5l-150.4,29l9.9,51.1l150.4-29L319.8,701.5
						L319.8,701.5z"/>
				</g>
			</g>
			<g>
				<path class="st5" d="M277.2,350.5l-125.1,24.1c-3.4,0.7-6.7-1.6-7.4-5l-1.9-9.9c-0.7-3.4,1.6-6.8,5-7.4l125.1-24.1L277.2,350.5z
					"/>
				<path class="st5" d="M290.6,399.9L165.5,424c-3.4,0.7-6.7-1.6-7.4-5l-1.9-9.9c-0.7-3.4,1.6-6.8,5-7.4l125.1-24.1L290.6,399.9z"
					/>
				<path class="st5" d="M303.9,502.7l-125.1,24.1c-3.4,0.7-6.7-1.6-7.4-5l-1.9-9.9c-0.7-3.4,1.6-6.8,5-7.4l125.1-24.1L303.9,502.7z
					"/>
				<path class="st5" d="M317.3,551.6l-125.1,24.1c-3.4,0.7-6.7-1.6-7.4-5l-1.9-9.9c-0.7-3.4,1.6-6.8,5-7.4L313,529.3L317.3,551.6z"
					/>
				<path class="st5" d="M330.7,601.5l-125.1,24.1c-3.4,0.7-6.7-1.6-7.4-5l-1.9-9.9c-0.7-3.4,1.6-6.8,5-7.4l125.1-24.1L330.7,601.5z
					"/>
				<path class="st5" d="M344.1,704.1L219,728.2c-3.4,0.7-6.7-1.6-7.4-5l-1.9-9.9c-0.7-3.4,1.6-6.8,5-7.4l125.1-24.1L344.1,704.1z"
					/>
			</g>
			<path class="st6" d="M567,807.4l-218.4,42.1L221.4,196l218.4-42.1c3.8-0.7,7.4,1.7,8.1,5.5l124.5,639.9
				C573.2,803,570.8,806.7,567,807.4z"/>
			<polygon class="st7" points="282.7,237.4 405.4,213.7 512.6,764.8 389.9,788.4 			"/>
			<g>
				<circle class="st2" cx="805.1" cy="258.4" r="13.8"/>
				<circle class="st8" cx="854.3" cy="258.4" r="13.8"/>
				<circle class="st2" cx="903.5" cy="258.4" r="13.8"/>
			</g>
			<g>
				<circle class="st8" cx="793.2" cy="327.4" r="13.8"/>
				<circle class="st2" cx="842.4" cy="327.4" r="13.8"/>
				<circle class="st2" cx="891.6" cy="327.4" r="13.8"/>
			</g>
			<g>
				<circle class="st2" cx="781.3" cy="396.4" r="13.8"/>
				<circle class="st8" cx="830.5" cy="396.4" r="13.8"/>
				<circle class="st2" cx="879.8" cy="396.4" r="13.8"/>
			</g>
			<g>
				<circle class="st2" cx="769.5" cy="465.4" r="13.8"/>
				<circle class="st2" cx="818.7" cy="465.4" r="13.8"/>
				<circle class="st8" cx="867.9" cy="465.4" r="13.8"/>
			</g>
			<g>
				<circle class="st2" cx="757.6" cy="534.5" r="13.8"/>
				<circle class="st8" cx="806.8" cy="534.5" r="13.8"/>
				<circle class="st2" cx="856" cy="534.5" r="13.8"/>
			</g>
			<g>
				<circle class="st8" cx="745.8" cy="603.5" r="13.8"/>
				<circle class="st2" cx="795" cy="603.5" r="13.8"/>
				<circle class="st2" cx="844.2" cy="603.5" r="13.8"/>
			</g>
			<g>
				<circle class="st2" cx="733.9" cy="672.5" r="13.8"/>
				<circle class="st8" cx="783.1" cy="672.5" r="13.8"/>
				<circle class="st2" cx="832.3" cy="672.5" r="13.8"/>
			</g>
			<g>
				<circle class="st2" cx="722.1" cy="741.5" r="13.8"/>
				<circle class="st2" cx="771.3" cy="741.5" r="13.8"/>
				<circle class="st8" cx="820.5" cy="741.5" r="13.8"/>
			</g>
		</g>
	</g>
</g>
<g>
	<g>
		<path class="st2" d="M939.5,174l-52.4-8.8l-88.3-14.7c-3.1-0.5-6.3,0.2-8.9,2.1c-2.6,1.9-4.4,4.6-4.8,7.7l-4.3,25.2
			c-3.2-1.3-6.6-2-10.5-2c-11.9,0-23.4,6.5-32.4,18.3c-3.4,4.4-6.3,9.4-8.9,15.1c-1.8-10.1-5.3-18.1-10.3-23.8
			c-5.5-6.1-12.8-9.4-21.1-9.4c-13.7,0-29.3,9.3-38,33.2c-2.7-9.9-6.8-17.8-12.3-23.6c-6.1-6.4-13.9-9.8-22.4-9.8
			s-16.2,3.4-22.4,9.8c-5.5,5.7-9.6,13.7-12.3,23.5c-8.7-24-24.4-33.3-38-33.3c-8.3,0-15.6,3.2-21.1,9.4c-5,5.7-8.5,13.7-10.3,23.7
			c-2.5-5.5-5.4-10.4-8.6-14.7c-9-11.9-20.6-18.5-32.6-18.5c-8.4,0-15.3,3.3-20.1,9.4l-6.7-34.3c-1.2-6.4-7.4-10.7-14-9.5
			l-217.6,41.9c-0.2,0-0.4,0-0.6,0.1l-102.5,19.8c-14.1,2.7-26.3,10.8-34.3,22.6c-8,11.9-10.9,26.1-8.2,40.2L93.2,364l2,10
			l79.2,408.5l4.6,23.6c0.2,0.9,0.6,1.7,1.2,2.4c21.1,23.6,44.7,45,70.2,63.5c0.9,0.6,1.9,1,2.9,1c0.3,0,0.6,0,0.9-0.1l95.3-18.4
			c0,0,0,0,0,0l218.4-42.1c3.2-0.6,5.9-2.4,7.6-5c1.7-2.6,2.4-5.9,1.7-9l-1.8-9.5c3.8-0.5,7.2-2.2,9.8-4.9c0,0,0.1-0.1,0.1-0.1
			c3.6,3.2,8.3,5.2,13.4,5.2c4.9,0,9.6-1.9,12.9-5.2c3.4,3.2,8,5.2,13.2,5.2c5.1,0,9.8-2,13.2-5.3c3.3,3.4,7.9,5.3,12.9,5.3
			c5.2,0,10-2,13.5-5.2c3.1,3.4,7.6,5.2,12.6,5.2c0.6,0,1.3,0,1.9-0.1l-2.4,14.2c-1,6.5,3.4,12.7,9.8,13.7l90.6,15.1l35.2,5.9
			c0.3,0,0.6,0.1,0.8,0.1c1.3,0,2.6-0.5,3.6-1.5l27.3-28c0.7-0.7,1.2-1.7,1.4-2.7l77.9-462.4l26.2-155.7
			C950.4,181.1,945.9,175,939.5,174z M188.5,802.8L105,372l-2-10l-17.6-90.3c-2.2-11.5,0.2-23.1,6.7-32.7c6.5-9.7,16.5-16.2,28-18.4
			l97.4-18.8l82.4,423.4l5.1,26.1l5.1,26.1l32.7,168.2l-88.2,17C230.6,845,208.4,824.9,188.5,802.8z M567.2,801.7
			c-0.2,0.3-0.5,0.6-1.2,0.8c0,0,0,0,0,0l-213.5,41.2l-17.9-92.2l-8.6-44l-1.4-7l-4.9-25.2l-13.1-67.4l-0.3-1.7l-9.8-50.5l-18-93.2
			l-3.4-17.2l-7.9-40.8l-2-10.2l-2.3-12.1l-5.4-27.8l-2.2-11.2l-2.1-11.1l-25.7-132l213.2-41.1c1.1-0.2,2.1,0.4,2.3,1.5l9.7,49.8
			c0,0,0,0,0,0l114.8,590.1c0,0,0,0.1,0,0.1C567.7,801,567.4,801.5,567.2,801.7z M573.5,779L462.7,209.4c2.6-10.7,8.1-16,16.9-16
			c8.8,0,17.5,5.2,24.6,14.5c7.8,10.3,13.3,25,15.9,42.6c0,0,0,0.1,0,0.1c0.1,1.3,0.3,2.6,0.4,4l58.8,517.8c0,0.3,0.1,0.5,0.1,0.8
			c0,1.4-0.5,2.7-1.4,3.8C576.9,778.1,575.3,778.8,573.5,779z M604.7,776.6c-1.4,1.5-3.6,2.4-5.9,2.4c-4.4,0-8.4-3-9.4-6.8
			c0-0.2,0-0.4,0-0.6c0,0,0-0.1,0-0.2l-58.8-517.9c-0.2-1.4-0.3-2.8-0.5-4.1c-2.2-23.5,0.8-41.2,8.6-49.9c3.6-4,8.1-6,13.6-6
			c8.6,0,16.4,4.9,22.5,14.2c7.1,10.9,11.3,27.1,12.1,46.7l19.6,517.9C606.5,774.3,605.5,775.8,604.7,776.6z M624.9,779
			c-4.6,0-8.3-3.2-8.5-7.3l-19.6-517.8c-1-25,3.6-44.1,12.9-53.8c4.3-4.4,9.4-6.7,15.2-6.7s10.9,2.2,15.2,6.7
			c9.3,9.7,13.9,28.8,12.9,53.8l-9.9,262.2l-9.7,255.7c0,0,0,0,0,0.1l0,0C633.3,775.8,629.5,779,624.9,779z M651,779
			c-2.3,0-4.4-0.8-5.8-2.3c-0.9-0.9-1.8-2.4-1.8-4.6l9.8-258.3l9.8-259.5c0.8-19.6,4.9-35.7,12.1-46.7c6.1-9.3,13.9-14.2,22.5-14.2
			c5.5,0,10,2,13.6,6c8.2,9.2,11.1,28.1,8.2,53.3c0,0.2-0.1,0.5-0.1,0.7l-58.8,517.8c0,0.1,0,0.1,0,0.2C660,775.6,655.6,779,651,779
			z M671.8,776.9c-1-1.1-1.5-2.6-1.3-4.3c0,0,0,0,0,0c0,0,0,0,0-0.1l58.8-517.8c0-0.3,0.1-0.5,0.1-0.8c0,0,0-0.1,0-0.1
			c2.3-19.3,8-35.2,16.4-46.2c7.1-9.2,15.8-14.3,24.5-14.3c3.4,0,6.3,0.8,8.7,2.3l-98.2,582.5c-1.2,0.5-2.5,0.7-3.7,0.7
			C674.9,779,673,778.3,671.8,776.9z M939.5,186.1l-26.2,155.6l-77.6,460.9l-24.4,25l-32.6-5.5L688,807c-1-0.2-1.7-1.2-1.6-2.2
			l3.8-22.2l99.1-587.8l4.1-24.1l1.5-8.8c0.1-0.6,0.5-1,0.7-1.2c0.3-0.2,0.8-0.4,1.2-0.4c0.1,0,0.2,0,0.3,0l88.3,14.7l52.4,8.8
			C939,184,939.6,185,939.5,186.1z"/>
		<path class="st2" d="M410.3,212.7c-0.5-2.7-3.1-4.5-5.9-4l-122.7,23.7c-1.3,0.3-2.5,1-3.2,2.1c-0.7,1.1-1,2.5-0.8,3.8l107.2,551
			c0.5,2.4,2.6,4,4.9,4c0.3,0,0.6,0,0.9-0.1l122.7-23.6c1.3-0.3,2.5-1,3.2-2.1c0.7-1.1,1-2.5,0.8-3.8L410.3,212.7z M393.9,782.5
			L288.6,241.4l112.9-21.8l105.3,541.3L393.9,782.5z"/>
		<path class="st2" d="M805.1,277.2c10.4,0,18.8-8.4,18.8-18.8c0-10.4-8.4-18.8-18.8-18.8c-10.4,0-18.8,8.4-18.8,18.8
			C786.3,268.8,794.7,277.2,805.1,277.2z M805.1,249.6c4.9,0,8.8,3.9,8.8,8.8c0,4.9-3.9,8.8-8.8,8.8s-8.8-3.9-8.8-8.8
			C796.3,253.5,800.2,249.6,805.1,249.6z"/>
		<path class="st2" d="M854.3,277.2c10.4,0,18.8-8.4,18.8-18.8c0-10.4-8.4-18.8-18.8-18.8s-18.8,8.4-18.8,18.8
			C835.5,268.8,843.9,277.2,854.3,277.2z M854.3,249.6c4.9,0,8.8,3.9,8.8,8.8c0,4.9-3.9,8.8-8.8,8.8s-8.8-3.9-8.8-8.8
			C845.5,253.5,849.4,249.6,854.3,249.6z"/>
		<path class="st2" d="M903.5,239.6c-10.4,0-18.8,8.4-18.8,18.8c0,10.4,8.4,18.8,18.8,18.8s18.8-8.4,18.8-18.8
			C922.3,248,913.9,239.6,903.5,239.6z M903.5,267.2c-4.9,0-8.8-3.9-8.8-8.8c0-4.9,3.9-8.8,8.8-8.8s8.8,3.9,8.8,8.8
			C912.3,263.3,908.4,267.2,903.5,267.2z"/>
		<path class="st2" d="M793.2,346.2c10.4,0,18.8-8.4,18.8-18.8c0-10.4-8.4-18.8-18.8-18.8s-18.8,8.4-18.8,18.8
			C774.4,337.8,782.8,346.2,793.2,346.2z M793.2,318.6c4.9,0,8.8,3.9,8.8,8.8c0,4.9-3.9,8.8-8.8,8.8s-8.8-3.9-8.8-8.8
			C784.4,322.5,788.3,318.6,793.2,318.6z"/>
		<path class="st2" d="M842.4,346.2c10.4,0,18.8-8.4,18.8-18.8c0-10.4-8.4-18.8-18.8-18.8c-10.4,0-18.8,8.4-18.8,18.8
			C823.6,337.8,832,346.2,842.4,346.2z M842.4,318.6c4.9,0,8.8,3.9,8.8,8.8c0,4.9-3.9,8.8-8.8,8.8s-8.8-3.9-8.8-8.8
			C833.6,322.5,837.5,318.6,842.4,318.6z"/>
		<path class="st2" d="M891.6,308.6c-10.4,0-18.8,8.4-18.8,18.8c0,10.4,8.4,18.8,18.8,18.8c10.4,0,18.8-8.4,18.8-18.8
			C910.4,317,902,308.6,891.6,308.6z M891.6,336.2c-4.9,0-8.8-3.9-8.8-8.8c0-4.9,3.9-8.8,8.8-8.8s8.8,3.9,8.8,8.8
			C900.4,332.3,896.5,336.2,891.6,336.2z"/>
		<path class="st2" d="M781.3,415.2c10.4,0,18.8-8.4,18.8-18.8c0-10.4-8.4-18.8-18.8-18.8s-18.8,8.4-18.8,18.8
			C762.5,406.8,770.9,415.2,781.3,415.2z M781.3,387.6c4.9,0,8.8,3.9,8.8,8.8c0,4.9-3.9,8.8-8.8,8.8s-8.8-3.9-8.8-8.8
			C772.5,391.5,776.4,387.6,781.3,387.6z"/>
		<path class="st2" d="M849.3,396.4c0-10.4-8.4-18.8-18.8-18.8s-18.8,8.4-18.8,18.8c0,10.4,8.4,18.8,18.8,18.8
			S849.3,406.8,849.3,396.4z M830.5,405.2c-4.9,0-8.8-3.9-8.8-8.8c0-4.9,3.9-8.8,8.8-8.8s8.8,3.9,8.8,8.8
			C839.3,401.3,835.4,405.2,830.5,405.2z"/>
		<path class="st2" d="M879.8,377.6c-10.4,0-18.8,8.4-18.8,18.8c0,10.4,8.4,18.8,18.8,18.8s18.8-8.4,18.8-18.8
			C898.6,386,890.2,377.6,879.8,377.6z M879.8,405.2c-4.9,0-8.8-3.9-8.8-8.8c0-4.9,3.9-8.8,8.8-8.8s8.8,3.9,8.8,8.8
			C888.6,401.3,884.7,405.2,879.8,405.2z"/>
		<path class="st2" d="M769.5,484.2c10.4,0,18.8-8.4,18.8-18.8c0-10.4-8.4-18.8-18.8-18.8s-18.8,8.4-18.8,18.8
			C750.7,475.8,759.1,484.2,769.5,484.2z M769.5,456.6c4.9,0,8.8,3.9,8.8,8.8c0,4.9-3.9,8.8-8.8,8.8s-8.8-3.9-8.8-8.8
			C760.7,460.5,764.6,456.6,769.5,456.6z"/>
		<path class="st2" d="M837.5,465.4c0-10.4-8.4-18.8-18.8-18.8s-18.8,8.4-18.8,18.8c0,10.4,8.4,18.8,18.8,18.8
			S837.5,475.8,837.5,465.4z M818.7,474.2c-4.9,0-8.8-3.9-8.8-8.8c0-4.9,3.9-8.8,8.8-8.8s8.8,3.9,8.8,8.8
			C827.5,470.3,823.6,474.2,818.7,474.2z"/>
		<path class="st2" d="M867.9,446.6c-10.4,0-18.8,8.4-18.8,18.8c0,10.4,8.4,18.8,18.8,18.8c10.4,0,18.8-8.4,18.8-18.8
			C886.7,455,878.3,446.6,867.9,446.6z M867.9,474.2c-4.9,0-8.8-3.9-8.8-8.8c0-4.9,3.9-8.8,8.8-8.8s8.8,3.9,8.8,8.8
			C876.7,470.3,872.8,474.2,867.9,474.2z"/>
		<path class="st2" d="M757.6,553.3c10.4,0,18.8-8.4,18.8-18.8s-8.4-18.8-18.8-18.8c-10.4,0-18.8,8.4-18.8,18.8
			S747.2,553.3,757.6,553.3z M757.6,525.7c4.9,0,8.8,3.9,8.8,8.8s-3.9,8.8-8.8,8.8s-8.8-3.9-8.8-8.8S752.7,525.7,757.6,525.7z"/>
		<path class="st2" d="M825.6,534.5c0-10.4-8.4-18.8-18.8-18.8s-18.8,8.4-18.8,18.8s8.4,18.8,18.8,18.8S825.6,544.9,825.6,534.5z
			 M806.8,543.3c-4.9,0-8.8-3.9-8.8-8.8s3.9-8.8,8.8-8.8s8.8,3.9,8.8,8.8S811.7,543.3,806.8,543.3z"/>
		<path class="st2" d="M856,515.7c-10.4,0-18.8,8.4-18.8,18.8s8.4,18.8,18.8,18.8s18.8-8.4,18.8-18.8S866.4,515.7,856,515.7z
			 M856,543.3c-4.9,0-8.8-3.9-8.8-8.8s3.9-8.8,8.8-8.8s8.8,3.9,8.8,8.8S860.9,543.3,856,543.3z"/>
		<path class="st2" d="M745.8,622.3c10.4,0,18.8-8.4,18.8-18.8s-8.4-18.8-18.8-18.8s-18.8,8.4-18.8,18.8S735.4,622.3,745.8,622.3z
			 M745.8,594.7c4.9,0,8.8,3.9,8.8,8.8s-3.9,8.8-8.8,8.8s-8.8-3.9-8.8-8.8S740.9,594.7,745.8,594.7z"/>
		<path class="st2" d="M776.2,603.5c0,10.4,8.4,18.8,18.8,18.8s18.8-8.4,18.8-18.8s-8.4-18.8-18.8-18.8S776.2,593.1,776.2,603.5z
			 M803.8,603.5c0,4.9-3.9,8.8-8.8,8.8s-8.8-3.9-8.8-8.8s3.9-8.8,8.8-8.8S803.8,598.6,803.8,603.5z"/>
		<path class="st2" d="M844.2,584.7c-10.4,0-18.8,8.4-18.8,18.8s8.4,18.8,18.8,18.8s18.8-8.4,18.8-18.8S854.6,584.7,844.2,584.7z
			 M844.2,612.3c-4.9,0-8.8-3.9-8.8-8.8s3.9-8.8,8.8-8.8s8.8,3.9,8.8,8.8S849.1,612.3,844.2,612.3z"/>
		<path class="st2" d="M733.9,653.7c-10.4,0-18.8,8.4-18.8,18.8s8.4,18.8,18.8,18.8c10.4,0,18.8-8.4,18.8-18.8
			S744.3,653.7,733.9,653.7z M733.9,681.3c-4.9,0-8.8-3.9-8.8-8.8s3.9-8.8,8.8-8.8s8.8,3.9,8.8,8.8S738.8,681.3,733.9,681.3z"/>
		<path class="st2" d="M783.1,653.7c-10.4,0-18.8,8.4-18.8,18.8s8.4,18.8,18.8,18.8c10.4,0,18.8-8.4,18.8-18.8
			S793.5,653.7,783.1,653.7z M783.1,681.3c-4.9,0-8.8-3.9-8.8-8.8s3.9-8.8,8.8-8.8s8.8,3.9,8.8,8.8S788,681.3,783.1,681.3z"/>
		<path class="st2" d="M832.3,653.7c-10.4,0-18.8,8.4-18.8,18.8s8.4,18.8,18.8,18.8s18.8-8.4,18.8-18.8S842.7,653.7,832.3,653.7z
			 M832.3,681.3c-4.9,0-8.8-3.9-8.8-8.8s3.9-8.8,8.8-8.8s8.8,3.9,8.8,8.8S837.2,681.3,832.3,681.3z"/>
		<path class="st2" d="M722.1,722.7c-10.4,0-18.8,8.4-18.8,18.8s8.4,18.8,18.8,18.8c10.4,0,18.8-8.4,18.8-18.8
			S732.5,722.7,722.1,722.7z M722.1,750.3c-4.9,0-8.8-3.9-8.8-8.8s3.9-8.8,8.8-8.8s8.8,3.9,8.8,8.8S727,750.3,722.1,750.3z"/>
		<path class="st2" d="M771.3,722.7c-10.4,0-18.8,8.4-18.8,18.8s8.4,18.8,18.8,18.8s18.8-8.4,18.8-18.8S781.7,722.7,771.3,722.7z
			 M771.3,750.3c-4.9,0-8.8-3.9-8.8-8.8s3.9-8.8,8.8-8.8s8.8,3.9,8.8,8.8S776.2,750.3,771.3,750.3z"/>
		<path class="st2" d="M820.5,722.7c-10.4,0-18.8,8.4-18.8,18.8s8.4,18.8,18.8,18.8s18.8-8.4,18.8-18.8S830.9,722.7,820.5,722.7z
			 M820.5,750.3c-4.9,0-8.8-3.9-8.8-8.8s3.9-8.8,8.8-8.8s8.8,3.9,8.8,8.8S825.4,750.3,820.5,750.3z"/>
	</g>
	<g>
		<path class="st7" d="M952,492c-11,0-20,9-20,20c0,56.7-11.1,111.7-33,163.5c-21.2,50-51.4,94.9-90,133.5s-83.5,68.9-133.5,90
			c-51.8,21.9-106.8,33-163.5,33c-56.7,0-111.7-11.1-163.5-33c-50-21.2-94.9-51.4-133.5-90s-68.9-83.5-90-133.5
			C103.1,623.7,92,568.7,92,512c0-11-9-20-20-20s-20,9-20,20c0,62.1,12.2,122.3,36.2,179.1c23.2,54.8,56.3,104,98.6,146.2
			c42.2,42.2,91.4,75.4,146.2,98.6c56.7,24,117,36.2,179.1,36.2s122.3-12.2,179.1-36.2c54.8-23.2,104-56.3,146.2-98.6
			c42.2-42.2,75.4-91.4,98.6-146.2c24-56.7,36.2-117,36.2-179.1C972,501,963,492,952,492z"/>
		<path class="st7" d="M321.7,135.2c2.9,0,5.9-0.6,8.6-2C387.3,105.9,448.4,92,512,92c48.3,0,95.7,8.1,140.8,24.2
			c10.4,3.7,21.8-1.7,25.5-12.1c3.7-10.4-1.7-21.8-12.1-25.5C616.8,60.9,564.9,52,512,52c-69.7,0-136.6,15.2-199,45.1
			c-10,4.8-14.1,16.7-9.4,26.7C307.1,131,314.3,135.2,321.7,135.2z"/>
	</g>
</g>
</svg>
