<?xml version="1.0" encoding="utf-8"?>
<!-- Generator: Adobe Illustrator 24.0.0, SVG Export Plug-In . SVG Version: 6.00 Build 0)  -->
<svg version="1.1" id="Capa_1" xmlns="http://www.w3.org/2000/svg" xmlns:xlink="http://www.w3.org/1999/xlink" x="0px" y="0px"
	 viewBox="0 0 1024 1024" style="enable-background:new 0 0 1024 1024;" xml:space="preserve">
<style type="text/css">
	.st0{fill:#9DD4A9;}
	.st1{fill:#F473C3;}
	.st2{fill:#C640A6;}
	.st3{fill:#FFD071;}
	.st4{fill:#F9A40D;}
	.st5{fill:#534A9A;}
	.st6{fill:#F9B630;}
	.st7{fill:#F7830F;}
	.st8{fill:#443F80;}
	.st9{fill:#F9F7FC;}
	.st10{fill:#DCDAEB;}
	.st11{fill:#FFFFFF;}
</style>
<g>
	<circle class="st0" cx="512" cy="512" r="440"/>
	<g>
		<g>
			<g>
				<g>
					<g>
						<circle class="st1" cx="799.2" cy="112.4" r="20.2"/>
						
							<rect x="813" y="116.9" transform="matrix(0.7071 -0.7071 0.7071 0.7071 145.4471 620.1968)" class="st1" width="16.7" height="35.3"/>
					</g>
					<g>
						<circle class="st1" cx="763.2" cy="148.4" r="20.2"/>
						
							<rect x="777" y="152.9" transform="matrix(0.7071 -0.7071 0.7071 0.7071 109.4332 605.2794)" class="st1" width="16.7" height="35.3"/>
					</g>
					<g>
						<circle class="st2" cx="907.7" cy="238.6" r="20.2"/>
						
							<rect x="877.3" y="198.9" transform="matrix(0.7071 -0.7071 0.7071 0.7071 106.2931 689.6898)" class="st2" width="16.7" height="35.3"/>
					</g>
					<g>
						<circle class="st2" cx="871.7" cy="274.7" r="20.2"/>
						
							<rect x="841.2" y="234.9" transform="matrix(0.7071 -0.7071 0.7071 0.7071 70.237 674.7147)" class="st2" width="16.7" height="35.3"/>
					</g>
				</g>
				<path class="st3" d="M329.1,867.9c-37.5-9.3-74.5-29.3-106.3-61.2c-0.7-0.7-1.4-1.4-2-2c-69.3-71-81.1-167.5-45.5-237.8
					c21.1-41.7,58.8-74.3,111-86.9c0.2-0.1,0.2-0.6,0.1-1.4c-0.6-5.9,5.3-10.3,10.8-8.2c24.5,9.3,74.3,24.1,97.4,1
					c18.5-18.5,24.6-45.7,19.2-73.9c-0.1-0.5-2.2-1.1-5-1.7c-5.5-1.2-6.9-8.4-2.2-11.5c10.6-7,25.2-17.8,37.5-31.4
					c61.9-67.8,155.3-42.2,215.8,16.5c61.9,60,89.4,154.5,13.7,219.1c-12.8,10.9-22.2,23.5-28.2,33.2c-3,4.8-10.2,3.5-11.5-1.9
					c-0.5-2.3-1.1-3.9-1.5-4c-28.3-5.4-55.6,0.7-74.1,19.2c-19.1,19.1-5.5,73.2,2.2,98.2c1.7,5.5-2.8,10.9-8.5,10.3
					c-1.4-0.2-2.3-0.1-2.4,0.2C525.1,844.3,425.5,891.7,329.1,867.9z"/>
				<g>
					<path class="st4" d="M532.7,563.1c-2.5,2.5-6.4,2.5-8.9,0l-28.7-28.7l-28.6-28.6c-2.5-2.5-2.5-6.4,0-8.9L813.6,172l21.9,21.9
						l22.1,22.1L532.7,563.1z"/>
					<path class="st4" d="M367.4,705.1l-113.9,92.4c-5.8,4.7-14.5,4.1-20.1-1.5l0,0c-5.6-5.6-6.2-14.3-1.4-20.1l92.5-113.8
						c2.3-2.9,6.7-3.1,9.3-0.5l34.2,34.2C370.6,698.4,370.3,702.7,367.4,705.1z"/>
				</g>
				<path class="st5" d="M826,265.3l-30.9-30.9l-30.7-30.7c-2.8-2.8-1.6-8.5,2.6-12.2l126.8-98.6c3.7-3.2,8.4-3.8,10.9-1.3
					l16.6,16.6l16.4,16.4c2.5,2.5,1.9,7.2-1.3,10.9l-98.2,127.2C834.5,266.9,828.8,268.1,826,265.3z"/>
				<path class="st6" d="M329.1,867.9c-37.5-9.3-74.5-29.3-106.3-61.2l437.3-437.3c61.9,60,89.4,154.5,13.7,219.1
					c-12.8,10.9-22.2,23.5-28.2,33.2c-3,4.8-10.2,3.5-11.5-1.9c-0.5-2.3-1.1-3.9-1.5-4c-28.3-5.4-55.6,0.7-74.1,19.2
					c-19.1,19.1-5.5,73.2,2.2,98.2c1.7,5.5-2.8,10.9-8.5,10.3c-1.4-0.2-2.3-0.1-2.4,0.2C525.1,844.3,425.5,891.7,329.1,867.9z"/>
				<path class="st7" d="M532.7,563.1c-2.5,2.5-6.4,2.5-8.9,0l-28.7-28.7L835.5,194l22.1,22.1L532.7,563.1z"/>
				<path class="st8" d="M826,265.3l-30.9-30.9l126.2-126.2l16.4,16.4c2.5,2.5,1.9,7.2-1.3,10.9l-98.2,127.2
					C834.5,266.9,828.8,268.1,826,265.3z"/>
				<path class="st1" d="M942.9,157.2l-27.6,27.6c-3.4,3.4-8.5,4.2-12.7,2l-34.9-17.7c-1.6-0.8-2.9-1.9-3.9-3.3
					c-0.3-0.4-0.6-0.8-0.8-1.3l-20-37.3c-2.3-4.3-1.5-9.5,1.9-12.9l27.9-27.9c2.2-2.2,5.3-3.4,8.5-3.2l11.8,0.8
					c2.7,0.2,5.2,1.3,7,3.2l21.1,21.1l21.1,21.1c2,2,3.1,4.6,3.2,7.3L946,149C946.2,152,945.1,155,942.9,157.2z"/>
				<path class="st5" d="M329.1,867.9c-37.5-9.3-74.5-29.3-106.3-61.2c-0.7-0.7-1.4-1.4-2-2c-69.3-71-81.1-167.5-45.5-237.8
					c43.1,22.7,85.6,55.2,89.4,98.7c4.8,55.8-18.9,65.7-32.6,89c-8.2,13.9-11.6,28.1,0.7,42.3c8.3,9.6,23.8,19.2,49.8,28.6
					C309.1,835,322.5,851.7,329.1,867.9z"/>
				<path class="st2" d="M942.9,157.2l-27.6,27.6c-3.4,3.4-8.5,4.2-12.7,2l-34.9-17.7c-1.6-0.8-2.9-1.9-3.9-3.3l57.6-57.6l21.1,21.1
					c2,2,3.1,4.6,3.2,7.3l0.5,12.3C946.2,152,945.1,155,942.9,157.2z"/>
				<path class="st7" d="M367.4,705.1l-113.9,92.4c-5.8,4.7-14.5,4.1-20.1-1.5l0,0l117.4-117.4l17.1,17.1
					C370.6,698.4,370.3,702.7,367.4,705.1z"/>
				<g>
					<path class="st8" d="M459.4,764.4c-2,0-4.1-0.5-5.9-1.6c-8.7-5.1-18.5-18.6-19.3-36c-0.7-14.5,4.6-36.1,33.8-57.1
						c29.5-21.2,24.6-34.5,24.5-34.6c-3.5-5.5-1.8-12.8,3.7-16.3s12.8-1.8,16.3,3.7c0.8,1.2,18.7,30.9-30.7,66.4
						c-16.3,11.7-24.6,24.4-24,36.8c0.4,9.5,5.9,15.7,7.7,16.7c5.6,3.3,7.5,10.5,4.2,16.1C467.4,762.3,463.5,764.4,459.4,764.4z"/>
					<path class="st5" d="M266.3,561c-0.2,2,0.2,4.1,1.1,6.1c4.3,9.1,16.9,20,34.2,22.3c14.4,1.9,36.4-1.5,59.8-28.8
						c23.6-27.6,36.5-21.5,36.6-21.4c5.2,3.9,12.6,2.9,16.5-2.3s2.9-12.6-2.3-16.5c-1.2-0.9-29.2-21.3-68.7,24.9
						c-13.1,15.2-26.4,22.4-38.7,20.8c-9.4-1.3-15.1-7.2-16-9.1c-2.8-5.9-9.8-8.4-15.7-5.6C269.1,553.2,266.7,556.9,266.3,561z"/>
					<path class="st9" d="M453,641.5c-1.5,1.5-3.4,2.2-5.3,2.2s-3.8-0.7-5.3-2.2l-54.3-54.3c-2.9-2.9-2.9-7.6,0-10.6
						c1.5-1.5,3.4-2.2,5.3-2.2s3.8,0.7,5.3,2.2l54.3,54.3C455.9,633.8,455.9,638.5,453,641.5z"/>
					<path class="st10" d="M453,641.5c-1.5,1.5-3.4,2.2-5.3,2.2s-3.8-0.7-5.3-2.2l-27.2-27.2l10.6-10.6l27.2,27.2
						C455.9,633.8,455.9,638.5,453,641.5z"/>
				</g>
				<path class="st8" d="M329.1,867.9c-37.5-9.3-74.5-29.3-106.3-61.2l9.9-9.9c8.3,9.6,23.8,19.2,49.8,28.6
					C309.1,835,322.5,851.7,329.1,867.9z"/>
			</g>
			<g>
				<polygon class="st5" points="524.2,239.2 574.7,238.7 574.7,174.4 524.2,174.4 				"/>
				<g>
					<path class="st4" d="M513.3,858.9c-0.8-0.8-1.4-1.6-2-2.6c-3.2-5.7-1.1-12.9,4.6-16l7.2-4c17.2-9.6,28.8-35.1,28.8-63.5V117.1
						c0-6.5,5.3-11.8,11.8-11.8s11.8,5.3,11.8,11.8v655.7c0,37.2-16.1,70.2-40.9,84.1l-7.2,4C522.6,863.5,516.9,862.6,513.3,858.9z"
						/>
				</g>
				<path class="st9" d="M532.6,159.3v700.4c0,3.5-2.8,6.3-6.3,6.3h-10.6c-3.5,0-6.3-2.8-6.3-6.3V159.3c0-3.5,2.8-6.3,6.3-6.3h10.6
					C529.8,153,532.6,155.9,532.6,159.3z"/>
			</g>
		</g>
	</g>
</g>
<g>
	<g>
		<path class="st11" d="M900.3,191.2c2.3,1.2,4.8,1.8,7.3,1.8c4.1,0,8.2-1.6,11.2-4.7l27.6-27.6c3.2-3.2,4.8-7.5,4.6-12l-0.5-12.2
			c-0.1-4-1.8-7.8-4.7-10.7l-3.6-3.6c-0.3-0.4-0.6-0.8-1-1.2l-33-33c-0.4-0.4-0.8-0.7-1.2-1l-3.3-3.3c-2.6-2.7-6.2-4.4-10.2-4.7
			l-11.8-0.8c-4.6-0.3-9.1,1.4-12.3,4.7l-27.9,27.9c-5,5-6.1,12.5-2.8,18.7l-1.9,1.5L823.8,118c0.4-1.8,0.6-3.7,0.6-5.6
			c0-13.9-11.3-25.2-25.2-25.2S774,98.5,774,112.4c0,13.9,11.3,25.2,25.2,25.2c2,0,3.9-0.2,5.7-0.7l10.5,10.5l-19.3,15l-8.4-8.4
			c0.4-1.8,0.6-3.7,0.6-5.7c0-13.9-11.3-25.2-25.2-25.2S738,134.5,738,148.4c0,13.9,11.3,25.2,25.2,25.2c2,0,3.9-0.2,5.7-0.7
			l6.1,6.1l-11,8.6l-0.2,0.2c-3.5,3.1-5.7,7.4-5.8,11.5c-0.1,3.1,1,5.9,3,7.9l3.8,3.8L628.8,338.1c-15.6-10.2-31.8-18-48.3-23.2
			V117.1c0-9.3-7.5-16.8-16.8-16.8s-16.8,7.5-16.8,16.8v52.3h-9.3v-10.1c0-6.2-5.1-11.3-11.3-11.3h-10.6c-6.2,0-11.3,5.1-11.3,11.3
			v151.6c-24.3,5.8-45.8,18.8-64,38.7c-9.5,10.5-22.1,21-36.5,30.6c-3.9,2.6-5.7,7-4.9,11.5c0.8,4.5,4.3,8.1,8.8,9
			c0.6,0.1,1.2,0.3,1.6,0.4c4.4,26.5-2.2,50.7-18.3,66.8c-7.2,7.2-30.4,21.3-92.1-2.1c-4.2-1.6-8.9-0.9-12.6,1.8
			c-2.8,2.1-4.5,5.2-5,8.5c-47.3,12.4-85.5,42.1-108.3,84.1l-0.1,0l-2.3,4.5c-18.3,36.1-24.3,79.3-17.1,121.7
			c7.7,45.1,29.7,87.2,63.5,121.9l2,2c13.2,13.2,27.6,24.7,42.9,34.4c12.7,8,26,14.7,39.8,20c0.6,0.2,1.2,0.5,1.9,0.7
			c0.6,0.2,1.2,0.5,1.8,0.7c7.3,2.7,14.8,5,22.3,6.8c0,0,0,0,0,0l9.5,2.4l-0.1-0.3c13.7,2.7,27.4,4.1,41,4.1
			c47.7,0,92.8-16.7,126.1-47.5v28.3c0,6.2,5.1,11.3,11.3,11.3h10.6c5.8,0,10.6-4.4,11.2-10c26.1-14.9,43-49.5,43-88.2V625.6
			c14.1-6.5,30.7-8.3,48.4-5.4c0,0.2,0.1,0.4,0.1,0.6l0,0.1c1.1,4.5,4.7,7.8,9.2,8.5c4.6,0.7,8.9-1.2,11.4-5.2
			c5.3-8.5,14.3-21,27.2-32c30.8-26.3,47.3-59.8,47.6-96.8c0.3-31.7-10.8-64.6-32.2-95.6L818.6,265l3.9,3.9c1.9,1.9,4.6,3,7.5,3
			c0.1,0,0.3,0,0.4,0c4.1-0.1,8.5-2.3,11.5-5.8l0.9-1.2l4.3,4.3c-0.4,1.8-0.7,3.7-0.7,5.7c0,13.9,11.3,25.2,25.2,25.2
			s25.2-11.3,25.2-25.2c0-13.9-11.3-25.2-25.2-25.2c-1.9,0-3.8,0.2-5.7,0.7l-6.7-6.7l15-19.4l8.8,8.8c-0.4,1.8-0.7,3.7-0.7,5.7
			c0,13.9,11.3,25.2,25.2,25.2s25.2-11.3,25.2-25.2c0-13.9-11.3-25.2-25.2-25.2c-1.9,0-3.8,0.2-5.6,0.6l-11.3-11.3l9.1-11.7
			L900.3,191.2z M848.4,117.8l27.9-27.9c1.2-1.2,2.9-1.9,4.6-1.7l11.8,0.8c1.5,0.1,2.8,0.7,3.7,1.7l42.3,42.3c1.1,1.1,1.7,2.5,1.7,4
			l0.5,12.3l0,0.1c0.1,1.6-0.5,3.2-1.6,4.3l-27.6,27.6c-1.8,1.8-4.6,2.3-6.9,1.1l-34.9-17.7c-0.9-0.4-1.5-1-2.1-1.7l-0.1-0.1
			c-0.1-0.1-0.1-0.2-0.2-0.3l-20.2-37.7C846.2,122.5,846.6,119.7,848.4,117.8z M784,112.4c0-8.4,6.8-15.2,15.2-15.2
			s15.2,6.8,15.2,15.2s-6.8,15.2-15.2,15.2S784,120.8,784,112.4z M814.5,132.4c1.8-1.4,3.4-3,4.7-4.7l9.5,9.5l-5.3,4.1L814.5,132.4z
			 M748,148.4c0-8.4,6.8-15.2,15.2-15.2s15.2,6.8,15.2,15.2s-6.8,15.2-15.2,15.2S748,156.8,748,148.4z M778.5,168.4
			c1.8-1.4,3.4-3,4.7-4.7l5,5l-5.3,4.1L778.5,168.4z M580.5,397l49.3-46.1c9.4,6.6,18.3,14,26.6,22.1c8.4,8.1,16.1,16.9,23,26.1
			l-98.9,105.7V397z M580.5,383.3v-57.8c13.8,4.7,27.5,11.3,40.8,19.7L580.5,383.3z M556.9,117.1c0-3.7,3.1-6.8,6.8-6.8
			s6.8,3.1,6.8,6.8V312v6.7v76.2v224.6c-4.9,2.8-9.5,6.1-13.6,9.9V417V313.6v-4.4V117.1z M452.8,725.9c0.5,11.5,7.1,19,10.2,20.8
			c1.6,0.9,2.7,2.4,3.1,4.1c0.5,1.7,0.2,3.6-0.7,5.1c-1.3,2.2-3.5,3.5-6,3.5c-1.2,0-2.4-0.3-3.4-0.9c-7.8-4.6-16.1-17-16.8-31.9
			c-0.6-13.2,4.3-33.1,31.7-52.8c21.1-15.2,26.3-27.2,26.9-34.6c0.1-1.4,0.2-4.6-1.1-6.7l0,0c-2-3.1-1-7.4,2.2-9.4
			c1.7-1.1,3.7-1.3,5.5-0.8v37.1c-5.4,8.6-14,17.2-25.5,25.5C461.1,697.6,452.1,711.8,452.8,725.9z M537.6,565.1l9.3-9.9v89.4
			c-4.4,12.8-4.4,31.2,0,54.8v40c-1.2,0.8-1.7,1.8-2,2.6l-0.1,0.5c-1.9,7.8-4.3,15.3-7.1,22.6V565.1z M537.6,244.1l9.3-0.1V308
			c-3.1-0.3-6.2-0.5-9.3-0.6V244.1z M537.6,317.5c3.1,0.1,6.2,0.3,9.3,0.6v96.7l-9.3,8.7V317.5z M537.6,437.2l9.3-8.7v112.1
			l-9.3,9.9V437.2z M537.6,788.7c3.5-6.4,6.6-13,9.3-19.9v4c0,15-3.4,29.2-9.3,40.4V788.7z M546.9,179.4V234l-9.3,0.1v-54.7H546.9z
			 M514.4,835.4V159.3c0-0.7,0.6-1.3,1.3-1.3h10.6c0.8,0,1.3,0.7,1.3,1.3v667.4v12.7v15.6l-2.6,1.4c-2.8,1.5-6,1.1-8.2-1.1
			c-0.5-0.5-0.8-0.9-1.2-1.6c-0.9-1.6-1.2-3.1-1.2-6.2V835.4z M504.4,536.6L470,502.3c-0.5-0.5-0.5-1.2,0-1.8l34.4-32.2V536.6z
			 M163.6,684.7c-0.2-1.2-0.4-2.5-0.6-3.7c-0.1-0.4-0.1-0.8-0.2-1.3c-0.1-0.8-0.2-1.6-0.3-2.4c-0.1-0.5-0.1-1-0.2-1.5
			c-0.1-0.7-0.2-1.5-0.3-2.2c-0.1-0.5-0.1-1.1-0.2-1.6c-0.1-0.7-0.1-1.4-0.2-2.1c-0.1-0.6-0.1-1.1-0.1-1.7c-0.1-0.7-0.1-1.4-0.2-2
			c0-0.6-0.1-1.1-0.1-1.7c0-0.7-0.1-1.3-0.1-2c0-0.6-0.1-1.1-0.1-1.7c0-0.7-0.1-1.3-0.1-2c0-0.6,0-1.1-0.1-1.7c0-0.7,0-1.3-0.1-2
			c0-0.6,0-1.2,0-1.7c0-0.7,0-1.3,0-1.9c0-0.6,0-1.2,0-1.7c0-0.6,0-1.3,0-1.9c0-0.6,0-1.2,0-1.7c0-0.6,0-1.3,0.1-1.9
			c0-0.6,0-1.2,0.1-1.7c0-0.6,0.1-1.3,0.1-1.9c0-0.6,0.1-1.2,0.1-1.7c0-0.6,0.1-1.3,0.1-1.9c0-0.6,0.1-1.2,0.1-1.7
			c0.1-0.6,0.1-1.3,0.2-1.9c0.1-0.6,0.1-1.1,0.2-1.7c0.1-0.6,0.1-1.3,0.2-1.9c0.1-0.6,0.1-1.1,0.2-1.7c0.1-0.6,0.2-1.3,0.2-1.9
			c0.1-0.6,0.1-1.1,0.2-1.7c0.1-0.6,0.2-1.3,0.3-1.9c0.1-0.5,0.2-1.1,0.3-1.6c0.1-0.7,0.2-1.3,0.3-1.9c0.1-0.5,0.2-1.1,0.3-1.6
			c0.1-0.7,0.3-1.3,0.4-2c0.1-0.5,0.2-1,0.3-1.5c0.1-0.7,0.3-1.4,0.5-2.1c0.1-0.5,0.2-0.9,0.3-1.4c0.2-0.9,0.4-1.7,0.6-2.6
			c0.1-0.3,0.1-0.6,0.2-0.9c0.3-1.2,0.6-2.3,0.9-3.5c0.1-0.3,0.2-0.6,0.3-0.9c0.2-0.8,0.5-1.7,0.7-2.5c0.1-0.4,0.3-0.9,0.4-1.3
			c0.2-0.7,0.4-1.4,0.6-2.1c0.1-0.5,0.3-0.9,0.5-1.4c0.2-0.7,0.4-1.3,0.6-2c0.2-0.5,0.3-1,0.5-1.5c0.2-0.6,0.4-1.3,0.7-1.9
			c0.2-0.5,0.4-1,0.5-1.5c0.2-0.6,0.4-1.2,0.7-1.9c0.2-0.5,0.4-1,0.6-1.5c0.2-0.6,0.5-1.2,0.7-1.8c0.2-0.5,0.4-1,0.6-1.5
			c0.2-0.6,0.5-1.2,0.7-1.8c0.2-0.5,0.4-1,0.6-1.5c0.3-0.6,0.5-1.2,0.8-1.8c0.2-0.5,0.4-1,0.7-1.5c0.2-0.3,0.3-0.7,0.5-1
			c51.7,28.1,79.3,59.1,82.2,92.3c3.5,40.4-8.1,54.8-20.4,70.1c-4,4.9-8,10-11.5,15.9c-7,11.9-14.6,29.9,1.2,48.1
			c9.5,11,26.5,20.9,51.9,30c17.4,6.2,30.4,16.3,38.7,29.9c-2-0.6-4-1.3-6-2c-0.2-0.1-0.4-0.1-0.6-0.2c-1.9-0.7-3.8-1.3-5.7-2
			c-0.3-0.1-0.6-0.2-0.8-0.3c-1.9-0.7-3.7-1.4-5.5-2.2c-0.3-0.1-0.6-0.2-0.9-0.4c-1.9-0.8-3.7-1.6-5.5-2.4c-0.2-0.1-0.5-0.2-0.7-0.3
			c-1.9-0.9-3.8-1.8-5.7-2.7c-0.1,0-0.1-0.1-0.2-0.1c-1.9-0.9-3.8-1.9-5.6-2.9c-0.1-0.1-0.3-0.1-0.4-0.2c-1.8-1-3.6-2-5.4-3
			c-0.3-0.1-0.5-0.3-0.8-0.4c-1.7-1-3.5-2-5.2-3.1c-0.3-0.2-0.6-0.3-0.8-0.5c-1.7-1.1-3.4-2.1-5.1-3.2c-0.2-0.2-0.5-0.3-0.7-0.5
			c-1.7-1.1-3.5-2.3-5.2-3.5c-0.1-0.1-0.3-0.2-0.4-0.3c-1.7-1.2-3.5-2.5-5.2-3.7c-0.1-0.1-0.2-0.1-0.2-0.2c-1.7-1.3-3.4-2.6-5.1-3.9
			c-0.2-0.2-0.4-0.3-0.7-0.5c-1.6-1.3-3.2-2.6-4.8-3.9c-0.3-0.2-0.5-0.4-0.8-0.7c-1.6-1.3-3.1-2.6-4.6-4c-0.2-0.2-0.5-0.4-0.7-0.7
			c-1.6-1.4-3.1-2.8-4.6-4.2c-0.2-0.2-0.4-0.3-0.5-0.5c-1.6-1.5-3.2-3-4.7-4.6l-2-2C192,768.1,171,727.8,163.6,684.7z M236.9,792.5
			c-3.8-3.8-4.3-9.5-1.1-13.4l92.5-113.8c0.3-0.3,0.7-0.4,0.9-0.4c0,0,0,0,0.1,0c0.2,0,0.6,0,0.9,0.4l34.2,34.2
			c0.2,0.2,0.3,0.5,0.3,0.8c0,0.2-0.1,0.7-0.5,1.1l-113.9,92.4C246.5,796.7,240.7,796.3,236.9,792.5z M332.7,863.6
			c-9-20.1-25.2-34.5-48.4-42.8c-14.1-5.1-25.5-10.4-34.2-16c2.3-0.7,4.5-1.8,6.5-3.4L370.5,709l0,0c2.5-2.1,4-5.1,4.2-8.3
			c0.1-3.1-1-6.2-3.2-8.4l-34.2-34.2c-2.3-2.3-5.4-3.5-8.6-3.3c-3.2,0.2-6.2,1.7-8.1,4.1l-89.7,110.3c1.1-3.8,2.9-7.8,5.5-12.1
			c3.1-5.3,6.8-9.9,10.7-14.8c12.4-15.4,26.4-32.9,22.6-77.2c-3.2-36.7-32.7-70.5-87.6-100.3c22-40.5,59.3-68.8,105.4-80l0.6-0.1
			l0.5-0.3c1.6-0.8,3.3-2.5,2.8-6.4c-0.1-1.4,0.7-2.2,1.1-2.6c0.4-0.3,1.5-1,2.9-0.4c27.8,10.5,78,24.5,102.7-0.1
			c19-19,26.5-47.5,20.6-78.4c-0.8-3.9-4.7-4.7-8.8-5.6c-0.8-0.2-1-0.7-1.1-1.1c-0.1-0.6,0.1-1,0.6-1.3c15.3-10.1,28.3-21,38.4-32.2
			c16.2-17.7,35.2-29.5,56.6-35.1v133.4l-41.3,38.7l-0.1,0.1c-4.5,4.5-4.5,11.5,0,16l41.4,41.4v61.3c-3.7-0.4-7.6,0.4-10.9,2.5
			c-7.6,4.8-10,14.7-5.7,22.4c0.2,1.9,0.1,12.2-22.7,28.6c-31,22.3-36.6,45.7-35.9,61.4c0.9,19.3,11.9,34.3,21.7,40
			c2.5,1.5,5.4,2.3,8.5,2.3c6,0,11.4-3.1,14.6-8.4c2.3-3.9,2.9-8.4,1.8-12.7c-1.1-4.3-3.9-7.9-7.7-10.2c-0.9-0.7-4.9-5.2-5.3-12.6
			c-0.5-10.6,7.1-21.8,21.9-32.5c7.8-5.6,14.3-11.3,19.7-17.2v141.6C462.6,861.1,397.2,878.7,332.7,863.6z M537.6,849v-18.3
			c12.1-13.6,19.3-35.1,19.3-58V699h-5l4.9-0.9c-4.2-22.3-4.3-39.9-0.2-50.9c1.3-3.6,3.1-6.5,5.2-8.6c2.7-2.7,5.6-5.1,8.7-7.2v141.5
			C570.5,805.3,557.8,834.4,537.6,849z M670.4,584.7c-13.9,11.8-23.5,25.2-29.2,34.4c-0.1,0.2-0.5,0.7-1.3,0.6
			c-0.3-0.1-0.9-0.3-1.1-1c-0.8-3.4-1.8-6.9-5.1-7.7l-0.3-0.1c-19-3.6-37.1-2.3-52.8,3.9v-95.4l104.8-112
			C719.9,458.9,733.4,530.9,670.4,584.7z M686.3,391.7c-6.9-9.1-14.6-17.8-22.9-25.8c-8.2-8-17-15.3-26.2-21.9l134.5-125.9
			l39.8,39.8L686.3,391.7z M886.9,274.7c0,8.4-6.8,15.2-15.2,15.2s-15.2-6.8-15.2-15.2s6.8-15.2,15.2-15.2S886.9,266.3,886.9,274.7z
			 M856.4,254.7c-1.8,1.4-3.4,3-4.7,4.7l-2.6-2.6l4.1-5.3L856.4,254.7z M922.9,238.6c0,8.4-6.8,15.2-15.2,15.2s-15.2-6.8-15.2-15.2
			s6.8-15.2,15.2-15.2S922.9,230.2,922.9,238.6z M892.4,218.6c-1.8,1.4-3.4,3-4.7,4.7l-7.2-7.2l4.1-5.3L892.4,218.6z M834.4,259.5
			c-2.1,2.3-4.4,2.5-4.8,2.3L768,200.2c-0.2-0.4,0-2.8,2.2-4.9l73.2-56.9l15.1,28.2c0.4,0.9,0.9,1.6,1.3,2.1c1.5,2,3.4,3.7,5.7,4.8
			l25.3,12.9L834.4,259.5z"/>
		<path class="st11" d="M415.2,516.4c-1.5-1.1-9.8-6.8-23.2-6.2c-17.3,0.8-34.9,11.5-52.3,31.8c-11.9,13.9-23.8,20.5-34.2,19.1
			c-7.4-1-11.6-5.4-12.2-6.4c-1.9-4-5.3-7-9.5-8.5c-4.2-1.5-8.7-1.3-12.8,0.6c-5.5,2.5-9.1,7.6-9.7,13.6c-0.3,2.8,0.2,5.8,1.6,8.7
			c4.9,10.3,18.9,22.6,38.1,25.1c2.3,0.3,4.7,0.5,7.3,0.5c15.3,0,35.8-6.2,57-31c18.3-21.4,28.7-20.5,30.5-20.2
			c7.4,5,17.4,3.4,22.8-3.8c2.7-3.6,3.8-8,3.2-12.4C421.1,523,418.8,519.1,415.2,516.4z M410.5,533.9c-2.2,3-6.5,3.6-9.5,1.3l0,0
			c-2.4-1.7-6.6-1.7-7.5-1.6c-7.3,0.3-19.5,4.6-35.9,23.8c-12.1,14.1-31.5,30.2-55.3,27.1c-14.8-2-26.5-11.3-30.3-19.4
			c-0.6-1.2-0.8-2.5-0.7-3.6l0,0c0.2-2.5,1.7-4.5,3.9-5.5l0.1,0c0.9-0.4,1.9-0.7,2.9-0.7c0.8,0,1.5,0.1,2.3,0.4
			c1.7,0.6,3.1,1.8,3.8,3.5c1.9,4,9.5,10.5,19.9,11.9c14,1.8,28.9-6,43.1-22.5c36.3-42.5,60.9-24.9,61.9-24.1
			c1.4,1.1,2.4,2.7,2.6,4.4C412.1,530.6,411.6,532.4,410.5,533.9z"/>
	</g>
	<path class="st3" d="M512,972c-62.1,0-122.3-12.2-179.1-36.2c-54.8-23.2-104-56.3-146.2-98.6c-42.2-42.2-75.4-91.4-98.6-146.2
		C64.2,634.3,52,574.1,52,512s12.2-122.3,36.2-179.1c23.2-54.8,56.3-104,98.6-146.2s91.4-75.4,146.2-98.6
		C389.7,64.2,449.9,52,512,52c11,0,20,9,20,20s-9,20-20,20c-56.7,0-111.7,11.1-163.5,33c-50,21.2-94.9,51.4-133.5,90
		s-68.9,83.5-90,133.5C103.1,400.3,92,455.3,92,512c0,56.7,11.1,111.7,33,163.5c21.2,50,51.4,94.9,90,133.5s83.5,68.9,133.5,90
		c51.8,21.9,106.8,33,163.5,33c56.7,0,111.7-11.1,163.5-33c50-21.2,94.9-51.4,133.5-90s68.9-83.5,90-133.5
		c21.9-51.8,33-106.8,33-163.5c0-14.1-0.7-28.3-2.1-42.2c-1.1-11,6.9-20.8,17.9-21.9c11-1.1,20.8,6.9,21.9,17.9
		c1.5,15.2,2.3,30.8,2.3,46.2c0,62.1-12.2,122.3-36.2,179.1c-23.2,54.8-56.3,104-98.6,146.2c-42.2,42.2-91.4,75.4-146.2,98.6
		C634.3,959.8,574.1,972,512,972z"/>
</g>
</svg>
