<?xml version="1.0" encoding="utf-8"?>
<!-- Generator: Adobe Illustrator 24.0.0, SVG Export Plug-In . SVG Version: 6.00 Build 0)  -->
<svg version="1.1" id="Capa_1" xmlns="http://www.w3.org/2000/svg" xmlns:xlink="http://www.w3.org/1999/xlink" x="0px" y="0px"
	 viewBox="0 0 1024 1024" style="enable-background:new 0 0 1024 1024;" xml:space="preserve">
<style type="text/css">
	.st0{fill:#FFD071;}
	.st1{fill:#F9B630;}
	.st2{fill:#F473C3;}
	.st3{fill:#F9F7FC;}
	.st4{fill:#C640A6;}
	.st5{fill:#DCDAEB;}
	.st6{fill:#9DD4A9;}
	.st7{fill:#2A286B;}
	.st8{fill:#443F80;}
	.st9{fill:#FFFFFF;}
</style>
<g>
	<path class="st0" d="M952,512c0,127.7-54.4,242.6-141.2,323c-39,36.1-84.6,65.3-134.8,85.4C625.3,940.8,570,952,512,952
		C269,952,72,755,72,512c0-57.8,11.2-113,31.4-163.6c15.4-38.4,36-74.2,61.1-106.3c26.4-33.9,57.6-63.8,92.6-88.8
		c22.7-16.1,46.9-30.2,72.5-41.8C385.1,86.1,446.9,72,512,72c27.3,0,54,2.5,79.9,7.2c123.3,22.6,228.7,96.6,293,199
		c24.7,39.3,43.3,82.7,54.6,129.1C947.7,440.9,952,475.9,952,512z"/>
	<g>
		<g>
			<g>
				<path class="st1" d="M800.4,144.7l-11.5,11.5c-1.9,1.9-5,1.9-6.8,0l0,0c-1.9-1.9-1.9-5,0-6.8l11.5-11.5c1.9-1.9,5-1.9,6.8,0l0,0
					C802.3,139.8,802.3,142.9,800.4,144.7z"/>
				<path class="st1" d="M806.3,162.1L806.3,162.1c-2,2-5.4,2-7.4,0l-10.3-10.3c-2-2-2-5.4,0-7.4l0,0c2-2,5.4-2,7.4,0l10.3,10.3
					C808.3,156.7,808.3,160,806.3,162.1z"/>
			</g>
			<g>
				<path class="st1" d="M826.2,133.9l-11.5,11.4c-1.9,1.9-5,1.9-6.8,0l0,0c-1.9-1.9-1.9-5,0-6.8l11.5-11.5c1.9-1.9,5-1.9,6.8,0l0,0
					C828,128.9,828,132,826.2,133.9z"/>
				<path class="st1" d="M832,151.2L832,151.2c-2,2-5.4,2-7.4,0l-10.3-10.3c-2-2-2-5.4,0-7.4l0,0c2-2,5.4-2,7.4,0l10.3,10.3
					C834.1,145.8,834.1,149.1,832,151.2z"/>
			</g>
			<g>
				<path class="st1" d="M851.9,123l-11.5,11.5c-1.9,1.9-5,1.9-6.8,0l0,0c-1.9-1.9-1.9-5,0-6.8l11.5-11.5c1.9-1.9,5-1.9,6.8,0l0,0
					C853.8,118,853.8,121.1,851.9,123z"/>
				<path class="st1" d="M857.8,140.3L857.8,140.3c-2,2-5.4,2-7.4,0L840.1,130c-2-2-2-5.4,0-7.4l0,0c2-2,5.4-2,7.4,0l10.3,10.3
					C859.8,134.9,859.8,138.3,857.8,140.3z"/>
			</g>
			<g>
				<path class="st1" d="M877.7,112.1l-11.5,11.5c-1.9,1.9-5,1.9-6.8,0l0,0c-1.9-1.9-1.9-5,0-6.8l11.5-11.5c1.9-1.9,5-1.9,6.8,0l0,0
					C879.5,107.2,879.5,110.2,877.7,112.1z"/>
				<path class="st1" d="M883.5,129.4L883.5,129.4c-2,2-5.4,2-7.4,0l-10.3-10.3c-2-2-2-5.4,0-7.4l0,0c2-2,5.4-2,7.4,0l10.3,10.3
					C885.6,124,885.6,127.4,883.5,129.4z"/>
			</g>
			<g>
				<path class="st1" d="M903.4,101.2l-11.5,11.5c-1.9,1.9-5,1.9-6.8,0l0,0c-1.9-1.9-1.9-5,0-6.8l11.5-11.5c1.9-1.9,5-1.9,6.8,0l0,0
					C905.3,96.3,905.3,99.4,903.4,101.2z"/>
				<path class="st1" d="M909.3,118.6L909.3,118.6c-2,2-5.4,2-7.4,0l-10.4-10.3c-2-2-2-5.4,0-7.4l0,0c2-2,5.4-2,7.4,0l10.3,10.3
					C911.3,113.2,911.3,116.5,909.3,118.6z"/>
			</g>
		</g>
		<path class="st2" d="M858.3,245l-27.6-5.5c-4.7-0.9-9.5-0.9-14.1,0.1c-7.1,1.4-13.6,5-18.7,10.5l-3.4,3.7l-6.8,7.2l-15.1-23.4
			l-10.5-16.2l-2.7-4.2l8.2-7.7c3.4-3.2,6-7.1,7.5-11.5c1.1-3,1.6-6.2,1.6-9.5v-22.3l115.1-47.9l25.6-10.6l25.4,8
			C942.8,115.7,890.5,154.1,858.3,245z"/>
		<path class="st3" d="M458,612.6l-58.4-58.4l359.6-337.1l5.7-5.3l2.6-2.4c3.4-3.2,5.9-7.1,7.4-11.4l18.6,18.6l23.1,23
			c-7.1,1.5-13.6,5-18.7,10.4l-1.5,1.6l-2.1,2.1L458,612.6z"/>
		<path class="st4" d="M858.3,245l-27.6-5.5c-4.7-0.9-9.5-0.9-14.1,0.1c-7.1,1.4-13.6,5-18.7,10.5l-3.4,3.7l-6.8,7.2l-15.1-23.4
			l119.3-119.3l25.6-10.6l25.4,8C942.8,115.7,890.5,154.1,858.3,245z"/>
		<path class="st5" d="M458,612.6l-30.2-30.2l365.8-365.8l23.1,23c-7.1,1.5-13.6,5-18.7,10.4l-1.5,1.6l-2.1,2.1L458,612.6z"/>
		<g>
			<path class="st2" d="M295.8,848.3c-28.8-14.6-55-33.8-77.5-56.5c-21.8-22-40.2-47.5-54.4-75.4c-29.8-58.8-44.4-136.1,48.2-178.3
				c157.7-72,153.9-76.6,198.1-172.9s161.8-95.5,111.3-33.9c0,0-77.4,89.3,30.4,77.7l18.2,31l20.2,34.3
				c-75.3,92.8,17.2,101.9,46,86.2c16.1-8.9,34.8,7.7,27.4,24.6c-15.5,35.7-78.5,44.1-107.3,68.3c-24.4,24-43.6,62.2-82.2,146.8
				C431.9,892.8,354.6,878.1,295.8,848.3z"/>
			<path class="st4" d="M295.8,848.3c-28.8-14.6-55-33.8-77.5-56.5L570.1,440l20.2,34.3c-75.3,92.8,17.2,101.9,46,86.2
				c16.1-8.9,34.8,7.7,27.4,24.6c-15.5,35.7-78.5,44.1-107.3,68.3c-24.4,24-43.6,62.2-82.2,146.8
				C431.9,892.8,354.6,878.1,295.8,848.3z"/>
			<path class="st3" d="M453.9,635.7c-9.9,9.9-25.9,9.9-35.8,0l-41.5-41.5c-9.9-9.9-9.9-25.9,0-35.8c9.9-9.9,25.9-9.9,35.8,0
				l41.5,41.5C463.8,609.8,463.8,625.8,453.9,635.7z"/>
			<path class="st3" d="M398.5,708.4L372.9,734c-7.3,7.3-19.2,7.3-26.5,0l-68.2-68.2c-7.3-7.3-7.3-19.2,0-26.5l25.6-25.6
				c7.3-7.3,19.2-7.3,26.5,0l68.2,68.2C405.8,689.2,405.8,701.1,398.5,708.4z"/>
			<circle class="st6" cx="388.2" cy="766.2" r="20.8"/>
			<circle class="st6" cx="332.2" cy="821.8" r="20.8"/>
			<circle class="st7" cx="446.2" cy="770.2" r="20.8"/>
			<circle class="st8" cx="390.2" cy="825.8" r="20.8"/>
			<path class="st5" d="M418.1,635.7l-21.8-21.8l35.8-35.8l21.8,21.8c9.9,9.9,9.9,25.9,0,35.8S428,645.6,418.1,635.7z"/>
			<path class="st5" d="M398.5,708.4L372.9,734c-7.3,7.3-19.2,7.3-26.5,0l-35.1-35.1l52.1-52.1l35.1,35.1
				C405.8,689.2,405.8,701.1,398.5,708.4z"/>
		</g>
	</g>
</g>
<g>
	<path class="st6" d="M512,972c-62.1,0-122.3-12.2-179.1-36.2c-54.8-23.2-104-56.3-146.2-98.6c-42.2-42.2-75.4-91.4-98.6-146.2
		C64.2,634.3,52,574.1,52,512c0-58.9,11-116.5,32.8-171c16.1-40.1,37.6-77.5,63.9-111.2c27.5-35.4,60.1-66.6,96.7-92.8
		c24.3-17.2,49.8-31.9,75.9-43.7C381.2,65.9,445.3,52,512,52c27.9,0,56,2.5,83.5,7.5c10.9,2,18.1,12.4,16.1,23.2
		c-2,10.9-12.4,18.1-23.2,16.1C563.2,94.3,537.5,92,512,92c-60.9,0-119.4,12.7-174.1,37.7c-23.8,10.8-47.1,24.2-69.3,39.9
		c-33.4,23.9-63.2,52.4-88.4,84.8c-24,30.7-43.6,64.8-58.3,101.5C102.1,405.6,92,458.2,92,512c0,56.7,11.1,111.7,33,163.5
		c21.2,50,51.4,94.9,90,133.5c38.6,38.6,83.5,68.9,133.5,90c51.8,21.9,106.8,33,163.5,33c54.1,0,106.8-10.1,156.5-30.2
		c47.5-19,90.8-46.4,128.7-81.5c42.1-39,75.2-85.1,98.5-137.2C919.8,629.1,932,571.6,932,512c0-33.9-4-67.5-11.9-100
		c-2.6-10.7,4-21.6,14.7-24.2c10.7-2.6,21.6,4,24.2,14.7c8.7,35.5,13.1,72.4,13.1,109.4c0,65.2-13.4,128.3-39.8,187.4
		c-25.5,57.1-61.8,107.6-107.8,150.3c-41.5,38.4-88.9,68.5-141,89.3C629,960.9,571.3,972,512,972z"/>
	<g>
		<path class="st9" d="M947.7,114.9c-0.3-1.9-1.6-3.4-3.4-4l-25.4-8c-1.1-0.4-2.3-0.3-3.4,0.2l-140.7,58.5c-1.9,0.8-3.1,2.6-3.1,4.6
			v22.3c0,2.4-0.3,4.7-1,6.8c-0.2,0.3-0.4,0.7-0.5,1.1c-1.3,3.6-3.3,6.8-6.1,9.4l-8.3,7.7L552.5,404c-0.4,0-0.7-0.1-1.1,0
			c-27.6,3-44.8-0.6-50-10.4c-8.4-16.1,14.4-48.1,23.9-59c0,0,0.1-0.1,0.1-0.1c15.6-19,14.9-31.2,11.6-38.1c-4-8.3-13.8-13-26.9-13
			c-0.1,0-0.3,0-0.4,0c-27.2,0.2-77.3,21.6-103.9,79.7c-2,4.3-3.9,8.5-5.7,12.5c-37.9,83.2-41,90-189.9,157.9
			c-35.3,16.1-58.3,38.6-68.2,66.9c-11.5,32.8-5.6,72.6,17.6,118.2c14.5,28.4,33.1,54.2,55.3,76.7c23.1,23.3,49.6,42.7,78.8,57.4h0
			c30.6,15.5,58.6,23.3,83.6,23.3c12.3,0,23.9-1.9,34.7-5.7c28.3-9.9,50.8-32.8,66.9-68.1c36.8-80.6,56.8-121.3,81-145.2
			c10.7-8.9,26.4-15.6,43-22.8c27.2-11.6,55.2-23.6,65.5-47.2c4.2-9.6,1.9-20.4-5.9-27.5c-8-7.3-19.1-8.6-28.4-3.5
			c-15.3,8.3-49.3,8.5-62.2-7c-11.7-14-3.7-39.5,22.4-71.7c0.9-1.1,1.3-2.6,1-4l195.2-208.3c0.3-0.2,0.7-0.5,1-0.8l6.8-7.2l3.4-3.7
			c1.5-1.6,3.2-3.1,4.9-4.3c0.2-0.2,0.5-0.3,0.8-0.5c3.1-2,6.6-3.4,10.3-4.2c0,0,0,0,0.1,0c3.9-0.8,8-0.9,12.1-0.1l27.6,5.5
			c2.4,0.5,4.9-0.9,5.7-3.2c0.4-1,0.7-2.1,1.1-3.1c16.4-44.9,37.7-76.2,52.7-94.5c16.3-19.9,28.8-29.2,28.9-29.3
			C947.3,118.6,948,116.7,947.7,114.9z M762.6,220.8l8.3-7.7c2.1-1.9,3.9-4.2,5.4-6.6l13.7,13.7l17.3,17.2c-1.9,0.8-3.7,1.8-5.4,3
			c0,0-0.1,0-0.1,0.1c-0.3,0.2-0.6,0.4-0.9,0.6c0,0,0,0-0.1,0c0,0,0,0,0,0c0,0,0,0,0,0c-2.3,1.6-4.5,3.4-6.5,5.5l-1.4,1.5l-2,2
			c0,0-0.1,0.1-0.1,0.1L590.2,464.2l-15.8-26.8l-15.3-26L762.6,220.8z M564.1,555.5c16.6,20,56.1,19.4,74.7,9.3
			c6.7-3.7,13.1-1.4,16.9,2.1c3.7,3.3,6.5,9.3,3.5,16.2c-8.7,20-34.9,31.2-60.2,42c-17.4,7.5-33.9,14.5-45.7,24.4
			c-0.1,0.1-0.2,0.2-0.3,0.3c-12.4,12.2-23.7,28.2-36.7,51.8c-12.8,23.4-27.3,54.3-46.6,96.5c-15,32.7-35.5,53.9-61.1,62.8
			c-30.1,10.5-67.3,4.8-110.5-17.1h0c-28.2-14.3-53.8-33-76.2-55.6c-21.5-21.7-39.5-46.6-53.5-74.1c-21.9-43.2-27.6-80.3-17.1-110.4
			c9-25.6,30.1-46.2,62.9-61.1c78.1-35.7,114.8-54,139.4-75.1c25.3-21.7,36-45.2,55.5-87.8c1.8-4,3.7-8.1,5.7-12.5
			c13.4-29.3,32.7-46.7,46.4-56.2c16-11,34.1-17.6,48.5-17.7c9.3-0.1,16,2.6,18.3,7.3c2.9,6-0.9,16-10.3,27.4
			c-0.8,1-9.7,11.3-17.2,24.6c-11,19.3-13.7,34.6-7.9,45.6c7.1,13.7,25.7,18.9,56.7,16.1l16.6,28.2l18.5,31.3
			C564.2,499.3,545.4,533.2,564.1,555.5z M855.1,239.3l-23.4-4.7c-4.5-0.9-9-1-13.3-0.4L797,213.1l-16.3-16.3c0.7-2.6,1-5.4,1-8.2
			v-19L917.6,113l14.9,4.7C917.1,131.6,880.6,169.7,855.1,239.3z"/>
		<path class="st9" d="M414.6,639.2c5.9,5.9,13.7,8.9,21.4,8.9s15.5-3,21.4-8.9c5.7-5.7,8.9-13.3,8.9-21.4s-3.2-15.7-8.9-21.4
			l-41.5-41.5c-5.7-5.7-13.3-8.9-21.4-8.9s-15.7,3.2-21.4,8.9c-5.7,5.7-8.9,13.3-8.9,21.4s3.2,15.7,8.9,21.4L414.6,639.2z
			 M380.1,561.9c3.8-3.8,8.9-6,14.4-6s10.5,2.1,14.4,6l41.5,41.5c3.8,3.8,6,8.9,6,14.4c0,5.4-2.1,10.5-6,14.4
			c-7.9,7.9-20.8,7.9-28.7,0l-41.5-41.5c-3.8-3.8-6-8.9-6-14.4C374.2,570.9,376.3,565.8,380.1,561.9z"/>
		<path class="st9" d="M402,711.9c9.3-9.3,9.3-24.3,0-33.6l-68.2-68.2c-9.3-9.3-24.3-9.3-33.6,0l-25.6,25.6
			c-4.5,4.5-6.9,10.4-6.9,16.8s2.5,12.3,6.9,16.8l68.2,68.2c4.6,4.6,10.7,6.9,16.8,6.9c6.1,0,12.2-2.3,16.8-6.9L402,711.9z
			 M349.9,730.5l-68.2-68.2c-2.6-2.6-4-6-4-9.7s1.4-7.1,4-9.7l25.6-25.6c2.7-2.7,6.2-4,9.7-4c3.5,0,7,1.3,9.7,4l68.2,68.2
			c5.4,5.4,5.4,14.1,0,19.4l-25.6,25.6C364,735.8,355.3,735.8,349.9,730.5z"/>
		<path class="st9" d="M388.2,792c14.2,0,25.8-11.6,25.8-25.8s-11.6-25.8-25.8-25.8c-14.2,0-25.8,11.6-25.8,25.8S374,792,388.2,792z
			 M388.2,750.4c8.7,0,15.8,7.1,15.8,15.8s-7.1,15.8-15.8,15.8c-8.7,0-15.8-7.1-15.8-15.8S379.5,750.4,388.2,750.4z"/>
		<path class="st9" d="M332.2,796c-14.2,0-25.8,11.6-25.8,25.8s11.6,25.8,25.8,25.8c14.2,0,25.8-11.6,25.8-25.8S346.4,796,332.2,796
			z M332.2,837.6c-8.7,0-15.8-7.1-15.8-15.8s7.1-15.8,15.8-15.8c8.7,0,15.8,7.1,15.8,15.8S340.9,837.6,332.2,837.6z"/>
		<path class="st9" d="M446.2,744.4c-14.2,0-25.8,11.6-25.8,25.8S432,796,446.2,796c14.2,0,25.8-11.6,25.8-25.8
			S460.4,744.4,446.2,744.4z M446.2,786c-8.7,0-15.8-7.1-15.8-15.8s7.1-15.8,15.8-15.8c8.7,0,15.8,7.1,15.8,15.8
			S454.9,786,446.2,786z"/>
		<path class="st9" d="M390.2,800c-14.2,0-25.8,11.6-25.8,25.8s11.6,25.8,25.8,25.8c14.2,0,25.8-11.6,25.8-25.8S404.4,800,390.2,800
			z M390.2,841.6c-8.7,0-15.8-7.1-15.8-15.8s7.1-15.8,15.8-15.8c8.7,0,15.8,7.1,15.8,15.8S398.9,841.6,390.2,841.6z"/>
	</g>
</g>
</svg>
