<?xml version="1.0" encoding="utf-8"?>
<!-- Generator: Adobe Illustrator 24.0.0, SVG Export Plug-In . SVG Version: 6.00 Build 0)  -->
<svg version="1.1" id="Capa_1" xmlns="http://www.w3.org/2000/svg" xmlns:xlink="http://www.w3.org/1999/xlink" x="0px" y="0px"
	 viewBox="0 0 1024 1024" style="enable-background:new 0 0 1024 1024;" xml:space="preserve">
<style type="text/css">
	.st0{fill:#9DD4A9;}
	.st1{fill:#FFD071;}
	.st2{fill:#F9B630;}
	.st3{fill:#F9F7FC;}
	.st4{fill:#DCDAEB;}
	.st5{fill:#767DD4;}
	.st6{fill:#BAE4FA;}
	.st7{fill:#443F80;}
	.st8{fill:#2A286B;}
	.st9{fill:#F473C3;}
	.st10{fill:#5E6ACA;}
	.st11{fill:#C640A6;}
	.st12{fill:#A5C6FF;}
	.st13{fill:#FFFFFF;}
</style>
<g>
	<circle class="st0" cx="512" cy="512" r="440"/>
	<g>
		<g>
			<path class="st1" d="M501.1,885c-70.6,53.5-152,22.9-217.5-42.6L198.2,757c-65.5-65.5-96.1-146.9-42.6-217.5
				c35.4-46.8,110.7-94.2,169.5-92.3c9.2,0.3,20.6-3.5,24.1-15.2c7.9-30.1,36.2-65.9,61.2-84c52.9-38.3,118.3-20.1,166.7,28.3
				l87.3,87.3c48.4,48.4,66.6,113.8,28.3,166.7c-18,25-53.9,53.3-84,61.2c-11.7,3.5-15.5,14.9-15.2,24.1
				C595.3,774.4,548,849.6,501.1,885z"/>
			<path class="st2" d="M501.1,885c-70.6,53.5-152,22.9-217.5-42.6l-42.7-42.7l379.8-379.8l43.7,43.7
				c48.4,48.4,66.6,113.8,28.3,166.7c-18,25-53.9,53.3-84,61.2c-11.7,3.5-15.5,14.9-15.2,24.1C595.3,774.4,548,849.6,501.1,885z"/>
			<polygon class="st3" points="779.2,324.6 473,652 388.6,567.6 716,261.3 			"/>
			<polygon class="st4" points="779.2,324.6 473,652 430.8,609.8 747.6,292.9 			"/>
			<path class="st5" d="M392,799l-13.7,13.7c-3.1,3.2-8.3,3.2-11.5,0l-5.2-5.2c-6.8,4.9-16.2,5-23.2,0L280.3,766
				c-1.1-0.8-2.1-1.7-3-2.7l0,0c-0.6-0.6-1.1-1.2-1.6-1.9l-41.5-58.1c-5.1-7-4.9-16.4,0-23.2l-5.2-5.2c-3.2-3.1-3.2-8.3,0-11.5
				l13.8-13.7c3.1-3.2,8.3-3.2,11.5,0l68.3,68.3l69.4,69.5C395.2,790.6,395.2,795.8,392,799z"/>
			<path class="st6" d="M368.2,783c-0.8,0.8-1.9,1.2-3,1.2s-2.3-0.4-3.2-1.3l-52.2-52.2L258.2,679c-1.7-1.7-1.7-4.4,0-6.1
				c0.8-0.8,2-1.3,3-1.3s2.2,0.4,3,1.3l103.9,103.9C369.9,778.6,369.9,781.3,368.2,783z"/>
			<path class="st7" d="M503.5,537c-34.8-34.8-91.8-34.8-126.6,0s-34.8,91.8,0,126.6s91.8,34.8,126.6,0
				C538.4,628.8,538.4,571.8,503.5,537z"/>
			<path class="st8" d="M377,663.6L503.5,537c34.8,34.8,34.8,91.8,0,126.6C468.7,698.4,411.8,698.4,377,663.6z"/>
			<path class="st1" d="M922.4,222.9l-96,81.3l-47.2,20.4L716,261.3l20.4-47.1l81.3-96.1c2.3-2.7,6-3.5,9.2-2.2l68.4,29.3l29.3,68.4
				C926,216.9,925.1,220.6,922.4,222.9z"/>
			<path class="st2" d="M779.3,324.6L747.6,293l147.7-147.7l29.3,68.4c1.4,3.2,0.5,6.9-2.2,9.2l-96,81.3L779.3,324.6z"/>
			<g>
				<g>
					<path class="st5" d="M827.6,141.7c-5.9-5.9-15.4-5.9-21.3,0c-5.9,5.9-5.9,15.4,0,21.3c5.9,5.9,15.4,5.9,21.3,0
						C833.4,157.1,833.4,147.5,827.6,141.7z M811.3,158c-3.1-3.1-3.1-8.2,0-11.3s8.2-3.1,11.3,0s3.1,8.2,0,11.3
						S814.4,161.1,811.3,158z"/>
					<path class="st9" d="M798.2,133.6c-6.2,6.2-20.5,2-26.6-4.2c-6.2-6.2-3-13.1,3.2-19.3c6.2-6.2,13.1-9.4,19.3-3.2
						C800.2,113.2,804.4,127.4,798.2,133.6z"/>
					<path class="st9" d="M809.5,152.1l-20.6-20.6l7.2-7.2l20.6,20.6c0.9,0.9,1.4,2.1,1.5,3.3l0,0c0.2,3-2.3,5.5-5.4,5.4l0,0
						C811.6,153.5,810.4,153,809.5,152.1z"/>
				</g>
				<g>
					<path class="st5" d="M799.9,173.9c-5.9-5.9-15.4-5.9-21.3,0c-5.9,5.9-5.9,15.4,0,21.3c5.9,5.9,15.4,5.9,21.3,0
						S805.8,179.7,799.9,173.9z M783.6,190.1c-3.1-3.1-3.1-8.2,0-11.3s8.2-3.1,11.3,0s3.1,8.2,0,11.3
						C791.8,193.3,786.7,193.3,783.6,190.1z"/>
					<path class="st9" d="M770.6,165.8c-6.2,6.2-20.5,2-26.6-4.2s-3-13.1,3.2-19.3s13.1-9.4,19.3-3.2
						C772.6,145.4,776.8,159.6,770.6,165.8z"/>
					<path class="st9" d="M781.8,184.3l-20.6-20.6l7.2-7.2l20.6,20.6c0.9,0.9,1.4,2.1,1.5,3.3l0,0c0.2,3-2.3,5.5-5.4,5.4l0,0
						C783.9,185.7,782.7,185.2,781.8,184.3z"/>
				</g>
				<g>
					<path class="st5" d="M773.9,207.7c-5.9-5.9-15.4-5.9-21.3,0c-5.9,5.9-5.9,15.4,0,21.3c5.9,5.9,15.4,5.9,21.3,0
						S779.8,213.6,773.9,207.7z M757.6,224c-3.1-3.1-3.1-8.2,0-11.3s8.2-3.1,11.3,0s3.1,8.2,0,11.3S760.7,227.1,757.6,224z"/>
					<path class="st9" d="M744.6,199.7c-6.2,6.2-20.5,2-26.6-4.2c-6.2-6.2-3-13.1,3.2-19.3s13.1-9.4,19.3-3.2
						C746.6,179.2,750.8,193.5,744.6,199.7z"/>
					<path class="st9" d="M755.8,218.1l-20.6-20.6l7.2-7.2l20.6,20.6c0.9,0.9,1.4,2.1,1.5,3.3l0,0c0.2,3-2.3,5.5-5.4,5.4l0,0
						C757.9,219.5,756.7,219,755.8,218.1z"/>
				</g>
				<g>
					<path class="st10" d="M878.8,214.1c-5.9,5.9-5.9,15.4,0,21.3c5.9,5.9,15.4,5.9,21.3,0c5.9-5.9,5.9-15.4,0-21.3
						C894.1,208.3,884.6,208.3,878.8,214.1z M883.7,219.1c3.1-3.1,8.2-3.1,11.3,0s3.1,8.2,0,11.3s-8.2,3.1-11.3,0
						C880.6,227.3,880.6,222.2,883.7,219.1z"/>
					<path class="st11" d="M908.1,243.5c-6.2,6.2-2,20.5,4.2,26.6c6.2,6.2,13.1,3,19.3-3.2s9.4-13.1,3.2-19.3
						C928.5,241.5,914.3,237.3,908.1,243.5z"/>
					<path class="st11" d="M889.6,232.2l20.6,20.6l7.2-7.2L896.8,225c-0.9-0.9-2.1-1.4-3.3-1.5l0,0c-3-0.2-5.5,2.3-5.4,5.4l0,0
						C888.2,230.1,888.7,231.3,889.6,232.2z"/>
				</g>
				<g>
					<path class="st10" d="M846.6,241.8c-5.9,5.9-5.9,15.4,0,21.3s15.4,5.9,21.3,0c5.9-5.9,5.9-15.4,0-21.3
						C862,235.9,852.4,235.9,846.6,241.8z M851.6,246.8c3.1-3.1,8.2-3.1,11.3,0s3.1,8.2,0,11.3s-8.2,3.1-11.3,0
						C848.4,254.9,848.4,249.9,851.6,246.8z"/>
					<path class="st11" d="M875.9,271.1c-6.2,6.2-2,20.5,4.2,26.6c6.2,6.2,13.1,3,19.3-3.2s9.4-13.1,3.2-19.3
						C896.3,269.1,882.1,264.9,875.9,271.1z"/>
					<path class="st11" d="M857.4,259.9l20.6,20.6l7.2-7.2l-20.6-20.6c-0.9-0.9-2.1-1.4-3.3-1.5l0,0c-3-0.2-5.5,2.3-5.4,5.4l0,0
						C856,257.8,856.5,259,857.4,259.9z"/>
				</g>
				<g>
					<path class="st10" d="M812.7,267.8c-5.9,5.9-5.9,15.4,0,21.3s15.4,5.9,21.3,0c5.9-5.9,5.9-15.4,0-21.3S818.6,261.9,812.7,267.8
						z M817.7,272.8c3.1-3.1,8.2-3.1,11.3,0s3.1,8.2,0,11.3c-3.1,3.1-8.2,3.1-11.3,0C814.6,280.9,814.6,275.9,817.7,272.8z"/>
					<path class="st11" d="M842,297.1c-6.2,6.2-2,20.5,4.2,26.6c6.2,6.2,13.1,3,19.3-3.2s9.4-13.1,3.2-19.3
						C862.5,295.1,848.2,290.9,842,297.1z"/>
					<path class="st11" d="M823.6,285.9l20.6,20.6l7.2-7.2l-20.6-20.6c-0.9-0.9-2.1-1.4-3.3-1.5l0,0c-3-0.2-5.5,2.3-5.4,5.4l0,0
						C822.2,283.8,822.7,285,823.6,285.9z"/>
				</g>
			</g>
			<path class="st11" d="M396.4,762.8c-11.8-18.2-20.6-45.1-10.2-69.2c41.2,21.8,93.7,15.4,128.3-19.1
				c21.8-21.8,32.4-50.6,31.8-79.3l34.2-36.5c10.8,43,19.8,122.5-35.4,185.5C465.4,835.2,408.9,782.1,396.4,762.8z"/>
			<path class="st10" d="M392,799l-13.7,13.7c-3.1,3.2-8.3,3.2-11.5,0l-5.2-5.2c-6.8,4.9-16.2,5-23.2,0L280.3,766
				c-1.1-0.8-2.1-1.7-3-2.7l0,0l45.3-45.3l69.4,69.5C395.2,790.6,395.2,795.8,392,799z"/>
			<path class="st12" d="M368.2,783c-0.8,0.8-1.9,1.2-3,1.2s-2.3-0.4-3.2-1.3l-52.2-52.2l6.1-6.1l52.2,52.2
				C369.9,778.6,369.9,781.3,368.2,783z"/>
		</g>
	</g>
</g>
<g>
	<path class="st11" d="M512,972c-62.1,0-122.3-12.2-179.1-36.2c-54.8-23.2-104-56.3-146.2-98.6c-42.2-42.2-75.4-91.4-98.6-146.2
		C64.2,634.3,52,574.1,52,512s12.2-122.3,36.2-179.1c23.2-54.8,56.3-104,98.6-146.2s91.4-75.4,146.2-98.6
		C389.7,64.2,449.9,52,512,52c11,0,20,9,20,20s-9,20-20,20c-56.7,0-111.7,11.1-163.5,33c-50,21.2-94.9,51.4-133.5,90
		s-68.9,83.5-90,133.5C103.1,400.3,92,455.3,92,512c0,56.7,11.1,111.7,33,163.5c21.2,50,51.4,94.9,90,133.5s83.5,68.9,133.5,90
		c51.8,21.9,106.8,33,163.5,33c56.7,0,111.7-11.1,163.5-33c50-21.2,94.9-51.4,133.5-90s68.9-83.5,90-133.5
		c21.9-51.8,33-106.8,33-163.5c0-11,9-20,20-20s20,9,20,20c0,62.1-12.2,122.3-36.2,179.1c-23.2,54.8-56.3,104-98.6,146.2
		c-42.2,42.2-91.4,75.4-146.2,98.6C634.3,959.8,574.1,972,512,972z"/>
	<g>
		<path class="st13" d="M326.1,714.5l-68.3-68.3c-2.5-2.5-5.8-3.9-9.3-3.9c0,0-0.1,0-0.1,0c-3.5,0-6.8,1.4-9.1,3.9l-13.8,13.7
			c-2.5,2.5-3.9,5.9-3.9,9.4c0,3.5,1.4,6.8,3.9,9.1l2.5,2.5c-4,8.1-3.2,17.9,2.2,25.3l41.5,58.1c0.6,0.9,1.3,1.7,2,2.4
			c1.1,1.2,2.3,2.3,3.7,3.3l58.1,41.5c7.5,5.4,17.2,6.1,25.3,2.2l2.5,2.5c2.5,2.5,5.8,3.9,9.3,3.9c0,0,0.1,0,0.1,0
			c3.5,0,6.8-1.4,9.1-3.9l13.7-13.7c2.5-2.5,3.9-5.9,3.9-9.4c0-3.5-1.4-6.8-3.9-9.1L326.1,714.5z M388.5,795.5l-13.8,13.8
			c-0.7,0.8-1.6,0.9-2.1,0.9c-0.8,0-1.7-0.3-2.3-0.9l-8.2-8.2l-3.5,2.5c-5.2,3.7-12.1,3.7-17.4,0L283.2,762c-0.8-0.6-1.6-1.3-2.2-2
			l-0.2-0.2c-0.4-0.4-0.7-0.8-1.1-1.3l-41.5-58.1c-3.8-5.1-3.7-12.1,0-17.3l2.5-3.5l-8.3-8.3c-0.8-0.7-0.9-1.6-0.9-2.1
			c0-0.9,0.3-1.7,0.9-2.3l13.9-13.8c0.7-0.8,1.6-0.9,2.1-0.9c0.9,0,1.7,0.3,2.3,0.9l68.3,68.3l69.5,69.6c0.8,0.7,0.9,1.6,0.9,2.1
			C389.4,794,389.1,794.9,388.5,795.5z"/>
		<path class="st13" d="M938.3,244c-5.1-5-14.7-9-23-8.5l10.4-8.8c4.4-3.7,5.8-9.8,3.6-15.1l-30.1-70.2l-70.3-30.1
			c-5.3-2.1-11.2-0.7-14.9,3.6l-7.7,9.1c-0.3-7.7-4.1-15.9-8.6-20.6c-5.2-5.2-10.7-5.3-14.4-4.4c-3.9,1-7.9,3.4-12,7.6
			c-4.4,4.4-13.7,15.9-3.2,26.3c5,5.1,13.8,8.7,21.4,8.7c0,0,0.1,0,0.1,0c0.6,0,1.2,0,1.8-0.1l-12.7,15c-0.2-7.8-4-16.2-8.6-21
			c-10.5-10.5-21.9-1.2-26.4,3.2c-4.4,4.4-13.6,15.8-3.2,26.3c5,5.1,13.8,8.7,21.4,8.7c0,0,0.1,0,0.1,0c0.7,0,1.5,0,2.2-0.1
			l-11.7,13.8c-0.1-0.7-0.2-1.4-0.4-2.2c-1.2-6.1-4.2-12-8-15.9c-10.5-10.5-21.9-1.2-26.4,3.2c-4.1,4.1-6.6,8.1-7.6,12
			c-0.9,3.7-0.9,9.1,4.3,14.3c4.9,5,13.4,8.5,20.9,8.7l-3.2,3.8l-20.3,46.8L584.9,377.1l-4.3-4.3c-25.5-25.5-54.6-42.1-84.2-48
			c-32-6.4-62.7,0.2-89,19.2c-24.1,17.5-54.4,53.8-63.1,86.7c-3.5,11.5-16.5,11.6-19.1,11.6c-61.7-2-138.2,47.4-173.6,94.3
			c-26.2,34.6-34.4,73.3-24.2,114.9c8.9,36.3,32.2,74.1,67.2,109.2l85.4,85.4c35.1,35.1,72.8,58.3,109.2,67.2
			c11.6,2.8,22.9,4.3,34,4.3c28.8,0,55.9-9.5,80.8-28.4c46.9-35.4,96.3-111.8,94.4-173.6c-0.1-2.6,0.1-15.6,11.6-19.1
			c33.1-8.7,69.4-39,86.7-63.1c19-26.2,25.6-57,19.2-89c-5.9-29.6-22.5-58.7-48-84.2l-4.4-4.4l118.6-126.9l46.9-20.3l4.9-4.2
			c0,0.5-0.1,1-0.1,1.6c0,7.6,3.6,16.3,8.7,21.3c3.5,3.5,7.1,4.8,10.6,4.8c6.8,0,12.8-5.1,15.8-8c4.1-4.1,6.6-8.1,7.6-12
			c0.9-3.7,0.9-9.1-4.4-14.4c-3.8-3.8-9.8-6.8-15.9-8c-1.5-0.3-3-0.5-4.4-0.6l16.4-13.9c-0.3,1.5-0.5,3-0.5,4.7
			c0,7.6,3.6,16.3,8.7,21.4c3.5,3.5,7.1,4.8,10.6,4.8c6.8,0,12.8-5.1,15.8-8c4.4-4.4,13.7-15.9,3.1-26.4c-5.2-5.1-15-9.2-23.5-8.5
			l17.8-15.1c-0.3,1.3-0.4,2.8-0.4,4.3c0,7.6,3.6,16.3,8.7,21.3c3.7,3.7,7.6,4.8,10.8,4.8c1.3,0,2.5-0.2,3.6-0.4
			c3.9-1,7.9-3.4,12-7.6c4.1-4.1,6.6-8.1,7.6-12C943.6,254.8,943.6,249.3,938.3,244z M789.5,131.6c-4.9,0-11.1-2.5-14.3-5.8
			c-1.6-1.6-4.5-4.5,3.2-12.2c3.4-3.4,5.9-4.6,7.3-4.9c0.4-0.1,0.8-0.2,1.2-0.2c1,0,2.2,0.4,3.7,1.8c4.7,4.9,7.7,16.1,4.2,19.7
			C793.4,131.4,791.2,131.6,789.5,131.6C789.5,131.6,789.5,131.6,789.5,131.6z M761.9,163.8c-4.9,0-11.1-2.5-14.3-5.8
			c-1.5-1.5-4.5-4.6,3.2-12.3c3.9-3.9,6.6-5.1,8.5-5.1c1.8,0,2.9,1.1,3.7,1.8c4.7,4.9,7.7,16.1,4.2,19.7l0,0
			C765.7,163.6,763.5,163.8,761.9,163.8z M719.8,187c0.4-1.4,1.5-3.9,4.9-7.3c3.9-3.9,6.6-5.1,8.5-5.1c1.8,0,2.9,1.1,3.7,1.9
			c5.6,5.7,7.2,16.6,4.1,19.7l0,0c-1.3,1.3-3.5,1.6-5.2,1.6c0,0,0,0-0.1,0c-4.9,0-11.1-2.5-14.3-5.8
			C719.5,189.9,719.5,188.3,719.8,187z M507,533.5c-13.4-13.4-29.9-21.9-47.3-25.6l128.5-120.2l127.6-119.4l56.4,56.5L652.9,452.3
			L532.7,580.9C529,563,520.2,546.6,507,533.5z M500,540.5L500,540.5c15.9,15.9,24.7,37.1,24.7,59.8s-8.8,43.9-24.7,59.8
			c-15.9,15.9-37.1,24.6-59.8,24.6s-43.9-8.7-59.8-24.6c-33-33-33-86.6,0-119.5c16.5-16.5,38.1-24.7,59.8-24.7
			S483.5,524.1,500,540.5z M660.9,467.1c24.1,24.1,39.8,51.4,45.3,79.1c5.8,29.2-0.2,57.2-17.5,81.1c-16.6,23-51.5,51.5-81.2,59.3
			l-0.2,0c-14.4,4.3-19.1,18.3-18.8,29c0.8,26.4-8.9,58.6-27.3,90.8c-17.1,29.9-40.1,57-63.1,74.4c-32.1,24.3-67.9,31.9-106.5,22.5
			c-34.6-8.5-70.7-30.8-104.5-64.6l-85.4-85.4c-33.8-33.8-56.1-69.9-64.6-104.5c-9.4-38.5-1.9-74.3,22.5-106.5
			c17.4-23,44.6-46,74.5-63.1c32.3-18.4,64.5-28.1,90.9-27.2c10.7,0.3,24.7-4.4,29.1-18.8l0-0.2c7.8-29.6,36.2-64.5,59.3-81.2
			c23.9-17.3,51.9-23.4,81.1-17.5c27.7,5.5,55,21.2,79.1,45.3l4.1,4.1L447,506.1c-26.4-1.9-53.5,7.2-73.7,27.4
			c-36.9,36.9-36.9,96.8,0,133.7c17.8,17.8,41.5,27.6,66.8,27.6s49.1-9.8,66.8-27.6c17.8-17.8,27.6-41.5,27.6-66.8
			c0-2.2-0.1-4.5-0.2-6.7l122.2-130.7L660.9,467.1z M865.2,304.7c2.1,2.1,2,3.7,1.7,4.9c-0.4,1.4-1.5,3.9-4.9,7.3
			c-7.7,7.7-10.7,4.8-12.3,3.2c-3.2-3.2-5.7-9.4-5.8-14.3c0-1.6,0.3-3.9,1.6-5.2c1-1,3-1.5,5.3-1.5
			C855.4,299.1,861.4,301.1,865.2,304.7z M899.1,278.7c1.6,1.6,4.5,4.5-3.2,12.2c-7.7,7.7-10.7,4.8-12.3,3.2
			c-3.2-3.2-5.7-9.4-5.8-14.3c0-1.6,0.3-3.9,1.6-5.2l0,0c1.1-1.1,2.9-1.6,5.1-1.6C889.3,273.1,895.7,275.5,899.1,278.7z M904.6,240
			c-1.3,1.3-2.3,2.8-3,4.5l-5.2-6.1l-24.6,20.9l-0.1,0.1l4.7,5.4c-1.5,0.7-2.8,1.6-4,2.8c0,0,0,0,0,0c-1.3,1.3-2.3,2.9-3.1,4.6
			l-5.4-6.3l-24.6,20.8l3.4,4c-1.6,0.7-3,1.7-4.3,2.9c-1.2,1.2-2.2,2.7-3,4.4l-4-4.7l-7.8,6.6l-43.4,18.8l-58.4-58.5l18.8-43.3
			l6.6-7.8l-3.4-2.9c1.6-0.7,3-1.7,4.2-2.9c1.3-1.2,2.2-2.7,3-4.4l2.8,2.4l20.8-24.6l-5.1-4.3c1.7-0.7,3.2-1.7,4.5-3
			c1.2-1.2,2.2-2.6,2.9-4.2l4.3,3.7l20.9-24.6l-4.8-4.1c1.7-0.7,3.1-1.7,4.4-3c1.3-1.3,2.2-2.7,2.9-4.2l4.1,3.5l12.7-15
			c0.9-1,2.2-1.3,3.4-0.8l66.6,28.5l28.5,66.5c0.5,1.3,0.2,2.7-0.8,3.5l-15,12.7l4.5,5.3C907.2,237.8,905.8,238.7,904.6,240
			L904.6,240z M933,256.1c-0.4,1.4-1.5,3.9-4.9,7.3c-3.4,3.4-5.9,4.6-7.3,4.9c-1.3,0.3-2.9,0.3-5-1.8c-3.2-3.2-5.7-9.4-5.8-14.3
			c0-1.6,0.3-3.9,1.6-5.2c3.6-3.6,14.8-0.6,19.6,4.1C933.3,253.2,933.3,254.8,933,256.1z"/>
		<path class="st13" d="M511,671c-16,16-36.4,26.1-58.8,29.3c-21.8,3.1-44.3-0.8-63.6-11l-4.8-2.5l-2.1,5c-5.2,12-6.4,25.4-3.5,39.8
			c2.9,14.7,9.3,26.7,14.1,34.1c7.8,12,29,32.9,59.3,35.1c1.8,0.1,3.6,0.2,5.4,0.2c30,0,60.9-17.9,91.9-53.3
			c56.9-65,47.3-146.9,36.5-190l-2.2-8.9l-41.9,44.7l0,2C541.9,623.9,531.1,650.8,511,671z M577.8,568.9
			c9.2,42.9,13.8,114.6-36.4,172c-30.7,35.1-60.7,51.8-89.1,49.7c-26.4-1.9-44.9-20.1-51.7-30.6l0,0c-5-7.7-19.7-33.6-11.6-59.5
			c19.9,9.3,42.6,12.7,64.6,9.6c24.6-3.5,46.9-14.6,64.5-32.1c21.6-21.6,33.4-50.3,33.3-80.9L577.8,568.9z"/>
	</g>
</g>
</svg>
