<?xml version="1.0" encoding="utf-8"?>
<!-- Generator: Adobe Illustrator 24.0.0, SVG Export Plug-In . SVG Version: 6.00 Build 0)  -->
<svg version="1.1" id="Capa_1" xmlns="http://www.w3.org/2000/svg" xmlns:xlink="http://www.w3.org/1999/xlink" x="0px" y="0px"
	 viewBox="0 0 1024 1024" style="enable-background:new 0 0 1024 1024;" xml:space="preserve">
<style type="text/css">
	.st0{fill:#534A9A;}
	.st1{fill:#FFD071;}
	.st2{fill:#F9B630;}
	.st3{fill:#C640A6;}
	.st4{fill:#F473C3;}
	.st5{fill:#F9F7FC;}
	.st6{fill:#DCDAEB;}
	.st7{fill:#FFFFFF;}
</style>
<circle class="st0" cx="512" cy="512" r="440"/>
<g>
	<path class="st1" d="M918.8,126.5c0,0.6,0,1.2,0,1.8s0,1.3,0,1.9c0,0.7-0.1,1.3-0.1,2c-0.1,1.4-0.2,2.8-0.3,4.2
		c-0.1,0.5-0.1,1-0.2,1.6c0,0.2,0,0.3,0,0.5c0,0.1,0,0.3,0,0.4c-0.2,1.9-0.4,3.8-0.7,5.8c-0.1,0.6-0.2,1.3-0.3,1.9
		c-1,6.6-2.4,13.9-4.3,21.8c-0.4,1.6-0.8,3.3-1.2,5c-0.7,2.8-1.4,5.6-2.2,8.5c-0.3,1.1-0.6,2.3-0.9,3.4c-1.7,6.2-3.7,12.6-5.8,19.4
		c-0.4,1.2-0.8,2.5-1.2,3.7c-0.2,0.8-0.5,1.6-0.8,2.4c-0.3,0.9-0.6,1.8-0.9,2.7c-0.9,2.7-1.9,5.5-2.9,8.3c-0.3,0.9-0.6,1.9-1,2.8
		c-0.7,1.9-1.4,3.8-2.1,5.7c-0.2,0.5-0.3,0.9-0.5,1.4c-1.2,3.4-2.5,6.8-3.9,10.3c-1.1,3-2.3,6-3.5,9c-0.4,1-0.8,2-1.2,3
		c-0.7,1.8-1.4,3.6-2.2,5.4s-1.5,3.6-2.3,5.5c-0.1,0.2-0.1,0.4-0.2,0.5c-0.5,1.1-0.9,2.2-1.4,3.3c-0.2,0.6-0.5,1.2-0.7,1.7
		c-1.5,3.5-3,7-4.6,10.5c-0.1,0.2-0.2,0.5-0.3,0.8c-1.6,3.6-3.2,7.2-4.8,10.8c-0.1,0.2-0.2,0.5-0.3,0.7c-0.9,1.9-1.8,3.9-2.7,5.8
		c-2.1,4.5-4.2,9-6.4,13.6c-1.1,2.3-2.2,4.6-3.3,6.9c-0.6,1.2-1.2,2.3-1.7,3.5c-2.6,5.2-5.2,10.5-8,15.8c-0.9,1.8-1.8,3.6-2.8,5.3
		c-0.6,1.2-1.2,2.4-1.9,3.6c-0.6,1.2-1.3,2.4-1.9,3.6c-1.9,3.6-3.8,7.2-5.8,10.8c-1.3,2.4-2.6,4.9-4,7.3c-1.2,2.1-2.3,4.2-3.5,6.3
		c-0.4,0.7-0.7,1.3-1.1,2c-1.9,3.4-3.8,6.8-5.8,10.2c-1.5,2.6-3,5.2-4.6,7.8c-1.2,2.1-2.5,4.2-3.7,6.3c-0.4,0.6-0.7,1.2-1.1,1.8
		c-1.2,2-2.3,3.9-3.5,5.8c-2.4,4-4.9,8-7.4,12c-0.8,1.3-1.6,2.5-2.4,3.8c-0.8,1.2-1.5,2.4-2.3,3.7c-1,1.5-1.9,3-2.9,4.5
		c-0.7,1.1-1.4,2.2-2.1,3.2l0,0c-3.2,5-6.4,9.9-9.7,14.9c-1.1,1.7-2.3,3.4-3.4,5.1c-1.5,2.2-3,4.5-4.5,6.7c-1.3,1.8-2.5,3.7-3.8,5.5
		c-1.8,2.6-3.5,5.1-5.3,7.7c-0.6,0.9-1.2,1.7-1.8,2.5c-1,1.5-2.1,2.9-3.1,4.4c-1.8,2.6-3.7,5.2-5.6,7.8c-1.4,1.9-2.7,3.8-4.1,5.7
		c-3,4-6,8.1-9,12.1c-0.3,0.5-0.7,0.9-1,1.4c-3.4,4.5-6.8,9-10.3,13.5c-1.7,2.1-3.3,4.3-5,6.4c-0.2,0.2-0.3,0.4-0.5,0.6
		c-1.7,2.2-3.4,4.3-5.2,6.5s-3.6,4.5-5.4,6.7c0,0.1-0.1,0.1-0.1,0.2c-0.1,0.1-0.2,0.2-0.3,0.4l-3.2,3.9c-0.3,0.4-0.7,0.8-1,1.2
		c-1.6,1.9-3.1,3.8-4.7,5.7c-1.1,1.4-2.2,2.7-3.4,4.1c-7.1,8.4-14.4,16.8-21.8,25.2c-1.3,1.5-2.7,3-4.1,4.5c-3.1,3.5-6.3,7-9.5,10.5
		c-1.1,1.2-2.3,2.4-3.4,3.6c-2.3,2.4-4.5,4.9-6.8,7.3c-1.7,1.8-3.5,3.6-5.2,5.4c-0.2,0.3-0.5,0.5-0.7,0.7c-1.1,1.2-2.3,2.3-3.4,3.5
		c-0.4,0.4-0.8,0.8-1.1,1.2c-0.4,0.5-0.9,0.9-1.4,1.4c-1,1.1-2.1,2.1-3.2,3.2c-2,2.1-4.1,4.1-6.1,6.2c-1.7,1.7-3.5,3.5-5.2,5.2
		c-1.6,1.5-3.1,3-4.6,4.5c-1.7,1.6-3.3,3.2-4.9,4.8c-0.7,0.7-1.4,1.4-2.2,2.1c-1,0.9-1.9,1.8-2.8,2.7c-0.4,0.4-0.8,0.8-1.2,1.2
		c-1.7,1.6-3.3,3.1-5,4.7c-0.9,0.8-1.7,1.6-2.6,2.4c-1,0.9-2,1.9-3,2.8c-0.7,0.7-1.5,1.4-2.2,2c-0.2,0.2-0.5,0.4-0.7,0.6
		c-1.2,1.1-2.3,2.1-3.5,3.2c-1.2,1.1-2.3,2.1-3.5,3.2c-2.4,2.2-4.8,4.3-7.2,6.5c-1.2,1.1-2.4,2.1-3.6,3.2c-1.2,1.1-2.4,2.1-3.6,3.2
		c-2.4,2.1-4.9,4.2-7.3,6.3c-2.9,2.5-5.8,5-8.8,7.4c-1.7,1.4-3.4,2.8-5,4.2c-1,0.8-2,1.6-2.9,2.4c-1.4,1.2-2.9,2.4-4.3,3.5
		c-0.6,0.5-1.2,1-1.8,1.5c-2.2,1.8-4.3,3.5-6.5,5.2c-2.3,1.8-4.6,3.6-6.9,5.4c-2.6,2-5.2,4-7.8,6c0,0,0,0-0.1,0
		c-2.5,1.9-4.9,3.8-7.4,5.6c-2.5,1.9-4.9,3.7-7.4,5.5c-1.1,0.8-2.2,1.7-3.3,2.5c-2.6,1.9-5.2,3.8-7.8,5.7c-1.2,0.9-2.4,1.7-3.6,2.6
		c-4.9,3.6-9.8,7-14.7,10.5c-3.4,2.4-6.8,4.7-10.2,7.1c-2,1.3-3.9,2.7-5.9,4c-9.8,6.6-19.6,13-29.4,19.2c-1.6,1-3.1,2-4.6,2.9
		c-2.9,1.8-5.8,3.6-8.7,5.4c-2.1,1.3-4.3,2.6-6.4,3.9c-1.4,0.8-2.8,1.7-4.2,2.5c-5.3,3.2-10.6,6.3-15.9,9.4
		c-21.4,12.4-42.4,23.7-62.6,33.8c-2.6,1.3-5.1,2.6-7.7,3.8c-1.3,0.6-2.6,1.3-3.8,1.9c-4,1.9-7.9,3.8-11.8,5.7
		c-1.2,0.5-2.4,1.1-3.5,1.7c-13.3,6.2-26.1,11.9-38.5,17c-4.6-3.1-9-6.2-13.5-9.4c-18.6-13.6-36.1-28.5-52.3-44.7
		c-4.1-4.1-8.2-8.3-12.1-12.6c-1.7-1.8-3.3-3.6-5-5.5c-1.6-1.7-3.1-3.5-4.6-5.2c-8.5-9.9-16.6-20.1-24.3-30.8
		c-3-4.1-5.9-8.3-8.8-12.6c26.2-62.3,65.4-136.8,118.8-212.8c26.8-38.2,57.2-76.7,91.4-114.1c0.1-0.1,0.2-0.2,0.2-0.2
		c5.2-5.7,10.4-11.3,15.8-17c6.3-6.6,12.7-13.2,19.3-19.8c28.7-28.7,58.2-55.1,88-79.3c0.1,0,0.1-0.1,0.2-0.1
		c35.9-29.1,72.1-55,107.5-77.8c60.3-38.8,118.3-68.6,168.4-89.8c85.3-36.1,147.5-47.3,158.8-36c0.2,0.2,0.3,0.3,0.5,0.5
		c0.1,0.1,0.1,0.1,0.2,0.2c0.2,0.2,0.3,0.5,0.5,0.7s0.3,0.5,0.4,0.7c0.6,1.1,1.1,2.4,1.5,3.9c0,0.2,0.1,0.3,0.1,0.5
		c0.5,2,0.8,4.3,1,6.9c0,0.5,0.1,1.1,0.1,1.7C918.8,125.4,918.8,126,918.8,126.5z"/>
	<path class="st2" d="M918.8,126.5c0,0.6,0,1.2,0,1.8s0,1.3,0,1.9c0,0.7-0.1,1.3-0.1,2c-0.1,1.4-0.2,2.8-0.3,4.2
		c-0.1,0.5-0.1,1-0.2,1.6c0,0.2,0,0.3,0,0.5c0,0.1,0,0.3,0,0.4c-0.2,1.9-0.4,3.8-0.7,5.8c-0.1,0.6-0.2,1.3-0.3,1.9
		c-1,6.6-2.4,13.9-4.3,21.8c-0.4,1.6-0.8,3.3-1.2,5c-0.7,2.8-1.4,5.6-2.2,8.5c-0.3,1.1-0.6,2.3-0.9,3.4c-1.7,6.2-3.7,12.6-5.8,19.4
		c-0.4,1.2-0.8,2.5-1.2,3.7c-0.2,0.8-0.5,1.6-0.8,2.4c-0.3,0.9-0.6,1.8-0.9,2.7c-0.9,2.7-1.9,5.5-2.9,8.3c-0.3,0.9-0.6,1.9-1,2.8
		c-0.7,1.9-1.4,3.8-2.1,5.7c-0.2,0.5-0.3,0.9-0.5,1.4c-1.2,3.4-2.5,6.8-3.9,10.3c-1.1,3-2.3,6-3.5,9c-0.4,1-0.8,2-1.2,3
		c-0.7,1.8-1.4,3.6-2.2,5.4s-1.5,3.6-2.3,5.5c-0.1,0.2-0.1,0.4-0.2,0.5c-0.5,1.1-0.9,2.2-1.4,3.3c-0.2,0.6-0.5,1.2-0.7,1.7
		c-1.5,3.5-3,7-4.6,10.5c-0.1,0.2-0.2,0.5-0.3,0.8c-1.6,3.6-3.2,7.2-4.8,10.8c-0.1,0.2-0.2,0.5-0.3,0.7c-0.9,1.9-1.8,3.9-2.7,5.8
		c-2.1,4.5-4.2,9-6.4,13.6c-1.1,2.3-2.2,4.6-3.3,6.9c-0.6,1.2-1.2,2.3-1.7,3.5c-2.6,5.2-5.2,10.5-8,15.8c-0.9,1.8-1.8,3.6-2.8,5.3
		c-0.6,1.2-1.2,2.4-1.9,3.6c-0.6,1.2-1.3,2.4-1.9,3.6c-1.9,3.6-3.8,7.2-5.8,10.8c-1.3,2.4-2.6,4.9-4,7.3c-1.2,2.1-2.3,4.2-3.5,6.3
		c-0.4,0.7-0.7,1.3-1.1,2c-1.9,3.4-3.8,6.8-5.8,10.2c-1.5,2.6-3,5.2-4.6,7.8c-1.2,2.1-2.5,4.2-3.7,6.3c-0.4,0.6-0.7,1.2-1.1,1.8
		c-1.2,2-2.3,3.9-3.5,5.8c-2.4,4-4.9,8-7.4,12c-0.8,1.3-1.6,2.5-2.4,3.8c-0.8,1.2-1.5,2.4-2.3,3.7c-1,1.5-1.9,3-2.9,4.5
		c-0.7,1.1-1.4,2.2-2.1,3.2l0,0c-3.2,5-6.4,9.9-9.7,14.9c-1.1,1.7-2.3,3.4-3.4,5.1c-1.5,2.2-3,4.5-4.5,6.7c-1.3,1.8-2.5,3.7-3.8,5.5
		c-1.8,2.6-3.5,5.1-5.3,7.7c-0.6,0.9-1.2,1.7-1.8,2.5c-1,1.5-2.1,2.9-3.1,4.4c-1.8,2.6-3.7,5.2-5.6,7.8c-1.4,1.9-2.7,3.8-4.1,5.7
		c-3,4-6,8.1-9,12.1c-0.3,0.5-0.7,0.9-1,1.4c-3.4,4.5-6.8,9-10.3,13.5c-1.7,2.1-3.3,4.3-5,6.4c-0.2,0.2-0.3,0.4-0.5,0.6
		c-1.7,2.2-3.4,4.3-5.2,6.5s-3.6,4.5-5.4,6.7c0,0.1-0.1,0.1-0.1,0.2c-0.1,0.1-0.2,0.2-0.3,0.4l-3.2,3.9c-0.3,0.4-0.7,0.8-1,1.2
		c-1.6,1.9-3.1,3.8-4.7,5.7c-1.1,1.4-2.2,2.7-3.4,4.1c-7.1,8.4-14.4,16.8-21.8,25.2c-1.3,1.5-2.7,3-4.1,4.5c-3.1,3.5-6.3,7-9.5,10.5
		c-1.1,1.2-2.3,2.4-3.4,3.6c-2.3,2.4-4.5,4.9-6.8,7.3c-1.7,1.8-3.5,3.6-5.2,5.4c-0.2,0.3-0.5,0.5-0.7,0.7c-1.1,1.2-2.3,2.3-3.4,3.5
		c-0.4,0.4-0.8,0.8-1.1,1.2c-0.4,0.5-0.9,0.9-1.4,1.4c-1,1.1-2.1,2.1-3.2,3.2c-2,2.1-4.1,4.1-6.1,6.2c-1.7,1.7-3.5,3.5-5.2,5.2
		c-1.6,1.5-3.1,3-4.6,4.5c-1.7,1.6-3.3,3.2-4.9,4.8c-0.7,0.7-1.4,1.4-2.2,2.1c-1,0.9-1.9,1.8-2.8,2.7c-0.4,0.4-0.8,0.8-1.2,1.2
		c-1.7,1.6-3.3,3.1-5,4.7c-0.9,0.8-1.7,1.6-2.6,2.4c-1.7,1.6-3.5,3.2-5.2,4.8c-0.2,0.2-0.5,0.4-0.7,0.6c-1.2,1.1-2.3,2.1-3.5,3.2
		c-1.2,1.1-2.3,2.1-3.5,3.2c-2.4,2.2-4.8,4.3-7.2,6.5c-1.2,1.1-2.4,2.1-3.6,3.2c-1.2,1.1-2.4,2.1-3.6,3.2c-2.4,2.1-4.9,4.2-7.3,6.3
		c-2.9,2.5-5.8,5-8.8,7.4c-1.7,1.4-3.4,2.8-5,4.2c-1,0.8-2,1.6-2.9,2.4c-1.4,1.2-2.9,2.4-4.3,3.5c-0.6,0.5-1.2,1-1.8,1.5
		c-2.2,1.8-4.3,3.5-6.5,5.2c-2.3,1.8-4.6,3.6-6.9,5.4c-2.6,2-5.2,4-7.8,6c0,0,0,0-0.1,0c-2.5,1.9-4.9,3.8-7.4,5.6
		c-2.5,1.9-4.9,3.7-7.4,5.5c-1.1,0.8-2.2,1.7-3.3,2.5c-2.6,1.9-5.2,3.8-7.8,5.7c-1.2,0.9-2.4,1.7-3.6,2.6c-4.9,3.6-9.8,7-14.7,10.5
		c-3.4,2.4-6.8,4.7-10.2,7.1c-2,1.3-3.9,2.7-5.9,4c-9.8,6.6-19.6,13-29.4,19.2c-1.6,1-3.1,2-4.6,2.9c-2.9,1.8-5.8,3.6-8.7,5.4
		c-2.1,1.3-4.3,2.6-6.4,3.9c-1.4,0.8-2.8,1.7-4.2,2.5c-5.3,3.2-10.6,6.3-15.9,9.4c-21.4,12.4-42.4,23.7-62.6,33.8
		c-2.6,1.3-5.1,2.6-7.7,3.8c-1.3,0.6-2.6,1.3-3.8,1.9c-4,1.9-7.9,3.8-11.8,5.7c-1.2,0.5-2.4,1.1-3.5,1.7
		c-13.3,6.2-26.1,11.9-38.5,17c-4.6-3.1-9-6.2-13.5-9.4c-18.6-13.6-36.1-28.5-52.3-44.7l64-64L373,651.9l0.1-0.1l107.4-107.4
		L587.9,437l235.3-236l91.3-91.3c0.2,0.2,0.3,0.3,0.5,0.5c0.1,0.1,0.1,0.1,0.2,0.2c0.2,0.2,0.3,0.5,0.5,0.7s0.3,0.5,0.4,0.7
		c0.6,1.1,1.1,2.4,1.5,3.9c0,0.2,0.1,0.3,0.1,0.5c0.5,2,0.8,4.3,1,6.9c0,0.5,0.1,1.1,0.1,1.7C918.8,125.4,918.8,126,918.8,126.5z"/>
	<g>
		<path class="st3" d="M711,544.3H485.1l0,0h-5.2l107.4-107.4l201.6-0.1c-3.2,4.9-6.4,9.9-9.7,14.9c-1.1,1.7-2.3,3.4-3.4,5.1
			c-1.5,2.2-3,4.5-4.5,6.7c-1.3,1.8-2.5,3.7-3.8,5.5c-1.8,2.6-3.5,5.1-5.3,7.7c-0.6,0.9-1.2,1.7-1.8,2.5c-1,1.5-2.1,2.9-3.1,4.4
			c-1.8,2.6-3.7,5.2-5.6,7.8c-1.4,1.9-2.7,3.8-4.1,5.7c-3,4-6,8.1-9,12.1c-0.3,0.5-0.7,0.9-1,1.4c-3.4,4.5-6.8,9-10.3,13.5
			c-1.7,2.1-3.3,4.3-5,6.4c-0.2,0.2-0.3,0.4-0.5,0.6c-1.7,2.2-3.4,4.3-5.1,6.5C714.6,539.8,712.8,542,711,544.3z"/>
		<path class="st4" d="M587.3,436.9L479.9,544.3v-5.2l0,0V313.2c35.9-29.1,72.1-55,107.5-77.8L587.3,436.9z"/>
		<path class="st5" d="M479.9,544.3L372.5,651.7v-5.2V540.6v-3.9V526V412.6v-0.1c6.3-6.6,12.7-13.2,19.3-19.8
			c28.7-28.7,58.3-55.1,88-79.3l0.2,225.7l0,0L479.9,544.3z"/>
		<path class="st6" d="M631.6,632.5c-1.7,1.7-3.5,3.5-5.2,5.2c-1.5,1.5-3.1,3-4.6,4.5c-1.6,1.6-3.3,3.2-4.9,4.8
			c-0.7,0.7-1.4,1.4-2.2,2.1c-0.9,0.9-1.9,1.8-2.8,2.7h-0.1l-99.7-0.1h-13.7h-10.7h-3.9H377.9h-5.2l107.4-107.4h5.2l0,0l225.7,0.2
			c-0.1,0.1-0.2,0.2-0.3,0.4l-3.2,3.9c-0.3,0.4-0.7,0.8-1,1.2c-1.6,1.9-3.1,3.8-4.7,5.7c-1.1,1.4-2.3,2.7-3.4,4.1
			c-7.1,8.4-14.3,16.8-21.8,25.2c-1.3,1.5-2.7,3-4.1,4.5c-3.2,3.5-6.3,7-9.5,10.5c-1.1,1.2-2.3,2.4-3.4,3.7
			c-2.3,2.4-4.5,4.9-6.8,7.3c-1.7,1.8-3.5,3.6-5.2,5.4c-0.2,0.3-0.5,0.5-0.7,0.7c-1.1,1.2-2.3,2.4-3.4,3.5c-0.4,0.4-0.7,0.8-1.1,1.2
			c-0.4,0.5-0.9,0.9-1.3,1.4c-1.1,1.1-2.1,2.1-3.2,3.2C635.7,628.4,633.6,630.4,631.6,632.5z"/>
		<path class="st4" d="M372.4,651.7L265,759.1v-5.2V543.7c26.8-38.2,57.2-76.7,91.4-114.1c0.1-0.1,0.1-0.1,0.2-0.2
			c5.2-5.6,10.5-11.3,15.8-16.8l0.1-0.1L372.4,526v10.7v3.9v106V651.7L372.4,651.7z"/>
		<path class="st3" d="M611.8,651.7L611.8,651.7c-4,3.8-7.9,7.5-11.8,11.2c-0.7,0.7-1.5,1.4-2.2,2c-0.2,0.2-0.5,0.4-0.7,0.6
			c-1.2,1.1-2.3,2.1-3.5,3.2c-1.2,1.1-2.3,2.1-3.5,3.2c-2.4,2.2-4.8,4.3-7.2,6.5c-1.2,1.1-2.4,2.1-3.7,3.2c-1.2,1.1-2.4,2.1-3.6,3.2
			c-2.4,2.1-4.8,4.2-7.3,6.3c-2.9,2.5-5.8,5-8.8,7.4c-1.7,1.4-3.4,2.8-5,4.2c-1,0.8-2,1.6-2.9,2.4c-1.4,1.2-2.9,2.4-4.3,3.5
			c-0.6,0.5-1.2,1-1.8,1.4c-2.1,1.7-4.3,3.5-6.5,5.2c-2.3,1.8-4.6,3.6-6.9,5.4c-2.6,2-5.2,4-7.8,6c0,0,0,0-0.1,0.1
			c-2.5,1.9-4.9,3.8-7.4,5.6c-2.5,1.9-4.9,3.7-7.4,5.5c-1.1,0.8-2.2,1.7-3.3,2.5c-2.6,1.9-5.2,3.8-7.8,5.7c-1.2,0.9-2.4,1.7-3.6,2.6
			c-4.9,3.6-9.8,7-14.7,10.5H270.2H265l107.4-107.4h5.2h106h3.9h10.7h17.9L611.8,651.7L611.8,651.7z"/>
	</g>
</g>
<g>
	<path class="st7" d="M924.4,123.4c0-0.1,0-0.2,0-0.3c0-0.1,0-0.3,0-0.4c-0.2-3-0.6-5.4-1.1-7.4c0-0.2-0.1-0.4-0.1-0.6
		c0-0.1,0-0.2-0.1-0.3c-0.5-1.8-1.1-3.4-1.9-4.8c-0.1-0.3-0.4-0.9-0.9-1.6c-0.2-0.3-0.5-0.7-0.9-1.1l-0.7-0.7
		c-7.2-7.2-26.1-7.6-56.2-1.1c-30.2,6.4-67.5,18.9-108.1,36.1c-54.9,23.2-112.9,54.1-167.9,89.4c-0.7,0.1-1.3,0.4-1.9,0.7
		c-37.4,24.1-73.7,50.3-107.9,78.1c-0.3,0.2-0.5,0.4-0.7,0.7c-31.1,25.4-60.6,52-87.8,79.2c-5.9,5.9-12.3,12.4-19.3,19.8l-0.1,0.1
		c-5.1,5.3-10.2,10.8-15.8,16.8l-0.1,0.1c-0.1,0.1-0.1,0.1-0.2,0.2c-32.5,35.5-63.4,74.1-91.8,114.6c-0.5,0.7-0.7,1.4-0.9,2.2
		c-59.7,85.4-97,162.1-117.9,211.6c-0.7,1.6-0.5,3.3,0.5,4.7c3.4,5.1,6.2,9.1,8.9,12.7c7.6,10.5,15.6,20.7,24.6,31.2
		c0.5,0.5,0.9,1.1,1.4,1.6c1,1.2,2.1,2.4,3.3,3.7l0.4,0.5c1.5,1.7,3,3.4,4.6,5c3.4,3.8,7.2,7.7,12.2,12.7
		c16.1,16.1,33.9,31.3,52.9,45.2c4.2,3,8.8,6.2,13.6,9.5c0.8,0.6,1.8,0.9,2.8,0.9c0.6,0,1.3-0.1,1.9-0.4
		c11.7-4.8,24.4-10.4,38.7-17.1c0.1,0,0.2-0.1,0.3-0.1c1.1-0.6,2.1-1.1,3-1.5c0.1,0,0.2-0.1,0.3-0.1c3.9-1.9,7.8-3.8,11.8-5.7
		c0.4-0.2,0.8-0.4,1.3-0.6c0.8-0.4,1.6-0.8,2.4-1.2c2-0.9,4-1.9,5.9-2.9l1.9-1c20.7-10.4,41.9-21.8,62.9-34c5.2-3,10.5-6.2,15.9-9.4
		c0.7-0.4,1.4-0.8,2.1-1.3c0.7-0.4,1.3-0.8,2-1.2c0.1,0,0.1-0.1,0.2-0.1c1-0.6,2.1-1.3,3.2-1.9c1.1-0.7,2.2-1.3,3.2-2l8.6-5.4
		c1-0.6,1.9-1.2,2.9-1.8c0.6-0.4,1.2-0.8,1.8-1.1c9.8-6.2,19.7-12.7,29.5-19.2c1-0.7,2.1-1.4,3.1-2.1c0.9-0.6,1.9-1.3,2.8-1.9
		c0.1,0,0.1-0.1,0.2-0.1c1.7-1.2,3.4-2.4,5.1-3.5c1.7-1.2,3.4-2.4,5.2-3.6c1.6-1.2,3.3-2.3,4.9-3.5c3.2-2.3,6.6-4.6,9.9-7.1
		c0.6-0.4,1.1-0.8,1.7-1.2c0.6-0.5,1.3-0.9,1.9-1.4l7.8-5.7c0.6-0.4,1.2-0.9,1.8-1.3c0.5-0.4,1-0.8,1.5-1.2c2.2-1.6,4.4-3.2,7.5-5.5
		c1.8-1.3,3.5-2.6,5.2-3.9c0.6-0.4,1.1-0.9,1.7-1.3c0.2-0.1,0.5-0.3,0.7-0.4l7.8-6l6.9-5.4c2.4-1.8,4.6-3.6,6.6-5.3l1.7-1.5
		c1.2-1,2.9-2.3,4.5-3.6c0.8-0.7,1.7-1.5,2.7-2.2c0.1,0,0.1-0.1,0.2-0.1c1.5-1.3,3.2-2.7,4.8-4l0.1,0c3.1-2.5,6.1-5,9-7.5
		c1.2-1,2.4-2.1,3.6-3.1c1.2-1.1,2.5-2.1,3.7-3.2c0,0,0.1-0.1,0.1-0.1c0.6-0.5,1.1-1,1.7-1.5c0.6-0.6,1.3-1.1,1.9-1.7
		c0.6-0.5,1.1-1,1.7-1.5c0.6-0.5,1.3-1.1,1.9-1.7c1.2-1.1,2.4-2.2,3.6-3.2c1.2-1.1,2.4-2.2,3.6-3.3l7-6.4c0,0,0,0,0,0l0.1,0
		c0.2-0.2,0.4-0.3,0.6-0.5c0.7-0.6,1.5-1.3,2.3-2.1c0.5-0.5,1-0.9,1.5-1.4c0.5-0.4,0.9-0.9,1.4-1.3c0.5-0.4,1-0.9,1.4-1.3
		c0.4-0.4,0.8-0.7,1.2-1.1c0,0,0.1-0.1,0.1-0.1l5-4.7c0,0,0.1-0.1,0.1-0.1l1.2-1.2c0.9-0.9,1.7-1.7,2.5-2.4c0.9-0.8,1.7-1.6,2.4-2.3
		l0.1-0.1c1.5-1.5,3.1-3.1,4.7-4.6c0,0,0.1-0.1,0.1-0.1c1.5-1.5,2.9-2.9,4.5-4.4c0,0,0.1-0.1,0.1-0.1l5.2-5.2c0,0,0.1-0.1,0.1-0.1
		c1-1,2-2,3-3c1-1,2.1-2.1,3.1-3.1c0.3-0.3,0.7-0.7,1-1c0.7-0.7,1.5-1.4,2.2-2.2c0.1-0.1,0.2-0.2,0.3-0.3c0.4-0.4,0.9-0.8,1.4-1.4
		c0,0,0.1-0.1,0.1-0.1c0.1-0.1,0.4-0.4,0.6-0.7c0,0,0.1-0.1,0.1-0.2c0.5-0.5,1-1.1,1.5-1.6c0.6-0.6,1.1-1.1,1.7-1.7
		c0.2-0.2,0.6-0.5,1-1c0.8-0.8,1.6-1.6,2.4-2.5c0.9-0.9,1.8-1.8,2.6-2.7c1.2-1.2,2.3-2.5,3.5-3.7c1.1-1.2,2.2-2.4,3.3-3.6
		c0,0,0.1-0.1,0.1-0.1c0.5-0.6,1.1-1.1,1.6-1.7c0.6-0.6,1.2-1.3,1.8-1.9c3.1-3.4,6.4-7,9.5-10.5c1.4-1.5,2.8-3,4.2-4.6
		c8.3-9.5,15.5-17.7,21.8-25.2c1.3-1.5,2.4-2.8,3.5-4.2c0.8-1,1.6-1.9,2.4-2.9c0.8-0.9,1.5-1.9,2.3-2.8c0.1-0.1,0.1-0.2,0.2-0.2
		c0.1-0.1,0.2-0.2,0.3-0.3c0.2-0.3,0.5-0.5,0.7-0.8l3.1-3.8c0.1-0.1,0.2-0.2,0.3-0.4c0.2-0.2,0.3-0.4,0.4-0.6c0.8-1,1.6-2,2.4-3
		c0.9-1.1,1.8-2.2,2.7-3.3c1.6-2,3.4-4.2,5.2-6.4c0.2-0.2,0.3-0.4,0.4-0.5c0.1-0.1,0.1-0.1,0.2-0.2c0.9-1.1,1.7-2.2,2.6-3.3
		c0.8-1,1.6-2.1,2.5-3.2c3.5-4.6,7-9.1,10.3-13.6c0.1-0.1,0.2-0.3,0.3-0.4c0.1-0.1,0.1-0.2,0.2-0.2c0.2-0.2,0.4-0.5,0.7-0.9
		c1.5-2,2.9-3.9,4.4-5.9c1.5-2,3-4,4.5-6.1c0.7-1,1.4-1.9,2.1-2.9c0.7-0.9,1.3-1.9,2-2.8c0,0,0.1-0.1,0.1-0.1
		c1.9-2.6,3.8-5.2,5.7-7.9c0.5-0.7,1-1.4,1.4-2c0.5-0.7,1.1-1.5,1.6-2.2c0.6-0.8,1.2-1.6,1.8-2.5c0.9-1.3,1.8-2.6,2.7-3.9
		c0.9-1.3,1.7-2.5,2.6-3.7c0.7-0.9,1.3-1.9,2-2.9c0.6-0.9,1.2-1.8,1.8-2.6c0,0,0.1-0.1,0.1-0.1c0.8-1.1,1.5-2.3,2.3-3.4
		c0.7-1.1,1.5-2.2,2.2-3.3c0,0,0-0.1,0.1-0.1c0.5-0.8,1.1-1.7,1.7-2.5c0.6-0.9,1.2-1.7,1.7-2.6c3.7-5.6,6.8-10.3,9.7-14.9
		c0.7-1.1,1.4-2.2,2.1-3.3c0.5-0.8,1-1.5,1.5-2.3c0.5-0.7,0.9-1.4,1.4-2.2c0,0,0.1-0.1,0.1-0.2l0.7-1.1c0.5-0.8,1-1.6,1.5-2.4
		c0-0.1,0.1-0.1,0.1-0.2c0.4-0.6,0.8-1.2,1.2-1.8c0.4-0.6,0.8-1.3,1.2-1.9c2.5-3.9,5-8,7.4-12c0.9-1.4,1.7-2.8,2.5-4.1l1-1.6
		c0.2-0.3,0.4-0.7,0.6-1c0.1-0.2,0.2-0.4,0.4-0.6c0.1-0.1,0.1-0.2,0.2-0.3c0.6-1,1.2-2,1.8-3.1c0.6-1.1,1.3-2.1,1.9-3.2
		c1.6-2.6,3.2-5.3,4.6-7.8c2-3.5,4-6.9,5.8-10.3c0.2-0.4,0.4-0.7,0.6-1.1c0.2-0.3,0.3-0.6,0.5-0.9c0.6-1.1,1.2-2.2,1.8-3.2
		c0.6-1,1.1-2,1.7-3c1.1-1.9,2.1-3.8,3.1-5.6l1-1.8c2-3.6,3.9-7.3,5.8-10.8l0.1-0.1c0,0,0-0.1,0-0.1c0.3-0.6,0.6-1.1,0.9-1.7
		c0.3-0.6,0.6-1.2,1-1.8c0.7-1.2,1.3-2.4,1.9-3.6c1-1.8,2-3.6,2.8-5.4c2.3-4.3,4.4-8.6,6.5-12.7l1.6-3.2c0.1-0.1,0.1-0.2,0.1-0.3
		c0.3-0.7,0.7-1.4,1.1-2.3l3.8-7.9c2.2-4.7,4.5-9.5,6.4-13.6c0.5-1,0.9-2,1.4-2.9c0.4-1,0.9-1.9,1.3-2.8c0.1-0.2,0.2-0.5,0.3-0.7
		l0-0.1c0,0,0-0.1,0-0.1l4.8-10.8c0.1-0.1,0.1-0.3,0.2-0.5c0-0.1,0.1-0.2,0.1-0.3c0,0,0,0,0,0c1.6-3.6,3.2-7.1,4.6-10.6
		c0,0,0-0.1,0-0.1c0.1-0.1,0.1-0.3,0.2-0.4c0.2-0.4,0.4-0.8,0.5-1.3c0.2-0.5,0.5-1.1,0.7-1.6c0.2-0.4,0.3-0.8,0.5-1.2
		c0.2-0.4,0.4-0.8,0.4-1c0.3-0.7,0.6-1.3,0.8-2c0.5-1.1,0.9-2.2,1.4-3.3c0.8-1.9,1.6-3.8,2.3-5.6l1.2-3c1.2-3,2.4-6,3.5-9.1
		c1.5-3.8,2.8-7.2,3.9-10.3c0.1-0.3,0.2-0.6,0.3-0.9c0-0.1,0.1-0.3,0.2-0.4c0,0,0-0.1,0.1-0.1l2-5.6c0.4-0.9,0.7-1.8,0.9-2.6
		l0.2-0.5c1-2.8,2-5.6,2.9-8.3l0.9-2.6c0.3-0.8,0.6-1.7,0.9-2.7c0.2-0.6,0.4-1.2,0.6-1.8c0.2-0.6,0.4-1.2,0.6-1.8c0,0,0-0.1,0-0.1
		l0.6-1.8c1.9-6.2,3.7-12,5.3-17.8c0.2-0.6,0.3-1.2,0.5-1.8c0.1-0.5,0.3-1.1,0.4-1.6c0.8-3,1.5-5.8,2.2-8.7c0.4-1.7,0.8-3.4,1.2-5
		c1.8-7.6,3.3-15.1,4.4-22.1c0.1-0.3,0.1-0.7,0.2-1c0-0.3,0.1-0.6,0.2-1c0.3-2.1,0.5-4.1,0.7-6c0-0.2,0-0.3,0-0.5v-0.5
		c0-0.2,0.1-0.5,0.1-0.7c0-0.1,0-0.2,0-0.3c0-0.2,0.1-0.4,0.1-0.6l0.3-4.2c0-0.1,0-0.2,0-0.4c0-0.2,0-0.4,0-0.6
		c0-0.4,0.1-0.9,0.1-1.4v-2.8c0.5-0.8,0.7-1.6,0.7-2.6C924.5,124.3,924.5,123.9,924.4,123.4z M700.4,549.5c-0.1,0.1-0.1,0.1-0.2,0.2
		c-0.8,0.9-1.5,1.9-2.3,2.8c0,0-0.1,0.1-0.1,0.1c-0.5,0.6-1,1.3-1.6,1.9c-0.6,0.7-1.2,1.4-1.8,2.1c-8.5,10.1-15.2,17.8-21.7,25.1
		c-1.3,1.4-2.6,2.9-4,4.4c-1.6,1.8-3.2,3.5-4.8,5.3c-1.6,1.7-3.1,3.5-4.7,5.2c-0.4,0.4-0.7,0.8-1.1,1.2c-0.8,0.8-1.5,1.6-2.3,2.5
		c-1.1,1.2-2.3,2.4-3.4,3.6c-1.1,1.2-2.2,2.4-3.3,3.6c-0.8,0.9-1.7,1.8-2.5,2.6c-0.9,0.9-1.8,1.8-2.7,2.8c-0.1,0.1-0.1,0.2-0.2,0.2
		c-0.1,0.1-0.3,0.2-0.4,0.4c-0.1,0.1-0.1,0.1-0.2,0.2c-1,1.1-2.2,2.2-3.2,3.3c-0.3,0.3-0.5,0.6-0.8,0.8c-0.1,0.1-0.2,0.2-0.3,0.4
		c-0.1,0.1-0.2,0.3-0.4,0.4c-0.1,0.1-0.2,0.2-0.3,0.3c-0.2,0.2-0.5,0.5-0.8,0.9l-3,3c-2.5,2.3-4.6,4.3-6.4,6.2l-5.2,5.2
		c-0.7,0.7-1.5,1.5-2.2,2.2c-0.8,0.8-1.6,1.5-2.4,2.3c-0.8,0.8-1.6,1.6-2.4,2.3c-0.8,0.8-1.7,1.6-2.5,2.5c-0.7,0.7-1.3,1.3-2,1.9
		c-0.1,0.1-0.2,0.2-0.2,0.2c-0.4,0.4-0.8,0.8-1.2,1.1h-97.9H384.8l97.4-97.4L700.4,549.5z M270,546.2c28.1-40,58.5-78,90.6-113.1
		l0.1-0.1c0.1-0.1,0.1-0.1,0.2-0.2c2.2-2.4,4.4-4.8,6.6-7.2L367.4,526v123.6L270,747V546.2z M474.8,324.4l0.1,101.9v115.9
		l-97.4,97.4V415c6.7-7,12.7-13.1,18.3-18.8C420.8,371.3,447.3,347.2,474.8,324.4z M582.3,434.8L485,532.1l-0.1-105.9V316.2
		c31.1-25.1,63.8-49,97.5-71L582.3,434.8z M374.5,656.7h137.6l87.1,0.1c-0.9,0.8-1.7,1.7-2.6,2.5c0,0-0.1,0.1-0.1,0.1
		c-0.6,0.6-1.3,1.2-1.9,1.7c-0.1,0-0.1,0.1-0.2,0.1l-0.1,0c-0.2,0.2-0.5,0.4-0.6,0.6l-7,6.4c-1.2,1.1-2.4,2.1-3.5,3.2
		c-1.2,1.1-2.4,2.2-3.7,3.3c-1,0.9-2,1.7-3,2.6l-0.5,0.4c-0.1,0-0.1,0.1-0.1,0.1c-0.6,0.5-1.1,1-1.7,1.5c-0.6,0.5-1.2,1.1-1.8,1.6
		c-2.2,1.9-4.7,4.1-7.2,6.2c-2.8,2.4-5.7,4.9-8.7,7.3c0,0-0.1,0.1-0.1,0.1c-1.7,1.4-3.4,2.8-5,4.2c-1,0.8-2,1.6-2.9,2.4
		c-1.5,1.2-3.1,2.5-4.1,3.4c0,0-0.1,0.1-0.1,0.1c-0.5,0.4-1,0.8-1.4,1.1c-0.1,0.1-0.3,0.2-0.4,0.3l-1,0.8c-1.8,1.4-3.6,2.9-5.5,4.4
		l-6.9,5.4l-7.8,6c-0.1,0.1-0.2,0.2-0.3,0.3c-0.7,0.5-1.3,1-2,1.5c-1.7,1.3-3.4,2.6-5,3.8c0,0-0.1,0.1-0.1,0.1
		c-3,2.3-5.2,3.9-7.3,5.4c-0.6,0.4-1.2,0.9-1.8,1.3c-0.5,0.4-1,0.8-1.5,1.2l-7.9,5.7c-0.6,0.4-1.1,0.8-1.7,1.2
		c-0.6,0.4-1.3,0.9-1.9,1.3c-3.2,2.4-6.5,4.7-9.7,7c-1.2,0.9-2.4,1.7-3.6,2.6H277.1L374.5,656.7z M775,449c-0.5,0.8-1.1,1.6-1.6,2.5
		c-0.6,0.9-1.2,1.7-1.7,2.6c-0.7,1.1-1.5,2.2-2.2,3.3c-0.7,1.1-1.5,2.2-2.2,3.3c-0.7,0.9-1.3,1.9-1.9,2.8c-0.6,0.9-1.2,1.8-1.9,2.7
		c-0.9,1.3-1.8,2.6-2.7,3.9c-0.9,1.3-1.7,2.5-2.7,3.9c-0.5,0.8-1.1,1.5-1.6,2.3c-0.1,0.1-0.1,0.1-0.2,0.2c-0.5,0.7-1,1.4-1.4,2
		c-0.6,0.8-1.1,1.6-1.6,2.3c-1.7,2.5-3.6,5.1-5.5,7.6l-0.1,0.1c-0.7,1-1.4,1.9-2.1,2.9c-0.7,0.9-1.3,1.9-2,2.7c-1.5,2-3,4-4.5,6.1
		c-1.5,2-3,4-4.5,6c-0.1,0.1-0.2,0.2-0.3,0.4c-0.1,0.1-0.1,0.2-0.2,0.2c-0.2,0.2-0.4,0.5-0.7,0.9c-3.3,4.3-6.7,8.8-10.1,13.2
		c-0.9,1.1-1.7,2.2-2.6,3.3c-0.8,1-1.5,2-2.3,3c-0.2,0.2-0.3,0.4-0.4,0.5c-0.1,0.1-0.2,0.2-0.2,0.3c-0.8,1.1-1.7,2.2-2.5,3.2
		c-0.8,1-1.6,2-2.4,3.1c-1.6,1.7-3,3.4-4.3,5H492l97.4-97.4l190.3-0.1C778.2,444.2,776.6,446.6,775,449z M432.5,785.2
		c-0.6,0.4-1.3,0.8-1.9,1.2c-0.9,0.6-1.8,1.1-2.7,1.7l-8.7,5.4c-1,0.6-2.1,1.3-3.1,1.9c-1.1,0.6-2.1,1.3-3.2,1.9
		c-0.7,0.4-1.4,0.8-2.1,1.3c-0.7,0.4-1.3,0.8-2,1.2c0,0-0.1,0-0.1,0.1c-5.3,3.2-10.7,6.3-15.8,9.4c-20.8,12-41.8,23.4-62.3,33.7
		l-1.9,1c-1.9,1-3.7,1.9-5.6,2.8c-0.9,0.4-1.9,0.9-2.8,1.4c-0.4,0.2-0.8,0.4-1.1,0.5c-4,1.9-7.8,3.8-11.7,5.7
		c-1.2,0.5-2.4,1.1-3.7,1.8c-13.1,6.1-24.8,11.3-35.7,15.8c-3.9-2.7-7.7-5.3-11.1-7.8c-18.6-13.6-36-28.4-51.7-44.2
		c-4.9-4.9-8.6-8.8-11.9-12.4c0,0,0,0-0.1-0.1c-1.5-1.6-2.9-3.2-4.4-4.9l-0.5-0.5c0,0-0.1-0.1-0.1-0.1c-1-1.1-2-2.3-3-3.4
		c-0.5-0.6-1-1.1-1.4-1.6c-8.8-10.2-16.6-20.2-24.1-30.5c-2.2-3-4.5-6.3-7.2-10.2c19.8-46.8,54.1-116.9,107.5-195.4v198.4
		c0,0.1,0,0.2,0,0.2c0,0.1,0,0.3,0,0.4c0,0.1,0,0.2,0.1,0.4c0,0.1,0,0.2,0.1,0.4c0,0.1,0.1,0.3,0.1,0.4c0,0.1,0,0.1,0.1,0.2
		c0,0,0,0.1,0.1,0.1c0.1,0.1,0.1,0.2,0.2,0.4c0.1,0.1,0.1,0.2,0.2,0.3c0.1,0.1,0.1,0.2,0.2,0.3c0.1,0.1,0.1,0.2,0.2,0.3
		c0.1,0.1,0.2,0.2,0.3,0.3c0.1,0.1,0.2,0.2,0.3,0.3c0.1,0.1,0.2,0.1,0.3,0.2c0.1,0.1,0.2,0.1,0.3,0.2c0.1,0.1,0.2,0.1,0.3,0.2
		c0.1,0.1,0.2,0.1,0.4,0.2c0,0,0.1,0,0.1,0.1c0,0,0.1,0,0.1,0c0.2,0.1,0.4,0.1,0.6,0.2c0.1,0,0.2,0,0.2,0.1c0.3,0.1,0.6,0.1,0.9,0.1
		c0,0,0,0,0,0c0,0,0,0,0,0c0,0,0,0,0,0h199.6c-0.9,0.6-1.9,1.3-2.9,2C452,772.6,442.1,779,432.5,785.2z M913.8,126.5v3.7
		c0,0.2,0,0.4,0,0.6c0,0.4-0.1,0.8-0.1,1.2l-0.3,3.8c-0.1,0.4-0.1,0.7-0.1,0.9c0,0.1,0,0.3-0.1,0.4c0,0.3-0.1,0.5-0.1,0.8v0.6
		c-0.2,1.8-0.4,3.5-0.6,5.2c-0.1,0.3-0.1,0.7-0.2,1c0,0.3-0.1,0.6-0.2,1c-1,6.9-2.5,14.1-4.2,21.3c-0.4,1.6-0.8,3.3-1.2,5
		c-0.7,2.7-1.4,5.5-2.2,8.4c-0.2,0.6-0.3,1.1-0.5,1.7c-0.1,0.6-0.3,1.1-0.4,1.7c-1.5,5.6-3.3,11.3-5.2,17.4l-0.5,1.7
		c-0.2,0.6-0.4,1.2-0.6,1.8c-0.2,0.6-0.4,1.2-0.6,1.8c0,0.1-0.1,0.2-0.1,0.4c-0.1,0.5-0.4,1.2-0.6,1.9c0,0.1,0,0.1-0.1,0.2l-0.9,2.7
		c-0.9,2.6-1.9,5.5-2.9,8.2c0,0,0,0.1,0,0.1l-0.2,0.6c-0.2,0.6-0.4,1.3-0.6,1.8c0,0.1-0.1,0.2-0.1,0.3l-2.1,5.6
		c-0.1,0.3-0.2,0.6-0.3,0.9c0,0.1-0.1,0.3-0.1,0.4c0,0.1,0,0.1-0.1,0.2c-1.1,3.1-2.3,6.4-3.8,10.1c0,0,0,0.1-0.1,0.1
		c-1.1,2.9-2.3,5.9-3.4,8.9l-1.2,3c0,0,0,0.1,0,0.1c-0.7,1.8-1.3,3.4-2.1,5.1c-0.5,1.2-1,2.4-1.5,3.6c-0.3,0.6-0.5,1.3-0.8,2
		c-0.1,0.2-0.1,0.3-0.2,0.5c-0.3,0.6-0.5,1.2-0.8,1.8c-0.2,0.5-0.4,1-0.6,1.5c-0.1,0.2-0.1,0.3-0.2,0.5c-0.1,0.2-0.2,0.5-0.3,0.7
		c-0.1,0.2-0.2,0.5-0.3,0.7c-1.5,3.4-2.9,6.9-4.5,10.3c-0.2,0.4-0.3,0.8-0.4,1.1l-4.7,10.5c-0.1,0.2-0.2,0.4-0.2,0.6l0,0.1
		c-0.5,1-0.9,1.9-1.4,2.9c-0.4,1-0.9,1.9-1.3,2.9c-2,4.4-4.1,8.9-6.4,13.6l-3.3,6.8l-0.4,0.9c-0.4,0.9-0.9,1.8-1.3,2.8l-1.5,3
		c-2,4.1-4.2,8.4-6.4,12.5c0,0,0,0.1-0.1,0.1c-0.9,1.8-1.7,3.4-2.6,5c-0.1,0.1-0.1,0.2-0.2,0.3c-0.6,1.2-1.1,2.2-1.7,3.3
		c-0.1,0.1-0.1,0.2-0.2,0.3c-0.3,0.6-0.6,1.1-0.9,1.7c-0.3,0.6-0.7,1.3-1,1.9l0,0.1c-1.8,3.5-3.7,7.1-5.7,10.6l-1,1.9
		c-0.9,1.8-1.9,3.6-2.9,5.3c-0.6,1.1-1.2,2.2-1.8,3.2c-0.6,1-1.1,2-1.7,3.1c-0.2,0.4-0.4,0.8-0.6,1.1c-0.2,0.3-0.3,0.6-0.5,0.9
		c-1.9,3.3-3.8,6.7-5.8,10.1c-1.5,2.5-3,5.1-4.5,7.7c0,0-0.1,0.1-0.1,0.1c-0.6,1-1.2,2-1.8,3.1c-0.6,1-1.2,2.1-1.8,3.1
		c-0.2,0.3-0.4,0.7-0.6,1c-0.1,0.2-0.2,0.4-0.4,0.6c0,0.1-0.1,0.1-0.1,0.2l-1,1.7c-0.8,1.3-1.6,2.7-2.4,4c0,0,0,0.1-0.1,0.1
		c-2.4,4-4.9,8-7.4,12c-0.4,0.6-0.8,1.2-1.2,1.8c-0.4,0.6-0.8,1.3-1.2,1.9c-0.6,0.9-1.2,1.8-1.7,2.7l-0.6,1c-0.5,0.8-1,1.5-1.5,2.3
		c-0.5,0.7-0.9,1.4-1.4,2.2c0,0,0,0.1-0.1,0.1c-0.2,0.3-0.4,0.6-0.6,0.9l-194.1,0.1l0.1-193.3c54.3-34.8,111.7-65.4,166-88.3
		c94.5-40,146.5-43.9,153.3-37.1l0.4,0.4c0.1,0.1,0.2,0.2,0.3,0.4c0,0,0,0,0,0c0,0.1,0.1,0.1,0.1,0.2c0.4,0.7,0.7,1.5,1,2.5
		c0,0.2,0.1,0.3,0.1,0.4c0,0.1,0,0.2,0.1,0.3c0.4,1.5,0.7,3.4,0.9,5.9c0,0,0,0.1,0,0.1C913.8,124.8,913.8,126,913.8,126.5z"/>
	<path class="st4" d="M512,972c-62.1,0-122.3-12.2-179.1-36.2c-54.8-23.2-104-56.3-146.2-98.6c-42.2-42.2-75.4-91.4-98.6-146.2
		C64.2,634.3,52,574.1,52,512s12.2-122.3,36.2-179.1c23.2-54.8,56.3-104,98.6-146.2s91.4-75.4,146.2-98.6
		C389.7,64.2,449.9,52,512,52c11,0,20,9,20,20s-9,20-20,20c-56.7,0-111.7,11.1-163.5,33c-50,21.2-94.9,51.4-133.5,90
		s-68.9,83.5-90,133.5C103.1,400.3,92,455.3,92,512c0,56.7,11.1,111.7,33,163.5c21.2,50,51.4,94.9,90,133.5s83.5,68.9,133.5,90
		c51.8,21.9,106.8,33,163.5,33c56.7,0,111.7-11.1,163.5-33c50-21.2,94.9-51.4,133.5-90s68.9-83.5,90-133.5
		c21.9-51.8,33-106.8,33-163.5c0-11,9-20,20-20s20,9,20,20c0,62.1-12.2,122.3-36.2,179.1c-23.2,54.8-56.3,104-98.6,146.2
		c-42.2,42.2-91.4,75.4-146.2,98.6C634.3,959.8,574.1,972,512,972z"/>
</g>
</svg>
