<?xml version="1.0" encoding="utf-8"?>
<!-- Generator: Adobe Illustrator 24.0.0, SVG Export Plug-In . SVG Version: 6.00 Build 0)  -->
<svg version="1.1" id="Capa_1" xmlns="http://www.w3.org/2000/svg" xmlns:xlink="http://www.w3.org/1999/xlink" x="0px" y="0px"
	 viewBox="0 0 1024 1024" style="enable-background:new 0 0 1024 1024;" xml:space="preserve">
<style type="text/css">
	.st0{fill:#534A9A;}
	.st1{fill:#9DD4A9;}
	.st2{fill:#F473C3;}
	.st3{fill:#F8F2F0;}
	.st4{fill:#84BFA7;}
	.st5{fill:#C640A6;}
	.st6{fill-rule:evenodd;clip-rule:evenodd;fill:#F9F7FC;}
	.st7{fill-rule:evenodd;clip-rule:evenodd;fill:#DCDAEB;}
	.st8{fill:#FFFFFF;}
</style>
<g>
	<path class="st0" d="M952,512c0,243-197,440-440,440c-96.2,0-185.1-30.8-257.5-83.2c-19-13.7-36.8-28.9-53.4-45.5
		c-1.4-1.5-2.9-2.9-4.3-4.4l0,0c-14.4-14.8-27.8-30.5-39.9-47.1c-0.4-0.6-0.8-1.1-1.2-1.7c-6.1-8.4-11.9-17-17.4-25.8l0,0
		c-21.1-33.9-37.8-71-49.1-110.3C78,595.2,72,554.3,72,512C72,269,269,72,512,72c73.5,0,142.8,18,203.7,49.9
		c39.9,20.8,76.2,47.6,107.7,79.2c5.3,5.3,10.5,10.8,15.6,16.4c5,5.6,10,11.3,14.7,17.2l0,0c4.8,5.9,9.4,11.9,13.9,18
		c13.2,18,25,37.1,35.3,57.1C934.3,370.3,952,439.1,952,512z"/>
	<g>
		<path class="st1" d="M450.8,669.5l-15.9-16l-16.6-16.7L814.4,242l94.3-94c8.5-8.4,22-8.8,30.9-0.8c0.3,0.2,0.5,0.5,0.8,0.7
			c8.8,8.7,8.9,23,0.1,31.9L846.3,274L450.8,669.5z"/>
		<path class="st1" d="M485.9,634.4c-0.3,2.3-1.4,4.5-3.2,6.2l-52.1,52.2l-55.3,55.4c-33.7,42-70.4,62.5-105.5,70.3
			c-4.2,1-8.5,1.7-12.7,2.3c-0.3,0-0.5,0.1-0.8,0.1c-0.3,0-0.7,0.1-1,0.1c-0.6,0.1-1.2,0.2-1.8,0.2c-1.7,0.2-3.4,0.4-5,0.5
			c-0.6,0-1.2,0.1-1.8,0.1c-0.7,0.1-1.4,0.1-2.1,0.2c-1.7,0.1-3.4,0.2-5,0.2c-0.6,0-1.2,0-1.8,0.1h-0.2c-0.6,0-1.2,0-1.8,0
			c-13.6,0.2-26.6-1.2-38.9-3.5l0,0c-14.4-14.8-27.8-30.5-39.9-47.1c-0.4-0.6-0.8-1.1-1.2-1.7c-6.1-8.4-11.9-17-17.4-25.8l0,0
			c-21.1-33.9-37.8-71-49.1-110.3c3.7-8.8,7.9-16.7,12.1-23.7c12.1-20.1,38.2-26.1,58-13.4l24.2,15.1l127.2,79.3l30.7,19.1
			l53.6-53.4l52-51.8c1.7-1.7,3.9-2.8,6.2-3.1c3.4-0.5,7,0.5,9.7,3.1l10.3,10.1l9.6,9.4C485.3,627.3,486.4,631,485.9,634.4z"/>
		<path class="st2" d="M430.6,692.8l-17.5-17.6L394.9,657l52-51.8c4.4-4.3,11.4-4.4,15.8-0.1l10.3,10.1l9.6,9.4
			c4.5,4.4,4.5,11.6,0.1,16L430.6,692.8z"/>
		<path class="st3" d="M310.6,691.3l-53.5,129.5l0,0c-0.3,0-0.5,0.1-0.8,0.1s-0.7,0.1-1,0.1c-0.6,0.1-1.2,0.2-1.8,0.2
			c-1.7,0.2-3.4,0.4-5,0.5c-0.6,0-1.2,0.1-1.8,0.1c-0.7,0.1-1.4,0.1-2.1,0.2c-1.7,0.1-3.4,0.2-5,0.2c-0.6,0-1.2,0-1.8,0.1h-0.2
			c-0.6,0-1.2,0-1.8,0c-13.6,0.2-26.6-1.2-38.9-3.5l0,0c-14.4-14.8-27.8-30.5-39.9-47.1c-0.4-0.6-0.8-1.1-1.2-1.7
			c-6.1-8.4-11.9-17-17.4-25.8l4.2-12.4l5.6-16.5l0,0l10.1-29.5l5.2-15.1l10.1-29.5l9.9-29.2L310.6,691.3z"/>
		<g>
			<path class="st2" d="M247.5,724.7l-89.3-38.9l-10.1,29.5l86.9,37.9c1.7,0.7,12.9,5.7,20.5-8C259.7,737.7,255.3,728.1,247.5,724.7
				z"/>
			<path class="st2" d="M243.3,670.9l-70-29.8l-10.1,29.5l67.8,28.9c1.7,0.7,14.5,6.3,20.4-8.2C254.8,683.4,251.2,674.3,243.3,670.9
				z"/>
			<path class="st2" d="M215.3,779.8c-5.6,13.4-18.7,8.9-20.4,8.2l-38.1-16.2c-0.4-0.6-0.8-1.1-1.2-1.7c-6.1-8.4-11.9-17-17.4-25.8
				l0,0l4.2-12.4l64.6,27.5C215,762.8,218.6,771.9,215.3,779.8z"/>
		</g>
		<path class="st2" d="M940.4,179.9L846.3,274l-31.9-32l94.3-94c8.5-8.4,22-8.8,30.9-0.8c0.3,0.2,0.5,0.5,0.8,0.7
			C949.1,156.7,949.2,171,940.4,179.9z"/>
		<path class="st4" d="M450.8,669.5l-15.9-16L940.3,148c8.8,8.7,8.9,23,0.1,31.9L846.3,274L450.8,669.5z"/>
		<path class="st5" d="M940.4,179.9L846.3,274l-16-16l110-110C949.1,156.7,949.2,171,940.4,179.9z"/>
		<path class="st4" d="M269.8,818.5L473,615.3l9.6,9.4c4.5,4.4,4.5,11.6,0.1,16L375.3,748.2C341.6,790.2,304.9,810.7,269.8,818.5z"
			/>
		<path class="st5" d="M430.6,692.8l-17.5-17.6l60-60l9.6,9.4c4.5,4.4,4.5,11.6,0.1,16L430.6,692.8z"/>
	</g>
	<g>
		<g>
			<path class="st6" d="M351.3,448.1c0,54-44.1,98.2-98.3,98.2c-27.1,0-51.7-11-69.5-28.8s-28.9-42.4-28.9-69.5
				c0-54.1,44.2-98.3,98.3-98.3c27.1,0,51.7,11.1,69.5,28.9C340.2,396.4,351.2,421,351.3,448.1z"/>
		</g>
		<path class="st7" d="M351.3,448.1c0,54-44.1,98.2-98.3,98.2c-27.1,0-51.7-11-69.5-28.8l138.9-138.9
			C340.2,396.4,351.2,421,351.3,448.1z"/>
	</g>
</g>
<g>
	<g>
		<path class="st8" d="M944,144.4C944,144.4,944,144.4,944,144.4C944,144.4,944,144.4,944,144.4C943.9,144.4,943.9,144.4,944,144.4
			c-0.2-0.2-0.4-0.3-0.5-0.5c-0.2-0.2-0.4-0.4-0.7-0.7c-0.7-0.6-1.4-1.2-2.1-1.7c-10.7-7.8-25.8-6.8-35.5,2.8l-94.3,94c0,0,0,0,0,0
			l-360.2,359c-1.1,0.3-2.2,0.7-3.3,1.3c-0.1,0.1-0.2,0.1-0.4,0.2c-0.2,0.1-0.5,0.3-0.7,0.4c-1.1,0.7-2.1,1.4-3,2.3l-52,51.8
			c-0.2,0.2-0.3,0.4-0.5,0.6L340.8,704l-27.3-17l-127.2-79.3l-24.1-15.1c-10.8-6.9-23.5-9.1-35.8-6.2c-12.3,2.9-22.6,10.4-29.2,21.3
			c-4.9,8.2-9,16.2-12.4,24.3c-0.4,1.1-0.5,2.2-0.2,3.3c11.1,38.7,27.6,75.8,48.9,110.3c0.1,0.5,0.3,1,0.6,1.4
			c5.5,8.8,11.4,17.6,17.5,26c0.2,0.3,0.4,0.6,0.7,0.9c0.2,0.2,0.3,0.4,0.5,0.7c0.3,0.5,0.7,0.9,1.2,1.2
			c11.7,15.9,25,31.5,39.5,46.5c0.7,0.7,1.7,1.2,2.7,1.4c12.8,2.4,24.9,3.6,36.7,3.6c0.1,0,0.3,0,0.4,0c0,0,0,0,0,0c0,0,0,0,0,0
			c0.9,0,1.8,0,2.7,0h2c0.3,0,0.5,0,0.8-0.1c0.2,0,0.6,0,1,0c1.7,0,3.5-0.1,5.3-0.2c0.1,0,0.3,0,0.4,0c0.2,0,0.5,0,0.7-0.1
			c0.4,0,0.7-0.1,1.1-0.1c0.3,0,0.6,0,0.9-0.1c0.3,0,0.5,0,0.8,0c1.7-0.1,3.4-0.3,5-0.5c0.7,0,1.4-0.1,2-0.2c0.3,0,0.5-0.1,0.7-0.1
			l0,0c0.4,0,0.8-0.1,1-0.1c0.1,0,0.2,0,0.3,0c3.6-0.5,8.4-1.3,13.1-2.4c40.7-9,77.1-33.2,108.1-71.8l55.1-55.2c0,0,0,0,0,0
			l52.1-52.2c0,0,0,0,0,0c2.1-2,3.5-4.5,4.2-7.2l453.4-453.4c0,0,0,0,0,0c0,0,0,0,0,0l0,0c0,0,0,0,0,0c0,0,0,0,0.1-0.1
			c5.2-5.2,8-12.2,8-19.6C952,156.4,949.2,149.6,944,144.4z M936.8,176.4l-90.5,90.5L821.5,242l90.7-90.5c1.7-1.6,3.6-2.9,5.6-3.7
			c5.6-2.3,12.1-1.7,17.1,2c0.5,0.3,0.9,0.7,1.3,1.1c0.1,0.1,0.2,0.1,0.3,0.2c0.1,0.1,0.1,0.1,0.2,0.2c0,0,0.1,0.1,0.1,0.1
			c0.1,0.1,0.1,0.1,0.2,0.2C943.6,158.5,943.6,169.6,936.8,176.4C936.8,176.4,936.8,176.4,936.8,176.4z M430.6,685.7l-14-14
			L402,657.1l48.6-48.4c0.4-0.4,0.9-0.8,1.4-1c2.3-1.2,5.2-0.8,7.2,1.1l19.9,19.5c1.2,1.2,1.9,2.8,1.9,4.4c0,1.7-0.6,3.3-1.8,4.5
			L430.6,685.7z M486.6,621.3c-0.1-0.1-0.2-0.2-0.2-0.3l-19.9-19.5c-1-1-2.1-1.8-3.2-2.4l351.2-350l24.8,24.9L488.8,624.4
			C488.2,623.3,487.5,622.2,486.6,621.3z M105.7,612.8c5.1-8.5,13.2-14.4,22.9-16.7c9.7-2.3,19.7-0.5,28.2,4.9l20.8,13l-8.1,24
			c-0.4,0.4-0.6,0.9-0.8,1.5L158.5,669c-0.2,0.6-0.3,1.1-0.3,1.7l-4.3,12.6c-0.2,0.3-0.3,0.6-0.4,0.9l-10.1,29.5
			c-0.1,0.3-0.2,0.6-0.2,1l-4.9,14.6c-0.2,0.3-0.4,0.7-0.5,1.1l-0.7,1.9c-18.2-30.9-32.4-63.8-42.4-98
			C97.7,627.1,101.3,620,105.7,612.8z M210.7,777.9c-3.8,9.1-12.2,6.2-13.8,5.5l-36.4-15.5c0,0,0,0,0,0c-0.2-0.2-0.3-0.4-0.5-0.7
			c0-0.1-0.1-0.1-0.1-0.2c-1.4-2-2.9-4-4.3-6c-0.5-0.7-0.9-1.3-1.4-2c-1-1.4-1.9-2.8-2.9-4.2c-0.5-0.8-1.1-1.6-1.6-2.4
			c-0.8-1.3-1.7-2.5-2.5-3.8c-0.6-0.9-1.1-1.8-1.7-2.6c-0.5-0.9-1.1-1.7-1.6-2.6l1.6-4.9L205,764C210.5,766.3,213,772.4,210.7,777.9
			L210.7,777.9z M161.3,692.6l84.2,36.7c2.8,1.2,5.1,3.7,6.1,6.7c0.6,1.7,0.9,4.2-0.5,6.8c-3.6,6.4-8.2,8.3-14.1,5.9l-0.1,0
			l-82.5-36L161.3,692.6z M176.6,647.9l64.8,27.6c2.6,1.1,4.6,3.2,5.6,5.8c1,2.6,1,5.5-0.1,8.1c0,0,0,0.1,0,0.1
			c-1.3,3.2-3,5.3-5.2,6.2c-1.6,0.7-4.4,1.1-8.6-0.6l-63.3-27L176.6,647.9z M252.9,816.2c-1.6,0.2-3.2,0.4-4.6,0.5
			c-0.4,0-0.7,0-1.1,0.1c-0.4,0-0.8,0-1.2,0.1c-0.2,0-0.5,0-0.7,0.1c-0.4,0-0.8,0.1-1.2,0.1c-1.6,0.1-3.1,0.2-4.5,0.2
			c-0.6,0-1.3,0-2.1,0.1l-1.7,0c-4.4,0.1-8.8,0-13.3-0.3c-7.5-0.5-15.1-1.4-23-2.8c-1.9-2-3.9-4-5.8-6.1
			c-7.3-7.9-14.3-15.9-20.9-24.1l20.2,8.6c2.3,0.9,5.4,1.7,8.8,1.7c6.5,0,14.1-2.8,18.1-12.6c0,0,0,0,0,0c4.4-10.4-0.6-22.5-11-26.9
			l-60.2-25.6l2.4-7.1l81.8,35.7c0,0,0.1,0,0.1,0l0.1,0c2.9,1.2,5.8,1.8,8.6,1.8c7.3,0,13.7-4.2,18.1-12c2.5-4.5,3-9.8,1.2-14.9
			c-1.9-5.6-6.2-10.3-11.6-12.7h0l-85-37l1.9-5.7l62.6,26.7c0,0,0.1,0.1,0.1,0.1c3.5,1.5,6.6,2,9.3,2c2.9,0,5.2-0.6,7-1.4
			c4.7-2,8.2-5.8,10.6-11.6c2.2-5,2.2-10.6,0.2-15.7c-2-5.1-5.9-9.1-11-11.3c0,0,0,0,0,0l-65.4-27.9l6.4-18.9l118.2,73.7
			l-50.8,122.9c0,0-0.1,0-0.1,0C253.3,816.2,253.1,816.2,252.9,816.2z M371.8,744.7c-0.1,0.1-0.2,0.3-0.4,0.4
			c-29.6,36.9-64.2,60-102.8,68.6c-1.2,0.3-2.3,0.5-3.5,0.8L313,698.5l25.8,16.1c2,1.2,4.5,0.9,6.2-0.7l49.9-49.7l14.6,14.6l14,14.1
			L371.8,744.7z"/>
		<path class="st8" d="M253,551.3c57,0,103.3-46.3,103.3-103.2c0,0,0,0,0,0c-0.1-27.6-10.9-53.5-30.4-73
			c-19.6-19.6-45.5-30.4-73-30.4c-57,0-103.3,46.3-103.3,103.3c0,27.5,10.8,53.5,30.4,73C199.5,540.6,225.4,551.3,253,551.3z
			 M252.9,354.7c24.8,0,48.3,9.7,66,27.4c17.6,17.6,27.3,41,27.4,66c0,51.4-41.9,93.2-93.3,93.2c-24.9,0-48.3-9.7-66-27.3
			c-17.7-17.7-27.4-41.1-27.4-66C159.6,396.6,201.5,354.7,252.9,354.7z"/>
	</g>
	<path class="st2" d="M512,972c-97.5,0-190.6-30.1-269.2-87c-19.6-14.2-38.4-30.2-55.8-47.6c-0.2-0.2-0.3-0.3-0.5-0.5
		c-0.5-0.6-1.1-1.1-1.7-1.7c-0.8-0.8-1.7-1.7-2.5-2.5c-7.6-7.8-14.9-15.8-21.6-23.8c-6.9-8.1-13.6-16.6-19.8-25.1
		c-0.2-0.3-0.5-0.6-0.7-0.9l0,0l-0.1-0.2c-0.3-0.4-0.5-0.7-0.8-1.1c-6.3-8.7-12.3-17.6-18-26.7c-0.1-0.1-0.1-0.2-0.2-0.3
		c-11-17.7-20.9-36.3-29.4-55.3c-8.6-19.4-16-39.5-21.8-59.8C58.1,598.2,52,555.3,52,512c0-62.1,12.2-122.3,36.2-179.1
		c23.2-54.8,56.3-104,98.6-146.2c42.2-42.2,91.4-75.4,146.2-98.6C389.7,64.2,449.9,52,512,52c74.2,0,147.8,18,213,52.2
		c9.8,5.1,13.6,17.2,8.4,27s-17.2,13.6-27,8.4C646.9,108.5,579.7,92,512,92c-56.7,0-111.7,11.1-163.5,33
		c-50,21.2-94.9,51.4-133.5,90s-68.9,83.5-90,133.5C103.1,400.3,92,455.3,92,512c0,39.5,5.5,78.7,16.4,116.5
		c5.3,18.5,12,36.9,19.9,54.6c7.8,17.4,16.8,34.4,26.9,50.6c0,0.1,0.1,0.1,0.1,0.2c5.2,8.3,10.8,16.6,16.5,24.5
		c0.2,0.2,0.3,0.4,0.5,0.7l0.1,0.2c0.2,0.3,0.4,0.6,0.7,0.9c5.7,7.8,11.7,15.5,18.1,23c6.2,7.3,12.9,14.7,19.9,21.9
		c0.1,0.1,0.2,0.2,0.3,0.3c0.5,0.6,1.1,1.1,1.7,1.7c0.8,0.8,1.6,1.6,2.4,2.4c15.8,15.8,32.9,30.3,50.7,43.2
		C338,904.5,423,932,512,932c56.7,0,111.7-11.1,163.5-33c50-21.2,94.9-51.4,133.5-90c38.6-38.6,68.9-83.5,90-133.5
		c21.9-51.8,33-106.8,33-163.5c0-33.2-3.9-66.2-11.5-98.1c-2.6-10.7,4.1-21.5,14.8-24.1c10.7-2.6,21.5,4.1,24.1,14.8
		c8.4,35,12.6,71.1,12.6,107.4c0,62.1-12.2,122.3-36.2,179.1c-23.2,54.8-56.3,104-98.6,146.2c-42.2,42.2-91.4,75.4-146.2,98.6
		C634.3,959.8,574.1,972,512,972z M155.6,734.3C155.6,734.3,155.6,734.3,155.6,734.3C155.6,734.3,155.6,734.3,155.6,734.3z
		 M155,733.3C155,733.3,155,733.3,155,733.3C155,733.3,155,733.3,155,733.3z M155,733.3C155,733.3,155,733.3,155,733.3
		C155,733.3,155,733.3,155,733.3z"/>
</g>
</svg>
