<?xml version="1.0" encoding="utf-8"?>
<!-- Generator: Adobe Illustrator 24.0.0, SVG Export Plug-In . SVG Version: 6.00 Build 0)  -->
<svg version="1.1" id="Capa_1" xmlns="http://www.w3.org/2000/svg" xmlns:xlink="http://www.w3.org/1999/xlink" x="0px" y="0px"
	 viewBox="0 0 1024 1024" style="enable-background:new 0 0 1024 1024;" xml:space="preserve">
<style type="text/css">
	.st0{fill:#F473C3;}
	.st1{fill:#FFD071;}
	.st2{fill:#534A9A;}
	.st3{fill:#9DD4A9;}
	.st4{fill:#443F80;}
	.st5{fill:#F9B630;}
	.st6{fill:#FFFFFF;}
</style>
<g>
	<circle class="st0" cx="512" cy="512" r="440"/>
	<g>
		<g>
			<g>
				<path class="st1" d="M421.4,250.4l-35.8,9.2c-5.8,1.5-11.9-2-13.4-7.9l0,0c-1.5-5.8,2-11.9,7.9-13.4l35.8-9.2
					c5.8-1.5,11.9,2,13.4,7.9l0,0C430.8,242.9,427.3,248.9,421.4,250.4z"/>
				<path class="st1" d="M438.9,268.5L438.9,268.5c-7.3,1.9-14.8-2.6-16.7-9.9l-9.6-37.2c-1.9-7.3,2.6-14.8,9.9-16.7l0,0
					c7.3-1.9,14.8,2.6,16.7,9.9l9.6,37.2C450.7,259.1,446.2,266.7,438.9,268.5z"/>
			</g>
			<g>
				<path class="st1" d="M449.7,330.7l-35.8,9.2c-5.8,1.5-11.9-2-13.4-7.9l0,0c-1.5-5.8,2-11.9,7.9-13.4l35.8-9.2
					c5.8-1.5,11.9,2,13.4,7.9l0,0C459.1,323.2,455.6,329.2,449.7,330.7z"/>
				<path class="st1" d="M467.3,348.9L467.3,348.9c-7.3,1.9-14.8-2.6-16.7-9.9l-9.6-37.2c-1.9-7.3,2.6-14.8,9.9-16.7l0,0
					c7.3-1.9,14.8,2.6,16.7,9.9l9.6,37.2C479,339.5,474.6,347,467.3,348.9z"/>
			</g>
			<g>
				<path class="st1" d="M478.1,411l-35.8,9.2c-5.8,1.5-11.9-2-13.4-7.9l0,0c-1.5-5.8,2-11.9,7.9-13.4l35.8-9.2
					c5.8-1.5,11.9,2,13.4,7.9l0,0C487.5,403.5,483.9,409.5,478.1,411z"/>
				<path class="st1" d="M495.6,429.2L495.6,429.2c-7.3,1.9-14.8-2.6-16.7-9.9l-9.6-37.2c-1.9-7.3,2.6-14.8,9.9-16.7l0,0
					c7.3-1.9,14.8,2.6,16.7,9.9l9.6,37.2C507.3,419.8,502.9,427.3,495.6,429.2z"/>
			</g>
			<g>
				<path class="st1" d="M506.4,491.3l-35.8,9.2c-5.8,1.5-11.9-2-13.4-7.9l0,0c-1.5-5.8,2-11.9,7.9-13.4l35.8-9.2
					c5.8-1.5,11.9,2,13.4,7.9l0,0C515.8,483.8,512.3,489.8,506.4,491.3z"/>
				<path class="st1" d="M523.9,509.5L523.9,509.5c-7.3,1.9-14.8-2.6-16.7-9.9l-9.6-37.2c-1.9-7.3,2.6-14.8,9.9-16.7l0,0
					c7.3-1.9,14.8,2.6,16.7,9.9l9.6,37.2C535.7,500.1,531.2,507.6,523.9,509.5z"/>
			</g>
			<g>
				<path class="st1" d="M356.1,553l35.8-9.2c5.8-1.5,9.4-7.5,7.9-13.4l0,0c-1.5-5.8-7.5-9.4-13.4-7.9l-35.8,9.2
					c-5.8,1.5-9.4,7.5-7.9,13.4l0,0C344.3,550.9,350.3,554.5,356.1,553z"/>
				<path class="st1" d="M349.6,577.3L349.6,577.3c7.3-1.9,11.8-9.4,9.9-16.7l-9.6-37.2c-1.9-7.3-9.4-11.8-16.7-9.9l0,0
					c-7.3,1.9-11.8,9.4-9.9,16.7l9.6,37.2C334.7,574.8,342.3,579.2,349.6,577.3z"/>
			</g>
			<g>
				<path class="st1" d="M377.3,635.1l35.8-9.2c5.8-1.5,9.4-7.5,7.9-13.4l0,0c-1.5-5.8-7.5-9.4-13.4-7.9l-35.8,9.2
					c-5.8,1.5-9.4,7.5-7.9,13.4l0,0C365.4,633.1,371.4,636.6,377.3,635.1z"/>
				<path class="st1" d="M370.7,659.5L370.7,659.5c7.3-1.9,11.8-9.4,9.9-16.7l-9.6-37.2c-1.9-7.3-9.4-11.8-16.7-9.9l0,0
					c-7.3,1.9-11.8,9.4-9.9,16.7l9.6,37.2C355.9,656.9,363.4,661.4,370.7,659.5z"/>
			</g>
		</g>
		<path class="st2" d="M897.5,507c0,0-36.1,38.7-37.9,63c-1,14.1,0.8,31.6,1.2,51.4c0.3,13.1,0,27.2-2.1,42.2
			c-0.2,1.4-0.4,2.9-0.6,4.3c-1.3,8-2.9,16.5-4.9,25.3c-2.7,12.1-6.2,24.9-10.6,37.9c-24.4,72.2-78.2,151-197.2,154.4
			c-5.1,0.1-10.2,0.2-15.1,0c-144.9-3.6-199.7-121.8-217.5-191c-18.4-71.5-99.9-398.9-118.6-460.8c-18.7-61.8-52.5-46.3-74-25.6
			c-20.5,19.7-48.9,54.2-65.8,66c-0.8,0.6-1.6,1.1-2.4,1.5c-11.3,5.7-38.9,27.1-55.1,30.4c-7,1.4-13.8-2.9-15.6-9.8l-3.2-12.4
			c-1.6-6,1.2-12.3,6.8-15.2c10.7-5.6,29.7-17.6,53.7-41c2.3-2.3,4.7-4.6,7.1-7.1c41.8-43.1,68.3-87,121.6-88.3
			s89.8,28.5,115.9,100.7c26.2,72.3,126.7,356.3,144.6,401.9c13.3,33.7,34.1,36.9,47.4,35.1c4.6-0.6,8.4-1.9,10.5-2.6
			c8.2-2.8,28.7-11.5,26.6-49.4c-0.1-1.3-0.2-2.5-0.3-3.9c-1-12.3-3.6-28.2-5.8-46.2c-1.3-10.7-2.6-22.2-3.2-34.1
			c-0.8-14-0.8-28.5,0.7-42.9c1.8-18.4,6.1-36.6,14.1-53.4c20.9-43.5,49.7-46.3,49.7-46.3L897.5,507z"/>
		<path class="st3" d="M138.7,227.5l15.8,46.6c-0.8,0.6-1.6,1.1-2.4,1.5c-11.3,5.7-38.9,27.1-55.1,30.4c-7,1.4-13.8-2.9-15.6-9.8
			l-3.2-12.4c-1.6-6,1.2-12.3,6.7-15.2C95.7,262.9,114.7,250.9,138.7,227.5z"/>
		<path class="st4" d="M897.5,507c0,0-36.1,38.7-37.9,63c-1,14.1,0.8,31.6,1.2,51.4c0.3,13.1,0,27.2-2.1,42.2
			c-0.2,1.4-0.4,2.9-0.6,4.3c-1.3,8-2.9,16.5-4.9,25.3c-2.7,12.1-6.2,24.9-10.6,37.9c-24.4,72.2-78.2,151-197.2,154.4
			c-5.1,0.1-10.2,0.2-15.1,0l-55-215.8c4.6-0.6,8.4-1.9,10.5-2.6c8.2-2.8,28.7-11.5,26.6-49.4c-0.1-1.3-0.2-2.5-0.3-3.9
			c-1-12.3-3.6-28.2-5.8-46.2c-1.3-10.7-2.6-22.2-3.2-34.1c-0.8-14-0.8-28.5,0.7-42.9c1.8-18.4,6.1-36.6,14.1-53.4
			c20.9-43.5,49.7-46.3,49.7-46.3L897.5,507z"/>
		<path class="st5" d="M904.8,526.8l-262-133.3c-9-4.6-12.5-15.6-8-24.6l0.9-1.8c4.6-9,15.6-12.5,24.6-8l262,133.3
			c9,4.6,12.5,15.6,8,24.6l-0.9,1.8C924.8,527.7,913.8,531.3,904.8,526.8z"/>
		<path class="st5" d="M860.8,621.4c0.3,13.1,0,27.2-2.1,42.2L603.2,533.5c-0.8-14-0.8-28.5,0.7-42.9L860.8,621.4z"/>
		<path class="st5" d="M853.3,693.2c-2.7,12.1-6.2,24.9-10.6,37.9L612.2,613.8c-1-12.2-3.6-28.2-5.8-46.2L853.3,693.2z"/>
	</g>
</g>
<g>
	<path class="st1" d="M932.3,401.3c-8.5,0-16.4-5.5-19.1-14.1c-13.1-42.3-32.8-82-58.6-118.3c-25.4-35.8-56.1-67.2-91.2-93.5
		C690.3,120.9,603.4,92,512,92c-18,0-36,1.1-53.7,3.4c-11,1.4-21-6.4-22.4-17.3c-1.4-11,6.4-21,17.3-22.4
		c19.4-2.5,39.1-3.7,58.8-3.7c50.5,0,100.2,8.1,147.6,24.2c45.8,15.5,88.8,38.1,127.7,67.3c38.5,28.8,72.1,63.2,99.9,102.3
		c28.2,39.7,49.8,83.3,64.2,129.6c3.3,10.5-2.6,21.8-13.2,25C936.2,401,934.2,401.3,932.3,401.3z"/>
	<path class="st1" d="M512,972c-62.1,0-122.3-12.2-179.1-36.2c-54.8-23.2-104-56.3-146.2-98.6c-42.2-42.2-75.4-91.4-98.6-146.2
		C64.2,634.3,52,574.1,52,512c0-29.1,2.7-58.3,8.2-86.7c2.1-10.9,12.5-18,23.4-15.9c10.9,2.1,18,12.5,15.9,23.4
		C94.5,458.7,92,485.4,92,512c0,56.7,11.1,111.7,33,163.5c21.2,50,51.4,94.9,90,133.5s83.5,68.9,133.5,90
		c51.8,21.9,106.8,33,163.5,33c14.3,0,28.8-0.7,43-2.2c11-1.1,20.8,6.9,21.9,17.9s-6.9,20.8-17.9,21.9
		C543.5,971.2,527.7,972,512,972z"/>
	<path class="st6" d="M924.6,487.9l-262-133.3c-11.5-5.7-25.5-1.2-31.3,10.2l-0.9,1.8c-5.7,11.5-1.2,25.5,10.2,31.3l0.8,0.4
		c-8.7,6.9-19.1,18.4-28,36.9c-7.7,16.1-12.6,34.6-14.6,55c-1.4,13.4-1.6,27.7-0.7,43.7c0.6,12.4,2,24.3,3.2,34.5
		c0.8,6.9,1.7,13.4,2.6,19.7c1.4,10.1,2.6,18.8,3.2,26.2c0.1,0.9,0.1,1.8,0.2,2.6l0.1,1.3c0.5,8.9,1.9,35.7-23.2,44.3l-0.2,0.1
		c-2,0.7-5.4,1.8-9.4,2.3c-18.5,2.5-32.7-8.2-42.1-32c-5.9-15.1-21.1-56.8-47.7-130.9l16.8-4.3l0.8,3.2c2.2,8.5,9.8,14.1,18.1,14.1
		c1.5,0,3.1-0.2,4.7-0.6c0,0,0,0,0,0c4.8-1.3,8.9-4.3,11.4-8.6c2.6-4.3,3.3-9.4,2-14.2l-9.6-37.2c-1.3-4.8-4.3-8.9-8.6-11.4
		c-4.3-2.6-9.4-3.3-14.2-2c-10,2.6-16.1,12.8-13.5,22.8l0.8,3.1l-19.7,5.1c-5.9-16.4-11.9-33.2-17.9-49.9l17.2-4.4l0.8,3.2
		c1.3,4.8,4.3,8.9,8.6,11.4c2.9,1.7,6.2,2.6,9.5,2.6c1.6,0,3.1-0.2,4.7-0.6h0c9.9-2.6,16-12.8,13.5-22.8l-9.6-37.2
		c-1.3-4.8-4.3-8.9-8.6-11.4c-4.3-2.6-9.4-3.3-14.2-2c-10,2.6-16.1,12.8-13.5,22.8l0.8,3.1l-20,5.1c-6.1-17.1-12.1-33.9-17.8-50
		l17.5-4.5l0.8,3.2c2.2,8.5,9.8,14.1,18.1,14.1c1.5,0,3.1-0.2,4.7-0.6c9.9-2.6,16-12.8,13.5-22.8l-9.6-37.2
		c-2.6-10-12.8-16.1-22.8-13.5c-4.8,1.3-8.9,4.3-11.4,8.6c-2.6,4.3-3.3,9.4-2,14.2l0.8,3.1l-20.3,5.2c-6.7-18.7-12.7-35.6-17.9-49.9
		l17.8-4.6l0.8,3.1c2.2,8.5,9.8,14.1,18.1,14.1c1.5,0,3.1-0.2,4.6-0.6c4.8-1.2,8.9-4.2,11.5-8.5c2.6-4.3,3.3-9.4,2.1-14.2l-9.6-37.2
		c-1.3-4.8-4.3-8.9-8.6-11.4c-4.3-2.6-9.4-3.3-14.2-2c-10,2.6-16.1,12.8-13.5,22.8l0.8,3.2l-20.7,5.3c-23-63.5-54.6-96.1-99.4-102.7
		c-6.7-1-13.9-1.4-21.3-1.2c-44.9,1.1-71.3,30.5-101.9,64.6c-7.4,8.2-15,16.7-23.2,25.2c-1.5,1.6-3.1,3.2-4.6,4.7
		c-0.8,0.8-1.5,1.5-2.3,2.2c0,0,0,0,0,0c-0.1,0.1-0.2,0.2-0.2,0.2c-2.9,2.8-5.7,5.4-8.4,7.9c-2.2,2-4.4,4-6.6,5.8
		c-0.1,0.1-0.2,0.2-0.3,0.2c-1,0.9-2,1.7-3,2.5c-0.1,0-0.1,0.1-0.1,0.1c-0.9,0.8-1.8,1.5-2.7,2.2c-0.1,0.1-0.3,0.2-0.4,0.3
		c-0.9,0.7-1.7,1.4-2.5,2c-0.3,0.2-0.5,0.4-0.8,0.6c-0.7,0.6-1.5,1.2-2.2,1.7c-0.3,0.3-0.7,0.5-1,0.7c-0.5,0.3-0.9,0.7-1.3,1
		c-0.8,0.6-1.6,1.2-2.3,1.7c-0.1,0.1-0.3,0.2-0.4,0.3c-0.5,0.4-1.1,0.8-1.6,1.1c0,0,0,0,0,0c-7.4,5.2-13.7,9-18.6,11.6c0,0,0,0,0,0
		c0,0,0,0,0,0c-0.3,0.2-0.7,0.4-1.1,0.6c-0.1,0-0.1,0.1-0.2,0.1c-0.1,0.1-0.2,0.1-0.2,0.2c-6.7,4.3-9.8,12.3-7.8,20l3.2,12.4
		c2,7.7,8.6,13.2,16.3,13.7c0,0,0.1,0,0.1,0c0.2,0,0.4,0,0.6,0c0.1,0,0.3,0,0.4,0c0.2,0,0.3,0,0.5,0c0.2,0,0.3,0,0.5,0
		c0.1,0,0.2,0,0.3,0c0.1,0,0.2,0,0.4,0c0.3,0,0.6,0,0.9-0.1c0.2,0,0.3,0,0.4-0.1c0.3,0,0.7-0.1,1-0.2c11.9-2.4,28.4-13.2,41.7-21.8
		c6-3.9,11.2-7.3,14.6-9c1.1-0.5,2.1-1.2,3.2-2c0.2-0.1,0.3-0.3,0.5-0.4c10.9-7.8,25.8-23.9,40.2-39.4c8.7-9.4,17.8-19.2,25.5-26.5
		c7.9-7.6,23.3-19.9,37.5-16.2c11.7,3.1,21.2,16.4,28.3,39.6c11.3,37.5,45.7,172.6,74.9,287.9l-8.7,2.2l-0.8-3.1
		c-1.3-4.8-4.3-8.9-8.6-11.4c-4.3-2.6-9.4-3.3-14.2-2c-10,2.6-16.1,12.8-13.5,22.8l9.6,37.1c1.2,4.8,4.2,8.9,8.5,11.5
		c3,1.8,6.2,2.7,9.6,2.7c1.6,0,3.2-0.2,4.7-0.6c4.8-1.3,8.9-4.3,11.4-8.6c2.6-4.3,3.3-9.4,2-14.2l-0.8-3.1l8.6-2.2l12.9,51.2
		l-8.4,2.2l-0.8-3.1c-1.3-4.8-4.3-8.9-8.6-11.4c-4.3-2.6-9.4-3.3-14.2-2c-4.8,1.3-8.9,4.3-11.4,8.6c-2.6,4.3-3.3,9.4-2,14.2
		l9.6,37.2c1.3,4.8,4.3,8.9,8.6,11.4c2.9,1.7,6.2,2.6,9.5,2.6c1.6,0,3.1-0.2,4.7-0.6c10-2.6,16.1-12.8,13.5-22.8l-0.8-3.2l8.2-2.1
		c5.6,22.1,11.5,45.7,15.1,59.5c8.5,33.2,26.3,81.4,62.2,122.2c41,46.5,94.8,71,160,72.6c2.1,0.1,4.3,0.1,6.5,0.1c3,0,6-0.1,8.9-0.1
		c55.2-1.6,101.4-19.3,137.3-52.7c27.8-25.8,49.4-60.9,64.1-104.2c0.2-0.3,0.3-0.6,0.4-0.9c4.2-12.5,7.8-25.4,10.7-38.4
		c0.1-0.3,0.1-0.6,0.1-0.9c1.8-7.9,3.3-15.9,4.8-24.7c0.1-0.7,0.2-1.4,0.3-2.2c0.1-0.7,0.2-1.4,0.3-2.1c0.1-0.8,0.2-1.6,0.3-2.5
		c1.3-9.9,1.9-20.2,1.9-31.7c0-2.9,0-5.8-0.1-8.9c0,0,0,0,0,0c-0.1-7.3-0.5-14.1-0.8-20.8c-0.6-11.5-1-21.5-0.4-30.1
		c0.8-10.5,9.5-26.7,24.6-45.9l13.3,6.8c0,0,0,0,0,0c3.3,1.7,6.9,2.5,10.4,2.5c8.5,0,16.8-4.6,20.9-12.7l0.9-1.8
		C940.5,507.8,935.9,493.7,924.6,487.9z M849.7,685.8L610.8,564.2c-0.8-6.9-1.7-14.5-2.3-22.4l244.7,124.6c0,0.2-0.1,0.5-0.1,0.7
		C852.1,673.6,851,679.8,849.7,685.8z M616.9,610.6c-0.7-7-1.8-14.9-3-23.9c-0.5-3.4-0.9-6.8-1.4-10.3l234.9,119.5
		c-2.2,9.5-4.8,18.9-7.8,28.1L616.9,610.6z M855.9,624.5c0,0.1,0,0.1,0,0.2c0,1.2,0,2.4,0,3.6c0,0.3,0,0.6,0,0.9c0,1.3,0,2.5,0,3.7
		c0,0,0,0,0,0c0,1.2,0,2.4-0.1,3.6c0,0.3,0,0.5,0,0.8c-0.1,2.4-0.2,4.8-0.3,7.1c0,0.2,0,0.5,0,0.7c-0.1,1.2-0.1,2.3-0.2,3.5
		c0,0,0,0,0,0c-0.1,1.1-0.2,2.2-0.3,3.3c0,0.2,0,0.5-0.1,0.7c-0.1,1.1-0.2,2.2-0.3,3.3c0,0,0,0,0,0L608,530.4
		c-0.6-11.5-0.5-22,0.2-31.9L855.9,624.5z M503.4,454.6c1.2-2,3.1-3.5,5.4-4c0.7-0.2,1.4-0.3,2.1-0.3c1.5,0,3,0.4,4.4,1.2
		c2,1.2,3.5,3.1,4,5.4l9.6,37.2c0.6,2.2,0.2,4.5-1,6.6c-1.2,2-3.1,3.5-5.4,4h0c-4.6,1.2-9.4-1.6-10.6-6.3l-9.6-37.2
		C501.9,458.9,502.2,456.6,503.4,454.6z M499,488l-17.7,4.5c-1.3-3.8-2.7-7.5-4.1-11.3l18.8-4.8L499,488z M480.5,370.2
		c0.7-0.2,1.4-0.3,2.1-0.3c1.5,0,3.1,0.4,4.4,1.2c2,1.2,3.5,3.1,4,5.4l9.6,37.1c1.2,4.7-1.7,9.5-6.3,10.7h0
		c-4.6,1.2-9.4-1.6-10.6-6.3l-9.6-37.2C472.9,376.2,475.8,371.5,480.5,370.2z M470.7,407.7l-18.1,4.6c-1.4-3.8-2.7-7.6-4.1-11.4
		l19.1-4.9L470.7,407.7z M446.8,294c1.2-2,3.1-3.5,5.4-4c0.7-0.2,1.4-0.3,2.2-0.3c3.9,0,7.4,2.6,8.4,6.6l9.6,37.1
		c1.2,4.7-1.7,9.5-6.3,10.7c-4.6,1.2-9.4-1.6-10.6-6.3l-2.1-8c0,0,0,0,0,0c0,0,0,0,0,0l-5.5-21.2c0,0,0,0,0,0c0,0,0,0,0,0l-2-7.9
		C445.3,298.3,445.6,296,446.8,294z M442.4,327.4l-18.4,4.7c-1.4-3.8-2.7-7.6-4.1-11.4l19.5-5L442.4,327.4z M418.4,213.6
		c1.2-2,3.1-3.5,5.4-4c0.7-0.2,1.4-0.3,2.1-0.3c1.5,0,3,0.4,4.4,1.2c2,1.2,3.5,3.1,4,5.4l9.6,37.2c0.6,2.2,0.2,4.6-1,6.6
		c-1.2,2-3.1,3.4-5.3,4c0,0,0,0-0.1,0c-2.2,0.6-4.5,0.2-6.6-1c-2-1.2-3.5-3.1-4-5.4l-2-7.8c0,0,0,0,0,0c0,0,0,0,0,0l-5.5-21.3
		c0,0,0,0,0,0s0,0,0,0l-2.1-8C416.9,217.9,417.2,215.6,418.4,213.6z M414.1,247.1l-18.7,4.8c-1.5-4.1-2.8-7.9-4.1-11.3l19.8-5.1
		L414.1,247.1z M134.1,280.8l-2.9,1.9c-12.3,8-26.1,16.6-35.3,18.5c-0.3,0.1-0.7,0.1-1.2,0.1c-0.3,0-0.6,0-1,0c-0.2,0-0.4,0-0.6-0.1
		c-3.3-0.5-6.1-2.8-7-6.2L83,282.5c-1-3.8,0.7-7.7,4.2-9.5c0.2-0.1,0.3-0.2,0.5-0.3c0.6-0.3,1.2-0.6,1.8-1
		c6.1-3.3,14.5-8.6,24.8-16.4c0.1-0.1,0.3-0.2,0.4-0.3c0.9-0.7,1.8-1.4,2.8-2.2c0.3-0.2,0.6-0.5,0.9-0.7c0.8-0.6,1.6-1.3,2.4-2
		c0.4-0.3,0.8-0.6,1.2-0.9c0.7-0.6,1.5-1.2,2.2-1.9c0.5-0.4,0.9-0.8,1.4-1.2c0.7-0.6,1.4-1.2,2.1-1.8c0.5-0.5,1.1-0.9,1.6-1.4
		c0.6-0.5,1.2-1.1,1.8-1.6c0.6-0.6,1.3-1.1,1.9-1.7c0.1-0.1,0.2-0.2,0.3-0.2c0.9-0.8,1.8-1.6,2.7-2.5c0.2-0.2,0.3-0.3,0.5-0.4
		l12,35.3C144.7,273.9,139.7,277.1,134.1,280.8z M353.7,568.4c-1.2,2-3.1,3.5-5.4,4c0,0,0,0,0,0c-2.3,0.6-4.6,0.2-6.7-1
		c-2-1.2-3.4-3.1-3.9-5.3l-9.6-37.2c-1.2-4.6,1.6-9.4,6.3-10.6c0.7-0.2,1.4-0.3,2.1-0.3c1.5,0,3.1,0.4,4.4,1.2c2,1.2,3.5,3.1,4,5.4
		l2,7.9c0,0,0,0,0,0c0,0,0,0,0,0l7.5,29.2C355.2,564.1,354.9,566.4,353.7,568.4z M361,546.6l-3-11.6l8.7-2.2c1,3.8,1.9,7.6,2.9,11.3
		l0.1,0.3L361,546.6z M369.4,654.7c-2.2,0.6-4.6,0.2-6.6-1c-2-1.2-3.5-3.1-4-5.4l-9.6-37.2c-0.6-2.2-0.2-4.6,1-6.6
		c1.2-2,3.1-3.5,5.4-4c0.7-0.2,1.4-0.3,2.1-0.3c1.5,0,3.1,0.4,4.4,1.2c2,1.2,3.5,3.1,4,5.4l2,7.8c0,0,0,0,0,0c0,0,0,0,0,0l5.5,21.2
		c0,0,0,0,0,0c0,0,0,0,0,0l2.1,8C377,648.7,374.1,653.4,369.4,654.7z M379.1,617.1l8.4-2.1c1,4,2,7.8,2.9,11.6l-8.3,2.1L379.1,617.1
		z M776.1,830.4c-34.1,31.7-78.1,48.6-130.8,50.1c-4.9,0.1-10,0.2-14.8,0c-149.5-3.7-198.6-132.2-212.8-187.2
		c-3.8-14.8-10.4-40.8-16.3-64.3c-1.7-6.8-3.5-13.9-5.4-21.3l0,0c0,0,0,0,0,0c0,0,0,0,0,0l-16.7-66c-1.3-5.3-2.7-10.7-4.1-16.2
		C345.8,409,310.5,270.5,299,232.3c-8.1-26.8-20-42.4-35.3-46.4c-17.9-4.7-35.4,7.6-46.9,18.6c-7.9,7.6-17,17.4-25.8,26.9
		c-12,12.9-24.4,26.2-33.9,34.3l-12.5-36.9c0,0,0,0,0.1,0c1.6-1.5,3.2-3.1,4.8-4.8c8.3-8.6,16-17.2,23.5-25.5
		c30.2-33.7,54.1-60.3,94.7-61.3c6.8-0.2,13.4,0.2,19.6,1.1c40.8,6,69.9,36.6,91.5,96.3l1.5,4.2c2.1,5.7,4.5,12.5,7.3,20.2l0.2,0.6
		c5.9,16.4,13.1,36.7,21.2,59.4c2.4,6.7,4.9,13.7,7.4,20.8c6.7,18.9,13.9,39,21.2,59.4c2.5,6.9,4.9,13.9,7.4,20.8
		c7.1,19.9,14.3,40,21.2,59.4c2.5,7,5,14,7.5,20.8c27.8,77.5,43.6,120.8,49.7,136.4c6.3,16.1,15.1,27.3,25.9,33.4
		c8.1,4.5,17.1,6.1,26.8,4.8c4.9-0.6,9-2,11.2-2.7l0.2-0.1c24.8-8.5,30.3-31,30.1-50l219,111.5C822.3,773.8,802,806.4,776.1,830.4z
		 M854.6,569.6c-0.7,9.3-0.1,20,0.4,31.3c0.2,4,0.4,8,0.5,12.1L609.1,487.6c2.1-17.8,6.5-34,13.2-48.1c9.5-19.8,20.6-30.5,28.9-36.2
		l228.9,116.5C868.4,535,855.7,554.5,854.6,569.6z M925.8,514.8l-0.9,1.7c-3.3,6.5-11.4,9.1-17.9,5.8L645.1,389
		c-6.5-3.3-9.1-11.3-5.8-17.9l0.9-1.8c3.3-6.5,11.3-9.1,17.9-5.8l262,133.3C926.5,500.2,929.1,508.2,925.8,514.8z"/>
</g>
</svg>
