<?xml version="1.0" encoding="utf-8"?>
<!-- Generator: Adobe Illustrator 24.0.0, SVG Export Plug-In . SVG Version: 6.00 Build 0)  -->
<svg version="1.1" id="Capa_1" xmlns="http://www.w3.org/2000/svg" xmlns:xlink="http://www.w3.org/1999/xlink" x="0px" y="0px"
	 viewBox="0 0 1024 1024" style="enable-background:new 0 0 1024 1024;" xml:space="preserve">
<style type="text/css">
	.st0{fill:#9DD4A9;}
	.st1{fill:#FFD071;}
	.st2{fill:#F9B630;}
	.st3{fill:#534A9A;}
	.st4{fill:#443F80;}
	.st5{fill:#F9A40D;}
	.st6{fill:#C640A6;}
	.st7{fill:#F473C3;}
	.st8{fill:#FFFFFF;}
</style>
<g>
	<path class="st0" d="M952,512c0,243-197,440-440,440c-115.3,0-220.3-44.4-298.8-117c-13.4-12.4-26-25.6-37.8-39.5
		C110.9,718.9,72,620,72,512C72,269,269,72,512,72c106.9,0,205,38.2,281.2,101.6c15.7,13.1,30.5,27.2,44.2,42.3
		C908.6,294,952,398,952,512z"/>
	<g>
		<g>
			<path class="st1" d="M846.4,194.3c0,7.8-3,15.6-9,21.6l0,0l-36.6,36.5l-28.2,28.2l-0.1,0.1l-34.6,34.6h-0.1l-22.2,22.2l-0.1,0.1
				l-367.8,368l-0.1,0.1l-22.2,22.2v0.1l-34.6,34.6l-0.1,0.1l-28.2,28.2l-36.6,36.6c-3.7,3.7-8,6.2-12.7,7.6
				c-13.4-12.4-26-25.6-37.8-39.5c1.5-4.1,3.9-8,7.2-11.4l64.8-64.8l0.1-0.1l34.6-34.6v-0.1l22.2-22.2l0.1-0.1L406,560.8l46.6-46.6
				l29.1-29.1l28.8-28.8l46.6-46.6l80.5-80.5l34.6-34.6l0.1-0.1l22.2-22.2h0.1l34.6-34.6l0.1-0.1l64.9-64.9
				c11.9-11.9,31.2-11.9,43.2,0.1C843.4,178.7,846.3,186.5,846.4,194.3z"/>
			<path class="st2" d="M846.4,194.3c0,7.8-3,15.6-9,21.6L525,528.3l-43.2-43.2l312.5-312.5c11.9-11.9,31.2-11.9,43.2,0.1
				C843.4,178.7,846.3,186.5,846.4,194.3z"/>
			<g>
				
					<rect x="417.9" y="528.5" transform="matrix(0.7071 -0.7071 0.7071 0.7071 -263.3096 482.5424)" class="st3" width="65.9" height="61.2"/>
				
					<rect x="522.5" y="423.9" transform="matrix(0.7071 -0.7071 0.7071 0.7071 -158.6841 525.8577)" class="st4" width="65.9" height="61.2"/>
			</g>
			<g>
				<g>
					<path class="st4" d="M809.7,445.1l-21.4,21.4c-3.7,3.7-9.6,3.7-13.3,0L547.5,238.9c-3.7-3.7-3.7-9.6,0-13.3l21.4-21.4
						c3.7-3.7,9.6-3.7,13.3,0l227.6,227.6C813.4,435.5,813.4,441.4,809.7,445.1z"/>
					<path class="st4" d="M866.7,388.1l-21.4,21.4c-3.7,3.7-9.6,3.7-13.3,0L604.5,182c-3.7-3.7-3.7-9.6,0-13.3l21.4-21.4
						c3.7-3.7,9.6-3.7,13.3,0l227.6,227.6C870.4,378.5,870.4,384.5,866.7,388.1z"/>
					<path class="st5" d="M882.4,345L865,362.4c-3,3-7.9,3-10.9,0L651.6,159.8c-3-3-3-7.9,0-10.9l17.4-17.4c3-3,7.9-3,10.9,0
						l202.6,202.6C885.4,337.1,885.4,342,882.4,345z"/>
					<path class="st6" d="M833.4,421.5l-11.7,11.7c-2.9,2.9-7.7,2.9-10.6,0L580.8,203c-2.9-2.9-2.9-7.7,0-10.6l11.7-11.7
						c2.9-2.9,7.7-2.9,10.6,0l230.2,230.2C836.3,413.8,836.3,418.5,833.4,421.5z"/>
				</g>
				<g>
					<path class="st3" d="M455.1,799.7l21.4-21.4c3.7-3.7,3.7-9.6,0-13.3L248.9,537.5c-3.7-3.7-9.6-3.7-13.3,0l-21.4,21.4
						c-3.7,3.7-3.7,9.6,0,13.3l227.6,227.6C445.5,803.4,451.4,803.4,455.1,799.7z"/>
					<path class="st3" d="M398.1,856.7l21.4-21.4c3.7-3.7,3.7-9.6,0-13.3L192,594.5c-3.7-3.7-9.6-3.7-13.3,0l-21.4,21.4
						c-3.7,3.7-3.7,9.6,0,13.3l227.6,227.6C388.5,860.4,394.5,860.4,398.1,856.7z"/>
					<path class="st2" d="M355,872.4l17.4-17.4c3-3,3-7.9,0-10.9L169.8,641.6c-3-3-7.9-3-10.9,0L141.6,659c-3,3-3,7.9,0,10.9
						l202.6,202.6C347.1,875.4,352,875.4,355,872.4z"/>
					<path class="st7" d="M431.5,823.4l11.7-11.7c2.9-2.9,2.9-7.7,0-10.6L213,570.8c-2.9-2.9-7.7-2.9-10.6,0l-11.7,11.7
						c-2.9,2.9-2.9,7.7,0,10.6l230.2,230.2C423.8,826.3,428.5,826.3,431.5,823.4z"/>
				</g>
			</g>
		</g>
	</g>
</g>
<g>
	<path class="st8" d="M885.9,348.5c4.9-4.9,5-12.9,0.1-18l-78.2-78.2l33.1-33c6.7-6.7,10.5-15.7,10.5-25.2
		c-0.1-9.6-3.9-18.5-10.5-25c-6.7-6.7-15.7-10.5-25.2-10.5c0,0,0,0-0.1,0c-9.5,0-18.4,3.7-25,10.4l-33,33L683.4,128c-5-5-13-5-18,0
		l-17.4,17.4c-0.6,0.6-1.2,1.3-1.7,2.1l-3.7-3.7c-2.7-2.7-6.4-4.2-10.2-4.2s-7.5,1.5-10.2,4.2L601,165.2c-2.3,2.3-3.7,5.2-4.1,8.4
		c-3,0.2-5.8,1.5-7.9,3.6l-11.7,11.7c-2.1,2.1-3.3,4.9-3.6,7.7c-3.1,0.4-6,1.8-8.3,4.1L544,222.1c-2.7,2.7-4.2,6.4-4.2,10.2
		s1.5,7.5,4.2,10.2l86.6,86.7l-76.2,76.2c-0.3,0.2-0.6,0.4-0.9,0.7L507,452.6c-0.3,0.3-0.5,0.5-0.7,0.8L449.7,510
		c-0.3,0.2-0.5,0.4-0.7,0.6l-46.6,46.6c-0.2,0.2-0.4,0.4-0.6,0.7l-62.7,62.6L252.4,534c-2.7-2.7-6.4-4.2-10.2-4.2s-7.5,1.5-10.2,4.2
		l-21.4,21.4c-2.3,2.3-3.7,5.3-4.1,8.3c-2.8,0.3-5.6,1.5-7.7,3.6L187.2,579c-2.1,2.1-3.4,4.9-3.6,7.9c-3.2,0.4-6.1,1.8-8.4,4.1
		l-21.4,21.4c-2.7,2.7-4.2,6.4-4.2,10.2s1.5,7.5,4.2,10.2l3.7,3.7c-0.7,0.5-1.4,1-2.1,1.7l-17.3,17.4c-5,5-5,13,0,18l74.1,74.1
		L179,780.7c-3.7,3.8-6.4,8.1-8.2,12.9c-0.7,1.7-0.4,3.7,0.8,5.2c12,14.1,24.9,27.6,38.2,39.9c0.9,0.9,2.2,1.3,3.4,1.3
		c0.5,0,1-0.1,1.6-0.2c0,0,0.1,0,0.1,0c5.5-1.7,10.4-4.6,14.6-8.8l33.1-33.1l78.1,78.1c2.3,2.3,5.5,3.6,8.8,3.6c0,0,0.1,0,0.1,0
		c3.4,0,6.6-1.3,8.9-3.7l17.4-17.4c0.6-0.6,1.2-1.3,1.6-2l3.8,3.8c2.7,2.7,6.3,4.2,10.1,4.2c0,0,0.1,0,0.1,0c3.9,0,7.5-1.6,10.1-4.3
		l21.4-21.4c2.3-2.3,3.7-5.2,4.1-8.3c2.8-0.2,5.7-1.4,7.9-3.6l11.7-11.7c2.2-2.2,3.4-5,3.6-7.9c3-0.4,6-1.8,8.3-4.1l21.4-21.4
		c2.7-2.7,4.2-6.4,4.2-10.2c0-3.8-1.5-7.5-4.2-10.2l-90.6-90.6l104.4-104.5l5.5-5.5c0,0,0,0,0,0l70-70l34.6-34.6c0,0,0-0.1,0.1-0.1
		l76.9-76.9l90.6,90.7c2.7,2.7,6.4,4.2,10.2,4.2c3.8,0,7.5-1.5,10.2-4.2l21.4-21.4c2.3-2.3,3.7-5.2,4.1-8.3c2.9-0.2,5.7-1.4,7.9-3.6
		l11.7-11.7c0,0,0,0,0.1-0.1c2.1-2.2,3.3-5,3.5-7.8c3.1-0.4,6-1.8,8.3-4.1l21.4-21.4c2.7-2.7,4.3-6.3,4.3-10.1
		c0-3.9-1.4-7.5-4.2-10.2l-3.8-3.8c0.7-0.5,1.4-1,2-1.6L885.9,348.5z M797.7,176.2c4.8-4.8,11.2-7.4,18-7.4c0,0,0,0,0,0
		c6.8,0,13.3,2.7,18.1,7.6c4.8,4.7,7.4,11.1,7.5,17.9c0,6.8-2.7,13.2-7.5,18.1l-33.1,33l-36.1-36.1L797.7,176.2z M562.6,483.5
		l-8.9,8.9l-36.1-36.1l39.5-39.5l36.1,36.1L562.6,483.5z M495.8,550.4l-36.1-36.1l50.9-50.9l36.1,36.1L495.8,550.4z M486.7,559.4
		L449.2,597L413,560.8l39.5-39.5l36.1,36.1L486.7,559.4z M222.4,824c-2.3,2.3-5,4.2-8,5.4c-11.5-10.8-22.7-22.5-33.2-34.7
		c1.3-2.6,2.9-4.9,4.9-7l33.1-33.1l36.2,36.2L222.4,824z M368.9,851.5l-17.4,17.4c-0.7,0.7-1.5,0.8-1.9,0.8c-0.4,0-1.2-0.1-1.8-0.7
		L222.8,744c0,0,0,0,0,0s0,0,0,0l-77.6-77.6c-1.1-1.1-1.1-2.8,0-3.8l17.3-17.4c0.5-0.5,1.2-0.8,1.9-0.8c0.5,0,1,0.2,1.5,0.5
		l121.4,121.4c0,0,0,0,0.1,0.1c0,0,0,0,0.1,0l82,82C369.9,849.3,369.7,850.6,368.9,851.5z M321.9,731.4L321.9,731.4
		C321.9,731.5,321.9,731.5,321.9,731.4C321.9,731.5,321.9,731.5,321.9,731.4l94.1,94.1c1.7,1.7,1.7,4.5,0,6.2l-21.4,21.4
		c-0.8,0.8-1.9,1.3-3,1.3c-1.2,0-2.2-0.4-3-1.2l-11.4-11.4c-0.4-0.5-0.7-0.9-1.1-1.3l-88.7-88.7l-36.2-36.2c0,0,0,0,0,0l-77.7-77.7
		c-0.3-0.3-0.6-0.6-0.9-0.8l-11.6-11.6c-0.8-0.8-1.3-2-1.3-3.1c0-1.2,0.5-2.3,1.3-3.1l21.4-21.4c0.8-0.8,2-1.3,3.1-1.3
		s2.3,0.5,3.1,1.3l90.1,90.1L321.9,731.4z M285.7,681l-91.5-91.5c-0.6-0.6-0.7-1.4-0.7-1.8s0.1-1.1,0.7-1.8l11.7-11.7
		c0.9-0.9,2.5-0.9,3.5,0c0.4,0.5,0.8,1,1.2,1.4l111.8,111.8l21.6,21.7c0,0,0,0,0,0l94.1,94.1c0.3,0.3,0.6,0.6,0.9,0.8l0.5,0.5
		c0.9,0.9,0.9,2.6,0,3.5L428,819.8c-1,1-2.6,1-3.6,0L329,724.3L285.7,681z M473,774.8l-21.4,21.4c-1.6,1.6-4,1.8-5.7,0.5
		L217.1,567.8c-1.1-1.7-0.8-3.9,0.6-5.4l21.4-21.4c0.8-0.8,2-1.3,3.1-1.3s2.3,0.5,3.1,1.3l90.2,90.1c0,0,0,0,0,0s0,0,0,0L473,768.5
		C474.7,770.3,474.7,773,473,774.8z M346.2,627.7l59.8-59.7l36.2,36.2l-59.7,59.8L346.2,627.7z M600.4,445.7l-36.1-36.1l73.4-73.4
		l36.1,36.1L600.4,445.7z M806.2,441.6L784.8,463c-1.7,1.7-4.5,1.7-6.2,0L551,235.4c-0.8-0.8-1.3-2-1.3-3.1s0.5-2.3,1.3-3.1
		l21.4-21.4c0.8-0.8,2-1.3,3.1-1.3c0.8,0,1.6,0.2,2.3,0.7l228.8,228.7C807.9,437.6,807.8,440,806.2,441.6z M829.8,418l-11.7,11.7
		c-0.9,0.9-2.6,0.9-3.5,0l-0.6-0.6c-0.2-0.3-0.5-0.6-0.7-0.8L719.1,334c0,0,0,0,0,0c0,0,0,0,0,0l-43.1-43.1c0,0,0,0,0,0s0,0,0,0
		l-90.2-90.2c-0.5-0.5-0.9-0.9-1.4-1.2c-0.9-0.9-0.9-2.6,0-3.5l11.7-11.7c0.6-0.6,1.4-0.7,1.8-0.7s1.1,0.1,1.8,0.7l134.7,134.7
		c0,0,0,0,0,0c0,0,0,0,0,0l95.6,95.6C830.8,415.4,830.8,417,829.8,418z M863.2,384.6L841.8,406c-1.7,1.7-4.5,1.7-6.2,0l-94.2-94.2
		c-0.2-0.2-0.4-0.3-0.5-0.4l-42.1-42.1c-0.1-0.2-0.3-0.4-0.4-0.5L608,178.5c-0.8-0.8-1.3-2-1.3-3.1s0.5-2.3,1.3-3.1l21.4-21.4
		c0.8-0.8,2-1.3,3.1-1.3c1.2,0,2.3,0.5,3.1,1.3l11.6,11.6c0.3,0.3,0.5,0.6,0.8,0.9l77.7,77.8c0,0,0,0,0,0c0,0,0,0,0,0c0,0,0,0,0,0
		l43.1,43.2c0,0,0,0,0,0l81.6,81.7c0.4,0.4,0.9,0.8,1.3,1.1l11.4,11.4c0.8,0.8,1.2,1.9,1.2,3C864.5,382.6,864,383.7,863.2,384.6z
		 M654.8,155.8c-0.7-1.1-0.6-2.5,0.3-3.4l17.4-17.4c0.5-0.5,1.2-0.8,1.9-0.8s1.4,0.3,1.9,0.8l77.7,77.7c0,0,0,0,0,0s0,0,0,0
		l43.1,43.1c0,0,0,0,0,0c0,0,0,0,0,0l81.6,81.6c1,1.1,1,2.8,0,3.9l-17.4,17.4c-0.8,0.8-2.1,1-3.2,0.5L654.8,155.8z"/>
	<path class="st7" d="M512,972c-116,0-226.9-43.4-312.1-122.1c-0.1-0.1-0.2-0.1-0.2-0.2c-13.7-12.7-26.9-26.5-39.2-41
		c-0.1-0.1-0.2-0.2-0.3-0.3c-34.2-40.6-60.9-86.3-79.3-135.9C61.7,621.2,52,567.2,52,512c0-62.1,12.2-122.3,36.2-179.1
		c23.2-54.8,56.3-104,98.6-146.2c42.2-42.2,91.4-75.4,146.2-98.6C389.7,64.2,449.9,52,512,52c11,0,20,9,20,20s-9,20-20,20
		c-56.7,0-111.7,11.1-163.5,33c-50,21.2-94.9,51.4-133.5,90s-68.9,83.5-90,133.5C103.1,400.3,92,455.3,92,512
		c0,50.4,8.8,99.7,26.3,146.5c16.8,45.1,41.1,86.8,72.2,123.8c0.1,0.1,0.1,0.1,0.2,0.2c11.3,13.3,23.4,26,36,37.6
		c0.1,0.1,0.1,0.1,0.2,0.2C304.7,892.4,406,932,512,932c56.7,0,111.7-11.1,163.5-33c50-21.2,94.9-51.4,133.5-90
		c38.6-38.6,68.9-83.5,90-133.5c21.9-51.8,33-106.8,33-163.5c0-11,9-20,20-20s20,9,20,20c0,62.1-12.2,122.3-36.2,179.1
		c-23.2,54.8-56.3,104-98.6,146.2c-42.2,42.2-91.4,75.4-146.2,98.6C634.3,959.8,574.1,972,512,972z M202.2,851.7
		C202.2,851.7,202.2,851.7,202.2,851.7C202.2,851.7,202.2,851.7,202.2,851.7z M202.2,851.7C202.2,851.7,202.2,851.7,202.2,851.7
		C202.2,851.7,202.2,851.7,202.2,851.7z M202.1,851.7C202.1,851.7,202.1,851.7,202.1,851.7C202.1,851.7,202.1,851.7,202.1,851.7z
		 M199.2,849.3C199.2,849.3,199.2,849.3,199.2,849.3C199.2,849.3,199.2,849.3,199.2,849.3z M199.2,849.3
		C199.2,849.3,199.2,849.3,199.2,849.3C199.2,849.3,199.2,849.3,199.2,849.3z M199.2,849.2C199.2,849.2,199.2,849.2,199.2,849.2
		C199.2,849.2,199.2,849.2,199.2,849.2z M199.1,849.2C199.1,849.2,199.1,849.2,199.1,849.2C199.1,849.2,199.1,849.2,199.1,849.2z
		 M199.1,849.2C199.1,849.2,199.1,849.2,199.1,849.2C199.1,849.2,199.1,849.2,199.1,849.2z M199.1,849.2
		C199.1,849.2,199.1,849.2,199.1,849.2C199.1,849.2,199.1,849.2,199.1,849.2z M199.1,849.1C199.1,849.2,199.1,849.2,199.1,849.1
		C199.1,849.2,199.1,849.2,199.1,849.1z M199,849.1C199.1,849.1,199.1,849.1,199,849.1C199.1,849.1,199.1,849.1,199,849.1z
		 M227.4,820.9C227.4,820.9,227.4,820.9,227.4,820.9C227.4,820.9,227.4,820.9,227.4,820.9z"/>
</g>
</svg>
