<?xml version="1.0" encoding="utf-8"?>
<!-- Generator: Adobe Illustrator 24.0.0, SVG Export Plug-In . SVG Version: 6.00 Build 0)  -->
<svg version="1.1" id="Capa_1" xmlns="http://www.w3.org/2000/svg" xmlns:xlink="http://www.w3.org/1999/xlink" x="0px" y="0px"
	 viewBox="0 0 1024 1024" style="enable-background:new 0 0 1024 1024;" xml:space="preserve">
<style type="text/css">
	.st0{fill:#534A9A;}
	.st1{fill:#FFD071;}
	.st2{fill:#F9B630;}
	.st3{fill:#767DD4;}
	.st4{fill:#5E6ACA;}
	.st5{fill:#F473C3;}
	.st6{fill:#C640A6;}
	.st7{fill:#F9F7FC;}
	.st8{fill:#DCDAEB;}
	.st9{fill:#FFFFFF;}
	.st10{fill:#FFD071;stroke:#000000;stroke-width:40;stroke-linecap:round;stroke-linejoin:round;stroke-miterlimit:10;}
</style>
<g>
	<path class="st0" d="M952,512c0,243-197,440-440,440c-90.1,0-173.9-27.1-243.6-73.6c0,0-0.1,0-0.1-0.1
		c-24.4-16.2-47.1-34.9-67.7-55.5l0,0c-20.8-20.8-39.4-43.6-55.7-68.2l-0.1-0.1C98.8,684.9,72,601.6,72,512C72,269,269,72,512,72
		c65.8,0,128.3,14.5,184.4,40.4l0,0c30.2,13.9,58.5,31.2,84.5,51.3c7.9,6.1,15.6,12.5,23.1,19.2c6.4,5.7,12.6,11.6,18.7,17.6
		c6.1,6,12,12.3,17.7,18.7c6.7,7.5,13.1,15.2,19.3,23.2c20,25.8,37.3,53.9,51.2,83.9v0.1C937.3,382.8,952,445.7,952,512z"/>
	<g>
		<path class="st1" d="M856.2,407.4c-4.7,4.7-9.6,9.3-14.6,13.5c-11.5,10-23.7,18.7-36.1,26.1c-8,4.8-16.2,9-24.4,12.8
			c-8.6,3.9-17.4,7.2-26.1,10c-4.3,1.3-8.5,2.5-12.8,3.6c-6.9,1.7-13.7,3-20.6,4c-8.8,1.3-17.5,2-26.1,2
			c-11.4,0.1-22.5-0.8-33.4-2.8c-9-1.7-17.7-4.1-26.1-7.3c-11.9-4.5-23.1-10.4-33.4-17.9c-5.8-4.2-11.3-8.9-16.5-14.1
			s-9.9-10.7-14.1-16.5c-7.5-10.3-13.4-21.5-17.9-33.4c-3.2-8.4-5.6-17.1-7.3-26.1c-2-10.8-3-22-2.8-33.4c0.1-8.6,0.7-17.4,2-26.1
			c1.6-11.1,4.2-22.3,7.6-33.4c2.8-8.8,6.1-17.5,10-26.1c3.7-8.2,8-16.4,12.8-24.4c7.5-12.5,16.2-24.6,26.1-36.1
			c4.3-5,8.8-9.8,13.5-14.6c6.3-6.3,12.9-12.3,19.6-17.8c12.3-10.1,25.2-18.8,38.5-26.1c7-3.9,14.1-7.3,21.2-10.4
			c8.6-3.7,17.4-6.9,26.1-9.4c11.1-3.3,22.3-5.6,33.4-6.9c8.8-1.1,17.5-1.6,26.1-1.5c11.4,0.2,22.6,1.4,33.4,3.8
			c9,1.9,17.7,4.6,26.1,8.1c10.4,4.3,20.2,9.7,29.3,16.4c1.5,1.1,3,2.2,4.4,3.4c1.3,1,2.5,1.9,3.7,3c2.8,2.4,5.6,4.9,8.2,7.5l0,0
			c5.1,5.1,9.7,10.5,13.9,16.2c6.7,9.2,12.2,19,16.4,29.5c3.5,8.4,6.1,17.1,8.1,26.1c2.3,10.8,3.5,22,3.7,33.4
			c0.1,8.6-0.4,17.4-1.5,26.1c-1.3,11.1-3.7,22.3-6.9,33.4c-2.5,8.8-5.7,17.5-9.4,26.1c-3.1,7.2-6.5,14.3-10.4,21.2
			c-7.3,13.3-16,26.2-26.1,38.5C868.3,394.5,862.5,401,856.2,407.4z"/>
		<path class="st2" d="M856.2,407.4c-4.7,4.7-9.6,9.3-14.6,13.5c-11.5,10-23.7,18.7-36.1,26.1c-8,4.8-16.2,9-24.4,12.8
			c-8.6,3.9-17.4,7.2-26.1,10c-4.3,1.3-8.5,2.5-12.8,3.6c-6.9,1.7-13.7,3-20.6,4c-8.8,1.3-17.5,2-26.1,2
			c-11.4,0.1-22.5-0.8-33.4-2.8c-9-1.7-17.7-4.1-26.1-7.3c-11.9-4.5-23.1-10.4-33.4-17.9c-5.8-4.2-11.3-8.9-16.5-14.1L886,137.4
			c5.1,5.1,9.7,10.5,13.9,16.2c6.7,9.2,12.2,19,16.4,29.5c3.5,8.4,6.1,17.1,8.1,26.1c2.3,10.8,3.5,22,3.7,33.4
			c0.1,8.6-0.4,17.4-1.5,26.1c-1.3,11.1-3.7,22.3-6.9,33.4c-2.5,8.8-5.7,17.5-9.4,26.1c-3.1,7.2-6.5,14.3-10.4,21.2
			c-7.3,13.3-16,26.2-26.1,38.5C868.3,394.5,862.5,401,856.2,407.4z"/>
		<path class="st3" d="M900.1,242.5v-33.4h24.5c-1.9-9-4.6-17.7-8.1-26.1h-16.4v-29.5c-4.2-5.7-8.8-11.1-13.9-16.2h-0.1
			c-2.6-2.6-5.4-5.1-8.1-7.5c-1.2-1-2.4-2-3.7-3c-1.5-1.2-2.9-2.3-4.4-3.4h-29.4V107c-3.2-1.3-6.3-2.5-9.6-3.6h-0.1
			c-0.7-0.2-1.4-0.5-2-0.7c-0.1,0-0.2-0.1-0.4-0.1c-0.9-0.3-1.8-0.5-2.6-0.8s-1.8-0.5-2.7-0.8c-0.4-0.1-0.9-0.2-1.3-0.4
			s-0.9-0.2-1.3-0.4c-0.9-0.2-1.8-0.4-2.7-0.7c-0.2,0-0.4-0.1-0.6-0.1c-0.1,0-0.2,0-0.4-0.1c-0.8-0.2-1.6-0.4-2.4-0.6v24.4H781v-28
			c-1.6,0-3.1,0-4.7,0c-0.8,0-1.7,0-2.5,0c-0.6,0-1.1,0-1.7,0.1c-0.8,0-1.6,0.1-2.4,0.1c-0.1,0-0.1,0-0.2,0c-0.9,0-1.8,0.1-2.7,0.1
			c-2,0.1-4,0.3-6,0.5c-1,0.1-2,0.2-3,0.3s-2,0.2-3,0.3v26.7h-33.4v-19.8c-8.4,2.4-16.8,5.4-25,8.9c-0.4,0.2-0.8,0.3-1.1,0.5v10.4
			h-21.2c-13.3,7.3-26.2,16-38.5,26.1h0.2v33.4h-33.4v-1c-0.3,0.3-0.6,0.7-0.9,1c-9,10.5-16.9,21.5-23.8,32.7
			c-0.5,0.8-1,1.6-1.4,2.3v24.4h-12.8c-0.5,1.1-1,2.2-1.4,3.2c-3.3,7.5-6.2,15.2-8.6,22.9h22.8v33.4h-30.4c-0.2,1.1-0.3,2.2-0.5,3.3
			c-0.1,1.1-0.3,2.2-0.4,3.3c-0.8,6.5-1.1,13-1.1,19.4v0.2h32.5v33.4h-29.6c1.7,9,4.1,17.7,7.3,26.1h22.3v33.4H572
			c4.2,5.8,8.9,11.3,14.1,16.5c5.2,5.2,10.7,9.9,16.5,14.1V447H636v22.3c8.4,3.2,17.1,5.6,26.1,7.3V447h33.4v32.4
			c5.6-0.1,11.3-0.3,17.1-0.9c0.8-0.1,1.6-0.2,2.4-0.2c2.2-0.2,4.4-0.5,6.6-0.9V447H755v22.8c2.2-0.7,4.4-1.4,6.5-2.2
			c1.1-0.4,2.2-0.8,3.3-1.2c1.1-0.4,2.2-0.8,3.3-1.2c1.1-0.4,2.2-0.8,3.3-1.3c0.6-0.2,1.3-0.5,1.9-0.8c0.6-0.2,1.2-0.5,1.8-0.7
			c0.9-0.4,1.9-0.8,2.8-1.2c1.1-0.5,2.2-0.9,3.2-1.4V447h24.4c12-7.3,23.9-15.7,35.1-25.2c0.3-0.3,0.7-0.6,1-0.9h-1.1v-33.4h25.8
			h7.6v0.2v0.1c10.1-12.3,18.8-25.2,26.1-38.5v-21.2h10.4c0.2-0.6,0.5-1.1,0.7-1.7c3.4-8.1,6.3-16.3,8.7-24.4H900v-33.4h26.8
			c1.1-8.8,1.6-17.5,1.5-26.1H900.1z M840.5,209h33.4v33.4h-14.1h-19.3L840.5,209L840.5,209z M873.8,149.5v33.4h-33.4v-33.4H873.8z
			 M754.8,182.9h-33.4v-33.4h33.4V182.9z M754.8,209v33.4h-33.4V209H754.8z M721.5,268.5h25.8h7.6v33.4h-33.4L721.5,268.5
			L721.5,268.5z M781,268.5h33.4v33.4H781V268.5z M781,242.4V209h33.4v33.4H781z M781,149.5h33.4v33.4H781V149.5z M662,149.5h33.4
			v33.4H662V149.5z M695.4,209v7.6v25.8H662V209H695.4z M695.4,301.9H662v-33.4h33.4V301.9z M635.8,209v33.4h-33.4V209H635.8z
			 M635.8,328v33.4h-33.4V328H635.8z M602.5,301.9v-33.4h33.4v33.4H602.5z M602.5,420.9V394v-6.5h33.4v33.4H602.5z M695.3,420.9H662
			v-33.4h33.4L695.3,420.9z M662,361.4V328h33.4v33.4H662z M721.5,420.9v-33.4h33.4v33.4H721.5z M754.8,361.4h-33.4V328h33.4v8.1
			V361.4z M814.3,420.9H781v-33.4h33.4v33.4H814.3z M814.3,361.4H781V328h33.4v33.4H814.3z M873.8,361.4h-33.4V328h33.4V361.4z
			 M840.5,301.9v-33.4h33.4v33.4H840.5z"/>
		<path class="st4" d="M900.1,242.5v-33.4h24.5c-1.9-9-4.6-17.7-8.1-26.1h-16.4v-29.5c-4.2-5.7-8.8-11.1-13.9-16.2h-0.1l-12.2,12.2
			v33.4h-33.4l-17.7,17.6l-8.5,8.5v33.4H781l-26.1,26.1v33.4h-33.4l-0.4,0.4L695.3,328v33.4H662l-26.1,26.1v33.4h-33.4L586,437.3
			c5.2,5.2,10.7,9.9,16.5,14.1V447H636v22.3c8.4,3.2,17.1,5.6,26.1,7.3V447h33.4v32.4c5.6-0.1,11.3-0.3,17.1-0.9
			c0.8-0.1,1.6-0.2,2.4-0.2c2.2-0.2,4.4-0.5,6.6-0.9V447H755v22.8c2.2-0.7,4.4-1.4,6.5-2.2c1.1-0.4,2.2-0.8,3.3-1.2
			c1.1-0.4,2.2-0.8,3.3-1.2c1.1-0.4,2.2-0.8,3.3-1.3c0.6-0.2,1.3-0.5,1.9-0.8c0.6-0.2,1.2-0.5,1.8-0.7c0.9-0.4,1.9-0.8,2.8-1.2
			c1.1-0.5,2.2-0.9,3.2-1.4V447h24.4c12-7.3,23.9-15.7,35.1-25.2c0.3-0.3,0.7-0.6,1-0.9h-1.1v-33.4h25.8h7.6v0.2v0.1
			c10.1-12.3,18.8-25.2,26.1-38.5v-21.2h10.4c0.2-0.6,0.5-1.1,0.7-1.7c3.4-8.1,6.3-16.3,8.7-24.4H900v-33.4h26.8
			c1.1-8.8,1.6-17.5,1.5-26.1H900.1z M695.3,420.9H662v-33.4h33.4L695.3,420.9z M840.5,209h33.4v33.4h-14.1h-19.3L840.5,209
			L840.5,209z M814.3,268.5v33.4H781v-33.4H814.3z M721.5,420.9v-33.4h33.4v33.4H721.5z M754.8,361.4h-33.4V328h33.4v8.1V361.4z
			 M814.3,420.9H781v-33.4h33.4v33.4H814.3z M814.3,361.4H781V328h33.4v33.4H814.3z M873.8,361.4h-33.4V328h33.4V361.4z
			 M840.5,301.9v-33.4h33.4v33.4H840.5z"/>
		<path class="st5" d="M675,497.3l-30.4,28.8l-30.8,29.2L382.9,769.7h-0.1L342.5,808l-0.1,0.1L302,846.4l0,0l-33.8,32.1
			c-24.4-16.2-47.1-34.9-67.7-55.5l0,0c-20.8-20.8-39.4-43.6-55.7-68.2l-0.1-0.1l31.8-33.5l38.3-40.4l38.3-40.4l272.4-292.2
			c5-5.3,12.1-7.4,18.7-6.3c4.3,0.7,8.4,2.7,11.7,6l13.8,13.8l32.7,32.7l13.5,13.5l0,0l13.5,13.5L662,454l13.4,13.4
			c3.4,3.4,5.4,7.7,6,12.1C682.4,485.5,680.2,492.4,675,497.3z"/>
		<path class="st6" d="M675,497.3l-30.4,28.8l-30.8,29.2L382.9,769.7h-0.1L342.5,808l-0.1,0.1L302,846.4l0,0l-33.8,32.1
			c-24.4-16.2-47.1-34.9-67.7-55.5l0,0l39-39l39.4-39.4l39.4-39.3l143-143l124.7-125l16.4-16.4l0,0l13.5-13.5l0,0l13.5,13.5
			l32.6,32.6l13.4,13.4c3.4,3.4,5.4,7.7,6,12.1C682.4,485.5,680.2,492.4,675,497.3z"/>
		<path class="st1" d="M551.2,531.9l-30,30c-16.5,16.5-43.2,16.6-59.8,0.1l-0.1-0.1c-16.6-16.6-16.6-43.5,0-60l30-30
			c16.6-16.6,43.5-16.6,60,0l0.1,0.1C567.8,488.7,567.7,515.5,551.2,531.9z"/>
		<path class="st7" d="M871,422.2c-8.3,8.3-21.7,8.3-30,0L600.9,182.1c-8.3-8.3-8.3-21.7,0-30s21.7-8.3,30,0L871,392.2
			C879.3,400.5,879.3,414,871,422.2z"/>
		<polygon class="st7" points="382.9,769.7 342.6,808 278.9,744.4 215,680.6 253.4,640.2 318.3,705.1 		"/>
		<path class="st7" d="M302.2,846.4l-33.8,32l-6.6,6.3l-0.1-0.1l6.6-6.2c-24.4-16.2-47.1-34.9-67.7-55.5l0,0
			c-20.8-20.8-39.4-43.6-55.7-68.2l31.9-33.6l62.8,62.8L302.2,846.4L302.2,846.4L302.2,846.4z"/>
		<path class="st2" d="M461.3,562l90-90c16.5,16.6,16.4,43.4-0.1,59.9l-30,30C504.6,578.5,477.9,578.5,461.3,562z"/>
		<path class="st8" d="M302.2,846.4l-33.8,32l-6.6,6.3l-0.1-0.1l6.6-6.2c-24.4-16.2-47.1-34.9-67.7-55.5l0,0l39-39L302.2,846.4z"/>
		<polygon class="st8" points="382.9,769.7 342.6,808 278.9,744.4 318.3,705.1 		"/>
		<path class="st8" d="M871,422.2c-8.3,8.3-21.7,8.3-30,0L721.1,302.3l30-30L871,392.2C879.3,400.5,879.3,414,871,422.2z"/>
	</g>
</g>
<g>
	<g>
		<path class="st9" d="M933.1,242.4c-0.2-11.9-1.5-23.5-3.8-34.4c-2.2-9.9-4.9-18.7-8.3-26.9c-4.3-10.7-10-21-17-30.6
			c-4.4-6-9.3-11.6-14.4-16.8c-2.3-2.3-5-4.8-8.4-7.7c-1.2-1.1-2.4-2-3.6-2.9l-0.3-0.2c-1.5-1.3-3.1-2.4-4.6-3.5
			c-9.1-6.7-19.3-12.4-30.3-17c-8.6-3.6-17.7-6.4-26.9-8.4c-10.7-2.4-22.3-3.7-34.4-3.9c-8.8-0.1-17.8,0.4-26.7,1.5
			c-11.4,1.3-23,3.7-34.2,7.1c-8.3,2.4-16.9,5.4-25.5,9.1c-0.3,0.1-0.6,0.2-0.8,0.3l-0.4,0.2c-8,3.5-15.1,7-21.6,10.6
			c-13.7,7.5-26.9,16.5-39.3,26.6c-0.3,0.2-0.5,0.4-0.8,0.6c-4.5-3.4-10-5.3-15.8-5.3c-7,0-13.6,2.7-18.5,7.7
			c-5,5-7.7,11.5-7.7,18.5c0,5.8,1.9,11.3,5.3,15.8c-8.4,10.2-16.1,21.1-22.9,32.4c-4.9,8.1-9.3,16.5-13.1,24.9
			c-3.8,8.5-7.3,17.5-10.2,26.7c-3.6,11.6-6.2,23.1-7.8,34.1c-1.3,8.4-1.9,17.4-2.1,26.8c-0.1,2.9,0,5.9,0.1,8.9
			c-6.5,0.4-12.7,3.3-17.2,8.1L249.5,637l-76.6,80.8l-31.8,33.5c-1.8,1.9-1.8,4.7-0.2,6.6c16.4,24.7,35.3,47.8,56.1,68.6
			c19.6,19.6,40.8,37.2,63.2,52.6l-1.9,1.8c-1,0.9-1.6,2.2-1.6,3.6c0,1.3,0.5,2.7,1.4,3.6l0.1,0.1c1,1,2.3,1.5,3.6,1.5
			c1.2,0,2.5-0.5,3.5-1.4l6.6-6.3l33.8-32c0.3-0.3,0.5-0.6,0.7-0.9l39.2-37.1c0.2-0.1,0.4-0.3,0.5-0.4l40.3-38.3c0,0,0,0,0,0
			l230.9-214.4l61.2-58c4.7-4.5,7.6-10.5,8.1-16.7c2.4,0.1,4.8,0.1,7.3,0.1c0.6,0,1.1,0,1.7,0c8.6,0,17.6-0.7,26.8-2.1
			c7.3-1.1,14.2-2.4,21.1-4.1c4-1,8.2-2.2,13.1-3.7c9.4-3,18.4-6.5,26.7-10.2c9.2-4.3,17.4-8.5,24.9-13
			c11.5-6.8,22.4-14.5,32.5-22.9c4.6,3.4,10,5,15.5,5c6.7,0,13.4-2.6,18.5-7.7c4.9-4.9,7.7-11.4,7.7-18.4c0-5.7-1.8-11.2-5.1-15.7
			c0.2-0.2,0.4-0.4,0.6-0.7c10.1-12.3,19.1-25.6,26.6-39.2c3.7-6.5,7.2-13.6,10.7-21.7l0.2-0.4c0.2-0.4,0.3-0.8,0.5-1.1
			c3.6-8.6,6.7-17,8.9-25.1c3.4-11.8,5.8-23.4,7.1-34.2C932.7,260.3,933.2,251.3,933.1,242.4z M342.6,801L222,680.5l31.5-33.1
			l122.2,122.2L342.6,801z M294.9,846.3L267.8,872c-22.6-15.3-44-33-63.6-52.7c-19.5-19.5-37.3-41.1-52.9-64.1l25.6-27L294.9,846.3z
			 M302.1,839.4L183.7,720.9l31.4-33.1l120.3,120.1L302.1,839.4z M671.6,493.7C671.6,493.7,671.6,493.7,671.6,493.7l-61.2,58
			L383,762.8L260.3,640l268.8-288.4c3.7-3.9,9-5.7,14.2-4.8c0,0,0,0,0.1,0c3.4,0.6,6.5,2.1,8.9,4.6l119.5,119.5
			c2.5,2.5,4.1,5.8,4.6,9.2c0,0,0,0.1,0,0.1C677.2,485,675.4,490.1,671.6,493.7z M802.9,442.7c-7.2,4.3-15,8.4-23.9,12.5
			c-7.9,3.6-16.5,6.9-25.5,9.8c-4.7,1.4-8.7,2.5-12.5,3.5c-6.6,1.6-13.2,2.9-20.1,3.9c-8.7,1.3-17.3,1.9-25.4,1.9
			c-3.4,0-6.9,0-10.2-0.2c-1.3-3.9-3.4-7.4-6.3-10.3L559.4,344.4c-2.9-2.9-6.4-5.1-10.3-6.4c-0.1-3.3-0.2-6.7-0.1-10
			c0.1-8.9,0.8-17.5,1.9-25.4c1.5-10.5,4-21.5,7.4-32.6c2.8-8.8,6.1-17.4,9.8-25.6c3.6-8,7.8-16.1,12.5-23.9
			c6.3-10.5,13.5-20.7,21.3-30.2l231.2,231.2C823.7,429.2,813.6,436.3,802.9,442.7z M867.5,418.6
			C867.5,418.7,867.5,418.7,867.5,418.6c-6.3,6.3-16.6,6.3-23,0L604.4,178.6c-3.1-3.1-4.8-7.1-4.8-11.5c0-4.3,1.7-8.4,4.8-11.5
			c3.1-3.1,7.1-4.8,11.5-4.8c4.3,0,8.4,1.7,11.5,4.8l240.1,240.1c3.1,3.1,4.8,7.2,4.8,11.6C872.2,411.6,870.5,415.6,867.5,418.6z
			 M921.6,268c-1.2,10.3-3.5,21.3-6.7,32.6c-2.2,7.7-5.1,15.7-8.6,24c-0.1,0.3-0.3,0.7-0.4,1l-0.2,0.4c-3.3,7.7-6.7,14.5-10.2,20.8
			c-7.2,13.1-15.7,25.6-25.3,37.4L639,153.1c11.8-9.7,24.4-18.2,37.6-25.4c6.2-3.5,13-6.8,20.7-10.2l0.4-0.2
			c0.2-0.1,0.4-0.2,0.6-0.3c0,0,0.1,0,0.1-0.1c8.3-3.5,16.5-6.4,24.4-8.7c10.7-3.2,21.7-5.5,32.6-6.7c8.5-1.1,17.1-1.6,25.4-1.5
			c11.4,0.2,22.3,1.4,32.5,3.7c8.7,1.8,17.1,4.5,25.2,7.8c10.3,4.2,19.8,9.6,28.3,15.8c1.5,1.1,2.8,2.1,4.1,3.2
			c0.1,0.1,0.1,0.1,0.2,0.2l0.4,0.3c1.1,0.8,2.1,1.6,3,2.4c0,0,0.1,0.1,0.1,0.1c3.2,2.8,5.8,5.1,7.9,7.2c4.8,4.8,9.3,10,13.4,15.6
			c6.5,9,11.8,18.5,15.8,28.5c3.2,7.7,5.8,15.9,7.8,25.2c2.2,10.3,3.4,21.2,3.6,32.4C923.2,251,922.7,259.5,921.6,268z"/>
		<path class="st9" d="M554.8,468.4c-8.9-9-20.8-13.9-33.4-13.9c0,0,0,0-0.1,0c-12.7,0-24.6,4.9-33.6,13.9l-30,30
			c-9,8.9-13.9,20.8-13.9,33.4c0,12.7,4.9,24.7,13.9,33.7l0.1,0.1c9.2,9.2,21.3,13.7,33.4,13.7c12.1,0,24.3-4.6,33.5-13.8l30-30
			C573.1,517.1,573.2,487.1,554.8,468.4L554.8,468.4z M547.7,528.4C547.7,528.4,547.7,528.4,547.7,528.4l-30,30
			c-14.5,14.5-38.2,14.6-52.7,0.1l-0.1-0.1c-7.1-7.1-11-16.5-11-26.6c0-10,3.9-19.3,11-26.4l30-30c7.1-7.1,16.5-11,26.5-11
			c0,0,0,0,0.1,0c10,0,19.3,3.9,26.4,11l0.1,0.1C562.3,490.2,562.2,513.9,547.7,528.4z"/>
	</g>
	<path class="st1" d="M512,972c-90.9,0-178.8-26.5-254.2-76.6c-0.1,0-0.2-0.1-0.2-0.1c-0.5-0.3-0.9-0.6-1.4-1
		c-24.8-16.6-48.3-35.9-69.8-57.3c-10.8-10.8-21.2-22.3-30.9-34.2c-9.5-11.6-18.5-23.9-26.9-36.4c-0.2-0.3-0.4-0.6-0.6-0.8
		C78.3,690.2,52,602.5,52,512c0-62.1,12.2-122.3,36.2-179.1c23.2-54.8,56.3-104,98.6-146.2c42.2-42.2,91.4-75.4,146.2-98.6
		C389.7,64.2,449.9,52,512,52c11,0,20,9,20,20s-9,20-20,20c-56.7,0-111.7,11.1-163.5,33c-50,21.2-94.9,51.4-133.5,90
		s-68.9,83.5-90,133.5C103.1,400.3,92,455.3,92,512c0,82.4,23.9,162.1,69,230.7c0.2,0.3,0.4,0.6,0.6,0.9c7.7,11.6,16.1,23,24.9,33.8
		c8.8,10.8,18.3,21.3,28.2,31.2c19.9,19.9,41.6,37.7,64.6,53c0.3,0.2,0.6,0.4,0.9,0.6C349,907.9,429.1,932,512,932
		c56.7,0,111.7-11.1,163.5-33c50-21.2,94.9-51.4,133.5-90c38.6-38.6,68.9-83.5,90-133.5c21.9-51.8,33-106.8,33-163.5
		c0-11,9-20,20-20s20,9,20,20c0,62.1-12.2,122.3-36.2,179.1c-23.2,54.8-56.3,104-98.6,146.2c-42.2,42.2-91.4,75.4-146.2,98.6
		C634.3,959.8,574.1,972,512,972z M268.5,858.4L268.5,858.4L268.5,858.4z M268.5,858.4C268.5,858.4,268.5,858.4,268.5,858.4
		C268.5,858.4,268.5,858.4,268.5,858.4z M268.4,858.4C268.4,858.4,268.4,858.4,268.4,858.4C268.4,858.4,268.4,858.4,268.4,858.4z"/>
	<path class="st10" d="M696.4,112.4"/>
</g>
</svg>
