<?xml version="1.0" encoding="utf-8"?>
<!-- Generator: Adobe Illustrator 24.0.0, SVG Export Plug-In . SVG Version: 6.00 Build 0)  -->
<svg version="1.1" id="Capa_1" xmlns="http://www.w3.org/2000/svg" xmlns:xlink="http://www.w3.org/1999/xlink" x="0px" y="0px"
	 viewBox="0 0 1024 1024" style="enable-background:new 0 0 1024 1024;" xml:space="preserve">
<style type="text/css">
	.st0{fill:#9DD4A9;}
	.st1{fill:#534A9A;}
	.st2{fill:#FFD071;}
	.st3{fill:#443F80;}
	.st4{fill:#F9B630;}
	.st5{fill:#F9F7FC;}
	.st6{fill:#DCDAEB;}
	.st7{fill:#767DD4;}
	.st8{fill:#5E6ACA;}
	.st9{fill:#F473C3;}
	.st10{fill:#C640A6;}
	.st11{fill:#84BFA7;}
	.st12{fill:#F9A40D;}
	.st13{fill:#BAE4FA;}
	.st14{fill:#A5C6FF;}
	.st15{fill:none;stroke:#F473C3;stroke-width:40;stroke-linecap:round;stroke-linejoin:round;stroke-miterlimit:10;}
	.st16{fill:#FFFFFF;}
</style>
<g>
	<circle class="st0" cx="512" cy="512" r="440"/>
	<g>
		<g>
			<g>
				<path class="st1" d="M837.8,201.4l-15.4,15.4L756.6,159l-8-7c-7.7-6.7-8-18.5-0.8-25.7c6.9-6.9,18.1-6.8,25,0
					c0.3,0.3,0.6,0.6,0.9,0.9l6.8,7.9L837.8,201.4z"/>
				<path class="st2" d="M780.5,135.1L756.6,159l-8-7c-7.7-6.7-8-18.5-0.8-25.7c6.9-6.9,18.1-6.8,25,0c0.3,0.3,0.6,0.6,0.9,0.9
					L780.5,135.1z"/>
			</g>
			<g>
				<path class="st1" d="M791.2,248l-15.4,15.4L710,205.6l-8-7c-7.7-6.7-8-18.5-0.8-25.7c6.9-6.9,18.1-6.8,25,0
					c0.3,0.3,0.6,0.6,0.9,0.9l6.8,7.9L791.2,248z"/>
				<path class="st2" d="M733.9,181.7L710,205.6l-8-7c-7.7-6.7-8-18.5-0.8-25.7c6.9-6.9,18.1-6.8,25,0c0.3,0.3,0.6,0.6,0.9,0.9
					L733.9,181.7z"/>
			</g>
			<g>
				<path class="st3" d="M845.9,163l-15.4,15.4l57.8,65.7l7,8c6.7,7.7,18.5,8,25.7,0.8c6.9-6.9,6.8-18.1,0-25
					c-0.3-0.3-0.6-0.6-0.9-0.9l-7.9-6.8L845.9,163z"/>
				<path class="st4" d="M912.2,220.2l-23.9,23.9l7,8c6.7,7.7,18.5,8,25.7,0.8c6.9-6.9,6.8-18.1,0-25c-0.3-0.3-0.6-0.6-0.9-0.9
					L912.2,220.2z"/>
			</g>
			<g>
				<path class="st3" d="M799.3,209.5L783.9,225l57.8,65.7l7,8c6.7,7.7,18.5,8,25.7,0.8c6.9-6.9,6.8-18.1,0-25
					c-0.3-0.3-0.6-0.6-0.9-0.9l-7.9-6.8L799.3,209.5z"/>
				<path class="st4" d="M865.6,266.8l-23.9,23.9l7,8c6.7,7.7,18.5,8,25.7,0.8c6.9-6.9,6.8-18.1,0-25c-0.3-0.3-0.6-0.6-0.9-0.9
					L865.6,266.8z"/>
			</g>
		</g>
		<g>
			<path class="st5" d="M477.6,784.5c-130.9,130.9-223,32.5-246.8,8.7s-122.2-115.9,8.7-246.8s396-157.9,562.6-324.6
				C635.5,388.5,608.5,653.5,477.6,784.5z"/>
			<path class="st6" d="M477.6,784.5c-130.9,130.9-223,32.5-246.8,8.7l571.4-571.4C635.5,388.5,608.5,653.5,477.6,784.5z"/>
		</g>
		<path class="st7" d="M642.4,533.2c42.2-105,85.7-213.6,171.6-299.5l71.4-71.4c6.6-6.6,6.6-17.2,0-23.8l0,0
			c-6.6-6.6-17.2-6.6-23.8,0l-71.4,71.4c-85.9,85.9-194.5,129.5-299.5,171.6c-94.7,38-199.2,89-263.1,152.9
			C77.2,684.8,205.5,791.6,218.9,805s120.2,141.7,270.6-8.7C553.5,732.4,604.4,627.9,642.4,533.2z M242.7,781.3
			c-17.9-17.9-115.9-98.4,8.7-223c59.1-59.1,160.5-108.8,251.9-145.5c31.1-12.5,62.6-25.2,93.7-39l53.1,53.1
			c-13.8,31.2-26.5,62.6-39,93.7c-36.7,91.4-86.4,192.8-145.5,251.9C341.1,897.2,260.6,799.2,242.7,781.3z"/>
		<path class="st8" d="M489.5,796.4c-150.4,150.4-257.2,22.1-270.6,8.7l23.8-23.8c17.9,17.9,98.4,115.9,223-8.7
			c59.1-59.1,108.8-160.5,145.5-251.9c12.5-31.1,25.2-62.6,39-93.7l-26.6-26.6l261.9-261.9l0,0c6.6,6.6,6.6,17.2,0,23.8l-71.4,71.4
			c-85.9,85.9-129.5,194.5-171.6,299.5C604.4,627.9,553.5,732.4,489.5,796.4z"/>
		<path class="st1" d="M916.1,169.1L916.1,169.1c-16.9,16.9-44.4,16.9-61.3,0l0,0c-16.9-16.9-16.9-44.3,0-61.2l0,0
			c16.9-16.9,44.3-16.9,61.2,0l0,0C933,124.8,933,152.2,916.1,169.1z"/>
		<path class="st3" d="M916.1,169.1L916.1,169.1c-16.9,16.9-44.4,16.9-61.3,0l61.3-61.3l0,0C933,124.8,933,152.2,916.1,169.1z"/>
		<path class="st2" d="M466.9,628.5l-56.3-56.3c-6.6-6.6-17.2-6.6-23.8,0c-6.6,6.6-6.6,17.2,0,23.8l56.3,56.3
			c6.6,6.6,17.2,6.6,23.8,0C473.5,645.7,473.5,635.1,466.9,628.5z M516.5,578.9l-56.3-56.3c-6.6-6.6-17.2-6.6-23.8,0
			c-6.6,6.6-6.6,17.2,0,23.8l56.3,56.3c6.6,6.6,17.2,6.6,23.8,0C523.1,596.2,523.1,585.5,516.5,578.9z M718.8,305.2
			c-6.6-6.6-17.2-6.6-23.8,0s-6.6,17.2,0,23.8c6.6,6.6,17.2,6.6,23.8,0C725.4,322.4,725.4,311.7,718.8,305.2z M564.1,531.3
			l-71.4-71.4c-6.6-6.6-17.2-6.6-23.8,0c-6.6,6.6-6.6,17.2,0,23.8l71.4,71.4c6.6,6.6,17.2,6.6,23.8,0
			C570.7,548.6,570.7,537.9,564.1,531.3z M685.4,366.9l-28.3-28.3l0,0c-6.6-6.6-17.2-6.6-23.8,0l0,0c-6.6,6.6-6.6,17.2,0,23.8
			l28.3,28.3l0,0c3.3,3.3,7.6,4.9,11.9,4.9c4.3,0,8.6-1.7,11.9-4.9C692,384.2,692,373.5,685.4,366.9z M659.3,436.1l-71.4-71.4
			c-6.6-6.6-17.2-6.6-23.8,0s-6.6,17.2,0,23.8l71.4,71.4c6.6,6.6,17.2,6.6,23.8,0C665.9,453.3,665.9,442.7,659.3,436.1z
			 M611.7,483.7l-71.4-71.4c-6.6-6.6-17.2-6.6-23.8,0c-6.6,6.6-6.6,17.2,0,23.8l71.4,71.4c6.6,6.6,17.2,6.6,23.8,0
			C618.3,500.9,618.3,490.3,611.7,483.7z"/>
		<path class="st0" d="M909.3,162.3L909.3,162.3c-13.2,13.2-34.5,13.2-47.6,0l0,0c-13.1-13.2-13.1-34.5,0-47.6l0,0
			c13.2-13.1,34.5-13.1,47.6,0l0,0C922.5,127.9,922.5,149.2,909.3,162.3z"/>
		<g>
			<path class="st9" d="M343.8,748.5l-9.3,9.3l-68.3-68.3l9.3-9.3c2.8-2.8,7.2-2.8,10,0l58.4,58.4
				C346.5,741.3,346.5,745.8,343.8,748.5z"/>
			<path class="st9" d="M338.9,769.2l-7.4,7.4c-1.9,1.9-5,1.9-6.9,0l-77.3-77.3c-1.9-1.9-1.9-5,0-6.9l7.4-7.4c1.9-1.9,5-1.9,6.9,0
				l77.3,77.3C340.8,764.2,340.8,767.3,338.9,769.2z"/>
		</g>
		<path class="st10" d="M338.9,769.2l-7.4,7.4c-1.9,1.9-5,1.9-6.9,0L286,738l28.6-28.6l29.2,29.2c2.8,2.8,2.8,7.2,0,10l-9.3,9.3
			l4.5,4.5C340.8,764.2,340.8,767.3,338.9,769.2z"/>
		<path class="st11" d="M909.3,162.3L909.3,162.3c-13.2,13.2-34.5,13.2-47.6,0l47.6-47.6l0,0C922.5,127.9,922.5,149.2,909.3,162.3z"
			/>
		<g>
			<path class="st12" d="M695,329l23.8-23.8c6.6,6.6,6.6,17.2,0,23.8C712.3,335.5,701.6,335.5,695,329z"/>
			<path class="st12" d="M661.6,390.7l-14.2-14.2l23.8-23.8l14.2,14.2c6.6,6.6,6.6,17.2,0,23.8c-3.3,3.3-7.6,4.9-11.9,4.9
				C669.2,395.7,664.9,394,661.6,390.7L661.6,390.7z"/>
			<path class="st12" d="M466.9,652.3c-6.6,6.6-17.2,6.6-23.8,0l-35.7-35.7l23.8-23.8l35.7,35.7
				C473.5,635.1,473.5,645.7,466.9,652.3z"/>
			<path class="st12" d="M516.5,602.7c-6.6,6.6-17.2,6.6-23.8,0L457,567l23.8-23.8l35.7,35.7C523.1,585.5,523.1,596.2,516.5,602.7z"
				/>
			<path class="st12" d="M564.1,555.1c-6.6,6.6-17.2,6.6-23.8,0l-35.7-35.7l23.8-23.8l35.7,35.7
				C570.7,537.9,570.7,548.6,564.1,555.1z"/>
			<path class="st12" d="M611.7,507.5c-6.6,6.6-17.2,6.6-23.8,0l-35.7-35.7L576,448l35.7,35.7C618.3,490.3,618.3,500.9,611.7,507.5z
				"/>
			<path class="st12" d="M635.5,459.9l-35.7-35.7l23.8-23.8l35.7,35.7c6.6,6.6,6.6,17.2,0,23.8C652.8,466.5,642.1,466.5,635.5,459.9
				z"/>
		</g>
		<g>
			<path class="st13" d="M282.1,698.7c-2.1-2.1-2.1-5.5,0-7.5L634,339.3c2.1-2.1,5.5-2.1,7.5,0s2.1,5.5,0,7.5L289.7,698.7
				C287.6,700.8,284.2,700.8,282.1,698.7z"/>
			<path class="st13" d="M296.5,713.1c-2.1-2.1-2.1-5.5,0-7.5l351.9-351.9c2.1-2.1,5.5-2.1,7.5,0c2.1,2.1,2.1,5.5,0,7.5L304,713.1
				C302,715.2,298.6,715.2,296.5,713.1z"/>
			<path class="st14" d="M310.9,727.5c-2.1-2.1-2.1-5.5,0-7.5l351.9-351.9c2.1-2.1,5.5-2.1,7.5,0c2.1,2.1,2.1,5.5,0,7.5L318.4,727.5
				C316.3,729.6,313,729.6,310.9,727.5z"/>
			<path class="st14" d="M325.3,741.9c-2.1-2.1-2.1-5.5,0-7.5l351.9-351.9c2.1-2.1,5.5-2.1,7.5,0c2.1,2.1,2.1,5.5,0,7.5L332.8,741.9
				C330.7,744,327.3,744,325.3,741.9z"/>
		</g>
	</g>
</g>
<g>
	<path class="st15" d="M943,422.9c5.9,28.8,9,58.6,9,89.1c0,243-197,440-440,440S72,755,72,512S269,72,512,72
		c19.3,0,38.4,1.2,57.1,3.7"/>
	<g>
		<path class="st16" d="M923.6,223.5c-0.1-0.1-0.2-0.2-0.3-0.2l-42.5-36.7c1.5,0.1,3,0.2,4.6,0.2c12.9,0,25.1-5,34.2-14.1
			c9.1-9.1,14.1-21.3,14.1-34.2c0-12.9-5.1-25-14.2-34.1c-18.8-18.8-49.4-18.8-68.3,0c-13.3,13.3-17.2,32.4-11.7,49.1l-19.6,19.6
			l-35.6-41.3l-6.8-7.9c-0.1-0.1-0.2-0.2-0.3-0.3l-0.9-0.9c-8.9-8.8-23.3-8.8-32,0c0,0,0,0,0,0c0,0,0,0,0,0
			c-0.3,0.3-0.5,0.5-0.8,0.8c0,0,0,0,0,0c-0.2,0.2-0.4,0.4-0.5,0.6c-0.1,0.1-0.2,0.2-0.3,0.3c-0.2,0.3-0.4,0.5-0.6,0.8
			c0,0-0.1,0.1-0.1,0.1l-0.3,0.5c-0.1,0.2-0.3,0.4-0.4,0.6c-0.1,0.2-0.3,0.4-0.4,0.6c-0.2,0.3-0.4,0.6-0.5,0.9
			c-0.1,0.2-0.2,0.4-0.3,0.6c-0.1,0.2-0.2,0.3-0.2,0.5l-0.1,0.2c-0.2,0.5-0.5,1.1-0.7,1.7c-0.1,0.3-0.2,0.5-0.3,0.8
			c-0.1,0.2-0.1,0.4-0.2,0.6c0,0.1-0.1,0.3-0.1,0.4c0,0.2-0.1,0.3-0.1,0.5c0,0.2-0.1,0.4-0.1,0.6c0,0,0,0.2,0,0.2
			c0,0.2-0.1,0.4-0.1,0.7c-0.1,0.6-0.2,1.1-0.3,1.9c0,0.1,0,0.2,0,0.2c0,0.5-0.1,1.1-0.1,1.7c0,0.1,0,0.2,0,0.4c0,0.2,0,0.3,0,0.5
			c0,0.4,0,0.9,0.1,1.3c0,0,0,0,0,0.1c0.5,4.9,2.5,9.4,5.8,13c0,0,0,0,0,0c0,0,0,0,0,0c0.1,0.1,0.2,0.2,0.3,0.3
			c0.1,0.1,0.2,0.2,0.3,0.3c0.4,0.4,0.8,0.8,1.2,1.1l8,7c0,0,0,0,0,0l41,36l-7.6,7.6c-4.4,4.4-9,8.8-13.6,13l-35.4-41l-6.8-7.9
			c-0.1-0.1-0.2-0.2-0.3-0.3l-0.9-0.9c-8.3-8.2-21.5-8.7-30.3-1.5c-0.6,0.5-1.2,1-1.7,1.5c-4.4,4.4-6.9,10.6-6.6,16.8
			c0.2,6.3,3,12,7.7,16.2l8,7l38.6,33.9c-77.5,61.8-168.4,98.3-256.5,133.6c-124.5,50-211.1,100.3-264.8,154
			c-49.7,49.7-74.6,100.1-73.9,149.6c0.4,28.7,9.3,56.7,26.6,83.3c13.8,21.3,29.4,36.1,36.1,42.4c1.1,1,1.9,1.8,2.5,2.4
			c0.6,0.6,1.4,1.5,2.4,2.5c6.3,6.7,21.1,22.3,42.4,36.1c26.6,17.2,54.6,26.2,83.3,26.6c0.7,0,1.3,0,2,0
			c48.9,0,98.6-24.9,147.6-73.9c53.6-53.5,104-140.1,154-264.8l0.4-0.9c39.3-97.7,79.8-198.6,154.8-280.8l35.7,40.6l7,8
			c4.1,4.7,9.9,7.5,16.2,7.7c0.3,0,0.5,0,0.8,0c2.2,0,4.5-0.3,6.6-1c3.5-1.1,6.8-3,9.5-5.7c4.4-4.4,6.6-10.2,6.6-16
			c0-1.5-0.1-2.9-0.4-4.3c-0.8-4.3-2.9-8.4-6.2-11.8l-0.9-0.9c-0.1-0.1-0.2-0.2-0.3-0.3l-7.9-6.8c0,0,0,0,0,0l-41.4-35.7l20.9-20.9
			l36.1,41l7,8c4.1,4.7,9.9,7.5,16.2,7.7c0.3,0,0.5,0,0.8,0c6,0,11.8-2.4,16.1-6.7c8.8-8.8,8.8-23.2,0-32.1L923.6,223.5z
			 M858.3,111.4c7.5-7.5,17.3-11.2,27.1-11.2c9.8,0,19.6,3.7,27.1,11.2c7.3,7.2,11.3,16.8,11.3,27c0,10.2-4,19.8-11.2,27.1
			c-7.2,7.2-16.9,11.2-27.1,11.2c-5,0-9.9-1-14.5-2.8c0,0,0,0,0,0c-4.7-1.9-9-4.7-12.6-8.4C843.4,150.6,843.4,126.4,858.3,111.4z
			 M756.4,152.2l-4.5-3.9c0,0,0,0,0,0c-0.3-0.3-0.6-0.5-0.8-0.8c0,0-0.1-0.1-0.1-0.1c-0.1-0.1-0.2-0.2-0.3-0.3
			c-0.2-0.2-0.4-0.5-0.6-0.7c-0.1-0.1-0.2-0.2-0.2-0.3c-0.2-0.3-0.4-0.5-0.5-0.8c-0.1-0.1-0.1-0.2-0.2-0.3c-0.2-0.3-0.3-0.6-0.5-0.9
			c0-0.1-0.1-0.2-0.1-0.2c-0.1-0.3-0.3-0.6-0.4-1c-0.1-0.2-0.1-0.5-0.2-0.7c-0.1-0.2-0.1-0.4-0.1-0.6c0-0.2-0.1-0.4-0.1-0.6
			c0-0.2,0-0.3-0.1-0.5c0-0.3-0.1-0.5-0.1-0.8c0-0.1,0-0.2,0-0.4c0-0.3,0-0.7,0-1c0-0.1,0-0.2,0-0.3c0-0.3,0.1-0.6,0.1-0.9
			c0-0.1,0-0.2,0-0.3c0,0,0,0,0-0.1c0.1-0.3,0.1-0.6,0.2-0.9c0-0.2,0.1-0.4,0.2-0.6c0.1-0.3,0.2-0.5,0.3-0.8c0-0.1,0.1-0.2,0.1-0.3
			c0.1-0.3,0.3-0.6,0.4-1l0.1-0.1c0.2-0.3,0.4-0.6,0.6-1c0-0.1,0.1-0.1,0.1-0.2c0.2-0.3,0.4-0.6,0.6-0.9c0,0,0.1-0.1,0.1-0.1
			c0,0,0,0,0-0.1c0.3-0.3,0.5-0.6,0.8-0.9c2.5-2.5,5.7-3.7,8.9-3.7c3.2,0,6.5,1.2,9,3.7l4.4,5L756.4,152.2z M763.9,158.8l16.3-16.3
			l32.6,37.7l-11.5,11.5L763.9,158.8z M753.2,236.9l-35.9-31.5l16.3-16.3l32,37.1C761.6,229.7,757.4,233.3,753.2,236.9z M716.1,173
			c0.2,0,0.5,0.1,0.7,0.2c0.2,0,0.3,0.1,0.5,0.1c2,0.6,3.8,1.6,5.4,3.2l0.8,0.8l3.7,4.2l-17.3,17.3l-4.5-3.9c-2.6-2.3-4.1-5.5-4.3-9
			c-0.1-3.6,1.2-6.9,3.7-9.4C707.8,173.4,712.1,172.2,716.1,173z M638.1,530.4l-0.4,0.9C588.3,654.7,538.6,740.2,486,792.8
			c-47.1,47.1-94.4,71-140.5,71c-0.6,0-1.2,0-1.9,0c-26.7-0.4-53-8.8-78-25c-20.3-13.1-34-27.6-40.5-34.6c-1.1-1.2-2-2.1-2.6-2.7
			c-0.7-0.7-1.6-1.5-2.7-2.6c-7-6.6-21.4-20.3-34.6-40.5c-16.2-25-24.6-51.2-25-78c-0.6-46.8,23.2-94.7,71-142.4
			c52.7-52.7,138.2-102.4,261.4-151.8c90.5-36.3,184-73.8,263.7-138.8c6.8-5.5,13.5-11.3,19.8-17c6-5.4,11.9-11.1,17.7-16.8
			l50.2-50.2c2,3.4,4.4,6.5,7.3,9.4c2.9,2.9,6,5.3,9.4,7.3l-50.2,50.2c-4.1,4.1-8.1,8.2-11.9,12.3
			C720,326.7,678.4,430.3,638.1,530.4z M861.4,299.7c-3.5-0.1-6.7-1.6-9-4.3l-3.9-4.5l17.3-17.3l4.2,3.7l0.7,0.7c4.9,5,4.9,13,0,18
			C868.3,298.5,865,299.8,861.4,299.7z M858.3,267.1l-16.3,16.3L809,246c2.8-2.9,5.6-5.8,8.5-8.7l2.9-2.9L858.3,267.1z M867,187.8
			l37.9,32.7l-16.3,16.3l-33-37.5L867,187.8z M917.5,249.4c-2.5,2.5-5.9,3.9-9.4,3.7c-3.5-0.1-6.7-1.6-9-4.3l-3.9-4.5l17.3-17.3
			l4.2,3.7l0.7,0.7C922.4,236.4,922.4,244.5,917.5,249.4z"/>
		<path class="st16" d="M496.2,456.4c-8.5-8.5-22.4-8.5-30.9,0c-4.1,4.1-6.4,9.6-6.4,15.4s2.3,11.3,6.4,15.4l71.4,71.4
			c4.1,4.1,9.6,6.4,15.4,6.4s11.3-2.3,15.4-6.4c4.1-4.1,6.4-9.5,6.4-15.3c0-5.9-2.3-11.4-6.4-15.6L496.2,456.4z M560.6,551.6
			c-2.2,2.2-5.2,3.5-8.4,3.5c-3.1,0-6.1-1.2-8.4-3.5l-71.4-71.4c-2.2-2.2-3.5-5.2-3.5-8.4c0-3.1,1.2-6.1,3.5-8.4
			c2.2-2.2,5.2-3.5,8.4-3.5c3.1,0,6.1,1.2,8.4,3.5l71.4,71.4c2.3,2.3,3.5,5.3,3.5,8.4C564,546.4,562.8,549.4,560.6,551.6z"/>
		<path class="st16" d="M626.9,396.7l-26.4-26.4c0,0,0,0,0,0l-9.1-9.1c-8.5-8.5-22.4-8.5-30.9,0c-6.7,6.7-8.1,16.6-4.3,24.7
			c-18.8,7.8-37.8,15.5-54.8,22.3c-118.6,47.6-203.9,96.9-253.6,146.6c-42.7,42.7-64.1,84.9-63.7,125.6
			c0.6,52.3,36.4,86.6,51.6,101.2c1.3,1.2,2.4,2.3,3.3,3.2c0.9,0.9,2,2,3.2,3.3c14.7,15.3,49,51.1,101.2,51.6c0.4,0,0.8,0,1.2,0
			c40.3,0,82.1-21.5,124.4-63.8c49.7-49.7,99-135,146.6-253.6c7.1-17.6,14.6-36.1,22.3-54.7c2.9,1.4,6.1,2.1,9.4,2.1
			c5.8,0,11.3-2.3,15.4-6.4c4.1-4.1,6.4-9.6,6.4-15.4s-2.3-11.3-6.4-15.4L626.9,396.7z M520,415.8c2.3-2.3,5.3-3.5,8.4-3.5
			c3,0,6.1,1.2,8.4,3.5l71.4,71.4c4.6,4.6,4.6,12.1,0,16.7c-4.6,4.6-12.1,4.6-16.7,0L520,432.6c-2.2-2.2-3.5-5.2-3.5-8.4
			C516.5,421.1,517.8,418.1,520,415.8z M615.2,480.2l-71.4-71.4c-1.9-1.9-4-3.3-6.3-4.4c8.3-3.4,16.7-6.8,25.1-10.3l67.3,67.3
			c-3.5,8.4-6.9,16.7-10.3,25C618.5,484.1,617.1,482,615.2,480.2z M462.1,769c-40.3,40.4-79.8,60.8-117.3,60.8c-0.3,0-0.7,0-1,0
			c-48-0.5-80.3-34.2-94.1-48.5c-1.3-1.4-2.4-2.5-3.4-3.5c-1-1-2.1-2.1-3.5-3.4c-14.4-13.8-48.1-46.1-48.6-94.1
			c-0.4-37.9,20-77.7,60.8-118.4c48.7-48.7,132.9-97.3,250.2-144.4c1-0.4,1.9-0.8,2.9-1.2c-3,7.8-1.4,17.1,4.9,23.4l71.4,71.4
			c4.3,4.3,9.8,6.4,15.4,6.4c2.6,0,5.3-0.5,7.8-1.4c-0.4,0.9-0.7,1.8-1.1,2.8C559.3,636.1,510.8,720.3,462.1,769z M655.8,456.4
			c-2.2,2.2-5.2,3.5-8.4,3.5c-3.1,0-6.1-1.2-8.4-3.5L567.6,385c-4.6-4.6-4.6-12.1,0-16.7c2.3-2.3,5.3-3.5,8.4-3.5s6.1,1.2,8.4,3.5
			l35.5,35.5l26.7,26.7c0,0,0,0,0,0l9.2,9.2c2.2,2.2,3.5,5.2,3.5,8.4S658,454.1,655.8,456.4z"/>
		<path class="st16" d="M688.9,363.4l-28.3-28.3c-4.1-4.1-9.6-6.4-15.4-6.4s-11.3,2.3-15.4,6.4c-8.5,8.5-8.5,22.4,0,30.9l28.3,28.3
			c4.1,4.1,9.6,6.4,15.4,6.4c5.7,0,11.2-2.2,15.4-6.3c4.1-4.1,6.4-9.5,6.4-15.3C695.4,373,693.1,367.5,688.9,363.4
			C688.9,363.4,688.9,363.4,688.9,363.4z M681.9,387.1c-2.3,2.3-5.3,3.5-8.4,3.5c-3.2,0-6.1-1.2-8.4-3.4l-28.3-28.3
			c-4.6-4.6-4.6-12.1,0-16.7c2.2-2.2,5.2-3.5,8.4-3.5c3.1,0,6.1,1.2,8.4,3.5l28.3,28.3l0,0c2.3,2.3,3.5,5.3,3.5,8.4
			C685.3,382,684.1,385,681.9,387.1z"/>
		<path class="st16" d="M414.1,568.7c-4.1-4.1-9.6-6.4-15.4-6.4c-5.8,0-11.3,2.3-15.4,6.4c-8.5,8.5-8.5,22.4,0,30.9l56.3,56.3
			c4.1,4.1,9.6,6.4,15.4,6.4s11.3-2.3,15.4-6.4c4.1-4.1,6.4-9.6,6.4-15.4c0-5.8-2.3-11.3-6.4-15.4L414.1,568.7z M463.4,648.8
			c-2.2,2.2-5.2,3.5-8.4,3.5s-6.1-1.2-8.4-3.5l-56.3-56.3c-4.6-4.6-4.6-12.1,0-16.7c2.2-2.2,5.2-3.5,8.4-3.5c3.1,0,6.1,1.2,8.4,3.5
			l56.3,56.3c0,0,0,0,0,0c2.2,2.2,3.5,5.2,3.5,8.4C466.9,643.5,465.6,646.5,463.4,648.8z"/>
		<path class="st16" d="M706.9,295.2c-2.3,0-4.6,0.4-6.7,1.1c-0.1,0-0.1,0.1-0.2,0.1c-3.2,1.1-6.1,2.8-8.5,5.3
			c-8.5,8.5-8.5,22.4,0,30.9c4.1,4.1,9.6,6.4,15.4,6.4c5.6,0,10.8-2.1,14.9-5.9c0.1-0.1,0.2-0.2,0.3-0.2c0,0,0,0,0.1-0.1
			c0.1-0.1,0.2-0.1,0.2-0.2c4.2-4.2,6.4-9.7,6.4-15.6c0-5.8-2.3-11.3-6.4-15.3C718.2,297.5,712.7,295.2,706.9,295.2z M698.5,325.5
			c-4.5-4.5-4.6-11.6-0.5-16.2c1.9-1.2,3.8-2.4,5.7-3.5c1-0.3,2.1-0.4,3.2-0.4c3.1,0,6.1,1.2,8.4,3.5c0,0,0,0,0,0
			c2.2,2.2,3.4,5.1,3.5,8.3c0,1-0.1,2-0.4,3c-1.2,1.8-2.4,3.8-3.8,6.1c-2.1,1.8-4.8,2.8-7.7,2.8C703.8,329,700.8,327.7,698.5,325.5z
			"/>
		<path class="st16" d="M463.7,519.1c-8.5-8.5-22.4-8.5-30.9,0c-8.5,8.5-8.5,22.4,0,30.9l56.3,56.3c4.3,4.3,9.9,6.4,15.4,6.4
			c5.6,0,11.2-2.1,15.4-6.4c4.1-4.1,6.4-9.5,6.4-15.3c0-5.9-2.3-11.4-6.4-15.6L463.7,519.1z M513,599.2c-4.6,4.6-12.1,4.6-16.7,0
			l-56.3-56.3c-4.6-4.6-4.6-12.1,0-16.7c2.3-2.3,5.3-3.5,8.4-3.5c3,0,6.1,1.2,8.4,3.5l56.3,56.3c2.3,2.3,3.5,5.3,3.5,8.4
			C516.4,594,515.2,597,513,599.2z"/>
		<path class="st16" d="M885.5,172.2c8.6,0,17.2-3.3,23.8-9.9c13.2-13.1,13.2-34.4,0-47.6c-6.5-6.5-15.1-9.8-23.8-9.8
			c-8.6,0-17.2,3.3-23.8,9.8c-13.1,13.1-13.1,34.4,0,47.6C868.2,168.9,876.8,172.2,885.5,172.2z M868.7,121.8
			c4.5-4.5,10.5-6.9,16.8-6.9c6.3,0,12.2,2.4,16.7,6.9c4.5,4.5,7,10.5,7,16.8c0,6.3-2.5,12.2-7,16.6c-4.5,4.5-10.4,7-16.8,7
			c-6.3,0-12.2-2.5-16.7-6.9C859.6,146,859.6,131,868.7,121.8z"/>
		<path class="st16" d="M289,676.7c-4.8-4.8-12.3-4.8-17.1,0l-5.8,5.8l-1-1c-1.9-1.9-4.3-2.9-7-2.9c-2.6,0-5.1,1-7,2.9l-7.4,7.4
			c-1.9,1.9-2.9,4.3-2.9,7c0,2.6,1,5.1,2.9,7l77.3,77.3c1.9,1.9,4.3,2.9,7,2.9c2.6,0,5.1-1,7-2.9l7.4-7.4c0,0,0,0,0,0
			c3.9-3.9,3.9-10.1,0-14l-0.9-0.9l5.8-5.8c4.6-4.6,4.7-12.2,0.1-17L289,676.7z M328,773l-77.1-77.1l7.2-7.2l77.1,77.1L328,773z
			 M279,683.7c0.8-0.8,2.1-0.8,2.9,0l58.3,58.3c0.7,0.8,0.7,2.1,0,2.9l-5.8,5.8l-61.2-61.2L279,683.7z"/>
	</g>
</g>
</svg>
