<?xml version="1.0" encoding="utf-8"?>
<!-- Generator: Adobe Illustrator 24.0.0, SVG Export Plug-In . SVG Version: 6.00 Build 0)  -->
<svg version="1.1" id="Capa_1" xmlns="http://www.w3.org/2000/svg" xmlns:xlink="http://www.w3.org/1999/xlink" x="0px" y="0px"
	 viewBox="0 0 1024 1024" style="enable-background:new 0 0 1024 1024;" xml:space="preserve">
<style type="text/css">
	.st0{fill:#A5C6FF;}
	.st1{fill:#F9F7FC;}
	.st2{fill:#767DD4;}
	.st3{fill:#F473C3;}
	.st4{fill:#C640A6;}
	.st5{fill:#DCDAEB;}
	.st6{fill:#FFD071;}
	.st7{fill:#F9B630;}
	.st8{fill:#FFFFFF;}
</style>
<circle class="st0" cx="512" cy="512" r="440"/>
<g>
	<path class="st1" d="M952,512c0,58.4-11.3,114-31.9,165c-10.2,25.2-22.6,49.1-37.1,71.7c-4.5,7.1-9.2,14-14.2,20.8
		c-7.6,10.5-15.6,20.6-24,30.4c-1.5,1.7-3,3.4-4.5,5c-8.7,9.7-17.8,19-27.2,28c-0.7,0.7-1.5,1.4-2.2,2.1
		c-39,36.1-84.6,65.3-134.8,85.4C625.3,940.8,570,952,512,952c-90.8,0-175.2-27.5-245.2-74.7c-4.5-3-9-6.2-13.5-9.4
		c-23.3-17-44.9-36.2-64.4-57.3V132.7h546.3c3,1.8,6.1,3.6,9.1,5.5c7.7,4.8,15.2,9.8,22.6,15.1c4.5,3.2,9,6.5,13.4,9.9
		c2.6,2,5.2,4,7.8,6.1c0.2,0.1,0.3,0.3,0.5,0.4c4,3.3,8,6.6,12,10.1c2.3,2,4.6,4,6.9,6.1l0.3,0.3c1.2,1,2.4,2.1,3.5,3.2
		c0.6,0.6,1.2,1.1,1.8,1.7c6.7,6.2,13.1,12.7,19.4,19.3c19.6,20.8,37.2,43.5,52.5,67.9c4,6.3,7.8,12.7,11.4,19.3
		c6.2,11.1,12,22.6,17.3,34.3c0.8,1.9,1.7,3.7,2.5,5.6c0.7,1.7,1.5,3.4,2.2,5.1c3.2,7.5,6.1,15.2,8.8,22.8c4.8,13.7,9,27.7,12.5,42
		C947.7,440.9,952,475.9,952,512z"/>
	<path class="st2" d="M952,512c0,58.4-11.3,114-31.9,165c-10.2,25.2-22.6,49.1-37.1,71.7c-4.5,7.1-9.2,14-14.2,20.8
		c-7.6,10.5-15.6,20.6-24,30.4c-1.5,1.7-3,3.4-4.5,5c-8.7,9.7-17.8,19-27.2,28c-0.7,0.7-1.5,1.4-2.2,2.1
		c-39,36.1-84.6,65.3-134.8,85.4C625.3,940.8,570,952,512,952c-90.8,0-175.2-27.5-245.2-74.7V210.4h565.6
		c19.6,20.8,37.2,43.5,52.5,67.9c4,6.3,7.8,12.7,11.4,19.3c6.2,11.1,12,22.6,17.3,34.3c0.8,1.9,1.7,3.7,2.5,5.6
		c0.7,1.7,1.5,3.4,2.2,5.1c3.2,7.5,6.1,15.2,8.8,22.8c4.8,13.7,9,27.7,12.5,42C947.7,440.9,952,475.9,952,512z"/>
</g>
<g>
	<path class="st3" d="M791.4,670C721.3,740.1,645.5,775.3,576,791.1l0,0c-17.2,3.9-34.1,6.7-50.3,8.5c-16.3,1.8-32,2.7-47,2.8
		c0,0,0,0-0.1,0c-43.6,0.4-80.9-5.2-107.3-10.9c-26.4-5.7-41.8-11.5-41.8-11.5l0,0c-0.3-0.8-5.9-16.1-11.5-41.8
		c-5.7-26.4-11.3-63.6-10.9-107.3c0,0,0,0,0-0.1c0.3-29.9,3.4-62.9,11.3-97.3l0,0c15.9-69.5,51-145.3,121.1-215.4
		c35-35,71.5-61.4,107.9-80.9s72.7-32.3,107.5-40.2c0,0,0,0,0.1,0c17.2-3.9,34-6.7,50.3-8.5s32-2.7,47-2.8h0.1
		c86.2-0.8,147.5,21.8,149,22.4l0,0c0,0,5.8,15.5,11.5,41.8c5.7,26.4,11.3,63.6,10.9,107.3v0.1c-0.1,15-1,30.7-2.8,47
		s-4.6,33.1-8.5,50.3c0,0,0,0,0,0.1C896.6,524.2,861.5,600,791.4,670z"/>
	<path class="st4" d="M791.4,670C721.3,740.1,645.5,775.3,576,791.1l0,0c-17.2,3.9-34.1,6.7-50.3,8.5c-16.3,1.8-32,2.7-47,2.8
		c0,0,0,0-0.1,0c-43.6,0.4-80.9-5.2-107.3-10.9c-26.4-5.7-41.8-11.5-41.8-11.5l0,0l571.9-571.9l0,0c0,0,5.8,15.5,11.5,41.8
		c5.7,26.4,11.3,63.6,10.9,107.3v0.1c-0.1,15-1,30.7-2.8,47s-4.6,33.1-8.5,50.3c0,0,0,0,0,0.1C896.6,524.2,861.5,600,791.4,670z"/>
	<g>
		<path class="st1" d="M729.4,405.7L527.1,608c-7.1,7.1-18.5,7.1-25.6,0c-3.5-3.5-5.3-8.2-5.3-12.8s1.8-9.3,5.3-12.8l202.3-202.3
			c7.1-7.1,18.5-7.1,25.6,0c3.5,3.5,5.3,8.2,5.3,12.8C734.7,397.6,732.9,402.2,729.4,405.7z"/>
		<g>
			<path class="st1" d="M656.3,534.8c-7.1,7.1-18.5,7.1-25.6,0l-28-28v-0.1l-0.1,0.1l-28-28c-3.5-3.5-5.3-8.2-5.3-12.8
				c0-4.6,1.8-9.2,5.3-12.8c7.1-7.1,18.5-7.1,25.6,0l28,28l0,0h0.1l28,28c3.5,3.5,5.3,8.2,5.3,12.8
				C661.6,526.7,659.8,531.3,656.3,534.8z"/>
			<path class="st1" d="M592.9,598.2c-7.1,7.1-18.5,7.1-25.6,0l-28-28v-0.1l0,0l-0.1,0.1l-28-28c-3.5-3.5-5.3-8.2-5.3-12.8
				s1.8-9.3,5.3-12.8c7.1-7.1,18.5-7.1,25.6,0l28,28l0,0l0,0h0.1l28,28c3.5,3.5,5.3,8.2,5.3,12.8
				C598.2,590.1,596.4,594.7,592.9,598.2z"/>
			<path class="st1" d="M719.7,471.5L719.7,471.5c-7.1,7.1-18.5,7.1-25.6,0l-28-28v-0.1l-0.1,0.1l-28-28c-3.5-3.5-5.3-8.2-5.3-12.8
				c0-4.6,1.8-9.3,5.3-12.8c7.1-7.1,18.5-7.1,25.6,0l28,28h0.1l28,28C726.7,453,726.7,464.4,719.7,471.5z"/>
		</g>
		<path class="st5" d="M734.6,393c0-4.6-1.8-9.3-5.3-12.8L628.2,481.3l0,0l-25.5,25.5l0,0l-37.8,37.8h-0.1l-25.5,25.5v0.1L501.5,608
			c7.1,7.1,18.5,7.1,25.6,0l25-25l15.2,15.2c7.1,7.1,18.5,7.1,25.6,0c3.5-3.5,5.3-8.2,5.3-12.8s-1.8-9.2-5.3-12.8l-15.2-15.2
			l37.8-37.8l15.2,15.2c7.1,7.1,18.5,7.1,25.6,0c3.5-3.6,5.3-8.2,5.3-12.8c0-4.7-1.8-9.3-5.3-12.8L641.1,494l37.8-37.8l15.2,15.2
			c7.1,7.1,18.5,7.1,25.6,0c7-7.1,7-18.5,0-25.6l-15.2-15.2l25-24.9C732.9,402.2,734.7,397.6,734.6,393z"/>
	</g>
	<g>
		<path class="st6" d="M912.5,454.6L655,197.1c17.2-3.9,34-6.7,50.3-8.5s32-2.7,47-2.8h0.1l171.5,171.5v0.1c-0.1,15-1,30.7-2.8,47
			C919.2,420.5,916.4,437.4,912.5,454.6z"/>
		<path class="st6" d="M576,791.2c-17.2,3.9-34.1,6.7-50.3,8.5c-16.3,1.8-32,2.7-47,2.8c0,0,0,0-0.1,0L307.1,631c0,0,0,0,0-0.1
			c0.3-29.9,3.4-62.9,11.3-97.3L576,791.2z"/>
	</g>
	<path class="st7" d="M912.5,454.6L783.7,325.8l54.3-54.3l85.7,85.7v0.1c-0.1,15-1,30.7-2.8,47C919.2,420.5,916.4,437.4,912.5,454.6
		z"/>
	<path class="st7" d="M576,791.2c-17.2,3.9-34.1,6.7-50.3,8.5c-16.3,1.8-32,2.7-47,2.8c0,0,0,0-0.1,0l-85.8-85.8l54.3-54.3
		L576,791.2z"/>
</g>
<g>
	<path class="st8" d="M730.5,374.5c-3.3-2.5-7.1-4-11-4.4c-0.2,0-0.5-0.1-0.7-0.1c-0.3,0-0.7,0-1,0c-0.4,0-0.8-0.1-1.2-0.1
		c-0.2,0-0.4,0-0.6,0c-2.7,0.1-5.5,0.6-8.1,1.7c-0.1,0.1-0.2,0.1-0.4,0.2c-0.6,0.2-1.1,0.5-1.7,0.8c-0.1,0-0.1,0.1-0.2,0.1
		c-1.9,1-3.7,2.4-5.4,4L678.8,398l-11.7-11.7c-4.4-4.4-10.2-6.8-16.3-6.8s-12,2.4-16.3,6.8c-4.3,4.3-6.8,10.3-6.8,16.3
		c0,6.1,2.5,12,6.8,16.3l11.7,11.7l-30.7,30.7l-11.7-11.7c-9-9-23.7-9-32.7,0.1c-4.3,4.5-6.7,10.2-6.7,16.3c0,6.1,2.5,12,6.8,16.3
		l11.7,11.7L552,524.8l-11.7-11.7c-9-9-23.7-9-32.7,0c-4.3,4.3-6.8,10.3-6.8,16.3c0,6.1,2.5,12,6.8,16.3l11.7,11.7L498,578.9
		c-4.3,4.3-6.8,10.3-6.8,16.3s2.5,12,6.8,16.3c4.5,4.5,10.4,6.8,16.3,6.8c5.9,0,11.8-2.3,16.3-6.8l21.5-21.5l11.7,11.7
		c0.6,0.6,1.1,1.1,1.8,1.6c4.2,3.4,9.4,5.2,14.6,5.2c5.9,0,11.8-2.3,16.3-6.8c4.4-4.4,6.8-10.2,6.8-16.3c0-0.8,0-1.5-0.1-2.3
		c-0.5-5.3-2.9-10.3-6.7-14.1l-11.7-11.7l30.7-30.7l11.7,11.7c4.4,4.4,10.2,6.8,16.3,6.8s12-2.4,16.3-6.8c4.4-4.4,6.8-10.2,6.8-16.3
		s-2.5-12-6.8-16.3L648.2,494l30.7-30.7l11.7,11.7c4.5,4.5,10.4,6.8,16.3,6.8c5.9,0,11.9-2.3,16.4-6.8c8.9-9,8.9-23.6,0-32.6
		l-11.7-11.7l21.4-21.4c4.4-4.4,6.8-10.2,6.8-16.3c0-6.1-2.5-12-6.8-16.3C732.2,375.8,731.3,375.1,730.5,374.5z M725.9,402.2
		l-25,24.9c-2,2-2,5.1,0,7.1l15.2,15.2c5,5.1,5,13.5,0,18.6c-5.1,5.1-13.4,5.1-18.5,0l-15.2-15.2c-2-2-5.1-2-7.1,0l-37.8,37.8
		c-2,2-2,5.1,0,7.1l15.2,15.2c2.4,2.4,3.8,5.8,3.8,9.3s-1.4,6.8-3.8,9.3c-2.5,2.5-5.8,3.9-9.3,3.9s-6.8-1.4-9.3-3.9L619,516.1
		c-2-2-5.1-2-7.1,0l-37.8,37.8l0,0c-1.2,1.2-1.7,2.9-1.4,4.5c0.2,0.9,0.6,1.8,1.4,2.6l15.2,15.2c2.4,2.4,3.8,5.8,3.8,9.3
		s-1.4,6.8-3.8,9.3c-5.1,5.1-13.4,5.1-18.5,0l-15.2-15.2c-2-2-5.1-2-7.1,0l-25,25c-5.1,5.1-13.4,5.1-18.5,0
		c-2.4-2.4-3.8-5.8-3.8-9.3s1.4-6.8,3.8-9.3l24.9-25c2-2,2-5.1,0-7.1l-15.2-15.2c-2.4-2.4-3.8-5.8-3.8-9.3s1.4-6.8,3.8-9.3
		c2.5-2.5,5.8-3.9,9.3-3.9s6.8,1.4,9.3,3.9l15.2,15.2c2,2,5.1,2,7.1,0l37.8-37.8c2-2,2-5.1,0-7.1l-15.2-15.2
		c-2.4-2.4-3.8-5.8-3.8-9.3c0-3.4,1.4-6.7,3.8-9.3c5.1-5.1,13.4-5.1,18.5,0l15.2,15.2c0.4,0.4,0.8,0.7,1.3,0.9
		c0.7,0.4,1.5,0.6,2.3,0.6s1.6-0.2,2.3-0.6c0.5-0.2,0.9-0.5,1.3-0.9l37.8-37.8c2-2,2-5.1,0-7.1L641.5,412c-2.4-2.4-3.8-5.8-3.8-9.3
		s1.4-6.8,3.8-9.3c2.5-2.5,5.8-3.9,9.3-3.9s6.8,1.4,9.3,3.9l15.2,15.2c2,2,5.1,2,7.1,0l25-25c4.8-4.8,12.4-5.1,17.5-0.9
		c0.3,0.3,0.7,0.6,1,0.9c2.4,2.4,3.8,5.8,3.8,9.3C729.7,396.4,728.3,399.7,725.9,402.2z"/>
	<path class="st8" d="M928.8,356.3c0-0.1,0-0.2,0-0.3c0.2-36.1-3.5-72.1-11-107.1l0,0c-3-13.9-6-24.6-8-31.1
		c-2.2-7.2-3.7-11.2-3.7-11.3c-0.5-1.3-1.5-2.4-2.8-2.9c-0.3-0.1-35.4-13.4-90.5-19.6c-0.5-0.5-1-0.9-1.5-1.3l-0.1-0.1
		c-0.1-0.1-0.1-0.1-0.2-0.2c-2.4-2.2-4.7-4.2-7-6.2c-4.1-3.5-8.1-6.9-12.1-10.2l-0.1-0.1c-0.2-0.1-0.4-0.3-0.6-0.5
		c-2.6-2.1-5.2-4.1-7.7-6c-4.1-3.2-8.5-6.4-13.5-10c-7.4-5.3-14.9-10.3-22.8-15.3c-2.2-1.4-4.5-2.8-6.8-4.1c-0.8-0.5-1.6-1-2.4-1.5
		c-0.8-0.5-1.7-0.7-2.6-0.7H188.9c-2.8,0-5,2.2-5,5v677.9c0,1.3,0.5,2.5,1.3,3.4c19.6,21.2,41.5,40.7,65.1,57.9l0.1,0.1
		c4.4,3.1,9,6.4,13.5,9.4l0,0l0,0c0.2,0.2,0.5,0.3,0.8,0.4c0.1,0,0.2,0.1,0.2,0.1c0.2,0.1,0.4,0.1,0.6,0.2c0.1,0,0.2,0,0.2,0.1
		c0.3,0.1,0.6,0.1,0.9,0.1s0.6,0,0.9-0.1c0.1,0,0.1,0,0.2,0c0.3-0.1,0.5-0.1,0.8-0.2c0.1,0,0.1-0.1,0.2-0.1c0.2-0.1,0.5-0.2,0.7-0.4
		c0,0,0,0,0.1,0c0.2-0.2,0.5-0.3,0.7-0.5l0.1-0.1c0.2-0.2,0.4-0.4,0.5-0.6c0,0,0,0,0-0.1l0,0c0-0.1,0.1-0.1,0.1-0.2
		c0.1-0.2,0.3-0.5,0.4-0.7c0.1-0.1,0.1-0.3,0.1-0.5s0.1-0.3,0.1-0.5c0.1-0.3,0.1-0.5,0.1-0.8c0-0.1,0-0.1,0-0.2l0,0l0,0v-662h309.7
		c-12.4,5.2-24.6,11-36.4,17.4c-39,20.9-75.7,48.4-109.1,81.8c-33.2,33.2-60.7,69.9-81.8,109.1c-18.3,34.1-32,70.7-40.7,108.7
		c-0.5,2.3-1,4.5-1.4,6.6c-1.1,5.2-2.2,10.6-3.1,16.1c-0.6,3.4-1.1,6.6-1.6,9.5v0.1c-0.2,1-0.3,2-0.5,3l-0.8,5.6
		c-0.5,4.1-1,8.3-1.5,13.1l-0.3,3.1c-0.1,1.4-0.3,2.9-0.4,4.2c-0.1,0.9-0.2,1.8-0.2,2.7c-0.1,0.8-0.1,1.6-0.2,2.4
		c0,0.3,0,0.5-0.1,0.8c0,0.5-0.1,1-0.1,1.5l-0.3,5c-0.1,1.5-0.2,2.9-0.2,4.4c0,0.4,0,0.9-0.1,1.3v0.1c-0.1,1.8-0.2,3.7-0.2,5.7
		c0,0.3,0,0.7,0,1c0,0.2,0,0.4,0,0.6c0,0.7-0.1,1.5-0.1,2.2s0,1.3,0,1.9c0,0.7,0,1.4,0,2.2c0,0.1,0,0.2,0,0.2c0,1.7-0.1,3.3-0.1,5
		l0,0c0,0,0,0,0,0.1l0,0c-0.3,36.5,3.4,73,11,108.3c2.4,10.9,5,21.2,7.8,30.6c2.3,7.7,3.9,11.8,3.9,11.9c0.5,1.4,1.6,2.4,2.9,2.9
		c0.6,0.2,16,6,42.5,11.7c23.5,5.1,60.4,11,104,11c1.1,0,2.3,0,3.4,0c0.3,0.1,0.6,0.1,1,0.1h0.1c15.5-0.1,31.4-1.1,47.5-2.8
		c16.8-1.9,34-4.8,50.9-8.6c0.3-0.1,0.6-0.2,0.9-0.3c81.5-18.7,154.5-59.8,216.9-122.2c62.5-62.4,103.7-135.6,122.4-217.7
		c0-0.2,0.1-0.3,0.1-0.5c0.4-1.8,0.8-3.5,1.2-5.3c0.1-0.6,0.2-1.2,0.4-1.8c0.3-1.3,0.5-2.6,0.8-3.9c0.1-0.7,0.3-1.3,0.4-2
		c0.3-1.6,0.6-3.3,0.9-5c0-0.2,0.1-0.4,0.1-0.6s0.1-0.4,0.1-0.6c0.2-1,0.4-2.1,0.5-3.1c0.1-0.4,0.1-0.7,0.2-1.1c1.6-9,2.9-18,4-27.1
		c1.8-16.1,2.7-32.1,2.8-47.5v-0.1C928.9,357,928.9,356.6,928.8,356.3z M909.6,444.4c0,0.1,0,0.1,0,0.2L665,200
		c13.7-2.8,27.4-5,40.8-6.5c15.1-1.7,30-2.6,44.5-2.8l168.4,168.4c-0.2,14.5-1.1,29.5-2.7,44.5c-0.9,7.8-2,15.8-3.3,23.8
		C911.8,433.2,910.7,438.8,909.6,444.4z M900.2,220.6c1.9,6.4,4.9,16.8,7.8,30.4c6.6,30.8,10.2,62.4,10.7,94.1L764.4,190.7
		c15.1,0.2,30.4,1.2,45.5,2.9c46.6,5.1,79.2,15.6,87.5,18.4C898.1,213.8,899.1,216.7,900.2,220.6z M266.8,205.4c-2.8,0-5,2.2-5,5
		v657.4c-1.9-1.3-3.7-2.6-5.6-3.9c-22.5-16.4-43.5-35-62.3-55.2v-671h539.9c0.4,0.3,0.8,0.5,1.3,0.8c2.2,1.3,4.4,2.6,6.6,4
		c7.8,4.9,15.1,9.7,22.3,14.9c4.9,3.5,9.2,6.7,13.2,9.8c2.5,1.9,5.1,3.9,7.7,6c0,0,0.1,0,0.1,0.1c0.1,0.1,0.3,0.3,0.6,0.5
		c3.3,2.7,6.7,5.6,10.1,8.5c-14.5-1.1-29-1.7-43.3-1.5h-0.1c-15.5,0.1-31.4,1.1-47.5,2.8c-16.6,1.8-33.6,4.7-50.5,8.5
		c-0.2,0-0.3,0-0.5,0.1c-15.7,3.6-31.3,8-46.3,13.3H266.8V205.4z M549.7,791.2c-8.2,1.4-16.4,2.5-24.5,3.4
		c-15.1,1.7-30.1,2.6-44.6,2.7L312.1,629c0-0.7,0-1.5,0-2.2c0-0.5,0-0.9,0-1.4c0-0.8,0-1.7,0.1-2.5c0-1.4,0.1-2.8,0.1-4.1
		c0-0.4,0-0.8,0-1.2c0.1-1.6,0.1-3.3,0.2-4.9l0,0c1.2-23.5,4.1-46.6,8.7-69l244.6,244.6C560.5,789.3,555.1,790.3,549.7,791.2z
		 M333.4,776.1c-0.6-1.9-1.7-4.9-2.9-9.1c-1.9-6.3-4.8-16.7-7.6-29.9c-6.6-30.7-10.2-62.2-10.7-94l154.2,154.2
		c-39.3-0.7-72.4-6.1-94-10.7C352.2,782.3,338.5,777.8,333.4,776.1z M787.9,666.5c-60.6,60.6-131.4,100.7-210.4,119.1L323.9,532
		c8.5-36.2,21.7-71.1,39.1-103.6c20.5-38.3,47.5-74.2,80-106.7c32.7-32.7,68.6-59.6,106.7-80c19.4-10.4,39.6-19.3,60.2-26.5
		c14.1-4.9,28.7-9.2,43.4-12.6L907,456.2C888.4,535.4,848.3,606.1,787.9,666.5z"/>
</g>
<path class="st6" d="M445.5,76.5c-1.2-11,6.8-20.8,17.8-22c16-1.7,32.4-2.5,48.6-2.5C574,52,634.2,64.2,691,88.2
	c54.8,23.2,104,56.3,146.2,98.6c2.2,2.2,4.4,4.4,6.5,6.6c-18.7-3.4-41.3-6.3-66.7-7.3c-30.8-25.1-64.8-45.6-101.5-61.1
	C623.7,103.1,568.7,92,512,92c-14.8,0-29.8,0.8-44.5,2.3C456.5,95.5,446.7,87.5,445.5,76.5z"/>
<path class="st6" d="M972,512.1c0,62.1-12.2,122.3-36.2,179.1c-23.2,54.8-56.3,104-98.6,146.2C795,879.6,745.8,912.8,691,936
	c-56.7,23.8-116.9,36-179,36s-122.3-12.2-179.1-36.2c-54.8-23.2-104-56.3-146.2-98.6C144.5,795,111.3,745.8,88.1,691
	C64.2,634.3,52,574.1,52,512c0-43.6,6.1-86.8,18.2-128.4C73.3,373,84.4,366.9,95,370s16.7,14.2,13.6,24.8
	C97.6,432.7,92,472.1,92,512c0,56.7,11.1,111.7,33,163.5c21.2,50,51.4,94.9,90,133.5s83.5,68.9,133.5,90
	c51.8,21.9,106.8,33,163.5,33s111.7-11.1,163.5-33c50-21.2,94.9-51.4,133.5-90s68.9-83.5,90-133.5c21.9-51.8,33-106.8,33-163.5
	c0-34-4-67.4-11.9-99.9c0.3-2.6,0.6-5.2,0.9-7.8c1.8-16.3,2.7-32,2.8-47v-0.1c0.2-20-0.9-38.6-2.6-55.5
	c5.3,10.2,10.1,20.6,14.6,31.3C959.8,389.7,972,450,972,512.1z"/>
</svg>
