<?xml version="1.0" encoding="utf-8"?>
<!-- Generator: Adobe Illustrator 24.0.0, SVG Export Plug-In . SVG Version: 6.00 Build 0)  -->
<svg version="1.1" id="Capa_1" xmlns="http://www.w3.org/2000/svg" xmlns:xlink="http://www.w3.org/1999/xlink" x="0px" y="0px"
	 viewBox="0 0 1024 1024" style="enable-background:new 0 0 1024 1024;" xml:space="preserve">
<style type="text/css">
	.st0{fill:#A5C6FF;}
	.st1{fill:#C640A6;}
	.st2{fill:#F9F7FC;}
	.st3{fill:#84BFA7;}
	.st4{fill:#B5289B;}
	.st5{fill:#F473C3;}
	.st6{fill:#FFFFFF;}
	.st7{fill:#DCDAEB;}
	.st8{fill:#9DD4A9;}
	.st9{fill:#FFD071;}
	.st10{fill:#767DD4;}
	.st11{fill:#F9B630;}
	.st12{fill:#83B5FC;}
	.st13{fill:#6EA7ED;}
	.st14{fill:#443F80;}
</style>
<g>
	<circle class="st0" cx="512" cy="512" r="440"/>
	<g>
		<g>
			<path class="st1" d="M866.5,550.9c-9.7,4.8-20.5,12.4-31.1,24c-1.9,2-3.7,4.3-5.5,6.5c-0.6,0.8-1.2,1.5-1.8,2.4
				c-1,1.2-1.8,2.5-2.7,3.7c-0.6,0.8-1.2,1.7-1.8,2.6c-0.3,0.4-0.6,0.8-0.9,1.3c-0.6,0.9-1.1,1.8-1.7,2.7c-1.2,1.9-2.3,3.8-3.4,5.8
				c-0.5,1-1.1,2-1.7,3.1c-0.2,0.4-0.4,0.7-0.6,1.1c-2,3.8-4,7.9-5.9,12.2l-31.5,71.5l-604.1-266L300.1,135
				c6.5-14.8,23.8-21.6,38.7-15.1l36,15.8c17.2,7.6,29.2,23.8,31.1,42.5c0.6,6.2,2.7,13,5,19.2c4.6,12.2,14,22,25.9,27.3l47,20.7
				c7.4,3.3,15.3,5.3,23.1,6c11.6,1.1,23.4-0.4,34.4-4.7l23.5-9.1c10.3-4,21.8-3.8,31.8,0.7l19,8.8c8.7,4,16.3,9.9,22.4,17.1
				c1.3,1.6,2.5,3.2,3.7,4.9c6,8.5,14.3,20.5,24.1,34.5c4.2,6,8.8,12.5,13.6,19.3c9.4,13.3,19.8,27.8,30.5,42.8
				c4.6,6.4,9.3,12.9,14.1,19.4c10.3,14.1,20.6,28.3,31,42c4.8,6.5,9.6,12.7,14.3,19c29.7,39.1,56.1,71.6,69.5,82.2L866.5,550.9z"/>
			<path class="st2" d="M917.8,756.5c-12.3,28-45.1,40.8-73.2,28.4L152.2,480.1c-12.2-5.4-17.7-19.5-12.3-31.6l5.2-11.9
				c5.6-12.7,20.5-18.4,33-12.8l736.2,324.1c1.6,0.7,2.8,2,3.4,3.6C918.5,753,918.5,754.8,917.8,756.5z"/>
			<path class="st3" d="M880.8,562.4l-14.4-11.6c-18.2,9.1-40.6,27.7-57.2,65.4l-31.4,71.4l128,56.3l12.3-27.9
				C941.8,662.2,926.5,599.4,880.8,562.4L880.8,562.4z"/>
			<path class="st4" d="M866.5,550.9c-9.7,4.8-20.5,12.4-31.1,24c-1.9,2-3.7,4.3-5.5,6.5c-0.6,0.8-1.2,1.5-1.8,2.4
				c-1,1.2-1.8,2.5-2.7,3.7c-0.6,0.8-1.2,1.7-1.8,2.6c-0.3,0.4-0.6,0.8-0.9,1.3c-0.6,0.9-1.1,1.8-1.7,2.7c-1.2,1.9-2.3,3.8-3.4,5.8
				c-0.5,1-1.1,2-1.7,3.1c-0.2,0.4-0.4,0.7-0.6,1.1c-2,3.8-4,7.9-5.9,12.2l-31.5,71.5L504.4,567.4l133.5-303.2
				c1.3,1.6,2.5,3.2,3.7,4.9c6,8.5,14.3,20.5,24.1,34.5c4.2,6,8.8,12.5,13.6,19.3c9.4,13.3,19.8,27.8,30.5,42.8
				c4.6,6.4,9.3,12.9,14.1,19.4c10.3,14.1,20.6,28.3,31,42c4.8,6.5,9.6,12.7,14.3,19c29.7,39.1,56.1,71.6,69.5,82.2L866.5,550.9z"/>
			<path class="st5" d="M866.5,550.9c-9.7,4.8-20.5,12.4-31.1,24c-1.9,2-3.7,4.3-5.5,6.5c-0.6,0.8-1.2,1.5-1.8,2.4
				c-1,1.2-1.8,2.5-2.7,3.7c-0.6,0.8-1.2,1.7-1.8,2.6c-0.3,0.4-0.6,0.8-0.9,1.3c-0.6,0.9-1.1,1.8-1.7,2.7c-1.2,1.9-2.3,3.8-3.4,5.8
				c-0.5,1-1.1,2-1.7,3.1c-0.2,0.4-0.4,0.7-0.6,1.1L597.6,355.5l-90.9-103.9c11.6,1.1,23.4-0.4,34.4-4.7l23.5-9.1
				c10.3-4,21.8-3.8,31.8,0.7l19,8.8c8.6,4,16.3,9.8,22.4,17.1c1.3,1.6,2.6,3.2,3.8,4.9c6,8.5,14.3,20.5,24.1,34.5
				c4.2,6,8.8,12.5,13.6,19.3c9.4,13.3,19.8,27.8,30.5,42.8c4.6,6.4,9.3,12.9,14.1,19.4c10.3,14.1,20.6,28.3,31,42
				c4.8,6.5,9.6,12.7,14.3,19c29.7,39.1,56.1,71.6,69.5,82.2L866.5,550.9z"/>
			<path class="st1" d="M866.5,550.9c-9.7,4.8-20.5,12.4-31.1,24c-1.9,2-3.7,4.3-5.5,6.5c-0.6,0.8-1.2,1.5-1.8,2.4
				c-1,1.2-1.8,2.5-2.7,3.7c-0.6,0.8-1.2,1.7-1.8,2.6c-0.3,0.4-0.6,0.8-0.9,1.3c-0.6,0.9-1.1,1.8-1.7,2.7c-1.2,1.9-2.3,3.8-3.4,5.8
				c-0.5,1-1.1,2-1.7,3.1c-0.2,0.4-0.4,0.7-0.6,1.1L597.6,355.5l40.2-91.2c1.3,1.6,2.6,3.2,3.8,4.9c6,8.5,14.3,20.5,24.1,34.5
				c4.2,6,8.8,12.5,13.6,19.3c9.4,13.3,19.8,27.8,30.5,42.8c4.6,6.4,9.3,12.9,14.1,19.4c10.3,14.1,20.6,28.3,31,42
				c4.8,6.5,9.6,12.7,14.3,19c29.7,39.1,56.1,71.6,69.5,82.2L866.5,550.9z"/>
			<g>
				<path class="st6" d="M723.2,386.4l-53.4,20.7c-3.1,1.3-6.4,1-9.2-0.2s-5.2-3.6-6.4-6.6c-2.4-6.2,0.7-13.2,6.9-15.7l47.6-18.6
					L723.2,386.4z"/>
				<path class="st7" d="M721.1,386.9l-51.4,20c-6.1,2.4-12.9-0.7-15.4-6.8l0,0c-2.4-6.1,0.7-12.9,6.8-15.4l51.4-20
					c6.1-2.4,12.9,0.7,15.4,6.8l0,0C730.2,377.6,727.2,384.4,721.1,386.9z"/>
				<path class="st7" d="M675.7,325.3l-51.4,20c-6.1,2.4-12.9-0.7-15.4-6.8l0,0c-2.4-6.1,0.7-12.9,6.8-15.4l51.4-20
					c6.1-2.4,12.9,0.7,15.4,6.8l0,0C684.8,315.9,681.7,322.9,675.7,325.3z"/>
				<path class="st7" d="M765.4,448.7l-51.4,20c-6.1,2.4-12.9-0.7-15.4-6.8l0,0c-2.4-6.1,0.7-12.9,6.8-15.4l51.4-20
					c6.1-2.4,12.9,0.7,15.4,6.8l0,0C774.6,439.4,771.6,446.2,765.4,448.7z"/>
			</g>
			<path class="st8" d="M366.5,136.3c-16.6,37.7-54.1,59.6-92.8,58.2l26.2-59.6c6.5-14.8,23.8-21.6,38.7-15.1l29.4,12.9
				C367.4,134,367,135.2,366.5,136.3z"/>
			<path class="st9" d="M667.7,639.2l-494-217.5l84.9-192.9c118,54.2,217.4,132.7,294.9,227C599.6,511.9,637.9,573.7,667.7,639.2z"
				/>
			<path class="st10" d="M451.6,544l-278-122.4L241.2,268h0.1C358.4,319.7,434.2,426.2,451.6,544z"/>
			<path class="st8" d="M292.1,153.6c0.7-3.7,3.1-22.7-18-32c-0.1,0-0.2-0.1-0.4-0.2c-10.1-4.4-14.6-16.2-10.3-26.3
				c4.3-10.1,16.1-14.8,26.3-10.4c0.2,0.1,0.3,0.1,0.5,0.2c41.6,18.3,45.1,58.2,41.1,76.7l-39.1-8.5L292.1,153.6z"/>
			<path class="st7" d="M917.8,756.5c-12.3,28-45.1,40.8-73.2,28.4L479.4,624.1l25-56.7l410.1,180.5c1.6,0.7,2.8,2,3.4,3.6
				C918.5,753,918.5,754.8,917.8,756.5z"/>
			<path class="st11" d="M667.7,639.2l-163.3-71.9l49.1-111.5C599.6,511.9,637.9,573.7,667.7,639.2z"/>
		</g>
	</g>
	<g>
		<path class="st12" d="M656,750.8c0,11-9,20-20,20H156.2c-9.4-12.8-18-26.2-26-40H636C647,730.8,656,739.8,656,750.8z"/>
		<path class="st12" d="M415.1,654.3c0,11-9,20-20,20H102.9c-5.2-13-9.8-26.4-13.7-40c0.3,0,0.7,0,1,0h304.9
			C406.2,634.3,415.1,643.3,415.1,654.3z"/>
		<path class="st12" d="M76.9,577.8h105.6c11,0,20-9,20-20s-9-20-20-20H72.8L76.9,577.8z"/>
		<path class="st13" d="M656,750.8c0,11-9,20-20,20H417.1l17.6-40H636C647,730.8,656,739.8,656,750.8z"/>
	</g>
</g>
<g>
	<path class="st14" d="M952,532c-11,0-20-9-20-20c0-56.7-11.1-111.7-33-163.5c-21.2-50-51.4-94.9-90-133.5s-83.5-68.9-133.5-90
		C623.7,103.1,568.7,92,512,92c-21.6,0-43.2,1.6-64.4,4.9c-10.9,1.7-21.1-5.8-22.8-16.7c-1.7-10.9,5.8-21.1,16.7-22.8
		c23.2-3.6,46.9-5.4,70.5-5.4c62.1,0,122.3,12.2,179.1,36.2c54.8,23.2,104,56.3,146.2,98.6c42.2,42.2,75.4,91.4,98.6,146.2
		c24,56.7,36.2,117,36.2,179.1C972,523,963,532,952,532z"/>
	<path class="st14" d="M512,972c-62.1,0-122.3-12.2-179.1-36.2c-54.8-23.2-104-56.3-146.2-98.6c-42.2-42.2-75.4-91.4-98.6-146.2
		C64.2,634.3,52,574.1,52,512c0-113.5,41.7-222.5,117.4-306.9c7.4-8.2,20-8.9,28.2-1.5c8.2,7.4,8.9,20,1.5,28.2
		C130,308.9,92,408.4,92,512c0,56.7,11.1,111.7,33,163.5c21.2,50,51.4,94.9,90,133.5s83.5,68.9,133.5,90
		c51.8,21.9,106.8,33,163.5,33c48.5,0,96-8.2,141.2-24.3c43.7-15.6,84.3-38.3,120.7-67.4c8.6-6.9,21.2-5.5,28.1,3.1
		c6.9,8.6,5.5,21.2-3.1,28.1c-39.9,31.9-84.4,56.7-132.3,73.8C617.1,963,565.1,972,512,972z"/>
	<path class="st6" d="M916.3,743.3l-4-1.8l10.4-23.5c12.1-27.4,14.7-57.2,7.7-86.3c-7.1-29-23.1-54.3-46.4-73.2c0,0,0,0,0,0
		l-14.4-11.6c0,0-0.1-0.1-0.2-0.1l-27.5-22.4c-11.1-8.8-33.4-35.1-66.2-78.2c2.6-4.3,3.2-9.7,1.2-14.8c-3.3-8-12-12.3-20-10.2
		c-8.6-11.4-17.3-23.3-25.7-34.8l-0.7-0.9c3.2-4.5,4.1-10.3,2.1-15.8c0,0,0-0.1-0.1-0.1c-3.4-8.3-12.5-12.5-20.8-9.9
		c-2.2-3.1-4.5-6.2-6.7-9.3c-6.8-9.5-13.3-18.6-19.4-27.3c2.7-4.4,3.5-9.9,1.5-15c0,0,0-0.1,0-0.1c-3.2-7.8-11.5-12-19.3-10.3
		c-3.5-5-6.7-9.6-9.7-14c-4.7-6.8-8.9-12.7-12.2-17.5c-1.3-1.9-2.6-3.6-3.9-5.2c0,0,0-0.1-0.1-0.1c-6.6-7.8-15-14.2-24.1-18.4
		l-19-8.8c-11.1-5-24.1-5.3-35.7-0.8l-23.5,9.1c-10,3.9-21.1,5.4-32.1,4.4c-7.4-0.7-14.8-2.6-21.5-5.6l-47-20.7
		c-10.7-4.8-19.2-13.7-23.2-24.5c-2.7-7.3-4.2-13.2-4.7-18c-2.1-20.4-15.1-38.2-34.1-46.6l-6.6-2.9c-0.1,0-0.1-0.1-0.2-0.1
		l-29.4-12.9c-3.9-1.7-8.1-2.7-12.3-2.8c-0.1-0.2-0.2-0.4-0.3-0.6c-7.8-13.8-19.8-24.4-35.7-31.4c-0.3-0.1-0.5-0.2-0.6-0.3
		c-6.2-2.7-13-2.7-19.2-0.3c-6.2,2.5-11,7.2-13.6,13.3c-5.3,12.6,0.3,27.2,12.6,32.7c0.2,0.1,0.5,0.3,0.9,0.4
		c5.2,2.3,9.1,5.5,11.6,9.5c3.6,5.6,3.8,11.6,3.4,15l-18.3,41.7c-0.2,0.4-0.3,0.8-0.4,1.3l-14.1,32c-0.3,0.3-0.5,0.7-0.7,1.1
		L237.2,265c-0.2,0.3-0.4,0.6-0.6,0.9l-66.3,150.7c-4.4-0.3-8.8,0.3-13,1.9c-7.5,2.9-13.5,8.6-16.7,15.9l-5.2,11.9
		c-3.1,7-3.3,14.9-0.6,22.1c2.8,7.3,8.3,13,15.4,16.2l692.4,304.8c7.8,3.5,16.1,5.2,24.4,5.2c7.4,0,14.8-1.4,21.9-4.1
		c15.1-5.9,27-17.2,33.4-32c0,0,0-0.1,0-0.1c1.2-3,1.2-6.2-0.2-9C921.1,746.7,919,744.5,916.3,743.3z M542.9,251.6l23.5-9.1
		c9.1-3.5,19.3-3.3,27.9,0.6l19,8.8c8,3.7,15.2,9.2,20.6,15.7c1.3,1.6,2.5,3.1,3.6,4.6c3.4,4.8,7.5,10.7,12.2,17.5
		c2.5,3.6,5.3,7.6,8.1,11.6l-44.1,17.1c-8.6,3.5-12.9,13.3-9.5,21.9c2.7,6.6,9.1,10.7,15.8,10.7c2,0,4-0.4,6-1.1l51.4-20
		c0,0,0,0,0,0c0.1,0,0.2-0.1,0.3-0.2c6.2,8.8,12.8,18,19.8,27.7l4.2,5.8L659.2,380c-8.7,3.5-13.1,13.4-9.7,22.2
		c1.7,4.2,5,7.6,9.1,9.3c2.3,1,4.6,1.5,6.9,1.5c2.1,0,4.2-0.4,6.1-1.2l50.9-19.7l1.8,2.5c7.4,10.1,14.9,20.4,22.5,30.5l-43.4,16.9
		c-6.3,2.6-10.2,8.5-10.6,14.8l-91.5-104.5l-83.4-95.4C526.5,256.4,535,254.6,542.9,251.6z M767.2,453.4
		C767.2,453.4,767.3,453.3,767.2,453.4c0.3-0.1,0.6-0.3,0.8-0.4c33.5,44,55.7,70,67.6,79.4l21.9,17.6c-13.3,8-29.3,21.8-43.2,45.3
		L708.4,474.4c0.5,0,0.9,0.1,1.4,0.1c2,0,4-0.4,6-1.1L767.2,453.4z M180.4,419.1L244,274.7c53.7,24.7,100.6,62.4,135.8,109.5
		c33.3,44.5,55.8,96.8,65.4,151.5L180.4,419.1z M456.1,540.6c-9.1-58.7-32.7-114.8-68.3-162.4c-36.2-48.4-84.5-87.3-139.8-112.7
		l13.2-30c55.8,26.1,108.6,58.2,156.9,95.7c48.3,37.5,92.6,80.4,131.5,127.8c42.7,51.9,78.9,109.2,107.9,170.3L456.1,540.6z
		 M920.6,634.1c6.5,26.9,4.1,54.5-7.1,79.9l-10.3,23.3l-118.7-52.2l29.4-66.8c1.8-4,3.7-8,5.8-12c0.1-0.1,0.1-0.2,0.2-0.3
		c0.1-0.2,0.3-0.5,0.4-0.7c0.2-0.4,0.4-0.7,0.6-1c0.3-0.5,0.5-1,0.8-1.4c0.1-0.2,0.2-0.4,0.3-0.6c0.5-1,1-1.8,1.5-2.7
		c0-0.1,0.1-0.1,0.1-0.2c0.5-0.9,1-1.7,1.5-2.5c0.3-0.5,0.6-1,0.9-1.5c0.2-0.4,0.5-0.8,0.7-1.2c0-0.1,0.1-0.1,0.1-0.2
		c0.2-0.3,0.4-0.5,0.6-0.9c0.1-0.1,0.1-0.2,0.2-0.3c0.6-0.8,1.1-1.6,1.6-2.3c0.4-0.5,0.7-1,1.1-1.6c0.5-0.7,0.9-1.4,1.4-1.9
		c0.1-0.1,0.2-0.3,0.3-0.4c0.3-0.4,0.6-0.8,1-1.3c0.2-0.3,0.4-0.5,0.6-0.8l1-1.2c1.4-1.8,2.8-3.5,4.3-5c8.3-9.1,17.3-16.3,26.8-21.4
		l11.7,9.5C899.2,583.8,914.1,607.2,920.6,634.1z M767.5,435.1c1.4,3.5-0.4,7.4-4,8.9l-51.4,20c-3.5,1.4-7.4-0.4-8.9-4
		c-1.4-3.5,0.4-7.4,4-8.9l51.4-20c0.8-0.3,1.6-0.5,2.5-0.5C763.8,430.7,766.4,432.4,767.5,435.1z M723.2,373.3
		c1.3,3.5-0.5,7.5-4,8.9l-51.4,20c-3.5,1.4-7.4-0.4-8.9-4c-1.4-3.5,0.4-7.4,4-8.9l47.6-18.5c0,0,0,0,0,0l1.3-0.5c0,0,0,0,0,0l2.5-1
		c0.8-0.3,1.6-0.5,2.5-0.5C719.5,368.9,722.1,370.6,723.2,373.3z M677.9,311.7c1.3,3.4-0.5,7.5-4,8.9l-51.4,20
		c-3.5,1.4-7.4-0.4-8.9-4c-1.4-3.5,0.4-7.4,4-8.9l51.4-20c0.8-0.3,1.6-0.5,2.5-0.5C674.1,307.3,676.7,309,677.9,311.7z M400.9,178.7
		c0.6,5.7,2.2,12.2,5.3,20.5c5,13.3,15.4,24.3,28.6,30.1l47,20.7c7,3.1,14.6,5.2,22.2,6.1l89.8,102.7l215.3,245.9
		c-1.5,3-3.1,6.2-4.5,9.5l-29.4,67l-103.7-45.7c-30.1-65.8-68.5-127.3-114.1-182.9c-39.4-47.9-84.1-91.4-133.1-129.3
		c-48.9-37.9-102.4-70.5-159-96.9l11.8-26.9c0.1,0,0.1,0,0.2,0c40.4,0,76.6-23.3,93.3-60.2l2.2,1
		C388.4,147.2,399.2,161.9,400.9,178.7z M304.7,137c3.7-8.5,11.7-14,21-14.5c3.8-0.2,7.6,0.5,11.1,2l24.7,10.8
		c-14.5,32-45.3,52.6-79.9,54.1L304.7,137z M276.1,117c-0.1,0-0.1-0.1-0.2-0.1c-0.1,0-0.2-0.1-0.2-0.1c-7.5-3.3-10.9-12.1-7.7-19.8
		c1.5-3.6,4.4-6.5,8.1-7.9c3.7-1.5,7.8-1.4,11.5,0.1c0.2,0.1,0.4,0.2,0.6,0.2c12.7,5.6,22.6,13.8,29.3,24.3
		c-9.7,2.8-17.8,9.7-22,19.2l-0.8,1.8c-0.6-1.4-1.4-2.9-2.3-4.4C288.8,124.7,283.3,120.2,276.1,117z M913.2,754.6
		c-5.4,12.3-15.3,21.8-27.9,26.6c-12.6,4.9-26.3,4.6-38.7-0.9L154.2,475.5c-4.7-2.1-8.3-5.9-10.1-10.6c-1.8-4.7-1.7-9.8,0.4-14.4
		l5.2-11.9c2.2-4.9,6.1-8.7,11.2-10.6c2.3-0.9,4.8-1.3,7.2-1.3c2.7,0,5.5,0.6,8.1,1.7l711.9,313.4c0,0,0,0,0,0l24.3,10.7
		c0.4,0.2,0.6,0.5,0.7,0.8c0.1,0.2,0.2,0.4,0.3,0.6C913.3,753.9,913.3,754.2,913.2,754.6z"/>
</g>
</svg>
