<?xml version="1.0" encoding="utf-8"?>
<!-- Generator: Adobe Illustrator 24.0.0, SVG Export Plug-In . SVG Version: 6.00 Build 0)  -->
<svg version="1.1" id="Capa_1" xmlns="http://www.w3.org/2000/svg" xmlns:xlink="http://www.w3.org/1999/xlink" x="0px" y="0px"
	 viewBox="0 0 1024 1024" style="enable-background:new 0 0 1024 1024;" xml:space="preserve">
<style type="text/css">
	.st0{fill:#BAE4FA;}
	.st1{fill:#534A9A;}
	.st2{fill:#A5C6FF;}
	.st3{fill:#F9F7FC;}
	.st4{fill:#767DD4;}
	.st5{fill:#FFD071;}
	.st6{fill:#5E6ACA;}
	.st7{fill:#FFFFFF;}
</style>
<g>
	<circle class="st0" cx="512" cy="512" r="440"/>
	<g>
		<path class="st1" d="M952,512c0,58.4-11.3,114-31.9,165c-10.2,25.2-22.6,49.1-37.1,71.7c-4.5,7.1-9.2,14-14.2,20.8
			c-7.6,10.5-15.6,20.6-24,30.4c-1.5,1.7-3,3.4-4.5,5c-8.7,9.7-17.8,19-27.2,28c-0.7,0.7-1.5,1.4-2.2,2.1
			c-39,36.1-84.6,65.3-134.8,85.4C625.3,940.8,570,952,512,952c-90.8,0-175.2-27.5-245.2-74.7c-4.5-3-9-6.2-13.5-9.4
			c-23.3-17-44.9-36.2-64.4-57.3V132.7h546.3c3,1.8,6.1,3.6,9.1,5.5c7.7,4.8,15.2,9.8,22.6,15.1c4.5,3.2,9,6.5,13.4,9.9
			c2.6,2,5.2,4,7.8,6.1c0.2,0.1,0.3,0.3,0.5,0.4c4,3.3,8,6.6,12,10.1c2.3,2,4.6,4,6.9,6.1l0.3,0.3c1.2,1,2.4,2.1,3.5,3.2
			c0.6,0.6,1.2,1.1,1.8,1.7c6.7,6.2,13.1,12.7,19.4,19.3c19.6,20.8,37.2,43.5,52.5,67.9c4,6.3,7.8,12.7,11.4,19.3
			c6.2,11.1,12,22.6,17.3,34.3c0.8,1.9,1.7,3.7,2.5,5.6c0.7,1.7,1.5,3.4,2.2,5.1c3.2,7.5,6.1,15.2,8.8,22.8c4.8,13.7,9,27.7,12.5,42
			C947.7,440.9,952,475.9,952,512z"/>
		<path class="st2" d="M952,512c0,58.4-11.3,114-31.9,165c-10.2,25.2-22.6,49.1-37.1,71.7c-4.5,7.1-9.2,14-14.2,20.8
			c-7.6,10.5-15.6,20.6-24,30.4c-1.5,1.7-3,3.4-4.5,5c-8.7,9.7-17.8,19-27.2,28c-0.7,0.7-1.5,1.4-2.2,2.1
			c-39,36.1-84.6,65.3-134.8,85.4C625.3,940.8,570,952,512,952c-90.8,0-175.2-27.5-245.2-74.7V210.4h565.6
			c19.6,20.8,37.2,43.5,52.5,67.9c4,6.3,7.8,12.7,11.4,19.3c6.2,11.1,12,22.6,17.3,34.3c0.8,1.9,1.7,3.7,2.5,5.6
			c0.7,1.7,1.5,3.4,2.2,5.1c3.2,7.5,6.1,15.2,8.8,22.8c4.8,13.7,9,27.7,12.5,42C947.7,440.9,952,475.9,952,512z"/>
	</g>
	<g>
		<path class="st3" d="M928.9,464.1c0,10.7-0.6,21.2-1.6,31.5c-4.5,43.5-18.2,84.3-39.1,120.4c-7.5,13-15.9,25.3-25.2,37
			c-34,42.8-79.3,76.1-131.5,95.6c-13.9,5.2-28.2,9.4-43,12.5c-20.4,4.3-41.6,6.6-63.3,6.6s-42.8-2.3-63.2-6.6
			c-14.8-3.1-29.1-7.3-43-12.5c-52.1-19.4-97.4-52.8-131.5-95.5c-9.3-11.7-17.7-24-25.2-37c-20.9-36.1-34.6-76.9-39.1-120.5
			c-1.1-10.4-1.6-20.9-1.6-31.6c0-4.4,0.1-8.8,0.3-13.1c2.4-57,20.6-110,50.2-154.6c8.3-12.5,17.4-24.3,27.4-35.4
			c28.3-31.5,63.2-57,102.4-74.4c13.5-6,27.6-11.1,42.1-15.1c25.9-7.2,53.1-11,81.2-11c28.2,0,55.5,3.8,81.4,11
			c14.5,4,28.6,9.1,42.1,15.1c39.2,17.5,73.9,43,102.2,74.4c10,11.1,19.2,22.9,27.4,35.4c29.6,44.6,47.7,97.5,50.1,154.4
			C928.8,455.2,928.9,459.7,928.9,464.1z"/>
		<path class="st4" d="M625.4,347.8l-113.9,82.7L555,564.4h140.8l43.5-133.9L625.4,347.8z"/>
		<g>
			<g>
				<path class="st5" d="M730.3,179.1l-104.9,76.2l-104.9-76.2c32.7-12,68-18.6,104.9-18.6C662.3,160.4,697.6,167,730.3,179.1z"/>
				<g>
					<path class="st5" d="M426.8,399.6L322,475.7c-0.2-3.8-0.3-7.7-0.3-11.6c0-70.9,24.3-136.1,65-187.8L426.8,399.6z"/>
					<path class="st5" d="M542.7,756.4c-70.2-19.8-130.1-64.2-169.7-123.3h129.6L542.7,756.4z"/>
					<path class="st5" d="M877.7,633c-39.6,59.1-99.5,103.5-169.7,123.3L748.1,633H877.7z"/>
				</g>
				<path class="st5" d="M929.1,464.1c0,3.9-0.1,7.8-0.3,11.6L824,399.6l40-123.3C904.8,328,929.1,393.2,929.1,464.1L929.1,464.1z"
					/>
			</g>
		</g>
		<path class="st6" d="M928.6,450.8L847.5,392l31-95.5c-8.3-12.5-17.4-24.3-27.4-35.4c-2.7,2.3-4.9,5.4-6.1,9.1l-37,114l-65.5,23.9
			l-97-70.5v-72.1l96.6-70.2c3.1-2.3,5.4-5.3,6.8-8.6c-13.5-6-27.6-11.1-42.1-15.1l-81.3,59l-81.3-59.1c-14.5,4-28.6,9.1-42.1,15.1
			c1.3,3.4,3.6,6.4,6.8,8.7l96.7,70.2v72.1l-97,70.5l-65.5-23.9l-37.1-114c-1.2-3.7-3.4-6.8-6.1-9.1c-10,11.1-19.1,22.9-27.4,35.4
			l31.1,95.6L322,451c-0.2,4.3-0.3,8.7-0.3,13.1c0,10.7,0.5,21.2,1.6,31.6c3.6-0.2,7.2-1.5,10.4-3.8l96.2-69.8l65.5,23.9l37.2,114.7
			l-40,52.5H373c-3.9,0-7.5,1.1-10.6,3c7.5,13,16,25.3,25.2,37H488l31.1,95.5c13.9,5.2,28.2,9.4,43,12.5c0.8-3.5,0.8-7.2-0.4-10.9
			L524.8,637l40-52.5h121l39.9,52.4L689,750.1c-1.2,3.7-1.3,7.5-0.4,11c14.7-3.1,29.1-7.3,43-12.5l31.1-95.6H863
			c9.3-11.7,17.7-24,25.2-37c-3.1-1.9-6.7-3-10.5-3H758l-39.9-52.4L755.3,446l65.5-23.9l96.2,69.8c3.1,2.3,6.7,3.5,10.2,3.8
			c1.1-10.4,1.6-20.9,1.6-31.5C928.9,459.7,928.8,455.2,928.6,450.8z M681.3,544.4H569.5L535,438.1l90.4-65.6l90.4,65.6L681.3,544.4
			z"/>
	</g>
</g>
<g>
	<path class="st7" d="M933.9,464.1c0-2.2,0-4.2-0.1-6.1c0-2.4-0.1-4.8-0.2-7.4c0-0.5-0.1-0.9-0.3-1.4
		c-2.6-55.3-19.9-108.7-50.3-154.8c-0.1-0.2-0.2-0.5-0.4-0.7c-8.5-12.8-17.9-24.9-27.9-36c0,0-0.1-0.1-0.1-0.1c0,0-0.1-0.1-0.1-0.1
		c-14.2-15.7-29.7-29.8-46.4-42.2h24.2c0,0,0.1,0,0.1,0c1.2,0,2.5-0.5,3.4-1.4c2-1.9,2.1-5.1,0.2-7.1c-7.7-8-13.7-14-19.6-19.5
		c-0.3-0.3-0.7-0.6-1-0.9c-0.2-0.2-0.5-0.5-0.7-0.7c-1.2-1.2-2.4-2.3-3.7-3.4l-0.1-0.1c-0.1-0.1-0.1-0.1-0.2-0.2
		c-2.4-2.2-4.7-4.2-7-6.2c-4.1-3.5-8.1-6.9-12.1-10.2c0,0-0.1-0.1-0.1-0.1c-0.2-0.1-0.4-0.3-0.6-0.5c-2.6-2.1-5.2-4.1-7.7-6
		c-4.1-3.2-8.5-6.4-13.5-10c-7.4-5.3-14.9-10.3-22.8-15.3c-2.2-1.4-4.5-2.8-6.8-4.1c-0.8-0.5-1.6-1-2.4-1.5
		c-0.8-0.5-1.7-0.7-2.6-0.7H188.9c-2.8,0-5,2.2-5,5v677.9c0,1.3,0.5,2.5,1.3,3.4c19.6,21.2,41.5,40.7,65.1,57.9c0,0,0.1,0.1,0.1,0.1
		c4.4,3.1,9,6.4,13.5,9.4c0,0,0,0,0,0c0,0,0,0,0,0c0.2,0.2,0.5,0.3,0.8,0.4c0.1,0,0.2,0.1,0.2,0.1c0.2,0.1,0.4,0.1,0.6,0.2
		c0.1,0,0.2,0,0.2,0.1c0.3,0.1,0.6,0.1,0.9,0.1c0.3,0,0.6,0,0.9-0.1c0.1,0,0.1,0,0.2,0c0.3-0.1,0.5-0.1,0.8-0.2c0.1,0,0.1,0,0.2-0.1
		c0.2-0.1,0.5-0.2,0.7-0.4c0,0,0,0,0.1,0c0.2-0.2,0.5-0.3,0.7-0.5c0,0,0.1-0.1,0.1-0.1c0.2-0.2,0.4-0.4,0.5-0.6c0,0,0,0,0-0.1
		c0,0,0,0,0,0c0-0.1,0.1-0.1,0.1-0.2c0.1-0.2,0.3-0.5,0.4-0.7c0.1-0.1,0.1-0.3,0.1-0.5c0-0.2,0.1-0.3,0.1-0.5
		c0.1-0.3,0.1-0.5,0.1-0.8c0-0.1,0-0.1,0-0.2v0c0,0,0,0,0,0V215.4h170.6c-16.9,12.5-32.6,26.6-46.6,42.2c-10,11.1-19.4,23.2-27.9,36
		c-31,46.7-48.7,101.1-51,157.1c-0.2,4.4-0.3,8.8-0.3,13.3c0,11.3,0.5,21.8,1.6,32.1c4.5,43.5,17.9,84.7,39.7,122.5
		c7.5,13,16.1,25.7,25.6,37.6c35,43.9,81,77.3,133.1,96.8c0.2,0.1,0.4,0.2,0.7,0.3c14.3,5.4,29,9.6,43.7,12.7
		c0.3,0.1,0.6,0.1,0.9,0.1c20.8,4.3,42.1,6.5,63.3,6.5c21.5,0,43.1-2.2,64.2-6.7c0.1,0,0.2,0,0.2,0c14.8-3.1,29.5-7.4,43.7-12.7
		c0.2-0.1,0.4-0.2,0.6-0.3c52.3-19.7,98.2-53.2,133-96.9c1.2-1.5,2.4-3,3.5-4.5c1.5-2,3-4,4.5-6c3-4.1,5.9-8.3,8.7-12.6
		c3.1-4.8,6.1-9.6,8.9-14.5c0,0,0,0,0,0c21.9-37.8,35.2-79,39.7-122.4C933.4,484.8,933.9,474.4,933.9,464.1z M886.1,609.5
		c-2.7-1-5.6-1.5-8.4-1.5H760.5l-36.8-48.3l35.6-109.8l60.7-22.2l94,68.2c2.3,1.7,5,3,7.8,3.8C917.2,538.5,905.2,575.4,886.1,609.5z
		 M878.4,622.6c-0.3,0.4-0.5,0.8-0.8,1.2c-0.7,1-1.3,2.1-2,3.1c-0.3,0.5-0.6,1-1,1.5c-0.6,1-1.3,1.9-1.9,2.9c-0.3,0.5-0.6,1-1,1.4
		c-0.7,1.1-1.5,2.1-2.2,3.2c-0.2,0.3-0.5,0.7-0.7,1c-1,1.4-2,2.8-3,4.2c-0.2,0.2-0.3,0.4-0.5,0.7c-0.8,1.1-1.7,2.3-2.6,3.4
		c-0.3,0.4-0.7,0.9-1,1.3c-0.4,0.5-0.8,1.1-1.3,1.6h-97.9c-2.2,0-4.1,1.4-4.8,3.5l-30.3,93.2c-11.3,4.1-22.9,7.6-34.5,10.3
		c0.1-1.1,0.3-2.2,0.7-3.3l36.7-113.2c0.5-1.6,0.2-3.3-0.8-4.6l-39.9-52.4c-0.9-1.2-2.4-2-4-2h-121c-1.6,0-3,0.7-4,2l-40,52.5
		c-1,1.3-1.3,3-0.8,4.6l36.9,113.3c0.3,1,0.5,2.1,0.6,3.2c-11.6-2.7-23.2-6.1-34.5-10.2l-30.3-93.1c-0.7-2.1-2.6-3.5-4.8-3.5h-98
		c-7.6-9.8-14.4-19.7-20.4-29.6c1.1-0.2,2.2-0.4,3.4-0.4h119.6c1.6,0,3-0.7,4-2l40-52.5c1-1.3,1.3-3,0.8-4.6l-37.2-114.7
		c-0.5-1.5-1.6-2.6-3-3.2l-65.5-23.9c-1.6-0.6-3.3-0.3-4.7,0.7l-96.2,69.8c-1,0.7-2,1.3-3,1.7c-0.7-8.2-1-16.6-1-25.5
		c0-3.5,0.1-7,0.2-10.5l79.6-57.5c1.8-1.3,2.5-3.5,1.8-5.6L378,297.3c6.8-10,14.1-19.6,21.9-28.6c0.6,1,1,2,1.4,3.1l37.1,114
		c0.5,1.5,1.6,2.6,3,3.1l65.5,23.9c1.6,0.6,3.3,0.3,4.7-0.7l97-70.5c1.3-0.9,2.1-2.4,2.1-4v-72.1c0-1.6-0.8-3.1-2.1-4l-96.7-70.2
		c-1-0.7-1.8-1.5-2.6-2.3c11.1-4.7,22.5-8.7,34-12l79.3,57.7c1.8,1.3,4.1,1.3,5.9,0l79.3-57.6c11.4,3.2,22.7,7.2,33.8,11.9
		c-0.7,0.8-1.6,1.6-2.5,2.3l-96.6,70.2c-1.3,0.9-2.1,2.4-2.1,4v72.1c0,1.6,0.8,3.1,2.1,4l97,70.5c1.3,1,3.1,1.2,4.7,0.7l65.5-23.9
		c1.4-0.5,2.6-1.7,3-3.2l37-114c0.3-1.1,0.8-2.1,1.4-3c3.5,4,6.9,8.2,10.1,12.3c0.1,0.2,0.2,0.3,0.4,0.5c4,5.2,7.8,10.5,11.4,15.8
		l-30.2,93.1c-0.7,2.1,0.1,4.3,1.8,5.6l79,57.3c0.1,1.5,0.2,3.1,0.2,4.8c0,2.1,0,4.1,0,6c0,0,0,0.1,0,0.1c0,8.7-0.3,17.1-1,25.3
		c-1-0.4-2-1-2.8-1.6l-96.2-69.8c-1.3-1-3.1-1.2-4.7-0.7l-65.5,23.9c-1.4,0.5-2.6,1.7-3,3.2l-37.2,114.6c-0.5,1.6-0.2,3.3,0.8,4.6
		L754,616c0.9,1.2,2.4,2,4,2h119.7c1.1,0,2.2,0.1,3.3,0.4C880.1,619.8,879.3,621.2,878.4,622.6z M370.8,307.6l26.9,82.6l-70.2,50.7
		C331.1,393.6,346,347.9,370.8,307.6z M328.7,499.8c2.8-0.8,5.4-2.1,7.9-3.9l94-68.2l60.7,22.2L527,559.8l-36.9,48.4H373
		c-2.9,0-5.8,0.5-8.6,1.5C345.4,575.6,333.3,538.7,328.7,499.8z M555.6,173.6c22.7-5.4,46-8.2,69.6-8.2c23.9,0,47.4,2.8,70.2,8.3
		l-69.9,50.8L555.6,173.6z M853.4,390.1l26.6-81.9c24.5,40,39.2,85.3,42.8,132.2L853.4,390.1z M844.3,261.1c-1.8,2.3-3.1,4.8-4,7.6
		L804,380.3l-60.7,22.2l-92.8-67.4v-67l94.6-68.7c2.3-1.7,4.4-3.8,6-6.2c13.3,6.2,26,13.3,38.2,21.3c0.1,0.1,0.3,0.2,0.5,0.3
		C809.6,227.8,827.8,243.3,844.3,261.1z M266.8,205.4c-2.8,0-5,2.2-5,5v657.4c-1.9-1.3-3.7-2.6-5.6-3.9
		c-22.5-16.4-43.5-35-62.3-55.2V137.7h539.9c0.4,0.3,0.8,0.5,1.3,0.8c2.2,1.3,4.4,2.6,6.6,4c7.8,4.9,15.1,9.7,22.3,14.9
		c4.9,3.5,9.2,6.7,13.2,9.8c2.5,1.9,5.1,3.9,7.7,6c0,0,0.1,0,0.1,0.1c0.1,0.1,0.3,0.3,0.6,0.5c3.8,3.2,7.8,6.4,11.7,9.8
		c2.2,1.9,4.5,3.9,6.7,5.9l0.2,0.2c0.1,0.1,0.2,0.2,0.3,0.3c1.1,0.9,2.2,1.9,3.2,2.9c0.4,0.4,0.7,0.7,1.1,1c0.2,0.2,0.5,0.5,0.7,0.7
		c0,0,0.1,0.1,0.1,0.1c3.5,3.2,7,6.7,11,10.6h-26.9c-13.6-8.9-28-16.7-43.1-23.5c-13.9-6.2-28.3-11.4-42.8-15.3
		c-26.7-7.4-54.5-11.2-82.7-11.2c-28.1,0-55.8,3.8-82.5,11.2c-14.5,4-28.9,9.2-42.8,15.4c-14.9,6.6-29.4,14.5-43.1,23.5H266.8z
		 M499.8,193c1.6,2.4,3.7,4.6,6.2,6.4l94.6,68.7v67l-92.8,67.4l-60.7-22.2l-36.3-111.7c-0.9-2.9-2.4-5.6-4.3-7.9
		C432.7,232.5,464.8,209.2,499.8,193z M398.2,658.2h86.2l26.7,81.9C467.7,722.2,429,694.1,398.2,658.2z M567.6,757.1
		c0.1-2.9-0.3-5.7-1.2-8.4l-36.1-110.8l36.9-48.4h116l36.8,48.3l-35.9,110.7c-0.9,2.8-1.3,5.7-1.2,8.5c-19,3.7-38.4,5.6-57.8,5.6
		C605.9,762.7,586.6,760.8,567.6,757.1z M739.7,740l26.7-82h86.1C821.8,693.9,783.2,722,739.7,740z"/>
	<path class="st7" d="M718.7,434.1l-90.4-65.6c-1.8-1.3-4.1-1.3-5.9,0l-90.4,65.6c-1.8,1.3-2.5,3.5-1.8,5.6l34.5,106.3
		c0.7,2.1,2.6,3.5,4.8,3.5h111.8c2.2,0,4.1-1.4,4.8-3.5l34.5-106.3C721.2,437.6,720.5,435.3,718.7,434.1z M677.7,539.4H573.1
		L540.9,440l84.5-61.3l84.5,61.3L677.7,539.4z"/>
	<path class="st4" d="M512,972c-1.9,0-3.9,0-5.8,0h0c-0.1,0-0.2,0-0.3,0c-1.5,0-2.9,0-4.4-0.1c-0.7,0-1.4,0-2.1,0l-0.2,0
		c-3.3-0.1-6.6-0.2-9.9-0.4c-0.9,0-1.8-0.1-2.8-0.1l-0.6,0c-0.5,0-1-0.1-1.6-0.1c-1.1-0.1-2.2-0.1-3.3-0.2c-3.3-0.2-6.3-0.4-9.2-0.7
		c-1.1-0.1-2.3-0.2-3.4-0.3l-0.2,0c-0.2,0-0.4,0-0.8-0.1c-1.2-0.1-2.4-0.2-3.7-0.4c-1.6-0.2-3.2-0.3-4.9-0.5
		c-1.7-0.2-3.4-0.4-5.2-0.6c-0.4,0-0.8-0.1-1.2-0.1c-1.5-0.2-3.1-0.4-4.6-0.6c0,0,0,0-0.1,0c-0.3,0-0.5-0.1-0.7-0.1l-0.3,0
		c-1.2-0.2-2.5-0.4-3.7-0.5c-0.4-0.1-0.8-0.1-1.3-0.2l0,0c-1-0.1-2-0.3-3-0.5c-1.3-0.2-2.5-0.4-3.8-0.6c-1.2-0.2-2.4-0.4-3.6-0.6
		c-0.8-0.1-1.6-0.3-2.4-0.4c-3.8-0.7-7.5-1.4-11-2.1c-0.9-0.2-1.8-0.4-2.7-0.6l-0.4-0.1c-0.9-0.2-1.9-0.4-2.8-0.6
		c-2.8-0.6-5.7-1.3-8.5-2l-0.2-0.1c-0.7-0.2-1.5-0.4-2.2-0.5c-1-0.2-2.1-0.5-3.1-0.8l-0.1,0c-0.8-0.2-1.6-0.4-2.4-0.6
		c-1.3-0.3-2.6-0.7-4-1.1c-0.8-0.2-1.6-0.4-2.5-0.7c-0.8-0.2-1.6-0.4-2.4-0.7c-0.7-0.2-1.4-0.4-2-0.6c-1.2-0.3-2.5-0.7-3.7-1.1
		c-1.9-0.6-3.8-1.1-5.6-1.7c-0.8-0.3-1.7-0.5-2.6-0.8c-2.1-0.7-4.3-1.4-6.5-2.1c-1-0.3-2-0.7-3-1c-2.7-0.9-5.3-1.8-7.8-2.7
		c-1.4-0.5-2.8-1-4.1-1.5c-5.3-2-10.5-4-15.5-6.1c-1.3-0.5-2.7-1.1-4-1.7c-82-34.9-151.8-92.5-201.8-166.6C79.1,692.9,52,604,52,512
		c0-58.9,11-116.3,32.7-170.6c4.1-10.3,15.7-15.2,26-11.2c10.3,4.1,15.3,15.7,11.2,26C102,405.8,92,458.2,92,512
		c0,84,24.7,165.1,71.5,234.5c45.7,67.7,109.4,120.4,184.4,152.2c0,0,0.1,0,0.1,0c1.1,0.5,2.2,0.9,3.3,1.4c0.1,0,0.2,0.1,0.2,0.1
		c4.5,1.9,9.3,3.8,14.2,5.6c0.1,0,0.2,0.1,0.2,0.1c1.1,0.4,2.1,0.8,3.2,1.2c0.1,0,0.2,0.1,0.3,0.1c2.3,0.8,4.7,1.7,7.2,2.5
		c0.1,0,0.2,0.1,0.2,0.1c0.7,0.2,1.4,0.5,2.1,0.7c0.1,0,0.3,0.1,0.4,0.1c2.1,0.7,4,1.3,6,1.9c0,0,0.1,0,0.1,0
		c0.7,0.2,1.5,0.5,2.2,0.7c1.7,0.5,3.5,1.1,5.2,1.6c0.1,0,0.1,0,0.2,0.1c1.1,0.3,2.1,0.6,3.2,0.9c0.6,0.2,1.1,0.3,1.6,0.5
		c0.1,0,0.1,0,0.2,0.1c0.7,0.2,1.4,0.4,2.2,0.6c0.1,0,0.3,0.1,0.4,0.1c0.6,0.2,1.2,0.3,1.7,0.5c1.3,0.4,2.6,0.7,3.9,1
		c0.1,0,0.1,0,0.2,0c0.6,0.2,1.3,0.3,1.9,0.5l0.2,0c0,0,0.1,0,0.1,0c0.8,0.2,1.7,0.4,2.5,0.6c0.1,0,0.2,0,0.3,0.1
		c0.6,0.2,1.3,0.3,1.9,0.5l0.3,0.1c2.6,0.6,5.2,1.2,7.8,1.8c0.1,0,0.2,0,0.3,0.1c0.7,0.2,1.4,0.3,2.1,0.5l0.5,0.1
		c0.8,0.2,1.6,0.3,2.3,0.5c0,0,0.1,0,0.1,0c3.2,0.7,6.5,1.3,10,1.9c0.7,0.1,1.4,0.3,2.1,0.4c0.1,0,0.2,0,0.3,0
		c1,0.2,2.1,0.4,3.1,0.5c0.1,0,0.1,0,0.2,0c1.1,0.2,2.2,0.4,3.3,0.5c0.1,0,0.2,0,0.3,0c0.8,0.1,1.6,0.3,2.4,0.4c0.1,0,0.1,0,0.2,0
		l0.1,0c0.2,0,0.4,0.1,0.6,0.1c0.1,0,0.2,0,0.4,0.1c1.2,0.2,2.3,0.3,3.5,0.5l0.2,0c0.2,0,0.4,0.1,0.6,0.1c1.4,0.2,2.8,0.4,4.3,0.6
		c0.1,0,0.3,0,0.4,0.1c0.2,0,0.4,0,0.5,0.1c1.6,0.2,3.2,0.4,4.8,0.6c1.4,0.2,2.8,0.3,4.3,0.5c0.1,0,0.2,0,0.3,0
		c1.1,0.1,2.2,0.2,3.2,0.3c0.2,0,0.3,0,0.5,0.1l0.2,0c1,0.1,2.1,0.2,3.1,0.3c0,0,0.1,0,0.1,0c2.6,0.2,5.3,0.4,8.3,0.6
		c1,0.1,2,0.1,3.1,0.2c0.1,0,0.3,0,0.4,0c0.3,0,0.6,0,1,0.1l0.7,0c0.8,0,1.5,0.1,2.3,0.1c0,0,0.1,0,0.1,0c2.9,0.2,5.9,0.3,8.9,0.3
		l0.2,0c0.6,0,1.2,0,1.8,0c0.1,0,0.2,0,0.3,0c1.3,0,2.6,0.1,3.8,0.1h0c0.1,0,0.2,0,0.3,0c5.3,0.1,10.7,0,15.7-0.1c0.1,0,0.1,0,0.2,0
		l0.8,0c0.5,0,1.1,0,1.6-0.1c0.1,0,0.3,0,0.4,0c0.6,0,1.1,0,1.7,0l1,0c2.5-0.1,4.9-0.2,7.4-0.3l0.1,0c1-0.1,1.9-0.1,2.9-0.2
		c0,0,0.1,0,0.1,0c0.9-0.1,1.7-0.1,2.6-0.2l0.3,0c0.1,0,0.1,0,0.2,0c0.5,0,1-0.1,1.5-0.1l0.3,0c1.2-0.1,2.4-0.2,3.6-0.3
		c0.2,0,0.3,0,0.5,0c0.2,0,0.3,0,0.5,0c0.2,0,0.3,0,0.5,0c1.1-0.1,2.2-0.2,3.2-0.3c0.1,0,0.1,0,0.2,0c0.7-0.1,1.3-0.1,2-0.2
		c0.1,0,0.1,0,0.2,0l0.2,0c0.6-0.1,1.2-0.1,1.8-0.2c0,0,0.1,0,0.1,0c1.3-0.1,2.5-0.3,3.8-0.4c0.2,0,0.3,0,0.5,0c0.1,0,0.2,0,0.4,0
		c1.5-0.2,2.9-0.3,4.4-0.5c0.2,0,0.4-0.1,0.6-0.1c1.5-0.2,3-0.4,4.5-0.6c0.1,0,0.2,0,0.4,0l0.3,0c0.2,0,0.5-0.1,0.7-0.1
		c1.3-0.2,2.6-0.4,3.8-0.6c0.1,0,0.1,0,0.2,0c0.2,0,0.4-0.1,0.7-0.1c0.1,0,0.3,0,0.4-0.1c1.5-0.2,3.1-0.5,4.6-0.7c0.1,0,0.1,0,0.2,0
		c1.3-0.2,2.6-0.4,4-0.7l0.2,0c0.1,0,0.2,0,0.2,0c0.4-0.1,0.8-0.1,1.2-0.2l0.3-0.1c0.9-0.2,1.8-0.3,2.7-0.5c0.1,0,0.2,0,0.3-0.1
		c0.5-0.1,1-0.2,1.5-0.3l0.2,0c1.6-0.3,3.1-0.6,4.7-0.9c1.5-0.3,2.9-0.6,4.4-0.9c2.2-0.5,4-0.9,5.7-1.3c0,0,0.1,0,0.1,0
		c1.7-0.4,3.4-0.8,5.1-1.2c1.4-0.3,2.7-0.7,4-1c0.1,0,0.2,0,0.3-0.1c0.3-0.1,0.6-0.1,0.8-0.2c3.4-0.9,6.6-1.7,9.6-2.6
		c0.1,0,0.2-0.1,0.3-0.1c4.9-1.4,9.8-2.9,14.8-4.5c1.6-0.5,3.2-1.1,4.9-1.6c1.6-0.6,3.3-1.1,4.9-1.7l0.1,0c1.6-0.6,3.1-1.1,4.7-1.7
		c54.3-19.9,103.2-50.3,145.4-90.5c0,0,0.1-0.1,0.1-0.1c0.2-0.2,0.5-0.4,0.7-0.7c0.1-0.1,0.2-0.2,0.3-0.3c8.3-8,16.4-16.4,24.1-25.1
		c2.8-3.2,5.7-6.5,8.5-10c0.1-0.1,0.2-0.2,0.3-0.3c6.1-7.4,12-15.1,17.6-22.8c43.7-60.9,70.3-132.5,77-207c0.1-1.5,0.3-3.1,0.4-4.7
		c0-0.1,0-0.2,0-0.3l0-0.3c0-0.1,0-0.2,0-0.3l0-0.2c0.1-1.2,0.2-2.4,0.2-3.5c0-0.2,0-0.5,0.1-0.7c0-0.3,0-0.5,0-0.8c0,0,0-0.2,0-0.2
		c0.1-1.7,0.2-3.3,0.3-5c0.1-1.1,0.1-2.4,0.2-3.6c0-0.1,0-0.1,0-0.2c0-0.7,0.1-1.4,0.1-2.1c0,0,0-0.1,0-0.1c0.1-1.7,0.1-3.5,0.2-5.2
		c0.1-3.3,0.1-6.8,0.1-10.4c0-1.8,0-3.6,0-5.4c0-1.8,0-3.4-0.1-5.1l0-0.9c0,0,0-0.1,0-0.1c0-1-0.1-2-0.1-3.1l0-1.2
		c0-0.2,0-0.5,0-0.7c-0.1-1.7-0.1-3.4-0.2-5.1l0-0.1c-0.1-1.7-0.2-3.5-0.3-5.3c-0.1-1.8-0.2-3.6-0.4-5.4
		c-3.8-50.5-16.6-99.4-38-145.1c-0.5-1.1-1-2.1-1.5-3.1c0-0.1-0.1-0.2-0.1-0.3c-0.5-1.1-1.1-2.3-1.7-3.4c0,0,0-0.1-0.1-0.1
		c-0.6-1.3-1.3-2.6-2-4c0,0,0-0.1-0.1-0.1c-3.1-6.3-6.5-12.6-10-18.7c-16.5-29.1-36.6-56.3-59.6-80.7c-27.3-29-58.5-54-92.8-74.2
		C660.7,112,587.1,92,512,92c-25.1,0-50.2,2.2-74.7,6.6c-10.9,2-21.3-5.3-23.2-16.2c-2-10.9,5.3-21.3,16.2-23.2
		c26.8-4.8,54.3-7.2,81.7-7.2c82.2,0,162.9,21.9,233.3,63.5c37.5,22.1,71.7,49.4,101.6,81.2c25.2,26.7,47.2,56.5,65.3,88.3
		c3.8,6.7,7.5,13.6,11,20.5c0.8,1.5,1.5,3,2.2,4.5c0.7,1.3,1.3,2.7,1.9,4c0.6,1.2,1.1,2.4,1.7,3.6c23.4,50.1,37.4,103.6,41.6,159
		c0.1,1.9,0.3,3.9,0.4,5.8c0.1,1.9,0.2,3.9,0.3,5.8l0,0.2c0.1,1.8,0.2,3.6,0.2,5.5c0,0.2,0,0.4,0,0.5l0.1,1.6c0,1.1,0.1,2.2,0.1,3.3
		l0,1c0,0,0,0.1,0,0.1c0,1.8,0.1,3.7,0.1,5.6c0,1.9,0,3.9,0,5.9c0,3.9,0,7.8-0.1,11.4c-0.1,1.9-0.1,3.8-0.2,5.7
		c0,0.9-0.1,1.7-0.1,2.6c-0.1,1.3-0.1,2.6-0.2,3.9c-0.1,1.9-0.2,3.7-0.3,5.5c0,0.7-0.1,1.3-0.1,1.9c-0.1,1.3-0.2,2.6-0.3,3.9l0,0.1
		c0,0.4-0.1,0.9-0.1,1.3c-0.1,1.7-0.3,3.3-0.4,5c-7.3,81.8-36.4,160.2-84.3,226.9c-6.1,8.5-12.6,17-19.4,25.1
		c-0.2,0.2-0.3,0.4-0.5,0.6c-3.1,3.7-6.1,7.3-9.1,10.7c-8.3,9.4-17.1,18.6-26.2,27.4c-0.4,0.4-0.9,0.8-1.3,1.2
		c-46.2,44-99.7,77.3-159.2,99.1c-1.7,0.6-3.4,1.2-5.1,1.8l-0.2,0.1c-1.8,0.6-3.6,1.2-5.3,1.8c-1.8,0.6-3.6,1.2-5.4,1.8
		c-5.4,1.7-10.7,3.4-16,4.9c-0.3,0.1-0.5,0.2-0.8,0.2c-3.3,0.9-6.6,1.8-10.2,2.8c-0.5,0.1-1,0.2-1.5,0.4c-1.5,0.4-2.9,0.7-4.4,1.1
		c-1.8,0.4-3.6,0.9-5.4,1.3c-2,0.5-4.1,0.9-6.5,1.5c-1.5,0.3-3.2,0.7-4.8,1c-1.6,0.3-3.3,0.7-5,1c0,0-0.1,0-0.1,0l-0.3,0.1
		c-0.6,0.1-1.3,0.2-1.9,0.3c-1,0.2-2,0.4-3,0.6l-0.3,0.1c-0.6,0.1-1.1,0.2-1.7,0.3l-0.1,0c-1.5,0.3-2.9,0.5-4.4,0.8
		c-1.7,0.3-3.4,0.6-5.1,0.8c-0.5,0.1-1,0.2-1.5,0.2c-1.3,0.2-2.7,0.4-4,0.6c-0.5,0.1-1,0.2-1.5,0.2c-1.5,0.2-3,0.4-4.5,0.6
		c-0.3,0-0.5,0.1-0.8,0.1c-1.6,0.2-3.2,0.4-4.8,0.6c-0.5,0.1-0.9,0.1-1.3,0.1c-1.3,0.2-2.7,0.3-4,0.4c-0.7,0.1-1.5,0.2-2.2,0.2
		l-0.1,0c-0.8,0.1-1.6,0.2-2.3,0.2c-1.2,0.1-2.4,0.2-3.6,0.3c-0.5,0.1-1.1,0.1-1.6,0.1c-1.3,0.1-2.7,0.2-4,0.3l-0.3,0
		c-0.7,0-1.3,0.1-2,0.1l-0.2,0c-1,0.1-1.9,0.1-2.9,0.2c-1.1,0.1-2.1,0.1-3.2,0.2l-0.1,0c-2.7,0.1-5.4,0.3-8.1,0.4
		c-0.1,0-0.1,0-0.2,0l-1,0c-0.7,0-1.3,0-2,0.1c-0.7,0-1.3,0-2,0.1l-0.9,0c-0.1,0-0.3,0-0.4,0C519.6,972,515.8,972,512,972z
		 M472.9,930.2C472.9,930.2,473,930.2,472.9,930.2C473,930.2,472.9,930.2,472.9,930.2z M561.8,929.5
		C561.8,929.5,561.8,929.5,561.8,929.5C561.8,929.5,561.8,929.5,561.8,929.5z M458.8,928.7C458.8,928.7,458.8,928.7,458.8,928.7
		C458.8,928.7,458.8,928.7,458.8,928.7z M567.7,928.5C567.7,928.5,567.7,928.5,567.7,928.5S567.7,928.5,567.7,928.5z M567.8,928.5
		C567.8,928.5,567.8,928.5,567.8,928.5C567.8,928.5,567.8,928.5,567.8,928.5z M567.9,928.5C567.9,928.5,567.9,928.5,567.9,928.5
		C567.9,928.5,567.9,928.5,567.9,928.5z M567.9,928.5C567.9,928.5,567.9,928.5,567.9,928.5C567.9,928.5,567.9,928.5,567.9,928.5z
		 M453.3,927.9L453.3,927.9L453.3,927.9z M625.4,916.6C625.4,916.6,625.4,916.6,625.4,916.6C625.4,916.6,625.4,916.6,625.4,916.6z
		 M625.5,916.6C625.4,916.6,625.4,916.6,625.5,916.6C625.4,916.6,625.4,916.6,625.5,916.6z M627.5,915.9
		C627.5,916,627.5,916,627.5,915.9C627.5,916,627.5,916,627.5,915.9z M835.3,780.1C835.3,780.1,835.3,780.1,835.3,780.1
		C835.3,780.1,835.3,780.1,835.3,780.1z M836.8,778.4C836.8,778.4,836.8,778.4,836.8,778.4C836.8,778.4,836.8,778.4,836.8,778.4z
		 M836.9,778.4C836.9,778.4,836.9,778.4,836.9,778.4C836.9,778.4,836.9,778.4,836.9,778.4z M971.7,495
		C971.7,495,971.7,495,971.7,495C971.7,495,971.7,495,971.7,495z M971.4,491.7C971.4,491.7,971.4,491.7,971.4,491.7
		C971.4,491.7,971.4,491.7,971.4,491.7z M971.4,491.6C971.4,491.7,971.4,491.7,971.4,491.6C971.4,491.7,971.4,491.7,971.4,491.6z"/>
</g>
</svg>
