<?xml version="1.0" encoding="utf-8"?>
<!-- Generator: Adobe Illustrator 24.0.0, SVG Export Plug-In . SVG Version: 6.00 Build 0)  -->
<svg version="1.1" id="Capa_1" xmlns="http://www.w3.org/2000/svg" xmlns:xlink="http://www.w3.org/1999/xlink" x="0px" y="0px"
	 viewBox="0 0 1024 1024" style="enable-background:new 0 0 1024 1024;" xml:space="preserve">
<style type="text/css">
	.st0{fill:#F473C3;}
	.st1{fill:#84BFA7;}
	.st2{fill:#CF5252;}
	.st3{fill:#FFDDCE;}
	.st4{fill:#FFCBBE;}
	.st5{fill:#534A9A;}
	.st6{fill:#FDC9A6;}
	.st7{fill:#F9B630;}
	.st8{fill:#64AD8E;}
	.st9{fill:#9DD4A9;}
	.st10{fill:#443F80;}
	.st11{fill:#EAAC9D;}
	.st12{fill:#2A286B;}
	.st13{fill:#F9A40D;}
	.st14{fill:#FFFFFF;}
</style>
<g>
	<circle class="st0" cx="512" cy="512" r="440"/>
	<g id="flat">
		<polygon class="st1" points="688.6,778 512,872.2 335.4,783.9 364.9,754.5 394.3,725 409,680.9 615,680.9 629.7,725 659.1,754.5 
					"/>
		<path class="st2" d="M688.6,778l-155.3,82.8l-6.6-32.8l128.9-77l3.5,3.5L688.6,778z"/>
		<path class="st3" d="M394.3,406.9l-31.6,10.3c-17.3,8.6-29.9,24.4-34.6,43.2l-36.8,147l-110.4,69c-4.7,2.9-10.4,3.6-15.6,1.9
			l-30.1-10c-3.8-1.3-7.9-1.3-11.6,0l-22.9,7.6c-8.8,2.9-14,12-12.2,21.1l7.5,37.6c2.1,10.7,13.1,17.2,23.5,13.9L319,686
			c10.5-3.3,19.2-10.7,24.1-20.5l51.2-102.3L394.3,406.9L394.3,406.9z"/>
		<path class="st4" d="M629.7,406.9l31.6,10.3c17.3,8.6,29.9,24.4,34.6,43.2l36.8,147l110.4,69c4.7,2.9,10.4,3.6,15.6,1.9l30.1-10
			c3.8-1.3,7.9-1.3,11.6,0l22.9,7.6c8.8,2.9,14,12,12.2,21.1l-7.5,37.6c-2.1,10.7-13.1,17.2-23.5,13.9L705,686
			c-10.5-3.3-19.2-10.7-24.1-20.5l-51.2-102.3V406.9z"/>
		<path class="st5" d="M556.1,151.2L512,220.6l-6.7,10.6l-52.1,81.9c-27.3,18.2-62.2,20.4-91.6,5.7l-11.4-5.7l3.4-2.3
			c25.4-17,40.7-45.5,40.7-76.1v-4.1c0-50.8,20.2-99.5,56.1-135.5c11.2-11.2,26.3-17.5,42.1-17.5c4.4,0,8.6,0.5,12.7,1.4
			c2.3,0.5,4.5,1.1,6.7,1.9c19.6,6.8,34.8,23.4,39,44.7L556.1,151.2z"/>
		<polygon class="st3" points="570.8,389.6 570.8,460.2 512,504.4 505.3,499.3 453.2,460.2 453.2,389.6 467.9,386.7 467.9,327.8 
			556.1,327.8 556.1,386.7 		"/>
		<path class="st6" d="M556.1,327.8v14.7c-26.2,19.6-62.1,19.6-88.3,0v-14.7H556.1z"/>
		<path class="st7" d="M626,560.5l-25.7,32.2H423.7L398,560.5c-19.7-24.7-21.2-59.3-3.7-85.6v-68l58.9-17.3v70.6l58.8,44.1
			l58.8-44.1v-70.6l58.9,17.3v68C647.2,501.2,645.7,535.8,626,560.5z"/>
		<path class="st3" d="M615,680.9H409l8.7-26c4-12,6-24.6,6-37.2v-25h176.6v25c0,12.7,2,25.2,6,37.2L615,680.9z"/>
		<polygon class="st8" points="688.6,778 512,872.2 512,680.9 615,680.9 629.7,725 659.1,754.5 		"/>
		<path class="st4" d="M556.1,327.8v14.7c-13.1,9.8-28.6,14.7-44.1,14.7c-2.2,0-4.5-0.1-6.7-0.3c-13.2-1.2-26.2-6-37.4-14.4v-14.7
			L556.1,327.8L556.1,327.8z"/>
		<path class="st1" d="M541.4,916.3l257.5-105.2c27.5-14.6,38-48.7,23.4-76.2c-0.3-0.5-0.6-1.1-0.9-1.6c-15.4-27-49.9-36.4-76.9-21
			c-1.1,0.6-2.2,1.3-3.3,2L526.7,842.8L541.4,916.3z"/>
		<path class="st9" d="M490.6,916.3L233,811.1c-27.5-14.6-38-48.7-23.4-76.2c0.3-0.5,0.6-1.1,0.9-1.6c15.4-27,49.9-36.4,76.9-21
			c1.1,0.6,2.2,1.3,3.3,2l214.6,128.4L490.6,916.3z"/>
		<path class="st10" d="M556.1,151.2L512,220.6V80.9c19.6,6.8,34.8,23.4,39,44.7L556.1,151.2z"/>
		<g>
			<g>
				<path class="st4" d="M434.5,277.6c12.2,2,23.9-6.3,25.8-18.6c2-12.2-6.3-23.9-18.6-25.8l0,0c-12.2-2-23.9,6.3-25.8,18.6
					C413.9,264.1,422.2,275.6,434.5,277.6L434.5,277.6z"/>
				<path class="st11" d="M426.1,256.6c0.6,6.6,6.6,11.5,13.2,10.8c6.6-0.6,11.5-6.6,10.8-13.2c-0.6-6.6-6.6-11.5-13.2-10.8
					C430.3,244,425.4,250,426.1,256.6z"/>
			</g>
			<g>
				<path class="st4" d="M582.3,277.6c12.2,2,23.9-6.3,25.8-18.6c2-12.2-6.3-23.9-18.6-25.8l0,0c-12.2-2-23.9,6.3-25.8,18.6
					C561.7,264.1,570,275.6,582.3,277.6L582.3,277.6z"/>
				<path class="st11" d="M573.9,256.6c0.6,6.6,6.6,11.5,13.2,10.8c6.6-0.6,11.5-6.6,10.8-13.2c-0.6-6.6-6.6-11.5-13.2-10.8
					C578,244,573.2,250,573.9,256.6z"/>
			</g>
		</g>
		<path class="st3" d="M526.7,842.8l-68.8,13.8c-3.1,0.6-6.4,0.4-9.4-0.6l-28.7-9.6c-6.6-2.2-13.9-0.5-18.8,4.4l-13.4,13.4
			c-4.9,4.9-6.6,12.2-4.4,18.8l6.9,20.8c2.5,7.5,9.5,12.6,17.4,12.6h133.9L526.7,842.8z"/>
		<path class="st3" d="M585.6,239.5V269c0,40.6-32.9,73.6-73.6,73.6c-2.3,0-4.5-0.1-6.7-0.3c-37.5-3.4-66.8-34.9-66.8-73.2v-58.9
			c0-7.8,1.2-15.6,3.7-23l54,19.7l9.1,3.3l6.7,2.5L585.6,239.5z"/>
		<polygon class="st4" points="570.8,389.6 570.8,460.2 512,504.4 512,327.8 556.1,327.8 556.1,386.7 		"/>
		<path class="st11" d="M556.1,327.8v14.7c-13.1,9.8-28.6,14.7-44.1,14.7v-29.4L556.1,327.8L556.1,327.8z"/>
		<path class="st4" d="M585.6,239.5V269c0,40.6-32.9,73.6-73.6,73.6v-130L585.6,239.5z"/>
		<path class="st12" d="M496.1,206.8l-4.8,3.6c-16.3,12.2-34.1,22.1-52.9,29.3v-29.6c0-7.8,1.2-15.6,3.7-23L496.1,206.8z"/>
		<path class="st10" d="M585.6,210.1v29.4c-25.3,0-50.2-4.3-73.6-12.6c-20.9-7.4-40.8-18-58.8-31.5l-11-8.3
			c10.2-30.9,38.9-50.5,69.8-50.6c7.7,0,15.5,1.2,23.1,3.7C565.2,150.1,585.6,178.3,585.6,210.1z"/>
		<path class="st13" d="M626,560.5l-25.7,32.2H512v-88.3l58.8-44.1v-70.6l58.9,17.3v68C647.2,501.2,645.7,535.8,626,560.5z"/>
		<path class="st4" d="M615,680.9H512v-88.3h88.3v25c0,12.7,2,25.2,6,37.2L615,680.9z"/>
		<path class="st12" d="M585.6,210.1v29.4c-25.3,0-50.2-4.3-73.6-12.6v-90.4c7.7,0,15.5,1.2,23.1,3.7
			C565.2,150.1,585.6,178.3,585.6,210.1z"/>
	</g>
</g>
<path class="st14" d="M925,670.7l-22.8-7.6c-4.8-1.7-10.2-1.7-15.2,0l-30.1,10c-3.7,1.2-7.7,0.7-11-1.3l-108.5-67.8l-36.3-144.8
	c-5.1-20.4-18.8-37.5-37.5-46.8l-0.4-0.2l-28.2-9.2v-0.1l-3.9-1.1l-7.1-2.3v0.2l-47.9-14.1v-0.4l-4.2-0.8l-6.8-2v0.7l-3.7-0.7v-51.6
	c14.8-11.9,24.9-28.9,28.2-47.5c12-1.7,21.8-11,23.7-23.2c1.2-7.4-0.6-14.9-5-21c-4.2-5.9-10.4-9.7-17.4-11v-17.8c0-0.6,0-1.3,0-1.9
	c-0.6-23.4-11.7-45.7-30-60.2l-4.8-23.5c-4.4-22.5-20.8-41.3-42.5-48.8c-2.3-0.8-4.7-1.5-7.4-2.1c-4.7-1-9.2-1.5-13.9-1.5
	c-17.3,0-33.7,6.8-46,19.1c-18.4,18.4-32.8,40-42.7,64c-10,24-15,49.4-15,75.4v4.1c0,28.8-14.3,55.5-38.3,71.5l-11.2,7.6l19.8,9.9
	c13.7,6.8,28.5,10.2,43.3,10.2c17.2,0,34.3-4.6,49.5-13.5c3.2,3.7,6.7,7.1,10.5,10.2v51.6l-3.7,0.7v-0.7l-6.8,2l-4.2,0.8v0.4
	l-47.9,14.1v-0.2l-7.1,2.3l-3.9,1.1v0.1l-28.2,9.2l-0.4,0.2c-18.7,9.3-32.4,26.4-37.5,46.8l-36.3,144.8L178,671.7
	c-3.3,2.1-7.3,2.6-11,1.4l-30.1-10c-5-1.7-10.4-1.7-15.1,0L99,670.7c-11.4,3.8-18.2,15.5-15.9,27.4l7.5,37.6
	c1.3,6.6,5.4,12.4,11.2,15.9c3.7,2.2,7.9,3.3,12.2,3.3c2.4,0,4.8-0.4,7.2-1.1l87.2-27.3c-0.9,1.3-1.8,2.7-2.6,4.1
	c-0.2,0.3-0.4,0.6-0.5,0.9c-0.1,0.2-0.2,0.4-0.3,0.6l-0.1,0.2c-7.7,14.6-9.3,31.3-4.5,47.1c4.9,15.8,15.6,28.8,30.2,36.5l0.2,0.1
	l146.1,59.7c-0.2,3,0.2,6,1.2,9l6.9,20.8c3.3,9.8,12.4,16.4,22.6,16.4h129.4l0.4,2l4.9-2h5.9l-0.4-2.2L801,816.2l0.5-0.2
	c14.6-7.8,25.3-20.7,30.2-36.5c4.9-15.8,3.3-32.5-4.5-47.1l-0.1-0.2c-0.1-0.2-0.2-0.4-0.3-0.6c-0.2-0.3-0.4-0.6-0.5-0.9
	c-0.2-0.3-0.4-0.7-0.6-1l77.3,24.2c2.3,0.7,4.8,1.1,7.2,1.1c4.2,0,8.4-1.1,12.2-3.3c5.8-3.5,9.9-9.2,11.2-15.8l7.5-37.6
	C943.2,686.2,936.4,674.4,925,670.7z M599.6,245.4c2.7,3.7,3.8,8.2,3,12.8c-1,6.5-5.6,11.6-11.6,13.4c0-0.9,0-1.7,0-2.6v-24v-5.5
	v-0.3C594.5,240.3,597.5,242.4,599.6,245.4z M580.1,210.1v23.8c-0.3,0-0.5,0-0.8,0c-1,0-2-0.1-3-0.1c-0.4,0-0.9,0-1.3-0.1
	c-1.4-0.1-2.7-0.1-4.1-0.2c0,0-0.1,0-0.1,0v0c0,0,0,0,0,0c-19.5-1.3-38.7-5.3-57-11.8c-9.1-3.2-18-7.1-26.6-11.5
	c-10.7-5.5-21.1-12-30.7-19.2l-7.8-5.9c10.2-25.9,35.2-43.1,63.2-43.1c7.3,0,14.5,1.2,21.4,3.4c0.2,0.1,0.3,0.1,0.5,0.2
	c0.2,0.1,0.4,0.1,0.7,0.2c6.6,2.3,12.7,5.6,18.3,9.7C569.9,168.3,580.1,188.7,580.1,210.1z M433,271.6c-7.9-2.5-13.1-10.5-11.7-19
	c1-6.4,5.6-11.5,11.6-13.4v8.1l0.1,0v21.8C433,269.9,433,270.8,433,271.6z M444,210.2c0-4.7,0.5-9.3,1.4-13.8l4.5,3.4
	c7.7,5.8,15.8,11.1,24.2,15.8c-9.6,6.1-19.7,11.4-30.1,15.9V210.2z M364.1,313.9l-3.1-1.6c24.4-18.3,38.8-47,38.8-77.6v-4.1
	c0-49.6,19.4-96.4,54.5-131.6c10.2-10.2,23.8-15.9,38.2-15.9c3.9,0,7.6,0.4,11.5,1.3c2.3,0.5,4.2,1,6.1,1.7
	c18.1,6.3,31.7,21.8,35.4,40.6l2.6,13c-3.6-1.9-7.4-3.5-11.3-4.7c-8-2.6-16.4-4-24.8-4c-32.3,0.1-60.9,19.6-73,49.1l-0.2-0.1
	l-1.8,5.4c-2.6,7.8-4,16.2-4,24.8v17.8c-11.4,2.2-20.6,11.4-22.4,23c-2.5,15.2,7.9,29.6,23.1,32.1c0.2,0,0.4,0,0.6,0.1
	c1.8,10.1,5.6,19.7,11.1,28.4C420.5,325.8,389.9,326.8,364.1,313.9z M444.5,277.2c-0.3-2.7-0.5-5.4-0.5-8.1v-25.7
	c14.3-5.8,28.1-13.1,41.1-21.9c8.1,4,16.5,7.6,25,10.6c0.6,0.2,1.1,0.4,1.7,0.6c18.7,6.5,38.3,10.4,58.3,11.8
	c3.3,0.2,6.6,0.4,10,0.5V269c0,2.8-0.2,5.5-0.5,8.2c-2.2,18.3-12,35.2-26.8,46.3c-11.8,8.9-26,13.6-40.8,13.6
	c-2.1,0-4.1-0.1-6.2-0.3c-12.6-1.1-24.5-5.7-34.6-13.3c-5.2-3.9-9.8-8.5-13.7-13.7C450.4,300.3,445.9,289,444.5,277.2z M473.4,391.2
	V338c9.6,5.4,20.3,8.7,31.4,9.7c2.4,0.2,4.7,0.3,7.2,0.3c13.7,0,26.9-3.5,38.6-10v53.2l14.7,2.9v63.3l-53.3,40l-53.3-40v-63.3
	L473.4,391.2z M447.7,396.9v66l54.3,40.7l10,7.6l62.1-46.7l0,0l2.2-1.7v-66l47.9,14.1v63.9v1.7l0.9,1.4c15,22.6,15,51.8,0,74.4l0,0
	c-1,1.5-2.2,3.1-3.4,4.7l-24,30.1H426.3l-24-30.1c-1.2-1.6-2.4-3.2-3.4-4.7c0,0,0-0.1-0.1-0.1c0,0,0,0,0-0.1c0,0,0-0.1-0.1-0.1
	c0-0.1-0.1-0.1-0.1-0.2c0,0,0-0.1,0-0.1c0,0,0,0,0,0c0,0,0-0.1-0.1-0.1c0,0,0,0,0-0.1c0,0,0,0,0-0.1c-0.1-0.1-0.2-0.2-0.2-0.4
	c0,0,0,0,0,0c-14.3-22.4-14.1-51.1,0.7-73.3l0.9-1.4v-1.7V411L447.7,396.9z M397.6,568.8l20.6,25.8v23.1c0,12.1-1.9,24.1-5.7,35.5
	l-7.4,22.2h0l-1.3,3.9l-2.4,7.1h0L389.5,722l-28.1,28.2l-67.8-40.6c-1.1-0.7-2.3-1.4-3.5-2.1c-2.7-1.6-5.6-2.9-8.5-4l39.1-12.2
	c11.9-3.7,21.8-12.2,27.4-23.3L397.6,568.8z M601.1,656.6l6.3,18.8H512h-95.4l6.3-18.8c4.2-12.5,6.3-25.6,6.3-38.9v-19.5h165.6v19.5
	C594.8,631,596.9,644.1,601.1,656.6z M526.5,836.5l-1.8,1.1l-13.3,2.7l0.1-0.3L371.1,756l26.3-26.4l1.6-1.7l13.9-41.6h99h99
	l13.9,41.6l30.3,30.4l0.5,0.4l0,0l0.2,0.2L526.5,836.5z M666,753l-3.2-2.6L634.5,722l-11.9-35.6h0l-2.6-7.7l-1.1-3.3h0l-7.4-22.2
	c-3.8-11.4-5.7-23.3-5.7-35.5v-23.1l20.6-25.8L676,668c5.5,11.1,15.5,19.6,27.4,23.3l43.6,13.7c-1.7,0.8-3.4,1.6-5.1,2.6
	c-1.2,0.7-2.4,1.4-3.5,2.1L666,753z M117.8,743.3c-3.5,1.1-7.3,0.7-10.4-1.2c-3.2-1.9-5.3-4.9-6-8.5l-7.5-37.6
	c-1.3-6.4,2.4-12.8,8.5-14.8l23-7.6c2.5-0.9,5.4-0.9,8,0l30.1,10c6.7,2.2,14.1,1.3,20.2-2.5l112.3-70.2l37.3-149.2
	c4.3-17.2,15.7-31.5,31.4-39.4l24-7.8v58.8c-16.3,25.6-16.3,58.1,0,83.8v4.9L338.2,663c-4.2,8.4-11.8,14.9-20.8,17.7l-59.7,18.7
	c-11.5,0.3-22.5,3.8-32.1,10.1L117.8,743.3z M210.8,776.2c-4-12.9-2.7-26.7,3.6-38.6c0.2-0.3,0.3-0.6,0.5-0.9
	c0.1-0.2,0.2-0.4,0.3-0.6l0.1-0.1c3.9-6.9,9.2-12.6,15.7-16.9c8.2-5.5,17.8-8.5,27.7-8.7l0.6,0h0.2l0,0l0.2,0c8.7,0,17.3,2.3,25,6.7
	l0.1,0c0.9,0.5,2,1.2,3,1.8l208,124.5l-38.9,7.8c-2.2,0.4-4.5,0.3-6.6-0.4l-28.7-9.6c-8.5-2.8-18.1-0.6-24.4,5.7l-13.4,13.4
	c-1.5,1.5-2.7,3.1-3.7,4.9l-144.6-59.1C223.5,799.7,214.7,789.1,210.8,776.2z M407.5,910.9c-5.5,0-10.4-3.6-12.2-8.8l-6.9-20.8
	c-0.8-2.4-0.9-5-0.2-7.5c0.6-2.1,1.7-4.1,3.3-5.7l13.4-13.4c2.4-2.4,5.7-3.7,9.1-3.7c1.4,0,2.7,0.2,4.1,0.7l28.7,9.6
	c3.9,1.3,8.1,1.6,12.2,0.8l38.4-7.7l0,0l25-5l3.7,18.5h0l8.6,43.1H407.5z M821.1,776.2c-4,12.9-12.7,23.5-24.6,29.9L545.5,908.7
	l-9.5-47.5l0,0l-3.1-15.7l132.2-79.2l0,0L744,719l0.1-0.1c1-0.6,2-1.3,3-1.8l0.1,0c5.8-3.3,12.1-5.4,18.6-6.2l6,1.9v-2.3
	c12.4-0.1,24.6,4.3,34,12.5l3.6-4.2l-3.6,4.2c4.3,3.7,7.9,8.1,10.8,13.2l0.1,0.1c0.1,0.2,0.2,0.4,0.3,0.6c0.2,0.3,0.3,0.6,0.5,0.9
	C823.8,749.6,825.1,763.3,821.1,776.2z M930.1,695.9l-7.5,37.6c-0.7,3.6-2.8,6.6-6,8.5c-3.1,1.9-6.9,2.3-10.4,1.2l-94-29.5
	c-12.4-10.4-28.5-15.5-44.6-14.2l-1.4-0.7l-0.5,0.3l-59-18.5c-9-2.8-16.6-9.3-20.8-17.7l-50.6-101.1V557c0.2-0.3,0.4-0.7,0.7-1
	c0.2-0.3,0.4-0.6,0.5-0.9c0.3-0.5,0.6-1.1,0.9-1.6c0.2-0.4,0.4-0.7,0.6-1.1c0.3-0.5,0.5-1,0.8-1.5c0.2-0.4,0.4-0.8,0.6-1.2
	c0.2-0.5,0.5-0.9,0.7-1.4c0.2-0.4,0.4-0.8,0.6-1.2c0.2-0.5,0.4-0.9,0.6-1.4c0.2-0.4,0.3-0.8,0.5-1.3c0.2-0.5,0.4-0.9,0.6-1.4
	c0.2-0.4,0.3-0.9,0.5-1.3c0.2-0.5,0.3-0.9,0.5-1.4c0.1-0.4,0.3-0.9,0.4-1.3c0.2-0.5,0.3-0.9,0.4-1.4c0.1-0.4,0.3-0.9,0.4-1.3
	c0.1-0.5,0.3-0.9,0.4-1.4c0.1-0.4,0.2-0.9,0.3-1.3c0.1-0.5,0.2-0.9,0.3-1.4c0.1-0.4,0.2-0.9,0.3-1.3c0.1-0.5,0.2-0.9,0.3-1.4
	c0.1-0.4,0.2-0.9,0.2-1.3c0.1-0.5,0.2-1,0.2-1.4c0.1-0.4,0.1-0.9,0.2-1.3c0.1-0.5,0.1-1,0.2-1.4c0.1-0.4,0.1-0.9,0.1-1.3
	c0-0.5,0.1-1,0.1-1.5c0-0.4,0.1-0.9,0.1-1.3c0-0.5,0.1-1,0.1-1.5c0-0.4,0-0.9,0-1.3c0-0.5,0-1,0-1.5c0-0.4,0-0.9,0-1.3
	c0-0.5,0-1,0-1.5c0-0.4,0-0.9-0.1-1.3c0-0.5,0-1-0.1-1.5c0-0.4-0.1-0.9-0.1-1.3c0-0.5-0.1-1-0.1-1.5c0-0.4-0.1-0.9-0.2-1.3
	c-0.1-0.5-0.1-1-0.2-1.5c-0.1-0.4-0.1-0.9-0.2-1.3c-0.1-0.5-0.2-1-0.2-1.5c-0.1-0.4-0.2-0.9-0.2-1.3c-0.1-0.5-0.2-1-0.3-1.5
	c-0.1-0.4-0.2-0.9-0.3-1.3c-0.1-0.5-0.2-1-0.4-1.5c-0.1-0.4-0.2-0.9-0.3-1.3c-0.1-0.5-0.3-1-0.4-1.4c-0.1-0.4-0.3-0.9-0.4-1.3
	c-0.1-0.5-0.3-1-0.5-1.4c-0.1-0.4-0.3-0.8-0.4-1.3c-0.2-0.5-0.3-0.9-0.5-1.4c-0.2-0.4-0.3-0.8-0.5-1.3c-0.2-0.5-0.4-0.9-0.6-1.4
	c-0.2-0.4-0.4-0.8-0.5-1.3c-0.2-0.5-0.4-0.9-0.6-1.4c-0.2-0.4-0.4-0.8-0.6-1.2c-0.2-0.5-0.4-0.9-0.7-1.3c-0.2-0.4-0.4-0.8-0.6-1.2
	c-0.2-0.4-0.5-0.9-0.7-1.3c-0.2-0.4-0.5-0.8-0.7-1.2c-0.2-0.4-0.5-0.9-0.8-1.3c-0.2-0.4-0.5-0.8-0.7-1.2c-0.1-0.2-0.2-0.4-0.3-0.5
	v-58.8l24,7.8c15.6,7.9,27.1,22.3,31.4,39.4l37.3,149.2l112.3,70.2c6.1,3.8,13.5,4.6,20.2,2.4l30.1-10c2.6-0.9,5.5-0.9,8.1,0
	l22.9,7.6C927.7,683.1,931.4,689.5,930.1,695.9z"/>
<path class="st5" d="M952,532c-11,0-20-9-20-20c0-79.4-22.2-156.7-64.3-223.5c-41-65.1-98.9-117.6-167.4-152.1
	c-9.9-5-13.9-17-8.9-26.8s17-13.9,26.8-8.9c75.1,37.7,138.5,95.3,183.3,166.5C947.6,340.4,972,425.1,972,512
	C972,523,963,532,952,532z"/>
<path class="st5" d="M72,532c-11,0-20-9-20-20c0-82.7,22.2-163.7,64.1-234.4c40.7-68.6,98.9-125.8,168.2-165.4
	c9.6-5.5,21.8-2.1,27.3,7.5c5.5,9.6,2.1,21.8-7.5,27.3c-63.3,36.1-116.4,88.3-153.6,151C112.2,362.5,92,436.5,92,512
	C92,523,83,532,72,532z"/>
<path class="st5" d="M512,972c-116.9,0-228.3-43.9-313.7-123.6c-8.1-7.5-8.5-20.2-1-28.3c7.5-8.1,20.2-8.5,28.3-1
	C303.5,891.9,405.3,932,512,932c108,0,210.6-40.9,288.9-115.2c8-7.6,20.7-7.3,28.3,0.8c7.6,8,7.3,20.7-0.8,28.3
	C742.7,927.2,630.3,972,512,972z"/>
</svg>
