<?xml version="1.0" encoding="utf-8"?>
<!-- Generator: Adobe Illustrator 24.0.0, SVG Export Plug-In . SVG Version: 6.00 Build 0)  -->
<svg version="1.1" id="Capa_1" xmlns="http://www.w3.org/2000/svg" xmlns:xlink="http://www.w3.org/1999/xlink" x="0px" y="0px"
	 viewBox="0 0 1024 1024" style="enable-background:new 0 0 1024 1024;" xml:space="preserve">
<style type="text/css">
	.st0{fill:#443F80;}
	.st1{fill:#FFD071;}
	.st2{fill:#F9B630;}
	.st3{fill:#C640A6;}
	.st4{fill:#F473C3;}
	.st5{fill:#9DD4A9;}
	.st6{fill:#767DD4;}
	.st7{fill:#84BFA7;}
	.st8{fill:#F9A40D;}
	.st9{fill:#B72A9C;}
	.st10{fill:#5E6ACA;}
	.st11{fill:#6DAF93;}
	.st12{fill:#FFFFFF;}
</style>
<g>
	<circle class="st0" cx="512" cy="512" r="440"/>
	<g>
		<path class="st1" d="M350.2,385.3H169.3c-19.8,0-36.1-16.2-36.1-36.1V168.3c0-19.8,16.2-36.1,36.1-36.1h180.9
			c19.8,0,36.1,16.2,36.1,36.1v180.9C386.3,369,370,385.3,350.2,385.3z"/>
		<rect x="193.2" y="192.2" class="st2" width="133.1" height="133.1"/>
		<path class="st1" d="M637.6,168.3v180.9c0.1,19.8-16.1,36.1-36,36.1h-181c-19.8,0-36.1-16.2-36.1-36.1V168.3
			c0-19.8,16.2-36.1,36.1-36.1h180.9C621.4,132.2,637.6,148.4,637.6,168.3z"/>
		<path class="st3" d="M854.7,385.3H673.8c-19.8,0-36.1-16.2-36.1-36.1V168.3c0-19.8,16.2-36.1,36.1-36.1h180.9
			c19.8,0,36.1,16.2,36.1,36.1v180.9C890.8,369,874.6,385.3,854.7,385.3z"/>
		<path class="st1" d="M350.2,638.5H169.3c-19.8,0-36.1-16.2-36.1-36.1v-181c0-19.8,16.2-36.1,36.1-36.1h180.9
			c19.8,0,36.1,16.2,36.1,36.1v180.9C386.3,622.2,370,638.5,350.2,638.5z"/>
		<path class="st4" d="M637.6,421.4v180.9c0.1,19.9-16.1,36.2-36,36.2h-181c-19.8,0-36.1-16.2-36.1-36.1v-181
			c0-19.8,16.2-36.1,36.1-36.1h180.9C621.4,385.3,637.6,401.5,637.6,421.4z"/>
		<path class="st3" d="M854.7,638.5H673.8c-19.8,0-36.1-16.2-36.1-36.1v-181c0-19.8,16.2-36.1,36.1-36.1h180.9
			c19.8,0,36.1,16.2,36.1,36.1v180.9C890.8,622.2,874.6,638.5,854.7,638.5z"/>
		<path class="st5" d="M386.3,674.8v180.9c0,2.7-0.3,5.3-0.9,7.8c-3.6,16.1-18.1,28.3-35.2,28.3h-60.5
			C225.2,854,171.3,800.2,133.2,736v-61.2c0-19.8,16.2-36.1,36.1-36.1h180.9c17.2,0,31.7,12.2,35.2,28.3
			C386,669.5,386.3,672.1,386.3,674.8z"/>
		<path class="st5" d="M637.6,674.8v180.9c0.1,19.8-16.1,36.1-36,36.1h-181c-19.8,0-36.1-16.2-36.1-36.1V674.8
			c0-19.8,16.2-36.1,36.1-36.1h180.9C621.4,638.7,637.6,655,637.6,674.8z"/>
		<path class="st6" d="M890.8,674.8v61.1c-12.8,21.5-27.3,41.9-43.4,60.9c-5.4,6.3-10.9,12.4-16.6,18.4
			c-5.4,5.7-10.9,11.2-16.6,16.6c-1.1,1.1-2.3,2.1-3.4,3.2c-7.1,6.5-14.4,12.9-21.9,19c-17.2,13.9-35.4,26.6-54.6,37.8h-60.5
			c-19.8,0-36.1-16.2-36.1-36.1V674.8c0-19.8,16.2-36.1,36.1-36.1h180.9C874.6,638.7,890.8,655,890.8,674.8z"/>
		<path class="st2" d="M637.6,168.3v180.9c0.1,19.8-16.1,36.1-36,36.1H511V132.2h90.5C621.4,132.2,637.6,148.4,637.6,168.3z"/>
		<path class="st3" d="M637.6,421.4v180.9c0.1,19.9-16.1,36.2-36,36.2H511V385.3h90.5C621.4,385.3,637.6,401.5,637.6,421.4z"/>
		<path class="st7" d="M637.6,674.8v180.9c0.1,19.8-16.1,36.1-36,36.1H511V638.7h90.5C621.4,638.7,637.6,655,637.6,674.8z"/>
		<rect x="193.2" y="442.6" class="st2" width="133.1" height="133.1"/>
		<rect x="445.5" y="192.2" class="st2" width="133.1" height="133.1"/>
		<rect x="511" y="192.2" class="st8" width="67.5" height="133.1"/>
		<rect x="697.7" y="192.2" class="st9" width="133.1" height="133.1"/>
		<rect x="697.7" y="442.6" class="st9" width="133.1" height="133.1"/>
		<path class="st10" d="M830.8,698.7v116.5c-5.4,5.7-10.9,11.2-16.6,16.6H697.7V698.7H830.8z"/>
		<polygon class="st7" points="193.2,815.2 193.2,698.7 326.3,698.7 326.3,831.8 209.8,831.8 		"/>
		<rect x="445.5" y="442.6" class="st3" width="133.1" height="133.1"/>
		<rect x="511" y="442.6" class="st9" width="67.5" height="133.1"/>
		<rect x="445.5" y="698.7" class="st7" width="133.1" height="133.1"/>
		<rect x="511" y="698.7" class="st11" width="67.5" height="133.1"/>
	</g>
</g>
<g>
	<g>
		<path class="st12" d="M326.3,187.2H193.2c-2.8,0-5,2.2-5,5v133.1c0,2.8,2.2,5,5,5h133.1c2.8,0,5-2.2,5-5V192.2
			C331.3,189.4,329.1,187.2,326.3,187.2z M321.3,320.3H198.2V197.2h123.1V320.3z"/>
		<path class="st12" d="M895.8,349.2V168.3c0-22.7-18.4-41.1-41.1-41.1H673.8c-15.6,0-29.2,8.7-36.1,21.6
			c-7-12.8-20.6-21.6-36.1-21.6H420.6c-14.9,0-28,8-35.2,19.9c-7.2-11.9-20.3-19.9-35.2-19.9H169.3c-22.7,0-41.1,18.4-41.1,41.1
			v180.9c0,15.6,8.7,29.1,21.5,36.1c-12.8,7-21.5,20.5-21.5,36.1v181c0,15.6,8.8,29.3,21.7,36.2c-12.9,6.9-21.7,20.6-21.7,36.2V736
			c0,0.9,0.2,1.8,0.7,2.6c21.1,35.5,46.9,67.8,76.7,96.1l0.7,0.7c0.1,0.1,0.2,0.1,0.3,0.2c24.5,23.1,51.5,43.5,80.6,60.6
			c0.8,0.4,1.6,0.7,2.5,0.7h60.5c14.6,0,27.9-7.9,35.2-20c7.2,12,20.3,20,35.2,20h181c11,0,21.3-4.3,29.1-12.1c2.8-2.8,5.2-6,7-9.4
			c7,12.8,20.5,21.5,36.1,21.5h60.5c0.9,0,1.8-0.2,2.5-0.7c18.9-11,37.5-23.9,55.2-38.2c7-5.7,14.2-12,22.1-19.2
			c0.1,0,0.1-0.1,0.2-0.2c0.5-0.5,1-1,1.5-1.4c0.6-0.5,1.2-1.1,1.8-1.7c0,0,0,0,0,0c0,0,0,0,0,0c0,0,0,0,0,0
			c0.2-0.2,0.4-0.4,0.6-0.6c1.2-1.2,2.5-2.3,3.7-3.5c0.5-0.5,0.9-0.9,1.4-1.4c0.9-0.9,1.9-1.8,2.8-2.7c0.5-0.5,1-1,1.5-1.6
			c2.3-2.3,4.5-4.6,6.7-6.9c0,0,0,0,0,0c5.8-6.1,11.2-12.1,16.8-18.6c16.1-19,30.9-39.7,43.9-61.6c0.5-0.8,0.7-1.7,0.7-2.6v-61.1
			c0-15.6-8.8-29.3-21.7-36.2c12.9-7,21.7-20.6,21.7-36.3V421.4c0-15.6-8.7-29.1-21.5-36.1C887.1,378.3,895.8,364.8,895.8,349.2z
			 M621,638.6c3.5-1.9,6.8-4.3,9.7-7.2c2.8-2.8,5.2-6,7-9.4c3.8,7,9.6,12.8,16.7,16.6c-7.1,3.8-12.9,9.6-16.7,16.7
			C633.8,648.2,628,642.4,621,638.6z M385.4,653.6c-3.8-6.3-9.3-11.5-15.8-15c6.5-3.5,12-8.7,15.8-15.1c3.8,6.3,9.3,11.5,15.8,15
			C394.6,642.1,389.2,647.3,385.4,653.6z M632.6,421.4v180.9c0,8.3-3.2,16.1-9.1,22c-5.9,5.9-13.7,9.2-21.9,9.2h-181
			c-14.4,0-26.6-9.9-30.1-23.2c0.5-2.6,0.8-5.3,0.8-8V421.4c0-2.7-0.3-5.4-0.8-7.9c3.5-13.3,15.7-23.2,30.1-23.2h180.9
			C618.6,390.3,632.6,404.3,632.6,421.4z M385.4,400.2c-3.8-6.2-9.2-11.4-15.6-14.9c6.4-3.5,11.8-8.7,15.6-14.9
			c3.8,6.2,9.2,11.4,15.6,14.9C394.6,388.8,389.2,394,385.4,400.2z M637.6,401.9c-3.8-7-9.5-12.7-16.5-16.5c3.4-1.9,6.6-4.3,9.5-7.1
			c2.8-2.8,5.2-6,7-9.4c3.8,7,9.5,12.7,16.5,16.5C647.2,389.1,641.4,394.9,637.6,401.9z M420.6,137.2h180.9
			c17.1,0,31.1,14,31.1,31.1v180.9c0,8.2-3.2,16-9,21.9c-5.9,5.9-13.7,9.2-22,9.2h-0.1H420.6c-14.4,0-26.6-9.9-30.1-23.2
			c0.5-2.6,0.8-5.2,0.8-7.9V168.3c0-2.7-0.3-5.4-0.8-7.9C394,147.1,406.2,137.2,420.6,137.2z M138.2,349.2V168.3
			c0-17.1,14-31.1,31.1-31.1h180.9c14.4,0,26.6,9.9,30.1,23.2c-0.5,2.6-0.8,5.2-0.8,7.9v180.9c0,2.7,0.3,5.4,0.8,7.9
			c-3.5,13.3-15.7,23.2-30.1,23.2H169.3C152.2,380.3,138.2,366.3,138.2,349.2z M138.2,602.4v-181c0-17.1,14-31.1,31.1-31.1h180.9
			c14.4,0,26.6,9.9,30.1,23.2c-0.5,2.6-0.8,5.2-0.8,7.9v181c0,2.7,0.3,5.3,0.8,7.9c-3.5,13.4-15.7,23.2-30.1,23.2H169.3
			C152.2,633.5,138.2,619.5,138.2,602.4z M198.2,813.1V703.7h123.1v123.1H211.9L198.2,813.1z M350.2,886.8h-59.1
			c-24.4-14.4-47.3-31.2-68.4-50h103.6c2.8,0,5-2.2,5-5V698.7c0-2.8-2.2-5-5-5H193.2c-2.8,0-5,2.2-5,5v103.7
			c-18.7-20.9-35.5-43.6-50-67.8v-59.8c0-17.1,14-31.1,31.1-31.1h180.9c14.1,0,26.6,9.7,30.1,23.3c-0.5,2.5-0.8,5.1-0.8,7.8v180.9
			c0,2.7,0.3,5.3,0.8,7.8C376.7,877.1,364.2,886.8,350.2,886.8z M632.6,855.7c0,8.2-3.2,16-9,21.9c-5.9,5.9-13.7,9.2-22,9.2h-181
			c-14.4,0-26.6-9.9-30.1-23.3c0.5-2.5,0.8-5.1,0.8-7.8V674.8c0-2.7-0.3-5.3-0.8-7.8c3.5-13.4,15.7-23.3,30.1-23.3h180.9
			c17.1,0,31.1,14,31.1,31.1V855.7z M825.8,813.2c-0.6,0.6-1.1,1.2-1.7,1.8c-0.4,0.4-0.8,0.9-1.3,1.3c-1.2,1.2-2.4,2.5-3.6,3.7
			c-0.1,0.1-0.1,0.1-0.2,0.2c-1.2,1.2-2.4,2.4-3.7,3.6c-0.4,0.4-0.9,0.8-1.3,1.3c-0.6,0.6-1.2,1.2-1.8,1.7H702.7V703.7h123.1V813.2z
			 M885.8,674.8v59.7c-12.5,20.9-26.7,40.8-42.2,59c-2.6,3-5.2,6-7.8,8.9V698.7c0-2.8-2.2-5-5-5H697.7c-2.8,0-5,2.2-5,5v133.1
			c0,2.8,2.2,5,5,5h103.6c-5.4,4.9-10.6,9.2-15.6,13.3c-17,13.7-34.8,26.1-52.8,36.7h-59.1c-17.1,0-31.1-14-31.1-31.1V674.8
			c0-17.1,14-31.1,31.1-31.1h180.9C871.8,643.7,885.8,657.7,885.8,674.8z M885.8,421.4v180.9c0,17.2-14,31.2-31.1,31.2H673.8
			c-17.1,0-31.1-14-31.1-31.1v-181c0-17.1,14-31.1,31.1-31.1h180.9C871.8,390.3,885.8,404.3,885.8,421.4z M854.7,380.3H673.8
			c-17.1,0-31.1-14-31.1-31.1V168.3c0-17.1,14-31.1,31.1-31.1h180.9c17.1,0,31.1,14,31.1,31.1v180.9
			C885.8,366.3,871.8,380.3,854.7,380.3z"/>
		<path class="st12" d="M193.2,580.7h133.1c2.8,0,5-2.2,5-5V442.6c0-2.8-2.2-5-5-5H193.2c-2.8,0-5,2.2-5,5v133.1
			C188.2,578.5,190.4,580.7,193.2,580.7z M198.2,447.6h123.1v123.1H198.2V447.6z"/>
		<path class="st12" d="M445.5,330.3h133.1c2.8,0,5-2.2,5-5V192.2c0-2.8-2.2-5-5-5H445.5c-2.8,0-5,2.2-5,5v133.1
			C440.5,328.1,442.7,330.3,445.5,330.3z M450.5,197.2h123.1v123.1H450.5V197.2z"/>
		<path class="st12" d="M830.8,187.2H697.7c-2.8,0-5,2.2-5,5v133.1c0,2.8,2.2,5,5,5h133.1c2.8,0,5-2.2,5-5V192.2
			C835.8,189.4,833.6,187.2,830.8,187.2z M825.8,320.3H702.7V197.2h123.1V320.3z"/>
		<path class="st12" d="M697.7,580.7h133.1c2.8,0,5-2.2,5-5V442.6c0-2.8-2.2-5-5-5H697.7c-2.8,0-5,2.2-5,5v133.1
			C692.7,578.5,694.9,580.7,697.7,580.7z M702.7,447.6h123.1v123.1H702.7V447.6z"/>
		<path class="st12" d="M445.5,580.7h133.1c2.8,0,5-2.2,5-5V442.6c0-2.8-2.2-5-5-5H445.5c-2.8,0-5,2.2-5,5v133.1
			C440.5,578.5,442.7,580.7,445.5,580.7z M450.5,447.6h123.1v123.1H450.5V447.6z"/>
		<path class="st12" d="M578.6,693.7H445.5c-2.8,0-5,2.2-5,5v133.1c0,2.8,2.2,5,5,5h133.1c2.8,0,5-2.2,5-5V698.7
			C583.6,695.9,581.4,693.7,578.6,693.7z M573.6,826.8H450.5V703.7h123.1V826.8z"/>
	</g>
	<path class="st1" d="M952,492c-11,0-20,9-20,20c0,50.7-8.9,100.3-26.6,147.3c-17,45.5-41.7,87.3-73.3,124.5
		c-8.6,10.1-17.8,19.9-27.4,29.3c-0.1,0.1-0.2,0.2-0.3,0.3c-1.3,1.3-2.6,2.6-4,3.8c-0.1,0.1-0.3,0.3-0.4,0.4
		c-0.2,0.2-0.5,0.5-0.7,0.7l-0.7,0.6c-0.1,0.1-0.2,0.1-0.2,0.2c-0.1,0.1-0.2,0.2-0.3,0.3c-0.2,0.2-0.5,0.4-0.7,0.6
		c-0.2,0.2-0.5,0.5-0.7,0.7c0,0-0.1,0-0.1,0.1c-0.6,0.6-1.2,1.1-1.8,1.7c0,0-0.1,0.1-0.1,0.1c-1.9,1.7-3.5,3.2-5,4.5
		c-0.1,0.1-0.2,0.2-0.3,0.2c-0.8,0.7-1.6,1.4-2.4,2.1c0,0-0.1,0.1-0.1,0.1c-1.4,1.2-2.7,2.4-4.1,3.5c-15.7,13.2-32.4,25.4-49.8,36.2
		c-1.3,0.8-2.5,1.5-3.8,2.3c-1.2,0.8-2.5,1.5-3.8,2.3c-0.3,0.2-0.7,0.4-1,0.6c-0.1,0-0.2,0.1-0.2,0.1C660.1,912.1,586.7,932,512,932
		s-148.1-19.9-212.2-57.5c-0.1,0-0.2-0.1-0.2-0.1c-0.3-0.2-0.7-0.4-1-0.6c-1.5-0.9-2.9-1.7-4.3-2.6c-1.5-0.9-2.9-1.8-4.3-2.7
		c-1.5-0.9-2.9-1.8-4.3-2.7c-0.1-0.1-0.2-0.1-0.2-0.2c-1.3-0.9-2.7-1.7-4-2.6c-2.8-1.8-5.6-3.7-8.4-5.6c-1.3-0.9-2.6-1.8-3.9-2.7
		c-0.1-0.1-0.2-0.1-0.2-0.2c-1.4-1-2.8-2-4.1-3c-2.6-1.9-5.4-4-8.1-6c-2.6-2-5.2-4-7.6-6c-1-0.8-2-1.6-3-2.5c0,0-0.1-0.1-0.1-0.1
		c-0.7-0.6-1.4-1.2-2.2-1.8c-2.3-1.9-4.5-3.8-6.7-5.7c-1-0.8-1.9-1.7-2.9-2.5c0,0-0.1-0.1-0.1-0.1c-3.4-3-6.9-6.2-10.4-9.5
		c-0.1-0.1-0.2-0.2-0.3-0.3c-1-0.9-2-1.9-3-2.9c-1-1-2.1-2-3.2-3.1c-1.3-1.3-2.6-2.6-4-3.9c-1.7-1.7-3.2-3.2-4.5-4.6
		c-0.1-0.1-0.1-0.1-0.2-0.2c-0.6-0.6-1.1-1.2-1.7-1.8c-0.1-0.1-0.1-0.1-0.2-0.2c-0.3-0.3-0.7-0.7-1-1c-0.1-0.1-0.2-0.2-0.3-0.3
		c-0.4-0.4-0.8-0.9-1.2-1.3c0,0-0.1-0.1-0.1-0.1c-7.4-8-14.7-16.5-21.6-25.2c-0.1-0.1-0.1-0.1-0.2-0.2c-0.6-0.7-1.2-1.5-1.7-2.2
		c-0.1-0.1-0.2-0.2-0.2-0.3c-0.6-0.8-1.2-1.6-1.8-2.4c0,0-0.1-0.1-0.1-0.1c-0.9-1.2-1.8-2.4-2.7-3.6l-0.1-0.2
		c-0.8-1.1-1.7-2.3-2.5-3.4c0-0.1-0.1-0.1-0.1-0.2l-0.7-1c-0.6-0.8-1.2-1.6-1.7-2.4c-0.1-0.1-0.1-0.2-0.2-0.2
		c-0.6-0.8-1.2-1.6-1.7-2.4c0-0.1-0.1-0.1-0.1-0.2c-1.3-1.9-2.6-3.6-3.8-5.4c-1.5-2.2-2.9-4.2-4.1-6.1l-0.5-0.7
		c-0.3-0.5-0.6-0.9-0.9-1.4c0,0-0.1-0.1-0.1-0.1c-1.1-1.6-2.1-3.3-3.1-4.9c-1-1.7-2.1-3.3-3.1-5c0,0,0,0,0,0
		c-0.1-0.1-0.1-0.2-0.2-0.3c-0.3-0.5-0.6-1-0.9-1.5l-1.5-2.4C112.2,661.3,92,587.4,92,512c0-11-9-20-20-20s-20,9-20,20
		c0,82.6,22.1,163.5,64,234.2c0,0,0,0.1,0.1,0.1l1.5,2.5c0.3,0.5,0.6,1.1,1,1.6c0.1,0.2,0.3,0.4,0.4,0.6c1.1,1.8,2.2,3.5,3.3,5.3
		c1.1,1.8,2.3,3.6,3.5,5.4c0.4,0.6,0.7,1.1,1.1,1.7l0.4,0.6c1.4,2.1,2.9,4.4,4.5,6.8c1.3,1.9,2.7,3.9,4.2,6c0.7,1,1.4,2,2.2,3.1
		c0.6,0.9,1.3,1.8,1.9,2.7l0.6,0.8c0.1,0.1,0.2,0.2,0.2,0.3c0.9,1.2,1.8,2.5,2.8,3.7l0.2,0.3c0,0,0,0.1,0.1,0.1
		c0.9,1.2,1.9,2.5,2.8,3.7c0.7,1,1.5,2,2.3,2.9c0.8,1.1,1.6,2.1,2.4,3c7.5,9.5,15.5,18.8,23.6,27.5c0.6,0.6,1.2,1.3,1.8,1.9
		c0.4,0.4,0.7,0.8,1.1,1.2c0.7,0.7,1.4,1.5,2.1,2.2c1.6,1.6,3.2,3.4,5.1,5.2c1.4,1.4,2.8,2.8,4.2,4.2c1.2,1.2,2.3,2.3,3.5,3.4
		c1.1,1.1,2.2,2.1,3.3,3.2c0,0,0.1,0.1,0.1,0.1c3.9,3.7,7.8,7.2,11.6,10.6c1.1,0.9,2.1,1.9,3.2,2.8c2.4,2.1,4.9,4.2,7.4,6.3
		c0.8,0.7,1.7,1.4,2.5,2.1c1.1,0.9,2.2,1.8,3.3,2.7c2.7,2.1,5.5,4.3,8.3,6.6c3,2.3,5.9,4.5,8.9,6.6c1.4,1,2.8,2,4.3,3.1
		c0.1,0.1,0.2,0.2,0.4,0.3c1.4,1,2.9,2,4.4,3.1c3.1,2.1,6.2,4.2,9.2,6.2c1.5,1,3,1.9,4.5,2.9l0,0c0.1,0.1,0.3,0.2,0.4,0.3
		c1.4,0.9,2.9,1.8,4.4,2.8c1.5,1,3.1,1.9,4.7,2.9c1.6,1,3.2,1.9,4.7,2.8c0.5,0.3,1,0.6,1.5,0.9C349.9,950.3,430.2,972,512,972
		s162.1-21.7,232.3-62.9c0.5-0.3,1-0.6,1.4-0.8c1.4-0.8,2.8-1.7,4.2-2.5c1.4-0.8,2.7-1.7,4.1-2.5c19-11.8,37.3-25.1,54.5-39.6
		c1.5-1.3,3-2.6,4.5-3.9c1-0.8,2-1.7,2.9-2.6c1.7-1.5,3.5-3.1,5.6-5c0.7-0.7,1.5-1.3,2.2-2c0.3-0.3,0.7-0.6,1-0.9c0,0,0,0,0,0
		c0.4-0.4,0.9-0.8,1.3-1.2l0.4-0.4c0.6-0.5,1.1-1,1.7-1.6c1.4-1.4,2.8-2.7,4.2-4.1c0.1-0.1,0.2-0.2,0.3-0.3
		c10.5-10.2,20.6-21,30-32.1c34.6-40.7,61.6-86.6,80.3-136.4C962.2,621.8,972,567.5,972,512C972,501,963,492,952,492z"/>
</g>
</svg>
