<?xml version="1.0" encoding="utf-8"?>
<!-- Generator: Adobe Illustrator 24.0.0, SVG Export Plug-In . SVG Version: 6.00 Build 0)  -->
<svg version="1.1" id="Capa_1" xmlns="http://www.w3.org/2000/svg" xmlns:xlink="http://www.w3.org/1999/xlink" x="0px" y="0px"
	 viewBox="0 0 1024 1024" style="enable-background:new 0 0 1024 1024;" xml:space="preserve">
<style type="text/css">
	.st0{fill:#9DD4A9;}
	.st1{fill:#F9B630;}
	.st2{fill:#F473C3;}
	.st3{fill:#F9A40D;}
	.st4{fill:#84BFA7;}
	.st5{fill:#C640A6;}
	.st6{fill:#FFD071;}
	.st7{fill:#906027;}
	.st8{fill:#6C9084;}
	.st9{fill:#FFFFFF;}
</style>
<g>
	<circle class="st0" cx="512" cy="512" r="440"/>
	<g>
		<path class="st1" d="M702.4,833.7H321.6l6.9-8c46.8-54.3,77.2-120.6,87.9-191.5l34-225.2h123.4l34.9,227.4
			C619.9,710,652.6,778.5,702.4,833.7z"/>
		<path class="st2" d="M663.1,300v96.7c0,17-13.8,30.9-30.9,30.9H395.5c-17,0-30.9-13.8-30.9-30.9V300H663.1z"/>
		<path class="st3" d="M702.4,833.7H512V409h61.8l34.9,227.4C619.9,710,652.6,778.5,702.4,833.7z"/>
		<rect x="364.6" y="300" class="st4" width="298.5" height="71.4"/>
		<path class="st2" d="M652.2,667.5v89.7H375.6v-89.7c0-15.8,12.8-28.6,28.6-28.6h219.4C639.4,638.9,652.2,651.7,652.2,667.5z"/>
		<path class="st4" d="M702.4,833.7v75.1c-8.6,4.1-17.4,8-26.3,11.6C625.3,940.8,570,952,512,952c-68.2,0-132.8-15.5-190.4-43.2
			v-75.1H702.4z"/>
		<path class="st5" d="M663.1,300v96.7c0,17-13.8,30.9-30.9,30.9H512V300H663.1z"/>
		<g>
			<path class="st6" d="M665.1,316.8H362.7c-13.7,0-24.1-12.3-21.9-25.8l23.8-146.1l3.2-19.3h34.9l3.5,19.5l12.1,67.9h50.2
				l24.8-75.7l10.3-31.2h20.7l10.2,31.2l24.8,75.7h50.2l12.1-67.7l3.5-19.7H660l3.1,19.1L687,291
				C689.2,304.5,678.8,316.8,665.1,316.8z"/>
			<path class="st6" d="M549.8,107.9c0,12.2-6,22.9-15.3,29.4c-5.8,4.1-12.9,6.5-20.6,6.5c-0.6,0-1.3,0-1.9,0
				c-6.9-0.4-13.3-2.7-18.7-6.4C484,130.9,478,120.1,478,108c0-19.2,15-34.9,34-35.9c0.6,0,1.3,0,1.9,0
				C533.7,72,549.8,88.1,549.8,107.9z"/>
			<circle class="st6" cx="385.5" cy="115.7" r="35.9"/>
			<path class="st7" d="M677.8,115.7c0,11.9-5.8,22.4-14.7,29c-5.9,4.4-13.3,6.9-21.2,6.9c-7.5,0-14.5-2.3-20.3-6.3
				c-9.4-6.5-15.6-17.3-15.6-29.6c0-19.8,16.1-35.9,35.9-35.9C661.7,79.8,677.8,95.9,677.8,115.7z"/>
		</g>
		<rect x="512" y="300" class="st8" width="151.1" height="71.4"/>
		<path class="st5" d="M652.2,667.5v89.7H512V638.9h111.6C639.4,638.9,652.2,651.7,652.2,667.5z"/>
		<path class="st8" d="M702.4,833.7v75.1c-8.6,4.1-17.4,8-26.3,11.6C625.3,940.8,570,952,512,952V833.7H702.4z"/>
		<path class="st1" d="M665.1,316.8H512V72c0.6,0,1.3,0,1.9,0c19.8,0,35.9,16.1,35.9,35.9c0,12.2-6,22.9-15.3,29.4l24.8,75.7h50.2
			l12.1-67.7c-9.4-6.5-15.6-17.3-15.6-29.6c0-19.8,16.1-35.9,35.9-35.9c19.8,0,35.9,16.1,35.9,35.9c0,11.9-5.8,22.4-14.7,29L687,291
			C689.2,304.5,678.8,316.8,665.1,316.8z"/>
	</g>
</g>
<g>
	<g>
		<path class="st9" d="M702.4,838.7H321.6c-2,0-3.7-1.1-4.5-2.9c-0.8-1.8-0.5-3.9,0.8-5.3l6.9-8c17.9-20.8,33.5-43.6,46.5-67.7
			c1.3-2.4,4.3-3.4,6.8-2c2.4,1.3,3.4,4.3,2,6.8c-13.2,24.7-29.2,48-47.5,69.2h358.9c-18.1-21.3-33.9-44.5-47-69.2
			c-1.3-2.4-0.4-5.5,2.1-6.8c2.4-1.3,5.5-0.4,6.8,2.1c14.4,27.2,32.3,52.6,52.9,75.5c1.3,1.5,1.7,3.6,0.9,5.4
			C706.2,837.5,704.4,838.7,702.4,838.7z"/>
		<path class="st9" d="M609.1,643.9c-2.4,0-4.5-1.8-4.9-4.2l-0.4-2.5l-32.1-208.8c-0.4-2.7,1.5-5.3,4.2-5.7c2.7-0.4,5.3,1.5,5.7,4.2
			L614,638.1c0.4,2.7-1.4,5.3-4.2,5.7C609.6,643.9,609.3,643.9,609.1,643.9z"/>
		<path class="st9" d="M415.7,643.9c-0.3,0-0.6,0-0.9-0.1c-2.7-0.5-4.5-3.1-4.1-5.8c0.3-1.5,0.5-3.1,0.7-4.6l31.2-206.6
			c0.4-2.7,3-4.6,5.7-4.2c2.7,0.4,4.6,3,4.2,5.7l-31.2,206.6c-0.2,1.6-0.5,3.2-0.8,4.8C420.2,642.2,418,643.9,415.7,643.9z"/>
		<path class="st9" d="M632.2,432.6H395.5c-19.8,0-35.9-16.1-35.9-35.9v-79.9c0-2.8,2.2-5,5-5s5,2.2,5,5v79.9
			c0,14.3,11.6,25.9,25.9,25.9h236.7c14.3,0,25.9-11.6,25.9-25.9v-79.9c0-2.8,2.2-5,5-5s5,2.2,5,5v79.9
			C668.1,416.5,652,432.6,632.2,432.6z"/>
		<path class="st9" d="M663.1,376.4H364.6c-2.8,0-5-2.2-5-5v-54.6c0-2.8,2.2-5,5-5s5,2.2,5,5v49.6h288.5v-49.6c0-2.8,2.2-5,5-5
			s5,2.2,5,5v54.6C668.1,374.2,665.9,376.4,663.1,376.4z"/>
		<path class="st9" d="M652.2,762.2H375.6c-2.8,0-5-2.2-5-5v-89.7c0-18.5,15.1-33.6,33.6-33.6h219.4c18.5,0,33.6,15.1,33.6,33.6
			v89.7C657.2,760,655,762.2,652.2,762.2z M380.6,752.2h266.6v-84.7c0-13-10.6-23.6-23.6-23.6H404.2c-13,0-23.6,10.6-23.6,23.6
			V752.2z"/>
		<path class="st9" d="M512,957c-67.5,0-132.3-14.7-192.6-43.7c-1.7-0.8-2.8-2.6-2.8-4.5v-75.1c0-2.8,2.2-5,5-5h380.8
			c2.8,0,5,2.2,5,5v75.1c0,1.9-1.1,3.7-2.8,4.5c-8.9,4.3-17.9,8.2-26.6,11.7C625.2,946.2,569.3,957,512,957z M326.6,905.6
			C384.7,933.1,447.1,947,512,947c56,0,110.6-10.5,162.2-31.2c7.6-3.1,15.4-6.5,23.2-10.1v-66.9H326.6V905.6z"/>
		<g>
			<path class="st9" d="M468.5,218h-50.2c-2.4,0-4.5-1.7-4.9-4.1L401.3,146c-0.5-2.7,1.2-5.3,3.9-5.8c2.7-0.6,5.3,1.2,5.9,3.9l0,0.1
				c0,0,0,0.1,0,0.1l11.4,63.8h42.4l23.6-72.2c0.9-2.6,3.7-4.1,6.3-3.2c2.6,0.9,4.1,3.7,3.2,6.3l-24.8,75.6
				C472.6,216.6,470.7,218,468.5,218z"/>
			<path class="st9" d="M665.1,321.8H362.7c-8,0-15.5-3.5-20.7-9.6c-5.2-6.1-7.4-14.1-6.1-22l23.8-146.1c0.4-2.7,3-4.6,5.7-4.1
				c2.7,0.4,4.6,3,4.1,5.7l-23.8,146.1c-0.8,5,0.6,10.1,3.9,13.9c3.3,3.8,8,6.1,13.1,6.1h302.4c5,0,9.8-2.2,13.1-6.1
				c3.3-3.9,4.7-8.9,3.9-13.9l-23.9-146.3c-0.4-2.7,1.4-5.3,4.1-5.7c2.7-0.4,5.3,1.4,5.7,4.1l23.9,146.3c1.3,7.9-0.9,15.9-6.1,22
				C680.6,318.3,673.1,321.8,665.1,321.8z"/>
			<path class="st9" d="M609.5,218h-50.2c-2.2,0-4.1-1.4-4.8-3.4l-24.8-75.7c-0.9-2.6,0.6-5.4,3.2-6.3c2.6-0.9,5.4,0.6,6.3,3.2
				l23.7,72.3h42.4l11.4-63.6c0.5-2.7,3.1-4.5,5.8-4c2.7,0.5,4.5,3.1,4,5.8l-12.1,67.7C614,216.3,611.9,218,609.5,218z"/>
			<path class="st9" d="M513.9,148.8H512c-0.1,0-0.2,0-0.3,0c-7.6-0.4-14.9-3-21.2-7.3c-11-7.7-17.5-20.2-17.5-33.5
				c0-21.8,17-39.7,38.7-40.9c0.1,0,0.2,0,0.3,0h1.9C524.8,67,535,71.3,542.8,79c7.8,7.7,12,18,12,28.9c0,13.3-6.5,25.9-17.4,33.5
				C530.5,146.2,522.4,148.8,513.9,148.8z M512.1,138.8h1.8c6.4,0,12.5-1.9,17.7-5.6c8.3-5.8,13.2-15.2,13.2-25.3
				c0-8.3-3.2-16-9.1-21.9c-5.8-5.8-13.5-8.9-21.6-8.9c-0.1,0-0.1,0-0.2,0h-1.8C495.8,78,483,91.6,483,108
				c0,10.1,4.9,19.5,13.2,25.3C500.9,136.5,506.4,138.4,512.1,138.8z"/>
			<path class="st9" d="M385.5,156.6c-22.6,0-40.9-18.3-40.9-40.9c0-22.6,18.3-40.9,40.9-40.9s40.9,18.3,40.9,40.9
				C426.4,138.3,408.1,156.6,385.5,156.6z M385.5,84.8c-17,0-30.9,13.9-30.9,30.9c0,17,13.9,30.9,30.9,30.9s30.9-13.9,30.9-30.9
				C416.4,98.7,402.5,84.8,385.5,84.8z"/>
			<path class="st9" d="M641.9,156.6c-8.3,0-16.3-2.5-23.1-7.2c-11.1-7.7-17.8-20.3-17.8-33.7c0-22.6,18.3-40.9,40.9-40.9
				c22.6,0,40.9,18.3,40.9,40.9c0,13.1-6.1,25.1-16.7,33C659.3,153.8,650.7,156.6,641.9,156.6z M641.9,84.8
				c-17,0-30.9,13.9-30.9,30.9c0,10.1,5,19.7,13.4,25.5c5.1,3.5,11.2,5.4,17.5,5.4c6.6,0,13.1-2.1,18.2-5.9c8.1-6,12.7-15.1,12.7-25
				C672.8,98.7,658.9,84.8,641.9,84.8z"/>
		</g>
	</g>
	<path class="st2" d="M512,972c-1,0-2,0-2.9,0l-0.8,0c-0.7,0-1.3,0-2,0c-5-0.1-10.2-0.2-15.4-0.4c-1,0-2-0.1-3-0.1
		c-4.9-0.2-9.8-0.6-14.5-1l-1.8-0.1c-7-0.6-14.1-1.4-21.2-2.3c-0.1,0-0.1,0-0.2,0l-3.4-0.5c-0.6-0.1-1.3-0.2-1.9-0.3
		c-1-0.1-1.9-0.3-2.9-0.4c-3.7-0.6-7.5-1.2-11.3-1.9l-0.2,0c-1.9-0.3-3.6-0.7-5.4-1c-38.8-7.4-76.5-19.9-112.1-37
		c-77-37-142.1-94.6-188.3-166.7C77.1,686.1,52,600.3,52,512c0-117.1,44.1-228.7,124-314.2c7.5-8.1,20.2-8.5,28.3-0.9
		c8.1,7.5,8.5,20.2,0.9,28.3C132.2,303.2,92,405,92,512c0,80.6,22.9,159,66.3,226.5c42.2,65.8,101.7,118.4,172,152.2
		c32.5,15.6,66.8,27,102.2,33.7c1.6,0.3,3.3,0.6,4.9,0.9c0.1,0,0.1,0,0.2,0c3.5,0.6,7,1.2,10.4,1.7c0.8,0.1,1.7,0.3,2.5,0.4
		c0.1,0,0.2,0,0.3,0c0.5,0.1,1,0.1,1.4,0.2l3.4,0.5c6.5,0.9,12.9,1.6,19.2,2.1l1.7,0.1c4.4,0.4,8.8,0.7,13.3,0.9
		c0.8,0,1.6,0.1,2.4,0.1c0.1,0,0.2,0,0.3,0c4.9,0.2,9.7,0.4,14.2,0.4c0.1,0,0.2,0,0.3,0c0.5,0,1,0,1.5,0l1,0c0.8,0,1.7,0,2.5,0
		c6.6,0,13.2-0.2,19.7-0.5c0.1,0,0.1,0,0.2,0c0.9,0,1.7-0.1,2.6-0.1c0.2,0,0.3,0,0.5,0c0.3,0,0.6,0,0.9-0.1c0.2,0,0.3,0,0.5,0
		c0.7,0,1.4-0.1,2.1-0.1c1.7-0.1,3.3-0.2,4.9-0.3c1.1-0.1,2.2-0.2,3.2-0.3c0.1,0,0.3,0,0.4,0c0.6,0,1.1-0.1,1.7-0.1
		c0.1,0,0.1,0,0.2,0c1-0.1,1.9-0.2,2.9-0.3c0.1,0,0.2,0,0.2,0l0.7-0.1c0.3,0,0.7-0.1,1-0.1c0.2,0,0.3,0,0.5,0
		c0.6-0.1,1.3-0.1,1.9-0.2c0.1,0,0.2,0,0.3,0c1.2-0.1,2.4-0.3,3.6-0.4c0.1,0,0.2,0,0.3,0c0.1,0,0.2,0,0.3,0
		c3.7-0.4,7.3-0.9,10.7-1.4c1.3-0.2,2.6-0.4,3.8-0.6c0.1,0,0.1,0,0.2,0c2-0.3,3.9-0.6,5.9-0.9c0,0,0.1,0,0.1,0
		c0.6-0.1,1.3-0.2,1.9-0.3c4.5-0.8,9-1.6,13.4-2.5l2.3-0.5c0,0,0.1,0,0.1,0c1.2-0.2,2.4-0.5,3.6-0.8c0.1,0,0.1,0,0.2,0
		c1.3-0.3,2.6-0.6,3.9-0.9c0.2,0,0.3-0.1,0.5-0.1c1.6-0.4,3.2-0.8,4.8-1.1c0.1,0,0.2,0,0.3-0.1c0.2,0,0.4-0.1,0.7-0.2
		c0,0,0.1,0,0.1,0c0.9-0.2,1.9-0.5,2.8-0.7l0.2-0.1c0.1,0,0.2,0,0.3-0.1c0.3-0.1,0.6-0.1,0.8-0.2c3.5-0.9,6.6-1.7,9.6-2.6
		c1.3-0.4,2.6-0.7,3.9-1.1c0,0,0.1,0,0.1,0c1-0.3,1.9-0.6,2.9-0.9l0.5-0.1c0,0,0.1,0,0.1,0l-0.1,0c0.1,0,0.3-0.1,0.4-0.1l3.4-1
		c0.2-0.1,0.3-0.1,0.5-0.2c1.1-0.3,2.1-0.7,3.2-1l0.3-0.1c0,0,0.1,0,0.1,0c0.7-0.2,1.4-0.5,2.1-0.7c0.1,0,0.2-0.1,0.3-0.1
		c0.8-0.2,1.5-0.5,2.2-0.8c0.1,0,0.2-0.1,0.3-0.1c0.7-0.2,1.4-0.5,2.2-0.7c0.1,0,0.1,0,0.2-0.1c0.8-0.3,1.6-0.5,2.4-0.8
		c0.1,0,0.1,0,0.2-0.1c0.7-0.2,1.4-0.5,2.1-0.7c0.1,0,0.1-0.1,0.2-0.1c0.6-0.2,1.3-0.5,1.9-0.7l0.5-0.2c5.9-2.1,11.6-4.4,17.2-6.7
		l2.9-1.2c0.7-0.3,1.4-0.6,2.1-0.9l0.7-0.3c2.1-0.9,4.2-1.8,6.3-2.8l1.2-0.5c0.9-0.4,1.8-0.8,2.6-1.2l2.3-1.1c0.6-0.3,1.3-0.6,2-0.9
		C764,857,823.5,804.3,865.7,738.5C909.1,671,932,592.6,932,512c0-108.3-41.1-211.1-115.7-289.5c-7.6-8-7.3-20.7,0.7-28.3
		c8-7.6,20.7-7.3,28.3,0.7C927,280.8,972,393.4,972,512c0,88.3-25.1,174.1-72.6,248.1c-46.2,72-111.4,129.7-188.3,166.7
		c-0.7,0.4-1.5,0.7-2.4,1.1l-2.3,1.1c-1,0.5-2,0.9-3,1.4l-1.1,0.5c-2.1,0.9-4.2,1.9-7,3.1l-0.7,0.3c-0.8,0.3-1.6,0.7-2.4,1l-3,1.3
		c0,0-0.1,0-0.1,0c-6.1,2.5-12.4,5-18.9,7.4l-0.5,0.2c-0.7,0.3-1.4,0.5-2.1,0.8c-0.9,0.3-1.9,0.7-2.8,1c-0.8,0.3-1.7,0.6-2.5,0.9
		c-0.9,0.3-1.8,0.6-2.7,0.9c-0.9,0.3-1.8,0.6-2.6,0.9c-0.9,0.3-1.9,0.6-2.8,0.9l-0.2,0.1c-1,0.3-2,0.6-3,1c-0.4,0.1-0.8,0.3-1.1,0.4
		l-3.2,1c-0.3,0.1-0.6,0.2-0.9,0.3l-0.4,0.1c-1.1,0.3-2.1,0.6-3.2,0.9c-1.4,0.4-2.9,0.8-4.3,1.3c-3.3,0.9-6.7,1.9-10.4,2.8
		c-0.5,0.1-1,0.2-1.5,0.4l-0.1,0c-1,0.3-2.1,0.5-3.1,0.8c-0.4,0.1-0.8,0.2-1.2,0.3c-1.7,0.4-3.3,0.8-5,1.2c-0.3,0.1-0.7,0.2-1,0.2
		c-1.3,0.3-2.7,0.6-4,0.9c-1.4,0.3-2.9,0.6-4.3,0.9l-2.3,0.5c-4.9,1-9.8,1.9-14.7,2.8c-0.7,0.1-1.5,0.3-2.3,0.4
		c-2.2,0.4-4.4,0.7-6.5,1c-1.4,0.2-2.8,0.4-4.3,0.6c-3.6,0.5-7.5,1-11.4,1.5c-0.2,0-0.4,0.1-0.6,0.1c-0.3,0-0.6,0.1-0.8,0.1
		c-1.2,0.1-2.4,0.3-3.6,0.4c-0.8,0.1-1.7,0.2-2.5,0.3c-0.5,0.1-1,0.1-1.5,0.1l-0.5,0c-0.2,0-0.4,0-0.7,0.1c-1,0.1-2,0.2-3,0.3
		c-0.8,0.1-1.7,0.2-2.5,0.2c-1.2,0.1-2.3,0.2-3.5,0.3c0,0-0.1,0-0.1,0c-1.8,0.1-3.6,0.3-5.3,0.4c-0.7,0-1.5,0.1-2.4,0.1
		c-0.6,0-1.3,0.1-1.9,0.1c-1,0.1-2.1,0.1-3.1,0.2C526.4,971.8,519.2,972,512,972z M549.1,930.6C549,930.6,549,930.6,549.1,930.6
		C549,930.6,549,930.6,549.1,930.6z M549.1,930.6C549.1,930.6,549.1,930.6,549.1,930.6C549.1,930.6,549.1,930.6,549.1,930.6z
		 M549.1,930.6C549.1,930.6,549.1,930.6,549.1,930.6C549.1,930.6,549.1,930.6,549.1,930.6z M549.3,930.5c0,0-0.1,0-0.1,0
		C549.2,930.6,549.2,930.6,549.3,930.5z M549.3,930.5C549.3,930.5,549.3,930.5,549.3,930.5C549.3,930.5,549.3,930.5,549.3,930.5z
		 M549.3,930.5C549.3,930.5,549.3,930.5,549.3,930.5C549.3,930.5,549.3,930.5,549.3,930.5z M553.6,930
		C553.6,930,553.6,930,553.6,930C553.6,930,553.6,930,553.6,930z M558.5,929.5C558.5,929.5,558.5,929.5,558.5,929.5
		C558.5,929.5,558.5,929.5,558.5,929.5z M558.9,929.5C558.9,929.5,558.9,929.5,558.9,929.5C558.9,929.5,558.9,929.5,558.9,929.5z
		 M562.1,929.2C562.1,929.2,562.1,929.2,562.1,929.2C562.1,929.2,562.1,929.2,562.1,929.2z M562.2,929.2
		C562.2,929.2,562.2,929.2,562.2,929.2C562.2,929.2,562.2,929.2,562.2,929.2z M600.6,923.9C600.6,923.9,600.5,923.9,600.6,923.9
		C600.5,923.9,600.6,923.9,600.6,923.9z M600.6,923.9C600.6,923.9,600.6,923.9,600.6,923.9C600.6,923.9,600.6,923.9,600.6,923.9z
		 M600.7,923.8C600.6,923.8,600.6,923.9,600.7,923.8C600.6,923.9,600.6,923.8,600.7,923.8z M604.9,921.8c-1.5,0.5-2.9,1.2-4.3,2
		C602,923,603.4,922.3,604.9,921.8z M605,921.8C605,921.8,605,921.8,605,921.8C605,921.8,605,921.8,605,921.8z M611.1,920.8
		C611.1,920.8,611.1,920.8,611.1,920.8C611.1,920.8,611.1,920.8,611.1,920.8z M611.2,920.8C611.2,920.8,611.2,920.8,611.2,920.8
		C611.2,920.8,611.2,920.8,611.2,920.8z M611.2,920.8C611.2,920.8,611.2,920.8,611.2,920.8C611.2,920.8,611.2,920.8,611.2,920.8z
		 M681.3,918.2L681.3,918.2L681.3,918.2z M636.7,913.2C636.7,913.3,636.7,913.3,636.7,913.2C636.7,913.3,636.7,913.3,636.7,913.2z"
		/>
</g>
</svg>
