<?xml version="1.0" encoding="utf-8"?>
<!-- Generator: Adobe Illustrator 24.0.0, SVG Export Plug-In . SVG Version: 6.00 Build 0)  -->
<svg version="1.1" id="Capa_1" xmlns="http://www.w3.org/2000/svg" xmlns:xlink="http://www.w3.org/1999/xlink" x="0px" y="0px"
	 viewBox="0 0 1024 1024" style="enable-background:new 0 0 1024 1024;" xml:space="preserve">
<style type="text/css">
	.st0{fill:#443F80;}
	.st1{fill:#FFD071;}
	.st2{fill:#F9B630;}
	.st3{fill:#C640A6;}
	.st4{fill:#F473C3;}
	.st5{fill:#9DD4A9;}
	.st6{fill:#767DD4;}
	.st7{fill:#84BFA7;}
	.st8{fill:#F9A40D;}
	.st9{fill:#B72A9C;}
	.st10{fill:#5E6ACA;}
	.st11{fill:#6DAF93;}
</style>
<circle class="st0" cx="512" cy="512" r="440"/>
<g>
	<path class="st1" d="M350.2,385.3H169.3c-19.8,0-36.1-16.2-36.1-36.1V168.3c0-19.8,16.2-36.1,36.1-36.1h180.9
		c19.8,0,36.1,16.2,36.1,36.1v180.9C386.3,369,370,385.3,350.2,385.3z"/>
	<rect x="193.2" y="192.2" class="st2" width="133.1" height="133.1"/>
	<path class="st1" d="M637.6,168.3v180.9c0.1,19.8-16.1,36.1-36,36.1h-181c-19.8,0-36.1-16.2-36.1-36.1V168.3
		c0-19.8,16.2-36.1,36.1-36.1h180.9C621.4,132.2,637.6,148.4,637.6,168.3z"/>
	<path class="st3" d="M854.7,385.3H673.8c-19.8,0-36.1-16.2-36.1-36.1V168.3c0-19.8,16.2-36.1,36.1-36.1h180.9
		c19.8,0,36.1,16.2,36.1,36.1v180.9C890.8,369,874.6,385.3,854.7,385.3z"/>
	<path class="st1" d="M350.2,638.5H169.3c-19.8,0-36.1-16.2-36.1-36.1v-181c0-19.8,16.2-36.1,36.1-36.1h180.9
		c19.8,0,36.1,16.2,36.1,36.1v180.9C386.3,622.2,370,638.5,350.2,638.5z"/>
	<path class="st4" d="M637.6,421.4v180.9c0.1,19.9-16.1,36.2-36,36.2h-181c-19.8,0-36.1-16.2-36.1-36.1v-181
		c0-19.8,16.2-36.1,36.1-36.1h180.9C621.4,385.3,637.6,401.5,637.6,421.4z"/>
	<path class="st3" d="M854.7,638.5H673.8c-19.8,0-36.1-16.2-36.1-36.1v-181c0-19.8,16.2-36.1,36.1-36.1h180.9
		c19.8,0,36.1,16.2,36.1,36.1v180.9C890.8,622.2,874.6,638.5,854.7,638.5z"/>
	<path class="st5" d="M386.3,674.8v180.9c0,2.7-0.3,5.3-0.9,7.8c-3.6,16.1-18.1,28.3-35.2,28.3h-60.5
		C225.2,854,171.3,800.2,133.2,736v-61.2c0-19.8,16.2-36.1,36.1-36.1h180.9c17.2,0,31.7,12.2,35.2,28.3
		C386,669.5,386.3,672.1,386.3,674.8z"/>
	<path class="st5" d="M637.6,674.8v180.9c0.1,19.8-16.1,36.1-36,36.1h-181c-19.8,0-36.1-16.2-36.1-36.1V674.8
		c0-19.8,16.2-36.1,36.1-36.1h180.9C621.4,638.7,637.6,655,637.6,674.8z"/>
	<path class="st6" d="M890.8,674.8v61.1c-12.8,21.5-27.3,41.9-43.4,60.9c-5.4,6.3-10.9,12.4-16.6,18.4c-5.4,5.7-10.9,11.2-16.6,16.6
		c-1.1,1.1-2.3,2.1-3.4,3.2c-7.1,6.5-14.4,12.9-21.9,19c-17.2,13.9-35.4,26.6-54.6,37.8h-60.5c-19.8,0-36.1-16.2-36.1-36.1V674.8
		c0-19.8,16.2-36.1,36.1-36.1h180.9C874.6,638.7,890.8,655,890.8,674.8z"/>
	<path class="st2" d="M637.6,168.3v180.9c0.1,19.8-16.1,36.1-36,36.1H511V132.2h90.5C621.4,132.2,637.6,148.4,637.6,168.3z"/>
	<path class="st3" d="M637.6,421.4v180.9c0.1,19.9-16.1,36.2-36,36.2H511V385.3h90.5C621.4,385.3,637.6,401.5,637.6,421.4z"/>
	<path class="st7" d="M637.6,674.8v180.9c0.1,19.8-16.1,36.1-36,36.1H511V638.7h90.5C621.4,638.7,637.6,655,637.6,674.8z"/>
	<rect x="193.2" y="442.6" class="st2" width="133.1" height="133.1"/>
	<rect x="445.5" y="192.2" class="st2" width="133.1" height="133.1"/>
	<rect x="511" y="192.2" class="st8" width="67.5" height="133.1"/>
	<rect x="697.7" y="192.2" class="st9" width="133.1" height="133.1"/>
	<rect x="697.7" y="442.6" class="st9" width="133.1" height="133.1"/>
	<path class="st10" d="M830.8,698.7v116.5c-5.4,5.7-10.9,11.2-16.6,16.6H697.7V698.7H830.8z"/>
	<polygon class="st7" points="193.2,815.2 193.2,698.7 326.3,698.7 326.3,831.8 209.8,831.8 	"/>
	<rect x="445.5" y="442.6" class="st3" width="133.1" height="133.1"/>
	<rect x="511" y="442.6" class="st9" width="67.5" height="133.1"/>
	<rect x="445.5" y="698.7" class="st7" width="133.1" height="133.1"/>
	<rect x="511" y="698.7" class="st11" width="67.5" height="133.1"/>
</g>
</svg>
