<?xml version="1.0" encoding="utf-8"?>
<!-- Generator: Adobe Illustrator 24.0.0, SVG Export Plug-In . SVG Version: 6.00 Build 0)  -->
<svg version="1.1" id="Capa_1" xmlns="http://www.w3.org/2000/svg" xmlns:xlink="http://www.w3.org/1999/xlink" x="0px" y="0px"
	 viewBox="0 0 1024 1024" style="enable-background:new 0 0 1024 1024;" xml:space="preserve">
<style type="text/css">
	.st0{fill:#BAE4FA;}
	.st1{fill:#534A9A;}
	.st2{fill:#A5C6FF;}
	.st3{fill:#F9F7FC;}
	.st4{fill:#767DD4;}
	.st5{fill:#FFD071;}
	.st6{fill:#5E6ACA;}
</style>
<circle class="st0" cx="512" cy="512" r="440"/>
<g>
	<path class="st1" d="M952,512c0,58.4-11.3,114-31.9,165c-10.2,25.2-22.6,49.1-37.1,71.7c-4.5,7.1-9.2,14-14.2,20.8
		c-7.6,10.5-15.6,20.6-24,30.4c-1.5,1.7-3,3.4-4.5,5c-8.7,9.7-17.8,19-27.2,28c-0.7,0.7-1.5,1.4-2.2,2.1
		c-39,36.1-84.6,65.3-134.8,85.4C625.3,940.8,570,952,512,952c-90.8,0-175.2-27.5-245.2-74.7c-4.5-3-9-6.2-13.5-9.4
		c-23.3-17-44.9-36.2-64.4-57.3V132.7h546.3c3,1.8,6.1,3.6,9.1,5.5c7.7,4.8,15.2,9.8,22.6,15.1c4.5,3.2,9,6.5,13.4,9.9
		c2.6,2,5.2,4,7.8,6.1c0.2,0.1,0.3,0.3,0.5,0.4c4,3.3,8,6.6,12,10.1c2.3,2,4.6,4,6.9,6.1l0.3,0.3c1.2,1,2.4,2.1,3.5,3.2
		c0.6,0.6,1.2,1.1,1.8,1.7c6.7,6.2,13.1,12.7,19.4,19.3c19.6,20.8,37.2,43.5,52.5,67.9c4,6.3,7.8,12.7,11.4,19.3
		c6.2,11.1,12,22.6,17.3,34.3c0.8,1.9,1.7,3.7,2.5,5.6c0.7,1.7,1.5,3.4,2.2,5.1c3.2,7.5,6.1,15.2,8.8,22.8c4.8,13.7,9,27.7,12.5,42
		C947.7,440.9,952,475.9,952,512z"/>
	<path class="st2" d="M952,512c0,58.4-11.3,114-31.9,165c-10.2,25.2-22.6,49.1-37.1,71.7c-4.5,7.1-9.2,14-14.2,20.8
		c-7.6,10.5-15.6,20.6-24,30.4c-1.5,1.7-3,3.4-4.5,5c-8.7,9.7-17.8,19-27.2,28c-0.7,0.7-1.5,1.4-2.2,2.1
		c-39,36.1-84.6,65.3-134.8,85.4C625.3,940.8,570,952,512,952c-90.8,0-175.2-27.5-245.2-74.7V210.4h565.6
		c19.6,20.8,37.2,43.5,52.5,67.9c4,6.3,7.8,12.7,11.4,19.3c6.2,11.1,12,22.6,17.3,34.3c0.8,1.9,1.7,3.7,2.5,5.6
		c0.7,1.7,1.5,3.4,2.2,5.1c3.2,7.5,6.1,15.2,8.8,22.8c4.8,13.7,9,27.7,12.5,42C947.7,440.9,952,475.9,952,512z"/>
</g>
<g>
	<path class="st3" d="M928.9,464.1c0,10.7-0.6,21.2-1.6,31.5c-4.5,43.5-18.2,84.3-39.1,120.4c-7.5,13-15.9,25.3-25.2,37
		c-34,42.8-79.3,76.1-131.5,95.6c-13.9,5.2-28.2,9.4-43,12.5c-20.4,4.3-41.6,6.6-63.3,6.6s-42.8-2.3-63.2-6.6
		c-14.8-3.1-29.1-7.3-43-12.5c-52.1-19.4-97.4-52.8-131.5-95.5c-9.3-11.7-17.7-24-25.2-37c-20.9-36.1-34.6-76.9-39.1-120.5
		c-1.1-10.4-1.6-20.9-1.6-31.6c0-4.4,0.1-8.8,0.3-13.1c2.4-57,20.6-110,50.2-154.6c8.3-12.5,17.4-24.3,27.4-35.4
		c28.3-31.5,63.2-57,102.4-74.4c13.5-6,27.6-11.1,42.1-15.1c25.9-7.2,53.1-11,81.2-11c28.2,0,55.5,3.8,81.4,11
		c14.5,4,28.6,9.1,42.1,15.1c39.2,17.5,73.9,43,102.2,74.4c10,11.1,19.2,22.9,27.4,35.4c29.6,44.6,47.7,97.5,50.1,154.4
		C928.8,455.2,928.9,459.7,928.9,464.1z"/>
	<path class="st4" d="M625.4,347.8l-113.9,82.7L555,564.4h140.8l43.5-133.9L625.4,347.8z"/>
	<g>
		<g>
			<path class="st5" d="M730.3,179.1l-104.9,76.2l-104.9-76.2c32.7-12,68-18.6,104.9-18.6C662.3,160.4,697.6,167,730.3,179.1z"/>
			<g>
				<path class="st5" d="M426.8,399.6L322,475.7c-0.2-3.8-0.3-7.7-0.3-11.6c0-70.9,24.3-136.1,65-187.8L426.8,399.6z"/>
				<path class="st5" d="M542.7,756.4c-70.2-19.8-130.1-64.2-169.7-123.3h129.6L542.7,756.4z"/>
				<path class="st5" d="M877.7,633c-39.6,59.1-99.5,103.5-169.7,123.3L748.1,633H877.7z"/>
			</g>
			<path class="st5" d="M929.1,464.1c0,3.9-0.1,7.8-0.3,11.6L824,399.6l40-123.3C904.8,328,929.1,393.2,929.1,464.1L929.1,464.1z"/>
		</g>
	</g>
	<path class="st6" d="M928.6,450.8L847.5,392l31-95.5c-8.3-12.5-17.4-24.3-27.4-35.4c-2.7,2.3-4.9,5.4-6.1,9.1l-37,114l-65.5,23.9
		l-97-70.5v-72.1l96.6-70.2c3.1-2.3,5.4-5.3,6.8-8.6c-13.5-6-27.6-11.1-42.1-15.1l-81.3,59l-81.3-59.1c-14.5,4-28.6,9.1-42.1,15.1
		c1.3,3.4,3.6,6.4,6.8,8.7l96.7,70.2v72.1l-97,70.5l-65.5-23.9l-37.1-114c-1.2-3.7-3.4-6.8-6.1-9.1c-10,11.1-19.1,22.9-27.4,35.4
		l31.1,95.6L322,451c-0.2,4.3-0.3,8.7-0.3,13.1c0,10.7,0.5,21.2,1.6,31.6c3.6-0.2,7.2-1.5,10.4-3.8l96.2-69.8l65.5,23.9l37.2,114.7
		l-40,52.5H373c-3.9,0-7.5,1.1-10.6,3c7.5,13,16,25.3,25.2,37H488l31.1,95.5c13.9,5.2,28.2,9.4,43,12.5c0.8-3.5,0.8-7.2-0.4-10.9
		L524.8,637l40-52.5h121l39.9,52.4L689,750.1c-1.2,3.7-1.3,7.5-0.4,11c14.7-3.1,29.1-7.3,43-12.5l31.1-95.6H863
		c9.3-11.7,17.7-24,25.2-37c-3.1-1.9-6.7-3-10.5-3H758l-39.9-52.4L755.3,446l65.5-23.9l96.2,69.8c3.1,2.3,6.7,3.5,10.2,3.8
		c1.1-10.4,1.6-20.9,1.6-31.5C928.9,459.7,928.8,455.2,928.6,450.8z M681.3,544.4H569.5L535,438.1l90.4-65.6l90.4,65.6L681.3,544.4z
		"/>
</g>
</svg>
