<?xml version="1.0" encoding="utf-8"?>
<!-- Generator: Adobe Illustrator 24.0.0, SVG Export Plug-In . SVG Version: 6.00 Build 0)  -->
<svg version="1.1" id="Capa_1" xmlns="http://www.w3.org/2000/svg" xmlns:xlink="http://www.w3.org/1999/xlink" x="0px" y="0px"
	 viewBox="0 0 1024 1024" style="enable-background:new 0 0 1024 1024;" xml:space="preserve">
<style type="text/css">
	.st0{fill:#A5C6FF;}
	.st1{fill:#534A9A;}
	.st2{fill:#443F80;}
	.st3{fill:#767DD4;}
	.st4{fill:#F9F7FC;}
	.st5{fill:#BAE4FA;}
	.st6{fill:#9DD4A9;}
	.st7{fill:#FFD071;}
	.st8{fill:#F473C3;}
	.st9{fill:#C640A6;}
	.st10{fill:#F9B630;}
	.st11{fill:#84BFA7;}
	.st12{fill:#5E6ACA;}
</style>
<path class="st0" d="M952,512c0,80.9-21.8,156.8-60,221.9c-17.9,30.6-39.4,58.8-63.9,84.1c-80,82.6-192.1,134-316.2,134
	s-236.2-51.4-316.2-134c-24.5-25.3-46-53.5-63.9-84.1c-38.1-65.2-60-141-60-221.9C72,269,269,72,512,72S952,269,952,512z"/>
<g>
	<g>
		<path class="st1" d="M167.1,755.6V446.4c0-21.6,17.6-39.2,39.2-39.2h5.7c21.6,0,39.2,17.6,39.2,39.2v309.3
			c0,21.6-17.6,39.2-39.2,39.2h-5.7C184.7,794.8,167.1,777.2,167.1,755.6z"/>
		<path class="st2" d="M772.8,755.6V446.4c0-21.6,17.6-39.2,39.2-39.2h5.7c21.6,0,39.2,17.6,39.2,39.2v309.3
			c0,21.6-17.6,39.2-39.2,39.2H812C790.4,794.8,772.8,777.2,772.8,755.6z"/>
	</g>
	<path class="st3" d="M892,733.9c-17.9,30.6-39.4,58.8-63.9,84.1H195.8c-24.5-25.3-46-53.5-63.9-84.1H892z"/>
	<g>
		<path class="st4" d="M565.1,650.3c0,29.4-23.8,53.1-53.1,53.1c-0.6,0-1.2,0-1.8,0c-0.1,0-0.2,0-0.3,0c-0.7,0-1.4-0.1-2-0.1
			s-1.2-0.1-1.7-0.2h-0.1c-0.1,0-0.1,0-0.2,0c-1.3-0.1-2.5-0.3-3.8-0.6c-0.3-0.1-0.6-0.1-0.8-0.2c-1.1-0.2-2.2-0.5-3.3-0.8
			c-0.6-0.2-1.3-0.4-1.9-0.6c-21.5-6.8-37-26.9-37-50.7V231.6h106.3L565.1,650.3z"/>
		<path class="st4" d="M575.7,231.6H448.3c-6.6,0-11.9-5.3-11.9-11.9v-1.8c0-6.6,5.3-11.9,11.9-11.9h127.4c6.6,0,11.9,5.3,11.9,11.9
			v1.8C587.6,226.3,582.3,231.6,575.7,231.6z"/>
	</g>
	<g>
		<path class="st4" d="M733.4,650.3c0,29.4-23.8,53.1-53.1,53.1c-0.6,0-1.2,0-1.8,0c-0.1,0-0.2,0-0.3,0c-0.7,0-1.4-0.1-2-0.1
			c-0.5,0-1.1-0.1-1.6-0.2c-1.4-0.2-2.8-0.4-4.1-0.6c-0.3-0.1-0.5-0.1-0.8-0.2c-0.3-0.1-0.7-0.1-1-0.2c-0.3-0.1-0.5-0.1-0.8-0.2l0,0
			c-0.6-0.1-1.1-0.3-1.7-0.4c-0.6-0.2-1.3-0.4-1.9-0.6c-21.5-6.8-37-26.9-37-50.7V231.6h106.3L733.4,650.3z"/>
		<path class="st4" d="M744,231.6H616.6c-6.6,0-11.9-5.3-11.9-11.9v-1.8c0-6.6,5.3-11.9,11.9-11.9H744c6.6,0,11.9,5.3,11.9,11.9v1.8
			C755.9,226.3,750.6,231.6,744,231.6z"/>
	</g>
	<g>
		<path class="st4" d="M401.4,231.6l-0.2,418.7c0,29.3-23.7,53-53,53.1H346c-0.7,0-1.4-0.1-2-0.1c-0.5,0-1.1-0.1-1.6-0.2
			c-1.4-0.2-2.8-0.4-4.1-0.6c-0.3-0.1-0.5-0.1-0.8-0.2c-0.3-0.1-0.7-0.1-1-0.2s-0.5-0.1-0.8-0.2c-0.6-0.1-1.1-0.3-1.7-0.4
			c-0.6-0.2-1.3-0.4-1.9-0.6c-21.5-6.8-37-26.9-37-50.7V231.6H401.4z"/>
		<path class="st4" d="M423.7,217.9v1.8c0,6.6-5.4,11.9-12,11.9H284.4c-6.6,0-11.9-5.3-11.9-11.9v-1.8c0-6.6,5.3-11.9,11.9-11.9
			h127.4C418.4,206,423.7,211.3,423.7,217.9z"/>
	</g>
	<path class="st5" d="M423.7,217.9v1.8c0,6.6-5.4,11.9-12,11.9h-10.3l-0.2,418.7c0,29.3-23.7,53-53,53.1V206h63.5
		C418.4,206,423.7,211.3,423.7,217.9z"/>
	<path class="st5" d="M587.6,217.9v1.8c0,6.6-5.4,11.9-12,11.9h-10.3l-0.2,418.7c0,29.3-23.7,53-53,53.1V206h63.5
		C582.3,206,587.6,211.3,587.6,217.9z"/>
	<path class="st5" d="M755.9,217.9v1.8c0,6.6-5.4,11.9-12,11.9h-10.3l-0.2,418.7c0,29.3-23.7,53-53,53.1V206H744
		C750.6,206,755.9,211.3,755.9,217.9z"/>
	<path class="st3" d="M932,425.4v5.7c0,21.7-17.6,39.3-39.2,39.3H131.2c-21.6,0-39.2-17.6-39.2-39.2v-5.8
		c0-21.6,17.6-39.2,39.2-39.2h761.6C914.4,386.2,932,403.8,932,425.4z"/>
	<rect x="627.3" y="277.1" class="st6" width="106.3" height="60.7"/>
	<rect x="459.1" y="277.1" class="st7" width="106.2" height="60.7"/>
	<rect x="294.9" y="277.1" class="st8" width="106.3" height="60.7"/>
	<rect x="348.2" y="277.1" class="st9" width="53" height="60.7"/>
	<rect x="512.3" y="277.1" class="st10" width="53" height="60.7"/>
	<rect x="680.6" y="277.1" class="st11" width="53" height="60.7"/>
	<path class="st12" d="M932,425.4v5.7c0,21.7-17.6,39.3-39.2,39.3H512v-84.2h380.8C914.4,386.2,932,403.8,932,425.4z"/>
	<path class="st12" d="M892,733.9c-17.9,30.6-39.4,58.8-63.9,84.1H512v-84.1H892z"/>
</g>
</svg>
