<?xml version="1.0" encoding="utf-8"?>
<!-- Generator: Adobe Illustrator 24.0.0, SVG Export Plug-In . SVG Version: 6.00 Build 0)  -->
<svg version="1.1" id="Capa_1" xmlns="http://www.w3.org/2000/svg" xmlns:xlink="http://www.w3.org/1999/xlink" x="0px" y="0px"
	 viewBox="0 0 1024 1024" style="enable-background:new 0 0 1024 1024;" xml:space="preserve">
<style type="text/css">
	.st0{fill:#443F80;}
	.st1{fill:#C640A6;}
	.st2{fill:#B72C9D;}
	.st3{fill:#F9B630;}
	.st4{fill:#F473C3;}
	.st5{fill:#FFD071;}
	.st6{fill:#F9F7FC;}
	.st7{fill:#DCDAEB;}
	.st8{fill:#767DD4;}
	.st9{fill:#5E6ACA;}
</style>
<g>
	<path class="st0" d="M952,512c0,43.8-6.4,86.1-18.3,126c-17.6,59.1-47.4,113-86.3,158.8C836,810.2,823.7,823,810.8,835
		c-7.1,6.5-14.4,12.9-21.9,19c-27.5,22.3-57.8,41.4-90.3,56.6c-7.4,3.5-15,6.8-22.7,9.8c-21.2,8.5-43.2,15.5-65.9,20.6
		c-31.5,7.2-64.3,11-98.1,11C269,952,72,755,72,512c0-43.8,6.4-86,18.3-125.9c3.8-12.8,8.2-25.4,13.1-37.7
		c7.9-19.6,17.1-38.6,27.6-56.7c0.2-0.4,0.5-0.9,0.7-1.3c9.8-16.9,20.8-33,32.8-48.4c13.3-17.1,27.9-33.2,43.5-48.2
		c15.3-14.7,31.7-28.2,49.1-40.6c22.7-16.1,46.9-30.2,72.5-41.8c13-6,26.4-11.3,40.1-16c12.6-4.3,25.5-8.1,38.6-11.2
		c0.6-0.1,1.1-0.3,1.7-0.4C442.7,76.1,476.9,72,512,72c27.3,0,54,2.5,79.9,7.2c123.3,22.6,228.7,96.6,293,199
		c24.7,39.3,43.3,82.7,54.6,129.1C947.7,440.9,952,475.9,952,512z"/>
</g>
<g>
	<path class="st1" d="M123.6,672.2c-20.7-12.5-33.3-34.9-33.3-59.1V304.4c0-12,3.1-23.6,8.8-33.8l309.2,187.8l8.8,290.6l-8.8,84.1
		c-12.4,0-24.8-3.3-35.8-10L123.6,672.2z"/>
	<path class="st2" d="M693,672.2c20.7-12.5,33.3-34.9,33.3-59.1V304.4c0-12-3.1-23.6-8.8-33.8L408.3,458.5v374.7
		c12.4,0,24.8-3.3,35.8-10L693,672.2z"/>
	<ellipse transform="matrix(0.92 -0.392 0.392 0.92 -227.4249 145.4989)" class="st3" cx="242.6" cy="629.7" rx="25.8" ry="45.6"/>
	<ellipse transform="matrix(0.92 -0.392 0.392 0.92 -176.5021 135.1076)" class="st3" cx="242.6" cy="499.8" rx="25.8" ry="45.6"/>
	<path class="st4" d="M717.5,270.7L442.9,452.3c-10.5,6.9-22.5,10.4-34.6,10.4s-24.1-3.5-34.6-10.4L99.1,270.7
		c5.7-10.2,14-19,24.4-25.3L372.3,93.9c11-6.7,23.5-10.1,35.9-10.1c12.5,0,24.9,3.3,35.9,10.1L693,245.4
		C703.4,251.7,711.7,260.5,717.5,270.7z"/>
	<path class="st1" d="M717.5,270.7L442.9,452.3c-10.5,6.9-22.5,10.4-34.6,10.4V83.8c12.5,0,24.9,3.3,35.9,10.1l248.9,151.5
		C703.4,251.7,711.7,260.5,717.5,270.7z"/>
	<path class="st5" d="M454.1,263c0,15.9-20.4,28.7-45.5,28.7h-0.3c-25-0.1-45.2-12.9-45.2-28.7s20.2-28.6,45.2-28.7h0.3
		C433.8,234.3,454.1,247.1,454.1,263z"/>
	<ellipse class="st3" cx="550.1" cy="263" rx="45.5" ry="28.7"/>
	<ellipse class="st5" cx="267.2" cy="263" rx="45.5" ry="28.7"/>
	<g>
		<path class="st6" d="M933.7,526.2V638c-17.6,59.1-47.4,113-86.3,158.8C836,810.2,823.7,823,810.8,835c-7.1,6.5-14.4,12.9-21.9,19
			c-27.5,22.3-57.8,41.4-90.3,56.6c-7.4,3.5-15,6.8-22.7,9.8c-21.2,8.5-43.2,15.5-65.9,20.6h-91.2c-30.5,0-55.3-24.8-55.3-55.3
			V526.2c0-10.2,2.8-19.8,7.7-28c4.8-8.2,11.8-15.1,20-19.9c4.1-2.4,8.5-4.2,13.1-5.5s9.5-1.9,14.6-1.9h359.5
			C908.9,470.9,933.7,495.7,933.7,526.2z"/>
		<path class="st7" d="M933.7,526.2V638c-17.6,59.1-47.4,113-86.3,158.8C836,810.2,823.7,823,810.8,835c-7.1,6.5-14.4,12.9-21.9,19
			c-27.5,22.3-57.8,41.4-90.3,56.6V470.9h179.7C908.9,470.9,933.7,495.7,933.7,526.2z"/>
		<g>
			<path class="st8" d="M740.1,706c0,22.9-18.6,41.5-41.5,41.5s-41.5-18.6-41.5-41.5s18.6-41.5,41.5-41.5
				C721.6,664.5,740.1,683.1,740.1,706z"/>
			<circle class="st8" cx="574.2" cy="581.5" r="41.5"/>
			<path class="st9" d="M847.4,796.8C836,810.2,823.7,823,810.8,835c-7.1,6.5-14.4,12.9-21.9,19c-4.6-6.7-7.3-14.8-7.3-23.5
				c0-22.9,18.6-41.5,41.5-41.5C832.2,788.9,840.6,791.8,847.4,796.8z"/>
			<circle class="st8" cx="574.2" cy="830.4" r="41.5"/>
			<circle class="st9" cx="823.1" cy="581.5" r="41.5"/>
			<path class="st9" d="M740.1,706c0,22.9-18.6,41.5-41.5,41.5v-82.9C721.6,664.5,740.1,683.1,740.1,706z"/>
		</g>
	</g>
	<path class="st3" d="M454.1,263c0,15.9-20.4,28.7-45.5,28.7h-0.3v-57.5h0.3C433.8,234.3,454.1,247.1,454.1,263z"/>
</g>
</svg>
