<?xml version="1.0" encoding="utf-8"?>
<!-- Generator: Adobe Illustrator 24.0.0, SVG Export Plug-In . SVG Version: 6.00 Build 0)  -->
<svg version="1.1" id="Capa_1" xmlns="http://www.w3.org/2000/svg" xmlns:xlink="http://www.w3.org/1999/xlink" x="0px" y="0px"
	 viewBox="0 0 1024 1024" style="enable-background:new 0 0 1024 1024;" xml:space="preserve">
<style type="text/css">
	.st0{fill:#FFD071;}
	.st1{fill-rule:evenodd;clip-rule:evenodd;fill:#F9B630;}
	.st2{fill-rule:evenodd;clip-rule:evenodd;fill:#F9A40D;}
	.st3{fill-rule:evenodd;clip-rule:evenodd;fill:#E58D00;}
	.st4{fill-rule:evenodd;clip-rule:evenodd;fill:#767DD4;}
	.st5{fill-rule:evenodd;clip-rule:evenodd;fill:#F473C3;}
	.st6{fill-rule:evenodd;clip-rule:evenodd;fill:#F9F7FC;}
	.st7{fill-rule:evenodd;clip-rule:evenodd;fill:#C640A6;}
	.st8{fill-rule:evenodd;clip-rule:evenodd;fill:#5E6ACA;}
	.st9{fill-rule:evenodd;clip-rule:evenodd;fill:#DCDAEB;}
</style>
<path class="st0" d="M952,512c0,243-197,440-440,440c-96.2,0-185.1-30.8-257.5-83.2c-19-13.7-36.8-28.9-53.4-45.5
	c-16.5-16.5-31.8-34.3-45.5-53.2C103,697.6,72,608.4,72,512C72,269,269,72,512,72c73.5,0,142.8,18,203.7,49.9
	c39.9,20.8,76.2,47.6,107.7,79.2c31.8,31.8,58.7,68.4,79.5,108.7C934.3,370.3,952,439.1,952,512z"/>
<g>
	<g>
		<g>
			<path class="st1" d="M653,746.6c-5.8,0.7-11.5,1-18.9,1.1c-92.8,1.6-148.7-26.6-257.9-8.2l-91.3-91.3
				c18.5-109.2-9.8-165-8.2-257.9c0.1-7.4,0.4-13.1,1.1-18.9L465.4,559L653,746.6z"/>
		</g>
	</g>
	<path class="st2" d="M653,746.6c-5.8,0.7-11.5,1-18.9,1.1c-92.8,1.6-148.7-26.6-257.9-8.2l-45.6-45.6L465.5,559L653,746.6z"/>
	<g>
		<g>
			<path class="st2" d="M503.4,597L503.4,597L376.2,739.6l-17.7,19.8l-2.9,3.3l-81.4,91.2c-5.7,6.4-12.4,11.4-19.7,15
				c-19-13.7-36.8-28.9-53.4-45.5c-16.5-16.5-31.8-34.3-45.5-53.2c3.6-7.3,8.6-14.1,15-19.8l35.8-32l11.9-10.6l46.8-41.7l19.8-17.7
				l142.6-127.2l37.9,38l0,0L503.4,597z"/>
		</g>
	</g>
	<path class="st3" d="M503.4,597L503.4,597L376.2,739.6l-17.7,19.8l-2.9,3.3l-81.4,91.2c-5.7,6.4-12.4,11.4-19.7,15
		c-19-13.7-36.8-28.9-53.4-45.5l55.2-55.2l55.5-55.5l0,0l18.7-18.7l0,0l134.9-134.9l0,0L503.4,597z"/>
	<g>
		<polygon class="st4" points="306.2,818 206.4,718.3 265.1,666 358.5,759.4 		"/>
	</g>
	<g>
		<path class="st5" d="M731.6,715.8c-15.6,9-32,16.7-49,22.8c-13.3,4.8-21.5,7-29.6,8.1L503.4,597L277.9,371.5
			c1.1-8.1,3.3-16.3,8.1-29.6c36.6-102.2,128.7-180.8,238.3-216.1c117.9-37.9,234-9,308.8,65.6l0,0
			c74.6,74.7,103.5,190.9,65.6,308.8c-9,28.1-20.9,55-35.3,80.1C841.1,638,738.1,721.2,731.6,715.8z"/>
	</g>
	<g>
		<path class="st6" d="M593.7,206.7c0,54-44.1,98.2-98.3,98.2c-27.1,0-51.7-11-69.5-28.8c-17.8-17.8-28.9-42.4-28.9-69.5
			c0-54.1,44.2-98.3,98.3-98.3c27.1,0,51.7,11.1,69.5,28.9S593.6,179.6,593.7,206.7z"/>
	</g>
	<path class="st7" d="M731.6,715.8c-15.6,9-32,16.7-49,22.8c-13.3,4.8-21.5,7-29.6,8.1L503.4,597l-38-38L833,191.4l0,0
		c74.6,74.7,103.5,190.9,65.6,308.8c-9,28.1-20.9,55-35.3,80.1C841.1,638,738.1,721.2,731.6,715.8z"/>
	<polygon class="st8" points="306.2,818 256.3,768.2 311.8,712.7 358.5,759.4 	"/>
	<path class="st9" d="M593.7,206.7c0,54-44.1,98.2-98.3,98.2c-27.1,0-51.7-11-69.5-28.8l138.9-138.9
		C582.6,155,593.6,179.6,593.7,206.7z"/>
</g>
</svg>
