<?xml version="1.0" encoding="utf-8"?>
<!-- Generator: Adobe Illustrator 24.0.0, SVG Export Plug-In . SVG Version: 6.00 Build 0)  -->
<svg version="1.1" id="Capa_1" xmlns="http://www.w3.org/2000/svg" xmlns:xlink="http://www.w3.org/1999/xlink" x="0px" y="0px"
	 viewBox="0 0 1024 1024" style="enable-background:new 0 0 1024 1024;" xml:space="preserve">
<style type="text/css">
	.st0{fill:#443F80;}
	.st1{fill:#F9F7FC;}
	.st2{fill:#DCDAEB;}
	.st3{fill:#F473C3;}
	.st4{fill:#DD5CA2;}
	.st5{fill:#C640A6;}
	.st6{fill:#534A9A;}
	.st7{fill:#707DD3;}
</style>
<g>
	<path class="st0" d="M952,512c0,127.7-54.4,242.6-141.2,323c-39,36.1-84.6,65.3-134.8,85.4C625.3,940.8,570,952,512,952
		C269,952,72,755,72,512c0-57.8,11.2-113,31.4-163.6c15.4-38.4,36-74.2,61.1-106.3c26.4-33.9,57.6-63.8,92.6-88.8
		c22.7-16.1,46.9-30.2,72.5-41.8C385.1,86.1,446.9,72,512,72c27.3,0,54,2.5,79.9,7.2c123.3,22.6,228.7,96.6,293,199
		c24.7,39.3,43.3,82.7,54.6,129.1C947.7,440.9,952,475.9,952,512z"/>
	<g>
		<g>
			<path class="st1" d="M598.3,98.7l96.5,507c8.2,43.2-20.1,84.8-63.3,93l-367.2,69.9c-43.2,8.2-84.8-20.1-93-63.3L74.9,198.4
				c-8.2-43.2,20.1-84.8,63.3-93l367.2-69.9C548.4,27.3,590,55.6,598.3,98.7z"/>
			<path class="st2" d="M598.3,98.7l96.5,507c8.2,43.2-20.1,84.8-63.3,93l-183.6,34.9L321.7,70.5l183.6-34.9
				C548.4,27.3,590,55.6,598.3,98.7z"/>
			<g>
				<g>
					<path class="st3" d="M191,157.9c-19.2-13.1-45.5-8.2-58.7,11.1c-13.1,19.2-8.2,45.5,11.1,58.7l60.4,41.3
						c5.1,3.5,12.1,2.2,15.6-2.9l41.3-60.4c13.1-19.2,8.2-45.5-11.1-58.7C230.3,133.8,204.1,138.7,191,157.9z"/>
					<path class="st4" d="M637.4,635.1c-13.2,19.2-39.5,24.2-58.7,11.1c-13.1,19.3-39.4,24.3-58.7,11.1
						c-19.2-13.2-24.2-39.5-11.1-58.7l41.3-60.4c3.5-5.1,10.5-6.4,15.6-2.9l60.5,41.3C645.5,589.6,650.5,615.9,637.4,635.1z"/>
				</g>
				<path class="st3" d="M480.3,413.4l-60.4,88.5c-3.5,5.1-8.7,8.3-14.3,9.4c-5.7,1.1-11.8,0-16.9-3.5l-88.5-60.4
					c-29.6-20.1-37.1-60.4-17-90c20.1-29.6,60.3-37.2,89.9-17.1c0.1,0,0.1,0.1,0.2,0.1c20.2-29.5,60.5-37.1,90.1-16.9
					C492.9,343.5,500.6,383.8,480.3,413.4z"/>
			</g>
			<path class="st5" d="M480.3,413.4l-60.4,88.5c-3.5,5.1-8.7,8.3-14.3,9.4l-32.6-171.1c0.1,0,0.1,0.1,0.2,0.1
				c20.2-29.5,60.5-37.1,90.1-16.9C492.9,343.5,500.6,383.8,480.3,413.4z"/>
			<path class="st5" d="M637.4,635.1c-13.2,19.2-39.5,24.2-58.7,11.1c-13.1,19.3-39.4,24.3-58.7,11.1
				c-19.2-13.2-24.2-39.5-11.1-58.7l41.3-60.4c3.5-5.1,10.5-6.4,15.6-2.9l60.5,41.3C645.5,589.6,650.5,615.9,637.4,635.1z"/>
		</g>
		<g>
			<path class="st1" d="M947.7,380.2l-8.2,27.2L810.8,835c-39,36.1-84.6,65.3-134.8,85.4l-155.1-46.7l-179-53.8
				c-27.5-8.3-47.2-30-54-55.8c-3.6-13.8-3.7-28.6,0.8-43.3l70.2-233.4l25.8-85.8l26.4-87.6l26.3-87.3c12.7-42.1,57-65.9,99.1-53.3
				l80.7,24.3h0l98.3,29.6l169.4,51l9.5,2.9C936.4,293.8,960.2,338.1,947.7,380.2z"/>
			<path class="st2" d="M947.7,380.2l-8.2,27.2L810.8,835c-39,36.1-84.6,65.3-134.8,85.4l-155.1-46.7L570,710.4l0,0l10.9-36.3
				l7-23.2l25.1-83.5l42.3-140.5l3.3-11l56.8-188.6l169.4,51l9.5,2.9C936.4,293.8,960.2,338.1,947.7,380.2z"/>
			<g>
				<path class="st6" d="M609.1,283.5l-40-74.4l-74.4,40c-20.5,11-28.2,36.6-17.2,57.2c8.1,15.1,23.9,23.1,39.8,22.2l-4.9,16.3
					l-13-3.9c-8-2.4-16.5,2.1-18.9,10.2c-2.4,8,2.1,16.5,10.2,18.9l55.1,16.6c8,2.4,16.5-2.1,18.9-10.2c2.4-8-2.1-16.5-10.2-18.9
					l-13-3.9l4.9-16.3c12.8,9.6,30.5,11.6,45.4,3.5C612.5,329.6,620.2,304,609.1,283.5z"/>
				<path class="st6" d="M622.2,614l-7.2,24l19,5.7c11.8,3.5,18.4,15.9,14.9,27.7c-3.5,11.8-15.9,18.4-27.7,14.9L540.6,662
					c-11.8-3.5-18.4-15.9-14.9-27.7c3.5-11.8,15.9-18.4,27.7-14.9l19,5.7l7.2-23.9c-23.3,1.5-46.5-10.5-58.3-32.4
					c-16.1-30-4.8-67.5,25.2-83.6l108.8-58.4l0.1,0l58.5,108.8c16.1,30,4.9,67.4-25.2,83.5C666.7,630.9,640.8,628.1,622.2,614z"/>
				<path class="st7" d="M742.6,848.3l-74.4,40l-40-74.4c-11.1-20.5-3.3-46.1,17.2-57.2c15-8.1,32.7-6.1,45.4,3.5l4.9-16.3l-13-3.9
					c-8.1-2.4-12.6-10.9-10.2-18.9c2.4-8.1,10.9-12.6,18.9-10.2l55.1,16.6c8.1,2.4,12.6,10.9,10.2,18.9
					c-2.4,8.1-10.9,12.6-18.9,10.2l-13-3.9L720,769c15.9-1,31.7,7.1,39.8,22.2C770.8,811.7,763.1,837.3,742.6,848.3z"/>
			</g>
			<path class="st0" d="M648.9,671.4c-3.5,11.8-15.9,18.4-27.7,14.9L581,674.1l74.4-247.2l0.1,0l58.5,108.8
				c16.1,30,4.9,67.4-25.2,83.5c-21.9,11.8-47.8,9-66.5-5.1l-7.2,24l19,5.7C645.8,647.2,652.4,659.6,648.9,671.4z"/>
			<path class="st0" d="M742.6,848.3l-74.4,40l-40-74.4c-11.1-20.5-3.3-46.1,17.2-57.2c15-8.1,32.7-6.1,45.4,3.5l4.9-16.3l-13-3.9
				c-8.1-2.4-12.6-10.9-10.2-18.9c2.4-8.1,10.9-12.6,18.9-10.2l55.1,16.6c8.1,2.4,12.6,10.9,10.2,18.9c-2.4,8.1-10.9,12.6-18.9,10.2
				l-13-3.9L720,769c15.9-1,31.7,7.1,39.8,22.2C770.8,811.7,763.1,837.3,742.6,848.3z"/>
		</g>
	</g>
</g>
</svg>
