<?xml version="1.0" encoding="utf-8"?>
<!-- Generator: Adobe Illustrator 24.0.0, SVG Export Plug-In . SVG Version: 6.00 Build 0)  -->
<svg version="1.1" id="Capa_1" xmlns="http://www.w3.org/2000/svg" xmlns:xlink="http://www.w3.org/1999/xlink" x="0px" y="0px"
	 viewBox="0 0 1024 1024" style="enable-background:new 0 0 1024 1024;" xml:space="preserve">
<style type="text/css">
	.st0{fill:#767DD4;}
	.st1{fill:#FFCE55;}
	.st2{fill:#F9B630;}
	.st3{fill:#F9F7FC;}
	.st4{fill:#DCDAEB;}
	.st5{fill:#F473C3;}
	.st6{fill:#C640A6;}
	.st7{fill:#A8148C;}
	.st8{fill:#F9A40D;}
</style>
<circle class="st0" cx="512" cy="512" r="440"/>
<g>
	<g>
		<g>
			<path class="st1" d="M318.9,829.3c-6.4,0-11.6-5.2-11.6-11.6V212.9c0-6.4,5.2-11.6,11.6-11.6s11.6,5.2,11.6,11.6v604.7
				C330.6,824.1,325.4,829.3,318.9,829.3z"/>
			<path class="st1" d="M394.5,772.4c-6.4,0-11.6-5.2-11.6-11.6V239.6c0-6.4,5.2-11.6,11.6-11.6s11.6,5.2,11.6,11.6v521.1
				C406.1,767.1,400.9,772.4,394.5,772.4z"/>
			<path class="st1" d="M467.4,725.7c-6.4,0-11.6-5.2-11.6-11.6v-439c0-6.4,5.2-11.6,11.6-11.6s11.6,5.2,11.6,11.6v439
				C479,720.5,473.8,725.7,467.4,725.7z"/>
			<path class="st1" d="M542.7,675.3c-6.4,0-11.6-5.2-11.6-11.6V319.9c0-6.4,5.2-11.6,11.6-11.6s11.6,5.2,11.6,11.6v343.8
				C554.3,670.1,549.1,675.3,542.7,675.3z"/>
			<path class="st1" d="M626.1,613.3c-6.4,0-11.6-5.2-11.6-11.6V413c0-6.4,5.2-11.6,11.6-11.6c6.4,0,11.6,5.2,11.6,11.6v188.6
				C637.7,608,632.5,613.3,626.1,613.3z"/>
		</g>
		<path class="st2" d="M925.1,423c-0.2,2.6-1.1,5.3-2.6,7.9l0,0c-0.2,0.4-0.5,0.8-0.7,1.2c-0.1,0.2-0.3,0.4-0.4,0.6
			c-2.8,4.2-7.1,8.4-12.6,12.4c-1.2,0.9-2.4,1.7-3.7,2.6l-0.4,0.2c-27.9,18.4-80.9,34.6-137.4,42.5c-2.1,0.3-4.1,0.6-6.2,0.8H761
			c-57.1,6.8-119-1.6-174.9-48.9c-25.6-21.7-49.9-51.5-71.9-91.8C430,196.1,308.2,203,247.1,263.8V112.2c0,0,134-57.2,242.4,39.4
			c48.1,42.9,73.3,93.6,96.6,138.2c29.2,55.9,55.2,101.9,119.3,110.5c91.5,12.2,169.5-31.5,203-11.2c0,0,0,0,0.1,0
			c8.6,5.2,14.3,14.7,16.5,30.5c0,0.2,0,0.3,0.1,0.5c0,0.2,0,0.4,0,0.5C925.2,421.4,925.2,422.2,925.1,423z"/>
		<g>
			<path class="st3" d="M256.4,84.3v735.8h-58.5c-1-1-2.1-2.1-3.1-3.1V90.5c0-3.4,3.6-6.2,8-6.2H256.4z"/>
			<path class="st3" d="M278.6,80.7v16.5c-0.1,2.9-2.5,5.3-5.4,5.3h-95c-3,0-5.4-2.4-5.4-5.4V80.7c0-3,2.4-5.4,5.4-5.4h95
				C276.2,75.3,278.6,77.7,278.6,80.7z"/>
			<path class="st3" d="M270.8,107.8v5.6c0,3-2.4,5.4-5.4,5.4h-79.5c-3,0-5.4-2.4-5.4-5.4v-5.6c0-2.6,1.9-4.8,4.4-5.3
				c0.3-0.1,0.7-0.1,1-0.1h79.5c0.4,0,0.7,0,1,0.1C269,103,270.8,105.2,270.8,107.8z"/>
			<path class="st3" d="M278.5,783.2v16.5c0,2.5-1.7,4.6-3.9,5.2c-0.5,0.1-1,0.2-1.5,0.2h-89.3c-0.1-0.1-0.1-0.1-0.2-0.2
				c-1.5-1.7-3-3.3-4.4-5c-2.2-2.6-4.4-5.2-6.6-7.8v-8.9c0-3,2.5-5.4,5.4-5.4h95C276.1,777.8,278.5,780.2,278.5,783.2z"/>
			<path class="st3" d="M270.8,766.9v5.6c0,2.7-1.9,4.8-4.4,5.3c-0.3,0.1-0.7,0.1-1,0.1h-79.5c-0.3,0-0.7,0-1-0.1
				c-2.5-0.5-4.4-2.6-4.4-5.3v-5.6c0-3,2.4-5.4,5.4-5.4h79.5C268.4,761.5,270.8,763.9,270.8,766.9z"/>
			<path class="st3" d="M270.8,154.6v5.6c0,2.6-1.9,4.8-4.4,5.3c-0.3,0.1-0.7,0.1-1,0.1h-79.5c-0.3,0-0.7,0-1-0.1
				c-2.5-0.5-4.4-2.7-4.4-5.3v-5.6c0-3,2.4-5.4,5.4-5.4h79.5C268.4,149.2,270.8,151.6,270.8,154.6z"/>
			<path class="st3" d="M270.8,187.3v5.6c0,3-2.4,5.4-5.4,5.4h-79.5c-3,0-5.4-2.4-5.4-5.4v-5.6c0-3,2.4-5.4,5.4-5.4h79.5
				C268.4,181.9,270.8,184.3,270.8,187.3z"/>
			<path class="st3" d="M275.5,170.9v5.6c-0.1,3-2.5,5.4-5.4,5.4h-88.8c-3,0-5.4-2.4-5.4-5.4v-5.6c0-3,2.4-5.4,5.4-5.4h88.8
				C273.1,165.5,275.5,167.9,275.5,170.9z"/>
			<path class="st3" d="M270.8,662.7v5.6c0,2.7-1.9,4.8-4.4,5.3c-0.3,0.1-0.7,0.1-1,0.1h-79.5c-0.3,0-0.7,0-1-0.1
				c-2.5-0.5-4.4-2.6-4.4-5.3v-5.6c0-3,2.4-5.4,5.4-5.4h79.5C268.4,657.3,270.8,659.7,270.8,662.7z"/>
			<path class="st3" d="M270.8,695.3v5.6c0,3-2.4,5.4-5.4,5.4h-79.5c-3,0-5.4-2.4-5.4-5.4v-5.6c0-2.6,1.9-4.8,4.4-5.3
				c0.3-0.1,0.7-0.1,1-0.1h79.5c0.4,0,0.7,0,1,0.1C269,690.5,270.8,692.7,270.8,695.3z"/>
			<path class="st3" d="M275.5,679v5.6c-0.1,3-2.5,5.4-5.4,5.4h-88.8c-3,0-5.4-2.4-5.4-5.4V679c0-3,2.4-5.4,5.4-5.4h88.8
				C273.1,673.6,275.5,676,275.5,679z"/>
		</g>
		<path class="st4" d="M273.2,102.5h-6.8c2.5,0.5,4.4,2.7,4.4,5.3v5.6c0,3-2.4,5.4-5.4,5.4h-9v30.4h9c3,0,5.4,2.4,5.4,5.4v5.6
			c0,2.6-1.9,4.8-4.4,5.3h3.7c3,0,5.4,2.4,5.4,5.4v5.6c-0.1,3-2.5,5.4-5.4,5.4h-4.7c3,0,5.4,2.4,5.4,5.4v5.6c0,3-2.4,5.4-5.4,5.4h-9
			v459h9c3,0,5.4,2.4,5.4,5.4v5.6c0,2.7-1.9,4.8-4.4,5.3h3.7c3,0,5.4,2.4,5.4,5.4v5.6c-0.1,3-2.5,5.4-5.4,5.4h-3.7
			c2.5,0.5,4.4,2.7,4.4,5.3v5.6c0,3-2.4,5.4-5.4,5.4h-9v55.2h9c3,0,5.4,2.4,5.4,5.4v5.6c0,2.7-1.9,4.8-4.4,5.3h6.7
			c3,0,5.4,2.4,5.4,5.4v16.5c0,3-2.4,5.4-5.4,5.4h-16.7v15h-30.8V75.3h47.6c3,0,5.4,2.4,5.4,5.4v16.5
			C278.5,100.1,276.1,102.5,273.2,102.5z"/>
		<g>
			<path class="st5" d="M446.7,814.5v64H268.5c-25.5-17-49.2-36.6-70.5-58.4c-1-1-2.1-2.1-3.1-3.1c-3.7-3.9-7.4-7.8-11-11.9
				c-0.1-0.1-0.1-0.1-0.2-0.2h253.4C442.4,804.9,446.7,809.2,446.7,814.5z"/>
			<path class="st6" d="M478.8,888.2v14.3c0,3.4-2.8,6.2-6.2,6.2H321.4c-11.5-5.5-22.7-11.5-33.6-18c-6.5-3.8-12.9-7.9-19.2-12.1
				h200.6C474.5,878.6,478.8,882.9,478.8,888.2z"/>
		</g>
		<path class="st2" d="M925.1,423c-0.2,2.7-1.1,5.3-2.6,7.9l0,0c-0.2,0.4-0.5,0.8-0.7,1.2c-0.1,0.2-0.3,0.4-0.4,0.6
			c-2.8,4.2-7.1,8.4-12.6,12.4l-3.7,2.6l-0.4,0.2L586.1,669.2L390.5,805h-81.4l277-192.2l175-121.5l0,0L908.5,389h0.1
			c8.6,5.2,14.3,14.7,16.5,30.5c0,0.2,0,0.4,0.1,0.6c0,0.2,0,0.4,0,0.5C925.2,421.4,925.2,422.2,925.1,423z"/>
		<path class="st6" d="M287.8,878.5v-73.6h149.3c5.3,0,9.6,4.3,9.6,9.6v64H287.8z"/>
		<path class="st7" d="M478.8,888.2v14.3c0,3.4-2.8,6.2-6.2,6.2H321.4c-11.5-5.5-22.7-11.5-33.6-18v-12.1h181.5
			C474.5,878.6,478.8,882.9,478.8,888.2z"/>
		<path class="st8" d="M925.1,423c-0.2,2.6-1.1,5.3-2.6,7.9l0,0c-0.2,0.4-0.5,0.8-0.7,1.2c-0.1,0.2-0.3,0.4-0.4,0.6
			c-2.8,4.2-7.1,8.4-12.6,12.4c-1.2,0.9-2.4,1.7-3.7,2.6l-0.4,0.2L586.1,669.2v-56.4l175-121.5l0,0H761
			c-57.1,6.8-119-1.6-174.9-48.9V289.8c29.2,55.9,55.2,101.9,119.3,110.5c91.5,12.2,169.5-31.5,203-11.2h0.1
			c8.6,5.2,14.3,14.7,16.5,30.5c0,0.2,0,0.4,0.1,0.6c0,0.2,0,0.4,0,0.5C925.2,421.4,925.2,422.2,925.1,423z"/>
	</g>
</g>
</svg>
