<?xml version="1.0" encoding="utf-8"?>
<!-- Generator: Adobe Illustrator 24.0.0, SVG Export Plug-In . SVG Version: 6.00 Build 0)  -->
<svg version="1.1" id="Capa_1" xmlns="http://www.w3.org/2000/svg" xmlns:xlink="http://www.w3.org/1999/xlink" x="0px" y="0px"
	 viewBox="0 0 1024 1024" style="enable-background:new 0 0 1024 1024;" xml:space="preserve">
<style type="text/css">
	.st0{fill:#F473C3;}
	.st1{fill:#FFD071;}
	.st2{fill:#534A9A;}
	.st3{fill:#9DD4A9;}
	.st4{fill:#443F80;}
	.st5{fill:#F9B630;}
</style>
<circle class="st0" cx="512" cy="512" r="440"/>
<g>
	<g>
		<g>
			<path class="st1" d="M421.4,250.4l-35.8,9.2c-5.8,1.5-11.9-2-13.4-7.9l0,0c-1.5-5.8,2-11.9,7.9-13.4l35.8-9.2
				c5.8-1.5,11.9,2,13.4,7.9l0,0C430.8,242.9,427.3,248.9,421.4,250.4z"/>
			<path class="st1" d="M438.9,268.5L438.9,268.5c-7.3,1.9-14.8-2.6-16.7-9.9l-9.6-37.2c-1.9-7.3,2.6-14.8,9.9-16.7l0,0
				c7.3-1.9,14.8,2.6,16.7,9.9l9.6,37.2C450.7,259.1,446.2,266.7,438.9,268.5z"/>
		</g>
		<g>
			<path class="st1" d="M449.7,330.7l-35.8,9.2c-5.8,1.5-11.9-2-13.4-7.9l0,0c-1.5-5.8,2-11.9,7.9-13.4l35.8-9.2
				c5.8-1.5,11.9,2,13.4,7.9l0,0C459.1,323.2,455.6,329.2,449.7,330.7z"/>
			<path class="st1" d="M467.3,348.9L467.3,348.9c-7.3,1.9-14.8-2.6-16.7-9.9l-9.6-37.2c-1.9-7.3,2.6-14.8,9.9-16.7l0,0
				c7.3-1.9,14.8,2.6,16.7,9.9l9.6,37.2C479,339.5,474.6,347,467.3,348.9z"/>
		</g>
		<g>
			<path class="st1" d="M478.1,411l-35.8,9.2c-5.8,1.5-11.9-2-13.4-7.9l0,0c-1.5-5.8,2-11.9,7.9-13.4l35.8-9.2
				c5.8-1.5,11.9,2,13.4,7.9l0,0C487.5,403.5,483.9,409.5,478.1,411z"/>
			<path class="st1" d="M495.6,429.2L495.6,429.2c-7.3,1.9-14.8-2.6-16.7-9.9l-9.6-37.2c-1.9-7.3,2.6-14.8,9.9-16.7l0,0
				c7.3-1.9,14.8,2.6,16.7,9.9l9.6,37.2C507.3,419.8,502.9,427.3,495.6,429.2z"/>
		</g>
		<g>
			<path class="st1" d="M506.4,491.3l-35.8,9.2c-5.8,1.5-11.9-2-13.4-7.9l0,0c-1.5-5.8,2-11.9,7.9-13.4l35.8-9.2
				c5.8-1.5,11.9,2,13.4,7.9l0,0C515.8,483.8,512.3,489.8,506.4,491.3z"/>
			<path class="st1" d="M523.9,509.5L523.9,509.5c-7.3,1.9-14.8-2.6-16.7-9.9l-9.6-37.2c-1.9-7.3,2.6-14.8,9.9-16.7l0,0
				c7.3-1.9,14.8,2.6,16.7,9.9l9.6,37.2C535.7,500.1,531.2,507.6,523.9,509.5z"/>
		</g>
		<g>
			<path class="st1" d="M356.1,553l35.8-9.2c5.8-1.5,9.4-7.5,7.9-13.4l0,0c-1.5-5.8-7.5-9.4-13.4-7.9l-35.8,9.2
				c-5.8,1.5-9.4,7.5-7.9,13.4l0,0C344.3,550.9,350.3,554.5,356.1,553z"/>
			<path class="st1" d="M349.6,577.3L349.6,577.3c7.3-1.9,11.8-9.4,9.9-16.7l-9.6-37.2c-1.9-7.3-9.4-11.8-16.7-9.9l0,0
				c-7.3,1.9-11.8,9.4-9.9,16.7l9.6,37.2C334.7,574.8,342.3,579.2,349.6,577.3z"/>
		</g>
		<g>
			<path class="st1" d="M377.3,635.1l35.8-9.2c5.8-1.5,9.4-7.5,7.9-13.4l0,0c-1.5-5.8-7.5-9.4-13.4-7.9l-35.8,9.2
				c-5.8,1.5-9.4,7.5-7.9,13.4l0,0C365.4,633.1,371.4,636.6,377.3,635.1z"/>
			<path class="st1" d="M370.7,659.5L370.7,659.5c7.3-1.9,11.8-9.4,9.9-16.7l-9.6-37.2c-1.9-7.3-9.4-11.8-16.7-9.9l0,0
				c-7.3,1.9-11.8,9.4-9.9,16.7l9.6,37.2C355.9,656.9,363.4,661.4,370.7,659.5z"/>
		</g>
	</g>
	<path class="st2" d="M897.5,507c0,0-36.1,38.7-37.9,63c-1,14.1,0.8,31.6,1.2,51.4c0.3,13.1,0,27.2-2.1,42.2
		c-0.2,1.4-0.4,2.9-0.6,4.3c-1.3,8-2.9,16.5-4.9,25.3c-2.7,12.1-6.2,24.9-10.6,37.9c-24.4,72.2-78.2,151-197.2,154.4
		c-5.1,0.1-10.2,0.2-15.1,0c-144.9-3.6-199.7-121.8-217.5-191c-18.4-71.5-99.9-398.9-118.6-460.8c-18.7-61.8-52.5-46.3-74-25.6
		c-20.5,19.7-48.9,54.2-65.8,66c-0.8,0.6-1.6,1.1-2.4,1.5c-11.3,5.7-38.9,27.1-55.1,30.4c-7,1.4-13.8-2.9-15.6-9.8l-3.2-12.4
		c-1.6-6,1.2-12.3,6.8-15.2c10.7-5.6,29.7-17.6,53.7-41c2.3-2.3,4.7-4.6,7.1-7.1c41.8-43.1,68.3-87,121.6-88.3
		s89.8,28.5,115.9,100.7c26.2,72.3,126.7,356.3,144.6,401.9c13.3,33.7,34.1,36.9,47.4,35.1c4.6-0.6,8.4-1.9,10.5-2.6
		c8.2-2.8,28.7-11.5,26.6-49.4c-0.1-1.3-0.2-2.5-0.3-3.9c-1-12.3-3.6-28.2-5.8-46.2c-1.3-10.7-2.6-22.2-3.2-34.1
		c-0.8-14-0.8-28.5,0.7-42.9c1.8-18.4,6.1-36.6,14.1-53.4c20.9-43.5,49.7-46.3,49.7-46.3L897.5,507z"/>
	<path class="st3" d="M138.7,227.5l15.8,46.6c-0.8,0.6-1.6,1.1-2.4,1.5c-11.3,5.7-38.9,27.1-55.1,30.4c-7,1.4-13.8-2.9-15.6-9.8
		l-3.2-12.4c-1.6-6,1.2-12.3,6.7-15.2C95.7,262.9,114.7,250.9,138.7,227.5z"/>
	<path class="st4" d="M897.5,507c0,0-36.1,38.7-37.9,63c-1,14.1,0.8,31.6,1.2,51.4c0.3,13.1,0,27.2-2.1,42.2
		c-0.2,1.4-0.4,2.9-0.6,4.3c-1.3,8-2.9,16.5-4.9,25.3c-2.7,12.1-6.2,24.9-10.6,37.9c-24.4,72.2-78.2,151-197.2,154.4
		c-5.1,0.1-10.2,0.2-15.1,0l-55-215.8c4.6-0.6,8.4-1.9,10.5-2.6c8.2-2.8,28.7-11.5,26.6-49.4c-0.1-1.3-0.2-2.5-0.3-3.9
		c-1-12.3-3.6-28.2-5.8-46.2c-1.3-10.7-2.6-22.2-3.2-34.1c-0.8-14-0.8-28.5,0.7-42.9c1.8-18.4,6.1-36.6,14.1-53.4
		c20.9-43.5,49.7-46.3,49.7-46.3L897.5,507z"/>
	<path class="st5" d="M904.8,526.8l-262-133.3c-9-4.6-12.5-15.6-8-24.6l0.9-1.8c4.6-9,15.6-12.5,24.6-8l262,133.3
		c9,4.6,12.5,15.6,8,24.6l-0.9,1.8C924.8,527.7,913.8,531.3,904.8,526.8z"/>
	<path class="st5" d="M860.8,621.4c0.3,13.1,0,27.2-2.1,42.2L603.2,533.5c-0.8-14-0.8-28.5,0.7-42.9L860.8,621.4z"/>
	<path class="st5" d="M853.3,693.2c-2.7,12.1-6.2,24.9-10.6,37.9L612.2,613.8c-1-12.2-3.6-28.2-5.8-46.2L853.3,693.2z"/>
</g>
</svg>
