<?xml version="1.0" encoding="utf-8"?>
<!-- Generator: Adobe Illustrator 24.0.0, SVG Export Plug-In . SVG Version: 6.00 Build 0)  -->
<svg version="1.1" id="Capa_1" xmlns="http://www.w3.org/2000/svg" xmlns:xlink="http://www.w3.org/1999/xlink" x="0px" y="0px"
	 viewBox="0 0 1024 1024" style="enable-background:new 0 0 1024 1024;" xml:space="preserve">
<style type="text/css">
	.st0{fill:#FFD071;}
	.st1{fill:#F9F7FC;}
	.st2{fill:#DCDAEB;}
	.st3{fill:#9DD4A9;}
	.st4{fill:#84BFA7;}
	.st5{fill:#F473C3;}
	.st6{fill:#C640A6;}
	.st7{fill:#534A9A;}
	.st8{fill:#443F80;}
</style>
<circle class="st0" cx="512" cy="512" r="440"/>
<g>
	<g>
		<path class="st1" d="M814.4,213.7l49.1,49.1c18.8,18.8,18.8,49.6,0,68.4L826,368.6c-18.8,18.8-49.6,18.8-68.4,0l-49.1-49.1
			L814.4,213.7z"/>
		<path class="st1" d="M319.5,708.5l49.1,49.1c18.8,18.8,18.8,49.6,0,68.4l-37.4,37.4c-18.8,18.8-49.6,18.8-68.4,0l-49.1-49.1
			L319.5,708.5z"/>
		<path class="st2" d="M319.5,708.5l49.1,49.1c18.8,18.8,18.8,49.6,0,68.4l-18.7,18.7l-83.3-83.3L319.5,708.5z"/>
		<path class="st2" d="M814.4,213.7l49.1,49.1c18.8,18.8,18.8,49.6,0,68.4l-18.7,18.7l-83.3-83.3L814.4,213.7z"/>
	</g>
	<path class="st3" d="M842.7,134.2v46.4c0,12.3-1.5,24.5-4.4,36.2c-1.3,5.4-3,10.8-4.9,16c-7.4,20-19.1,38.4-34.7,54l-8.6,8.6
		L286.7,798.7c-15.6,15.6-34,27.3-54,34.7c-5.2,1.9-10.5,3.6-15.9,4.9c-14.6-13.3-28.4-27.5-41.1-42.6c-15.5-18.3-29.5-38-41.9-58.7
		c0.1,0,0.2,0,0.4,0h46.4c3.3,0,6.6-0.4,9.8-1.1c0.4-0.1,0.7-0.2,1.1-0.2c1-0.3,2.1-0.6,3.1-0.9c1-0.3,2-0.7,3-1.1
		c1-0.4,2-0.9,2.9-1.3c0.6-0.3,1.3-0.7,1.9-1c1.3-0.7,2.5-1.5,3.7-2.3c0.3-0.2,0.6-0.4,0.9-0.6c0.6-0.4,1.2-0.9,1.7-1.4
		c1.1-0.9,2.2-1.9,3.3-3l512-512c8.4-8.4,13-19.5,13-31.4v-46.4c0-0.1,0-0.3,0-0.4c0.2-29,23.8-52.4,52.9-52.4c0.2,0,0.3,0,0.5,0
		C819.3,81.6,842.7,105.1,842.7,134.2z"/>
	<path class="st4" d="M842.7,134.2v46.4c0,40.1-15.6,77.8-44,106.1l-256,256L468,468l256-256c8.4-8.4,13-19.5,13-31.4v-46.4
		c0-29.2,23.7-52.9,52.9-52.9C819,81.3,842.7,105,842.7,134.2z"/>
	<path class="st5" d="M797.5,107.4v45.2c0,7.8-0.6,15.5-1.8,23c-4.8,30.3-18.9,58.3-41,80.4L505.3,505.3L256,754.7
		c-22.1,22.1-50,36.3-80.3,41c-15.5-18.3-29.5-38-41.9-58.7c0.1,0,0.2,0,0.4,0h46.4c3.3,0,6.6-0.4,9.8-1.1c0.4-0.1,0.7-0.2,1.1-0.2
		c1-0.3,2.1-0.6,3.1-0.9c1-0.3,2-0.7,3-1.1c1-0.4,2-0.9,2.9-1.3c0.6-0.3,1.3-0.7,1.9-1c1.3-0.7,2.5-1.5,3.7-2.3
		c0.3-0.2,0.6-0.4,0.9-0.6c0.6-0.4,1.2-0.9,1.7-1.4c1.1-0.9,2.2-1.9,3.3-3l512-512c8.4-8.4,13-19.5,13-31.4v-46.4c0-0.1,0-0.3,0-0.4
		c0.2-29,23.8-52.4,52.9-52.4c0.2,0,0.3,0,0.5,0C794.9,89,797.5,97.9,797.5,107.4z"/>
	<g>
		<path class="st5" d="M424.3,919.2c-7.9,7.9-17.1,13.8-26.9,17.8c-36.6-9.9-71.4-24.3-103.6-42.7l0,0c-2.4-5.6-4.2-11.4-5.2-17.4
			c-4.5-25,2.9-51.8,22.2-71.1c19.3-19.4,46.1-26.8,71.1-22.2c15.5,2.8,30.4,10.2,42.4,22.2C455.7,837,455.7,887.8,424.3,919.2z"/>
		<path class="st6" d="M424.3,805.7c31.3,31.3,31.3,82.1,0,113.5L310.8,805.7C342.2,774.4,393,774.4,424.3,805.7z"/>
		
			<ellipse transform="matrix(0.5847 -0.8112 0.8112 0.5847 -547.0309 656.3539)" class="st7" cx="367.6" cy="862.5" rx="27.4" ry="27.4"/>
		<path class="st8" d="M387,843.1c10.7,10.7,10.7,28.1,0,38.7l-38.7-38.7C358.9,832.4,376.3,832.4,387,843.1z"/>
	</g>
	<g>
		<path class="st5" d="M919.2,310.8c31.3,31.3,31.3,82.1,0,113.5c-31.3,31.3-82.2,31.3-113.5,0s-31.3-82.2,0-113.5
			S887.9,279.5,919.2,310.8z"/>
		<path class="st6" d="M919.2,310.8c31.3,31.3,31.3,82.1,0,113.5L805.7,310.8C837.1,279.5,887.9,279.5,919.2,310.8z"/>
		
			<ellipse transform="matrix(0.5847 -0.8112 0.8112 0.5847 59.9571 852.3008)" class="st7" cx="862.5" cy="367.6" rx="27.4" ry="27.4"/>
		<path class="st8" d="M881.8,348.2c10.7,10.7,10.7,28.1,0,38.7l-38.7-38.7C853.8,337.5,871.1,337.5,881.8,348.2z"/>
	</g>
	<path class="st6" d="M790.4,81.3c4.5,7.7,7.2,16.5,7.2,26.1v45.2c0,39.1-15.2,75.8-42.8,103.4L505.3,505.3L468,468l256-256
		c8.4-8.4,13-19.5,13-31.4v-46.4c0-29.2,23.7-52.9,52.9-52.9C790,81.3,790.2,81.3,790.4,81.3z"/>
</g>
</svg>
