<?xml version="1.0" encoding="utf-8"?>
<!-- Generator: Adobe Illustrator 24.0.0, SVG Export Plug-In . SVG Version: 6.00 Build 0)  -->
<svg version="1.1" id="Capa_1" xmlns="http://www.w3.org/2000/svg" xmlns:xlink="http://www.w3.org/1999/xlink" x="0px" y="0px"
	 viewBox="0 0 1024 1024" style="enable-background:new 0 0 1024 1024;" xml:space="preserve">
<style type="text/css">
	.st0{fill:#FFD071;}
	.st1{fill:#F9B630;}
	.st2{fill:#F473C3;}
	.st3{fill:#F9F7FC;}
	.st4{fill:#C640A6;}
	.st5{fill:#DCDAEB;}
	.st6{fill:#9DD4A9;}
	.st7{fill:#2A286B;}
	.st8{fill:#443F80;}
</style>
<g>
	<path class="st0" d="M952,512c0,127.7-54.4,242.6-141.2,323c-39,36.1-84.6,65.3-134.8,85.4C625.3,940.8,570,952,512,952
		C269,952,72,755,72,512c0-57.8,11.2-113,31.4-163.6c15.4-38.4,36-74.2,61.1-106.3c26.4-33.9,57.6-63.8,92.6-88.8
		c22.7-16.1,46.9-30.2,72.5-41.8C385.1,86.1,446.9,72,512,72c27.3,0,54,2.5,79.9,7.2c123.3,22.6,228.7,96.6,293,199
		c24.7,39.3,43.3,82.7,54.6,129.1C947.7,440.9,952,475.9,952,512z"/>
	<g>
		<g>
			<g>
				<path class="st1" d="M800.4,144.7l-11.5,11.5c-1.9,1.9-5,1.9-6.8,0l0,0c-1.9-1.9-1.9-5,0-6.8l11.5-11.5c1.9-1.9,5-1.9,6.8,0l0,0
					C802.3,139.8,802.3,142.9,800.4,144.7z"/>
				<path class="st1" d="M806.3,162.1L806.3,162.1c-2,2-5.4,2-7.4,0l-10.3-10.3c-2-2-2-5.4,0-7.4l0,0c2-2,5.4-2,7.4,0l10.3,10.3
					C808.3,156.7,808.3,160,806.3,162.1z"/>
			</g>
			<g>
				<path class="st1" d="M826.2,133.9l-11.5,11.4c-1.9,1.9-5,1.9-6.8,0l0,0c-1.9-1.9-1.9-5,0-6.8l11.5-11.5c1.9-1.9,5-1.9,6.8,0l0,0
					C828,128.9,828,132,826.2,133.9z"/>
				<path class="st1" d="M832,151.2L832,151.2c-2,2-5.4,2-7.4,0l-10.3-10.3c-2-2-2-5.4,0-7.4l0,0c2-2,5.4-2,7.4,0l10.3,10.3
					C834.1,145.8,834.1,149.1,832,151.2z"/>
			</g>
			<g>
				<path class="st1" d="M851.9,123l-11.5,11.5c-1.9,1.9-5,1.9-6.8,0l0,0c-1.9-1.9-1.9-5,0-6.8l11.5-11.5c1.9-1.9,5-1.9,6.8,0l0,0
					C853.8,118,853.8,121.1,851.9,123z"/>
				<path class="st1" d="M857.8,140.3L857.8,140.3c-2,2-5.4,2-7.4,0L840.1,130c-2-2-2-5.4,0-7.4l0,0c2-2,5.4-2,7.4,0l10.3,10.3
					C859.8,134.9,859.8,138.3,857.8,140.3z"/>
			</g>
			<g>
				<path class="st1" d="M877.7,112.1l-11.5,11.5c-1.9,1.9-5,1.9-6.8,0l0,0c-1.9-1.9-1.9-5,0-6.8l11.5-11.5c1.9-1.9,5-1.9,6.8,0l0,0
					C879.5,107.2,879.5,110.2,877.7,112.1z"/>
				<path class="st1" d="M883.5,129.4L883.5,129.4c-2,2-5.4,2-7.4,0l-10.3-10.3c-2-2-2-5.4,0-7.4l0,0c2-2,5.4-2,7.4,0l10.3,10.3
					C885.6,124,885.6,127.4,883.5,129.4z"/>
			</g>
			<g>
				<path class="st1" d="M903.4,101.2l-11.5,11.5c-1.9,1.9-5,1.9-6.8,0l0,0c-1.9-1.9-1.9-5,0-6.8l11.5-11.5c1.9-1.9,5-1.9,6.8,0l0,0
					C905.3,96.3,905.3,99.4,903.4,101.2z"/>
				<path class="st1" d="M909.3,118.6L909.3,118.6c-2,2-5.4,2-7.4,0l-10.4-10.3c-2-2-2-5.4,0-7.4l0,0c2-2,5.4-2,7.4,0l10.3,10.3
					C911.3,113.2,911.3,116.5,909.3,118.6z"/>
			</g>
		</g>
		<path class="st2" d="M858.3,245l-27.6-5.5c-4.7-0.9-9.5-0.9-14.1,0.1c-7.1,1.4-13.6,5-18.7,10.5l-3.4,3.7l-6.8,7.2l-15.1-23.4
			l-10.5-16.2l-2.7-4.2l8.2-7.7c3.4-3.2,6-7.1,7.5-11.5c1.1-3,1.6-6.2,1.6-9.5v-22.3l115.1-47.9l25.6-10.6l25.4,8
			C942.8,115.7,890.5,154.1,858.3,245z"/>
		<path class="st3" d="M458,612.6l-58.4-58.4l359.6-337.1l5.7-5.3l2.6-2.4c3.4-3.2,5.9-7.1,7.4-11.4l18.6,18.6l23.1,23
			c-7.1,1.5-13.6,5-18.7,10.4l-1.5,1.6l-2.1,2.1L458,612.6z"/>
		<path class="st4" d="M858.3,245l-27.6-5.5c-4.7-0.9-9.5-0.9-14.1,0.1c-7.1,1.4-13.6,5-18.7,10.5l-3.4,3.7l-6.8,7.2l-15.1-23.4
			l119.3-119.3l25.6-10.6l25.4,8C942.8,115.7,890.5,154.1,858.3,245z"/>
		<path class="st5" d="M458,612.6l-30.2-30.2l365.8-365.8l23.1,23c-7.1,1.5-13.6,5-18.7,10.4l-1.5,1.6l-2.1,2.1L458,612.6z"/>
		<g>
			<path class="st2" d="M295.8,848.3c-28.8-14.6-55-33.8-77.5-56.5c-21.8-22-40.2-47.5-54.4-75.4c-29.8-58.8-44.4-136.1,48.2-178.3
				c157.7-72,153.9-76.6,198.1-172.9s161.8-95.5,111.3-33.9c0,0-77.4,89.3,30.4,77.7l18.2,31l20.2,34.3
				c-75.3,92.8,17.2,101.9,46,86.2c16.1-8.9,34.8,7.7,27.4,24.6c-15.5,35.7-78.5,44.1-107.3,68.3c-24.4,24-43.6,62.2-82.2,146.8
				C431.9,892.8,354.6,878.1,295.8,848.3z"/>
			<path class="st4" d="M295.8,848.3c-28.8-14.6-55-33.8-77.5-56.5L570.1,440l20.2,34.3c-75.3,92.8,17.2,101.9,46,86.2
				c16.1-8.9,34.8,7.7,27.4,24.6c-15.5,35.7-78.5,44.1-107.3,68.3c-24.4,24-43.6,62.2-82.2,146.8
				C431.9,892.8,354.6,878.1,295.8,848.3z"/>
			<path class="st3" d="M453.9,635.7c-9.9,9.9-25.9,9.9-35.8,0l-41.5-41.5c-9.9-9.9-9.9-25.9,0-35.8c9.9-9.9,25.9-9.9,35.8,0
				l41.5,41.5C463.8,609.8,463.8,625.8,453.9,635.7z"/>
			<path class="st3" d="M398.5,708.4L372.9,734c-7.3,7.3-19.2,7.3-26.5,0l-68.2-68.2c-7.3-7.3-7.3-19.2,0-26.5l25.6-25.6
				c7.3-7.3,19.2-7.3,26.5,0l68.2,68.2C405.8,689.2,405.8,701.1,398.5,708.4z"/>
			<circle class="st6" cx="388.2" cy="766.2" r="20.8"/>
			<circle class="st6" cx="332.2" cy="821.8" r="20.8"/>
			<circle class="st7" cx="446.2" cy="770.2" r="20.8"/>
			<circle class="st8" cx="390.2" cy="825.8" r="20.8"/>
			<path class="st5" d="M418.1,635.7l-21.8-21.8l35.8-35.8l21.8,21.8c9.9,9.9,9.9,25.9,0,35.8S428,645.6,418.1,635.7z"/>
			<path class="st5" d="M398.5,708.4L372.9,734c-7.3,7.3-19.2,7.3-26.5,0l-35.1-35.1l52.1-52.1l35.1,35.1
				C405.8,689.2,405.8,701.1,398.5,708.4z"/>
		</g>
	</g>
</g>
</svg>
