<?xml version="1.0" encoding="utf-8"?>
<!-- Generator: Adobe Illustrator 24.0.0, SVG Export Plug-In . SVG Version: 6.00 Build 0)  -->
<svg version="1.1" id="Capa_1" xmlns="http://www.w3.org/2000/svg" xmlns:xlink="http://www.w3.org/1999/xlink" x="0px" y="0px"
	 viewBox="0 0 1024 1024" style="enable-background:new 0 0 1024 1024;" xml:space="preserve">
<style type="text/css">
	.st0{fill:#F473C3;}
	.st1{fill:#84BFA7;}
	.st2{fill:#CF5252;}
	.st3{fill:#FFDDCE;}
	.st4{fill:#FFCBBE;}
	.st5{fill:#534A9A;}
	.st6{fill:#FDC9A6;}
	.st7{fill:#F9B630;}
	.st8{fill:#64AD8E;}
	.st9{fill:#9DD4A9;}
	.st10{fill:#443F80;}
	.st11{fill:#EAAC9D;}
	.st12{fill:#2A286B;}
	.st13{fill:#F9A40D;}
</style>
<circle class="st0" cx="512" cy="512" r="440"/>
<g id="flat">
	<polygon class="st1" points="688.6,778 512,872.2 335.4,783.9 364.9,754.5 394.3,725 409,680.9 615,680.9 629.7,725 659.1,754.5 	
		"/>
	<path class="st2" d="M688.6,778l-155.3,82.8l-6.6-32.8l128.9-77l3.5,3.5L688.6,778z"/>
	<path class="st3" d="M394.3,406.9l-31.6,10.3c-17.3,8.6-29.9,24.4-34.6,43.2l-36.8,147l-110.4,69c-4.7,2.9-10.4,3.6-15.6,1.9
		l-30.1-10c-3.8-1.3-7.9-1.3-11.6,0l-22.9,7.6c-8.8,2.9-14,12-12.2,21.1l7.5,37.6c2.1,10.7,13.1,17.2,23.5,13.9L319,686
		c10.5-3.3,19.2-10.7,24.1-20.5l51.2-102.3L394.3,406.9L394.3,406.9z"/>
	<path class="st4" d="M629.7,406.9l31.6,10.3c17.3,8.6,29.9,24.4,34.6,43.2l36.8,147l110.4,69c4.7,2.9,10.4,3.6,15.6,1.9l30.1-10
		c3.8-1.3,7.9-1.3,11.6,0l22.9,7.6c8.8,2.9,14,12,12.2,21.1l-7.5,37.6c-2.1,10.7-13.1,17.2-23.5,13.9L705,686
		c-10.5-3.3-19.2-10.7-24.1-20.5l-51.2-102.3V406.9z"/>
	<path class="st5" d="M556.1,151.2L512,220.6l-6.7,10.6l-52.1,81.9c-27.3,18.2-62.2,20.4-91.6,5.7l-11.4-5.7l3.4-2.3
		c25.4-17,40.7-45.5,40.7-76.1v-4.1c0-50.8,20.2-99.5,56.1-135.5c11.2-11.2,26.3-17.5,42.1-17.5c4.4,0,8.6,0.5,12.7,1.4
		c2.3,0.5,4.5,1.1,6.7,1.9c19.6,6.8,34.8,23.4,39,44.7L556.1,151.2z"/>
	<polygon class="st3" points="570.8,389.6 570.8,460.2 512,504.4 505.3,499.3 453.2,460.2 453.2,389.6 467.9,386.7 467.9,327.8 
		556.1,327.8 556.1,386.7 	"/>
	<path class="st6" d="M556.1,327.8v14.7c-26.2,19.6-62.1,19.6-88.3,0v-14.7H556.1z"/>
	<path class="st7" d="M626,560.5l-25.7,32.2H423.7L398,560.5c-19.7-24.7-21.2-59.3-3.7-85.6v-68l58.9-17.3v70.6l58.8,44.1l58.8-44.1
		v-70.6l58.9,17.3v68C647.2,501.2,645.7,535.8,626,560.5z"/>
	<path class="st3" d="M615,680.9H409l8.7-26c4-12,6-24.6,6-37.2v-25h176.6v25c0,12.7,2,25.2,6,37.2L615,680.9z"/>
	<polygon class="st8" points="688.6,778 512,872.2 512,680.9 615,680.9 629.7,725 659.1,754.5 	"/>
	<path class="st4" d="M556.1,327.8v14.7c-13.1,9.8-28.6,14.7-44.1,14.7c-2.2,0-4.5-0.1-6.7-0.3c-13.2-1.2-26.2-6-37.4-14.4v-14.7
		L556.1,327.8L556.1,327.8z"/>
	<path class="st1" d="M541.4,916.3l257.5-105.2c27.5-14.6,38-48.7,23.4-76.2c-0.3-0.5-0.6-1.1-0.9-1.6c-15.4-27-49.9-36.4-76.9-21
		c-1.1,0.6-2.2,1.3-3.3,2L526.7,842.8L541.4,916.3z"/>
	<path class="st9" d="M490.6,916.3L233,811.1c-27.5-14.6-38-48.7-23.4-76.2c0.3-0.5,0.6-1.1,0.9-1.6c15.4-27,49.9-36.4,76.9-21
		c1.1,0.6,2.2,1.3,3.3,2l214.6,128.4L490.6,916.3z"/>
	<path class="st10" d="M556.1,151.2L512,220.6V80.9c19.6,6.8,34.8,23.4,39,44.7L556.1,151.2z"/>
	<g>
		<g>
			<path class="st4" d="M434.5,277.6c12.2,2,23.9-6.3,25.8-18.6c2-12.2-6.3-23.9-18.6-25.8l0,0c-12.2-2-23.9,6.3-25.8,18.6
				C413.9,264.1,422.2,275.6,434.5,277.6L434.5,277.6z"/>
			<path class="st11" d="M426.1,256.6c0.6,6.6,6.6,11.5,13.2,10.8c6.6-0.6,11.5-6.6,10.8-13.2c-0.6-6.6-6.6-11.5-13.2-10.8
				C430.3,244,425.4,250,426.1,256.6z"/>
		</g>
		<g>
			<path class="st4" d="M582.3,277.6c12.2,2,23.9-6.3,25.8-18.6c2-12.2-6.3-23.9-18.6-25.8l0,0c-12.2-2-23.9,6.3-25.8,18.6
				C561.7,264.1,570,275.6,582.3,277.6L582.3,277.6z"/>
			<path class="st11" d="M573.9,256.6c0.6,6.6,6.6,11.5,13.2,10.8c6.6-0.6,11.5-6.6,10.8-13.2c-0.6-6.6-6.6-11.5-13.2-10.8
				C578,244,573.2,250,573.9,256.6z"/>
		</g>
	</g>
	<path class="st3" d="M526.7,842.8l-68.8,13.8c-3.1,0.6-6.4,0.4-9.4-0.6l-28.7-9.6c-6.6-2.2-13.9-0.5-18.8,4.4l-13.4,13.4
		c-4.9,4.9-6.6,12.2-4.4,18.8l6.9,20.8c2.5,7.5,9.5,12.6,17.4,12.6h133.9L526.7,842.8z"/>
	<path class="st3" d="M585.6,239.5V269c0,40.6-32.9,73.6-73.6,73.6c-2.3,0-4.5-0.1-6.7-0.3c-37.5-3.4-66.8-34.9-66.8-73.2v-58.9
		c0-7.8,1.2-15.6,3.7-23l54,19.7l9.1,3.3l6.7,2.5L585.6,239.5z"/>
	<polygon class="st4" points="570.8,389.6 570.8,460.2 512,504.4 512,327.8 556.1,327.8 556.1,386.7 	"/>
	<path class="st11" d="M556.1,327.8v14.7c-13.1,9.8-28.6,14.7-44.1,14.7v-29.4L556.1,327.8L556.1,327.8z"/>
	<path class="st4" d="M585.6,239.5V269c0,40.6-32.9,73.6-73.6,73.6v-130L585.6,239.5z"/>
	<path class="st12" d="M496.1,206.8l-4.8,3.6c-16.3,12.2-34.1,22.1-52.9,29.3v-29.6c0-7.8,1.2-15.6,3.7-23L496.1,206.8z"/>
	<path class="st10" d="M585.6,210.1v29.4c-25.3,0-50.2-4.3-73.6-12.6c-20.9-7.4-40.8-18-58.8-31.5l-11-8.3
		c10.2-30.9,38.9-50.5,69.8-50.6c7.7,0,15.5,1.2,23.1,3.7C565.2,150.1,585.6,178.3,585.6,210.1z"/>
	<path class="st13" d="M626,560.5l-25.7,32.2H512v-88.3l58.8-44.1v-70.6l58.9,17.3v68C647.2,501.2,645.7,535.8,626,560.5z"/>
	<path class="st4" d="M615,680.9H512v-88.3h88.3v25c0,12.7,2,25.2,6,37.2L615,680.9z"/>
	<path class="st12" d="M585.6,210.1v29.4c-25.3,0-50.2-4.3-73.6-12.6v-90.4c7.7,0,15.5,1.2,23.1,3.7
		C565.2,150.1,585.6,178.3,585.6,210.1z"/>
</g>
</svg>
