<?xml version="1.0" encoding="utf-8"?>
<!-- Generator: Adobe Illustrator 24.0.0, SVG Export Plug-In . SVG Version: 6.00 Build 0)  -->
<svg version="1.1" id="Capa_1" xmlns="http://www.w3.org/2000/svg" xmlns:xlink="http://www.w3.org/1999/xlink" x="0px" y="0px"
	 viewBox="0 0 1024 1024" style="enable-background:new 0 0 1024 1024;" xml:space="preserve">
<style type="text/css">
	.st0{fill:#BAE4FA;}
	.st1{fill:#F473C3;}
	.st2{fill:#C640A6;}
	.st3{fill:#9DD4A9;}
	.st4{fill:#84BFA7;}
	.st5{fill:#F9F7FC;}
	.st6{fill:#767DD4;}
	.st7{fill:#DCDAEB;}
	.st8{fill:#5E6ACA;}
	.st9{fill-rule:evenodd;clip-rule:evenodd;fill:#F9F7FC;}
	.st10{fill-rule:evenodd;clip-rule:evenodd;fill:#DCDAEB;}
</style>
<path class="st0" d="M952,512c0,243-197,440-440,440c-88.1,0-170.2-25.9-239-70.5c-16.7-10.8-32.6-22.7-47.6-35.6
	c-14.8-12.7-28.7-26.4-41.7-40.9C114.2,727.1,72,624.5,72,512C72,269,269,72,512,72c103.7,0,199.1,35.9,274.3,96c0,0,0,0,0.1,0
	c21.5,17.2,41.4,36.4,59.4,57.3l0,0c16.5,19.2,31.5,39.9,44.5,61.9l0,0c1.7,2.8,3.3,5.7,5,8.6C931.4,359.7,952,433.4,952,512z"/>
<g>
	<path class="st1" d="M907.2,284.5l-269.6,257c-19.4,18.8-41.9,34.1-66.5,45.3l-49,22.4c-25.8,11.8-49.4,28.2-69.4,48.3L408,702.1
		L370.9,665l44.7-44.7c20.1-20.1,36.4-43.6,48.2-69.4l22.4-49c11.3-24.6,26.6-47.1,45.3-66.5l256.9-269.5
		c32.3-32.3,85.1-32.6,117.8-0.9c0.3,0.3,0.6,0.6,0.9,0.9l0,0C939.8,198.5,939.8,251.9,907.2,284.5z"/>
	<path class="st2" d="M907.2,284.5l-269.6,257c-19.4,18.8-41.9,34.1-66.5,45.3l-49,22.4c-25.8,11.8-49.4,28.2-69.4,48.3L408,702.1
		l-19.5-19.5L906.2,165c0.3,0.3,0.6,0.6,0.9,0.9l0,0C939.8,198.5,939.8,251.9,907.2,284.5z"/>
	<path class="st3" d="M269.2,864.3l-60.5-60.5c13,1.5,31.4-11.4,42.7-20.6l0,0c6.1-5,10.1-8.9,10.1-8.9l112.6-112.6l37.2,37.2
		L298.7,811.4c0,0-12.6,13.1-21.4,27.7C272.2,847.8,268.4,856.9,269.2,864.3z"/>
	<path class="st4" d="M269.2,864.3L238,833.1l153.8-153.8l19.5,19.5L298.7,811.4c0,0-12.6,13.1-21.4,27.7
		C272.2,847.8,268.4,856.9,269.2,864.3z"/>
	<g>
		<polygon class="st5" points="411.3,698.9 383,727.1 344.1,727.1 308.7,727.1 337.4,698.5 410.9,698.5 		"/>
		<path class="st5" d="M355.7,754.5L327,783.1h-39h-36.6c6.1-5,10.1-8.9,10.1-8.9l19.8-19.8h35.4L355.7,754.5z"/>
		<path class="st5" d="M277.3,839.2h-33.2l-28.7-28.7h45.2h39l-0.9,0.9C298.7,811.4,286.1,824.5,277.3,839.2z"/>
	</g>
	<path class="st1" d="M274.5,875.1c-0.2,2.2-0.7,4.3-1.5,6.4c-16.7-10.8-32.6-22.7-47.6-35.6c-14.8-12.7-28.7-26.4-41.7-40.9
		c8.7-8.3,22-8.8,31.3-1.4c0,0,0,0,0.1,0c0.7,0.5,1.3,1.1,2,1.8l24.3,24.3h0.1l0,0l9.3,9.4l16.9,16.9c0.6,0.7,1.2,1.3,1.8,2l0,0
		C273.4,863,275.1,869.1,274.5,875.1z"/>
	<path class="st6" d="M575.4,584.7c-1.4,0.7-2.8,1.4-4.3,2.1l-49,22.4c-7.3,3.3-14.4,7.1-21.3,11.1l-48.2-48.2
		c4-6.9,7.8-14,11.1-21.3l22.4-49c0.7-1.4,1.4-2.9,2.1-4.3L575.4,584.7z"/>
	<path class="st6" d="M907.2,284.5l-10,9.6L778.8,175.8l9.6-10c3.3-3.3,6.9-6.3,10.6-9l117.1,117.1
		C913.5,277.6,910.5,281.2,907.2,284.5z"/>
	<polygon class="st6" points="871,319.4 851.1,338.7 734.3,221.9 753.6,202 	"/>
	<path class="st7" d="M277.3,839.2h-33.2l-6-6l22.6-22.6h39l-0.9,0.9C298.7,811.4,286.1,824.5,277.3,839.2z"/>
	<path class="st2" d="M274.5,875.1c-0.2,2.2-0.7,4.3-1.5,6.4c-16.7-10.8-32.6-22.7-47.6-35.6l16-16l0,0l9.2,9.4l16.8,16.8
		c0.7,0.7,1.3,1.4,1.9,2.1c0,0,0,0.1,0.1,0.1C273.4,863.1,275,869.2,274.5,875.1z"/>
	<path class="st8" d="M575.4,584.7c-1.4,0.7-2.8,1.4-4.3,2.1l-49,22.4c-7.3,3.3-14.4,7.1-21.3,11.1l-25-25l55.1-55.1L575.4,584.7z"
		/>
	<polygon class="st8" points="811.4,259.8 871,319.4 851.1,338.7 791.8,279.4 	"/>
	<path class="st8" d="M907.2,284.5l-10,9.6L837.1,234l19.6-19.6l59.4,59.4C913.5,277.6,910.5,281.2,907.2,284.5z"/>
	<polygon class="st7" points="383,727.1 344.1,727.1 372.7,698.5 410.9,698.5 411.3,698.9 	"/>
	<polygon class="st7" points="327,783.1 288.1,783.1 316.7,754.5 355.7,754.5 	"/>
</g>
<g>
	<g>
		<path class="st9" d="M615.7,233.7c0,54-44.1,98.2-98.3,98.2c-27.1,0-51.7-11-69.5-28.8S419,260.7,419,233.6
			c0-54.1,44.2-98.3,98.3-98.3c27.1,0,51.7,11.1,69.5,28.9S615.6,206.6,615.7,233.7z"/>
	</g>
	<path class="st10" d="M615.7,233.7c0,54-44.1,98.2-98.3,98.2c-27.1,0-51.7-11-69.5-28.8l138.9-138.9
		C604.6,182,615.6,206.6,615.7,233.7z"/>
</g>
</svg>
