<?xml version="1.0" encoding="utf-8"?>
<!-- Generator: Adobe Illustrator 24.0.0, SVG Export Plug-In . SVG Version: 6.00 Build 0)  -->
<svg version="1.1" id="Capa_1" xmlns="http://www.w3.org/2000/svg" xmlns:xlink="http://www.w3.org/1999/xlink" x="0px" y="0px"
	 viewBox="0 0 1024 1024" style="enable-background:new 0 0 1024 1024;" xml:space="preserve">
<style type="text/css">
	.st0{fill:#9DD4A9;}
	.st1{fill:#FFD071;}
	.st2{fill:#F9B630;}
	.st3{fill:#F9F7FC;}
	.st4{fill:#DCDAEB;}
	.st5{fill:#767DD4;}
	.st6{fill:#BAE4FA;}
	.st7{fill:#443F80;}
	.st8{fill:#2A286B;}
	.st9{fill:#F473C3;}
	.st10{fill:#5E6ACA;}
	.st11{fill:#C640A6;}
	.st12{fill:#A5C6FF;}
</style>
<circle class="st0" cx="512" cy="512" r="440"/>
<g>
	<g>
		<path class="st1" d="M501.1,885c-70.6,53.5-152,22.9-217.5-42.6L198.2,757c-65.5-65.5-96.1-146.9-42.6-217.5
			c35.4-46.8,110.7-94.2,169.5-92.3c9.2,0.3,20.6-3.5,24.1-15.2c7.9-30.1,36.2-65.9,61.2-84c52.9-38.3,118.3-20.1,166.7,28.3
			l87.3,87.3c48.4,48.4,66.6,113.8,28.3,166.7c-18,25-53.9,53.3-84,61.2c-11.7,3.5-15.5,14.9-15.2,24.1
			C595.3,774.4,548,849.6,501.1,885z"/>
		<path class="st2" d="M501.1,885c-70.6,53.5-152,22.9-217.5-42.6l-42.7-42.7l379.8-379.8l43.7,43.7
			c48.4,48.4,66.6,113.8,28.3,166.7c-18,25-53.9,53.3-84,61.2c-11.7,3.5-15.5,14.9-15.2,24.1C595.3,774.4,548,849.6,501.1,885z"/>
		<polygon class="st3" points="779.2,324.6 473,652 388.6,567.6 716,261.3 		"/>
		<polygon class="st4" points="779.2,324.6 473,652 430.8,609.8 747.6,292.9 		"/>
		<path class="st5" d="M392,799l-13.7,13.7c-3.1,3.2-8.3,3.2-11.5,0l-5.2-5.2c-6.8,4.9-16.2,5-23.2,0L280.3,766
			c-1.1-0.8-2.1-1.7-3-2.7v0c-0.6-0.6-1.1-1.2-1.6-1.9l-41.5-58.1c-5.1-7-4.9-16.4,0-23.2l-5.2-5.2c-3.2-3.1-3.2-8.3,0-11.5
			l13.8-13.7c3.1-3.2,8.3-3.2,11.5,0l68.3,68.3l69.4,69.5C395.2,790.6,395.2,795.8,392,799z"/>
		<path class="st6" d="M368.2,783c-0.8,0.8-1.9,1.2-3,1.2c-1.1,0-2.3-0.4-3.2-1.3l-52.2-52.2l-51.6-51.7c-1.7-1.7-1.7-4.4,0-6.1
			c0.8-0.8,2-1.3,3-1.3s2.2,0.4,3,1.3l103.9,103.9C369.9,778.6,369.9,781.3,368.2,783z"/>
		<path class="st7" d="M503.5,537c-34.8-34.8-91.8-34.8-126.6,0s-34.8,91.8,0,126.6s91.8,34.8,126.6,0
			C538.4,628.8,538.4,571.8,503.5,537z"/>
		<path class="st8" d="M377,663.6L503.5,537c34.8,34.8,34.8,91.8,0,126.6C468.7,698.4,411.8,698.4,377,663.6z"/>
		<path class="st1" d="M922.4,222.9l-96,81.3l-47.2,20.4L716,261.3l20.4-47.1l81.3-96.1c2.3-2.7,6-3.5,9.2-2.2l68.4,29.3l29.3,68.4
			C926,216.9,925.1,220.6,922.4,222.9z"/>
		<path class="st2" d="M779.3,324.6L747.6,293l147.7-147.7l29.3,68.4c1.4,3.2,0.5,6.9-2.2,9.2l-96,81.3L779.3,324.6z"/>
		<g>
			<g>
				<path class="st5" d="M827.6,141.7c-5.9-5.9-15.4-5.9-21.3,0c-5.9,5.9-5.9,15.4,0,21.3c5.9,5.9,15.4,5.9,21.3,0
					C833.4,157.1,833.4,147.5,827.6,141.7z M811.3,158c-3.1-3.1-3.1-8.2,0-11.3s8.2-3.1,11.3,0s3.1,8.2,0,11.3
					S814.4,161.1,811.3,158z"/>
				<path class="st9" d="M798.2,133.6c-6.2,6.2-20.5,2-26.6-4.2c-6.2-6.2-3-13.1,3.2-19.3c6.2-6.2,13.1-9.4,19.3-3.2
					C800.2,113.2,804.4,127.4,798.2,133.6z"/>
				<path class="st9" d="M809.5,152.1l-20.6-20.6l7.2-7.2l20.6,20.6c0.9,0.9,1.4,2.1,1.5,3.3l0,0c0.2,3-2.3,5.5-5.4,5.4l0,0
					C811.6,153.5,810.4,153,809.5,152.1z"/>
			</g>
			<g>
				<path class="st5" d="M799.9,173.9c-5.9-5.9-15.4-5.9-21.3,0c-5.9,5.9-5.9,15.4,0,21.3c5.9,5.9,15.4,5.9,21.3,0
					S805.8,179.7,799.9,173.9z M783.6,190.1c-3.1-3.1-3.1-8.2,0-11.3s8.2-3.1,11.3,0s3.1,8.2,0,11.3
					C791.8,193.3,786.7,193.3,783.6,190.1z"/>
				<path class="st9" d="M770.6,165.8c-6.2,6.2-20.5,2-26.6-4.2s-3-13.1,3.2-19.3s13.1-9.4,19.3-3.2
					C772.6,145.4,776.8,159.6,770.6,165.8z"/>
				<path class="st9" d="M781.8,184.3l-20.6-20.6l7.2-7.2l20.6,20.6c0.9,0.9,1.4,2.1,1.5,3.3l0,0c0.2,3-2.3,5.5-5.4,5.4l0,0
					C783.9,185.7,782.7,185.2,781.8,184.3z"/>
			</g>
			<g>
				<path class="st5" d="M773.9,207.7c-5.9-5.9-15.4-5.9-21.3,0c-5.9,5.9-5.9,15.4,0,21.3c5.9,5.9,15.4,5.9,21.3,0
					S779.8,213.6,773.9,207.7z M757.6,224c-3.1-3.1-3.1-8.2,0-11.3s8.2-3.1,11.3,0s3.1,8.2,0,11.3S760.7,227.1,757.6,224z"/>
				<path class="st9" d="M744.6,199.7c-6.2,6.2-20.5,2-26.6-4.2c-6.2-6.2-3-13.1,3.2-19.3s13.1-9.4,19.3-3.2
					C746.6,179.2,750.8,193.5,744.6,199.7z"/>
				<path class="st9" d="M755.8,218.1l-20.6-20.6l7.2-7.2l20.6,20.6c0.9,0.9,1.4,2.1,1.5,3.3l0,0c0.2,3-2.3,5.5-5.4,5.4l0,0
					C757.9,219.5,756.7,219,755.8,218.1z"/>
			</g>
			<g>
				<path class="st10" d="M878.8,214.1c-5.9,5.9-5.9,15.4,0,21.3c5.9,5.9,15.4,5.9,21.3,0c5.9-5.9,5.9-15.4,0-21.3
					C894.1,208.3,884.6,208.3,878.8,214.1z M883.7,219.1c3.1-3.1,8.2-3.1,11.3,0s3.1,8.2,0,11.3s-8.2,3.1-11.3,0
					C880.6,227.3,880.6,222.2,883.7,219.1z"/>
				<path class="st11" d="M908.1,243.5c-6.2,6.2-2,20.5,4.2,26.6c6.2,6.2,13.1,3,19.3-3.2s9.4-13.1,3.2-19.3
					C928.5,241.5,914.3,237.3,908.1,243.5z"/>
				<path class="st11" d="M889.6,232.2l20.6,20.6l7.2-7.2L896.8,225c-0.9-0.9-2.1-1.4-3.3-1.5l0,0c-3-0.2-5.5,2.3-5.4,5.4l0,0
					C888.2,230.1,888.7,231.3,889.6,232.2z"/>
			</g>
			<g>
				<path class="st10" d="M846.6,241.8c-5.9,5.9-5.9,15.4,0,21.3s15.4,5.9,21.3,0c5.9-5.9,5.9-15.4,0-21.3
					C862,235.9,852.4,235.9,846.6,241.8z M851.6,246.8c3.1-3.1,8.2-3.1,11.3,0s3.1,8.2,0,11.3s-8.2,3.1-11.3,0
					C848.4,254.9,848.4,249.9,851.6,246.8z"/>
				<path class="st11" d="M875.9,271.1c-6.2,6.2-2,20.5,4.2,26.6c6.2,6.2,13.1,3,19.3-3.2s9.4-13.1,3.2-19.3
					C896.3,269.1,882.1,264.9,875.9,271.1z"/>
				<path class="st11" d="M857.4,259.9l20.6,20.6l7.2-7.2l-20.6-20.6c-0.9-0.9-2.1-1.4-3.3-1.5l0,0c-3-0.2-5.5,2.3-5.4,5.4l0,0
					C856,257.8,856.5,259,857.4,259.9z"/>
			</g>
			<g>
				<path class="st10" d="M812.7,267.8c-5.9,5.9-5.9,15.4,0,21.3s15.4,5.9,21.3,0c5.9-5.9,5.9-15.4,0-21.3S818.6,261.9,812.7,267.8z
					 M817.7,272.8c3.1-3.1,8.2-3.1,11.3,0s3.1,8.2,0,11.3c-3.1,3.1-8.2,3.1-11.3,0C814.6,280.9,814.6,275.9,817.7,272.8z"/>
				<path class="st11" d="M842,297.1c-6.2,6.2-2,20.5,4.2,26.6c6.2,6.2,13.1,3,19.3-3.2s9.4-13.1,3.2-19.3
					C862.5,295.1,848.2,290.9,842,297.1z"/>
				<path class="st11" d="M823.6,285.9l20.6,20.6l7.2-7.2l-20.6-20.6c-0.9-0.9-2.1-1.4-3.3-1.5l0,0c-3-0.2-5.5,2.3-5.4,5.4l0,0
					C822.2,283.8,822.7,285,823.6,285.9z"/>
			</g>
		</g>
		<path class="st11" d="M396.4,762.8c-11.8-18.2-20.6-45.1-10.2-69.2c41.2,21.8,93.7,15.4,128.3-19.1c21.8-21.8,32.4-50.6,31.8-79.3
			l34.2-36.5c10.8,43,19.8,122.5-35.4,185.5C465.4,835.2,408.9,782.1,396.4,762.8z"/>
		<path class="st10" d="M392,799l-13.7,13.7c-3.1,3.2-8.3,3.2-11.5,0l-5.2-5.2c-6.8,4.9-16.2,5-23.2,0L280.3,766
			c-1.1-0.8-2.1-1.7-3-2.7v0l45.3-45.3l69.4,69.5C395.2,790.6,395.2,795.8,392,799z"/>
		<path class="st12" d="M368.2,783c-0.8,0.8-1.9,1.2-3,1.2c-1.1,0-2.3-0.4-3.2-1.3l-52.2-52.2l6.1-6.1l52.2,52.2
			C369.9,778.6,369.9,781.3,368.2,783z"/>
	</g>
</g>
</svg>
