<?xml version="1.0" encoding="utf-8"?>
<!-- Generator: Adobe Illustrator 24.0.0, SVG Export Plug-In . SVG Version: 6.00 Build 0)  -->
<svg version="1.1" id="Capa_1" xmlns="http://www.w3.org/2000/svg" xmlns:xlink="http://www.w3.org/1999/xlink" x="0px" y="0px"
	 viewBox="0 0 1024 1024" style="enable-background:new 0 0 1024 1024;" xml:space="preserve">
<style type="text/css">
	.st0{fill:#9DD4A9;}
	.st1{fill:#F9B630;}
	.st2{fill:#F473C3;}
	.st3{fill:#F9A40D;}
	.st4{fill:#84BFA7;}
	.st5{fill:#C640A6;}
	.st6{fill:#FFD071;}
	.st7{fill:#906027;}
	.st8{fill:#6C9084;}
</style>
<circle class="st0" cx="512" cy="512" r="440"/>
<g>
	<path class="st1" d="M702.4,833.7H321.6l6.9-8c46.8-54.3,77.2-120.6,87.9-191.5l34-225.2h123.4l34.9,227.4
		C619.9,710,652.6,778.5,702.4,833.7z"/>
	<path class="st2" d="M663.1,300v96.7c0,17-13.8,30.9-30.9,30.9H395.5c-17,0-30.9-13.8-30.9-30.9V300H663.1z"/>
	<path class="st3" d="M702.4,833.7H512V409h61.8l34.9,227.4C619.9,710,652.6,778.5,702.4,833.7z"/>
	<rect x="364.6" y="300" class="st4" width="298.5" height="71.4"/>
	<path class="st2" d="M652.2,667.5v89.7H375.6v-89.7c0-15.8,12.8-28.6,28.6-28.6h219.4C639.4,638.9,652.2,651.7,652.2,667.5z"/>
	<path class="st4" d="M702.4,833.7v75.1c-8.6,4.1-17.4,8-26.3,11.6C625.3,940.8,570,952,512,952c-68.2,0-132.8-15.5-190.4-43.2
		v-75.1H702.4z"/>
	<path class="st5" d="M663.1,300v96.7c0,17-13.8,30.9-30.9,30.9H512V300H663.1z"/>
	<g>
		<path class="st6" d="M665.1,316.8H362.7c-13.7,0-24.1-12.3-21.9-25.8l23.8-146.1l3.2-19.3h34.9l3.5,19.5l12.1,67.9h50.2l24.8-75.7
			l10.3-31.2h20.7l10.2,31.2l24.8,75.7h50.2l12.1-67.7l3.5-19.7H660l3.1,19.1L687,291C689.2,304.5,678.8,316.8,665.1,316.8z"/>
		<path class="st6" d="M549.8,107.9c0,12.2-6,22.9-15.3,29.4c-5.8,4.1-12.9,6.5-20.6,6.5c-0.6,0-1.3,0-1.9,0
			c-6.9-0.4-13.3-2.7-18.7-6.4c-9.3-6.5-15.3-17.3-15.3-29.4c0-19.2,15-34.9,34-35.9c0.6,0,1.3,0,1.9,0
			C533.7,72,549.8,88.1,549.8,107.9z"/>
		<circle class="st6" cx="385.5" cy="115.7" r="35.9"/>
		<path class="st7" d="M677.8,115.7c0,11.9-5.8,22.4-14.7,29c-5.9,4.4-13.3,6.9-21.2,6.9c-7.5,0-14.5-2.3-20.3-6.3
			c-9.4-6.5-15.6-17.3-15.6-29.6c0-19.8,16.1-35.9,35.9-35.9C661.7,79.8,677.8,95.9,677.8,115.7z"/>
	</g>
	<rect x="512" y="300" class="st8" width="151.1" height="71.4"/>
	<path class="st5" d="M652.2,667.5v89.7H512V638.9h111.6C639.4,638.9,652.2,651.7,652.2,667.5z"/>
	<path class="st8" d="M702.4,833.7v75.1c-8.6,4.1-17.4,8-26.3,11.6C625.3,940.8,570,952,512,952V833.7H702.4z"/>
	<path class="st1" d="M665.1,316.8H512V72c0.6,0,1.3,0,1.9,0c19.8,0,35.9,16.1,35.9,35.9c0,12.2-6,22.9-15.3,29.4l24.8,75.7h50.2
		l12.1-67.7c-9.4-6.5-15.6-17.3-15.6-29.6c0-19.8,16.1-35.9,35.9-35.9c19.8,0,35.9,16.1,35.9,35.9c0,11.9-5.8,22.4-14.7,29L687,291
		C689.2,304.5,678.8,316.8,665.1,316.8z"/>
</g>
</svg>
