<?xml version="1.0" encoding="utf-8"?>
<!-- Generator: Adobe Illustrator 24.0.0, SVG Export Plug-In . SVG Version: 6.00 Build 0)  -->
<svg version="1.1" id="Capa_1" xmlns="http://www.w3.org/2000/svg" xmlns:xlink="http://www.w3.org/1999/xlink" x="0px" y="0px"
	 viewBox="0 0 1024 1024" style="enable-background:new 0 0 1024 1024;" xml:space="preserve">
<style type="text/css">
	.st0{fill:#9DD4A9;}
	.st1{fill:#443F80;}
	.st2{fill:#2A286B;}
	.st3{fill:#171759;}
	.st4{fill:#534A9A;}
	.st5{fill:#F9F7FC;}
	.st6{fill:#DCDAEB;}
	.st7{fill:#FFD071;}
	.st8{fill:#F9B630;}
</style>
<circle class="st0" cx="512" cy="512" r="440"/>
<g>
	<g>
		<path class="st1" d="M640.6,411.9H383.2v-61.2c0-3.8,3-6.8,6.8-6.8h243.6c3.8,0,6.8,3,6.8,6.8L640.6,411.9z"/>
		<g>
			<path class="st2" d="M155,540v229.2c-4.8-6.7-9.5-13.5-13.9-20.5c-14.6-22.7-27.1-46.9-37.3-72.2V540H155z"/>
			<path class="st3" d="M920.1,540v137c-10.2,25.2-22.6,49.1-37.1,71.7c-4.5,7.1-9.2,14-14.2,20.8V540H920.1z"/>
		</g>
		<path class="st4" d="M893.7,408.9c-4.6,0-9.1-2.7-11.3-7.1L778,177c-2.8-6.3-0.2-13.6,6-16.6c6.3-2.8,13.6-0.2,16.6,6L905,391.1
			c2.8,6.3,0.2,13.6-6,16.6C897.4,408.6,895.5,408.9,893.7,408.9z"/>
		<path class="st1" d="M875.5,148c0,9.2-5.9,17.7-15,20.7L512,284.1L139.2,407.6c-11.4,3.8-23.7-2.5-27.5-14.1
			c-0.8-2.3-1.1-4.6-1.1-6.9c0-9.3,5.9-17.9,15-20.9l386.3-128l334.8-110.9c11.4-3.8,23.7,2.5,27.5,14.1
			C875.1,143.2,875.5,145.7,875.5,148z"/>
		<g>
			<rect x="486.3" y="540" class="st4" width="51.2" height="255.6"/>
			<path class="st4" d="M913.3,394.8L913.1,540H110.7V388.2h795.9C910.3,388.2,913.3,391.2,913.3,394.8z"/>
		</g>
		<rect x="110.7" y="513.6" class="st5" width="802.5" height="26.4"/>
		<path class="st1" d="M913.3,394.8L913.1,540H537.5v255.6H512V388.2h394.6C910.3,388.2,913.3,391.2,913.3,394.8z"/>
		<g>
			<g>
				<g>
					<rect x="152.2" y="500.5" class="st2" width="16.9" height="13.1"/>
					<rect x="185.7" y="500.5" class="st2" width="16.9" height="13.1"/>
					<rect x="220" y="500.5" class="st2" width="16.9" height="13.1"/>
				</g>
				<rect x="285.4" y="500.5" class="st2" width="16.9" height="13.1"/>
				<rect x="312.1" y="500.5" class="st2" width="16.9" height="13.1"/>
				<rect x="372.8" y="500.5" class="st2" width="16.9" height="13.1"/>
				<rect x="399.1" y="500.5" class="st2" width="16.9" height="13.1"/>
			</g>
			<g>
				<g>
					<rect x="849.8" y="500.5" class="st3" width="16.9" height="13.1"/>
					<rect x="816.3" y="500.5" class="st3" width="16.9" height="13.1"/>
					<rect x="782" y="500.5" class="st3" width="16.9" height="13.1"/>
				</g>
				<rect x="716.5" y="500.5" class="st3" width="16.9" height="13.1"/>
				<rect x="689.7" y="500.5" class="st3" width="16.9" height="13.1"/>
				<rect x="629.2" y="500.5" class="st3" width="16.9" height="13.1"/>
				<rect x="602.8" y="500.5" class="st3" width="16.9" height="13.1"/>
			</g>
			<g>
				<rect x="464.4" y="500.5" class="st2" width="16.9" height="13.1"/>
				<rect x="490.5" y="500.5" class="st2" width="16.9" height="13.1"/>
				<rect x="516.5" y="500.5" class="st3" width="16.9" height="13.1"/>
				<rect x="542.5" y="500.5" class="st3" width="16.9" height="13.1"/>
			</g>
		</g>
		<path class="st1" d="M936.3,502.2v89c0,3.6-3,6.6-6.6,6.6H94.3c-3.7,0-6.6-3-6.6-6.6v-89c0-3.7,3-6.6,6.6-6.6h44.6v44.2h746.2
			v-44.2h44.6C933.3,495.6,936.3,498.5,936.3,502.2z"/>
		<path class="st2" d="M936.3,502.2v89c0,3.6-3,6.6-6.6,6.6H512v-58h373.1v-44.2h44.6C933.3,495.6,936.3,498.5,936.3,502.2z"/>
		<g>
			<g>
				<path class="st2" d="M537.5,782.3h-51.2v-38.8c0-14.1,11.4-25.5,25.5-25.5h0.2c7,0,13.3,2.9,17.9,7.5c4.6,4.6,7.5,11,7.5,18.1
					l0.1,25.5V782.3z"/>
				<path class="st2" d="M467.6,782.3h-51.2v-38.8c0-14.1,11.4-25.5,25.5-25.5l0,0c14.1,0,25.5,11.4,25.5,25.5L467.6,782.3
					L467.6,782.3z"/>
				<path class="st2" d="M607.5,782.3h-51.2v-38.8c0-14.1,11.4-25.5,25.5-25.5c7,0,13.4,2.9,18,7.5s7.5,11,7.5,18.1l0.1,25.5
					L607.5,782.3z"/>
			</g>
			<g>
				<path class="st2" d="M633.2,775.8v30.7c0,3.8-3,6.8-6.8,6.8H397.5c-3.8,0-6.8-3-6.8-6.8v-30.7c0-3.8,3-6.8,6.8-6.8h228.9
					C630.2,769,633.2,772,633.2,775.8z"/>
			</g>
		</g>
		<path class="st2" d="M640.5,350.7l0.2,61.2H512v-68h121.7C637.5,343.9,640.5,346.9,640.5,350.7z"/>
		<path class="st2" d="M875.5,148c0,9.2-5.9,17.7-15,20.7L512,284.1v-46.5l334.8-110.9c11.4-3.8,23.7,2.5,27.5,14.1
			C875.1,143.2,875.5,145.7,875.5,148z"/>
		<g>
			<path class="st5" d="M577.8,473.2H445.9c-2.8,0-5.1-2.3-5.1-5.1V317.2c0-2.8,2.3-5.1,5.1-5.1h131.9c2.8,0,5.1,2.3,5.1,5.1V468
				C583.1,470.9,580.8,473.2,577.8,473.2z"/>
			<path class="st6" d="M577.8,473.2H512V312.1h65.8c2.8,0,5.1,2.3,5.1,5.1V468C583.1,470.9,580.8,473.2,577.8,473.2z"/>
			<g>
				<path class="st7" d="M571.3,358.8c0,1.4-0.5,2.6-1.4,3.5s-2.1,1.4-3.4,1.4H457.1c-2.7,0-4.8-2.2-4.8-4.8c0-1.3,0.5-2.5,1.4-3.4
					s2.1-1.4,3.4-1.4h109.4C569.2,354,571.3,356.2,571.3,358.8z"/>
				<path class="st7" d="M571.3,381c0,1.3-0.5,2.5-1.4,3.4s-2.1,1.4-3.4,1.4H457.1c-2.7,0-4.8-2.2-4.8-4.8c0-1.3,0.5-2.5,1.4-3.4
					s2.1-1.4,3.4-1.4h109.4C569.2,376.2,571.3,378.4,571.3,381z"/>
				<path class="st7" d="M571.3,403.1c0,1.3-0.5,2.5-1.4,3.4s-2.1,1.4-3.4,1.4H457.1c-2.7,0-4.8-2.2-4.8-4.8c0-1.3,0.5-2.5,1.4-3.4
					s2.1-1.4,3.4-1.4h109.4C569.2,398.3,571.3,400.4,571.3,403.1z"/>
				<path class="st7" d="M571.3,425.3c0,1.3-0.5,2.5-1.4,3.4s-2.1,1.4-3.4,1.4H457.1c-2.7,0-4.8-2.2-4.8-4.8c0-1.3,0.5-2.5,1.4-3.4
					s2.1-1.4,3.4-1.4h109.4C569.2,420.5,571.3,422.6,571.3,425.3z"/>
				<path class="st7" d="M571.3,447.3c0,1.3-0.5,2.5-1.4,3.4s-2.1,1.4-3.4,1.4H457.1c-2.7,0-4.8-2.2-4.8-4.8c0-1.3,0.5-2.5,1.4-3.4
					s2.1-1.4,3.4-1.4h109.4C569.2,442.5,571.3,444.7,571.3,447.3z"/>
				<path class="st7" d="M534.9,330.7c0,1.3-0.5,2.5-1.4,3.4s-2.1,1.4-3.4,1.4h-36.5c-2.6,0-4.8-2.2-4.8-4.8c0-1.3,0.5-2.5,1.4-3.4
					s2.1-1.4,3.4-1.4h36.5C532.7,325.8,534.9,328,534.9,330.7z"/>
			</g>
			<g>
				<path class="st8" d="M530.1,335.5H512v-9.6h18.1c2.6,0,4.8,2.2,4.8,4.8c0,1.3-0.5,2.5-1.4,3.4
					C532.6,334.9,531.4,335.5,530.1,335.5z"/>
				<path class="st8" d="M571.3,447.3c0,1.3-0.5,2.5-1.4,3.4s-2.1,1.4-3.4,1.4H512v-9.6h54.5C569.2,442.5,571.3,444.7,571.3,447.3z"
					/>
				<path class="st8" d="M571.3,425.3c0,1.3-0.5,2.5-1.4,3.4s-2.1,1.4-3.4,1.4H512v-9.6h54.5C569.2,420.5,571.3,422.6,571.3,425.3z"
					/>
				<path class="st8" d="M571.3,403.1c0,1.3-0.5,2.5-1.4,3.4s-2.1,1.4-3.4,1.4H512v-9.6h54.5C569.2,398.3,571.3,400.4,571.3,403.1z"
					/>
				<path class="st8" d="M571.3,381c0,1.3-0.5,2.5-1.4,3.4s-2.1,1.4-3.4,1.4H512v-9.6h54.5C569.2,376.2,571.3,378.4,571.3,381z"/>
				<path class="st8" d="M566.5,363.6H512V354h54.5c2.6,0,4.8,2.2,4.8,4.8c0,1.4-0.5,2.6-1.4,3.5
					C569.1,363.1,567.9,363.6,566.5,363.6z"/>
			</g>
		</g>
		<rect x="110.7" y="469.2" class="st2" width="802.5" height="26.4"/>
		<path class="st3" d="M633.2,775.8v30.7c0,3.8-3,6.8-6.8,6.8H512V718c7,0,13.3,2.9,17.9,7.5c4.6,4.6,7.5,11,7.5,18.1l0.1,25.5h18.8
			v-25.5c0-14.1,11.4-25.5,25.5-25.5c7,0,13.4,2.9,18,7.5s7.5,11,7.5,18.1l0.1,25.5h19C630.2,769,633.2,772,633.2,775.8z"/>
		<rect x="512" y="469.2" class="st3" width="401.3" height="26.4"/>
		<rect x="512" y="513.6" class="st6" width="373.1" height="26.4"/>
	</g>
</g>
</svg>
